<?xml version="1.0" encoding="UTF-8"?>
<svg id="a" data-name="Layer 1" xmlns="http://www.w3.org/2000/svg" width="9.002in" height="6.002in" viewBox="0 0 648.177 432.177">
  <g>
    <g>
      <g>
        <line x1="445.855" y1="410.621" x2="437.317" y2="397.43" fill="none" stroke="#221f1f" stroke-miterlimit="10" stroke-width=".5"/>
        <line x1="433.692" y1="391.828" x2="425.154" y2="378.637" fill="none" stroke="#221f1f" stroke-miterlimit="10" stroke-width=".5"/>
        <line x1="421.606" y1="372.942" x2="413.068" y2="359.751" fill="none" stroke="#221f1f" stroke-miterlimit="10" stroke-width=".5"/>
        <line x1="409.442" y1="354.149" x2="400.905" y2="340.958" fill="none" stroke="#221f1f" stroke-miterlimit="10" stroke-width=".5"/>
      </g>
      <g>
        <line x1="396.989" y1="334.164" x2="388.451" y2="320.973" fill="none" stroke="#221f1f" stroke-miterlimit="10" stroke-width=".5"/>
        <line x1="384.826" y1="315.372" x2="376.288" y2="302.181" fill="none" stroke="#221f1f" stroke-miterlimit="10" stroke-width=".5"/>
        <line x1="372.74" y1="296.486" x2="364.202" y2="283.295" fill="none" stroke="#221f1f" stroke-miterlimit="10" stroke-width=".5"/>
        <line x1="360.577" y1="277.693" x2="352.039" y2="264.502" fill="none" stroke="#221f1f" stroke-miterlimit="10" stroke-width=".5"/>
      </g>
    </g>
    <g>
      <g>
        <line x1="346.284" y1="254.769" x2="337.746" y2="241.578" fill="none" stroke="#221f1f" stroke-miterlimit="10" stroke-width=".5"/>
        <line x1="334.121" y1="235.976" x2="325.583" y2="222.785" fill="none" stroke="#221f1f" stroke-miterlimit="10" stroke-width=".5"/>
        <line x1="322.035" y1="217.09" x2="313.497" y2="203.899" fill="none" stroke="#221f1f" stroke-miterlimit="10" stroke-width=".5"/>
        <line x1="309.872" y1="198.297" x2="301.334" y2="185.106" fill="none" stroke="#221f1f" stroke-miterlimit="10" stroke-width=".5"/>
      </g>
      <g>
        <line x1="297.418" y1="178.313" x2="288.881" y2="165.121" fill="none" stroke="#221f1f" stroke-miterlimit="10" stroke-width=".5"/>
        <line x1="285.255" y1="159.52" x2="276.718" y2="146.329" fill="none" stroke="#221f1f" stroke-miterlimit="10" stroke-width=".5"/>
        <line x1="273.169" y1="140.634" x2="264.632" y2="127.443" fill="none" stroke="#221f1f" stroke-miterlimit="10" stroke-width=".5"/>
        <line x1="261.006" y1="121.841" x2="252.468" y2="108.65" fill="none" stroke="#221f1f" stroke-miterlimit="10" stroke-width=".5"/>
      </g>
    </g>
  </g>
  <g>
    <rect x="-396.473" y="469.712" width="3386.58" height="2514.089" transform="translate(-429.939 3023.574) rotate(-90)" fill="none" stroke="#231f20" stroke-linecap="round" stroke-miterlimit="10" stroke-width="7"/>
    <rect x="-379.506" y="486.834" width="3353.392" height="2482.402" transform="translate(-430.845 3025.225) rotate(-90)" fill="none" stroke="#231f20" stroke-linecap="round" stroke-miterlimit="10" stroke-width="3"/>
    <rect x="-341.031" y="522.452" width="3275.615" height="2412.095" transform="translate(-431.722 3025.276) rotate(-90)" fill="none" stroke="#231f20" stroke-linecap="round" stroke-miterlimit="10"/>
    <rect x="-323.163" y="539.815" width="3239.88" height="2376.261" transform="translate(-431.169 3024.723) rotate(-90)" fill="none" stroke="#231f20" stroke-linecap="round" stroke-miterlimit="10"/>
    <line x1="90.729" y1="108.559" x2="108.646" y2="108.559" fill="none" stroke="#231f20" stroke-linecap="round" stroke-miterlimit="10"/>
    <g>
      <line x1="90.729" y1="396.587" x2="108.646" y2="396.587" fill="none" stroke="#231f20" stroke-linecap="round" stroke-miterlimit="10"/>
      <line x1="90.729" y1="324.381" x2="108.646" y2="324.381" fill="none" stroke="#231f20" stroke-linecap="round" stroke-miterlimit="10"/>
      <line x1="90.729" y1="252.187" x2="108.646" y2="252.187" fill="none" stroke="#231f20" stroke-linecap="round" stroke-miterlimit="10"/>
      <line x1="90.729" y1="180.373" x2="108.646" y2="180.373" fill="none" stroke="#231f20" stroke-linecap="round" stroke-miterlimit="10"/>
      <rect x="27.958" y="320.025" width="144" height="8.773" transform="translate(-224.453 424.369) rotate(-90)" fill="#231f20" stroke-width="0"/>
    </g>
    <line x1="108.646" y1="90.623" x2="108.646" y2="108.54" fill="none" stroke="#231f20" stroke-linecap="round" stroke-miterlimit="10"/>
    <line x1="180.842" y1="108.608" x2="180.842" y2="90.692" fill="none" stroke="#231f20" stroke-linecap="round" stroke-miterlimit="10"/>
    <line x1="108.714" y1="108.608" x2="108.714" y2="90.692" fill="none" stroke="#231f20" stroke-linecap="round" stroke-miterlimit="10"/>
    <line x1="36.875" y1="108.608" x2="36.875" y2="90.692" fill="none" stroke="#231f20" stroke-linecap="round" stroke-miterlimit="10"/>
    <line x1="612.206" y1="108.608" x2="612.206" y2="90.692" fill="none" stroke="#231f20" stroke-linecap="round" stroke-miterlimit="10"/>
    <line x1="540.368" y1="108.608" x2="540.368" y2="90.692" fill="none" stroke="#231f20" stroke-linecap="round" stroke-miterlimit="10"/>
    <line x1="468.313" y1="108.608" x2="468.313" y2="90.692" fill="none" stroke="#231f20" stroke-linecap="round" stroke-miterlimit="10"/>
    <line x1="396.464" y1="108.608" x2="396.464" y2="90.692" fill="none" stroke="#231f20" stroke-linecap="round" stroke-miterlimit="10"/>
    <line x1="324.309" y1="108.608" x2="324.309" y2="90.692" fill="none" stroke="#231f20" stroke-linecap="round" stroke-miterlimit="10"/>
    <line x1="252.388" y1="108.608" x2="252.388" y2="90.692" fill="none" stroke="#231f20" stroke-linecap="round" stroke-miterlimit="10"/>
    <rect x="468.206" y="95.264" width="144" height="8.773" transform="translate(1080.412 199.3) rotate(180)" fill="#231f20" stroke-width="0"/>
    <rect x="180.13" y="97.579" width="144" height="3.6" transform="translate(504.26 198.759) rotate(180)" fill="#231f20" stroke-width="0"/>
  </g>
  <g>
    <g>
      <g>
        <path d="m416.957,407.81c6.167,4.81,12.582,8.932,19.107,12.356,6.533,3.414,13.197,6.074,19.815,8.085,6.617,2.025,13.231,3.257,19.663,3.908,6.436.652,12.716.607,18.706-.044,5.988-.649,11.697-1.869,16.988-3.656,5.289-1.792,10.165-4.104,14.524-6.814,4.348-2.719,8.227-5.791,11.439-9.159.806-.839,1.623-1.647,2.383-2.483.712-.877,1.414-1.742,2.106-2.594,1.446-1.662,2.534-3.496,3.712-5.19,4.461-6.952,7.02-13.759,8.616-19.672.474-1.465.703-2.92,1.028-4.289.15-.687.296-1.359.439-2.015.122-.66.205-1.309.305-1.941.187-1.264.365-2.466.533-3.605.098-1.146.19-2.229.277-3.249.22-2.038.193-3.833.238-5.37.01-.769.043-1.474.029-2.115-.026-.641-.05-1.219-.07-1.732-.087-2.054-.13-3.085-.13-3.085" fill="none" stroke="#231f20" stroke-miterlimit="10" stroke-width=".25"/>
        <path d="m418.49,405.858c6.048,4.716,12.334,8.755,18.723,12.108,6.396,3.343,12.915,5.944,19.381,7.909,6.466,1.98,12.921,3.18,19.191,3.815,6.273.636,12.384.591,18.2-.042,5.815-.63,11.347-1.813,16.461-3.541,5.112-1.732,9.812-3.962,14.004-6.569,4.182-2.616,7.904-5.562,10.982-8.795.773-.805,1.558-1.579,2.288-2.381.683-.843,1.357-1.673,2.021-2.492,1.391-1.593,2.433-3.361,3.568-4.988,4.293-6.687,6.768-13.262,8.313-18.987.461-1.416.68-2.828.995-4.153.145-.666.287-1.316.426-1.952.119-.639.198-1.27.294-1.882.182-1.226.354-2.391.518-3.495.094-1.112.183-2.163.267-3.152.216-1.977.187-3.719.231-5.211.009-.746.043-1.431.029-2.053-.026-.622-.049-1.182-.069-1.681-.083-1.993-.125-2.993-.125-2.993" fill="none" stroke="#231f20" stroke-miterlimit="10" stroke-width=".25"/>
        <path d="m534.719,307.15c-5.606-5.642-11.724-10.321-17.96-14.256-6.248-3.922-12.605-7.162-18.937-9.769-6.328-2.621-12.597-4.699-18.715-6.392-6.124-1.677-12.115-2.867-17.895-3.835-23.197-3.61-43.074-2.248-58.586.669-7.766,1.485-14.501,3.321-20.151,5.274-5.645,1.949-10.233,3.892-13.859,5.556-3.63,1.658-6.287,3.058-8.062,3.987-1.761.957-2.645,1.438-2.645,1.438" fill="none" stroke="#231f20" stroke-miterlimit="10" stroke-width=".25"/>
        <path d="m532.955,308.895c-5.449-5.484-11.417-10.052-17.519-13.902-6.114-3.837-12.348-7.018-18.57-9.578-6.218-2.576-12.386-4.62-18.41-6.287-6.031-1.652-11.935-2.823-17.632-3.779-22.87-3.559-42.476-2.214-57.737.657-7.642,1.461-14.257,3.264-19.806,5.182-5.548,1.915-10.064,3.828-13.63,5.465-3.571,1.631-6.185,3.009-7.931,3.923-1.732.942-2.602,1.414-2.602,1.414" fill="none" stroke="#231f20" stroke-miterlimit="10" stroke-width=".25"/>
        <path d="m313.181,329.494c-4.515,6.401-8.244,13.057-11.293,19.747-3.062,6.688-5.43,13.438-7.166,20.101-3.499,13.341-4.363,26.27-3.822,38.043.566,11.796,2.522,22.495,5.088,31.977,2.572,9.49,5.704,17.798,8.934,25,1.618,3.601,3.264,6.933,4.934,9.985.871,1.505,1.712,2.957,2.522,4.355.405.699.803,1.385,1.193,2.057.381.678.774,1.331,1.203,1.944,1.67,2.479,3.155,4.788,4.597,6.825,1.513,1.987,2.877,3.777,4.09,5.37.59.81,1.21,1.515,1.784,2.178.572.664,1.104,1.281,1.595,1.851.983,1.139,1.803,2.089,2.46,2.85.668.75,1.214,1.272,1.558,1.64.35.362.525.543.525.543" fill="none" stroke="#231f20" stroke-miterlimit="10" stroke-width=".25"/>
        <path d="m315.211,330.921c-4.424,6.272-8.078,12.795-11.066,19.351-3.001,6.554-5.321,13.165-7.021,19.693-3.428,13.068-4.276,25.742-3.745,37.303.556,11.583,2.478,22.11,5.005,31.447,2.533,9.345,5.62,17.535,8.802,24.628,1.593,3.546,3.213,6.825,4.853,9.822.856,1.478,1.682,2.905,2.478,4.279.398.687.789,1.361,1.172,2.022.374.666.76,1.308,1.181,1.91,1.641,2.434,3.099,4.702,4.515,6.703,1.486,1.951,2.825,3.708,4.016,5.272.578.796,1.188,1.488,1.752,2.138.562.652,1.084,1.258,1.567,1.818.965,1.119,1.77,2.052,2.415,2.8.656.737,1.194,1.249,1.531,1.61.344.355.516.533.516.533" fill="none" stroke="#231f20" stroke-miterlimit="10" stroke-width=".25"/>
      </g>
      <g>
        <path d="m498.233,424.995c3.62-.627,7.143-1.476,10.522-2.579,3.369-1.131,6.595-2.49,9.646-4.061,6.074-3.192,11.418-7.26,15.69-12.024,4.302-4.739,7.608-10.06,10.056-15.512,2.451-5.459,4.061-11.048,5.049-16.516.996-5.474,1.228-10.842,1.078-15.943-.078-1.275-.05-2.544-.211-3.783-.13-1.242-.259-2.47-.386-3.684-.407-2.403-.726-4.77-1.328-7.014-.47-2.279-1.223-4.412-1.86-6.522-.404-1.024-.802-2.035-1.196-3.032-.197-.499-.392-.994-.586-1.486-.213-.484-.459-.95-.684-1.421-.458-.939-.911-1.865-1.356-2.778-.462-.905-1.009-1.75-1.497-2.609-.517-.842-.953-1.718-1.516-2.499-.545-.792-1.083-1.572-1.612-2.34-4.315-6.1-9.037-10.759-13.338-14.418-.536-.461-1.062-.912-1.576-1.354-.538-.415-1.064-.82-1.578-1.217-1.037-.784-2.009-1.557-2.967-2.251-.978-.668-1.908-1.304-2.789-1.906-.875-.611-1.713-1.172-2.535-1.652-1.632-.976-3.022-1.898-4.285-2.572-1.255-.687-2.303-1.26-3.141-1.719-.832-.471-1.48-.783-1.912-.991-.431-.211-.647-.316-.647-.316" fill="none" stroke="#231f20" stroke-miterlimit="10" stroke-width=".25"/>
        <path d="m497.82,422.549c3.501-.607,6.903-1.426,10.16-2.489,3.246-1.09,6.347-2.398,9.275-3.905,5.828-3.065,10.926-6.946,15.002-11.494,4.107-4.525,7.276-9.619,9.629-14.861,2.356-5.248,3.912-10.641,4.867-15.926.964-5.292,1.187-10.49,1.042-15.427-.077-1.233-.046-2.463-.204-3.661-.126-1.201-.25-2.389-.372-3.563-.395-2.32-.701-4.61-1.283-6.771-.451-2.2-1.179-4.247-1.789-6.277-.388-.983-.771-1.953-1.15-2.911-.188-.479-.376-.955-.562-1.428-.205-.465-.442-.913-.659-1.365-.44-.902-.875-1.793-1.303-2.67-.444-.87-.972-1.683-1.441-2.51-.499-.811-.914-1.655-1.459-2.407-.526-.764-1.044-1.516-1.555-2.257-4.162-5.885-8.739-10.405-12.923-13.964-.521-.448-1.032-.888-1.532-1.318-.524-.404-1.037-.799-1.538-1.185-1.01-.764-1.956-1.517-2.89-2.194-.955-.652-1.862-1.272-2.722-1.86-.853-.597-1.672-1.144-2.476-1.614-1.597-.953-2.952-1.856-4.189-2.515-1.229-.673-2.254-1.234-3.075-1.683-.814-.462-1.449-.767-1.873-.971-.422-.206-.634-.31-.634-.31" fill="none" stroke="#231f20" stroke-miterlimit="10" stroke-width=".25"/>
        <path d="m455.451,278.66c-14.797-1.875-28.926-1.813-41.919-.204-6.496.818-12.713,1.987-18.614,3.467-2.926.825-5.818,1.57-8.592,2.501-2.779.917-5.477,1.904-8.093,2.945-10.465,4.175-19.594,9.184-27.392,14.458-7.807,5.274-14.284,10.825-19.591,16.198-10.634,10.784-16.575,20.675-20.202,27.334-.862,1.697-1.618,3.184-2.266,4.46-.59,1.304-1.082,2.392-1.476,3.263-.392.872-.686,1.527-.883,1.964-.176.445-.264.669-.264.669" fill="none" stroke="#231f20" stroke-miterlimit="10" stroke-width=".25"/>
        <path d="m455.131,281.121c-14.581-1.848-28.509-1.786-41.297-.202-6.393.805-12.506,1.955-18.302,3.408-2.872.811-5.711,1.541-8.432,2.455-2.727.9-5.379,1.87-7.95,2.893-10.288,4.104-19.265,9.03-26.921,14.209-7.666,5.179-14.016,10.622-19.216,15.886-10.417,10.565-16.226,20.241-19.779,26.76-.844,1.662-1.584,3.117-2.219,4.366-.577,1.276-1.058,2.341-1.444,3.194-.384.853-.672,1.494-.865,1.922-.172.436-.258.654-.258.654" fill="none" stroke="#231f20" stroke-miterlimit="10" stroke-width=".25"/>
        <path d="m297.719,411.842c1.219,14.832,4.796,28.519,9.399,40.769,2.311,6.129,4.92,11.904,7.744,17.291,1.448,2.673,3.001,5.223,4.45,7.766,1.534,2.49,3.193,4.834,4.733,7.186,6.491,9.192,13.638,16.756,20.704,22.986,7.074,6.235,14.051,11.17,20.449,15.263,3.178,2.083,6.291,3.842,9.159,5.547,2.934,1.6,5.623,3.15,8.19,4.45,1.274.664,2.496,1.302,3.666,1.911,1.182.59,2.311,1.153,3.387,1.689,2.145,1.083,4.102,2.022,5.841,2.861,3.489,1.667,6.113,2.921,7.865,3.759,1.763.787,2.648,1.183,2.648,1.183" fill="none" stroke="#231f20" stroke-miterlimit="10" stroke-width=".25"/>
        <path d="m300.192,411.637c1.195,14.558,4.713,28.033,9.247,40.096,2.276,6.035,4.846,11.724,7.618,17.012,1.423,2.624,2.947,5.126,4.368,7.623,1.506,2.444,3.135,4.742,4.644,7.052,6.368,9.018,13.377,16.438,20.322,22.56,6.952,6.128,13.824,10.989,20.14,15.031,3.135,2.056,6.216,3.796,9.051,5.482,2.908,1.585,5.567,3.119,8.116,4.41,1.264.659,2.477,1.292,3.637,1.897,1.175.586,2.297,1.146,3.367,1.679,2.131,1.076,4.082,2.012,5.814,2.848,3.482,1.664,6.101,2.915,7.849,3.751,1.747.78,2.624,1.171,2.624,1.171" fill="none" stroke="#231f20" stroke-miterlimit="10" stroke-width=".25"/>
      </g>
    </g>
    <path d="m465.614,344.496c-7.873,6.397-9.069,17.965-2.672,25.838,6.397,7.873,17.965,9.069,25.838,2.672,7.873-6.397,9.069-17.965,2.672-25.838-6.397-7.873-17.965-9.069-25.838-2.672Zm0,0l23.12,28.454m-25.764-2.639l28.454-23.12" fill="none" stroke="#898989" stroke-miterlimit="10"/>
  </g>
  <g>
    <path d="m640.783,448.607c2.892-1.582,5.451-3.333,7.685-5.151.575-.436,1.102-.908,1.62-1.37.517-.463,1.044-.899,1.508-1.382.476-.47.943-.931,1.401-1.384.424-.484.84-.959,1.248-1.424.409-.464.809-.92,1.201-1.365.385-.452.707-.939,1.052-1.39.655-.93,1.374-1.753,1.885-2.661.548-.882,1.069-1.72,1.563-2.516.448-.823.843-1.618,1.232-2.358,1.507-2.984,2.391-5.364,2.921-6.969.272-.801.496-1.397.615-1.806.112-.411.168-.617.168-.617" fill="none" stroke="#231f20" stroke-miterlimit="10" stroke-width=".25"/>
    <path d="m639.584,446.435c2.766-1.513,5.204-3.182,7.325-4.909.548-.413,1.047-.862,1.538-1.301.491-.44.992-.852,1.43-1.31.451-.445.894-.882,1.328-1.31.401-.459.794-.909,1.18-1.349.387-.439.767-.87,1.138-1.291.365-.427.668-.891.996-1.319.619-.883,1.306-1.658,1.788-2.523.521-.837,1.016-1.634,1.486-2.389.413-.792.803-1.54,1.171-2.245,1.435-2.841,2.281-5.116,2.788-6.654.26-.767.476-1.336.59-1.728.107-.394.16-.592.16-.592" fill="none" stroke="#231f20" stroke-miterlimit="10" stroke-width=".25"/>
    <path d="m656.095,355.8c-3.028-6.021-6.043-11.155-8.725-15.523-2.687-4.367-5.048-7.969-6.961-10.854-3.861-5.758-5.826-8.687-5.826-8.687" fill="none" stroke="#231f20" stroke-miterlimit="10" stroke-width=".25"/>
    <path d="m653.875,356.909c-2.981-5.926-5.96-11.002-8.619-15.332-2.663-4.328-5.011-7.91-6.917-10.784-3.853-5.745-5.813-8.668-5.813-8.668" fill="none" stroke="#231f20" stroke-miterlimit="10" stroke-width=".25"/>
  </g>
  <g>
    <g>
      <path d="m627.964,333.225c3.294-4.422,5.703-9.241,7.351-14.081,1.654-4.846,2.564-9.717,2.918-14.426.359-4.712.188-9.266-.342-13.596-.52-4.333-1.425-8.445-2.629-12.291-1.191-3.861-2.613-7.451-4.214-10.736-.752-1.674-1.639-3.225-2.442-4.775-.88-1.503-1.692-3.003-2.599-4.388-3.517-5.621-7.175-10.32-10.62-14.289-6.912-7.936-12.794-13.157-16.695-16.633-1.941-1.758-3.517-2.924-4.516-3.774-1.016-.828-1.526-1.243-1.526-1.243" fill="none" stroke="#231f20" stroke-miterlimit="10" stroke-width=".25"/>
      <path d="m625.975,331.74c3.125-4.195,5.417-8.776,6.99-13.396,1.579-4.625,2.454-9.293,2.793-13.819.344-4.529.18-8.919-.331-13.097-.501-4.181-1.375-8.154-2.539-11.868-1.149-3.723-2.524-7.2-4.082-10.395-.728-1.625-1.594-3.135-2.374-4.643-.858-1.463-1.647-2.924-2.532-4.275-3.429-5.481-7.009-10.083-10.392-13.98-6.786-7.793-12.598-12.956-16.458-16.393-1.919-1.739-3.483-2.895-4.473-3.736-1.006-.82-1.512-1.231-1.512-1.231" fill="none" stroke="#231f20" stroke-miterlimit="10" stroke-width=".25"/>
      <path d="m564.986,202.947c-17.18-10.853-33.35-18.564-47.542-24.378-3.567-1.408-7.034-2.643-10.329-3.887-1.651-.614-3.265-1.215-4.843-1.802-1.594-.536-3.166-1.017-4.693-1.51-3.057-.973-5.964-1.899-8.721-2.777-.69-.217-1.371-.43-2.042-.641-.679-.182-1.349-.362-2.009-.539-1.321-.354-2.603-.698-3.847-1.031-9.917-2.827-17.563-4.254-22.625-5.421-2.529-.6-4.469-.849-5.749-1.098-1.284-.225-1.929-.337-1.929-.337" fill="none" stroke="#231f20" stroke-miterlimit="10" stroke-width=".25"/>
      <path d="m563.658,205.043c-17.027-10.757-33.063-18.405-47.142-24.173-3.539-1.397-6.979-2.621-10.249-3.856-1.638-.61-3.24-1.206-4.805-1.789-1.582-.532-3.143-1.009-4.658-1.498-3.034-.966-5.92-1.885-8.656-2.756-.685-.215-1.361-.427-2.027-.637-.674-.181-1.339-.359-1.995-.535-1.311-.351-2.584-.692-3.82-1.023-9.845-2.807-17.439-4.223-22.465-5.383-2.511-.597-4.439-.843-5.71-1.09-1.276-.223-1.916-.335-1.916-.335" fill="none" stroke="#231f20" stroke-miterlimit="10" stroke-width=".25"/>
      <path d="m411.941,154.558c-20.171-1.532-37.982-1.233-53.247-.487-15.26.851-27.979,2.406-38.148,3.854-10.17,1.472-17.783,2.941-22.871,3.915-2.537.524-4.445.919-5.72,1.182-1.273.27-1.912.405-1.912.405" fill="none" stroke="#231f20" stroke-miterlimit="10" stroke-width=".25"/>
      <path d="m411.753,157.032c-20.043-1.523-37.743-1.225-52.917-.483-15.173.846-27.822,2.393-37.934,3.832-10.113,1.464-17.684,2.925-22.744,3.893-2.523.521-4.421.913-5.688,1.175-1.266.268-1.901.403-1.901.403" fill="none" stroke="#231f20" stroke-miterlimit="10" stroke-width=".25"/>
      <path d="m257.152,171.853c-19.328,5.693-36.191,12.091-49.807,19.703-13.63,7.553-23.987,16.091-31.005,24.12-3.604,3.942-6.39,7.846-8.517,11.276-2.134,3.447-3.692,6.458-4.818,8.925-.585,1.223-1.023,2.329-1.436,3.261-.372.949-.683,1.741-.932,2.375-.46,1.283-.691,1.927-.691,1.927" fill="none" stroke="#231f20" stroke-miterlimit="10" stroke-width=".25"/>
      <path d="m257.858,174.232c-19.236,5.666-35.915,12.005-49.309,19.495-13.409,7.433-23.52,15.78-30.357,23.602-3.51,3.838-6.194,7.603-8.261,10.934-2.069,3.342-3.581,6.264-4.673,8.657-.568,1.187-.992,2.26-1.393,3.163-.361.921-.663,1.689-.904,2.304-.446,1.244-.67,1.869-.67,1.869" fill="none" stroke="#231f20" stroke-miterlimit="10" stroke-width=".25"/>
    </g>
    <g>
      <path d="m628.045,277.79c-3.309-9.151-8.22-17.061-13.488-23.872-5.28-6.832-10.984-12.589-16.462-17.679-2.75-2.539-5.46-4.907-8.161-7.05-2.672-2.176-5.226-4.256-7.661-6.239-1.193-1.023-2.463-1.883-3.67-2.762-1.212-.873-2.392-1.723-3.541-2.551-2.298-1.656-4.471-3.222-6.519-4.697-4.258-2.712-7.993-5.09-11.2-7.132-1.582-1.057-3.122-1.881-4.506-2.66-1.385-.777-2.633-1.478-3.743-2.101-4.441-2.494-6.68-3.752-6.68-3.752" fill="none" stroke="#231f20" stroke-miterlimit="10" stroke-width=".25"/>
      <path d="m625.71,278.629c-3.191-8.828-7.962-16.532-13.114-23.191-5.163-6.682-10.774-12.35-16.184-17.375-2.716-2.507-5.397-4.851-8.073-6.973-2.646-2.156-5.175-4.216-7.586-6.179-1.181-1.014-2.44-1.865-3.636-2.735-1.2-.865-2.37-1.707-3.508-2.527-2.276-1.641-4.429-3.192-6.457-4.654-4.219-2.687-7.92-5.043-11.099-7.067-1.567-1.048-3.094-1.864-4.466-2.636-1.373-.771-2.61-1.465-3.71-2.083-4.401-2.472-6.621-3.719-6.621-3.719" fill="none" stroke="#231f20" stroke-miterlimit="10" stroke-width=".25"/>
      <path d="m512.031,183.468c-2.327-.866-4.618-1.719-6.875-2.559-1.128-.42-2.247-.837-3.358-1.251-1.108-.421-2.21-.83-3.329-1.163-4.446-1.416-8.749-2.786-12.908-4.11-4.215-1.136-8.284-2.233-12.207-3.29-.981-.263-1.953-.523-2.916-.781-.968-.237-1.936-.433-2.89-.648-1.91-.42-3.783-.833-5.619-1.237-7.315-1.754-14.163-2.74-20.353-3.871-1.546-.297-3.069-.49-4.554-.679-1.484-.195-2.93-.384-4.337-.569-2.815-.37-5.476-.719-7.984-1.049-5.038-.457-9.457-.858-13.252-1.202-.949-.084-1.859-.165-2.729-.243-.873-.042-1.707-.083-2.502-.121-1.589-.077-3.022-.147-4.296-.209-5.097-.248-7.668-.373-7.668-.373" fill="none" stroke="#231f20" stroke-miterlimit="10" stroke-width=".25"/>
      <path d="m511.126,185.778c-2.308-.859-4.582-1.706-6.82-2.539-1.119-.417-2.23-.831-3.331-1.241-1.099-.417-2.192-.824-3.303-1.154-4.413-1.405-8.683-2.765-12.81-4.079-4.184-1.128-8.224-2.216-12.118-3.266-.974-.261-1.939-.52-2.894-.776-.961-.235-1.923-.429-2.87-.643-1.897-.417-3.756-.827-5.579-1.228-7.262-1.742-14.064-2.72-20.212-3.844-1.535-.295-3.048-.487-4.523-.675-1.474-.193-2.91-.382-4.308-.565-2.796-.367-5.44-.715-7.93-1.042-5.005-.454-9.395-.852-13.165-1.194-.943-.084-1.847-.165-2.712-.242-.868-.042-1.696-.082-2.486-.12-1.579-.077-3.002-.146-4.268-.207-5.064-.246-7.619-.371-7.619-.371" fill="none" stroke="#231f20" stroke-miterlimit="10" stroke-width=".25"/>
      <path d="m355.878,160.765c-19.859,1.28-37.211,3.784-52.008,6.532-14.803,2.755-27.051,5.82-36.811,8.505-9.757,2.705-17.038,5.035-21.872,6.647-4.831,1.628-7.232,2.537-7.232,2.537" fill="none" stroke="#231f20" stroke-miterlimit="10" stroke-width=".25"/>
      <path d="m356.039,163.241c-19.745,1.273-36.999,3.762-51.713,6.495-14.72,2.74-26.9,5.788-36.606,8.457-9.702,2.69-16.947,5.008-21.742,6.608-4.794,1.616-7.17,2.516-7.17,2.516" fill="none" stroke="#231f20" stroke-miterlimit="10" stroke-width=".25"/>
      <path d="m207.746,198.809c-1.064.619-2.095,1.275-3.132,1.902-.517.316-1.032.632-1.545.946-.5.333-.997.665-1.493.996-.99.664-1.972,1.323-2.946,1.977-.944.694-1.881,1.383-2.81,2.066-.942.667-1.837,1.378-2.71,2.1-.88.714-1.752,1.423-2.618,2.125-.829.743-1.652,1.48-2.467,2.21-.408.365-.814.729-1.219,1.09l-1.15,1.14c-.762.758-1.518,1.51-2.267,2.255-.738.755-1.413,1.555-2.114,2.32-1.406,1.531-2.716,3.073-3.909,4.663-2.412,3.161-4.481,6.399-6.244,9.633-3.526,6.473-5.822,12.911-7.207,18.903-.693,2.999-1.159,5.89-1.447,8.645-.273,2.757-.345,5.374-.3,7.834.236,9.882,2.851,16.983,4.917,21.405,1.085,2.208,2.014,3.81,2.681,4.848.671,1.036,1.008,1.556,1.008,1.556" fill="none" stroke="#231f20" stroke-miterlimit="10" stroke-width=".25"/>
      <path d="m208.996,200.953c-1.045.608-2.056,1.251-3.074,1.867-.507.31-1.013.62-1.516.928-.489.327-.977.652-1.463.977-.97.651-1.932,1.296-2.886,1.937-.924.679-1.84,1.353-2.749,2.021-.923.653-1.796,1.347-2.649,2.053-.859.697-1.712,1.389-2.557,2.075-.809.725-1.611,1.443-2.406,2.156-.398.356-.794.71-1.189,1.063l-1.12,1.111c-.742.738-1.478,1.47-2.208,2.196-.718.735-1.374,1.514-2.056,2.257-1.372,1.494-2.634,2.978-3.786,4.514-2.33,3.053-4.331,6.184-6.036,9.313-3.412,6.263-5.633,12.494-6.969,18.278-.669,2.895-1.118,5.682-1.396,8.333-.263,2.653-.33,5.166-.289,7.525.229,9.474,2.722,16.205,4.677,20.399,1.03,2.092,1.908,3.61,2.54,4.592.635.981.954,1.474.954,1.474" fill="none" stroke="#231f20" stroke-miterlimit="10" stroke-width=".25"/>
    </g>
  </g>
  <g>
    <g>
      <path d="m210.043,273.877c.653,2.947.841,5.862.542,8.714-.101.712-.253,1.418-.368,2.12-.068.35-.107.701-.195,1.048l-.298,1.034c-.208.686-.361,1.372-.602,2.044-.256.67-.511,1.334-.763,1.992-.225.664-.55,1.304-.85,1.943-.306.638-.588,1.275-.902,1.899-.706,1.229-1.301,2.463-2.054,3.629-.732,1.172-1.422,2.331-2.206,3.435-.748,1.116-1.501,2.203-2.29,3.254-3.091,4.224-6.222,8.017-9.085,11.535-1.434,1.755-2.811,3.446-4.102,5.079-1.278,1.674-2.487,3.257-3.626,4.748-2.159,3.068-4.068,5.75-5.546,8.158-1.555,2.36-2.727,4.408-3.676,6.044-.476.817-.893,1.532-1.251,2.146-.334.627-.612,1.15-.836,1.569-.445.838-.669,1.259-.669,1.259" fill="none" stroke="#231f20" stroke-miterlimit="10" stroke-width=".25"/>
      <path d="m212.449,273.269c.731,3.249.933,6.484.6,9.611-.109.778-.27,1.546-.398,2.31-.074.381-.12.765-.214,1.139l-.318,1.114c-.222.737-.393,1.48-.648,2.196-.272.713-.542,1.419-.81,2.12-.243.708-.583,1.38-.898,2.052-.321.67-.62,1.342-.95,1.996-.731,1.278-1.36,2.573-2.135,3.775-.755,1.211-1.472,2.41-2.273,3.54-.768,1.146-1.54,2.26-2.343,3.329-3.151,4.306-6.305,8.124-9.167,11.641-1.434,1.755-2.803,3.436-4.081,5.053-1.258,1.647-2.447,3.204-3.567,4.671-2.123,3.02-4.004,5.658-5.458,8.029-1.531,2.322-2.684,4.339-3.618,5.949-.469.804-.88,1.508-1.232,2.112-.329.617-.603,1.132-.822,1.545-.438.825-.658,1.24-.658,1.24" fill="none" stroke="#231f20" stroke-miterlimit="10" stroke-width=".25"/>
      <path d="m161.319,368.162c-1.259,3.453-2.285,6.863-3.292,10.163-.907,3.326-1.803,6.541-2.493,9.69-.781,3.129-1.306,6.195-1.902,9.133-.47,2.958-1.011,5.795-1.332,8.546-1.483,10.984-1.878,20.267-1.899,27.702-.015,7.438.298,13.041.571,16.778.147,1.868.257,3.273.331,4.212.066.939.132,1.407.132,1.407" fill="none" stroke="#231f20" stroke-miterlimit="10" stroke-width=".25"/>
      <path d="m163.657,368.992c-1.242,3.404-2.253,6.768-3.246,10.021-.894,3.282-1.778,6.453-2.46,9.56-.771,3.087-1.288,6.115-1.877,9.014-.463,2.921-.998,5.721-1.315,8.44-1.465,10.849-1.855,20.025-1.876,27.376-.015,7.354.295,12.896.564,16.593.145,1.848.254,3.238.327,4.166.065.929.131,1.392.131,1.392" fill="none" stroke="#231f20" stroke-miterlimit="10" stroke-width=".25"/>
    </g>
    <g>
      <path d="m203.938,310.709c-4.375,5.773-8.803,10.877-12.61,15.794-.942,1.233-1.868,2.445-2.777,3.636-.861,1.226-1.706,2.43-2.535,3.613-.412.593-.82,1.181-1.224,1.763-.382.597-.76,1.189-1.134,1.774-.747,1.173-1.479,2.323-2.197,3.45-5.524,9.16-9.253,17.346-11.905,24.031-1.359,3.333-2.352,6.333-3.252,8.891-.829,2.582-1.485,4.752-2.017,6.488-.951,3.507-1.43,5.275-1.43,5.275" fill="none" stroke="#231f20" stroke-miterlimit="10" stroke-width=".25"/>
      <path d="m205.918,312.205c-4.437,5.853-8.884,10.979-12.635,15.826-.926,1.212-1.836,2.404-2.73,3.574-.846,1.206-1.677,2.39-2.493,3.552-.405.583-.807,1.161-1.204,1.733-.375.587-.747,1.169-1.115,1.745-.735,1.153-1.455,2.284-2.161,3.393-5.433,9.011-9.105,17.069-11.717,23.654-1.339,3.283-2.317,6.239-3.204,8.759-.817,2.545-1.464,4.684-1.988,6.395-.937,3.458-1.41,5.201-1.41,5.201" fill="none" stroke="#231f20" stroke-miterlimit="10" stroke-width=".25"/>
      <path d="m158.461,408.828c-.858,7.034-1.319,13.687-1.489,19.917-.105,6.23-.061,12.037.278,17.395.575,10.723,1.831,19.651,3.08,26.762.67,3.548,1.236,6.666,1.854,9.316.294,1.328.564,2.547.81,3.656.274,1.102.522,2.096.742,2.979.443,1.767.759,3.1,1.019,3.978.245.881.368,1.324.368,1.324" fill="none" stroke="#231f20" stroke-miterlimit="10" stroke-width=".25"/>
      <path d="m160.923,409.134c-.847,6.946-1.303,13.517-1.47,19.674-.103,6.157-.06,11.897.275,17.195.568,10.602,1.811,19.434,3.046,26.469.663,3.51,1.222,6.595,1.834,9.217.291,1.314.558,2.52.801,3.617.272,1.091.516,2.073.734,2.948.438,1.748.75,3.067,1.008,3.935.242.872.364,1.31.364,1.31" fill="none" stroke="#231f20" stroke-miterlimit="10" stroke-width=".25"/>
    </g>
  </g>
</svg>