<?xml version="1.0" encoding="UTF-8"?>
<svg id="a" data-name="Layer 1" xmlns="http://www.w3.org/2000/svg" width="9.002in" height="6.002in" viewBox="0 0 648.177 432.177">
  <g>
    <g>
      <path d="m649.585,224.559c-8.914-3.926-17.36-7.489-25.31-10.727-7.972-3.185-15.428-6.079-22.407-8.556-13.935-5.012-25.844-8.62-35.485-11.231-2.417-.634-4.685-1.229-6.804-1.786-2.134-.505-4.118-.974-5.951-1.407-3.659-.897-6.752-1.5-9.226-2.006-2.475-.5-4.329-.908-5.585-1.101-1.25-.217-1.878-.326-1.878-.326" fill="none" stroke="#231f20" stroke-miterlimit="10" stroke-width=".25"/>
      <path d="m648.586,226.831c-8.896-3.918-17.319-7.471-25.24-10.698-7.944-3.173-15.37-6.056-22.316-8.521-13.872-4.989-25.711-8.575-35.292-11.17-2.401-.63-4.654-1.222-6.76-1.774-2.119-.501-4.089-.967-5.909-1.397-3.634-.891-6.704-1.489-9.159-1.992-2.456-.496-4.297-.902-5.542-1.093-1.24-.215-1.863-.323-1.863-.323" fill="none" stroke="#231f20" stroke-miterlimit="10" stroke-width=".25"/>
    </g>
    <g>
      <path d="m734.754,269.925c-17.928-7.556-33.458-14.69-46.81-20.81-13.348-6.132-24.521-11.256-33.528-15.278-9.001-4.034-15.833-6.968-20.41-8.905-4.569-1.959-6.895-2.886-6.895-2.886" fill="none" stroke="#231f20" stroke-miterlimit="10" stroke-width=".25"/>
      <path d="m733.793,272.213c-17.98-7.577-33.529-14.721-46.884-20.843-13.352-6.134-24.513-11.252-33.506-15.268-8.987-4.028-15.801-6.954-20.365-8.885-4.557-1.954-6.874-2.878-6.874-2.878" fill="none" stroke="#231f20" stroke-miterlimit="10" stroke-width=".25"/>
      <path d="m596.741,210.365c-18.23-6.44-34.616-11.02-48.872-14.156-14.269-3.085-26.389-4.789-36.15-5.661-9.765-.831-17.158-1.036-22.095-1.029-4.938.047-7.428.071-7.428.071" fill="none" stroke="#231f20" stroke-miterlimit="10" stroke-width=".25"/>
      <path d="m595.916,212.706c-18.144-6.409-34.425-10.959-48.576-14.071-14.163-3.061-26.177-4.75-35.846-5.614-9.672-.823-16.989-1.026-21.874-1.019-4.885.047-7.349.07-7.349.07" fill="none" stroke="#231f20" stroke-miterlimit="10" stroke-width=".25"/>
    </g>
  </g>
  <g>
    <path d="m313.768,395.714c-1.594-1.447-2.497-3.049-2.016-3.579.481-.53,2.163.213,3.757,1.66,1.594,1.447,2.497,3.049,2.016,3.579-.481.53-2.163-.213-3.757-1.66Z" fill="#231f20" stroke-width="0"/>
    <path d="m297.48,380.966c-1.594-1.447-2.497-3.049-2.016-3.579.481-.53,2.163.213,3.757,1.66,1.594,1.447,2.497,3.049,2.016,3.579s-2.163-.213-3.757-1.66Z" fill="#231f20" stroke-width="0"/>
    <path d="m280.446,365.561c-1.594-1.447-2.497-3.049-2.016-3.579.481-.53,2.163.213,3.757,1.66,1.594,1.447,2.497,3.049,2.016,3.579-.481.53-2.163-.213-3.757-1.66Z" fill="#231f20" stroke-width="0"/>
    <path d="m262.305,349.131c-1.594-1.447-2.497-3.049-2.016-3.579.481-.53,2.163.213,3.757,1.66,1.594,1.447,2.497,3.049,2.016,3.579-.481.53-2.163-.213-3.757-1.66Z" fill="#231f20" stroke-width="0"/>
    <path d="m347.655,426.377c-1.594-1.447-2.497-3.049-2.016-3.579.481-.53,2.163.213,3.757,1.66,1.594,1.447,2.497,3.049,2.016,3.579-.481.53-2.163-.213-3.757-1.66Z" fill="#231f20" stroke-width="0"/>
    <path d="m330.286,410.648c-1.594-1.447-2.497-3.049-2.016-3.579.481-.53,2.163.213,3.757,1.66s2.497,3.049,2.016,3.579c-.481.53-2.163-.213-3.757-1.66Z" fill="#231f20" stroke-width="0"/>
  </g>
  <polyline points="693.181 573.105 689.152 576.532 680.894 566.82 684.923 563.394 676.88 553.936 672.851 557.362 664.636 547.702 668.665 544.275 659.417 533.401 655.388 536.827 621.624 497.123 625.653 493.697 591.931 454.043 587.902 457.469 554.181 417.815 557.578 414.927" fill="none" stroke="#231f20" stroke-miterlimit="10" stroke-width=".449"/>
  <polyline points="447.023 277.168 440.246 282.967 426.269 266.634 433.045 260.835 419.432 244.927 412.655 250.726 398.751 234.479 405.527 228.679 389.875 210.39 383.099 216.189 325.951 149.411 332.728 143.612 275.653 76.919 268.877 82.718 211.802 16.025 217.515 11.136" fill="none" stroke="#231f20" stroke-miterlimit="10" stroke-width=".757"/>
  <g>
    <line x1="646.285" y1="283.147" x2="638.297" y2="270.873" fill="none" stroke="#221f1f" stroke-miterlimit="10" stroke-width=".5"/>
    <line x1="634.905" y1="265.66" x2="626.917" y2="253.385" fill="none" stroke="#221f1f" stroke-miterlimit="10" stroke-width=".5"/>
  </g>
  <g>
    <circle cx="484.497" cy="381.657" r="4.758" fill="none" stroke="#231f20" stroke-miterlimit="10" stroke-width=".75"/>
    <circle cx="473.296" cy="369.051" r="4.758" fill="none" stroke="#231f20" stroke-miterlimit="10" stroke-width=".75"/>
    <circle cx="465.391" cy="355.08" r="4.758" fill="none" stroke="#231f20" stroke-miterlimit="10" stroke-width=".75"/>
    <circle cx="462.541" cy="339.504" r="4.758" fill="none" stroke="#231f20" stroke-miterlimit="10" stroke-width=".75"/>
    <circle cx="465.326" cy="323.433" r="4.758" fill="none" stroke="#231f20" stroke-miterlimit="10" stroke-width=".75"/>
    <circle cx="477.477" cy="314.22" r="4.758" fill="none" stroke="#231f20" stroke-miterlimit="10" stroke-width=".75"/>
    <circle cx="497.998" cy="389.824" r="4.758" fill="none" stroke="#231f20" stroke-miterlimit="10" stroke-width=".75"/>
    <circle cx="513.901" cy="393.464" r="4.758" fill="none" stroke="#231f20" stroke-miterlimit="10" stroke-width=".75"/>
    <circle cx="529.378" cy="388.761" r="4.758" fill="none" stroke="#231f20" stroke-miterlimit="10" stroke-width=".75"/>
    <circle cx="536.702" cy="374.526" r="4.758" fill="none" stroke="#231f20" stroke-miterlimit="10" stroke-width=".75"/>
    <circle cx="536.119" cy="359.525" r="4.758" fill="none" stroke="#231f20" stroke-miterlimit="10" stroke-width=".75"/>
    <circle cx="530.138" cy="344.46" r="4.758" fill="none" stroke="#231f20" stroke-miterlimit="10" stroke-width=".75"/>
    <circle cx="520.877" cy="330.569" r="4.758" fill="none" stroke="#231f20" stroke-miterlimit="10" stroke-width=".75"/>
    <circle cx="508.406" cy="320.462" r="4.758" fill="none" stroke="#231f20" stroke-miterlimit="10" stroke-width=".75"/>
    <path d="m489.892,309.948c2.006-1.698,5.009-1.448,6.706.558,1.698,2.006,1.448,5.009-.559,6.706s-5.009,1.448-6.706-.559-1.447-5.009.559-6.706Z" fill="none" stroke="#231f20" stroke-miterlimit="10" stroke-width=".75"/>
    <g>
      <line x1="519.799" y1="377.65" x2="478.951" y2="329.244" fill="none" stroke="#231f20" stroke-linecap="round" stroke-miterlimit="10" stroke-width=".75"/>
      <line x1="501.243" y1="376.81" x2="522.091" y2="359.169" fill="none" stroke="#231f20" stroke-linecap="round" stroke-miterlimit="10" stroke-width=".75"/>
      <line x1="477.147" y1="348.823" x2="497.995" y2="331.182" fill="none" stroke="#231f20" stroke-linecap="round" stroke-miterlimit="10" stroke-width=".75"/>
      <line x1="483.384" y1="366.975" x2="514.865" y2="340.336" fill="none" stroke="#231f20" stroke-linecap="round" stroke-miterlimit="10" stroke-width=".75"/>
    </g>
  </g>
  <g>
    <rect x="-396.473" y="37.712" width="3386.58" height="2514.089" transform="translate(2.061 2591.574) rotate(-90)" fill="none" stroke="#231f20" stroke-linecap="round" stroke-miterlimit="10" stroke-width="7"/>
    <rect x="-379.506" y="54.834" width="3353.392" height="2482.402" transform="translate(1.155 2593.225) rotate(-90)" fill="none" stroke="#231f20" stroke-linecap="round" stroke-miterlimit="10" stroke-width="3"/>
    <rect x="-341.031" y="90.452" width="3275.615" height="2412.095" transform="translate(.278 2593.276) rotate(-90)" fill="none" stroke="#231f20" stroke-linecap="round" stroke-miterlimit="10"/>
    <rect x="-323.163" y="107.815" width="3239.88" height="2376.261" transform="translate(.831 2592.723) rotate(-90)" fill="none" stroke="#231f20" stroke-linecap="round" stroke-miterlimit="10"/>
    <g>
      <g>
        <line x1="90.729" y1="396.191" x2="108.646" y2="396.191" fill="none" stroke="#231f20" stroke-linecap="round" stroke-miterlimit="10"/>
        <line x1="90.729" y1="324.352" x2="108.646" y2="324.352" fill="none" stroke="#231f20" stroke-linecap="round" stroke-miterlimit="10"/>
        <line x1="90.729" y1="252.297" x2="108.646" y2="252.297" fill="none" stroke="#231f20" stroke-linecap="round" stroke-miterlimit="10"/>
        <line x1="90.729" y1="180.448" x2="108.646" y2="180.448" fill="none" stroke="#231f20" stroke-linecap="round" stroke-miterlimit="10"/>
        <line x1="90.729" y1="108.294" x2="108.646" y2="108.294" fill="none" stroke="#231f20" stroke-linecap="round" stroke-miterlimit="10"/>
        <line x1="90.729" y1="36.373" x2="108.646" y2="36.373" fill="none" stroke="#231f20" stroke-linecap="round" stroke-miterlimit="10"/>
      </g>
      <rect x="27.688" y="464.004" width="144" height="8.773" transform="translate(-368.703 568.078) rotate(-90)" fill="#231f20" stroke-width="0"/>
      <rect x="27.958" y="178.514" width="144" height="3.6" transform="translate(-80.356 280.272) rotate(-90)" fill="#231f20" stroke-width="0"/>
    </g>
  </g>
  <g>
    <g>
      <path d="m416.957-24.19c6.167,4.81,12.582,8.932,19.107,12.356,6.533,3.414,13.197,6.074,19.815,8.085,6.617,2.025,13.231,3.257,19.663,3.908,6.436.652,12.716.607,18.706-.044,5.988-.649,11.697-1.869,16.988-3.656,5.289-1.792,10.165-4.104,14.524-6.814,4.348-2.719,8.227-5.791,11.439-9.159.806-.839,1.623-1.647,2.383-2.483.712-.877,1.414-1.742,2.106-2.594,1.446-1.662,2.534-3.496,3.712-5.19,4.461-6.952,7.02-13.759,8.616-19.672.474-1.465.703-2.92,1.028-4.289.15-.687.296-1.359.439-2.015.122-.66.205-1.309.305-1.941.187-1.264.365-2.466.533-3.605.098-1.146.19-2.229.277-3.249.22-2.038.193-3.833.238-5.37.01-.769.043-1.474.029-2.115-.026-.641-.05-1.219-.07-1.732-.087-2.054-.13-3.085-.13-3.085" fill="none" stroke="#231f20" stroke-miterlimit="10" stroke-width=".25"/>
      <path d="m313.181-102.506c-4.515,6.401-8.244,13.057-11.293,19.747-3.062,6.688-5.43,13.438-7.166,20.101-3.499,13.341-4.363,26.27-3.822,38.043.566,11.796,2.522,22.495,5.088,31.977,2.572,9.49,5.704,17.798,8.934,25,1.618,3.601,3.264,6.933,4.934,9.985.871,1.505,1.712,2.957,2.522,4.355.405.699.803,1.385,1.193,2.057.381.678.774,1.331,1.203,1.944,1.67,2.479,3.155,4.788,4.597,6.825,1.513,1.987,2.877,3.777,4.09,5.37.59.81,1.21,1.515,1.784,2.178.572.664,1.104,1.281,1.595,1.851.983,1.139,1.803,2.089,2.46,2.85.668.75,1.214,1.272,1.558,1.64.35.362.525.543.525.543" fill="none" stroke="#231f20" stroke-miterlimit="10" stroke-width=".25"/>
      <path d="m315.211-101.079c-4.424,6.272-8.078,12.795-11.066,19.351-3.001,6.554-5.321,13.165-7.021,19.693-3.428,13.068-4.276,25.742-3.745,37.303.556,11.583,2.478,22.11,5.005,31.447,2.533,9.345,5.62,17.535,8.802,24.628,1.593,3.546,3.213,6.825,4.853,9.822.856,1.478,1.682,2.905,2.478,4.279.398.687.789,1.361,1.172,2.022.374.666.76,1.308,1.181,1.91,1.641,2.434,3.099,4.702,4.515,6.703,1.486,1.951,2.825,3.708,4.016,5.272.578.796,1.188,1.488,1.752,2.138.562.652,1.084,1.258,1.567,1.818.965,1.119,1.77,2.052,2.415,2.8.656.737,1.194,1.249,1.531,1.61.344.355.516.533.516.533" fill="none" stroke="#231f20" stroke-miterlimit="10" stroke-width=".25"/>
      <path d="m372.818,103.246c6.694,3.773,13.336,7.067,19.757,10.172,3.232,1.555,6.33,3.065,9.512,4.498,3.186,1.421,6.318,2.818,9.397,4.191,12.454,5.181,24.386,9.136,35.574,12.218,11.221,2.971,21.688,5.042,31.276,6.557,9.607,1.368,18.314,2.356,26.098,2.777,15.561.987,27.332.627,35.173.262,3.925-.16,6.87-.403,8.837-.544,1.967-.146,2.954-.22,2.954-.22" fill="none" stroke="#231f20" stroke-miterlimit="10" stroke-width=".25"/>
      <path d="m374.03,101.081c6.628,3.737,13.225,7.009,19.625,10.103,3.211,1.545,6.33,3.065,9.483,4.484,3.157,1.408,6.261,2.792,9.312,4.153,12.341,5.134,24.165,9.052,35.254,12.108,11.122,2.944,21.499,4.998,31.005,6.501,9.526,1.355,18.161,2.337,25.881,2.754,15.435.979,27.115.622,34.896.26,3.895-.158,6.817-.4,8.769-.54,1.952-.145,2.932-.218,2.932-.218" fill="none" stroke="#231f20" stroke-miterlimit="10" stroke-width=".25"/>
    </g>
    <g>
      <path d="m297.719-20.158c1.219,14.832,4.796,28.519,9.399,40.769,2.311,6.129,4.92,11.904,7.744,17.291,1.448,2.673,3.001,5.223,4.45,7.766,1.534,2.49,3.193,4.834,4.733,7.186,6.491,9.192,13.638,16.756,20.704,22.986,7.074,6.235,14.051,11.17,20.449,15.263,3.178,2.083,6.291,3.842,9.159,5.547,2.934,1.6,5.623,3.15,8.19,4.45,1.274.664,2.496,1.302,3.666,1.911,1.182.59,2.311,1.153,3.387,1.689,2.145,1.083,4.102,2.022,5.841,2.861,3.489,1.667,6.113,2.921,7.865,3.759,1.763.787,2.648,1.183,2.648,1.183" fill="none" stroke="#231f20" stroke-miterlimit="10" stroke-width=".25"/>
      <path d="m300.192-20.363c1.195,14.558,4.713,28.033,9.247,40.096,2.276,6.035,4.846,11.724,7.618,17.012,1.423,2.624,2.947,5.126,4.368,7.623,1.506,2.444,3.135,4.742,4.644,7.052,6.368,9.018,13.377,16.438,20.322,22.56,6.952,6.128,13.824,10.989,20.14,15.031,3.135,2.056,6.216,3.796,9.051,5.482,2.908,1.585,5.567,3.119,8.116,4.41,1.264.659,2.477,1.292,3.637,1.897,1.175.586,2.297,1.146,3.367,1.679,2.131,1.076,4.082,2.012,5.814,2.848,3.482,1.664,6.101,2.915,7.849,3.751,1.747.78,2.624,1.171,2.624,1.171" fill="none" stroke="#231f20" stroke-miterlimit="10" stroke-width=".25"/>
      <path d="m453.42,129.197c29.101,7.272,55.668,9.008,78.317,8.486,1.418-.038,2.822-.051,4.21-.109,1.388-.067,2.761-.134,4.121-.2,2.72-.106,5.376-.31,7.975-.502,2.601-.163,5.136-.437,7.616-.665.596-.057,1.188-.114,1.777-.171.555-.09,1.259-.187,1.868-.26,1.256-.151,2.492-.261,3.712-.346,9.757-.655,18.541.138,26.24,1.429.963.163,1.911.324,2.844.482.924.204,1.834.405,2.729.602,1.785.415,3.531.738,5.169,1.245,1.648.465,3.239.914,4.771,1.346,1.512.496,2.954,1.015,4.346,1.492,2.807.893,5.26,2.036,7.536,2.961,2.295.888,4.234,1.968,6.009,2.821,3.574,1.669,6.056,3.304,7.781,4.27,1.707.999,2.565,1.5,2.565,1.5" fill="none" stroke="#231f20" stroke-miterlimit="10" stroke-width=".25"/>
      <path d="m454.023,126.79c28.838,7.206,55.184,8.931,77.654,8.413,1.406-.038,2.799-.05,4.177-.108,1.377-.067,2.74-.133,4.088-.199,2.698-.105,5.334-.308,7.913-.498,2.581-.162,5.096-.433,7.557-.66.562-.053,1.12-.106,1.675-.159l.918-.135c.334-.044.678-.1.999-.131,1.305-.157,2.582-.271,3.834-.358,10.019-.671,18.966.14,26.831,1.458.983.167,1.951.331,2.903.492.943.208,1.872.413,2.786.614,1.822.423,3.604.755,5.277,1.271,1.683.475,3.306.933,4.87,1.375,1.544.506,3.016,1.035,4.437,1.522,2.865.914,5.371,2.077,7.694,3.023,2.342.908,4.323,2.008,6.135,2.88,3.648,1.706,6.182,3.372,7.942,4.358,1.742,1.02,2.617,1.532,2.617,1.532" fill="none" stroke="#231f20" stroke-miterlimit="10" stroke-width=".25"/>
    </g>
  </g>
  <g>
    <g>
      <path d="m570.563,27.414c13.532,2.769,24.217,3.894,31.435,4.025,3.608.103,6.35-.012,8.18-.09,1.832-.114,2.755-.175,2.755-.175" fill="none" stroke="#231f20" stroke-miterlimit="10" stroke-width=".25"/>
      <path d="m571.052,24.981c13.446,2.75,23.941,3.848,31.009,3.977,3.533.101,6.208-.012,7.993-.087,1.786-.112,2.686-.17,2.686-.17" fill="none" stroke="#231f20" stroke-miterlimit="10" stroke-width=".25"/>
      <path d="m624.911,29.394c7.063-1.559,13.073-3.944,17.983-6.523,4.921-2.58,8.702-5.431,11.538-7.924.715-.62,1.373-1.215,1.954-1.812.582-.593,1.163-1.107,1.625-1.652.943-1.074,1.731-1.971,2.363-2.69.628-.722,1.015-1.33,1.313-1.706.285-.386.429-.579.429-.579" fill="none" stroke="#231f20" stroke-miterlimit="10" stroke-width=".25"/>
      <path d="m624.369,26.972c6.846-1.51,12.645-3.817,17.366-6.296,4.731-2.48,8.345-5.21,11.054-7.589.682-.592,1.311-1.16,1.865-1.729.554-.566,1.11-1.054,1.55-1.575.899-1.024,1.65-1.879,2.252-2.564.6-.687.967-1.27,1.252-1.628.272-.368.409-.553.409-.553" fill="none" stroke="#231f20" stroke-miterlimit="10" stroke-width=".25"/>
    </g>
    <g>
      <path d="m590.511,24.081c13.396,1.568,23.612.781,30.237-.488,3.332-.597,5.782-1.314,7.422-1.764,1.622-.512,2.441-.771,2.441-.771" fill="none" stroke="#231f20" stroke-miterlimit="10" stroke-width=".25"/>
      <path d="m590.794,21.615c13.179,1.541,23.105.761,29.503-.463,3.224-.577,5.586-1.27,7.17-1.704,1.564-.494,2.352-.743,2.352-.743" fill="none" stroke="#231f20" stroke-miterlimit="10" stroke-width=".25"/>
      <path d="m640.783,16.607c2.892-1.582,5.451-3.333,7.685-5.151.575-.436,1.102-.908,1.62-1.37.517-.463,1.044-.899,1.508-1.382.476-.47.943-.931,1.401-1.384.424-.484.84-.959,1.248-1.424.409-.464.809-.92,1.201-1.365.385-.452.707-.939,1.052-1.39.655-.93,1.374-1.753,1.885-2.661.548-.882,1.069-1.72,1.563-2.516.448-.823.843-1.618,1.232-2.358,1.507-2.984,2.391-5.364,2.921-6.969.272-.801.496-1.397.615-1.806.112-.411.168-.617.168-.617" fill="none" stroke="#231f20" stroke-miterlimit="10" stroke-width=".25"/>
      <path d="m639.584,14.435c2.766-1.513,5.204-3.182,7.325-4.909.548-.413,1.047-.862,1.538-1.301.491-.44.992-.852,1.43-1.31.451-.445.894-.882,1.328-1.31.401-.459.794-.909,1.18-1.349.387-.439.767-.87,1.138-1.291.365-.427.668-.891.996-1.319.619-.883,1.306-1.658,1.788-2.523.521-.837,1.016-1.634,1.486-2.389.413-.792.803-1.54,1.171-2.245,1.435-2.841,2.281-5.116,2.788-6.654.26-.767.476-1.336.59-1.728.107-.394.16-.592.16-.592" fill="none" stroke="#231f20" stroke-miterlimit="10" stroke-width=".25"/>
    </g>
  </g>
  <g>
    <g>
      <path d="m161.319-63.838c-1.259,3.453-2.285,6.863-3.292,10.163-.907,3.326-1.803,6.541-2.493,9.69-.781,3.129-1.306,6.195-1.902,9.133-.47,2.958-1.011,5.795-1.332,8.546-1.483,10.984-1.878,20.267-1.899,27.702-.015,7.438.298,13.041.571,16.778.147,1.868.257,3.273.331,4.212.066.939.132,1.407.132,1.407" fill="none" stroke="#231f20" stroke-miterlimit="10" stroke-width=".25"/>
      <path d="m163.657-63.008c-1.242,3.404-2.253,6.768-3.246,10.021-.894,3.282-1.778,6.453-2.46,9.56-.771,3.087-1.288,6.115-1.877,9.014-.463,2.921-.998,5.721-1.315,8.44-1.465,10.849-1.855,20.025-1.876,27.376-.015,7.354.295,12.896.564,16.593.145,1.848.254,3.238.327,4.166.065.929.131,1.392.131,1.392" fill="none" stroke="#231f20" stroke-miterlimit="10" stroke-width=".25"/>
      <path d="m155.816,51.61c1.551,7.129,3.32,13.761,5.245,19.877.906,3.076,1.964,5.988,2.908,8.818,1.053,2.79,1.967,5.525,3.056,8.05,2.112,5.084,3.928,9.812,5.956,13.948.97,2.088,1.892,4.075,2.767,5.958.219.471.435.935.648,1.393.232.448.46.89.686,1.326.451.871.889,1.718,1.313,2.539,1.72,3.272,3.145,6.19,4.517,8.611,1.378,2.417,2.53,4.437,3.453,6.056.923,1.618,1.618,2.836,2.081,3.648.488.797.733,1.198.733,1.198" fill="none" stroke="#231f20" stroke-miterlimit="10" stroke-width=".25"/>
      <path d="m158.241,51.081c1.535,7.055,3.285,13.618,5.191,19.671.896,3.044,1.944,5.925,2.878,8.727,1.043,2.762,1.944,5.464,3.026,7.969,2.094,5.038,3.892,9.724,5.904,13.825.961,2.071,1.876,4.04,2.743,5.907.217.467.431.927.642,1.381.23.445.457.883.68,1.315.447.864.882,1.704,1.303,2.518,1.706,3.246,3.118,6.139,4.481,8.541,1.368,2.399,2.511,4.403,3.427,6.009.916,1.606,1.605,2.814,2.065,3.621.484.792.728,1.189.728,1.189" fill="none" stroke="#231f20" stroke-miterlimit="10" stroke-width=".25"/>
      <path d="m202.456,153.495c8.344,11.85,16.299,21.789,23.287,30.204,3.586,4.125,6.827,7.966,9.893,11.358,3.088,3.371,5.827,6.457,8.35,9.124,2.531,2.659,4.751,4.991,6.657,6.993,1.9,2.009,3.558,3.614,4.851,4.938,2.605,2.627,3.919,3.952,3.919,3.952" fill="none" stroke="#231f20" stroke-miterlimit="10" stroke-width=".25"/>
      <path d="m204.49,152.074c8.29,11.773,16.2,21.656,23.15,30.026,3.568,4.104,6.792,7.926,9.844,11.302,3.074,3.355,5.8,6.427,8.312,9.083,2.52,2.648,4.731,4.97,6.629,6.964,1.892,2,3.545,3.6,4.832,4.919,2.595,2.617,3.904,3.937,3.904,3.937" fill="none" stroke="#231f20" stroke-miterlimit="10" stroke-width=".25"/>
    </g>
    <g>
      <path d="m158.461-23.172c-.858,7.034-1.319,13.687-1.489,19.917-.105,6.23-.061,12.037.278,17.395.575,10.723,1.831,19.651,3.08,26.762.67,3.548,1.236,6.666,1.854,9.316.294,1.328.564,2.547.81,3.656.274,1.102.522,2.096.742,2.979.443,1.767.759,3.1,1.019,3.978.245.881.368,1.324.368,1.324" fill="none" stroke="#231f20" stroke-miterlimit="10" stroke-width=".25"/>
      <path d="m160.923-22.866c-.847,6.946-1.303,13.517-1.47,19.674-.103,6.157-.06,11.897.275,17.195.568,10.602,1.811,19.434,3.046,26.469.663,3.51,1.222,6.595,1.834,9.217.291,1.314.558,2.52.801,3.617.272,1.091.516,2.073.734,2.948.438,1.748.75,3.067,1.008,3.935.242.872.364,1.31.364,1.31" fill="none" stroke="#231f20" stroke-miterlimit="10" stroke-width=".25"/>
      <path d="m173.958,88.08c.675,1.643,1.34,3.262,1.994,4.856.327.797.652,1.588.974,2.372.356.77.708,1.534,1.058,2.292,1.406,3.029,2.767,5.96,4.083,8.794,1.404,2.791,2.814,5.458,4.144,8.045.675,1.288,1.309,2.567,1.982,3.794.694,1.216,1.374,2.409,2.041,3.578,1.333,2.338,2.612,4.581,3.837,6.729,1.304,2.101,2.551,4.11,3.739,6.024,1.201,1.906,2.299,3.748,3.42,5.444,1.136,1.686,2.21,3.281,3.221,4.783,1.012,1.502,1.961,2.913,2.848,4.23.882,1.321,1.784,2.493,2.573,3.607,1.6,2.212,2.937,4.059,4.008,5.54,1.057,1.491,1.898,2.58,2.465,3.302.561.727.843,1.091.843,1.091" fill="none" stroke="#231f20" stroke-miterlimit="10" stroke-width=".25"/>
      <path d="m176.26,87.152c.669,1.629,1.327,3.232,1.976,4.812.324.79.646,1.573.965,2.351.353.763.702,1.521,1.049,2.272,1.394,3.003,2.743,5.909,4.047,8.717,1.392,2.767,2.792,5.413,4.11,7.978.669,1.277,1.298,2.545,1.965,3.763.688,1.207,1.363,2.39,2.025,3.549,1.323,2.32,2.591,4.545,3.806,6.676,1.295,2.086,2.532,4.079,3.712,5.979,1.193,1.892,2.281,3.721,3.395,5.404,1.128,1.675,2.195,3.258,3.199,4.75,1.005,1.492,1.947,2.893,2.828,4.201.876,1.312,1.772,2.477,2.556,3.583,1.59,2.197,2.918,4.033,3.983,5.505,1.05,1.481,1.886,2.563,2.449,3.282.558.722.838,1.085.838,1.085" fill="none" stroke="#231f20" stroke-miterlimit="10" stroke-width=".25"/>
      <path d="m232.222,181.234c18.544,21.679,34.21,36.719,44.715,46.748,2.648,2.488,4.971,4.671,6.966,6.546,2.022,1.847,3.711,3.39,5.064,4.626,2.707,2.473,4.073,3.72,4.073,3.72" fill="none" stroke="#231f20" stroke-miterlimit="10" stroke-width=".25"/>
      <path d="m234.113,179.626c18.448,21.567,34.06,36.558,44.532,46.554,2.64,2.481,4.956,4.657,6.945,6.526,2.016,1.842,3.701,3.38,5.051,4.614,2.7,2.466,4.062,3.71,4.062,3.71" fill="none" stroke="#231f20" stroke-miterlimit="10" stroke-width=".25"/>
    </g>
  </g>
  <g>
    <g>
      <path d="m472.067,110.939c13.402,2.876,25.315,4.642,35.576,5.844,10.265,1.17,18.88,1.883,25.795,2.329,6.915.448,12.132.707,15.617.842,3.486.146,5.245.219,5.245.219" fill="none" stroke="#231f20" stroke-miterlimit="10" stroke-width=".25"/>
      <path d="m472.593,108.514c13.301,2.854,25.137,4.61,35.34,5.805,10.208,1.164,18.782,1.874,25.669,2.318,6.887.446,12.085.705,15.56.839,3.475.145,5.228.218,5.228.218" fill="none" stroke="#231f20" stroke-miterlimit="10" stroke-width=".25"/>
      <path d="m577.127,120.724c13.557.196,25.453.214,35.675.271,10.223.044,18.765.129,25.62.245,13.708.228,20.655.542,20.655.542" fill="none" stroke="#231f20" stroke-miterlimit="10" stroke-width=".25"/>
      <path d="m577.164,118.243c13.534.196,25.426.213,35.651.271,10.225.044,18.782.129,25.649.245,13.734.229,20.705.543,20.705.543" fill="none" stroke="#231f20" stroke-miterlimit="10" stroke-width=".25"/>
    </g>
    <g>
      <path d="m510.552,110.553c26.763,2.927,47.272,3.221,60.991,3.561,6.866.121,12.048.182,15.515.209,3.466.03,5.214.045,5.214.045" fill="none" stroke="#231f20" stroke-miterlimit="10" stroke-width=".25"/>
      <path d="m510.83,108.087c26.614,2.911,47.07,3.208,60.76,3.546,6.853.121,12.028.182,15.491.208,3.462.03,5.208.045,5.208.045" fill="none" stroke="#231f20" stroke-miterlimit="10" stroke-width=".25"/>
      <path d="m615.006,114.488c27.047.099,47.616.708,61.388,1.607,6.889.398,12.078.871,15.549,1.143,3.467.337,5.216.506,5.216.506" fill="none" stroke="#231f20" stroke-miterlimit="10" stroke-width=".25"/>
      <path d="m615.019,112.006c27.062.098,47.699.709,61.526,1.611,6.915.4,12.13.875,15.617,1.148,3.485.338,5.242.509,5.242.509" fill="none" stroke="#231f20" stroke-miterlimit="10" stroke-width=".25"/>
    </g>
  </g>
  <g>
    <g>
      <path d="m304.983,221.099c3.663,3.471,5.784,7.639,6.866,11.427,1.093,3.813,1.187,7.225,1.057,9.895-.052.67-.101,1.299-.147,1.887-.066.585-.193,1.118-.272,1.617-.087.498-.166.955-.238,1.37-.113.404-.215.769-.306,1.093-.181.649-.317,1.137-.407,1.462-.079.33-.158.48-.158.48" fill="none" stroke="#231f20" stroke-miterlimit="10" stroke-width=".25"/>
      <path d="m306.654,219.264c4.088,3.862,6.403,8.46,7.581,12.579,1.188,4.15,1.29,7.833,1.148,10.723-.057.725-.111,1.405-.161,2.041-.072.633-.206,1.211-.293,1.751-.095.539-.182,1.033-.261,1.484-.122.439-.232.835-.329,1.188-.197.704-.345,1.234-.444,1.588-.088.358-.172.523-.172.523" fill="none" stroke="#231f20" stroke-miterlimit="10" stroke-width=".25"/>
      <path d="m307.253,257.925c-3.174,3.893-7.211,6.443-10.947,7.87-3.747,1.462-7.19,2.082-9.989,2.386-1.408.125-2.649.228-3.725.26-1.081.013-1.98.048-2.707.039-1.459-.043-2.194-.065-2.194-.065" fill="none" stroke="#231f20" stroke-miterlimit="10" stroke-width=".25"/>
      <path d="m309.198,259.466c-3.543,4.346-7.949,7.088-11.975,8.635-4.042,1.577-7.696,2.226-10.64,2.547-1.478.133-2.78.239-3.903.273-1.126.015-2.065.049-2.82.041-1.512-.045-2.275-.067-2.275-.067" fill="none" stroke="#231f20" stroke-miterlimit="10" stroke-width=".25"/>
      <path d="m266.622,267.184c-2.877-.47-5.581-1.073-8.112-1.641-2.548-.634-4.934-1.163-7.114-1.761-4.377-1.131-8.017-2.18-10.927-3.059-1.454-.444-2.729-.833-3.825-1.167-1.089-.355-1.998-.652-2.727-.89-1.458-.476-2.193-.715-2.193-.715" fill="none" stroke="#231f20" stroke-miterlimit="10" stroke-width=".25"/>
      <path d="m266.207,269.631c-5.872-.992-11.012-2.321-15.433-3.446-4.414-1.14-8.085-2.198-11.019-3.085-1.466-.448-2.752-.84-3.857-1.177-1.098-.358-2.015-.657-2.75-.897-1.47-.479-2.211-.721-2.211-.721" fill="none" stroke="#231f20" stroke-miterlimit="10" stroke-width=".25"/>
      <path d="m222.253,254.589c-11.198-4.18-19.435-8.007-24.917-10.631-2.747-1.305-4.783-2.359-6.152-3.052-1.366-.697-2.054-1.049-2.054-1.049" fill="none" stroke="#231f20" stroke-miterlimit="10" stroke-width=".25"/>
      <path d="m221.385,256.913c-11.292-4.215-19.598-8.074-25.126-10.72-2.77-1.316-4.824-2.379-6.203-3.078-1.377-.703-2.071-1.058-2.071-1.058" fill="none" stroke="#231f20" stroke-miterlimit="10" stroke-width=".25"/>
    </g>
    <g>
      <path d="m318.391,231.73c1.518,6.268,1.288,12.038.255,16.777-1.034,4.763-2.903,8.492-4.701,11.241-.468.68-.879,1.338-1.317,1.914-.472.552-.912,1.064-1.318,1.538-.776.981-1.577,1.658-2.196,2.222-.621.56-1.082.993-1.404,1.26-.336.244-.505.367-.505.367" fill="none" stroke="#231f20" stroke-miterlimit="10" stroke-width=".25"/>
      <path d="m320.796,231.119c1.628,6.71,1.376,12.854.274,17.92-1.106,5.089-3.108,9.102-5.05,12.071-.504.736-.951,1.444-1.426,2.067-.511.598-.986,1.155-1.426,1.669-.845,1.058-1.71,1.799-2.384,2.412-.675.609-1.179,1.078-1.527,1.365-.36.263-.54.395-.54.395" fill="none" stroke="#231f20" stroke-miterlimit="10" stroke-width=".25"/>
      <path d="m297.753,272.207c-1.488.602-2.991.958-4.431,1.368-.724.18-1.447.302-2.152.451-.706.145-1.401.29-2.09.363-1.375.189-2.702.372-3.984.434-.641.042-1.27.1-1.886.126-.616.012-1.22.023-1.812.034-4.736.058-8.656-.357-11.78-.747-3.119-.425-5.448-.849-6.998-1.153-1.549-.309-2.33-.465-2.33-.465" fill="none" stroke="#231f20" stroke-miterlimit="10" stroke-width=".25"/>
      <path d="m298.609,274.536c-1.588.638-3.174,1.019-4.699,1.45-.765.19-1.524.32-2.268.476-.744.152-1.476.303-2.197.382-1.441.199-2.833.388-4.167.454-.668.044-1.325.104-1.966.131-.639.012-1.266.024-1.881.036-4.913.06-8.938-.369-12.139-.768-3.193-.435-5.568-.868-7.146-1.177-1.576-.315-2.371-.474-2.371-.474" fill="none" stroke="#231f20" stroke-miterlimit="10" stroke-width=".25"/>
      <path d="m248.812,269.843c-11.822-3.087-20.582-6.159-26.428-8.257-2.919-1.067-5.112-1.894-6.566-2.479-1.459-.571-2.195-.859-2.195-.859" fill="none" stroke="#231f20" stroke-miterlimit="10" stroke-width=".25"/>
      <path d="m248.182,272.243c-11.919-3.112-20.752-6.209-26.646-8.325-2.943-1.075-5.154-1.909-6.62-2.499-1.471-.576-2.213-.866-2.213-.866" fill="none" stroke="#231f20" stroke-miterlimit="10" stroke-width=".25"/>
      <path d="m204.15,254.271c-11.189-4.904-19.368-9.296-24.812-12.287-2.724-1.496-4.748-2.68-6.1-3.473-1.354-.789-2.037-1.187-2.037-1.187" fill="none" stroke="#231f20" stroke-miterlimit="10" stroke-width=".25"/>
      <path d="m203.152,256.543c-11.281-4.945-19.528-9.372-25.017-12.388-2.747-1.508-4.787-2.702-6.15-3.501-1.366-.796-2.054-1.197-2.054-1.197" fill="none" stroke="#231f20" stroke-miterlimit="10" stroke-width=".25"/>
    </g>
  </g>
</svg>