<?xml version="1.0" encoding="UTF-8"?>
<svg id="a" data-name="Layer 1" xmlns="http://www.w3.org/2000/svg" width="9.002in" height="6.002in" viewBox="0 0 648.177 432.177">
  <g>
    <line x1="601.537" y1="405.386" x2="613.451" y2="413.48" fill="none" stroke="#231f20" stroke-miterlimit="10"/>
    <path d="m616.568,391.681c2.839,2.189,5.678,4.377,8.517,6.566" fill="none" stroke="#231f20" stroke-miterlimit="10"/>
    <line x1="611.757" y1="407.296" x2="615.936" y2="410.243" fill="none" stroke="#231f20" stroke-miterlimit="10"/>
    <path d="m618.393,397.981c1.457,1.035,2.915,2.069,4.372,3.104" fill="none" stroke="#231f20" stroke-miterlimit="10"/>
    <path d="m616.062,401.197c1.425,1.005,2.85,2.009,4.275,3.014" fill="none" stroke="#231f20" stroke-miterlimit="10"/>
    <line x1="613.856" y1="404.353" x2="618.086" y2="407.227" fill="none" stroke="#231f20" stroke-miterlimit="10"/>
  </g>
  <g>
    <path d="m135.124,431.653c-1.118-.411-1.824-1.288-1.578-1.96.247-.672,1.353-.883,2.471-.473,1.118.411,1.824,1.288,1.578,1.96-.247.672-1.353.883-2.471.473Z" fill="#231f20" stroke-width="0"/>
    <path d="m123.184,427.309c-1.118-.411-1.824-1.288-1.578-1.96.247-.672,1.353-.883,2.471-.473,1.118.411,1.824,1.288,1.578,1.96-.247.672-1.353.883-2.471.473Z" fill="#231f20" stroke-width="0"/>
    <path d="m110.465,422.662c-1.118-.411-1.824-1.288-1.578-1.96.247-.672,1.353-.883,2.471-.473,1.118.411,1.824,1.288,1.578,1.96-.247.672-1.353.883-2.471.473Z" fill="#231f20" stroke-width="0"/>
  </g>
  <g>
    <line x1="493.69" y1="438.108" x2="497.931" y2="430.17" fill="none" stroke="#221f1f" stroke-miterlimit="10"/>
    <line x1="478.844" y1="430.177" x2="483.085" y2="422.239" fill="none" stroke="#221f1f" stroke-miterlimit="10"/>
    <line x1="488.741" y1="435.464" x2="492.982" y2="427.526" fill="none" stroke="#221f1f" stroke-miterlimit="10"/>
    <line x1="483.793" y1="432.821" x2="488.034" y2="424.882" fill="none" stroke="#221f1f" stroke-miterlimit="10"/>
    <line x1="468.946" y1="424.889" x2="473.187" y2="416.951" fill="none" stroke="#221f1f" stroke-miterlimit="10"/>
    <line x1="459.049" y1="419.601" x2="463.29" y2="411.663" fill="none" stroke="#221f1f" stroke-miterlimit="10"/>
  </g>
  <g>
    <line x1="410.161" y1="404.338" x2="418.382" y2="388.324" fill="none" stroke="#221f1f" stroke-miterlimit="10"/>
    <line x1="403.235" y1="390.665" x2="407.345" y2="382.658" fill="none" stroke="#221f1f" stroke-miterlimit="10"/>
    <line x1="370.124" y1="373.666" x2="374.234" y2="365.659" fill="none" stroke="#221f1f" stroke-miterlimit="10"/>
    <line x1="392.198" y1="384.998" x2="396.308" y2="376.992" fill="none" stroke="#221f1f" stroke-miterlimit="10"/>
    <line x1="381.161" y1="379.332" x2="385.271" y2="371.326" fill="none" stroke="#221f1f" stroke-miterlimit="10"/>
    <line x1="348.049" y1="362.333" x2="352.16" y2="354.327" fill="none" stroke="#221f1f" stroke-miterlimit="10"/>
    <line x1="325.975" y1="351" x2="330.086" y2="342.994" fill="none" stroke="#221f1f" stroke-miterlimit="10"/>
    <line x1="447.383" y1="413.33" x2="451.493" y2="405.323" fill="none" stroke="#221f1f" stroke-miterlimit="10"/>
  </g>
  <g>
    <line x1="287.828" y1="340.433" x2="296.162" y2="324.479" fill="none" stroke="#221f1f" stroke-miterlimit="10"/>
    <line x1="270.015" y1="320.973" x2="274.182" y2="312.996" fill="none" stroke="#221f1f" stroke-miterlimit="10"/>
    <line x1="204.074" y1="286.523" x2="208.242" y2="278.546" fill="none" stroke="#221f1f" stroke-miterlimit="10"/>
    <line x1="248.035" y1="309.49" x2="252.202" y2="301.513" fill="none" stroke="#221f1f" stroke-miterlimit="10"/>
    <line x1="226.055" y1="298.006" x2="230.222" y2="290.029" fill="none" stroke="#221f1f" stroke-miterlimit="10"/>
    <line x1="160.114" y1="263.557" x2="164.282" y2="255.58" fill="none" stroke="#221f1f" stroke-miterlimit="10"/>
    <line x1="116.154" y1="240.59" x2="120.321" y2="232.613" fill="none" stroke="#221f1f" stroke-miterlimit="10"/>
    <line x1="357.935" y1="366.906" x2="362.103" y2="358.929" fill="none" stroke="#221f1f" stroke-miterlimit="10"/>
  </g>
  <g>
    <g>
      <line x1="645.361" y1="401.139" x2="636.057" y2="394.757" fill="none" stroke="#221f1f" stroke-miterlimit="10" stroke-width=".5"/>
      <line x1="632.15" y1="391.936" x2="622.847" y2="385.554" fill="none" stroke="#221f1f" stroke-miterlimit="10" stroke-width=".5"/>
      <line x1="618.896" y1="382.843" x2="609.592" y2="376.461" fill="none" stroke="#221f1f" stroke-miterlimit="10" stroke-width=".5"/>
    </g>
    <g>
      <g>
        <line x1="603.162" y1="371.495" x2="593.858" y2="365.112" fill="none" stroke="#221f1f" stroke-miterlimit="10" stroke-width=".5"/>
        <line x1="589.907" y1="362.401" x2="580.604" y2="356.019" fill="none" stroke="#221f1f" stroke-miterlimit="10" stroke-width=".5"/>
        <line x1="576.697" y1="353.198" x2="567.394" y2="346.816" fill="none" stroke="#221f1f" stroke-miterlimit="10" stroke-width=".5"/>
        <line x1="563.443" y1="344.105" x2="554.139" y2="337.723" fill="none" stroke="#221f1f" stroke-miterlimit="10" stroke-width=".5"/>
      </g>
      <g>
        <line x1="549.732" y1="334.209" x2="540.428" y2="327.826" fill="none" stroke="#221f1f" stroke-miterlimit="10" stroke-width=".5"/>
        <line x1="536.477" y1="325.115" x2="527.174" y2="318.733" fill="none" stroke="#221f1f" stroke-miterlimit="10" stroke-width=".5"/>
        <line x1="523.267" y1="315.912" x2="513.963" y2="309.53" fill="none" stroke="#221f1f" stroke-miterlimit="10" stroke-width=".5"/>
        <line x1="510.013" y1="306.819" x2="500.709" y2="300.437" fill="none" stroke="#221f1f" stroke-miterlimit="10" stroke-width=".5"/>
      </g>
    </g>
  </g>
  <g>
    <g>
      <g>
        <line x1="422.023" y1="245.934" x2="408.245" y2="236.407" fill="none" stroke="#221f1f" stroke-miterlimit="10" stroke-width=".5"/>
        <line x1="402.394" y1="232.361" x2="388.617" y2="222.833" fill="none" stroke="#221f1f" stroke-miterlimit="10" stroke-width=".5"/>
        <line x1="382.8" y1="218.67" x2="369.022" y2="209.143" fill="none" stroke="#221f1f" stroke-miterlimit="10" stroke-width=".5"/>
        <line x1="363.171" y1="205.097" x2="349.393" y2="195.569" fill="none" stroke="#221f1f" stroke-miterlimit="10" stroke-width=".5"/>
      </g>
      <g>
        <line x1="342.757" y1="190.489" x2="328.979" y2="180.961" fill="none" stroke="#221f1f" stroke-miterlimit="10" stroke-width=".5"/>
        <line x1="323.128" y1="176.915" x2="309.351" y2="167.388" fill="none" stroke="#221f1f" stroke-miterlimit="10" stroke-width=".5"/>
        <line x1="303.534" y1="163.225" x2="289.756" y2="153.697" fill="none" stroke="#221f1f" stroke-miterlimit="10" stroke-width=".5"/>
        <line x1="283.905" y1="149.651" x2="270.127" y2="140.124" fill="none" stroke="#221f1f" stroke-miterlimit="10" stroke-width=".5"/>
      </g>
    </g>
    <g>
      <g>
        <line x1="260.481" y1="132.897" x2="246.703" y2="123.37" fill="none" stroke="#221f1f" stroke-miterlimit="10" stroke-width=".5"/>
        <line x1="240.853" y1="119.324" x2="227.075" y2="109.796" fill="none" stroke="#221f1f" stroke-miterlimit="10" stroke-width=".5"/>
        <line x1="221.258" y1="105.634" x2="207.48" y2="96.106" fill="none" stroke="#221f1f" stroke-miterlimit="10" stroke-width=".5"/>
        <line x1="201.629" y1="92.06" x2="187.852" y2="82.533" fill="none" stroke="#221f1f" stroke-miterlimit="10" stroke-width=".5"/>
      </g>
      <g>
        <line x1="181.215" y1="77.452" x2="167.437" y2="67.924" fill="none" stroke="#221f1f" stroke-miterlimit="10" stroke-width=".5"/>
        <line x1="161.587" y1="63.878" x2="147.809" y2="54.351" fill="none" stroke="#221f1f" stroke-miterlimit="10" stroke-width=".5"/>
        <line x1="141.992" y1="50.188" x2="128.214" y2="40.66" fill="none" stroke="#221f1f" stroke-miterlimit="10" stroke-width=".5"/>
        <line x1="122.363" y1="36.614" x2="108.586" y2="27.087" fill="none" stroke="#221f1f" stroke-miterlimit="10" stroke-width=".5"/>
      </g>
    </g>
  </g>
  <g>
    <path d="m528.599,155.313c2.148,1.949,3.5,3.958,3.02,4.488-.481.53-2.612-.62-4.761-2.569s-3.5-3.958-3.02-4.488c.481-.53,2.612.62,4.761,2.569Z" fill="#231f20" stroke-width="0"/>
    <path d="m550.542,175.185c2.148,1.949,3.5,3.958,3.02,4.488s-2.612-.62-4.761-2.569-3.5-3.958-3.02-4.488c.481-.53,2.612.62,4.761,2.569Z" fill="#231f20" stroke-width="0"/>
    <path d="m573.488,195.944c2.148,1.949,3.5,3.958,3.02,4.488s-2.612-.62-4.761-2.569c-2.148-1.949-3.5-3.958-3.02-4.488.481-.53,2.612.62,4.761,2.569Z" fill="#231f20" stroke-width="0"/>
    <path d="m597.929,218.081c2.148,1.949,3.5,3.958,3.02,4.488s-2.612-.62-4.761-2.569-3.5-3.958-3.02-4.488,2.612.62,4.761,2.569Z" fill="#231f20" stroke-width="0"/>
    <path d="m439.517,74.684c2.148,1.949,3.5,3.958,3.02,4.488-.481.53-2.612-.62-4.761-2.569s-3.5-3.958-3.02-4.488c.481-.53,2.612.62,4.761,2.569Z" fill="#231f20" stroke-width="0"/>
    <path d="m461.46,94.556c2.148,1.949,3.5,3.958,3.02,4.488-.481.53-2.612-.62-4.761-2.569s-3.5-3.958-3.02-4.488c.481-.53,2.612.62,4.761,2.569Z" fill="#231f20" stroke-width="0"/>
    <path d="m482.949,113.994c2.148,1.949,3.5,3.958,3.02,4.488-.481.53-2.612-.62-4.761-2.569s-3.5-3.958-3.02-4.488c.481-.53,2.612.62,4.761,2.569Z" fill="#231f20" stroke-width="0"/>
    <path d="m506.349,135.187c2.148,1.949,3.5,3.958,3.02,4.488s-2.612-.62-4.761-2.569-3.5-3.958-3.02-4.488c.481-.53,2.612.62,4.761,2.569Z" fill="#231f20" stroke-width="0"/>
  </g>
  <g>
    <path d="m379.895,23.549c-1.594-1.447-2.497-3.049-2.016-3.579.481-.53,2.163.213,3.757,1.66,1.594,1.447,2.497,3.049,2.016,3.579-.481.53-2.163-.213-3.757-1.66Z" fill="#231f20" stroke-width="0"/>
    <path d="m363.608,8.801c-1.594-1.447-2.497-3.049-2.016-3.579.481-.53,2.163.213,3.757,1.66s2.497,3.049,2.016,3.579c-.481.53-2.163-.213-3.757-1.66Z" fill="#231f20" stroke-width="0"/>
  </g>
  <polyline points="693.181 141.105 689.152 144.532 680.894 134.82 684.923 131.394 676.88 121.936 672.851 125.362 664.636 115.702 668.665 112.275 659.417 101.401 655.388 104.827 621.624 65.123 625.653 61.697 591.931 22.043 587.902 25.469 554.181 -14.185 557.578 -17.073" fill="none" stroke="#231f20" stroke-miterlimit="10" stroke-width=".449"/>
  <g>
    <rect x="-396.473" y="-394.288" width="3386.58" height="2514.089" transform="translate(434.061 2159.574) rotate(-90)" fill="none" stroke="#231f20" stroke-linecap="round" stroke-miterlimit="10" stroke-width="7"/>
    <rect x="-379.506" y="-377.166" width="3353.392" height="2482.402" transform="translate(433.155 2161.225) rotate(-90)" fill="none" stroke="#231f20" stroke-linecap="round" stroke-miterlimit="10" stroke-width="3"/>
    <rect x="-341.031" y="-341.548" width="3275.615" height="2412.095" transform="translate(432.278 2161.276) rotate(-90)" fill="none" stroke="#231f20" stroke-linecap="round" stroke-miterlimit="10"/>
    <rect x="-323.163" y="-324.185" width="3239.88" height="2376.261" transform="translate(432.831 2160.723) rotate(-90)" fill="none" stroke="#231f20" stroke-linecap="round" stroke-miterlimit="10"/>
    <g>
      <g>
        <g>
          <line x1="90.729" y1="180.428" x2="108.646" y2="180.428" fill="none" stroke="#231f20" stroke-linecap="round" stroke-miterlimit="10"/>
          <line x1="90.729" y1="108.3" x2="108.646" y2="108.3" fill="none" stroke="#231f20" stroke-linecap="round" stroke-miterlimit="10"/>
          <line x1="90.729" y1="36.462" x2="108.646" y2="36.462" fill="none" stroke="#231f20" stroke-linecap="round" stroke-miterlimit="10"/>
        </g>
        <g>
          <line x1="90.729" y1="396.05" x2="108.646" y2="396.05" fill="none" stroke="#231f20" stroke-linecap="round" stroke-miterlimit="10"/>
          <line x1="90.729" y1="323.896" x2="108.646" y2="323.896" fill="none" stroke="#231f20" stroke-linecap="round" stroke-miterlimit="10"/>
          <line x1="90.729" y1="251.974" x2="108.646" y2="251.974" fill="none" stroke="#231f20" stroke-linecap="round" stroke-miterlimit="10"/>
        </g>
      </g>
      <rect x="27.958" y="249.916" width="144" height="3.6" transform="translate(-151.758 351.674) rotate(-90)" fill="#231f20" stroke-width="0"/>
      <rect x="27.688" y="32.004" width="144" height="8.773" transform="translate(63.297 136.078) rotate(-90)" fill="#231f20" stroke-width="0"/>
    </g>
  </g>
</svg>