<?xml version="1.0" encoding="UTF-8"?>
<svg id="a" data-name="Layer 1" xmlns="http://www.w3.org/2000/svg" width="9.002in" height="6.002in" viewBox="0 0 648.177 432.177">
  <g opacity=".75">
    <g>
      <g>
        <path d="m532.288,423.641c-.041,5.485-.835,10.616-2.249,15.218-1.362,4.62-3.303,8.704-5.447,12.258-4.306,7.133-9.449,12.06-13.863,15.49-4.466,3.41-8.24,5.41-10.805,6.603-1.279.611-2.275.996-2.923,1.291-.66.267-.998.384-.998.384" fill="none" stroke="#231f20" stroke-miterlimit="10" stroke-width=".25"/>
        <path d="m534.769,423.641c-.041,5.739-.875,11.114-2.354,15.932-1.427,4.837-3.458,9.111-5.699,12.827-4.502,7.457-9.869,12.596-14.472,16.172-4.656,3.556-8.59,5.639-11.262,6.883-1.332.637-2.37,1.039-3.045,1.345-.687.279-1.04.401-1.04.401" fill="none" stroke="#231f20" stroke-miterlimit="10" stroke-width=".25"/>
        <path d="m416.174,428.381c-.502-5.463-.095-10.652.855-15.364.953-4.72,2.529-8.953,4.334-12.684,3.648-7.481,8.363-12.822,12.49-16.585,4.137-3.8,7.784-6.032,10.216-7.469,2.469-1.393,3.776-1.979,3.776-1.979" fill="none" stroke="#231f20" stroke-miterlimit="10" stroke-width=".25"/>
        <path d="m413.703,428.602c-.525-5.717-.1-11.147.896-16.082.999-4.942,2.647-9.376,4.537-13.278,3.818-7.826,8.741-13.4,13.045-17.326,4.317-3.964,8.116-6.291,10.652-7.787,2.573-1.453,3.934-2.063,3.934-2.063" fill="none" stroke="#231f20" stroke-miterlimit="10" stroke-width=".25"/>
        <path d="m465.573,368.933c11.007-1.519,20.913.078,28.769,2.838,7.887,2.82,13.859,6.701,18.133,10.312,4.328,3.586,7.01,6.9,8.742,9.117.422.566.791,1.061,1.108,1.486.298.439.546.805.745,1.098.395.588.594.883.594.883" fill="none" stroke="#231f20" stroke-miterlimit="10" stroke-width=".25"/>
        <path d="m465.229,366.475c11.449-1.58,21.751.08,29.939,2.955,8.216,2.937,14.439,6.982,18.898,10.748,4.513,3.741,7.316,7.2,9.124,9.516.44.591.826,1.109,1.157,1.553.321.451.569.841.779,1.146.413.614.62.923.62.923" fill="none" stroke="#231f20" stroke-miterlimit="10" stroke-width=".25"/>
      </g>
      <g>
        <path d="m445.012,478.853c-5.538-2.644-10.318-5.955-14.408-9.463-4.053-3.561-7.399-7.35-10.096-11.135-5.349-7.628-8.148-15.08-9.528-21.168-1.43-6.108-1.528-10.879-1.537-14.023.043-1.578.057-2.766.144-3.555.063-.79.095-1.187.095-1.187" fill="none" stroke="#231f20" stroke-miterlimit="10" stroke-width=".25"/>
        <path d="m443.934,481.088c-5.747-2.745-10.711-6.18-14.958-9.825-4.21-3.698-7.688-7.637-10.493-11.574-5.566-7.933-8.481-15.698-9.92-22.041-1.489-6.365-1.593-11.335-1.601-14.608.044-1.643.061-2.88.15-3.702.066-.823.099-1.237.099-1.237" fill="none" stroke="#231f20" stroke-miterlimit="10" stroke-width=".25"/>
        <path d="m416.41,395.71c2.865-5.446,6.418-10.07,10.143-13.963,3.766-3.864,7.711-7.02,11.624-9.515,7.855-4.975,15.337-7.533,21.418-8.834,6.098-1.341,10.832-1.549,13.967-1.57,1.571-.016,2.753.051,3.542.059.789.025,1.183.069,1.183.069" fill="none" stroke="#231f20" stroke-miterlimit="10" stroke-width=".25"/>
        <path d="m414.218,394.546c2.983-5.668,6.677-10.477,10.549-14.522,3.913-4.016,8.011-7.292,12.072-9.882,8.154-5.165,15.917-7.817,22.223-9.168,6.325-1.39,11.231-1.605,14.479-1.628,1.628-.016,2.852.052,3.669.061.817.026,1.226.072,1.226.072" fill="none" stroke="#231f20" stroke-miterlimit="10" stroke-width=".25"/>
        <path d="m498.353,366.317c11.464,4.446,20.146,11.427,26.107,18.514,6.003,7.125,9.398,14.312,11.37,20.232,1.921,5.968,2.518,10.697,2.768,13.835.153,1.573.151,2.761.177,3.553.021.792.031,1.19.031,1.19" fill="none" stroke="#231f20" stroke-miterlimit="10" stroke-width=".25"/>
        <path d="m499.247,364.002c11.895,4.613,20.911,11.86,27.108,19.227,6.241,7.406,9.778,14.89,11.832,21.058,2.002,6.218,2.624,11.146,2.885,14.414.158,1.638.158,2.875.184,3.7.021.825.031,1.239.031,1.239" fill="none" stroke="#231f20" stroke-miterlimit="10" stroke-width=".25"/>
      </g>
    </g>
    <g>
      <g>
        <path d="m576.148,424.561c-.079,9.795-1.41,18.977-3.834,27.229-1.126,4.153-2.64,8.028-4.144,11.734-1.637,3.651-3.312,7.128-5.192,10.321-7.416,12.871-16.325,21.857-24.012,28.152-7.808,6.222-14.432,9.902-18.938,12.115-4.522,2.202-6.896,3.108-6.896,3.108" fill="none" stroke="#231f20" stroke-miterlimit="10" stroke-width=".25"/>
        <path d="m578.629,424.561c-.078,10.036-1.446,19.451-3.93,27.912-1.156,4.257-2.706,8.231-4.249,12.03-1.677,3.744-3.395,7.306-5.321,10.579-7.601,13.191-16.727,22.396-24.602,28.844-7.997,6.374-14.784,10.143-19.399,12.41-4.632,2.256-7.064,3.184-7.064,3.184" fill="none" stroke="#231f20" stroke-miterlimit="10" stroke-width=".25"/>
        <path d="m373.11,433.03c-.48-4.874-.406-9.64-.21-14.231.189-2.292.302-4.554.64-6.755.155-1.101.254-2.202.45-3.278.195-1.076.389-2.143.58-3.201.168-1.063.428-2.097.669-3.125.243-1.028.484-2.047.723-3.057.288-.997.573-1.985.855-2.964.273-.982.558-1.951.902-2.891.645-1.894,1.266-3.757,2.02-5.531.363-.892.699-1.785,1.074-2.652.394-.858.784-1.708,1.171-2.549,6.268-13.463,14.406-23.165,21.565-30.049,3.562-3.496,7.044-6.164,10.014-8.458,1.543-1.071,2.942-2.079,4.243-2.955,1.326-.838,2.521-1.593,3.584-2.265,2.177-1.257,3.82-2.199,4.935-2.79,1.128-.569,1.694-.854,1.694-.854" fill="none" stroke="#231f20" stroke-miterlimit="10" stroke-width=".25"/>
        <path d="m370.638,433.24c-.491-4.997-.417-9.878-.214-14.584.193-2.349.311-4.667.655-6.924.159-1.129.261-2.257.462-3.36.2-1.103.398-2.197.595-3.282.173-1.089.439-2.15.686-3.204.249-1.054.497-2.098.742-3.134.295-1.022.587-2.035.876-3.039.28-1.007.573-2,.925-2.964.661-1.942,1.299-3.852,2.071-5.671.372-.914.717-1.83,1.101-2.718.404-.88.804-1.751,1.199-2.614,6.426-13.8,14.764-23.74,22.097-30.792,3.65-3.58,7.214-6.316,10.259-8.664,1.58-1.098,3.013-2.13,4.346-3.027,1.358-.858,2.582-1.632,3.671-2.32,2.23-1.289,3.913-2.253,5.055-2.858,1.155-.583,1.735-.875,1.735-.875" fill="none" stroke="#231f20" stroke-miterlimit="10" stroke-width=".25"/>
        <path d="m459.308,325.485c9.708-1.358,19.015-1.418,27.564-.336,8.553,1.044,16.387,2.998,23.326,5.613,6.952,2.587,13.049,5.701,18.322,8.968,5.266,3.281,9.763,6.655,13.484,9.975,7.499,6.593,12.181,12.56,15.15,16.597.726,1.026,1.401,1.898,1.913,2.691.515.792.944,1.453,1.288,1.982.689,1.057,1.035,1.589,1.035,1.589" fill="none" stroke="#231f20" stroke-miterlimit="10" stroke-width=".25"/>
        <path d="m458.948,323.029c9.943-1.392,19.465-1.452,28.221-.344,8.759,1.069,16.783,3.072,23.891,5.749,7.121,2.649,13.367,5.84,18.769,9.186,5.395,3.361,10,6.818,13.812,10.218,7.682,6.754,12.48,12.866,15.522,17.004.744,1.051,1.435,1.945,1.96,2.758.528.812.968,1.489,1.32,2.031.706,1.084,1.06,1.628,1.06,1.628" fill="none" stroke="#231f20" stroke-miterlimit="10" stroke-width=".25"/>
      </g>
      <g>
        <path d="m425.076,519.513c-2.353-1.126-4.55-2.461-6.757-3.693-2.126-1.367-4.276-2.628-6.252-4.078-4.048-2.762-7.704-5.798-11.11-8.859-6.736-6.211-12.315-12.744-16.692-19.312-4.402-6.553-7.727-13.04-10.227-19.152-2.484-6.12-4.234-11.846-5.329-17.041-.33-1.287-.527-2.559-.755-3.784-.205-1.229-.475-2.406-.604-3.563-.281-2.31-.629-4.449-.734-6.448-.156-1.993-.317-3.822-.323-5.492-.021-1.669-.13-3.172-.065-4.51.076-2.676.087-4.69.233-6.029.103-1.34.155-2.013.155-2.013" fill="none" stroke="#231f20" stroke-miterlimit="10" stroke-width=".25"/>
        <path d="m423.955,521.727c-2.406-1.153-4.655-2.516-6.912-3.778-2.176-1.396-4.373-2.689-6.395-4.171-4.14-2.826-7.88-5.93-11.364-9.062-6.891-6.353-12.597-13.038-17.077-19.757-4.504-6.705-7.908-13.344-10.467-19.601-2.543-6.265-4.333-12.126-5.455-17.444-.337-1.318-.54-2.62-.773-3.873-.21-1.257-.485-2.463-.618-3.647-.288-2.365-.642-4.554-.751-6.599-.16-2.04-.324-3.911-.33-5.62-.022-1.708-.132-3.246-.066-4.615.076-2.738.091-4.799.238-6.169.106-1.372.159-2.061.159-2.061" fill="none" stroke="#231f20" stroke-miterlimit="10" stroke-width=".25"/>
        <path d="m377.537,377.026c4.692-9.328,10.52-17.318,16.68-24.095,6.235-6.722,12.839-12.206,19.374-16.62,13.143-8.794,25.84-13.288,36.151-15.632,10.353-2.378,18.411-2.776,23.747-2.8,2.674-.027,4.685.09,6.027.103.672.004,1.173.073,1.51.089.336.025.504.038.504.038" fill="none" stroke="#231f20" stroke-miterlimit="10" stroke-width=".25"/>
        <path d="m375.323,375.907c4.803-9.547,10.765-17.723,17.068-24.654,6.377-6.877,13.133-12.487,19.817-17.001,13.444-8.995,26.432-13.592,36.977-15.99,10.589-2.432,18.829-2.837,24.283-2.863,2.733-.028,4.789.091,6.162.106.687.005,1.2.075,1.543.091.343.026.515.038.515.038" fill="none" stroke="#231f20" stroke-miterlimit="10" stroke-width=".25"/>
        <path d="m515.582,325.861c1.226.445,2.385,1.026,3.564,1.533,1.172.523,2.344,1.025,3.462,1.617,1.128.57,2.248,1.135,3.359,1.696,1.083.613,2.158,1.22,3.224,1.823,1.077.585,2.105,1.232,3.119,1.882,1.013.652,2.041,1.264,3.018,1.934,1.934,1.37,3.879,2.659,5.661,4.1,3.667,2.752,6.925,5.757,10.011,8.698,2.99,3.039,5.791,6.049,8.233,9.149,9.92,12.327,15.399,24.639,18.619,34.716,3.103,10.168,4.082,18.181,4.478,23.507.253,2.667.24,4.683.286,6.026.034,1.344.051,2.018.051,2.018" fill="none" stroke="#231f20" stroke-miterlimit="10" stroke-width=".25"/>
        <path d="m516.515,323.561c1.254.456,2.44,1.049,3.646,1.567,1.199.535,2.397,1.049,3.541,1.654,1.154.583,2.299,1.161,3.435,1.735,1.108.626,2.207,1.248,3.297,1.865,1.101.599,2.153,1.26,3.191,1.925,1.036.666,2.087,1.293,3.087,1.979,1.979,1.4,3.967,2.72,5.791,4.194,3.75,2.816,7.084,5.888,10.239,8.897,3.06,3.108,5.923,6.188,8.423,9.359,10.149,12.611,15.759,25.213,19.054,35.53,3.178,10.409,4.178,18.612,4.584,24.062.258,2.73.246,4.792.293,6.166.034,1.375.052,2.065.052,2.065" fill="none" stroke="#231f20" stroke-miterlimit="10" stroke-width=".25"/>
      </g>
    </g>
    <g>
      <g>
        <path d="m620.008,425.481c-.116,14.092-1.983,27.312-5.413,39.207-.435,1.484-.817,2.971-1.282,4.418-.488,1.44-.972,2.867-1.451,4.281-.242.706-.482,1.41-.722,2.11-.272.688-.543,1.373-.813,2.055-.538,1.364-1.072,2.716-1.6,4.056-.561,1.325-1.174,2.614-1.749,3.905-.603,1.278-1.113,2.585-1.778,3.802-.633,1.233-1.259,2.455-1.879,3.664-.314.603-.61,1.211-.933,1.801-.336.583-.67,1.163-1.003,1.74-5.245,9.28-11.059,17.223-16.908,23.953-5.855,6.735-11.735,12.268-17.236,16.863-11.14,9.049-20.622,14.411-27.068,17.649-.804.412-1.559.798-2.264,1.159-.713.344-1.39.633-2.007.916-1.238.559-2.271,1.026-3.098,1.399-1.645.769-2.505,1.074-2.505,1.074" fill="none" stroke="#231f20" stroke-miterlimit="10" stroke-width=".25"/>
        <path d="m622.49,425.481c-.116,14.329-2.018,27.777-5.505,39.877-.442,1.51-.832,3.022-1.305,4.494-.496,1.465-.988,2.917-1.476,4.355-.246.719-.491,1.434-.735,2.146-.277.7-.552,1.397-.826,2.091-.548,1.388-1.09,2.763-1.628,4.125-.571,1.348-1.194,2.66-1.779,3.972-.613,1.3-1.134,2.628-1.809,3.868-.643,1.255-1.281,2.497-1.911,3.727-.319.613-.621,1.232-.949,1.832-.342.593-.682,1.183-1.02,1.77-5.335,9.439-11.248,17.517-17.196,24.363-5.954,6.849-11.934,12.476-17.529,17.149-11.329,9.204-20.974,14.657-27.53,17.951-.818.419-1.586.812-2.303,1.178-.725.35-1.413.644-2.041.932-1.259.569-2.31,1.043-3.151,1.423-1.673.782-2.548,1.092-2.548,1.092" fill="none" stroke="#231f20" stroke-miterlimit="10" stroke-width=".25"/>
        <path d="m330.046,437.668c-.677-7.016-.574-13.871-.297-20.479.272-3.298.424-6.554.903-9.723.217-1.586.369-3.168.632-4.72.277-1.549.552-3.086.825-4.609.241-1.53.59-3.023.942-4.503.342-1.481.681-2.95,1.017-4.405.409-1.436.814-2.86,1.215-4.271.4-1.411.778-2.815,1.27-4.169.931-2.725,1.784-5.421,2.86-7.978.509-1.289,1.013-2.566,1.512-3.829.561-1.238,1.116-2.464,1.666-3.677,4.427-9.695,9.551-18.101,14.82-25.295,5.273-7.2,10.69-13.189,15.796-18.215,10.311-9.982,19.299-16.148,25.468-19.893,3.093-1.869,5.475-3.184,7.05-4.086,1.616-.826,2.428-1.241,2.428-1.241" fill="none" stroke="#231f20" stroke-miterlimit="10" stroke-width=".25"/>
        <path d="m327.573,437.874c-.687-7.136-.585-14.105-.302-20.824.276-3.354.432-6.666.918-9.888.22-1.613.376-3.222.644-4.801.282-1.576.561-3.139.839-4.688.246-1.556.601-3.075.958-4.58.348-1.507.693-3,1.035-4.481.416-1.461.827-2.909,1.236-4.344.407-1.435.792-2.863,1.292-4.241.946-2.772,1.816-5.514,2.909-8.115.518-1.311,1.031-2.61,1.539-3.895.57-1.259,1.135-2.506,1.694-3.74,4.503-9.862,9.715-18.412,15.074-25.728,5.363-7.322,10.871-13.413,16.065-18.525,10.486-10.153,19.628-16.421,25.901-20.231,3.145-1.902,5.569-3.239,7.171-4.155,1.644-.841,2.469-1.263,2.469-1.263" fill="none" stroke="#231f20" stroke-miterlimit="10" stroke-width=".25"/>
        <path d="m453.026,282.04c13.944-1.987,27.312-2.073,39.591-.489,12.288,1.516,23.528,4.402,33.475,8.22,9.966,3.78,18.694,8.328,26.231,13.091,7.527,4.785,13.935,9.705,19.253,14.513,10.667,9.605,17.343,18.225,21.546,24.083,2.148,2.911,3.556,5.24,4.546,6.762.491.764.859,1.337,1.105,1.72.251.379.357.582.357.582" fill="none" stroke="#231f20" stroke-miterlimit="10" stroke-width=".25"/>
        <path d="m452.658,279.585c14.183-2.022,27.771-2.107,40.26-.498,12.498,1.542,23.931,4.479,34.05,8.361,10.138,3.845,19.015,8.471,26.681,13.315,7.656,4.866,14.172,9.871,19.58,14.761,10.848,9.768,17.638,18.534,21.913,24.492,2.184,2.961,3.617,5.329,4.623,6.877.499.777.874,1.36,1.123,1.749.255.386.363.592.363.592" fill="none" stroke="#231f20" stroke-miterlimit="10" stroke-width=".25"/>
      </g>
      <g>
        <path d="m405.162,560.175c-.819-.419-1.635-.837-2.448-1.253-.808-.425-1.585-.899-2.374-1.344-1.567-.91-3.142-1.78-4.667-2.705-3.001-1.931-5.999-3.767-8.777-5.829-2.861-1.946-5.493-4.104-8.131-6.161-1.308-1.043-2.532-2.165-3.785-3.23-1.246-1.074-2.49-2.13-3.64-3.268-9.437-8.845-17.204-18.156-23.292-27.481-6.13-9.301-10.748-18.491-14.215-27.139-.849-2.17-1.73-4.268-2.396-6.384-.356-1.05-.707-2.086-1.053-3.108-.354-1.02-.691-2.031-.96-3.048-.574-2.022-1.133-3.989-1.676-5.901-.448-1.937-.882-3.817-1.304-5.642-.462-1.816-.716-3.616-1.042-5.343-.283-1.734-.668-3.394-.834-5.029-.395-3.26-.87-6.279-1.017-9.099-.219-2.812-.439-5.392-.447-7.75-.03-1.177-.058-2.296-.085-3.357-.013-.53-.026-1.046-.039-1.547.011-.501.022-.988.033-1.46.108-3.775.118-6.618.321-8.506.144-1.891.216-2.841.216-2.841" fill="none" stroke="#231f20" stroke-miterlimit="10" stroke-width=".25"/>
        <path d="m404.023,562.38c-.832-.426-1.661-.851-2.488-1.274-.821-.432-1.611-.913-2.414-1.365-1.592-.925-3.193-1.809-4.743-2.75-3.05-1.962-6.096-3.829-8.921-5.923-2.907-1.979-5.583-4.17-8.263-6.262-1.329-1.06-2.574-2.199-3.847-3.282-1.266-1.092-2.53-2.165-3.699-3.321-9.591-8.988-17.483-18.452-23.671-27.928-6.231-9.453-10.925-18.794-14.449-27.585-.863-2.206-1.757-4.339-2.436-6.49-.361-1.067-.718-2.12-1.07-3.16-.36-1.037-.702-2.064-.976-3.098-.584-2.056-1.151-4.055-1.703-5.999-.455-1.968-.897-3.88-1.326-5.734-.469-1.847-.728-3.676-1.06-5.431-.288-1.762-.677-3.45-.848-5.112-.402-3.313-.883-6.382-1.034-9.247-.223-2.858-.445-5.48-.454-7.875-.03-1.196-.059-2.333-.086-3.411-.013-.539-.026-1.063-.039-1.572.011-.509.022-1.004.033-1.483.109-3.836.121-6.724.326-8.644.146-1.922.22-2.887.22-2.887" fill="none" stroke="#231f20" stroke-miterlimit="10" stroke-width=".25"/>
        <path d="m338.683,358.324c.84-1.637,1.673-3.262,2.5-4.875.9-1.573,1.794-3.133,2.681-4.682.862-1.564,1.824-3.05,2.779-4.525.967-1.466,1.849-2.973,2.866-4.371,1.003-1.408,1.997-2.805,2.984-4.19.968-1.399,2.071-2.68,3.087-4.009,2.016-2.673,4.238-5.103,6.344-7.557,8.679-9.598,17.953-17.403,27.114-23.722,9.171-6.328,18.312-11.054,26.892-14.683,8.594-3.627,16.688-6.026,23.97-7.75,14.603-3.414,25.982-4.002,33.517-4.029.944-.039,1.829-.034,2.656,0,.827.021,1.595.04,2.304.058,1.419.036,2.603.066,3.551.09.949.009,1.657.108,2.131.13.474.036.711.054.711.054" fill="none" stroke="#231f20" stroke-miterlimit="10" stroke-width=".25"/>
        <path d="m336.459,357.222c.854-1.664,1.701-3.316,2.542-4.955.915-1.598,1.823-3.185,2.724-4.758.877-1.589,1.854-3.1,2.825-4.599.983-1.49,1.88-3.021,2.913-4.442,1.019-1.431,2.03-2.851,3.032-4.259.984-1.422,2.104-2.724,3.137-4.074,2.049-2.716,4.307-5.187,6.448-7.68,8.82-9.754,18.244-17.686,27.555-24.108,9.321-6.43,18.611-11.235,27.333-14.924,8.735-3.686,16.963-6.126,24.365-7.878,14.843-3.47,26.408-4.066,34.063-4.094.959-.039,1.859-.034,2.699,0,.84.021,1.621.04,2.341.058,1.442.037,2.644.068,3.608.092.964.009,1.684.109,2.166.131.482.036.723.055.723.055" fill="none" stroke="#231f20" stroke-miterlimit="10" stroke-width=".25"/>
        <path d="m532.792,285.404c13.584,5.674,25.55,12.865,35.684,20.897,5.129,3.944,9.711,8.205,14.002,12.42,4.187,4.321,8.101,8.606,11.499,13.019,6.9,8.744,12.281,17.509,16.461,25.836,4.185,8.333,7.17,16.223,9.417,23.366,4.308,14.366,5.657,25.672,6.204,33.188.353,3.763.329,6.607.396,8.502.048,1.896.072,2.848.072,2.848" fill="none" stroke="#231f20" stroke-miterlimit="10" stroke-width=".25"/>
        <path d="m533.741,283.111c13.807,5.766,25.969,13.077,36.268,21.239,5.212,4.01,9.869,8.338,14.229,12.623,4.256,4.39,8.232,8.746,11.687,13.231,7.012,8.886,12.482,17.795,16.73,26.259,4.254,8.47,7.288,16.49,9.572,23.751,4.38,14.603,5.751,26.095,6.307,33.733.358,3.825.335,6.715.402,8.64.048,1.927.072,2.894.072,2.894" fill="none" stroke="#231f20" stroke-miterlimit="10" stroke-width=".25"/>
      </g>
    </g>
    <g>
      <g>
        <path d="m663.868,426.4c-.154,18.385-2.555,35.64-6.99,51.174-.559,1.94-1.069,3.876-1.653,5.772-.633,1.88-1.26,3.744-1.882,5.591-.31.924-.619,1.843-.927,2.759-.352.899-.703,1.794-1.053,2.685-.698,1.782-1.39,3.547-2.075,5.297-.706,1.741-1.517,3.418-2.258,5.106-.778,1.671-1.453,3.372-2.294,4.974-.821,1.612-1.634,3.208-2.438,4.788-.402.79-.802,1.577-1.2,2.359-.435.762-.868,1.521-1.299,2.276-6.79,12.139-14.321,22.539-21.904,31.361-7.595,8.821-15.209,16.101-22.371,22.112-14.456,11.898-26.807,18.93-35.19,23.199-1.048.54-2.031,1.047-2.948,1.52-.917.475-1.807.837-2.609,1.214-1.613.733-2.959,1.345-4.036,1.835-1.08.485-1.882.871-2.432,1.093-.551.218-.828.328-.828.328" fill="none" stroke="#231f20" stroke-miterlimit="10" stroke-width=".25"/>
        <path d="m666.35,426.4c-.153,18.619-2.589,36.1-7.08,51.837-.566,1.965-1.083,3.927-1.675,5.847-.641,1.905-1.276,3.793-1.906,5.664-.315.936-.628,1.867-.939,2.795-.357.911-.712,1.818-1.066,2.72-.708,1.805-1.409,3.594-2.103,5.366-.715,1.763-1.536,3.463-2.287,5.173-.788,1.693-1.473,3.415-2.325,5.039-.831,1.633-1.655,3.25-2.47,4.851-.407.801-.813,1.597-1.216,2.39-.441.772-.88,1.541-1.316,2.306-6.878,12.297-14.508,22.833-22.19,31.77-7.694,8.936-15.407,16.31-22.663,22.399-14.644,12.054-27.158,19.178-35.652,23.504-1.062.547-2.058,1.06-2.988,1.54-.929.481-1.831.848-2.643,1.231-1.634.743-2.998,1.363-4.09,1.86-1.094.491-1.907.882-2.464,1.107-.559.221-.839.332-.839.332" fill="none" stroke="#231f20" stroke-miterlimit="10" stroke-width=".25"/>
        <path d="m286.981,442.303c-.873-9.156-.741-18.098-.385-26.721.355-4.303.546-8.553,1.167-12.688.279-2.07.483-4.134.815-6.161.359-2.022.716-4.027,1.069-6.015.184-.992.333-1.988.544-2.966.224-.975.447-1.946.669-2.913.443-1.934.883-3.851,1.318-5.75.527-1.876,1.049-3.736,1.567-5.578.527-1.84.997-3.678,1.637-5.447,1.216-3.555,2.301-7.083,3.698-10.422.66-1.684,1.313-3.351,1.96-5.003.724-1.619,1.442-3.221,2.152-4.807,5.727-12.673,12.36-23.671,19.186-33.091,6.831-9.428,13.852-17.281,20.474-23.877,13.389-13.086,25.072-21.185,33.092-26.113.98-.657,1.937-1.212,2.835-1.722.894-.517,1.725-.997,2.492-1.441,1.534-.887,2.814-1.628,3.839-2.221,2.105-1.084,3.162-1.628,3.162-1.628" fill="none" stroke="#231f20" stroke-miterlimit="10" stroke-width=".25"/>
        <path d="m284.508,442.507c-.883-9.274-.752-18.33-.39-27.063.358-4.359.554-8.663,1.182-12.852.282-2.097.49-4.187.826-6.24.364-2.049.725-4.08,1.082-6.094.187-1.005.338-2.013.552-3.004.227-.988.453-1.972.678-2.951.449-1.959.895-3.901,1.336-5.825.534-1.901,1.063-3.785,1.587-5.651.534-1.864,1.012-3.726,1.659-5.518,1.231-3.602,2.332-7.175,3.746-10.559.668-1.706,1.33-3.395,1.986-5.068.734-1.64,1.46-3.263,2.179-4.871,5.803-12.839,12.522-23.981,19.437-33.523,6.92-9.551,14.032-17.506,20.741-24.188,13.563-13.257,25.4-21.461,33.525-26.454.993-.666,1.962-1.227,2.872-1.745.906-.524,1.747-1.01,2.524-1.46,1.554-.899,2.851-1.649,3.89-2.249,2.133-1.098,3.204-1.65,3.204-1.65" fill="none" stroke="#231f20" stroke-miterlimit="10" stroke-width=".25"/>
        <path d="m446.737,238.596c4.559-.554,9.033-1.258,13.487-1.494,1.111-.085,2.217-.17,3.319-.254l1.65-.127c.549-.03,1.099-.032,1.647-.049,2.193-.056,4.368-.111,6.526-.166l1.615-.042,1.609.037c1.07.027,2.136.055,3.198.082,1.062.027,2.119.053,3.172.08,1.053.02,2.102.046,3.142.147,4.162.345,8.27.537,12.265,1.144,16.026,1.989,30.675,5.808,43.632,10.832,12.982,4.976,24.341,10.958,34.142,17.22,9.792,6.284,18.099,12.767,25.02,19.055,13.832,12.62,22.502,23.892,27.938,31.57,2.792,3.805,4.593,6.868,5.889,8.85.637.998,1.115,1.748,1.434,2.249.312.505.45.768.45.768" fill="none" stroke="#231f20" stroke-miterlimit="10" stroke-width=".25"/>
        <path d="m446.366,236.142c4.619-.563,9.153-1.274,13.664-1.514,1.125-.086,2.246-.172,3.362-.257l1.671-.128c.557-.031,1.114-.033,1.669-.05,2.221-.057,4.425-.113,6.611-.168l1.636-.042,1.63.037c1.084.028,2.164.055,3.239.083,1.075.027,2.146.054,3.213.082,1.067.02,2.129.047,3.183.149,4.217.348,8.379.545,12.426,1.158,16.238,2.015,31.082,5.887,44.212,10.976,13.155,5.042,24.664,11.104,34.593,17.448,9.921,6.367,18.336,12.935,25.348,19.305,14.013,12.783,22.795,24.203,28.302,31.981,2.827,3.856,4.654,6.957,5.965,8.965.645,1.012,1.129,1.771,1.453,2.278.316.511.456.778.456.778" fill="none" stroke="#231f20" stroke-miterlimit="10" stroke-width=".25"/>
      </g>
      <g>
        <path d="m385.255,600.839c-1.056-.544-2.108-1.087-3.157-1.627-1.022-.588-2.04-1.174-3.054-1.758-2.016-1.188-4.059-2.298-6.009-3.526-1.937-1.249-3.858-2.488-5.765-3.718l-1.426-.921-1.376-.984c-.915-.655-1.827-1.307-2.735-1.956-3.688-2.523-7.058-5.349-10.464-8.007-1.663-1.378-3.254-2.815-4.863-4.201-.801-.698-1.598-1.393-2.392-2.085-.784-.703-1.524-1.447-2.283-2.164-12.143-11.474-22.086-23.571-29.894-35.647-7.86-12.049-13.771-23.942-18.206-35.126-1.099-2.802-2.207-5.522-3.064-8.255-.456-1.357-.907-2.696-1.351-4.017-.222-.661-.443-1.317-.662-1.969-.188-.662-.375-1.319-.56-1.972-.734-2.614-1.448-5.156-2.141-7.627-.574-2.501-1.132-4.931-1.672-7.288-.595-2.346-.905-4.674-1.33-6.903-.367-2.239-.851-4.385-1.065-6.496-.509-4.209-1.111-8.11-1.3-11.751-.137-1.816-.269-3.557-.395-5.224-.153-1.665-.114-3.265-.177-4.784-.038-1.52-.074-2.966-.109-4.335-.017-.685-.034-1.351-.05-1.998.014-.647.028-1.276.042-1.885.141-4.875.149-8.546.41-10.985.185-2.443.277-3.669.277-3.669" fill="none" stroke="#231f20" stroke-miterlimit="10" stroke-width=".25"/>
        <path d="m384.106,603.039c-1.07-.552-2.135-1.101-3.197-1.648-1.035-.595-2.066-1.189-3.094-1.779-2.042-1.203-4.11-2.328-6.085-3.571-1.961-1.265-3.908-2.52-5.838-3.765l-1.444-.933-1.393-.996c-.927-.663-1.85-1.323-2.77-1.98-3.734-2.556-7.148-5.416-10.596-8.109-1.685-1.395-3.296-2.85-4.925-4.254-.811-.707-1.618-1.411-2.422-2.112-.793-.712-1.543-1.465-2.312-2.191-12.296-11.618-22.363-23.868-30.27-36.096-7.959-12.2-13.945-24.244-18.436-35.57-1.113-2.837-2.234-5.592-3.103-8.36-.462-1.374-.918-2.73-1.368-4.068-.225-.669-.448-1.334-.67-1.994-.191-.67-.38-1.335-.568-1.996-.743-2.647-1.466-5.221-2.168-7.723-.582-2.533-1.146-4.993-1.694-7.38-.601-2.376-.917-4.733-1.347-6.99-.372-2.267-.86-4.441-1.078-6.578-.516-4.262-1.124-8.212-1.316-11.898-.139-1.839-.272-3.602-.399-5.289-.154-1.686-.116-3.305-.179-4.843-.039-1.539-.075-3.002-.11-4.389-.017-.693-.034-1.368-.05-2.023.014-.655.028-1.291.042-1.908.141-4.935.152-8.652.415-11.121.187-2.473.281-3.715.281-3.715" fill="none" stroke="#231f20" stroke-miterlimit="10" stroke-width=".25"/>
        <path d="m299.834,339.616c1.078-2.117,2.148-4.219,3.21-6.304,1.109-2.06,2.299-4.056,3.431-6.063.578-.997,1.129-2.004,1.722-2.981.614-.964,1.226-1.925,1.836-2.881,1.237-1.901,2.388-3.838,3.67-5.666,1.289-1.823,2.567-3.631,3.835-5.425l.949-1.342,1.003-1.294c.67-.858,1.338-1.713,2.003-2.565,2.594-3.459,5.427-6.629,8.146-9.799,11.124-12.473,23.067-22.598,34.854-30.821,11.806-8.227,23.57-14.411,34.641-19.13,11.09-4.706,21.527-7.855,30.929-10.102,18.851-4.45,33.55-5.229,43.283-5.258.61-.015,1.2-.029,1.772-.042.572.014,1.125.028,1.659.042,1.068.027,2.06.052,2.976.075,1.833.047,3.362.086,4.586.117,1.225.015,2.14.141,2.753.17.612.047.919.07.919.07" fill="none" stroke="#231f20" stroke-miterlimit="10" stroke-width=".25"/>
        <path d="m297.605,338.524c1.092-2.144,2.176-4.272,3.251-6.384,1.123-2.086,2.327-4.108,3.474-6.14.585-1.009,1.144-2.029,1.744-3.019.622-.976,1.241-1.949,1.858-2.918,1.252-1.925,2.419-3.886,3.716-5.737,1.305-1.846,2.599-3.677,3.883-5.493l.962-1.359,1.016-1.31c.679-.869,1.355-1.735,2.028-2.597,2.627-3.502,5.495-6.713,8.249-9.922,11.264-12.63,23.357-22.883,35.294-31.21,11.956-8.331,23.87-14.594,35.083-19.374,11.232-4.766,21.804-7.957,31.326-10.233,19.094-4.508,33.98-5.294,43.835-5.325.617-.015,1.215-.029,1.794-.042.579.014,1.139.028,1.679.042,1.081.027,2.086.053,3.014.076,1.856.048,3.404.087,4.644.119,1.241.015,2.167.143,2.787.172.62.047.93.071.93.071" fill="none" stroke="#231f20" stroke-miterlimit="10" stroke-width=".25"/>
        <path d="m549.997,244.946c17.516,7.4,32.922,16.768,45.959,27.207,13.137,10.337,23.913,21.705,32.759,33.03,8.854,11.337,15.749,22.69,21.099,33.467,5.357,10.784,9.171,20.988,12.043,30.221,5.514,18.565,7.235,33.166,7.932,42.872.454,4.86.418,8.533.506,10.98.061,2.448.092,3.678.092,3.678" fill="none" stroke="#231f20" stroke-miterlimit="10" stroke-width=".25"/>
        <path d="m550.954,242.657c17.741,7.494,33.342,16.983,46.544,27.552,13.303,10.468,24.214,21.978,33.172,33.446,8.966,11.479,15.947,22.976,21.365,33.889,5.425,10.921,9.288,21.254,12.195,30.604,5.585,18.8,7.327,33.585,8.033,43.412.458,4.921.424,8.639.512,11.116.061,2.479.092,3.723.092,3.723" fill="none" stroke="#231f20" stroke-miterlimit="10" stroke-width=".25"/>
      </g>
    </g>
    <g>
      <g>
        <path d="m707.728,427.32c-.191,22.677-3.127,43.965-8.566,63.136-.683,2.395-1.32,4.781-2.024,7.124-.777,2.32-1.548,4.62-2.312,6.9-.381,1.14-.761,2.275-1.139,3.405-.43,1.111-.859,2.216-1.285,3.317-.858,2.199-1.708,4.379-2.55,6.538-.85,2.156-1.859,4.222-2.766,6.307-.952,2.065-1.796,4.157-2.811,6.144-1.009,1.99-2.008,3.96-2.997,5.911-.494.976-.986,1.947-1.475,2.913-.512.954-1.063,1.881-1.588,2.815-8.334,14.997-17.582,27.855-26.899,38.767-9.335,10.908-18.682,19.934-27.506,27.361-17.771,14.747-32.991,23.45-43.311,28.751-1.291.668-2.502,1.296-3.633,1.881-1.121.607-2.225,1.041-3.21,1.513-1.988.908-3.647,1.666-4.975,2.272-1.329.604-2.327,1.059-2.993,1.361-.68.271-1.02.406-1.02.406" fill="none" stroke="#231f20" stroke-miterlimit="10" stroke-width=".25"/>
        <path d="m710.21,427.32c-.191,22.91-3.16,44.421-8.655,63.795-.69,2.42-1.335,4.831-2.046,7.199-.785,2.345-1.564,4.67-2.336,6.973-.386,1.152-.769,2.299-1.152,3.44-.435,1.123-.867,2.24-1.298,3.352-.867,2.223-1.726,4.425-2.578,6.607-.859,2.178-1.878,4.267-2.795,6.374-.962,2.087-1.815,4.201-2.841,6.209-1.019,2.011-2.029,4.002-3.028,5.974-.5.986-.997,1.967-1.491,2.943-.518.964-1.073,1.901-1.604,2.845-8.421,15.155-17.768,28.148-27.182,39.176-9.433,11.023-18.88,20.144-27.797,27.65-17.959,14.904-33.343,23.7-43.773,29.059-1.305.676-2.529,1.309-3.673,1.901-1.133.613-2.248,1.053-3.245,1.529-2.009.918-3.686,1.684-5.028,2.297-1.343.611-2.352,1.07-3.026,1.376-.687.274-1.031.411-1.031.411" fill="none" stroke="#231f20" stroke-miterlimit="10" stroke-width=".25"/>
        <path d="m243.916,446.936c-1.07-11.295-.909-22.324-.473-32.96.438-5.308.667-10.551,1.43-15.652.34-2.554.598-5.099.997-7.601.441-2.495.879-4.969,1.312-7.422.224-1.225.415-2.451.663-3.66.275-1.203.549-2.402.822-3.594.545-2.386,1.084-4.751,1.619-7.095.619-2.323,1.288-4.61,1.919-6.885.654-2.268,1.217-4.542,2.004-6.724,1.5-4.385,2.818-8.744,4.535-12.866.811-2.078,1.613-4.137,2.408-6.175.855-2.013,1.769-3.978,2.635-5.938,7.027-15.65,15.167-29.24,23.55-40.887,8.388-11.657,17.013-21.373,25.151-29.54,16.466-16.19,30.845-26.224,40.716-32.335.611-.395,1.202-.777,1.775-1.147.59-.342,1.16-.673,1.711-.993,1.101-.64,2.125-1.234,3.07-1.783,1.89-1.098,3.466-2.015,4.729-2.749,2.591-1.347,3.892-2.024,3.892-2.024" fill="none" stroke="#231f20" stroke-miterlimit="10" stroke-width=".25"/>
        <path d="m241.443,447.138c-1.079-11.413-.919-22.554-.477-33.3.441-5.363.675-10.66,1.445-15.815.344-2.581.605-5.152,1.008-7.68.446-2.521.888-5.021,1.326-7.5.227-1.238.419-2.477.671-3.698.278-1.216.555-2.427.83-3.633.551-2.411,1.096-4.801,1.637-7.17.625-2.347,1.3-4.659,1.938-6.958.661-2.292,1.231-4.589,2.025-6.795,1.515-4.432,2.848-8.836,4.583-13.002.819-2.1,1.631-4.18,2.434-6.24.864-2.034,1.787-4.02,2.663-6.001,7.101-15.815,15.328-29.549,23.798-41.318,8.476-11.78,17.192-21.599,25.417-29.851,16.639-16.362,31.172-26.501,41.149-32.678.617-.399,1.215-.785,1.794-1.159.596-.346,1.172-.681,1.729-1.004,1.113-.647,2.147-1.247,3.102-1.802,1.91-1.11,3.504-2.036,4.78-2.778,2.619-1.362,3.934-2.046,3.934-2.046" fill="none" stroke="#231f20" stroke-miterlimit="10" stroke-width=".25"/>
        <path d="m440.446,195.152c5.623-.685,11.14-1.561,16.632-1.853,1.37-.105,2.734-.21,4.093-.315l2.034-.157c.677-.04,1.356-.041,2.032-.063,2.704-.069,5.387-.138,8.048-.206l1.992-.052,1.984.046c1.32.034,2.635.068,3.944.101,1.309.033,2.613.066,3.912.099,1.299.023,2.592.058,3.875.183,5.134.425,10.199.669,15.126,1.419,2.467.333,4.923.595,7.338.977,2.407.435,4.793.865,7.158,1.293,1.182.213,2.36.425,3.532.636,1.16.27,2.314.538,3.463.806,2.298.536,4.575,1.067,6.831,1.592,2.253.538,4.439,1.245,6.63,1.849,2.177.652,4.367,1.192,6.476,1.917,2.11.722,4.199,1.436,6.268,2.144,1.035.353,2.064.705,3.088,1.055,1.019.365,2.009.79,3.008,1.179,15.999,6.172,29.989,13.591,42.053,21.352,12.058,7.784,22.263,15.83,30.788,23.599,16.997,15.634,27.659,29.56,34.328,39.058,3.435,4.7,5.63,8.495,7.231,10.938.783,1.233,1.371,2.159,1.763,2.777.362.636.544.955.544.955" fill="none" stroke="#231f20" stroke-miterlimit="10" stroke-width=".25"/>
        <path d="m440.072,192.699c5.683-.694,11.26-1.577,16.811-1.874,1.384-.106,2.763-.213,4.137-.318l2.056-.158c.685-.041,1.37-.041,2.053-.064,2.733-.07,5.444-.139,8.134-.208l2.013-.052,2.005.046c1.334.034,2.663.068,3.986.102,1.323.034,2.641.067,3.953.101,1.313.024,2.62.06,3.916.185,5.189.428,10.308.677,15.288,1.434,2.493.336,4.976.602,7.417.988,2.433.439,4.845.875,7.236,1.306,1.195.215,2.385.43,3.57.644,1.172.272,2.339.544,3.501.814,2.323.542,4.625,1.078,6.905,1.61,2.277.544,4.488,1.258,6.702,1.869,2.201.658,4.414,1.206,6.546,1.938,2.133.729,4.245,1.451,6.336,2.167,1.046.357,2.086.713,3.122,1.067,1.03.369,2.031.798,3.04,1.191,16.173,6.239,30.313,13.738,42.506,21.582,12.187,7.867,22.499,15.999,31.115,23.85,2.172,1.943,4.153,3.96,6.139,5.84.984.949,1.953,1.883,2.905,2.801.908.962,1.8,1.908,2.677,2.838,1.754,1.859,3.446,3.652,5.076,5.38,1.546,1.804,3.033,3.539,4.462,5.206,2.924,3.279,5.321,6.522,7.585,9.406,2.308,2.852,4.145,5.602,5.847,7.999,3.47,4.75,5.69,8.584,7.307,11.053.791,1.246,1.385,2.182,1.781,2.807.366.643.55.965.55.965" fill="none" stroke="#231f20" stroke-miterlimit="10" stroke-width=".25"/>
      </g>
      <g>
        <path d="m365.351,641.503c-1.293-.67-2.581-1.338-3.864-2.003-1.25-.726-2.495-1.449-3.735-2.17-1.24-.721-2.476-1.438-3.706-2.154-1.225-.725-2.475-1.398-3.644-2.192-2.371-1.536-4.723-3.06-7.057-4.571-1.181-.735-2.309-1.539-3.423-2.352-1.12-.805-2.236-1.606-3.347-2.405-4.516-3.099-8.623-6.594-12.797-9.852-2.019-1.713-3.976-3.464-5.941-5.173-.98-.858-1.955-1.712-2.926-2.562-.932-.893-1.859-1.783-2.783-2.669-1.843-1.776-3.671-3.536-5.482-5.282-1.729-1.827-3.443-3.637-5.141-5.432-.848-.899-1.692-1.793-2.532-2.684-.838-.893-1.602-1.844-2.401-2.757-1.579-1.842-3.144-3.668-4.694-5.476-1.554-1.805-2.937-3.722-4.392-5.55-1.414-1.861-2.903-3.638-4.216-5.518-1.32-1.875-2.626-3.732-3.92-5.57-.647-.919-1.29-1.834-1.931-2.744-.599-.938-1.194-1.871-1.787-2.8-9.59-14.796-16.795-29.392-22.198-43.113-.67-1.718-1.332-3.415-1.986-5.092-.678-1.667-1.166-3.38-1.747-5.035-.557-1.663-1.107-3.305-1.649-4.926-.27-.811-.538-1.616-.805-2.416-.228-.812-.455-1.618-.68-2.418-.892-3.205-1.795-6.314-2.607-9.352-.701-3.067-1.381-6.045-2.041-8.934-.165-.722-.328-1.439-.491-2.151-.147-.714-.259-1.43-.388-2.136-.25-1.414-.496-2.806-.738-4.176-.242-1.37-.48-2.717-.714-4.041-.112-.663-.245-1.317-.336-1.972-.083-.656-.164-1.306-.246-1.951-.623-5.16-1.353-9.941-1.583-14.403-.167-2.226-.328-4.36-.482-6.403-.095-1.02-.126-2.021-.142-2.999-.025-.978-.049-1.933-.072-2.864-.047-1.864-.091-3.635-.133-5.314-.021-.839-.041-1.656-.061-2.449.018-.793.035-1.563.051-2.31.173-5.975.18-10.475.499-13.464.225-2.994.338-4.497.338-4.497" fill="none" stroke="#231f20" stroke-miterlimit="10" stroke-width=".25"/>
        <path d="m364.196,643.699c-1.306-.677-2.608-1.352-3.905-2.025-1.263-.733-2.521-1.464-3.775-2.192-1.253-.728-2.501-1.453-3.745-2.176-1.238-.732-2.5-1.413-3.682-2.215-2.395-1.552-4.772-3.091-7.13-4.619-1.193-.743-2.332-1.555-3.458-2.377-1.132-.813-2.259-1.623-3.382-2.429-4.562-3.133-8.712-6.661-12.929-9.954-2.04-1.73-4.018-3.499-6.003-5.225-.99-.867-1.975-1.729-2.956-2.589-.941-.902-1.879-1.801-2.812-2.696-1.862-1.794-3.708-3.573-5.538-5.336-1.747-1.845-3.478-3.674-5.194-5.487-.856-.908-1.709-1.812-2.557-2.712-.846-.902-1.618-1.863-2.425-2.785-1.595-1.861-3.176-3.705-4.742-5.532-1.57-1.824-2.968-3.759-4.438-5.607-1.429-1.879-2.932-3.676-4.259-5.574-1.333-1.894-2.654-3.77-3.961-5.627-.653-.929-1.303-1.853-1.95-2.773-.605-.948-1.207-1.891-1.806-2.829-9.688-14.948-16.968-29.694-22.427-43.556-.677-1.736-1.346-3.451-2.006-5.144-.685-1.685-1.178-3.415-1.765-5.086-.563-1.68-1.118-3.339-1.666-4.976-.273-.819-.543-1.633-.813-2.441-.231-.82-.46-1.634-.688-2.443-.902-3.238-1.813-6.379-2.634-9.448-.708-3.098-1.395-6.107-2.062-9.026-.166-.73-.332-1.454-.495-2.173-.149-.722-.262-1.445-.393-2.158-.253-1.429-.501-2.835-.746-4.219-.244-1.384-.485-2.745-.721-4.083-.113-.67-.247-1.331-.339-1.992-.084-.663-.166-1.32-.249-1.971-.631-5.212-1.365-10.042-1.6-14.55-.169-2.249-.331-4.405-.486-6.468-.096-1.031-.127-2.041-.144-3.029-.025-.988-.049-1.952-.073-2.893-.047-1.882-.092-3.671-.134-5.367-.021-.848-.041-1.672-.061-2.474.018-.801.035-1.579.051-2.334.174-6.035.183-10.58.504-13.599.227-3.024.342-4.542.342-4.542" fill="none" stroke="#231f20" stroke-miterlimit="10" stroke-width=".25"/>
        <path d="m260.987,320.906c1.317-2.598,2.624-5.176,3.92-7.734,1.335-2.538,2.803-4.98,4.181-7.444.701-1.226,1.398-2.447,2.094-3.664.751-1.183,1.498-2.362,2.243-3.536,1.507-2.336,2.928-4.703,4.474-6.96,3.162-4.466,6.171-8.936,9.511-13.051.813-1.045,1.622-2.086,2.428-3.122l1.207-1.551,1.272-1.487c1.695-1.977,3.375-3.937,5.041-5.88l1.249-1.453,1.309-1.387c.871-.923,1.737-1.842,2.6-2.756.863-.915,1.722-1.825,2.578-2.732l1.281-1.357,1.332-1.294c3.577-3.409,6.984-6.872,10.638-9.934,1.796-1.565,3.575-3.115,5.337-4.651,1.831-1.454,3.644-2.894,5.439-4.32,3.532-2.93,7.274-5.435,10.832-8.036,14.442-10.123,28.827-17.769,42.39-23.573,13.583-5.791,26.365-9.687,37.885-12.457,23.099-5.486,41.117-6.455,53.048-6.487.747-.018,1.471-.035,2.172-.052.701.018,1.379.035,2.033.052,1.309.033,2.525.064,3.648.093,2.246.057,4.121.106,5.622.144,1.502.021,2.623.175,3.374.211.75.057,1.126.086,1.126.086" fill="none" stroke="#231f20" stroke-miterlimit="10" stroke-width=".25"/>
        <path d="m258.756,319.819c1.33-2.624,2.651-5.229,3.961-7.814,1.349-2.564,2.831-5.031,4.224-7.521.708-1.239,1.413-2.472,2.116-3.701.758-1.195,1.513-2.386,2.265-3.572,1.522-2.36,2.958-4.751,4.52-7.031,3.193-4.513,6.235-9.027,9.608-13.185.821-1.056,1.639-2.107,2.454-3.154l1.219-1.567,1.285-1.503c1.712-1.997,3.41-3.977,5.092-5.94l1.262-1.467,1.322-1.402c.879-.932,1.755-1.861,2.627-2.785.872-.924,1.74-1.844,2.605-2.76l1.294-1.37,1.346-1.307c3.613-3.445,7.056-6.942,10.747-10.037,1.814-1.581,3.612-3.147,5.392-4.698,1.849-1.469,3.681-2.924,5.495-4.365,3.569-2.959,7.349-5.492,10.944-8.118,14.592-10.228,29.127-17.954,42.833-23.819,13.726-5.852,26.642-9.79,38.284-12.589,23.343-5.543,41.55-6.521,53.603-6.555.755-.018,1.486-.035,2.195-.052.708.018,1.393.035,2.054.052,1.323.034,2.551.065,3.686.094,2.27.058,4.163.107,5.68.146,1.517.021,2.65.176,3.409.213.758.058,1.138.087,1.138.087" fill="none" stroke="#231f20" stroke-miterlimit="10" stroke-width=".25"/>
        <path d="m567.199,204.488c1.366.508,2.663,1.166,3.984,1.751,1.315.601,2.625,1.199,3.929,1.795,1.304.597,2.603,1.192,3.898,1.785,1.264.654,2.524,1.306,3.778,1.955,2.497,1.32,5.024,2.539,7.441,3.913,2.404,1.397,4.79,2.783,7.156,4.157,9.325,5.72,18.121,11.671,26.046,18.159,16.067,12.717,29.21,26.713,40.017,40.62,10.809,13.929,19.217,27.87,25.739,41.097,6.529,13.236,11.174,25.753,14.671,37.076,6.72,22.765,8.814,40.66,9.662,52.558.554,5.956.508,10.459.616,13.458.075,3.001.112,4.508.112,4.508" fill="none" stroke="#231f20" stroke-miterlimit="10" stroke-width=".25"/>
        <path d="m568.162,202.201c1.38.514,2.691,1.178,4.026,1.769,1.329.607,2.652,1.211,3.971,1.814,1.318.604,2.631,1.205,3.938,1.804,1.278.661,2.55,1.319,3.818,1.974,2.523,1.333,5.077,2.566,7.519,3.955,2.43,1.411,4.84,2.812,7.231,4.201,9.423,5.779,18.309,11.793,26.316,18.347,16.232,12.849,29.511,26.988,40.428,41.037,10.92,14.072,19.414,28.156,26.003,41.519,6.597,13.372,11.289,26.018,14.821,37.457,6.79,22.999,8.905,41.078,9.762,53.095.559,6.017.513,10.564.622,13.594.075,3.031.113,4.553.113,4.553" fill="none" stroke="#231f20" stroke-miterlimit="10" stroke-width=".25"/>
      </g>
    </g>
    <g>
      <g>
        <path d="m751.588,428.24c-.228,26.968-3.699,52.288-10.141,75.096-.808,2.849-1.572,5.686-2.394,8.477-.922,2.761-1.836,5.497-2.742,8.209-.452,1.356-.903,2.706-1.351,4.05-.479,1.333-1.016,2.638-1.518,3.949-1.018,2.617-2.026,5.21-3.025,7.779-.472,1.296-1.061,2.536-1.613,3.785-.556,1.247-1.11,2.488-1.661,3.723-1.126,2.459-2.138,4.943-3.327,7.315-1.197,2.368-2.382,4.713-3.556,7.035-.586,1.161-1.17,2.317-1.75,3.466-.592,1.143-1.256,2.241-1.876,3.355-9.877,17.854-20.843,33.17-31.893,46.174-11.074,12.995-22.155,23.768-32.639,32.611-2.606,2.228-5.262,4.232-7.762,6.258-1.26,1.001-2.499,1.985-3.718,2.954-1.263.91-2.504,1.804-3.724,2.683-2.44,1.757-4.795,3.452-7.063,5.086-2.344,1.523-4.599,2.987-6.765,4.394-4.277,2.904-8.439,5.182-12.154,7.374-3.685,2.248-7.185,3.947-10.246,5.557-3.07,1.593-5.74,3.027-8.13,4.054-2.363,1.083-4.335,1.986-5.913,2.709-1.578.724-2.764,1.267-3.555,1.63-.808.323-1.213.484-1.213.484" fill="none" stroke="#231f20" stroke-miterlimit="10" stroke-width=".25"/>
        <path d="m754.07,428.24c-.228,27.199-3.732,52.742-10.23,75.752-.815,2.875-1.586,5.736-2.416,8.552-.93,2.785-1.852,5.546-2.765,8.282-.457,1.368-.911,2.73-1.363,4.086-.484,1.345-1.025,2.661-1.531,3.984-1.027,2.64-2.044,5.256-3.052,7.848-.477,1.307-1.071,2.558-1.627,3.818-.561,1.258-1.12,2.51-1.676,3.756-1.136,2.481-2.157,4.987-3.357,7.38-1.207,2.389-2.403,4.755-3.587,7.098-.592,1.171-1.181,2.337-1.766,3.497-.598,1.153-1.267,2.261-1.892,3.385-9.965,18.013-21.027,33.463-32.175,46.582-11.172,13.11-22.352,23.979-32.93,32.901-2.629,2.248-5.309,4.27-7.831,6.314-1.271,1.01-2.522,2.003-3.752,2.979-1.274.918-2.526,1.821-3.757,2.707-2.462,1.773-4.838,3.483-7.127,5.131-2.365,1.536-4.64,3.015-6.826,4.435-4.316,2.929-8.515,5.229-12.264,7.441-3.719,2.267-7.25,3.983-10.339,5.607-3.098,1.607-5.792,3.054-8.204,4.09-2.384,1.093-4.374,2.004-5.967,2.734-1.593.73-2.789,1.279-3.588,1.645-.815.326-1.224.489-1.224.489" fill="none" stroke="#231f20" stroke-miterlimit="10" stroke-width=".25"/>
        <path d="m200.851,451.568c-1.266-13.433-1.076-26.549-.56-39.199.521-6.312.789-12.548,1.693-18.616.402-3.038.713-6.064,1.179-9.04.523-2.968,1.042-5.91,1.556-8.828.264-1.457.496-2.914.783-4.354.326-1.432.651-2.857.975-4.276.646-2.838,1.286-5.651,1.921-8.439.723-2.766,1.524-5.485,2.27-8.192.781-2.697,1.437-5.405,2.371-8,1.785-5.215,3.334-10.406,5.373-15.31.962-2.473,1.914-4.922,2.857-7.346,1.001-2.401,2.094-4.735,3.119-7.069,8.326-18.627,17.974-34.808,27.912-48.681,9.944-13.885,20.173-25.465,29.827-35.202,19.543-19.294,36.617-31.263,48.339-38.558.725-.471,1.427-.928,2.107-1.37.7-.41,1.376-.806,2.03-1.189,1.309-.763,2.525-1.471,3.648-2.125,2.246-1.309,4.119-2.402,5.62-3.277,1.522-.835,2.694-1.41,3.462-1.819.772-.401,1.159-.602,1.159-.602" fill="none" stroke="#231f20" stroke-miterlimit="10" stroke-width=".25"/>
        <path d="m198.377,451.77c-1.276-13.551-1.086-26.778-.565-39.537.524-6.367.797-12.657,1.708-18.778.405-3.065.719-6.117,1.19-9.119.528-2.994,1.051-5.962,1.569-8.905.266-1.47.501-2.94.79-4.392.329-1.444.657-2.882.983-4.314.652-2.863,1.298-5.701,1.938-8.514.73-2.79,1.537-5.534,2.29-8.264.788-2.721,1.451-5.452,2.392-8.071,1.8-5.262,3.365-10.497,5.42-15.445.97-2.495,1.931-4.965,2.883-7.411,1.009-2.422,2.112-4.777,3.146-7.132,8.4-18.792,18.134-35.116,28.16-49.112,10.032-14.008,20.351-25.691,30.092-35.514,19.716-19.467,36.944-31.541,48.772-38.902.732-.475,1.44-.936,2.127-1.382.706-.414,1.389-.814,2.048-1.2,1.321-.77,2.547-1.484,3.681-2.145,2.266-1.321,4.157-2.423,5.671-3.306,1.536-.843,2.718-1.423,3.493-1.836.779-.404,1.17-.607,1.17-.607" fill="none" stroke="#231f20" stroke-miterlimit="10" stroke-width=".25"/>
        <path d="m434.153,151.709c6.687-.815,13.247-1.865,19.779-2.213,1.629-.126,3.251-.251,4.867-.376l2.419-.187c.806-.05,1.612-.049,2.416-.076,3.216-.082,6.406-.164,9.571-.245l2.369-.062,2.359.055c1.57.04,3.133.081,4.69.121,1.557.04,3.107.079,4.652.119l2.311.058c.769.027,1.532.109,2.296.161,6.105.504,12.129.801,17.987,1.695,2.933.399,5.854.707,8.726,1.169,2.863.518,5.7,1.032,8.512,1.542,1.406.254,2.806.507,4.199.759,1.379.323,2.751.644,4.117.964,2.733.639,5.44,1.272,8.123,1.899,2.676.652,5.278,1.488,7.882,2.211,1.299.374,2.592.746,3.878,1.116,1.286.371,2.573.718,3.819,1.176,2.508.86,4.992,1.713,7.452,2.556,1.23.422,2.454.841,3.672,1.258,1.206.449,2.387.946,3.573,1.412,19.016,7.37,35.638,16.225,49.965,25.486,14.323,9.285,26.426,18.894,36.555,28.143,2.538,2.305,4.876,4.673,7.207,6.892,1.153,1.122,2.306,2.208,3.406,3.309,1.066,1.134,2.114,2.249,3.144,3.345,2.058,2.193,4.043,4.309,5.956,6.348,1.816,2.126,3.563,4.171,5.241,6.135,3.438,3.862,6.236,7.698,8.902,11.09,2.714,3.359,4.853,6.611,6.859,9.429.994,1.416,1.926,2.744,2.796,3.984.894,1.224,1.585,2.455,2.299,3.542,1.39,2.198,2.55,4.031,3.478,5.5.926,1.47,1.621,2.574,2.085,3.31.429.757.644,1.137.644,1.137" fill="none" stroke="#231f20" stroke-miterlimit="10" stroke-width=".25"/>
        <path d="m433.778,149.256c6.748-.825,13.368-1.881,19.958-2.234,1.644-.127,3.281-.253,4.911-.379l2.441-.188c.813-.051,1.627-.05,2.438-.077,3.245-.083,6.464-.166,9.657-.247l2.39-.062,2.38.055c1.584.041,3.161.081,4.732.122,1.571.04,3.135.08,4.693.12l2.332.059c.775.027,1.546.11,2.317.162,6.16.507,12.238.809,18.15,1.71,2.96.402,5.908.714,8.805,1.18,2.889.523,5.752,1.042,8.59,1.555,1.419.257,2.831.512,4.238.767,1.391.326,2.776.65,4.155.973,2.758.645,5.49,1.284,8.197,1.917,2.701.658,5.326,1.501,7.954,2.23,1.311.377,2.616.753,3.914,1.126,1.298.374,2.597.725,3.854,1.187,2.531.868,5.038,1.728,7.52,2.58,1.241.425,2.476.849,3.705,1.27,1.217.453,2.409.954,3.606,1.425,19.19,7.437,35.962,16.373,50.418,25.717,14.452,9.369,26.663,19.064,36.881,28.395,2.561,2.326,4.92,4.714,7.271,6.953,1.163,1.132,2.326,2.228,3.436,3.339,1.076,1.144,2.133,2.269,3.173,3.374,2.076,2.213,4.079,4.348,6.009,6.404,1.832,2.144,3.595,4.207,5.288,6.189,3.467,3.897,6.291,7.765,8.981,11.188,2.737,3.389,4.896,6.67,6.92,9.513,1.002,1.429,1.943,2.769,2.821,4.02.902,1.235,1.599,2.477,2.319,3.573,1.402,2.217,2.572,4.067,3.509,5.548.934,1.483,1.635,2.597,2.104,3.34.433.764.65,1.147.65,1.147" fill="none" stroke="#231f20" stroke-miterlimit="10" stroke-width=".25"/>
      </g>
      <g>
        <path d="m345.449,682.167c-1.529-.798-3.052-1.593-4.569-2.385-1.479-.862-2.952-1.72-4.42-2.575-1.467-.855-2.929-1.707-4.386-2.556-1.454-.853-2.922-1.669-4.307-2.61-2.805-1.823-5.588-3.631-8.349-5.425-1.398-.871-2.721-1.842-4.044-2.799-1.325-.955-2.645-1.906-3.959-2.853-1.314-.948-2.623-1.891-3.927-2.831-1.312-.93-2.524-1.978-3.783-2.955-2.494-1.986-4.967-3.957-7.42-5.91-2.36-2.065-4.699-4.113-7.019-6.144-1.158-1.017-2.312-2.031-3.46-3.039-1.099-1.062-2.194-2.12-3.284-3.173-2.179-2.106-4.34-4.194-6.482-6.264-2.041-2.169-4.065-4.318-6.07-6.449-1.002-1.066-2-2.127-2.993-3.183-.975-1.072-1.889-2.191-2.83-3.276-1.867-2.184-3.716-4.349-5.548-6.493-1.821-2.153-3.467-4.416-5.183-6.587-.848-1.094-1.692-2.182-2.532-3.266-.844-1.08-1.684-2.155-2.443-3.281-1.559-2.223-3.104-4.423-4.633-6.603-.764-1.09-1.525-2.174-2.282-3.253-.705-1.114-1.406-2.222-2.103-3.324-11.32-17.544-19.82-34.842-26.192-51.1-.792-2.035-1.574-4.046-2.346-6.032-.788-1.98-1.373-4.005-2.056-5.966-.658-1.97-1.307-3.915-1.947-5.834-.316-.961-.648-1.91-.944-2.863-.269-.961-.537-1.916-.803-2.865-1.051-3.797-2.124-7.477-3.074-11.078-.827-3.632-1.63-7.159-2.41-10.581-.195-.855-.388-1.704-.58-2.547-.153-.85-.304-1.694-.454-2.531-.295-1.675-.586-3.323-.872-4.945-.286-1.622-.567-3.217-.843-4.786-.13-.786-.292-1.559-.393-2.336-.097-.777-.194-1.547-.29-2.31-.737-6.11-1.595-11.772-1.867-17.056-.198-2.636-.387-5.163-.568-7.582-.113-1.208-.147-2.393-.167-3.552-.029-1.158-.057-2.289-.085-3.392-.055-2.207-.107-4.304-.157-6.292-.025-.994-.049-1.961-.072-2.9.021-.939.041-1.851.061-2.736.206-7.075.211-12.404.588-15.944.266-3.545.399-5.325.399-5.325" fill="none" stroke="#231f20" stroke-miterlimit="10" stroke-width=".25"/>
        <path d="m344.29,684.361c-1.542-.805-3.078-1.608-4.609-2.407-1.492-.869-2.978-1.735-4.459-2.597-1.48-.863-2.955-1.723-4.424-2.579-1.466-.86-2.948-1.684-4.344-2.633-2.829-1.839-5.637-3.663-8.422-5.473-1.41-.879-2.744-1.858-4.079-2.824-1.337-.963-2.668-1.923-3.994-2.878-1.326-.956-2.646-1.908-3.961-2.856-1.323-.938-2.547-1.995-3.817-2.981-2.515-2.004-5.01-3.991-7.484-5.962-2.38-2.083-4.741-4.149-7.081-6.197-1.168-1.026-2.332-2.048-3.49-3.066-1.109-1.071-2.213-2.138-3.313-3.2-2.198-2.125-4.377-4.231-6.537-6.319-2.059-2.188-4.1-4.356-6.123-6.504-1.011-1.075-2.017-2.145-3.019-3.211-.984-1.082-1.906-2.209-2.855-3.304-1.883-2.203-3.748-4.386-5.596-6.549-1.837-2.172-3.497-4.454-5.228-6.643-.855-1.103-1.706-2.201-2.553-3.294-.852-1.089-1.698-2.174-2.465-3.31-1.573-2.242-3.131-4.462-4.673-6.66-.771-1.099-1.538-2.193-2.301-3.281-.711-1.123-1.418-2.241-2.122-3.353-11.418-17.695-19.991-35.144-26.418-51.542-.798-2.053-1.587-4.081-2.366-6.084-.795-1.997-1.385-4.039-2.074-6.017-.663-1.987-1.318-3.949-1.964-5.885-.319-.969-.653-1.927-.952-2.888-.272-.969-.542-1.932-.81-2.889-1.061-3.829-2.143-7.542-3.1-11.174-.834-3.663-1.645-7.22-2.431-10.672-.196-.863-.391-1.719-.584-2.569-.154-.858-.307-1.708-.458-2.552-.298-1.689-.591-3.352-.879-4.988-.288-1.636-.571-3.245-.85-4.827-.131-.792-.294-1.573-.397-2.356-.098-.783-.196-1.56-.293-2.33-.745-6.162-1.607-11.873-1.883-17.202-.199-2.658-.39-5.207-.573-7.647-.114-1.219-.148-2.414-.168-3.582-.029-1.168-.058-2.308-.086-3.42-.055-2.225-.108-4.34-.158-6.345-.025-1.002-.049-1.977-.072-2.925.021-.947.041-1.867.061-2.759.206-7.135.214-12.508.593-16.078.268-3.575.403-5.37.403-5.37" fill="none" stroke="#231f20" stroke-miterlimit="10" stroke-width=".25"/>
        <path d="m222.142,302.193c1.555-3.078,3.099-6.133,4.631-9.164.731-1.534,1.636-2.968,2.447-4.445.832-1.466,1.66-2.926,2.485-4.38.825-1.454,1.647-2.903,2.466-4.346.886-1.403,1.769-2.8,2.649-4.191,1.777-2.771,3.467-5.569,5.278-8.255,3.744-5.289,7.282-10.599,11.231-15.477.961-1.239,1.917-2.473,2.87-3.701l1.426-1.839c.484-.604.999-1.18,1.496-1.77,2.003-2.344,3.989-4.668,5.958-6.972l1.474-1.724,1.542-1.65c1.029-1.094,2.054-2.184,3.074-3.269,1.02-1.085,2.036-2.165,3.048-3.24,1.007-1.079,2.01-2.154,3.082-3.151,4.236-4.036,8.249-8.159,12.572-11.791,2.121-1.859,4.223-3.701,6.304-5.525,2.165-1.725,4.309-3.433,6.433-5.125,4.178-3.475,8.593-6.464,12.806-9.542,17.081-12.013,34.083-21.127,50.14-28.011,16.072-6.885,31.201-11.52,44.838-14.817,27.347-6.52,48.684-7.68,62.812-7.716.885-.021,1.742-.042,2.572-.062.83.021,1.632.042,2.408.061,1.55.04,2.99.076,4.32.11,2.66.068,4.88.125,6.657.171,1.778.027,3.106.208,3.995.252.888.068,1.333.103,1.333.103" fill="none" stroke="#231f20" stroke-miterlimit="10" stroke-width=".25"/>
        <path d="m219.909,301.111c1.569-3.105,3.126-6.186,4.671-9.243.738-1.547,1.65-2.994,2.468-4.484.839-1.479,1.674-2.951,2.506-4.419.833-1.467,1.662-2.928,2.488-4.383.894-1.415,1.784-2.824,2.671-4.228,1.792-2.795,3.497-5.617,5.324-8.326,3.775-5.335,7.346-10.691,11.328-15.611.969-1.25,1.934-2.494,2.895-3.733l1.439-1.855c.488-.609,1.008-1.191,1.509-1.785,2.02-2.364,4.024-4.708,6.01-7.032l1.487-1.739,1.555-1.665c1.038-1.104,2.072-2.203,3.101-3.297,1.029-1.094,2.054-2.183,3.074-3.268,1.016-1.089,2.028-2.172,3.108-3.178,4.271-4.073,8.321-8.229,12.681-11.893,2.14-1.875,4.26-3.733,6.36-5.573,2.184-1.74,4.347-3.463,6.489-5.17,4.216-3.504,8.668-6.521,12.918-9.626,17.231-12.118,34.384-21.313,50.583-28.258,16.215-6.947,31.479-11.624,45.239-14.95,27.592-6.578,49.118-7.746,63.369-7.784.893-.021,1.757-.042,2.595-.062.837.021,1.647.042,2.429.061,1.564.04,3.016.077,4.358.111,2.683.069,4.923.127,6.715.173,1.794.027,3.133.21,4.03.254.896.069,1.345.103,1.345.103" fill="none" stroke="#231f20" stroke-miterlimit="10" stroke-width=".25"/>
        <path d="m584.399,164.03c1.618.602,3.145,1.398,4.712,2.086,1.556.713,3.106,1.423,4.65,2.131,1.542.711,3.079,1.42,4.609,2.126,1.496.776,2.986,1.55,4.471,2.32,1.484.771,2.963,1.538,4.436,2.303,1.466.777,2.96,1.489,4.365,2.35,2.845,1.658,5.667,3.303,8.467,4.935,11.021,6.807,21.431,13.862,30.794,21.571,18.996,15.097,34.507,31.72,47.275,48.209,12.764,16.522,22.686,33.05,30.379,48.727,7.702,15.688,13.177,30.519,17.299,43.931,7.927,26.964,10.394,48.156,11.393,62.245.655,7.053.597,12.385.726,15.937.088,3.554.133,5.338.133,5.338" fill="none" stroke="#231f20" stroke-miterlimit="10" stroke-width=".25"/>
        <path d="m585.366,161.744c1.632.608,3.174,1.41,4.754,2.104,1.57.719,3.134,1.436,4.692,2.15,1.556.718,3.106,1.433,4.65,2.146,1.509.783,3.013,1.563,4.511,2.34,1.498.777,2.989,1.552,4.475,2.323,1.479.784,2.986,1.503,4.404,2.371,2.87,1.673,5.717,3.332,8.542,4.978,11.119,6.866,21.619,13.984,31.064,21.76,19.161,15.229,34.807,31.996,47.685,48.627,12.874,16.665,22.882,33.336,30.641,49.149,7.769,15.824,13.292,30.783,17.448,44.312,7.997,27.198,10.483,48.571,11.491,62.78.659,7.114.603,12.49.732,16.072.089,3.583.133,5.383.133,5.383" fill="none" stroke="#231f20" stroke-miterlimit="10" stroke-width=".25"/>
      </g>
    </g>
  </g>
  <g>
    <g>
      <path d="m468.89,414.091c3.577.243,7.153.485,10.73.728" fill="none" stroke="#231f20" stroke-miterlimit="10"/>
      <line x1="473.565" y1="429.748" x2="478.676" y2="429.876" fill="none" stroke="#231f20" stroke-miterlimit="10"/>
      <path d="m473.907,418.316c1.787.051,3.573.101,5.36.152" fill="none" stroke="#231f20" stroke-miterlimit="10"/>
      <path d="m473.756,422.285c1.743.044,3.486.087,5.229.131" fill="none" stroke="#231f20" stroke-miterlimit="10"/>
      <line x1="473.676" y1="426.135" x2="478.789" y2="426.174" fill="none" stroke="#231f20" stroke-miterlimit="10"/>
    </g>
    <g>
      <line x1="467.645" y1="352.69" x2="481.968" y2="354.212" fill="none" stroke="#231f20" stroke-miterlimit="10"/>
      <path d="m474.441,333.518c3.536.592,7.071,1.184,10.607,1.776" fill="none" stroke="#231f20" stroke-miterlimit="10"/>
      <line x1="477.559" y1="349.557" x2="482.633" y2="350.186" fill="none" stroke="#231f20" stroke-miterlimit="10"/>
      <path d="m479.02,338.214c1.773.226,3.546.451,5.319.677" fill="none" stroke="#231f20" stroke-miterlimit="10"/>
      <path d="m478.48,342.149c1.73.214,3.461.428,5.191.643" fill="none" stroke="#231f20" stroke-miterlimit="10"/>
      <line x1="478.023" y1="345.972" x2="483.108" y2="346.512" fill="none" stroke="#231f20" stroke-miterlimit="10"/>
    </g>
    <g>
      <line x1="479.22" y1="272.29" x2="493.325" y2="275.208" fill="none" stroke="#231f20" stroke-miterlimit="10"/>
      <path d="m487.863,253.876c3.461.936,6.921,1.871,10.382,2.807" fill="none" stroke="#231f20" stroke-miterlimit="10"/>
      <line x1="489.393" y1="270.143" x2="494.382" y2="271.267" fill="none" stroke="#231f20" stroke-miterlimit="10"/>
      <path d="m491.96,258.998c1.742.398,3.485.796,5.227,1.195" fill="none" stroke="#231f20" stroke-miterlimit="10"/>
      <path d="m491.037,262.862c1.701.383,3.402.766,5.103,1.148" fill="none" stroke="#231f20" stroke-miterlimit="10"/>
      <line x1="490.207" y1="266.621" x2="495.214" y2="267.657" fill="none" stroke="#231f20" stroke-miterlimit="10"/>
    </g>
    <g>
      <line x1="498.62" y1="193.412" x2="512.371" y2="197.699" fill="none" stroke="#231f20" stroke-miterlimit="10"/>
      <path d="m509.026,175.934c3.352,1.27,6.704,2.541,10.057,3.811" fill="none" stroke="#231f20" stroke-miterlimit="10"/>
      <line x1="508.955" y1="192.273" x2="513.809" y2="193.88" fill="none" stroke="#231f20" stroke-miterlimit="10"/>
      <path d="m512.601,181.433c1.695.567,3.39,1.134,5.085,1.701" fill="none" stroke="#231f20" stroke-miterlimit="10"/>
      <path d="m511.304,185.188c1.655.548,3.311,1.095,4.966,1.643" fill="none" stroke="#231f20" stroke-miterlimit="10"/>
      <line x1="510.11" y1="188.848" x2="514.991" y2="190.37" fill="none" stroke="#231f20" stroke-miterlimit="10"/>
    </g>
    <g>
      <line x1="525.659" y1="116.815" x2="538.923" y2="122.429" fill="none" stroke="#231f20" stroke-miterlimit="10"/>
      <path d="m537.728,100.441c3.212,1.593,6.423,3.186,9.635,4.778" fill="none" stroke="#231f20" stroke-miterlimit="10"/>
      <line x1="536.055" y1="116.695" x2="540.728" y2="118.77" fill="none" stroke="#231f20" stroke-miterlimit="10"/>
      <path d="m540.746,106.264c1.631.731,3.262,1.461,4.894,2.192" fill="none" stroke="#231f20" stroke-miterlimit="10"/>
      <path d="m539.087,109.873c1.594.707,3.187,1.415,4.781,2.122" fill="none" stroke="#231f20" stroke-miterlimit="10"/>
      <line x1="537.54" y1="113.399" x2="542.249" y2="115.392" fill="none" stroke="#231f20" stroke-miterlimit="10"/>
    </g>
    <g>
      <line x1="560.075" y1="43.238" x2="572.725" y2="50.125" fill="none" stroke="#231f20" stroke-miterlimit="10"/>
      <path d="m573.69,28.125c3.04,1.9,6.08,3.8,9.12,5.7" fill="none" stroke="#231f20" stroke-miterlimit="10"/>
      <line x1="570.433" y1="44.136" x2="574.88" y2="46.659" fill="none" stroke="#231f20" stroke-miterlimit="10"/>
      <path d="m576.124,34.216c1.552.887,3.104,1.774,4.655,2.661" fill="none" stroke="#231f20" stroke-miterlimit="10"/>
      <path d="m574.119,37.645c1.517.86,3.033,1.72,4.55,2.58" fill="none" stroke="#231f20" stroke-miterlimit="10"/>
      <line x1="572.234" y1="41.002" x2="576.725" y2="43.447" fill="none" stroke="#231f20" stroke-miterlimit="10"/>
    </g>
  </g>
  <g>
    <line x1="527.18" y1="250.851" x2="149.192" y2="164.318" fill="none" stroke="#231f20" stroke-miterlimit="10" stroke-width=".5"/>
    <line x1="339.141" y1="211.272" x2="340.694" y2="204.49" fill="none" stroke="#231f20" stroke-miterlimit="10" stroke-width=".5"/>
    <line x1="293.245" y1="199.677" x2="294.332" y2="194.927" fill="none" stroke="#231f20" stroke-miterlimit="10" stroke-width=".5"/>
    <line x1="243.119" y1="188.202" x2="244.207" y2="183.452" fill="none" stroke="#231f20" stroke-miterlimit="10" stroke-width=".5"/>
    <line x1="196.349" y1="177.495" x2="197.437" y2="172.745" fill="none" stroke="#231f20" stroke-miterlimit="10" stroke-width=".5"/>
    <line x1="385.378" y1="220.769" x2="386.466" y2="216.019" fill="none" stroke="#231f20" stroke-miterlimit="10" stroke-width=".5"/>
    <line x1="432.17" y1="231.481" x2="433.257" y2="226.731" fill="none" stroke="#231f20" stroke-miterlimit="10" stroke-width=".5"/>
    <line x1="478.331" y1="242.049" x2="479.418" y2="237.298" fill="none" stroke="#231f20" stroke-miterlimit="10" stroke-width=".5"/>
    <line x1="526.429" y1="254.129" x2="527.982" y2="247.347" fill="none" stroke="#231f20" stroke-miterlimit="10" stroke-width=".5"/>
    <line x1="149.333" y1="167.919" x2="150.885" y2="161.137" fill="none" stroke="#231f20" stroke-miterlimit="10" stroke-width=".5"/>
  </g>
  <line x1="645.614" y1="364.655" x2="630.492" y2="363.202" fill="none" stroke="#221f1f" stroke-miterlimit="10" stroke-width=".5"/>
  <g>
    <g>
      <g>
        <line x1="108.395" y1="312.265" x2="122.882" y2="313.611" fill="none" stroke="#221f1f" stroke-miterlimit="10" stroke-width=".5"/>
        <line x1="129.034" y1="314.182" x2="143.521" y2="315.527" fill="none" stroke="#221f1f" stroke-miterlimit="10" stroke-width=".5"/>
        <line x1="149.695" y1="316.217" x2="164.182" y2="317.562" fill="none" stroke="#221f1f" stroke-miterlimit="10" stroke-width=".5"/>
        <line x1="170.334" y1="318.134" x2="184.821" y2="319.479" fill="none" stroke="#221f1f" stroke-miterlimit="10" stroke-width=".5"/>
      </g>
      <g>
        <line x1="192.003" y1="320.552" x2="206.49" y2="321.897" fill="none" stroke="#221f1f" stroke-miterlimit="10" stroke-width=".5"/>
        <line x1="212.642" y1="322.469" x2="227.129" y2="323.814" fill="none" stroke="#221f1f" stroke-miterlimit="10" stroke-width=".5"/>
        <line x1="233.303" y1="324.504" x2="247.79" y2="325.849" fill="none" stroke="#221f1f" stroke-miterlimit="10" stroke-width=".5"/>
        <line x1="253.942" y1="326.42" x2="268.429" y2="327.766" fill="none" stroke="#221f1f" stroke-miterlimit="10" stroke-width=".5"/>
      </g>
    </g>
    <g>
      <g>
        <line x1="278.802" y1="329.188" x2="293.289" y2="330.534" fill="none" stroke="#221f1f" stroke-miterlimit="10" stroke-width=".5"/>
        <line x1="299.441" y1="331.105" x2="313.928" y2="332.451" fill="none" stroke="#221f1f" stroke-miterlimit="10" stroke-width=".5"/>
        <line x1="320.103" y1="333.14" x2="334.589" y2="334.485" fill="none" stroke="#221f1f" stroke-miterlimit="10" stroke-width=".5"/>
        <line x1="340.741" y1="335.057" x2="355.228" y2="336.402" fill="none" stroke="#221f1f" stroke-miterlimit="10" stroke-width=".5"/>
      </g>
      <g>
        <line x1="362.41" y1="337.475" x2="376.897" y2="338.821" fill="none" stroke="#221f1f" stroke-miterlimit="10" stroke-width=".5"/>
        <line x1="383.049" y1="339.392" x2="397.536" y2="340.737" fill="none" stroke="#221f1f" stroke-miterlimit="10" stroke-width=".5"/>
        <line x1="403.711" y1="341.427" x2="418.197" y2="342.772" fill="none" stroke="#221f1f" stroke-miterlimit="10" stroke-width=".5"/>
        <line x1="424.349" y1="343.344" x2="438.836" y2="344.689" fill="none" stroke="#221f1f" stroke-miterlimit="10" stroke-width=".5"/>
      </g>
    </g>
  </g>
  <g>
    <path d="m361.97,82.623c-2.641-.964-4.583-2.29-4.338-2.963s2.585-.436,5.226.528c2.641.964,4.583,2.29,4.338,2.963s-2.585.436-5.226-.528Z" fill="#231f20" stroke-width="0"/>
    <path d="m335.007,72.806c-2.641-.964-4.583-2.29-4.338-2.963.245-.672,2.585-.436,5.226.528,2.641.964,4.583,2.29,4.338,2.963-.245.672-2.585.436-5.226-.528Z" fill="#231f20" stroke-width="0"/>
    <path d="m306.819,62.559c-2.641-.964-4.583-2.29-4.338-2.963.245-.672,2.585-.436,5.226.528,2.641.964,4.583,2.29,4.338,2.963-.245.672-2.585.436-5.226-.528Z" fill="#231f20" stroke-width="0"/>
    <path d="m276.786,51.622c-2.641-.964-4.583-2.29-4.338-2.963.245-.672,2.585-.436,5.226.528,2.641.964,4.583,2.29,4.338,2.963-.245.672-2.585.436-5.226-.528Z" fill="#231f20" stroke-width="0"/>
    <path d="m471.415,122.436c-2.641-.964-4.583-2.29-4.338-2.963s2.585-.436,5.226.528c2.641.964,4.583,2.29,4.338,2.963s-2.585.436-5.226-.528Z" fill="#231f20" stroke-width="0"/>
    <path d="m444.452,112.619c-2.641-.964-4.583-2.29-4.338-2.963.245-.672,2.585-.436,5.226.528,2.641.964,4.583,2.29,4.338,2.963-.245.672-2.585.436-5.226-.528Z" fill="#231f20" stroke-width="0"/>
    <path d="m418.055,103.026c-2.641-.964-4.583-2.29-4.338-2.963.245-.672,2.585-.436,5.226.528,2.641.964,4.583,2.29,4.338,2.963s-2.585.436-5.226-.528Z" fill="#231f20" stroke-width="0"/>
    <path d="m389.302,92.555c-2.641-.964-4.583-2.291-4.338-2.963.245-.672,2.585-.436,5.226.528,2.641.964,4.583,2.29,4.338,2.963s-2.585.436-5.226-.528Z" fill="#231f20" stroke-width="0"/>
  </g>
  <g>
    <path d="m146.543,3.823c-1.118-.411-1.824-1.288-1.578-1.96.247-.672,1.353-.883,2.471-.473,1.118.411,1.824,1.288,1.578,1.96-.247.672-1.353.883-2.471.473Z" fill="#231f20" stroke-width="0"/>
    <path d="m192.9,20.715c-1.118-.411-1.824-1.288-1.578-1.96.247-.672,1.353-.883,2.471-.473,1.118.411,1.824,1.288,1.578,1.96-.247.672-1.353.883-2.471.473Z" fill="#231f20" stroke-width="0"/>
    <path d="m181.481,16.546c-1.118-.411-1.824-1.288-1.578-1.96.247-.672,1.353-.883,2.471-.473,1.118.411,1.824,1.288,1.578,1.96-.247.672-1.353.883-2.471.473Z" fill="#231f20" stroke-width="0"/>
    <path d="m170.299,12.48c-1.118-.411-1.824-1.288-1.578-1.96.247-.672,1.353-.883,2.471-.473,1.118.411,1.824,1.288,1.578,1.96-.247.672-1.353.883-2.471.473Z" fill="#231f20" stroke-width="0"/>
    <path d="m158.122,8.032c-1.118-.411-1.824-1.288-1.578-1.96.247-.672,1.353-.883,2.471-.473,1.118.411,1.824,1.288,1.578,1.96-.247.672-1.353.883-2.471.473Z" fill="#231f20" stroke-width="0"/>
  </g>
  <g>
    <line x1="633.586" y1="78.668" x2="637.724" y2="70.676" fill="none" stroke="#221f1f" stroke-miterlimit="10"/>
    <line x1="610.808" y1="66.872" x2="614.946" y2="58.88" fill="none" stroke="#221f1f" stroke-miterlimit="10"/>
  </g>
  <g>
    <line x1="494.398" y1="16.69" x2="502.88" y2=".814" fill="none" stroke="#221f1f" stroke-miterlimit="10"/>
    <line x1="493.69" y1="6.108" x2="497.931" y2="-1.83" fill="none" stroke="#221f1f" stroke-miterlimit="10"/>
    <line x1="488.741" y1="3.464" x2="492.982" y2="-4.474" fill="none" stroke="#221f1f" stroke-miterlimit="10"/>
    <line x1="483.793" y1=".821" x2="488.034" y2="-7.118" fill="none" stroke="#221f1f" stroke-miterlimit="10"/>
    <line x1="513.485" y1="16.684" x2="517.726" y2="8.746" fill="none" stroke="#221f1f" stroke-miterlimit="10"/>
  </g>
  <g>
    <rect x="-396.473" y="-826.288" width="3386.58" height="2514.089" transform="translate(866.061 1727.574) rotate(-90)" fill="none" stroke="#231f20" stroke-linecap="round" stroke-miterlimit="10" stroke-width="7"/>
    <rect x="-379.506" y="-809.166" width="3353.392" height="2482.402" transform="translate(865.155 1729.225) rotate(-90)" fill="none" stroke="#231f20" stroke-linecap="round" stroke-miterlimit="10" stroke-width="3"/>
    <rect x="-341.031" y="-773.548" width="3275.615" height="2412.095" transform="translate(864.278 1729.276) rotate(-90)" fill="none" stroke="#231f20" stroke-linecap="round" stroke-miterlimit="10"/>
    <rect x="-323.163" y="-756.185" width="3239.88" height="2376.261" transform="translate(864.831 1728.723) rotate(-90)" fill="none" stroke="#231f20" stroke-linecap="round" stroke-miterlimit="10"/>
    <g>
      <g>
        <line x1="90.729" y1="396.03" x2="108.646" y2="396.03" fill="none" stroke="#231f20" stroke-linecap="round" stroke-miterlimit="10"/>
        <line x1="90.729" y1="323.902" x2="108.646" y2="323.902" fill="none" stroke="#231f20" stroke-linecap="round" stroke-miterlimit="10"/>
        <line x1="90.729" y1="252.064" x2="108.646" y2="252.064" fill="none" stroke="#231f20" stroke-linecap="round" stroke-miterlimit="10"/>
        <line x1="90.729" y1="179.792" x2="108.646" y2="179.792" fill="none" stroke="#231f20" stroke-linecap="round" stroke-miterlimit="10"/>
        <line x1="90.729" y1="107.954" x2="108.646" y2="107.954" fill="none" stroke="#231f20" stroke-linecap="round" stroke-miterlimit="10"/>
        <line x1="90.729" y1="35.899" x2="108.646" y2="35.899" fill="none" stroke="#231f20" stroke-linecap="round" stroke-miterlimit="10"/>
      </g>
      <rect x="27.958" y="322.308" width="144" height="3.6" transform="translate(-224.15 424.066) rotate(-90)" fill="#231f20" stroke-width="0"/>
      <rect x="27.688" y="103.406" width="144" height="8.773" transform="translate(-8.105 207.48) rotate(-90)" fill="#231f20" stroke-width="0"/>
    </g>
  </g>
</svg>