<?xml version="1.0" encoding="UTF-8"?>
<svg id="a" data-name="Layer 1" xmlns="http://www.w3.org/2000/svg" width="9.002in" height="6.002in" viewBox="0 0 648.177 432.177">
  <g opacity=".75">
    <g>
      <g>
        <path d="m532.288-8.359c-.041,5.485-.835,10.616-2.249,15.218-1.362,4.62-3.303,8.704-5.447,12.258-4.306,7.133-9.449,12.06-13.863,15.49-4.466,3.41-8.24,5.41-10.805,6.603-1.279.611-2.275.996-2.923,1.291-.66.267-.998.384-.998.384" fill="none" stroke="#231f20" stroke-miterlimit="10" stroke-width=".25"/>
        <path d="m534.769-8.359c-.041,5.739-.875,11.114-2.354,15.932-1.427,4.837-3.458,9.111-5.699,12.827-4.502,7.457-9.869,12.596-14.472,16.172-4.656,3.556-8.59,5.639-11.262,6.883-1.332.637-2.37,1.039-3.045,1.345-.687.279-1.04.401-1.04.401" fill="none" stroke="#231f20" stroke-miterlimit="10" stroke-width=".25"/>
        <path d="m477.891,46.821c-5.535.356-10.764-.112-15.537-1.002-4.768-.956-9.084-2.39-12.902-4.087-7.658-3.402-13.246-7.819-17.225-11.74-4-3.941-6.416-7.443-7.942-9.806-1.484-2.398-2.117-3.67-2.117-3.67" fill="none" stroke="#231f20" stroke-miterlimit="10" stroke-width=".25"/>
        <path d="m478.041,49.298c-5.755.369-11.194-.115-16.163-1.043-4.964-.995-9.459-2.488-13.437-4.256-7.978-3.545-13.806-8.149-17.957-12.24-4.173-4.113-6.699-7.771-8.293-10.241-1.552-2.506-2.215-3.838-2.215-3.838" fill="none" stroke="#231f20" stroke-miterlimit="10" stroke-width=".25"/>
      </g>
      <g>
        <path d="m529.132,24.163c-1.658,2.589-3.508,4.933-5.383,7.123-1.905,2.168-3.896,4.129-5.914,5.918-4.061,3.553-8.278,6.333-12.367,8.518-8.212,4.376-15.901,6.226-22.05,7.101-6.187.821-10.915.674-14.044.462-1.57-.092-2.744-.234-3.527-.337-.784-.095-1.177-.143-1.177-.143" fill="none" stroke="#231f20" stroke-miterlimit="10" stroke-width=".25"/>
        <path d="m531.215,25.513c-1.725,2.694-3.647,5.132-5.598,7.407-1.98,2.253-4.048,4.292-6.145,6.149-4.218,3.691-8.595,6.577-12.84,8.845-8.524,4.54-16.499,6.46-22.875,7.367-6.415.851-11.31.699-14.555.48-1.627-.096-2.844-.242-3.656-.349-.812-.099-1.221-.149-1.221-.149" fill="none" stroke="#231f20" stroke-miterlimit="10" stroke-width=".25"/>
        <path d="m445.012,46.853c-5.538-2.644-10.318-5.955-14.408-9.463-4.053-3.561-7.399-7.35-10.096-11.135-5.349-7.628-8.148-15.08-9.528-21.168-1.43-6.108-1.528-10.879-1.537-14.023.043-1.578.057-2.766.144-3.555.063-.79.095-1.187.095-1.187" fill="none" stroke="#231f20" stroke-miterlimit="10" stroke-width=".25"/>
        <path d="m443.934,49.088c-5.747-2.745-10.711-6.18-14.958-9.825-4.21-3.698-7.688-7.637-10.493-11.574-5.566-7.933-8.481-15.698-9.92-22.041-1.489-6.365-1.593-11.335-1.601-14.608.044-1.643.061-2.88.15-3.702.066-.823.099-1.237.099-1.237" fill="none" stroke="#231f20" stroke-miterlimit="10" stroke-width=".25"/>
      </g>
    </g>
    <g>
      <g>
        <path d="m576.148-7.439c-.079,9.795-1.41,18.977-3.834,27.229-1.126,4.153-2.64,8.028-4.144,11.734-1.637,3.651-3.312,7.128-5.192,10.321-7.416,12.871-16.325,21.857-24.012,28.152-7.808,6.222-14.432,9.902-18.938,12.115-4.522,2.202-6.896,3.108-6.896,3.108" fill="none" stroke="#231f20" stroke-miterlimit="10" stroke-width=".25"/>
        <path d="m578.629-7.439c-.078,10.036-1.446,19.451-3.93,27.912-1.156,4.257-2.706,8.231-4.249,12.03-1.677,3.744-3.395,7.306-5.321,10.579-7.601,13.191-16.727,22.396-24.602,28.844-7.997,6.374-14.784,10.143-19.399,12.41-4.632,2.256-7.064,3.184-7.064,3.184" fill="none" stroke="#231f20" stroke-miterlimit="10" stroke-width=".25"/>
        <path d="m481.115,92.507c-1.221.118-2.439.136-3.647.163-1.208.017-2.406.09-3.595.062-2.378-.073-4.723-.067-7.017-.293-4.603-.273-9.011-1.004-13.241-1.8-8.434-1.77-16.053-4.419-22.773-7.548-13.459-6.309-23.228-14.367-30.111-21.532-1.773-1.755-3.256-3.569-4.715-5.196-.683-.853-1.341-1.677-1.976-2.47-.635-.793-1.252-1.551-1.785-2.325-2.238-3.015-3.928-5.661-5.242-7.802-1.266-2.17-2.236-3.794-2.784-4.931-.582-1.119-.874-1.681-.874-1.681" fill="none" stroke="#231f20" stroke-miterlimit="10" stroke-width=".25"/>
        <path d="m481.273,94.983c-1.25.12-2.497.139-3.733.167-1.236.018-2.463.091-3.68.063-2.434-.073-4.834-.069-7.184-.299-4.713-.281-9.227-1.027-13.559-1.844-8.638-1.812-16.444-4.526-23.327-7.731-13.787-6.463-23.792-14.717-30.845-22.056-1.816-1.799-3.336-3.656-4.83-5.324-.7-.874-1.375-1.717-2.025-2.53-.651-.812-1.282-1.59-1.829-2.382-2.293-3.09-4.025-5.801-5.371-7.995-1.299-2.224-2.29-3.888-2.853-5.054-.596-1.147-.896-1.724-.896-1.724" fill="none" stroke="#231f20" stroke-miterlimit="10" stroke-width=".25"/>
        <path d="m373.11,1.03c-.48-4.874-.406-9.64-.21-14.231.189-2.292.302-4.554.64-6.755.155-1.101.254-2.202.45-3.278.195-1.076.389-2.143.58-3.201.168-1.063.428-2.097.669-3.125.243-1.028.484-2.047.723-3.057.288-.997.573-1.985.855-2.964.273-.982.558-1.951.902-2.891.645-1.894,1.266-3.757,2.02-5.531.363-.892.699-1.785,1.074-2.652.394-.858.784-1.708,1.171-2.549,6.268-13.463,14.406-23.165,21.565-30.049,3.562-3.496,7.044-6.164,10.014-8.458,1.543-1.071,2.942-2.079,4.243-2.955,1.326-.838,2.521-1.593,3.584-2.265,2.177-1.257,3.82-2.199,4.935-2.79,1.128-.569,1.694-.854,1.694-.854" fill="none" stroke="#231f20" stroke-miterlimit="10" stroke-width=".25"/>
        <path d="m370.638,1.24c-.491-4.997-.417-9.878-.214-14.584.193-2.349.311-4.667.655-6.924.159-1.129.261-2.257.462-3.36.2-1.103.398-2.197.595-3.282.173-1.089.439-2.15.686-3.204.249-1.054.497-2.098.742-3.134.295-1.022.587-2.035.876-3.039.28-1.007.573-2,.925-2.964.661-1.942,1.299-3.852,2.071-5.671.372-.914.717-1.83,1.101-2.718.404-.88.804-1.751,1.199-2.614,6.426-13.8,14.764-23.74,22.097-30.792,3.65-3.58,7.214-6.316,10.259-8.664,1.58-1.098,3.013-2.13,4.346-3.027,1.358-.858,2.582-1.632,3.671-2.32,2.23-1.289,3.913-2.253,5.055-2.858,1.155-.583,1.735-.875,1.735-.875" fill="none" stroke="#231f20" stroke-miterlimit="10" stroke-width=".25"/>
      </g>
      <g>
        <path d="m566.936,47.985c-2.773,4.419-5.751,8.515-8.865,12.299-.806.922-1.605,1.837-2.398,2.744-.399.452-.796.901-1.192,1.349-.415.43-.829.857-1.241,1.283-.827.848-1.633,1.705-2.46,2.526-.849.798-1.691,1.589-2.526,2.374-.821.8-1.684,1.538-2.545,2.264-.858.729-1.708,1.452-2.55,2.168-.874.677-1.74,1.348-2.599,2.014-.852.674-1.71,1.322-2.594,1.92-.873.612-1.738,1.218-2.595,1.818-.857.601-1.752,1.124-2.614,1.682-.872.54-1.716,1.108-2.588,1.61-.875.496-1.742.988-2.6,1.474-13.813,7.715-26.861,11.045-37.312,12.608-10.521,1.456-18.572,1.202-23.896.821-1.333-.111-2.505-.163-3.502-.289-.998-.125-1.83-.229-2.497-.312-1.333-.167-2.002-.251-2.002-.251" fill="none" stroke="#231f20" stroke-miterlimit="10" stroke-width=".25"/>
        <path d="m569.047,49.289c-2.837,4.522-5.885,8.714-9.071,12.584-.824.944-1.642,1.88-2.453,2.808-.408.462-.815.922-1.22,1.38-.425.44-.848.877-1.269,1.313-.846.868-1.671,1.744-2.517,2.583-.869.817-1.73,1.626-2.583,2.429-.841.817-1.723,1.573-2.603,2.316-.877.746-1.747,1.485-2.609,2.217-.894.693-1.78,1.38-2.658,2.06-.871.689-1.75,1.352-2.653,1.964-.893.626-1.778,1.245-2.654,1.859-.876.614-1.792,1.151-2.673,1.721-.892.553-1.756,1.133-2.647,1.647-.895.508-1.782,1.01-2.659,1.508-14.13,7.891-27.476,11.299-38.165,12.896-10.759,1.49-18.987,1.229-24.431.84-1.363-.113-2.561-.167-3.581-.296-1.02-.127-1.872-.234-2.553-.319-1.363-.171-2.048-.257-2.048-.257" fill="none" stroke="#231f20" stroke-miterlimit="10" stroke-width=".25"/>
        <path d="m425.076,87.513c-2.353-1.126-4.55-2.461-6.757-3.693-2.126-1.367-4.276-2.628-6.252-4.078-4.048-2.762-7.704-5.798-11.11-8.859-6.736-6.211-12.315-12.744-16.692-19.312-4.402-6.553-7.727-13.04-10.227-19.152-2.484-6.12-4.234-11.846-5.329-17.041-.33-1.287-.527-2.559-.755-3.784-.205-1.229-.475-2.406-.604-3.563-.281-2.31-.629-4.449-.734-6.448-.156-1.993-.317-3.822-.323-5.492-.021-1.669-.13-3.172-.065-4.51.076-2.676.087-4.69.233-6.029.103-1.34.155-2.013.155-2.013" fill="none" stroke="#231f20" stroke-miterlimit="10" stroke-width=".25"/>
        <path d="m423.955,89.727c-2.406-1.153-4.655-2.516-6.912-3.778-2.176-1.396-4.373-2.689-6.395-4.171-4.14-2.826-7.88-5.93-11.364-9.062-6.891-6.353-12.597-13.038-17.077-19.757-4.504-6.705-7.908-13.344-10.467-19.601-2.543-6.265-4.333-12.126-5.455-17.444-.337-1.318-.54-2.62-.773-3.873-.21-1.257-.485-2.463-.618-3.647-.288-2.365-.642-4.554-.751-6.599-.16-2.04-.324-3.911-.33-5.62-.022-1.708-.132-3.246-.066-4.615.076-2.738.091-4.799.238-6.169.106-1.372.159-2.061.159-2.061" fill="none" stroke="#231f20" stroke-miterlimit="10" stroke-width=".25"/>
      </g>
    </g>
    <g>
      <g>
        <path d="m620.008-6.519c-.116,14.092-1.983,27.312-5.413,39.207-.435,1.484-.817,2.971-1.282,4.418-.488,1.44-.972,2.867-1.451,4.281-.242.706-.482,1.41-.722,2.11-.272.688-.543,1.373-.813,2.055-.538,1.364-1.072,2.716-1.6,4.056-.561,1.325-1.174,2.614-1.749,3.905-.603,1.278-1.113,2.585-1.778,3.802-.633,1.233-1.259,2.455-1.879,3.664-.314.603-.61,1.211-.933,1.801-.336.583-.67,1.163-1.003,1.74-5.245,9.28-11.059,17.223-16.908,23.953-5.855,6.735-11.735,12.268-17.236,16.863-11.14,9.049-20.622,14.411-27.068,17.649-.804.412-1.559.798-2.264,1.159-.713.344-1.39.633-2.007.916-1.238.559-2.271,1.026-3.098,1.399-1.645.769-2.505,1.074-2.505,1.074" fill="none" stroke="#231f20" stroke-miterlimit="10" stroke-width=".25"/>
        <path d="m622.49-6.519c-.116,14.329-2.018,27.777-5.505,39.877-.442,1.51-.832,3.022-1.305,4.494-.496,1.465-.988,2.917-1.476,4.355-.246.719-.491,1.434-.735,2.146-.277.7-.552,1.397-.826,2.091-.548,1.388-1.09,2.763-1.628,4.125-.571,1.348-1.194,2.66-1.779,3.972-.613,1.3-1.134,2.628-1.809,3.868-.643,1.255-1.281,2.497-1.911,3.727-.319.613-.621,1.232-.949,1.832-.342.593-.682,1.183-1.02,1.77-5.335,9.439-11.248,17.517-17.196,24.363-5.954,6.849-11.934,12.476-17.529,17.149-11.329,9.204-20.974,14.657-27.53,17.951-.818.419-1.586.812-2.303,1.178-.725.35-1.413.644-2.041.932-1.259.569-2.31,1.043-3.151,1.423-1.673.782-2.548,1.092-2.548,1.092" fill="none" stroke="#231f20" stroke-miterlimit="10" stroke-width=".25"/>
        <path d="m484.347,138.192c-1.754.17-3.503.203-5.238.239-1.735.025-3.456.13-5.164.091-3.415-.103-6.783-.101-10.079-.428-6.611-.406-12.943-1.462-19.015-2.642-12.109-2.588-23.038-6.461-32.663-11.028-9.626-4.585-17.925-9.884-25.045-15.25-7.135-5.363-13.038-10.884-17.948-16.101-.619-.648-1.229-1.286-1.829-1.914-.583-.643-1.132-1.299-1.687-1.932-1.097-1.275-2.179-2.491-3.188-3.695-.972-1.235-1.909-2.427-2.812-3.575-.452-.574-.895-1.137-1.33-1.689-.407-.573-.807-1.134-1.198-1.684-1.562-2.202-3.036-4.196-4.21-6.122-1.199-1.909-2.364-3.578-3.225-5.168-.902-1.566-1.692-2.938-2.37-4.116-.675-1.179-1.151-2.209-1.578-3.01-.828-1.615-1.245-2.426-1.245-2.426" fill="none" stroke="#231f20" stroke-miterlimit="10" stroke-width=".25"/>
        <path d="m484.508,140.668c-1.784.172-3.562.206-5.326.244-1.764.026-3.514.131-5.251.091-3.473-.103-6.897-.103-10.249-.435-6.723-.415-13.164-1.486-19.339-2.688-12.317-2.632-23.434-6.572-33.225-11.217-9.791-4.664-18.232-10.053-25.473-15.511-7.256-5.454-13.259-11.069-18.253-16.375-.629-.659-1.249-1.308-1.859-1.947-.593-.654-1.152-1.321-1.716-1.964-1.116-1.296-2.216-2.533-3.242-3.758-.988-1.256-1.942-2.468-2.86-3.636-.46-.584-.91-1.156-1.352-1.718-.414-.582-.821-1.153-1.219-1.712-1.589-2.239-3.086-4.268-4.282-6.227-1.22-1.941-2.403-3.639-3.28-5.257-.917-1.593-1.721-2.989-2.41-4.186-.687-1.199-1.172-2.247-1.605-3.062-.843-1.643-1.266-2.468-1.266-2.468" fill="none" stroke="#231f20" stroke-miterlimit="10" stroke-width=".25"/>
        <path d="m330.046,5.668c-.677-7.016-.574-13.871-.297-20.479.272-3.298.424-6.554.903-9.723.217-1.586.369-3.168.632-4.72.277-1.549.552-3.086.825-4.609.241-1.53.59-3.023.942-4.503.342-1.481.681-2.95,1.017-4.405.409-1.436.814-2.86,1.215-4.271.4-1.411.778-2.815,1.27-4.169.931-2.725,1.784-5.421,2.86-7.978.509-1.289,1.013-2.566,1.512-3.829.561-1.238,1.116-2.464,1.666-3.677,4.427-9.695,9.551-18.101,14.82-25.295,5.273-7.2,10.69-13.189,15.796-18.215,10.311-9.982,19.299-16.148,25.468-19.893,3.093-1.869,5.475-3.184,7.05-4.086,1.616-.826,2.428-1.241,2.428-1.241" fill="none" stroke="#231f20" stroke-miterlimit="10" stroke-width=".25"/>
        <path d="m327.573,5.874c-.687-7.136-.585-14.105-.302-20.824.276-3.354.432-6.666.918-9.888.22-1.613.376-3.222.644-4.801.282-1.576.561-3.139.839-4.688.246-1.556.601-3.075.958-4.58.348-1.507.693-3,1.035-4.481.416-1.461.827-2.909,1.236-4.344.407-1.435.792-2.863,1.292-4.241.946-2.772,1.816-5.514,2.909-8.115.518-1.311,1.031-2.61,1.539-3.895.57-1.259,1.135-2.506,1.694-3.74,4.503-9.862,9.715-18.412,15.074-25.728,5.363-7.322,10.871-13.413,16.065-18.525,10.486-10.153,19.628-16.421,25.901-20.231,3.145-1.902,5.569-3.239,7.171-4.155,1.644-.841,2.469-1.263,2.469-1.263" fill="none" stroke="#231f20" stroke-miterlimit="10" stroke-width=".25"/>
      </g>
      <g>
        <path d="m604.705,71.817c-3.871,6.259-7.979,12.11-12.353,17.468-1.075,1.353-2.24,2.615-3.341,3.91-.557.642-1.112,1.282-1.665,1.919-.556.634-1.155,1.225-1.726,1.835-1.155,1.21-2.301,2.41-3.437,3.599-1.189,1.136-2.369,2.263-3.538,3.38-.586.557-1.169,1.112-1.749,1.665-.605.526-1.207,1.05-1.806,1.571-1.202,1.039-2.393,2.07-3.573,3.091-1.21.985-2.439,1.925-3.641,2.876-1.208.944-2.386,1.904-3.631,2.751-2.456,1.74-4.836,3.491-7.309,5.004-1.221.779-2.431,1.55-3.629,2.313-1.232.707-2.451,1.408-3.658,2.101-9.682,5.507-19.165,9.498-28.032,12.36-8.874,2.867-17.127,4.609-24.526,5.752-14.849,2.091-26.221,1.73-33.737,1.179-1.881-.161-3.537-.228-4.944-.418-1.408-.179-2.583-.328-3.524-.447-1.882-.239-2.827-.359-2.827-.359" fill="none" stroke="#231f20" stroke-miterlimit="10" stroke-width=".25"/>
        <path d="m606.828,73.103c-3.933,6.362-8.109,12.308-12.554,17.753-1.093,1.375-2.275,2.658-3.395,3.974-.566.653-1.131,1.303-1.693,1.95-.565.645-1.173,1.245-1.754,1.865-1.174,1.229-2.338,2.449-3.493,3.657-1.208,1.155-2.407,2.3-3.595,3.435-.595.566-1.188,1.13-1.778,1.691-.614.535-1.226,1.067-1.835,1.597-1.221,1.056-2.432,2.103-3.632,3.141-1.229,1.002-2.479,1.957-3.7,2.924-1.228.959-2.425,1.934-3.69,2.796-2.495,1.769-4.915,3.547-7.428,5.086-1.241.791-2.471,1.575-3.688,2.35-1.252.719-2.491,1.431-3.718,2.136-9.841,5.597-19.48,9.654-28.493,12.563-9.02,2.915-17.409,4.686-24.929,5.846-15.092,2.126-26.645,1.758-34.282,1.199-1.912-.164-3.594-.232-5.024-.425-1.431-.181-2.626-.333-3.582-.454-1.912-.243-2.873-.366-2.873-.366" fill="none" stroke="#231f20" stroke-miterlimit="10" stroke-width=".25"/>
        <path d="m405.162,128.175c-.819-.419-1.635-.837-2.448-1.253-.808-.425-1.585-.899-2.374-1.344-1.567-.91-3.142-1.78-4.667-2.705-3.001-1.931-5.999-3.767-8.777-5.829-2.861-1.946-5.493-4.104-8.131-6.161-1.308-1.043-2.532-2.165-3.785-3.23-1.246-1.074-2.49-2.13-3.64-3.268-9.437-8.845-17.204-18.156-23.292-27.481-6.13-9.301-10.748-18.491-14.215-27.139-.849-2.17-1.73-4.268-2.396-6.384-.356-1.05-.707-2.086-1.053-3.108-.354-1.02-.691-2.031-.96-3.048-.574-2.022-1.133-3.989-1.676-5.901-.448-1.937-.882-3.817-1.304-5.642-.462-1.816-.716-3.616-1.042-5.343-.283-1.734-.668-3.394-.834-5.029-.395-3.26-.87-6.279-1.017-9.099-.219-2.812-.439-5.392-.447-7.75-.03-1.177-.058-2.296-.085-3.357-.013-.53-.026-1.046-.039-1.547.011-.501.022-.988.033-1.46.108-3.775.118-6.618.321-8.506.144-1.891.216-2.841.216-2.841" fill="none" stroke="#231f20" stroke-miterlimit="10" stroke-width=".25"/>
        <path d="m404.023,130.38c-.832-.426-1.661-.851-2.488-1.274-.821-.432-1.611-.913-2.414-1.365-1.592-.925-3.193-1.809-4.743-2.75-3.05-1.962-6.096-3.829-8.921-5.923-2.907-1.979-5.583-4.17-8.263-6.262-1.329-1.06-2.574-2.199-3.847-3.282-1.266-1.092-2.53-2.165-3.699-3.321-9.591-8.988-17.483-18.452-23.671-27.928-6.231-9.453-10.925-18.794-14.449-27.585-.863-2.206-1.757-4.339-2.436-6.49-.361-1.067-.718-2.12-1.07-3.16-.36-1.037-.702-2.064-.976-3.098-.584-2.056-1.151-4.055-1.703-5.999-.455-1.968-.897-3.88-1.326-5.734-.469-1.847-.728-3.676-1.06-5.431-.288-1.762-.677-3.45-.848-5.112-.402-3.313-.883-6.382-1.034-9.247-.223-2.858-.445-5.48-.454-7.875-.03-1.196-.059-2.333-.086-3.411-.013-.539-.026-1.063-.039-1.572.011-.509.022-1.004.033-1.483.109-3.836.121-6.724.326-8.644.146-1.922.22-2.887.22-2.887" fill="none" stroke="#231f20" stroke-miterlimit="10" stroke-width=".25"/>
      </g>
    </g>
    <g>
      <g>
        <path d="m663.868-5.6c-.154,18.385-2.555,35.64-6.99,51.174-.559,1.94-1.069,3.876-1.653,5.772-.633,1.88-1.26,3.744-1.882,5.591-.31.924-.619,1.843-.927,2.759-.352.899-.703,1.794-1.053,2.685-.698,1.782-1.39,3.547-2.075,5.297-.706,1.741-1.517,3.418-2.258,5.106-.778,1.671-1.453,3.372-2.294,4.974-.821,1.612-1.634,3.208-2.438,4.788-.402.79-.802,1.577-1.2,2.359-.435.762-.868,1.521-1.299,2.276-6.79,12.139-14.321,22.539-21.904,31.361-7.595,8.821-15.209,16.101-22.371,22.112-14.456,11.898-26.807,18.93-35.19,23.199-1.048.54-2.031,1.047-2.948,1.52-.917.475-1.807.837-2.609,1.214-1.613.733-2.959,1.345-4.036,1.835-1.08.485-1.882.871-2.432,1.093-.551.218-.828.328-.828.328" fill="none" stroke="#231f20" stroke-miterlimit="10" stroke-width=".25"/>
        <path d="m666.35-5.6c-.153,18.619-2.589,36.1-7.08,51.837-.566,1.965-1.083,3.927-1.675,5.847-.641,1.905-1.276,3.793-1.906,5.664-.315.936-.628,1.867-.939,2.795-.357.911-.712,1.818-1.066,2.72-.708,1.805-1.409,3.594-2.103,5.366-.715,1.763-1.536,3.463-2.287,5.173-.788,1.693-1.473,3.415-2.325,5.039-.831,1.633-1.655,3.25-2.47,4.851-.407.801-.813,1.597-1.216,2.39-.441.772-.88,1.541-1.316,2.306-6.878,12.297-14.508,22.833-22.19,31.77-7.694,8.936-15.407,16.31-22.663,22.399-14.644,12.054-27.158,19.178-35.652,23.504-1.062.547-2.058,1.06-2.988,1.54-.929.481-1.831.848-2.643,1.231-1.634.743-2.998,1.363-4.09,1.86-1.094.491-1.907.882-2.464,1.107-.559.221-.839.332-.839.332" fill="none" stroke="#231f20" stroke-miterlimit="10" stroke-width=".25"/>
        <path d="m487.582,183.877c-1.146.073-2.284.208-3.424.231-1.14.029-2.275.057-3.406.086-2.262.033-4.507.17-6.734.119-4.454-.133-8.845-.135-13.144-.564-8.621-.54-16.879-1.921-24.793-3.485-15.786-3.408-30.027-8.507-42.559-14.514-12.52-6.056-23.319-13.004-32.568-20.057-2.269-1.821-4.537-3.531-6.653-5.314-2.087-1.818-4.119-3.589-6.098-5.313-1.895-1.816-3.739-3.582-5.53-5.299-.913-.842-1.75-1.733-2.575-2.612-.829-.875-1.645-1.736-2.449-2.585-.804-.849-1.595-1.685-2.374-2.508-.739-.859-1.467-1.704-2.182-2.536-1.42-1.673-2.843-3.249-4.13-4.845-1.262-1.616-2.48-3.175-3.653-4.677-.581-.755-1.176-1.478-1.715-2.219-.529-.749-1.047-1.483-1.556-2.202-1.017-1.438-1.992-2.817-2.925-4.136-.952-1.307-1.72-2.65-2.529-3.878-1.568-2.488-3.053-4.687-4.174-6.764-1.171-2.047-2.196-3.841-3.076-5.379-.852-1.554-1.487-2.891-2.035-3.94-1.075-2.11-1.615-3.17-1.615-3.17" fill="none" stroke="#231f20" stroke-miterlimit="10" stroke-width=".25"/>
        <path d="m487.745,186.353c-1.161.074-2.314.21-3.469.233-1.155.029-2.305.058-3.451.087-2.292.034-4.566.171-6.822.12-4.512-.133-8.96-.138-13.315-.571-8.734-.548-17.102-1.946-25.121-3.532-15.996-3.453-30.427-8.621-43.124-14.707-12.686-6.136-23.627-13.175-32.997-20.321-2.299-1.844-4.597-3.577-6.739-5.384-2.114-1.842-4.173-3.636-6.177-5.382-1.92-1.839-3.787-3.629-5.603-5.368-.924-.853-1.773-1.756-2.608-2.646-.84-.886-1.667-1.759-2.481-2.618-.814-.86-1.615-1.707-2.404-2.541-.749-.87-1.486-1.726-2.211-2.568-1.439-1.694-2.88-3.292-4.183-4.909-1.279-1.637-2.512-3.216-3.701-4.737-.589-.765-1.19-1.497-1.737-2.248-.536-.758-1.061-1.502-1.576-2.23-1.03-1.457-2.018-2.854-2.963-4.19-.964-1.325-1.743-2.684-2.562-3.928-1.589-2.52-3.092-4.749-4.228-6.853-1.186-2.074-2.224-3.891-3.116-5.45-.863-1.574-1.507-2.928-2.062-3.992-1.089-2.138-1.635-3.212-1.635-3.212" fill="none" stroke="#231f20" stroke-miterlimit="10" stroke-width=".25"/>
        <path d="m286.981,10.303c-.873-9.156-.741-18.098-.385-26.721.355-4.303.546-8.553,1.167-12.688.279-2.07.483-4.134.815-6.161.359-2.022.716-4.027,1.069-6.015.184-.992.333-1.988.544-2.966.224-.975.447-1.946.669-2.913.443-1.934.883-3.851,1.318-5.75.527-1.876,1.049-3.736,1.567-5.578.527-1.84.997-3.678,1.637-5.447,1.216-3.555,2.301-7.083,3.698-10.422.66-1.684,1.313-3.351,1.96-5.003.724-1.619,1.442-3.221,2.152-4.807,5.727-12.673,12.36-23.671,19.186-33.091,6.831-9.428,13.852-17.281,20.474-23.877,13.389-13.086,25.072-21.185,33.092-26.113.98-.657,1.937-1.212,2.835-1.722.894-.517,1.725-.997,2.492-1.441,1.534-.887,2.814-1.628,3.839-2.221,2.105-1.084,3.162-1.628,3.162-1.628" fill="none" stroke="#231f20" stroke-miterlimit="10" stroke-width=".25"/>
        <path d="m284.508,10.507c-.883-9.274-.752-18.33-.39-27.063.358-4.359.554-8.663,1.182-12.852.282-2.097.49-4.187.826-6.24.364-2.049.725-4.08,1.082-6.094.187-1.005.338-2.013.552-3.004.227-.988.453-1.972.678-2.951.449-1.959.895-3.901,1.336-5.825.534-1.901,1.063-3.785,1.587-5.651.534-1.864,1.012-3.726,1.659-5.518,1.231-3.602,2.332-7.175,3.746-10.559.668-1.706,1.33-3.395,1.986-5.068.734-1.64,1.46-3.263,2.179-4.871,5.803-12.839,12.522-23.981,19.437-33.523,6.92-9.551,14.032-17.506,20.741-24.188,13.563-13.257,25.4-21.461,33.525-26.454.993-.666,1.962-1.227,2.872-1.745.906-.524,1.747-1.01,2.524-1.46,1.554-.899,2.851-1.649,3.89-2.249,2.133-1.098,3.204-1.65,3.204-1.65" fill="none" stroke="#231f20" stroke-miterlimit="10" stroke-width=".25"/>
      </g>
      <g>
        <path d="m642.463,95.653c-1.219,2.039-2.528,4.003-3.773,5.984-.636.982-1.239,1.98-1.896,2.938-.67.948-1.338,1.893-2.003,2.834-.665.941-1.328,1.878-1.988,2.811-.659.934-1.306,1.871-2.022,2.752-1.396,1.788-2.782,3.561-4.156,5.32-.671.893-1.4,1.732-2.126,2.568-.722.839-1.442,1.675-2.159,2.507-1.434,1.664-2.832,3.336-4.35,4.875-1.486,1.568-2.96,3.123-4.422,4.665-1.495,1.508-3.042,2.939-4.541,4.393-12.063,11.574-24.862,20.611-37.307,27.793-12.473,7.169-24.701,12.372-36.141,16.106-11.449,3.741-22.104,6.017-31.657,7.509-19.176,2.725-33.868,2.258-43.574,1.537-2.43-.212-4.569-.292-6.385-.547-1.819-.232-3.336-.426-4.551-.581-2.43-.311-3.65-.467-3.65-.467" fill="none" stroke="#231f20" stroke-miterlimit="10" stroke-width=".25"/>
        <path d="m644.592,96.928c-1.234,2.065-2.559,4.053-3.82,6.059-.644.994-1.256,2.005-1.92,2.974-.678.96-1.354,1.917-2.027,2.87-.674.953-1.345,1.901-2.013,2.847-.667.946-1.323,1.895-2.048,2.787-1.414,1.81-2.817,3.606-4.209,5.387-.68.904-1.418,1.754-2.153,2.601-.732.85-1.46,1.696-2.186,2.539-1.452,1.685-2.868,3.377-4.405,4.936-1.505,1.588-2.998,3.162-4.478,4.723-1.514,1.527-3.08,2.977-4.598,4.449-12.215,11.719-25.175,20.872-37.779,28.145-12.632,7.26-25.017,12.53-36.604,16.312-11.596,3.789-22.388,6.095-32.064,7.606-19.422,2.761-34.296,2.287-44.126,1.557-2.461-.214-4.626-.297-6.466-.555-1.842-.235-3.379-.431-4.61-.588-2.461-.315-3.697-.474-3.697-.474" fill="none" stroke="#231f20" stroke-miterlimit="10" stroke-width=".25"/>
        <path d="m385.255,168.839c-1.056-.544-2.108-1.087-3.157-1.627-1.022-.588-2.04-1.174-3.054-1.758-2.016-1.188-4.059-2.298-6.009-3.526-1.937-1.249-3.858-2.488-5.765-3.718l-1.426-.921-1.376-.984c-.915-.655-1.827-1.307-2.735-1.956-3.688-2.523-7.058-5.349-10.464-8.007-1.663-1.378-3.254-2.815-4.863-4.201-.801-.698-1.598-1.393-2.392-2.085-.784-.703-1.524-1.447-2.283-2.164-12.143-11.474-22.086-23.571-29.894-35.647-7.86-12.049-13.771-23.942-18.206-35.126-1.099-2.802-2.207-5.522-3.064-8.255-.456-1.357-.907-2.696-1.351-4.017-.222-.661-.443-1.317-.662-1.969-.188-.662-.375-1.319-.56-1.972-.734-2.614-1.448-5.156-2.141-7.627-.574-2.501-1.132-4.931-1.672-7.288-.595-2.346-.905-4.674-1.33-6.903-.367-2.239-.851-4.385-1.065-6.496-.509-4.209-1.111-8.11-1.3-11.751-.137-1.816-.269-3.557-.395-5.224-.153-1.665-.114-3.265-.177-4.784-.038-1.52-.074-2.966-.109-4.335-.017-.685-.034-1.351-.05-1.998.014-.647.028-1.276.042-1.885.141-4.875.149-8.546.41-10.985.185-2.443.277-3.669.277-3.669" fill="none" stroke="#231f20" stroke-miterlimit="10" stroke-width=".25"/>
        <path d="m384.106,171.039c-1.07-.552-2.135-1.101-3.197-1.648-1.035-.595-2.066-1.189-3.094-1.779-2.042-1.203-4.11-2.328-6.085-3.571-1.961-1.265-3.908-2.52-5.838-3.765l-1.444-.933-1.393-.996c-.927-.663-1.85-1.323-2.77-1.98-3.734-2.556-7.148-5.416-10.596-8.109-1.685-1.395-3.296-2.85-4.925-4.254-.811-.707-1.618-1.411-2.422-2.112-.793-.712-1.543-1.465-2.312-2.191-12.296-11.618-22.363-23.868-30.27-36.096-7.959-12.2-13.945-24.244-18.436-35.57-1.113-2.837-2.234-5.592-3.103-8.36-.462-1.374-.918-2.73-1.368-4.068-.225-.669-.448-1.334-.67-1.994-.191-.67-.38-1.335-.568-1.996-.743-2.647-1.466-5.221-2.168-7.723-.582-2.533-1.146-4.993-1.694-7.38-.601-2.376-.917-4.733-1.347-6.99-.372-2.267-.86-4.441-1.078-6.578-.516-4.262-1.124-8.212-1.316-11.898-.139-1.839-.272-3.602-.399-5.289-.154-1.686-.116-3.305-.179-4.843-.039-1.539-.075-3.002-.11-4.389-.017-.693-.034-1.368-.05-2.023.014-.655.028-1.291.042-1.908.141-4.935.152-8.652.415-11.121.187-2.473.281-3.715.281-3.715" fill="none" stroke="#231f20" stroke-miterlimit="10" stroke-width=".25"/>
      </g>
    </g>
    <g>
      <g>
        <path d="m707.728-4.68c-.191,22.677-3.127,43.965-8.566,63.136-.683,2.395-1.32,4.781-2.024,7.124-.777,2.32-1.548,4.62-2.312,6.9-.381,1.14-.761,2.275-1.139,3.405-.43,1.111-.859,2.216-1.285,3.317-.858,2.199-1.708,4.379-2.55,6.538-.85,2.156-1.859,4.222-2.766,6.307-.952,2.065-1.796,4.157-2.811,6.144-1.009,1.99-2.008,3.96-2.997,5.911-.494.976-.986,1.947-1.475,2.913-.512.954-1.063,1.881-1.588,2.815-8.334,14.997-17.582,27.855-26.899,38.767-9.335,10.908-18.682,19.934-27.506,27.361-17.771,14.747-32.991,23.45-43.311,28.751-1.291.668-2.502,1.296-3.633,1.881-1.121.607-2.225,1.041-3.21,1.513-1.988.908-3.647,1.666-4.975,2.272-1.329.604-2.327,1.059-2.993,1.361-.68.271-1.02.406-1.02.406" fill="none" stroke="#231f20" stroke-miterlimit="10" stroke-width=".25"/>
        <path d="m710.21-4.68c-.191,22.91-3.16,44.421-8.655,63.795-.69,2.42-1.335,4.831-2.046,7.199-.785,2.345-1.564,4.67-2.336,6.973-.386,1.152-.769,2.299-1.152,3.44-.435,1.123-.867,2.24-1.298,3.352-.867,2.223-1.726,4.425-2.578,6.607-.859,2.178-1.878,4.267-2.795,6.374-.962,2.087-1.815,4.201-2.841,6.209-1.019,2.011-2.029,4.002-3.028,5.974-.5.986-.997,1.967-1.491,2.943-.518.964-1.073,1.901-1.604,2.845-8.421,15.155-17.768,28.148-27.182,39.176-9.433,11.023-18.88,20.144-27.797,27.65-17.959,14.904-33.343,23.7-43.773,29.059-1.305.676-2.529,1.309-3.673,1.901-1.133.613-2.248,1.053-3.245,1.529-2.009.918-3.686,1.684-5.028,2.297-1.343.611-2.352,1.07-3.026,1.376-.687.274-1.031.411-1.031.411" fill="none" stroke="#231f20" stroke-miterlimit="10" stroke-width=".25"/>
        <path d="m490.818,229.562c-1.413.091-2.817.256-4.223.287-1.406.036-2.806.071-4.201.106-1.395.036-2.784.071-4.169.107-1.384.024-2.763.108-4.137.04-5.493-.163-10.908-.169-16.21-.7-10.632-.674-20.817-2.381-30.574-4.33-19.465-4.229-37.018-10.555-52.456-18.003-15.414-7.527-28.714-16.125-40.09-24.867-1.405-1.116-2.793-2.218-4.164-3.307-1.356-1.107-2.761-2.119-4.019-3.275-2.567-2.25-5.067-4.442-7.502-6.575-2.331-2.246-4.599-4.431-6.803-6.555-1.125-1.039-2.137-2.16-3.16-3.237-1.02-1.081-2.025-2.146-3.014-3.195-.984-1.054-1.977-2.069-2.911-3.109-.909-1.061-1.804-2.106-2.685-3.134-1.743-2.07-3.508-4.008-5.071-5.996-1.552-1.996-3.05-3.923-4.493-5.778-.71-.936-1.456-1.819-2.099-2.749-.651-.925-1.288-1.832-1.913-2.72-1.25-1.776-2.449-3.48-3.597-5.11-1.15-1.628-2.11-3.276-3.1-4.796-1.937-3.068-3.742-5.797-5.122-8.36-1.439-2.528-2.7-4.743-3.781-6.643-1.028-1.929-1.823-3.572-2.492-4.87-1.321-2.606-1.985-3.914-1.985-3.914" fill="none" stroke="#231f20" stroke-miterlimit="10" stroke-width=".25"/>
        <path d="m490.982,232.038c-1.428.092-2.847.258-4.268.29-1.421.036-2.836.072-4.245.108-1.41.036-2.814.072-4.213.108-1.399.024-2.792.108-4.18.04-5.551-.163-11.024-.172-16.382-.707-10.745-.682-21.041-2.406-30.904-4.377-19.677-4.274-37.42-10.67-53.025-18.198-15.58-7.608-29.023-16.298-40.52-25.133-1.42-1.128-2.823-2.242-4.208-3.342-1.37-1.118-2.79-2.143-4.061-3.31-2.594-2.274-5.121-4.489-7.581-6.645-2.356-2.27-4.648-4.478-6.875-6.624-1.137-1.05-2.159-2.182-3.193-3.271-1.031-1.092-2.046-2.169-3.046-3.228-.994-1.065-1.998-2.092-2.942-3.142-.919-1.072-1.824-2.128-2.714-3.166-1.761-2.092-3.544-4.051-5.124-6.059-1.569-2.017-3.083-3.964-4.541-5.839-.718-.946-1.47-1.838-2.121-2.778-.658-.935-1.302-1.851-1.934-2.749-1.264-1.795-2.475-3.517-3.635-5.164-1.162-1.646-2.132-3.311-3.133-4.846-1.958-3.1-3.78-5.859-5.176-8.448-1.454-2.555-2.728-4.793-3.821-6.714-1.039-1.949-1.843-3.609-2.519-4.921-1.335-2.633-2.005-3.956-2.005-3.956" fill="none" stroke="#231f20" stroke-miterlimit="10" stroke-width=".25"/>
        <path d="m243.916,14.936c-1.07-11.295-.909-22.324-.473-32.96.438-5.308.667-10.551,1.43-15.652.34-2.554.598-5.099.997-7.601.441-2.495.879-4.969,1.312-7.422.224-1.225.415-2.451.663-3.66.275-1.203.549-2.402.822-3.594.545-2.386,1.084-4.751,1.619-7.095.619-2.323,1.288-4.61,1.919-6.885.654-2.268,1.217-4.542,2.004-6.724,1.5-4.385,2.818-8.744,4.535-12.866.811-2.078,1.613-4.137,2.408-6.175.855-2.013,1.769-3.978,2.635-5.938,7.027-15.65,15.167-29.24,23.55-40.887,8.388-11.657,17.013-21.373,25.151-29.54,16.466-16.19,30.845-26.224,40.716-32.335.611-.395,1.202-.777,1.775-1.147.59-.342,1.16-.673,1.711-.993,1.101-.64,2.125-1.234,3.07-1.783,1.89-1.098,3.466-2.015,4.729-2.749,2.591-1.347,3.892-2.024,3.892-2.024" fill="none" stroke="#231f20" stroke-miterlimit="10" stroke-width=".25"/>
        <path d="m241.443,15.138c-1.079-11.413-.919-22.554-.477-33.3.441-5.363.675-10.66,1.445-15.815.344-2.581.605-5.152,1.008-7.68.446-2.521.888-5.021,1.326-7.5.227-1.238.419-2.477.671-3.698.278-1.216.555-2.427.83-3.633.551-2.411,1.096-4.801,1.637-7.17.625-2.347,1.3-4.659,1.938-6.958.661-2.292,1.231-4.589,2.025-6.795,1.515-4.432,2.848-8.836,4.583-13.002.819-2.1,1.631-4.18,2.434-6.24.864-2.034,1.787-4.02,2.663-6.001,7.101-15.815,15.328-29.549,23.798-41.318,8.476-11.78,17.192-21.599,25.417-29.851,16.639-16.362,31.172-26.501,41.149-32.678.617-.399,1.215-.785,1.794-1.159.596-.346,1.172-.681,1.729-1.004,1.113-.647,2.147-1.247,3.102-1.802,1.91-1.11,3.504-2.036,4.78-2.778,2.619-1.362,3.934-2.046,3.934-2.046" fill="none" stroke="#231f20" stroke-miterlimit="10" stroke-width=".25"/>
      </g>
      <g>
        <path d="m680.218,119.491c-1.469,2.514-3.083,4.915-4.599,7.349-.773,1.208-1.524,2.424-2.307,3.612-.819,1.164-1.635,2.323-2.447,3.478-.813,1.155-1.622,2.305-2.429,3.451-.814,1.14-1.584,2.306-2.461,3.386-1.707,2.195-3.4,4.372-5.08,6.532-6.935,8.458-13.995,16.389-21.489,23.372-14.742,14.23-30.381,25.376-45.617,34.214-15.264,8.83-30.236,15.245-44.248,19.851-14.023,4.615-27.079,7.425-38.788,9.267-23.503,3.36-41.514,2.786-53.41,1.896-1.491-.115-2.889-.222-4.194-.323-1.306-.093-2.519-.188-3.632-.354-2.229-.286-4.089-.525-5.578-.716-2.979-.383-4.474-.575-4.474-.575" fill="none" stroke="#231f20" stroke-miterlimit="10" stroke-width=".25"/>
        <path d="m682.35,120.761c-1.485,2.54-3.114,4.966-4.646,7.425-.781,1.22-1.54,2.449-2.331,3.649-.827,1.176-1.651,2.347-2.472,3.514-.821,1.167-1.639,2.329-2.454,3.486-.822,1.152-1.601,2.329-2.487,3.42-1.724,2.217-3.435,4.417-5.132,6.599-7.006,8.546-14.14,16.557-21.709,23.612-14.895,14.375-30.694,25.638-46.089,34.568-15.423,8.922-30.552,15.404-44.713,20.059-14.171,4.663-27.365,7.504-39.197,9.364-23.75,3.397-41.944,2.815-53.965,1.916-1.506-.116-2.919-.225-4.238-.326-1.32-.094-2.546-.19-3.67-.358-2.253-.289-4.132-.53-5.637-.723-3.01-.387-4.521-.582-4.521-.582" fill="none" stroke="#231f20" stroke-miterlimit="10" stroke-width=".25"/>
        <path d="m365.351,209.503c-1.293-.67-2.581-1.338-3.864-2.003-1.25-.726-2.495-1.449-3.735-2.17-1.24-.721-2.476-1.438-3.706-2.154-1.225-.725-2.475-1.398-3.644-2.192-2.371-1.536-4.723-3.06-7.057-4.571-1.181-.735-2.309-1.539-3.423-2.352-1.12-.805-2.236-1.606-3.347-2.405-4.516-3.099-8.623-6.594-12.797-9.852-2.019-1.713-3.976-3.464-5.941-5.173-.98-.858-1.955-1.712-2.926-2.562-.932-.893-1.859-1.783-2.783-2.669-1.843-1.776-3.671-3.536-5.482-5.282-1.729-1.827-3.443-3.637-5.141-5.432-.848-.899-1.692-1.793-2.532-2.684-.838-.893-1.602-1.844-2.401-2.757-1.579-1.842-3.144-3.668-4.694-5.476-1.554-1.805-2.937-3.722-4.392-5.55-1.414-1.861-2.903-3.638-4.216-5.518-1.32-1.875-2.626-3.732-3.92-5.57-.647-.919-1.29-1.834-1.931-2.744-.599-.938-1.194-1.871-1.787-2.8-9.59-14.796-16.795-29.392-22.198-43.113-.67-1.718-1.332-3.415-1.986-5.092-.678-1.667-1.166-3.38-1.747-5.035-.557-1.663-1.107-3.305-1.649-4.926-.27-.811-.538-1.616-.805-2.416-.228-.812-.455-1.618-.68-2.418-.892-3.205-1.795-6.314-2.607-9.352-.701-3.067-1.381-6.045-2.041-8.934-.165-.722-.328-1.439-.491-2.151-.147-.714-.259-1.43-.388-2.136-.25-1.414-.496-2.806-.738-4.176-.242-1.37-.48-2.717-.714-4.041-.112-.663-.245-1.317-.336-1.972-.083-.656-.164-1.306-.246-1.951-.623-5.16-1.353-9.941-1.583-14.403-.167-2.226-.328-4.36-.482-6.403-.095-1.02-.126-2.021-.142-2.999-.025-.978-.049-1.933-.072-2.864-.047-1.864-.091-3.635-.133-5.314-.021-.839-.041-1.656-.061-2.449.018-.793.035-1.563.051-2.31.173-5.975.18-10.475.499-13.464.225-2.994.338-4.497.338-4.497" fill="none" stroke="#231f20" stroke-miterlimit="10" stroke-width=".25"/>
        <path d="m364.196,211.699c-1.306-.677-2.608-1.352-3.905-2.025-1.263-.733-2.521-1.464-3.775-2.192-1.253-.728-2.501-1.453-3.745-2.176-1.238-.732-2.5-1.413-3.682-2.215-2.395-1.552-4.772-3.091-7.13-4.619-1.193-.743-2.332-1.555-3.458-2.377-1.132-.813-2.259-1.623-3.382-2.429-4.562-3.133-8.712-6.661-12.929-9.954-2.04-1.73-4.018-3.499-6.003-5.225-.99-.867-1.975-1.729-2.956-2.589-.941-.902-1.879-1.801-2.812-2.696-1.862-1.794-3.708-3.573-5.538-5.336-1.747-1.845-3.478-3.674-5.194-5.487-.856-.908-1.709-1.812-2.557-2.712-.846-.902-1.618-1.863-2.425-2.785-1.595-1.861-3.176-3.705-4.742-5.532-1.57-1.824-2.968-3.759-4.438-5.607-1.429-1.879-2.932-3.676-4.259-5.574-1.333-1.894-2.654-3.77-3.961-5.627-.653-.929-1.303-1.853-1.95-2.773-.605-.948-1.207-1.891-1.806-2.829-9.688-14.948-16.968-29.694-22.427-43.556-.677-1.736-1.346-3.451-2.006-5.144-.685-1.685-1.178-3.415-1.765-5.086-.563-1.68-1.118-3.339-1.666-4.976-.273-.819-.543-1.633-.813-2.441-.231-.82-.46-1.634-.688-2.443-.902-3.238-1.813-6.379-2.634-9.448-.708-3.098-1.395-6.107-2.062-9.026-.166-.73-.332-1.454-.495-2.173-.149-.722-.262-1.445-.393-2.158-.253-1.429-.501-2.835-.746-4.219-.244-1.384-.485-2.745-.721-4.083-.113-.67-.247-1.331-.339-1.992-.084-.663-.166-1.32-.249-1.971-.631-5.212-1.365-10.042-1.6-14.55-.169-2.249-.331-4.405-.486-6.468-.096-1.031-.127-2.041-.144-3.029-.025-.988-.049-1.952-.073-2.893-.047-1.882-.092-3.671-.134-5.367-.021-.848-.041-1.672-.061-2.474.018-.801.035-1.579.051-2.334.174-6.035.183-10.58.504-13.599.227-3.024.342-4.542.342-4.542" fill="none" stroke="#231f20" stroke-miterlimit="10" stroke-width=".25"/>
      </g>
    </g>
    <g>
      <g>
        <path d="m751.588-3.76c-.228,26.968-3.699,52.288-10.141,75.096-.808,2.849-1.572,5.686-2.394,8.477-.922,2.761-1.836,5.497-2.742,8.209-.452,1.356-.903,2.706-1.351,4.05-.479,1.333-1.016,2.638-1.518,3.949-1.018,2.617-2.026,5.21-3.025,7.779-.472,1.296-1.061,2.536-1.613,3.785-.556,1.247-1.11,2.488-1.661,3.723-1.126,2.459-2.138,4.943-3.327,7.315-1.197,2.368-2.382,4.713-3.556,7.035-.586,1.161-1.17,2.317-1.75,3.466-.592,1.143-1.256,2.241-1.876,3.355-9.877,17.854-20.843,33.17-31.893,46.174-11.074,12.995-22.155,23.768-32.639,32.611-2.606,2.228-5.262,4.232-7.762,6.258-1.26,1.001-2.499,1.985-3.718,2.954-1.263.91-2.504,1.804-3.724,2.683-2.44,1.757-4.795,3.452-7.063,5.086-2.344,1.523-4.599,2.987-6.765,4.394-4.277,2.904-8.439,5.182-12.154,7.374-3.685,2.248-7.185,3.947-10.246,5.557-3.07,1.593-5.74,3.027-8.13,4.054-2.363,1.083-4.335,1.986-5.913,2.709-1.578.724-2.764,1.267-3.555,1.63-.808.323-1.213.484-1.213.484" fill="none" stroke="#231f20" stroke-miterlimit="10" stroke-width=".25"/>
        <path d="m754.07-3.76c-.228,27.199-3.732,52.742-10.23,75.752-.815,2.875-1.586,5.736-2.416,8.552-.93,2.785-1.852,5.546-2.765,8.282-.457,1.368-.911,2.73-1.363,4.086-.484,1.345-1.025,2.661-1.531,3.984-1.027,2.64-2.044,5.256-3.052,7.848-.477,1.307-1.071,2.558-1.627,3.818-.561,1.258-1.12,2.51-1.676,3.756-1.136,2.481-2.157,4.987-3.357,7.38-1.207,2.389-2.403,4.755-3.587,7.098-.592,1.171-1.181,2.337-1.766,3.497-.598,1.153-1.267,2.261-1.892,3.385-9.965,18.013-21.027,33.463-32.175,46.582-11.172,13.11-22.352,23.979-32.93,32.901-2.629,2.248-5.309,4.27-7.831,6.314-1.271,1.01-2.522,2.003-3.752,2.979-1.274.918-2.526,1.821-3.757,2.707-2.462,1.773-4.838,3.483-7.127,5.131-2.365,1.536-4.64,3.015-6.826,4.435-4.316,2.929-8.515,5.229-12.264,7.441-3.719,2.267-7.25,3.983-10.339,5.607-3.098,1.607-5.792,3.054-8.204,4.09-2.384,1.093-4.374,2.004-5.967,2.734-1.593.73-2.789,1.279-3.588,1.645-.815.326-1.224.489-1.224.489" fill="none" stroke="#231f20" stroke-miterlimit="10" stroke-width=".25"/>
        <path d="m494.055,275.247c-1.681.109-3.35.304-5.022.343-1.672.042-3.337.085-4.995.127-1.659.043-3.311.085-4.957.127-1.646.029-3.286.129-4.919.047-6.532-.193-12.972-.204-19.276-.836-1.578-.121-3.15-.242-4.715-.363l-2.343-.18c-.779-.066-1.55-.191-2.323-.283-3.089-.398-6.152-.792-9.19-1.184l-2.274-.292c-.756-.1-1.5-.262-2.249-.389-1.494-.271-2.982-.54-4.464-.809-1.482-.268-2.957-.535-4.426-.801-1.469-.267-2.937-.505-4.372-.875-23.145-5.05-44.011-12.604-62.356-21.493-18.307-9-34.109-19.248-47.613-29.678-1.669-1.33-3.318-2.643-4.946-3.94-1.616-1.311-3.272-2.535-4.767-3.91-3.046-2.683-6.014-5.297-8.903-7.841-2.768-2.676-5.461-5.278-8.079-7.808-1.338-1.236-2.523-2.586-3.744-3.863-1.211-1.287-2.404-2.556-3.579-3.805-1.165-1.258-2.355-2.458-3.449-3.709-1.08-1.264-2.142-2.508-3.188-3.731-1.046-1.223-2.074-2.427-3.086-3.61-1.006-1.188-2.03-2.327-2.926-3.536-3.65-4.78-7.219-9.094-10.088-13.397-1.484-2.115-2.907-4.143-4.269-6.083-1.349-1.949-2.499-3.903-3.671-5.714-1.154-1.823-2.25-3.557-3.289-5.199-1.078-1.62-1.903-3.266-2.781-4.756-1.707-3.009-3.203-5.645-4.486-7.907-1.204-2.304-2.159-4.253-2.949-5.8-1.567-3.101-2.354-4.658-2.354-4.658" fill="none" stroke="#231f20" stroke-miterlimit="10" stroke-width=".25"/>
        <path d="m494.22,277.723c-1.696.11-3.381.306-5.067.346-1.686.043-3.367.086-5.04.129-1.674.043-3.341.086-5.002.128-1.661.029-3.315.129-4.963.048-6.591-.193-13.088-.206-19.45-.843-1.592-.123-3.178-.245-4.758-.366l-2.364-.182c-.786-.067-1.564-.192-2.344-.285-3.117-.401-6.208-.8-9.273-1.194l-2.294-.295c-.763-.101-1.514-.264-2.269-.393-1.508-.273-3.01-.545-4.505-.816-1.495-.271-2.984-.54-4.467-.808-1.482-.27-2.964-.511-4.412-.883-23.357-5.096-44.414-12.72-62.926-21.69-18.474-9.081-34.418-19.421-48.042-29.945-1.684-1.342-3.348-2.667-4.99-3.975-1.631-1.323-3.301-2.558-4.81-3.945-3.073-2.707-6.067-5.344-8.982-7.911-2.793-2.699-5.51-5.325-8.151-7.877-1.349-1.248-2.545-2.609-3.778-3.897-1.222-1.299-2.425-2.578-3.611-3.839-1.175-1.269-2.376-2.48-3.479-3.743-1.089-1.275-2.161-2.53-3.216-3.764-1.055-1.234-2.093-2.448-3.113-3.642-1.015-1.198-2.048-2.348-2.952-3.567-3.683-4.822-7.282-9.175-10.178-13.516-1.497-2.134-2.933-4.179-4.306-6.137-1.361-1.967-2.522-3.937-3.704-5.765-1.164-1.839-2.27-3.588-3.318-5.245-1.087-1.634-1.92-3.295-2.805-4.798-1.722-3.036-3.231-5.695-4.526-7.977-1.215-2.324-2.179-4.291-2.976-5.851-1.581-3.128-2.375-4.699-2.375-4.699" fill="none" stroke="#231f20" stroke-miterlimit="10" stroke-width=".25"/>
        <path d="m200.851,19.568c-1.266-13.433-1.076-26.549-.56-39.199.521-6.312.789-12.548,1.693-18.616.402-3.038.713-6.064,1.179-9.04.523-2.968,1.042-5.91,1.556-8.828.264-1.457.496-2.914.783-4.354.326-1.432.651-2.857.975-4.276.646-2.838,1.286-5.651,1.921-8.439.723-2.766,1.524-5.485,2.27-8.192.781-2.697,1.437-5.405,2.371-8,1.785-5.215,3.334-10.406,5.373-15.31.962-2.473,1.914-4.922,2.857-7.346,1.001-2.401,2.094-4.735,3.119-7.069,8.326-18.627,17.974-34.808,27.912-48.681,9.944-13.885,20.173-25.465,29.827-35.202,19.543-19.294,36.617-31.263,48.339-38.558.725-.471,1.427-.928,2.107-1.37.7-.41,1.376-.806,2.03-1.189,1.309-.763,2.525-1.471,3.648-2.125,2.246-1.309,4.119-2.402,5.62-3.277,1.522-.835,2.694-1.41,3.462-1.819.772-.401,1.159-.602,1.159-.602" fill="none" stroke="#231f20" stroke-miterlimit="10" stroke-width=".25"/>
        <path d="m198.377,19.77c-1.276-13.551-1.086-26.778-.565-39.537.524-6.367.797-12.657,1.708-18.778.405-3.065.719-6.117,1.19-9.119.528-2.994,1.051-5.962,1.569-8.905.266-1.47.501-2.94.79-4.392.329-1.444.657-2.882.983-4.314.652-2.863,1.298-5.701,1.938-8.514.73-2.79,1.537-5.534,2.29-8.264.788-2.721,1.451-5.452,2.392-8.071,1.8-5.262,3.365-10.497,5.42-15.445.97-2.495,1.931-4.965,2.883-7.411,1.009-2.422,2.112-4.777,3.146-7.132,8.4-18.792,18.134-35.116,28.16-49.112,10.032-14.008,20.351-25.691,30.092-35.514,19.716-19.467,36.944-31.541,48.772-38.902.732-.475,1.44-.936,2.127-1.382.706-.414,1.389-.814,2.048-1.2,1.321-.77,2.547-1.484,3.681-2.145,2.266-1.321,4.157-2.423,5.671-3.306,1.536-.843,2.718-1.423,3.493-1.836.779-.404,1.17-.607,1.17-.607" fill="none" stroke="#231f20" stroke-miterlimit="10" stroke-width=".25"/>
      </g>
      <g>
        <path d="m717.971,143.331c-.818,1.52-1.794,2.937-2.693,4.393-.915,1.446-1.826,2.887-2.734,4.322-.909,1.434-1.815,2.863-2.717,4.286-.968,1.38-1.932,2.754-2.892,4.123-.96,1.369-1.917,2.732-2.87,4.091-.969,1.346-1.862,2.741-2.901,4.02-2.017,2.602-4.019,5.183-6.004,7.744-8.18,10.043-16.531,19.442-25.38,27.735-17.422,16.886-35.899,30.141-53.927,40.633-18.054,10.49-35.77,18.118-52.355,23.596-16.597,5.488-32.055,8.833-45.917,11.024-27.829,3.995-49.159,3.314-63.245,2.254-1.765-.136-3.421-.264-4.967-.383-.773-.06-1.519-.117-2.237-.173-.718-.061-1.403-.172-2.063-.25-2.64-.34-4.842-.623-6.605-.85-3.527-.455-5.298-.683-5.298-.683" fill="none" stroke="#231f20" stroke-miterlimit="10" stroke-width=".25"/>
        <path d="m720.106,144.596c-.826,1.532-1.809,2.962-2.716,4.431-.923,1.459-1.842,2.912-2.757,4.36-.917,1.447-1.831,2.888-2.741,4.323-.976,1.392-1.948,2.778-2.917,4.159-.969,1.381-1.934,2.756-2.895,4.126-.977,1.358-1.879,2.764-2.926,4.054-2.035,2.625-4.053,5.228-6.056,7.811-8.25,10.13-16.675,19.61-25.6,27.976-17.574,17.031-36.212,30.404-54.399,40.989-18.214,10.583-36.087,18.278-52.821,23.805-16.746,5.537-32.341,8.912-46.328,11.122-28.077,4.031-49.591,3.343-63.803,2.274-1.781-.137-3.451-.266-5.011-.387-.78-.06-1.532-.119-2.257-.175-.724-.062-1.415-.173-2.082-.252-2.663-.343-4.885-.629-6.664-.858-3.558-.459-5.345-.69-5.345-.69" fill="none" stroke="#231f20" stroke-miterlimit="10" stroke-width=".25"/>
        <path d="m345.449,250.167c-1.529-.798-3.052-1.593-4.569-2.385-1.479-.862-2.952-1.72-4.42-2.575-1.467-.855-2.929-1.707-4.386-2.556-1.454-.853-2.922-1.669-4.307-2.61-2.805-1.823-5.588-3.631-8.349-5.425-1.398-.871-2.721-1.842-4.044-2.799-1.325-.955-2.645-1.906-3.959-2.853-1.314-.948-2.623-1.891-3.927-2.831-1.312-.93-2.524-1.978-3.783-2.955-2.494-1.986-4.967-3.957-7.42-5.91-2.36-2.065-4.699-4.113-7.019-6.144-1.158-1.017-2.312-2.031-3.46-3.039-1.099-1.062-2.194-2.12-3.284-3.173-2.179-2.106-4.34-4.194-6.482-6.264-2.041-2.169-4.065-4.318-6.07-6.449-1.002-1.066-2-2.127-2.993-3.183-.975-1.072-1.889-2.191-2.83-3.276-1.867-2.184-3.716-4.349-5.548-6.493-1.821-2.153-3.467-4.416-5.183-6.587-.848-1.094-1.692-2.182-2.532-3.266-.844-1.08-1.684-2.155-2.443-3.281-1.559-2.223-3.104-4.423-4.633-6.603-.764-1.09-1.525-2.174-2.282-3.253-.705-1.114-1.406-2.222-2.103-3.324-11.32-17.544-19.82-34.842-26.192-51.1-.792-2.035-1.574-4.046-2.346-6.032-.788-1.98-1.373-4.005-2.056-5.966-.658-1.97-1.307-3.915-1.947-5.834-.316-.961-.648-1.91-.944-2.863-.269-.961-.537-1.916-.803-2.865-1.051-3.797-2.124-7.477-3.074-11.078-.827-3.632-1.63-7.159-2.41-10.581-.195-.855-.388-1.704-.58-2.547-.153-.85-.304-1.694-.454-2.531-.295-1.675-.586-3.323-.872-4.945-.286-1.622-.567-3.217-.843-4.786-.13-.786-.292-1.559-.393-2.336-.097-.777-.194-1.547-.29-2.31-.737-6.11-1.595-11.772-1.867-17.056-.198-2.636-.387-5.163-.568-7.582-.113-1.208-.147-2.393-.167-3.552-.029-1.158-.057-2.289-.085-3.392-.055-2.207-.107-4.304-.157-6.292-.025-.994-.049-1.961-.072-2.9.021-.939.041-1.851.061-2.736.206-7.075.211-12.404.588-15.944.266-3.545.399-5.325.399-5.325" fill="none" stroke="#231f20" stroke-miterlimit="10" stroke-width=".25"/>
        <path d="m344.29,252.361c-1.542-.805-3.078-1.608-4.609-2.407-1.492-.869-2.978-1.735-4.459-2.597-1.48-.863-2.955-1.723-4.424-2.579-1.466-.86-2.948-1.684-4.344-2.633-2.829-1.839-5.637-3.663-8.422-5.473-1.41-.879-2.744-1.858-4.079-2.824-1.337-.963-2.668-1.923-3.994-2.878-1.326-.956-2.646-1.908-3.961-2.856-1.323-.938-2.547-1.995-3.817-2.981-2.515-2.004-5.01-3.991-7.484-5.962-2.38-2.083-4.741-4.149-7.081-6.197-1.168-1.026-2.332-2.048-3.49-3.066-1.109-1.071-2.213-2.138-3.313-3.2-2.198-2.125-4.377-4.231-6.537-6.319-2.059-2.188-4.1-4.356-6.123-6.504-1.011-1.075-2.017-2.145-3.019-3.211-.984-1.082-1.906-2.209-2.855-3.304-1.883-2.203-3.748-4.386-5.596-6.549-1.837-2.172-3.497-4.454-5.228-6.643-.855-1.103-1.706-2.201-2.553-3.294-.852-1.089-1.698-2.174-2.465-3.31-1.573-2.242-3.131-4.462-4.673-6.66-.771-1.099-1.538-2.193-2.301-3.281-.711-1.123-1.418-2.241-2.122-3.353-11.418-17.695-19.991-35.144-26.418-51.542-.798-2.053-1.587-4.081-2.366-6.084-.795-1.997-1.385-4.039-2.074-6.017-.663-1.987-1.318-3.949-1.964-5.885-.319-.969-.653-1.927-.952-2.888-.272-.969-.542-1.932-.81-2.889-1.061-3.829-2.143-7.542-3.1-11.174-.834-3.663-1.645-7.22-2.431-10.672-.196-.863-.391-1.719-.584-2.569-.154-.858-.307-1.708-.458-2.552-.298-1.689-.591-3.352-.879-4.988-.288-1.636-.571-3.245-.85-4.827-.131-.792-.294-1.573-.397-2.356-.098-.783-.196-1.56-.293-2.33-.745-6.162-1.607-11.873-1.883-17.202-.199-2.658-.39-5.207-.573-7.647-.114-1.219-.148-2.414-.168-3.582-.029-1.168-.058-2.308-.086-3.42-.055-2.225-.108-4.34-.158-6.345-.025-1.002-.049-1.977-.072-2.925.021-.947.041-1.867.061-2.759.206-7.135.214-12.508.593-16.078.268-3.575.403-5.37.403-5.37" fill="none" stroke="#231f20" stroke-miterlimit="10" stroke-width=".25"/>
      </g>
    </g>
  </g>
  <g>
    <g>
      <path d="m470.975,329.227c3.544,8.812,5.609,16.908,6.52,23.893.961,6.994.69,12.854.047,17.418-.087.57-.137,1.132-.245,1.66-.111.528-.217,1.038-.321,1.531-.102.493-.2.969-.295,1.428-.102.456-.245.881-.357,1.297-.237.828-.455,1.587-.653,2.278-.248.672-.472,1.277-.67,1.816-.201.537-.361,1.016-.526,1.414-.181.391-.332.717-.452.978-.24.522-.361.785-.361.785" fill="none" stroke="#231f20" stroke-miterlimit="10" stroke-width=".25"/>
      <path d="m473.275,328.296c3.618,8.994,5.739,17.291,6.68,24.499.991,7.214.718,13.319.043,18.098-.091.597-.145,1.183-.258,1.738-.116.554-.228,1.09-.336,1.608-.107.518-.211,1.018-.311,1.5-.108.479-.257.928-.375,1.366-.25.872-.48,1.671-.689,2.399-.261.709-.497,1.349-.706,1.918-.213.567-.383,1.072-.556,1.492-.19.413-.349.758-.477,1.034-.254.552-.381.83-.381.83" fill="none" stroke="#231f20" stroke-miterlimit="10" stroke-width=".25"/>
      <path d="m465.114,396.13c-6.319,6.606-13.41,11.067-19.682,14.472-3.155,1.704-6.145,3.115-8.93,4.34-2.774,1.242-5.331,2.269-7.611,3.18-4.574,1.798-8.103,3.023-10.458,3.853-2.367.811-3.56,1.22-3.56,1.22" fill="none" stroke="#231f20" stroke-miterlimit="10" stroke-width=".25"/>
      <path d="m466.916,397.836c-6.603,6.898-13.898,11.468-20.309,14.952-3.224,1.741-6.275,3.18-9.099,4.423-2.815,1.26-5.403,2.3-7.709,3.221-4.625,1.818-8.179,3.052-10.55,3.887-2.381.816-3.581,1.227-3.581,1.227" fill="none" stroke="#231f20" stroke-miterlimit="10" stroke-width=".25"/>
      <path d="m396.841,429.082c-9.408,3.039-17.725,5.944-24.77,8.831-7.053,2.87-12.841,5.703-17.382,8.203-4.545,2.499-7.846,4.655-10.028,6.129-2.154,1.525-3.24,2.294-3.24,2.294" fill="none" stroke="#231f20" stroke-miterlimit="10" stroke-width=".25"/>
      <path d="m397.608,431.442c-9.39,3.033-17.634,5.914-24.599,8.769-6.972,2.837-12.666,5.625-17.125,8.08-4.462,2.454-7.691,4.562-9.824,6.004-2.104,1.49-3.165,2.241-3.165,2.241" fill="none" stroke="#231f20" stroke-miterlimit="10" stroke-width=".25"/>
    </g>
    <g>
      <path d="m484.166,353.874c1.185,10.043.131,19.145-2.19,26.535-.298.922-.651,1.806-.964,2.682-.162.436-.322.868-.481,1.295-.19.415-.378.824-.564,1.23-.374.81-.739,1.603-1.096,2.377-.411.747-.812,1.477-1.204,2.189-1.644,2.799-3.316,5.215-4.99,7.201-3.299,4.023-6.249,6.601-8.212,8.298-1.987,1.678-3.048,2.442-3.048,2.442" fill="none" stroke="#231f20" stroke-miterlimit="10" stroke-width=".25"/>
      <path d="m486.632,353.597c1.221,10.342.144,19.826-2.292,27.568-.312.966-.68,1.895-1.01,2.812-.17.457-.339.91-.505,1.357-.199.435-.396.866-.59,1.292-.393.85-.777,1.682-1.153,2.494-.431.784-.852,1.55-1.263,2.298-1.723,2.937-3.477,5.465-5.222,7.536-3.443,4.197-6.498,6.865-8.529,8.62-2.055,1.735-3.146,2.521-3.146,2.521" fill="none" stroke="#231f20" stroke-miterlimit="10" stroke-width=".25"/>
      <path d="m447.095,417.096c-8.911,4.6-17.107,7.665-24.164,10.204-7.068,2.515-13.035,4.403-17.805,5.954-9.549,3.064-14.348,4.7-14.348,4.7" fill="none" stroke="#231f20" stroke-miterlimit="10" stroke-width=".25"/>
      <path d="m448.241,419.298c-9.098,4.695-17.36,7.778-24.477,10.34-7.122,2.534-13.102,4.426-17.875,5.978-9.549,3.064-14.313,4.688-14.313,4.688" fill="none" stroke="#231f20" stroke-miterlimit="10" stroke-width=".25"/>
    </g>
  </g>
  <g>
    <g>
      <line x1="563.409" y1="391.604" x2="576.163" y2="384.912" fill="none" stroke="#231f20" stroke-miterlimit="10"/>
      <path d="m558.408,371.887c3.269-1.472,6.537-2.944,9.806-4.416" fill="none" stroke="#231f20" stroke-miterlimit="10"/>
      <line x1="569.911" y1="383.491" x2="574.479" y2="381.194" fill="none" stroke="#231f20" stroke-miterlimit="10"/>
      <path d="m564.824,373.247c1.6-.798,3.199-1.595,4.799-2.393" fill="none" stroke="#231f20" stroke-miterlimit="10"/>
      <path d="m566.561,376.819c1.558-.783,3.115-1.566,4.673-2.35" fill="none" stroke="#231f20" stroke-miterlimit="10"/>
      <line x1="568.305" y1="380.252" x2="572.833" y2="377.876" fill="none" stroke="#231f20" stroke-miterlimit="10"/>
    </g>
    <g>
      <line x1="528.365" y1="318.323" x2="541.714" y2="312.914" fill="none" stroke="#231f20" stroke-miterlimit="10"/>
      <path d="m525.321,298.211c3.397-1.145,6.794-2.289,10.192-3.434" fill="none" stroke="#231f20" stroke-miterlimit="10"/>
      <line x1="535.631" y1="310.887" x2="540.403" y2="309.049" fill="none" stroke="#231f20" stroke-miterlimit="10"/>
      <path d="m531.573,300.194c1.67-.637,3.34-1.274,5.01-1.911" fill="none" stroke="#231f20" stroke-miterlimit="10"/>
      <path d="m532.952,303.919c1.627-.627,3.254-1.253,4.881-1.88" fill="none" stroke="#231f20" stroke-miterlimit="10"/>
      <line x1="534.351" y1="307.506" x2="539.09" y2="305.586" fill="none" stroke="#231f20" stroke-miterlimit="10"/>
    </g>
    <g>
      <line x1="500.674" y1="241.959" x2="514.489" y2="237.884" fill="none" stroke="#231f20" stroke-miterlimit="10"/>
      <path d="m499.616,221.645c3.493-.806,6.986-1.612,10.479-2.419" fill="none" stroke="#231f20" stroke-miterlimit="10"/>
      <line x1="508.634" y1="235.271" x2="513.562" y2="233.91" fill="none" stroke="#231f20" stroke-miterlimit="10"/>
      <path d="m505.643,224.232c1.724-.47,3.449-.94,5.173-1.41" fill="none" stroke="#231f20" stroke-miterlimit="10"/>
      <path d="m506.65,228.074c1.681-.464,3.361-.928,5.042-1.393" fill="none" stroke="#231f20" stroke-miterlimit="10"/>
      <line x1="507.691" y1="231.781" x2="512.595" y2="230.334" fill="none" stroke="#231f20" stroke-miterlimit="10"/>
    </g>
    <g>
      <line x1="480.6" y1="163.25" x2="494.748" y2="160.548" fill="none" stroke="#231f20" stroke-miterlimit="10"/>
      <path d="m481.538,142.93c3.555-.46,7.11-.92,10.666-1.38" fill="none" stroke="#231f20" stroke-miterlimit="10"/>
      <line x1="489.177" y1="157.373" x2="494.216" y2="156.502" fill="none" stroke="#231f20" stroke-miterlimit="10"/>
      <path d="m487.283,146.095c1.762-.299,3.524-.598,5.286-.897" fill="none" stroke="#231f20" stroke-miterlimit="10"/>
      <path d="m487.909,150.017c1.718-.297,3.436-.595,5.154-.892" fill="none" stroke="#231f20" stroke-miterlimit="10"/>
      <line x1="488.581" y1="153.808" x2="493.604" y2="152.849" fill="none" stroke="#231f20" stroke-miterlimit="10"/>
    </g>
    <g>
      <line x1="468.338" y1="82.951" x2="482.682" y2="81.65" fill="none" stroke="#231f20" stroke-miterlimit="10"/>
      <path d="m471.263,62.822c3.583-.109,7.166-.218,10.75-.328" fill="none" stroke="#231f20" stroke-miterlimit="10"/>
      <line x1="477.45" y1="77.944" x2="482.55" y2="77.571" fill="none" stroke="#231f20" stroke-miterlimit="10"/>
      <path d="m476.67,66.534c1.783-.125,3.566-.249,5.349-.374" fill="none" stroke="#231f20" stroke-miterlimit="10"/>
      <path d="m476.909,70.499c1.739-.127,3.478-.255,5.217-.382" fill="none" stroke="#231f20" stroke-miterlimit="10"/>
      <line x1="477.206" y1="74.338" x2="482.298" y2="73.875" fill="none" stroke="#231f20" stroke-miterlimit="10"/>
    </g>
    <line x1="464.006" y1="1.838" x2="478.409" y2="1.948" fill="none" stroke="#231f20" stroke-miterlimit="10"/>
  </g>
  <g>
    <g>
      <path d="m366.358,285.342c7.593,3.849,14.461,6.478,20.28,8.723,5.835,2.225,10.652,4.029,14.461,5.566,7.611,3.068,11.22,4.928,11.22,4.928" fill="none" stroke="#231f20" stroke-miterlimit="10" stroke-width=".25"/>
      <path d="m367.486,283.132c7.44,3.772,14.24,6.379,20.039,8.616,5.813,2.216,10.658,4.031,14.499,5.581,7.682,3.096,11.386,5.002,11.386,5.002" fill="none" stroke="#231f20" stroke-miterlimit="10" stroke-width=".25"/>
      <path d="m423.766,311.08c6.464,4.315,11.352,9.002,14.731,13.537,1.699,2.255,3.09,4.465,4.089,6.559.258.52.509,1.028.754,1.523.243.496.408,1.014.609,1.498.387.977.771,1.894,1.008,2.806.252.905.572,1.729.729,2.542.177.807.341,1.557.493,2.25.262,1.395.376,2.583.528,3.523.129,1.905.193,2.865.193,2.865" fill="none" stroke="#231f20" stroke-miterlimit="10" stroke-width=".25"/>
      <path d="m425.147,309.019c6.661,4.445,11.773,9.329,15.332,14.106,1.79,2.377,3.255,4.706,4.322,6.935.274.554.541,1.095.801,1.623.257.529.436,1.077.649,1.592.412,1.038.816,2.015,1.07,2.981.269.959.604,1.836.772,2.696.187.854.361,1.649.522,2.383.277,1.477.4,2.731.558,3.726.136,2.011.205,3.026.205,3.026" fill="none" stroke="#231f20" stroke-miterlimit="10" stroke-width=".25"/>
      <path d="m445.175,362.401c-.988,3.594-2.464,6.785-4.078,9.591-.428.687-.774,1.414-1.244,2.038-.448.639-.888,1.266-1.32,1.882-.425.622-.94,1.15-1.389,1.716-.468.549-.89,1.121-1.402,1.592-3.834,4.02-7.84,6.598-11.199,8.3-.42.216-.827.425-1.222.627-.399.192-.804.341-1.184.506-.768.314-1.471.634-2.138.885-1.36.433-2.474.868-3.401,1.104-.927.237-1.624.416-2.089.535-.465.12-.7.176-.7.176" fill="none" stroke="#231f20" stroke-miterlimit="10" stroke-width=".25"/>
      <path d="m447.56,363.088c-1.045,3.793-2.603,7.171-4.315,10.148-.453.73-.824,1.497-1.321,2.163-.476.679-.944,1.346-1.403,2.001-.453.659-.999,1.226-1.477,1.827-.498.585-.951,1.191-1.493,1.695-4.084,4.283-8.332,7.011-11.882,8.811-.445.228-.875.448-1.293.661-.422.203-.849.362-1.25.536-.811.333-1.554.668-2.259.934-1.434.461-2.611.915-3.589,1.165-1.956.497-2.942.749-2.942.749" fill="none" stroke="#231f20" stroke-miterlimit="10" stroke-width=".25"/>
      <path d="m401.362,392.252c-3.701-.274-7.109-1.007-10.183-1.993-1.501-.586-2.982-1.074-4.31-1.78-1.377-.597-2.604-1.375-3.808-2.073-4.75-2.942-8.071-6.4-10.474-9.306-.579-.75-1.122-1.455-1.63-2.113-.46-.693-.887-1.337-1.282-1.932-.198-.298-.387-.583-.568-.856-.161-.286-.314-.559-.46-.819-.292-.52-.555-.989-.789-1.406-.496-.82-.746-1.499-.964-1.927-.204-.435-.306-.653-.306-.653" fill="none" stroke="#231f20" stroke-miterlimit="10" stroke-width=".25"/>
      <path d="m401.191,394.728c-3.915-.288-7.533-1.065-10.802-2.117-1.6-.619-3.175-1.145-4.59-1.894-1.466-.64-2.772-1.461-4.05-2.205-5.044-3.127-8.551-6.78-11.088-9.848-.611-.792-1.184-1.536-1.719-2.23-.485-.731-.937-1.41-1.354-2.038-.208-.314-.407-.616-.598-.904-.17-.301-.332-.589-.486-.863-.308-.549-.585-1.044-.832-1.484-.52-.867-.788-1.582-1.018-2.033-.215-.459-.323-.689-.323-.689" fill="none" stroke="#231f20" stroke-miterlimit="10" stroke-width=".25"/>
    </g>
    <g>
      <path d="m390.195,288.447c7.651,2.895,14.447,5.458,20.179,8.021,5.755,2.524,10.415,5.075,14.046,7.297,3.634,2.228,6.215,4.182,7.929,5.495.839.683,1.469,1.198,1.891,1.541.425.338.621.531.621.531" fill="none" stroke="#231f20" stroke-miterlimit="10" stroke-width=".25"/>
      <path d="m391.078,286.128c7.631,2.888,14.486,5.472,20.303,8.071,5.845,2.564,10.617,5.173,14.341,7.452,3.728,2.286,6.393,4.3,8.161,5.656.867.707,1.52,1.239,1.955,1.593.439.35.643.549.643.549" fill="none" stroke="#231f20" stroke-miterlimit="10" stroke-width=".25"/>
      <path d="m444.527,321.787c2.481,3.458,4.387,7.058,5.709,10.587.172.438.342.873.511,1.304.154.436.273.879.41,1.312.259.87.533,1.72.762,2.564.352,1.712.804,3.341.972,4.951.939,6.406.552,11.87-.186,16.136-.756,4.274-1.768,7.411-2.564,9.45-.403,1.02-.706,1.787-.909,2.299-.223.503-.353.749-.353.749" fill="none" stroke="#231f20" stroke-miterlimit="10" stroke-width=".25"/>
      <path d="m446.546,320.345c.621.929,1.234,1.845,1.836,2.746.549.94,1.104,1.853,1.616,2.777.471.954.935,1.893,1.391,2.817.475.916.779,1.882,1.163,2.798.181.462.36.921.538,1.375.162.459.289.925.432,1.38.273.916.561,1.811.801,2.699.374,1.798.843,3.514,1.023,5.202.985,6.726.578,12.448-.195,16.92-.792,4.48-1.854,7.769-2.69,9.91-.424,1.07-.743,1.875-.955,2.413-.234.529-.37.787-.37.787" fill="none" stroke="#231f20" stroke-miterlimit="10" stroke-width=".25"/>
      <path d="m439.52,384.671c-6.096,6.083-12.988,9.594-19.09,11.598-6.137,2.029-11.587,2.616-15.924,2.609-1.086.018-2.105-.071-3.057-.099-.954-.016-1.834-.128-2.648-.231-.814-.099-1.56-.19-2.24-.273-.672-.134-1.277-.255-1.816-.363-1.076-.223-1.893-.357-2.418-.535-.531-.152-.798-.228-.798-.228" fill="none" stroke="#231f20" stroke-miterlimit="10" stroke-width=".25"/>
      <path d="m441.273,386.427c-6.436,6.418-13.671,10.096-20.067,12.198-6.433,2.126-12.142,2.739-16.693,2.734-1.139.018-2.21-.073-3.21-.103-1.001-.018-1.927-.135-2.782-.242-.855-.105-1.64-.201-2.354-.288-.707-.141-1.345-.267-1.912-.38-1.133-.235-1.991-.379-2.546-.564-.56-.159-.841-.239-.841-.239" fill="none" stroke="#231f20" stroke-miterlimit="10" stroke-width=".25"/>
      <path d="m378.458,391.19c-3.598-2.337-6.561-5.1-9.09-7.859-2.562-2.747-4.536-5.649-6.204-8.405-3.259-5.58-4.985-10.783-5.896-15.028-.238-1.062-.455-2.06-.555-3.012-.125-.947-.257-1.826-.347-2.641-.075-1.641-.201-3.011-.184-4.111.065-2.202.098-3.313.098-3.313" fill="none" stroke="#231f20" stroke-miterlimit="10" stroke-width=".25"/>
      <path d="m377.084,393.257c-3.787-2.463-6.9-5.362-9.553-8.257-2.686-2.884-4.756-5.922-6.504-8.811-3.416-5.847-5.227-11.304-6.185-15.767-.25-1.116-.476-2.166-.583-3.168-.132-.997-.269-1.921-.364-2.78-.083-1.73-.212-3.173-.195-4.334.069-2.324.104-3.497.104-3.497" fill="none" stroke="#231f20" stroke-miterlimit="10" stroke-width=".25"/>
    </g>
  </g>
  <path d="m405.526,324.236c-14.362,0-26.006,11.643-26.006,26.006s11.643,26.006,26.006,26.006,26.006-11.643,26.006-26.006-11.643-26.006-26.006-26.006Zm0,0v51.909m-25.955-25.904h51.909" fill="none" stroke="#000" stroke-miterlimit="10"/>
  <g>
    <path d="m651.668,391.336c-5.836,3.537-10.868,5.907-11.239,5.296-.371-.612,4.06-3.975,9.896-7.512,5.836-3.537,10.868-5.907,11.239-5.296.371.612-4.06,3.975-9.896,7.512Z" fill="#231f20" stroke-width="0"/>
    <path d="m593.384,426.701c-5.836,3.537-10.868,5.908-11.239,5.296s4.06-3.975,9.896-7.512c5.836-3.537,10.868-5.908,11.239-5.296.371.612-4.06,3.975-9.896,7.512Z" fill="#231f20" stroke-width="0"/>
  </g>
  <g>
    <path d="m648.027,285.304c-.263-.595.005-1.291.6-1.554s1.291.005,1.554.6c.263.595-.005,1.291-.6,1.554s-1.291-.005-1.554-.6Z" fill="#231f20" stroke-width="0"/>
    <path d="m643.7,287.221c-.263-.595.005-1.291.6-1.554s1.291.005,1.554.6-.005,1.291-.6,1.554-1.291-.005-1.554-.6Z" fill="#231f20" stroke-width="0"/>
    <path d="m639.372,289.137c-.263-.595.005-1.291.6-1.554.595-.263,1.291.005,1.554.6.263.595-.005,1.291-.6,1.554-.595.263-1.291-.005-1.554-.6Z" fill="#231f20" stroke-width="0"/>
    <path d="m635.044,291.054c-.263-.595.005-1.291.6-1.554.595-.263,1.291.005,1.554.6.263.595-.005,1.291-.6,1.554-.595.263-1.291-.005-1.554-.6Z" fill="#231f20" stroke-width="0"/>
    <path d="m630.716,292.971c-.263-.595.005-1.291.6-1.554s1.291.005,1.554.6c.263.595-.005,1.291-.6,1.554-.595.263-1.291-.005-1.554-.6Z" fill="#231f20" stroke-width="0"/>
    <path d="m626.389,294.888c-.263-.595.005-1.291.6-1.554s1.291.005,1.554.6c.263.595-.005,1.291-.6,1.554s-1.291-.005-1.554-.6Z" fill="#231f20" stroke-width="0"/>
    <path d="m622.061,296.805c-.263-.595.005-1.291.6-1.554.595-.263,1.291.005,1.554.6.263.595-.005,1.291-.6,1.554s-1.291-.005-1.554-.6Z" fill="#231f20" stroke-width="0"/>
    <path d="m617.733,298.721c-.263-.595.005-1.291.6-1.554.595-.263,1.291.005,1.554.6.263.595-.005,1.291-.6,1.554-.595.263-1.291-.005-1.554-.6Z" fill="#231f20" stroke-width="0"/>
    <path d="m613.405,300.638c-.263-.595.005-1.291.6-1.554.595-.264,1.291.005,1.554.6.263.595-.005,1.291-.6,1.554-.595.263-1.291-.005-1.554-.6Z" fill="#231f20" stroke-width="0"/>
    <path d="m609.078,302.555c-.263-.595.005-1.291.6-1.554s1.291.005,1.554.6c.263.595-.005,1.291-.6,1.554s-1.291-.005-1.554-.6Z" fill="#231f20" stroke-width="0"/>
    <path d="m604.75,304.472c-.263-.595.005-1.291.6-1.554s1.291.005,1.554.6c.263.595-.005,1.291-.6,1.554s-1.291-.005-1.554-.6Z" fill="#231f20" stroke-width="0"/>
    <path d="m600.422,306.388c-.263-.595.005-1.291.6-1.554.595-.263,1.291.005,1.554.6s-.005,1.291-.6,1.554-1.291-.005-1.554-.6Z" fill="#231f20" stroke-width="0"/>
    <path d="m596.094,308.305c-.263-.595.005-1.291.6-1.554.595-.263,1.291.005,1.554.6s-.005,1.291-.6,1.554c-.595.263-1.291-.005-1.554-.6Z" fill="#231f20" stroke-width="0"/>
    <path d="m591.766,310.222c-.263-.595.005-1.291.6-1.554s1.291.005,1.554.6c.263.595-.005,1.291-.6,1.554-.595.263-1.291-.005-1.554-.6Z" fill="#231f20" stroke-width="0"/>
    <path d="m587.439,312.139c-.263-.595.005-1.291.6-1.554s1.291.005,1.554.6c.263.595-.005,1.291-.6,1.554s-1.291-.005-1.554-.6Z" fill="#231f20" stroke-width="0"/>
    <path d="m583.111,314.055c-.263-.595.005-1.291.6-1.554s1.291.005,1.554.6c.263.595-.005,1.291-.6,1.554-.595.264-1.291-.005-1.554-.6Z" fill="#231f20" stroke-width="0"/>
    <path d="m578.783,315.972c-.263-.595.005-1.291.6-1.554.595-.263,1.291.005,1.554.6.263.595-.005,1.291-.6,1.554-.595.263-1.291-.005-1.554-.6Z" fill="#231f20" stroke-width="0"/>
    <path d="m574.455,317.889c-.263-.595.005-1.291.6-1.554.595-.263,1.291.005,1.554.6.263.595-.005,1.291-.6,1.554-.595.263-1.291-.005-1.554-.6Z" fill="#231f20" stroke-width="0"/>
    <path d="m570.128,319.806c-.263-.595.005-1.291.6-1.554.595-.263,1.291.005,1.554.6.263.595-.005,1.29-.6,1.554s-1.291-.005-1.554-.6Z" fill="#231f20" stroke-width="0"/>
  </g>
  <g>
    <g>
      <path d="m131.048,345.125c28.345-8.152,43.019-12.372,43.019-12.372" fill="none" stroke="#231f20" stroke-miterlimit="10" stroke-width=".188"/>
      <path d="m130.534,343.336c28.345-8.152,43.019-12.372,43.019-12.372" fill="none" stroke="#231f20" stroke-miterlimit="10" stroke-width=".188"/>
      <path d="m185.988,329.324c28.345-8.152,43.019-12.372,43.019-12.372" fill="none" stroke="#231f20" stroke-miterlimit="10" stroke-width=".188"/>
      <path d="m185.473,327.536c28.345-8.152,43.019-12.372,43.019-12.372" fill="none" stroke="#231f20" stroke-miterlimit="10" stroke-width=".188"/>
      <path d="m242.687,313.018c28.345-8.152,43.019-12.372,43.019-12.372" fill="none" stroke="#231f20" stroke-miterlimit="10" stroke-width=".188"/>
      <path d="m242.173,311.229c28.345-8.152,43.019-12.372,43.019-12.372" fill="none" stroke="#231f20" stroke-miterlimit="10" stroke-width=".188"/>
      <path d="m297.627,297.217c28.345-8.152,43.019-12.372,43.019-12.372" fill="none" stroke="#231f20" stroke-miterlimit="10" stroke-width=".188"/>
      <path d="m297.112,295.429c28.345-8.152,43.019-12.372,43.019-12.372" fill="none" stroke="#231f20" stroke-miterlimit="10" stroke-width=".188"/>
    </g>
    <g>
      <path d="m149.514,334.727c28.345-8.152,43.019-12.372,43.019-12.372" fill="none" stroke="#231f20" stroke-miterlimit="10" stroke-width=".188"/>
      <path d="m149,332.938c28.345-8.152,43.019-12.372,43.019-12.372" fill="none" stroke="#231f20" stroke-miterlimit="10" stroke-width=".188"/>
      <path d="m204.454,318.927c28.345-8.152,43.019-12.372,43.019-12.372" fill="none" stroke="#231f20" stroke-miterlimit="10" stroke-width=".188"/>
      <path d="m203.939,317.138c28.345-8.152,43.019-12.372,43.019-12.372" fill="none" stroke="#231f20" stroke-miterlimit="10" stroke-width=".188"/>
      <path d="m261.154,302.62c28.345-8.152,43.019-12.372,43.019-12.372" fill="none" stroke="#231f20" stroke-miterlimit="10" stroke-width=".188"/>
      <path d="m260.639,300.831c28.345-8.152,43.019-12.372,43.019-12.372" fill="none" stroke="#231f20" stroke-miterlimit="10" stroke-width=".188"/>
      <path d="m316.093,286.819c28.345-8.152,43.019-12.372,43.019-12.372" fill="none" stroke="#231f20" stroke-miterlimit="10" stroke-width=".188"/>
      <path d="m315.579,285.031c28.345-8.152,43.019-12.372,43.019-12.372" fill="none" stroke="#231f20" stroke-miterlimit="10" stroke-width=".188"/>
    </g>
  </g>
  <polyline points="412.368 134.596 413.632 142.302 395.057 145.349 393.793 137.642 375.702 140.609 376.966 148.315 358.488 151.346 357.225 143.639 336.425 147.051 337.689 154.757 261.746 167.211 260.482 159.505 184.636 171.944 185.9 179.65 110.054 192.089 108.989 185.592" fill="none" stroke="#231f20" stroke-miterlimit="10" stroke-width=".663"/>
  <path d="m438.717,849.814c-2.622-6.278-2.766-10.892-.955-17.287,1.811-6.395,4.381-9.01,4.329-17.904s-6.058-16.698-11.713-25.854c-5.655-9.156-14.521-8.923-17.493-7.73-2.972,1.193-10.849,1.832-13.464-.738s-24.821-9.584-34.199-11.499c-9.378-1.915-36.764-6.631-36.764-6.631-1.172-.524-2.23-.988-3.137-1.376-8.638-3.69-22.565-9.269-21.608-10.569s1.423-3.294,4.244-3.722,4.603-2.622,4.032-6.382-1.884-12.409-11.857-21.089-10.868-9.506-16.015-16.803c-5.147-7.297-11.952-16.651-19.856-19.298s-7.991-9.558-12.881-15.163c-4.89-5.605-13.854-12.707-18.87-20.409-5.016-7.702-2.402-13.292-3.018-16.083s-6.481-12.288-5.584-20.31,7.006-26.068,5.455-31.218c-1.551-5.15-5.058-15.581-6.085-22.35-1.027-6.768-1.993-15.662,3.419-18.022,5.412-2.36,9.258-2.367,10.965-10.128,1.707-7.761-.482-12.044-.079-18.261.382-5.899-58.685-131.836-84.522-140.17-26.231-8.462-42.308-21.154-42.308-21.154l-2.157-2.044" fill="none" stroke="#231f20" stroke-miterlimit="10" stroke-width=".75"/>
  <g>
    <rect x="-396.473" y="-1258.288" width="3386.58" height="2514.089" transform="translate(1298.061 1295.574) rotate(-90)" fill="none" stroke="#231f20" stroke-linecap="round" stroke-miterlimit="10" stroke-width="7"/>
    <rect x="-379.506" y="-1241.166" width="3353.392" height="2482.402" transform="translate(1297.155 1297.225) rotate(-90)" fill="none" stroke="#231f20" stroke-linecap="round" stroke-miterlimit="10" stroke-width="3"/>
    <rect x="-341.031" y="-1205.548" width="3275.615" height="2412.095" transform="translate(1296.278 1297.276) rotate(-90)" fill="none" stroke="#231f20" stroke-linecap="round" stroke-miterlimit="10"/>
    <rect x="-323.163" y="-1188.185" width="3239.88" height="2376.261" transform="translate(1296.831 1296.723) rotate(-90)" fill="none" stroke="#231f20" stroke-linecap="round" stroke-miterlimit="10"/>
    <g>
      <g>
        <line x1="90.729" y1="395.964" x2="108.646" y2="395.964" fill="none" stroke="#231f20" stroke-linecap="round" stroke-miterlimit="10"/>
        <line x1="90.729" y1="324.126" x2="108.646" y2="324.126" fill="none" stroke="#231f20" stroke-linecap="round" stroke-miterlimit="10"/>
        <line x1="90.729" y1="252.071" x2="108.646" y2="252.071" fill="none" stroke="#231f20" stroke-linecap="round" stroke-miterlimit="10"/>
        <line x1="90.729" y1="180.222" x2="108.646" y2="180.222" fill="none" stroke="#231f20" stroke-linecap="round" stroke-miterlimit="10"/>
        <line x1="90.729" y1="108.067" x2="108.646" y2="108.067" fill="none" stroke="#231f20" stroke-linecap="round" stroke-miterlimit="10"/>
        <line x1="90.729" y1="36.146" x2="108.646" y2="36.146" fill="none" stroke="#231f20" stroke-linecap="round" stroke-miterlimit="10"/>
      </g>
      <rect x="27.958" y="394.235" width="144" height="3.6" transform="translate(-296.077 495.993) rotate(-90)" fill="#231f20" stroke-width="0"/>
      <rect x="27.688" y="175.798" width="144" height="8.773" transform="translate(-80.497 279.872) rotate(-90)" fill="#231f20" stroke-width="0"/>
    </g>
  </g>
</svg>