<?xml version="1.0" encoding="UTF-8"?>
<svg id="a" data-name="Layer 1" xmlns="http://www.w3.org/2000/svg" width="9.002in" height="6.002in" viewBox="0 0 648.177 432.177">
  <g>
    <g>
      <path d="m396.841-2.918c-9.408,3.039-17.725,5.944-24.77,8.831-7.053,2.87-12.841,5.703-17.382,8.203-4.545,2.499-7.846,4.655-10.028,6.129-2.154,1.525-3.24,2.294-3.24,2.294" fill="none" stroke="#231f20" stroke-miterlimit="10" stroke-width=".25"/>
      <path d="m397.608-.558c-9.39,3.033-17.634,5.914-24.599,8.769-6.972,2.837-12.666,5.625-17.125,8.08-4.462,2.454-7.691,4.562-9.824,6.004-2.104,1.49-3.165,2.241-3.165,2.241" fill="none" stroke="#231f20" stroke-miterlimit="10" stroke-width=".25"/>
      <path d="m328.431,34.131c-7.057,7.663-11.815,15.729-14.774,23.149-2.966,7.444-4.052,14.239-4.261,19.68-.16,2.699-.031,5.211.309,7.446.346,2.233.944,4.162,1.613,5.659.671,1.528,1.389,2.618,1.892,3.302.51.689.798,1.015.798,1.015" fill="none" stroke="#231f20" stroke-miterlimit="10" stroke-width=".25"/>
      <path d="m330.258,35.81c-6.851,7.438-11.446,15.245-14.295,22.385-2.854,7.166-3.887,13.666-4.088,18.862-.315,5.176.507,9.398,1.713,12.008.582,1.324,1.194,2.255,1.628,2.842.437.59.683.868.683.868" fill="none" stroke="#231f20" stroke-miterlimit="10" stroke-width=".25"/>
    </g>
    <g>
      <path d="m447.095-14.904c-8.911,4.6-17.107,7.665-24.164,10.204-7.068,2.515-13.035,4.403-17.805,5.954-9.549,3.064-14.348,4.7-14.348,4.7" fill="none" stroke="#231f20" stroke-miterlimit="10" stroke-width=".25"/>
      <path d="m448.241-12.702c-9.098,4.695-17.36,7.778-24.477,10.34-7.122,2.534-13.102,4.426-17.875,5.978-9.549,3.064-14.313,4.688-14.313,4.688" fill="none" stroke="#231f20" stroke-miterlimit="10" stroke-width=".25"/>
      <path d="m373.087,12.547c-9.009,3.742-16.582,7.748-22.722,11.733-6.139,3.99-10.845,7.935-14.321,11.359-3.481,3.434-5.812,6.302-7.304,8.257-.766.964-1.263,1.746-1.633,2.24-.358.503-.538.756-.538.756" fill="none" stroke="#231f20" stroke-miterlimit="10" stroke-width=".25"/>
      <path d="m374.043,14.837c-8.897,3.696-16.326,7.63-22.326,11.524-5.998,3.898-10.574,7.738-13.934,11.049-3.372,3.326-5.627,6.1-7.068,7.989-.741.932-1.219,1.687-1.577,2.165-.346.486-.52.729-.52.729" fill="none" stroke="#231f20" stroke-miterlimit="10" stroke-width=".25"/>
      <path d="m319.175,61.115c-1.645,4.469-2.629,8.854-3.048,12.992-.153,1.031-.157,2.055-.216,3.056-.062,1.003-.085,1.989-.052,2.938.049,1.902.269,3.68.703,5.281.436,1.61,1.077,3.012,1.933,4.171.853,1.167,1.889,2.088,2.97,2.692,1.082.612,2.217.896,3.226.871,1.039-.021,2.048-.324,2.846-.786,1.641-.916,2.339-2.421,2.249-3.499-.051-1.204-.729-2.229-1.313-2.765-.618-.536-1.132-.68-1.452-.724-.325-.049-.489-.008-.49-.026" fill="none" stroke="#231f20" stroke-miterlimit="10" stroke-width=".25"/>
      <path d="m321.505,61.969c-1.575,4.279-2.511,8.458-2.909,12.391-.148.981-.148,1.952-.205,2.903-.06.953-.082,1.889-.051,2.768.045,1.765.25,3.345.617,4.702.184.679.408,1.301.669,1.869.249.541.543,1.036.873,1.488.659.903,1.441,1.58,2.177,1.99.743.422,1.447.572,1.967.556.587-.009,1.22-.196,1.666-.461.944-.542,1.033-1.157.999-1.233.012-.34-.317-.886-.504-1.039-.1-.06-.153-.13-.166-.11,0,0-.01-.011-.001-.019.015-.036.029-.074.04-.115.012-.054.023-.103.033-.146.012-.107.007-.033.007-.033.002.007.002.005.002.005" fill="none" stroke="#231f20" stroke-miterlimit="10" stroke-width=".25"/>
    </g>
  </g>
  <g>
    <g>
      <line x1="605.466" y1="29.097" x2="617.503" y2="21.188" fill="none" stroke="#231f20" stroke-miterlimit="10"/>
      <path d="m598.557,9.966c3.109-1.785,6.217-3.571,9.326-5.356" fill="none" stroke="#231f20" stroke-miterlimit="10"/>
      <line x1="611.142" y1="20.386" x2="615.463" y2="17.653" fill="none" stroke="#231f20" stroke-miterlimit="10"/>
      <path d="m605.076,10.691c1.514-.95,3.027-1.901,4.541-2.851" fill="none" stroke="#231f20" stroke-miterlimit="10"/>
      <path d="m607.155,14.075c1.473-.932,2.947-1.864,4.42-2.796" fill="none" stroke="#231f20" stroke-miterlimit="10"/>
      <line x1="609.227" y1="17.32" x2="613.5" y2="14.512" fill="none" stroke="#231f20" stroke-miterlimit="10"/>
    </g>
    <path d="m645.382,75.771c2.919-2.082,5.837-4.163,8.756-6.245" fill="none" stroke="#231f20" stroke-miterlimit="10"/>
  </g>
  <polyline points="591.256 125.606 594.85 130.276 579.148 142.361 575.553 137.69 560.26 149.46 563.854 154.131 548.234 166.152 544.639 161.482 527.056 175.014 530.65 179.685 466.451 229.093 462.856 224.423 398.739 273.768 402.333 278.438 338.215 327.784 335.185 323.846" fill="none" stroke="#231f20" stroke-miterlimit="10" stroke-width=".5"/>
  <g>
    <g>
      <path d="m688.771,192.116c-71.833,74.375-109.02,112.878-109.02,112.878" fill="none" stroke="#231f20" stroke-miterlimit="10" stroke-width=".125"/>
      <path d="m689.663,192.978c-71.833,74.375-109.02,112.878-109.02,112.878" fill="none" stroke="#231f20" stroke-miterlimit="10" stroke-width=".125"/>
      <path d="m549.541,336.272c-71.833,74.375-109.02,112.878-109.02,112.878" fill="none" stroke="#231f20" stroke-miterlimit="10" stroke-width=".125"/>
      <path d="m550.434,337.134c-71.833,74.375-109.02,112.878-109.02,112.878" fill="none" stroke="#231f20" stroke-miterlimit="10" stroke-width=".125"/>
    </g>
    <g>
      <path d="m640.893,246.38c-71.833,74.375-109.02,112.878-109.02,112.878" fill="none" stroke="#231f20" stroke-miterlimit="10" stroke-width=".125"/>
      <path d="m641.785,247.242c-71.833,74.375-109.02,112.878-109.02,112.878" fill="none" stroke="#231f20" stroke-miterlimit="10" stroke-width=".125"/>
      <path d="m501.663,390.536c-71.833,74.375-109.02,112.878-109.02,112.878" fill="none" stroke="#231f20" stroke-miterlimit="10" stroke-width=".125"/>
      <path d="m502.556,391.397c-71.833,74.375-109.02,112.878-109.02,112.878" fill="none" stroke="#231f20" stroke-miterlimit="10" stroke-width=".125"/>
    </g>
  </g>
  <polyline points="740.72 310.974 744.756 313.911 737.675 323.639 733.64 320.701 726.743 330.176 730.779 333.114 723.735 342.791 719.699 339.853 711.77 350.746 715.806 353.684 686.857 393.456 682.821 390.519 653.908 430.24 657.944 433.178 629.031 472.9 625.628 470.423" fill="none" stroke="#231f20" stroke-miterlimit="10" stroke-width=".424"/>
  <g>
    <path d="m469.523,69.833c-5.836,3.537-10.868,5.908-11.239,5.296-.371-.612,4.06-3.975,9.896-7.512,5.836-3.537,10.868-5.908,11.239-5.296.371.612-4.06,3.975-9.896,7.512Z" fill="#231f20" stroke-width="0"/>
    <path d="m409.968,105.949c-5.836,3.537-10.868,5.908-11.239,5.296-.371-.612,4.06-3.975,9.896-7.512,5.836-3.537,10.868-5.908,11.239-5.296.371.612-4.06,3.975-9.896,7.512Z" fill="#231f20" stroke-width="0"/>
    <path d="m347.726,143.711c-5.836,3.537-10.868,5.908-11.239,5.296-.371-.612,4.06-3.975,9.896-7.512,5.836-3.537,10.868-5.908,11.239-5.296.371.612-4.06,3.975-9.896,7.512Z" fill="#231f20" stroke-width="0"/>
    <path d="m281.387,183.939c-5.836,3.537-10.868,5.908-11.239,5.296s4.06-3.975,9.896-7.512c5.836-3.537,10.868-5.907,11.239-5.296.371.612-4.06,3.975-9.896,7.512Z" fill="#231f20" stroke-width="0"/>
    <path d="m593.384-5.299c-5.836,3.537-10.868,5.908-11.239,5.296s4.06-3.975,9.896-7.512c5.836-3.537,10.868-5.908,11.239-5.296.371.612-4.06,3.975-9.896,7.512Z" fill="#231f20" stroke-width="0"/>
    <path d="m529.871,33.215c-5.836,3.537-10.868,5.908-11.239,5.296s4.06-3.975,9.896-7.512c5.836-3.537,10.868-5.907,11.239-5.296.371.612-4.06,3.975-9.896,7.512Z" fill="#231f20" stroke-width="0"/>
  </g>
  <g>
    <path d="m112.963,90.285c.266.594,0,1.291-.594,1.556s-1.291,0-1.556-.594c-.266-.594,0-1.291.594-1.556.594-.266,1.291,0,1.556.594Z" fill="#231f20" stroke-width="0"/>
    <path d="m117.284,88.353c.266.594,0,1.291-.594,1.556-.594.266-1.291,0-1.556-.594-.266-.594,0-1.291.594-1.556.594-.266,1.291,0,1.556.594Z" fill="#231f20" stroke-width="0"/>
    <path d="m121.604,86.42c.266.594,0,1.291-.594,1.556s-1.291,0-1.556-.594,0-1.291.594-1.556c.594-.266,1.291,0,1.556.594Z" fill="#231f20" stroke-width="0"/>
    <path d="m125.924,84.487c.266.594,0,1.291-.594,1.556-.594.266-1.291,0-1.556-.594-.266-.594,0-1.291.594-1.556.594-.266,1.291,0,1.556.594Z" fill="#231f20" stroke-width="0"/>
    <path d="m130.244,82.554c.266.594,0,1.291-.594,1.556-.594.266-1.291,0-1.556-.594s0-1.291.594-1.556c.594-.266,1.291,0,1.556.594Z" fill="#231f20" stroke-width="0"/>
    <path d="m134.565,80.622c.266.594,0,1.291-.594,1.556-.594.266-1.291,0-1.556-.594-.266-.594,0-1.291.594-1.556.594-.266,1.291,0,1.556.594Z" fill="#231f20" stroke-width="0"/>
    <path d="m138.885,78.689c.266.594,0,1.291-.594,1.556s-1.291,0-1.556-.594c-.266-.594,0-1.291.594-1.556s1.291,0,1.556.594Z" fill="#231f20" stroke-width="0"/>
    <path d="m143.205,76.756c.266.594,0,1.291-.594,1.556-.594.266-1.291,0-1.556-.594-.266-.594,0-1.291.594-1.556s1.291,0,1.556.594Z" fill="#231f20" stroke-width="0"/>
    <path d="m147.525,74.823c.266.594,0,1.291-.594,1.556-.594.266-1.291,0-1.556-.594s0-1.291.594-1.556c.594-.266,1.291,0,1.556.594Z" fill="#231f20" stroke-width="0"/>
    <path d="m151.846,72.891c.266.594,0,1.291-.594,1.556s-1.291,0-1.556-.594c-.266-.594,0-1.291.594-1.556.594-.266,1.291,0,1.556.594Z" fill="#231f20" stroke-width="0"/>
    <path d="m156.166,70.958c.266.594,0,1.291-.594,1.556s-1.291,0-1.556-.594c-.266-.594,0-1.291.594-1.556s1.291,0,1.556.594Z" fill="#231f20" stroke-width="0"/>
    <path d="m160.486,69.025c.266.594,0,1.291-.594,1.556-.594.266-1.291,0-1.556-.594-.266-.594,0-1.291.594-1.556s1.291,0,1.556.594Z" fill="#231f20" stroke-width="0"/>
    <path d="m164.807,67.092c.266.594,0,1.291-.594,1.556-.594.266-1.291,0-1.556-.594s0-1.291.594-1.556c.594-.266,1.291,0,1.556.594Z" fill="#231f20" stroke-width="0"/>
    <path d="m169.127,65.16c.266.594,0,1.291-.594,1.556s-1.291,0-1.556-.594c-.266-.594,0-1.291.594-1.556.594-.266,1.291,0,1.556.594Z" fill="#231f20" stroke-width="0"/>
    <path d="m173.447,63.227c.266.594,0,1.291-.594,1.556-.594.266-1.291,0-1.556-.594-.266-.594,0-1.291.594-1.556.594-.266,1.291,0,1.556.594Z" fill="#231f20" stroke-width="0"/>
    <path d="m177.767,61.294c.266.594,0,1.291-.594,1.556-.594.266-1.291,0-1.556-.594s0-1.291.594-1.556,1.291,0,1.556.594Z" fill="#231f20" stroke-width="0"/>
    <path d="m182.088,59.361c.266.594,0,1.291-.594,1.556-.594.266-1.291,0-1.556-.594-.266-.594,0-1.291.594-1.556.594-.266,1.291,0,1.556.594Z" fill="#231f20" stroke-width="0"/>
    <path d="m186.408,57.429c.266.594,0,1.291-.594,1.556s-1.291,0-1.556-.594,0-1.291.594-1.556c.594-.266,1.291,0,1.556.594Z" fill="#231f20" stroke-width="0"/>
    <path d="m190.728,55.496c.266.594,0,1.291-.594,1.556s-1.291,0-1.556-.594c-.266-.594,0-1.291.594-1.556s1.291,0,1.556.594Z" fill="#231f20" stroke-width="0"/>
    <path d="m195.048,53.563c.266.594,0,1.291-.594,1.556-.594.266-1.291,0-1.556-.594s0-1.291.594-1.556,1.291,0,1.556.594Z" fill="#231f20" stroke-width="0"/>
    <path d="m199.369,51.63c.266.594,0,1.291-.594,1.556-.594.266-1.291,0-1.556-.594-.266-.594,0-1.291.594-1.556.594-.266,1.291,0,1.556.594Z" fill="#231f20" stroke-width="0"/>
    <path d="m203.689,49.698c.266.594,0,1.291-.594,1.556s-1.291,0-1.556-.594,0-1.291.594-1.556c.594-.266,1.291,0,1.556.594Z" fill="#231f20" stroke-width="0"/>
    <path d="m208.009,47.765c.266.594,0,1.291-.594,1.556s-1.291,0-1.556-.594c-.266-.594,0-1.291.594-1.556s1.291,0,1.556.594Z" fill="#231f20" stroke-width="0"/>
    <path d="m212.329,45.832c.266.594,0,1.291-.594,1.556-.594.266-1.291,0-1.556-.594s0-1.291.594-1.556,1.291,0,1.556.594Z" fill="#231f20" stroke-width="0"/>
    <path d="m216.65,43.899c.266.594,0,1.291-.594,1.556-.594.266-1.291,0-1.556-.594-.266-.594,0-1.291.594-1.556.594-.266,1.291,0,1.556.594Z" fill="#231f20" stroke-width="0"/>
    <path d="m220.97,41.967c.266.594,0,1.291-.594,1.556-.594.266-1.291,0-1.556-.594s0-1.291.594-1.556c.594-.266,1.291,0,1.556.594Z" fill="#231f20" stroke-width="0"/>
    <path d="m225.29,40.034c.266.594,0,1.291-.594,1.556s-1.291,0-1.556-.594c-.266-.594,0-1.291.594-1.556s1.291,0,1.556.594Z" fill="#231f20" stroke-width="0"/>
    <path d="m229.61,38.101c.266.594,0,1.291-.594,1.556-.594.266-1.291,0-1.556-.594-.266-.594,0-1.291.594-1.556.594-.266,1.291,0,1.556.594Z" fill="#231f20" stroke-width="0"/>
    <path d="m233.931,36.168c.266.594,0,1.291-.594,1.556-.594.266-1.291,0-1.556-.594s0-1.291.594-1.556c.594-.266,1.291,0,1.556.594Z" fill="#231f20" stroke-width="0"/>
    <path d="m238.251,34.236c.266.594,0,1.291-.594,1.556-.594.266-1.291,0-1.556-.594-.266-.594,0-1.291.594-1.556.594-.266,1.291,0,1.556.594Z" fill="#231f20" stroke-width="0"/>
    <path d="m242.571,32.303c.266.594,0,1.291-.594,1.556s-1.291,0-1.556-.594,0-1.291.594-1.556,1.291,0,1.556.594Z" fill="#231f20" stroke-width="0"/>
    <path d="m246.892,30.37c.266.594,0,1.291-.594,1.556-.594.266-1.291,0-1.556-.594-.266-.594,0-1.291.594-1.556s1.291,0,1.556.594Z" fill="#231f20" stroke-width="0"/>
    <path d="m251.212,28.438c.266.594,0,1.291-.594,1.556-.594.266-1.291,0-1.556-.594s0-1.291.594-1.556c.594-.266,1.291,0,1.556.594Z" fill="#231f20" stroke-width="0"/>
    <path d="m255.532,26.505c.266.594,0,1.291-.594,1.556s-1.291,0-1.556-.594c-.266-.594,0-1.291.594-1.556.594-.266,1.291,0,1.556.594Z" fill="#231f20" stroke-width="0"/>
    <path d="m259.852,24.572c.266.594,0,1.291-.594,1.556-.594.266-1.291,0-1.556-.594s0-1.291.594-1.556,1.291,0,1.556.594Z" fill="#231f20" stroke-width="0"/>
    <path d="m264.173,22.639c.266.594,0,1.291-.594,1.556s-1.291,0-1.556-.594c-.266-.594,0-1.291.594-1.556s1.291,0,1.556.594Z" fill="#231f20" stroke-width="0"/>
    <path d="m268.493,20.706c.266.594,0,1.291-.594,1.556s-1.291,0-1.556-.594,0-1.291.594-1.556,1.291,0,1.556.594Z" fill="#231f20" stroke-width="0"/>
    <path d="m272.813,18.774c.266.594,0,1.291-.594,1.556-.594.266-1.291,0-1.556-.594-.266-.594,0-1.291.594-1.556s1.291,0,1.556.594Z" fill="#231f20" stroke-width="0"/>
    <path d="m277.133,16.841c.266.594,0,1.291-.594,1.556-.594.266-1.291,0-1.556-.594s0-1.291.594-1.556c.594-.266,1.291,0,1.556.594Z" fill="#231f20" stroke-width="0"/>
    <path d="m281.454,14.908c.266.594,0,1.291-.594,1.556s-1.291,0-1.556-.594c-.266-.594,0-1.291.594-1.556s1.291,0,1.556.594Z" fill="#231f20" stroke-width="0"/>
    <path d="m285.774,12.975c.266.594,0,1.291-.594,1.556-.594.266-1.291,0-1.556-.594-.266-.594,0-1.291.594-1.556.594-.266,1.291,0,1.556.594Z" fill="#231f20" stroke-width="0"/>
    <path d="m290.094,11.043c.266.594,0,1.291-.594,1.556s-1.291,0-1.556-.594,0-1.291.594-1.556c.594-.266,1.291,0,1.556.594Z" fill="#231f20" stroke-width="0"/>
    <path d="m294.414,9.11c.266.594,0,1.291-.594,1.556-.594.266-1.291,0-1.556-.594-.266-.594,0-1.291.594-1.556.594-.266,1.291,0,1.556.594Z" fill="#231f20" stroke-width="0"/>
    <path d="m298.735,7.177c.266.594,0,1.291-.594,1.556s-1.291,0-1.556-.594,0-1.291.594-1.556,1.291,0,1.556.594Z" fill="#231f20" stroke-width="0"/>
    <path d="m303.055,5.244c.266.594,0,1.291-.594,1.556s-1.291,0-1.556-.594c-.266-.594,0-1.291.594-1.556s1.291,0,1.556.594Z" fill="#231f20" stroke-width="0"/>
    <path d="m307.375,3.312c.266.594,0,1.291-.594,1.556-.594.266-1.291,0-1.556-.594s0-1.291.594-1.556,1.291,0,1.556.594Z" fill="#231f20" stroke-width="0"/>
    <path d="m311.695,1.379c.266.594,0,1.291-.594,1.556s-1.291,0-1.556-.594c-.266-.594,0-1.291.594-1.556.594-.266,1.291,0,1.556.594Z" fill="#231f20" stroke-width="0"/>
  </g>
  <g>
    <path d="m168.108,249.137c1.376-.833,2.792-1.013,3.163-.401s-.444,1.784-1.82,2.618c-1.376.834-2.792,1.013-3.163.401s.444-1.784,1.82-2.618Z" fill="#231f20" stroke-width="0"/>
    <path d="m182.137,240.608c1.376-.834,2.792-1.013,3.163-.401.371.612-.444,1.784-1.82,2.617-1.376.834-2.792,1.013-3.163.402-.371-.612.444-1.784,1.82-2.618Z" fill="#231f20" stroke-width="0"/>
    <path d="m196.793,231.681c1.376-.834,2.792-1.013,3.163-.402.371.612-.444,1.784-1.82,2.618-1.376.834-2.792,1.013-3.163.401-.371-.612.444-1.784,1.82-2.617Z" fill="#231f20" stroke-width="0"/>
    <path d="m212.422,222.183c1.376-.834,2.792-1.013,3.163-.401s-.444,1.784-1.82,2.618c-1.376.834-2.792,1.013-3.163.401s.444-1.784,1.82-2.618Z" fill="#231f20" stroke-width="0"/>
    <path d="m111.185,283.78c1.376-.834,2.792-1.013,3.163-.401.371.612-.444,1.784-1.82,2.617-1.376.834-2.792,1.013-3.163.402-.371-.612.444-1.784,1.82-2.618Z" fill="#231f20" stroke-width="0"/>
    <path d="m125.214,275.251c1.376-.833,2.792-1.013,3.163-.401.371.612-.444,1.784-1.82,2.618-1.376.834-2.792,1.013-3.163.401s.444-1.784,1.82-2.618Z" fill="#231f20" stroke-width="0"/>
    <path d="m138.937,266.89c1.376-.834,2.792-1.013,3.163-.401.371.612-.444,1.784-1.82,2.617-1.376.834-2.792,1.013-3.163.402-.371-.612.444-1.784,1.82-2.618Z" fill="#231f20" stroke-width="0"/>
    <path d="m153.899,257.795c1.376-.833,2.792-1.013,3.163-.401.371.612-.444,1.784-1.82,2.618-1.376.834-2.792,1.013-3.163.401-.371-.612.444-1.784,1.82-2.618Z" fill="#231f20" stroke-width="0"/>
  </g>
  <path d="m321.374,340.014c61.078-6.289,78.21,52.003,78.012,61.468s.198,19.486,4.154,29.089,6.726,11.274,9.891,15.728c3.165,4.454,10.881,2.505,16.024.557,5.144-1.949,14.046-.696,18.2-.696s8.507,6.263,19.585,8.908,18.992,5.011,19.783,11.135-14.244,5.985-25.916,5.985-7.32,6.959-5.737,10.856,5.935,7.794,5.539,10.578c-.396,2.784.198,8.212,5.737,16.563,5.539,8.351,9.298,3.479,15.826-1.392,6.528-4.872,8.507.278,22.75,2.087,14.244,1.81,15.31-7.141,16.717-14.466,1.407-7.326,6.191-6.336,9.005-5.544s.844,3.96,16.04,5.544c15.196,1.583,21.95-10.89,29.548-26.729,7.598-15.839,22.794-46.527,22.794-51.675s7.598-4.95,7.598-14.453-1.688-14.849,8.724-17.621c10.412-2.772,16.04,5.742,21.669,14.849s1.97,15.641-2.533,20.393c-4.503,4.752-7.88,16.433-10.259,24.552-2.38,8.119-10.284,33.657-8.595,36.825s13.789,14.057,11.256,19.601c-2.533,5.544-2.661,13.268.281,17.027,2.943,3.759,19.699,16.631,28.704,21.581,9.005,4.95,15.759,4.158,22.794,9.306,7.035,5.147,3.377,13.859.563,16.829-2.814,2.97-1.006,4.788-17.509,6.078-16.504,1.291-20.905,9.805-22.005,20.384-1.1,10.579,11.003,2.838,13.937.258,2.934-2.581,15.037-3.871,7.335,2.838-7.702,6.708-3.301,11.353,4.401,13.159,7.702,1.806,10.636-6.451,20.171-12.127,9.536-5.676,14.67,1.291,19.438,4.645,4.768,3.354,2.934,15.482,8.069,30.964,5.134,15.481,13.203,4.128,15.404-1.807,2.201-5.935,2.934-18.836,3.301-25.287s7.335-14.45,6.602-18.836c-.733-4.387-.367-19.868.734-24.771,1.1-4.902,5.501-10.321,13.937-10.837,8.435-.516,10.269,8.257,10.636,11.095.367,2.838,4.768,3.612,6.235-4.128,1.467-7.741-1.467-10.837-4.401-16.772s2.934-9.805,12.103-9.547c9.169.258,23.472,2.322,36.308,2.581,12.836.258,12.836-5.935,11.003-14.45-1.834-8.515,1.179-11.787,3.782-14.076,2.603-2.29,3.471-6.868,4.556-10.531,1.085-3.664,3.471-13.126,11.064-21.827,7.593-8.7,7.593-16.179,9.979-23.505,2.386-7.326,14.969-9.921,23.43-9.311s19.525,5.342,12.366,13.89c-7.159,8.547,3.471,10.073,10.413,11.142,6.942,1.068,20.176-.306,28.202-10.837,8.027-10.532,13.45-12.363,20.826-11.295s6.291,5.953,6.074,7.937c-.217,1.984-9.762,3.968-3.471,7.479,6.291,3.51,14.535,1.526,24.081-.458s5.641-6.716,3.254-14.042,3.254-10.684,11.498-10.684,18.223,4.121,18.006,14.805c-.217,10.684-8.895,12.974-11.715,14.042s-11.281,0-27.552,10.531c-16.271,10.532,2.169,18.011-16.705,23.353-18.874,5.342-9.112,9.005.434,10.99,9.545,1.984,18.874.458,28.853,1.679,9.979,1.221,18.223,6.258,25.382,5.953,7.159-.305,10.847-7.174,10.847-11.447s1.085-9.311,4.773-9.921c3.688-.611,14.318-1.374,18.44,2.442,4.122,3.816,15.186,10.684,21.694,13.89,6.508,3.205,11.715,12.363,11.715,12.363,0,0,49.246,1.526,49.029-2.595-.217-4.121,2.169-5.953,10.847-11.6,8.678-5.647,3.471-9.31,1.302-15.263s-4.556-10.379-1.736-16.942c2.82-6.563,10.196-15.11,16.271-22.437,6.074-7.326-3.905-9.158-6.508-9.005-2.603.153-11.932.153-25.382-.458-13.45-.611-19.091-1.221-26.684-3.511-7.593-2.29-8.027-9.005-7.376-13.584.651-4.579,8.461-9.616,13.016-10.379s14.535-2.595,18.874-10.684c4.339-8.089,8.461-9.311,13.884-10.379,5.424-1.068,9.545,2.595,10.847,4.273,1.302,1.679,4.773,10.532,11.932,13.737,7.159,3.205,20.541,5.955,28.856,12.324,8.315,6.37,4.989,17.029,5.173,20.149.185,3.12-1.109,10.53-10.716,17.939-9.608,7.41-6.652,11.31-4.25,17.679s-2.402,6.11-6.652,11.959c-4.25,5.85-5.913,15.08-2.032,21.839,3.88,6.76,14.597,2.21,14.597,20.02s9.238,5.72,15.336,1.04c6.097-4.68,18.292-16.77,30.487-18.979,12.195-2.21,12.934,2.73,16.814,7.41,3.88,4.68,15.705-.13,21.248.65,5.543.78,17.738,10.4,21.618,13.129,3.88,2.73,2.032,9.49-5.913,11.83-7.945,2.34-13.119,8.58-14.781,10.79-1.663,2.21,2.587,3.51-6.282,7.67-8.869,4.16-9.054,6.5-8.13,9.62.924,3.12,2.402,7.41,1.663,9.229-.739,1.82-1.478,3.77-7.206,4.939-5.728,1.17-8.869,13.39-.924,20.149,7.945,6.76,15.89,3.12,17.738-.13,1.848-3.25,6.097-4.81,9.977-8.06,3.88-3.25,2.217-14.299,3.695-19.239,1.478-4.94,7.021-7.02,11.64-7.8,4.619-.78,7.76-3.38,10.717-7.02,2.956-3.64,7.76-7.8,13.673-8.32,5.912-.52,12.195,3.64,17.368,5.33,5.173,1.69,6.467.78,13.119,2.08,6.652,1.3,7.206,7.15,7.391,10.53.185,3.379-2.772,9.619-8.315,11.179-5.543,1.56-12.749,4.81-24.205,9.88-11.456,5.069-23.096,11.049-22.172,16.509.924,5.459,2.217,4.419,14.781,7.799,12.564,3.38,9.608,8.32,7.945,10.919-1.663,2.6-8.869,6.5-19.031,1.69-10.162-4.81-16.814-2.6-21.987-1.43-5.174,1.17-10.347,4.94-19.031,8.45s-13.303,2.6-25.313,3.12-16.629,5.07-14.412,14.95c2.217,9.879,7.021,10.009,14.597,15.729,7.575,5.72,8.869,8.06,8.684,12.609-.185,4.55.739,6.89,3.511,8.71,2.771,1.82,4.25,2.34,7.76,5.07,3.51,2.729,2.956,5.589,2.402,11.829-.554,6.24,4.989,4.03,7.206,2.21,2.217-1.82,4.804-3.12,10.162-4.81,5.358-1.69,6.652,3.77,6.467,5.85-.185,2.08,1.293,8.32,4.434,13.52,3.141,5.2.554,6.24-1.293,7.8-1.848,1.56-3.88,4.68-3.511,6.239.37,1.56-.554,3.64-6.467,7.28-5.913,3.64-4.989,9.75,4.989,6.24,9.978-3.51,8.869,1.43,8.315,4.03-.554,2.6-11.086,18.459,22.727,20.799,33.812,2.34,32.519-6.5,38.432-10.01,5.913-3.51,6.467-14.299,15.151-18.589,8.684-4.29,21.987-2.6,32.704,4.55,10.717,7.149,11.64,12.089,16.999,17.549,5.358,5.46,11.456,4.55,19.77,1.3,8.315-3.25,14.966-2.86,19.585,1.3,4.619,4.16.554,8.58-7.576,13.52-8.13,4.939-6.652,9.359-2.956,14.429,3.695,5.07,20.879,6.5,24.02,6.89,3.141.39,5.543,1.17,9.054,4.42,3.511,3.25,2.402,9.62-6.467,11.7-8.869,2.08-13.303,2.99-23.096,9.229-9.793,6.24-13.488,9.75-17.368,11.439-3.88,1.69-17.922,3.77-29.378,11.049-11.456,7.28-7.945,13.649-5.173,19.239s16.26,5.98,23.281,5.07c7.021-.91-.924-5.46,15.336-2.08,16.26,3.38,22.172,9.75,31.226,15.859,9.054,6.11,22.357,3.9,26.237,1.17,3.88-2.729,9.978-10.009,21.803-14.949,11.825-4.94,11.456-15.079,7.945-21.189-3.511-6.11-5.173-11.05-2.032-15.209,3.141-4.16,8.684-9.879,14.597-22.359s16.26-12.609,20.14-12.089c3.88.52,5.173,12.739,4.25,17.809s14.78,13.624-4.434,15.469c-19.215,1.846-22.357,4.81-23.096,10.53-.739,5.72,2.771,4.939,10.347,12.739,7.576,7.8,31.411,11.569,51.181,13.779s9.054,15.209,2.587,19.109c-6.467,3.9-12.01-.91-19.401-5.2-7.391-4.29-12.01-1.17-14.227.52-2.217,1.689-14.597,11.309-22.911,16.769s-24.02,14.299-26.791,16.769c-2.771,2.47-5.173,5.07-3.695,8.45s11.825,1.95,17.183-1.95c5.358-3.9,11.64-9.75,17.738-9.75s7.575,3.51,9.423,9.879c1.848,6.37,6.097,7.67,13.488,7.02,7.391-.65,10.717-7.279,10.347-12.089-.37-4.81-1.293-10.14,7.021-10.009,8.315.13,9.423,7.02,10.717,13.649,1.293,6.629-5.913,7.54-11.271,12.999-5.358,5.46,4.619,11.31,7.206,12.87,2.587,1.56,4.983-.107,10.943,9.327,5.96,9.434,12.664,8.91,20.114,6.813,0,0,76.409-26.038,76.409-65.645s22.554-58.311,23.104-77.564c.55-19.253,5.501-24.205,12.102-27.505,6.601-3.301,6.601-14.303,20.354-11.552,13.753,2.75,14.303-6.051,33.556-1.65,19.254,4.401,25.305,6.051,32.456,12.652s11.552,12.103,23.654,15.953c12.102,3.851,35.207,11.552,36.307-9.902,1.1-21.454-15.403-47.309,1.1-73.714,12.486-19.977,17.729-25.785,22.639-27.428.475-.159,2.315-.183,4.866-.627,3.719-.647,8.516-1.482,12.688-3.874,7.188-4.119,10.053-11.44,10.478-12.574,2.145-5.711.181-7.418,2.688-16.009,1.273-4.359,2.834-7.537,3.561-8.934,1.259-2.42,4.381-8.421,9.887-12.927,7.794-6.378,19.232-8.834,28.759-7.096,5.581,1.018,8.326,3.078,14.316,2.274,4.028-.54,5.987-1.9,10.704-3.837,4.607-1.892,8.934-2.905,17.587-4.93,13.256-3.102,30.761-4.741,47.183-6.96,38.77-5.24,60.715-12.258,69.48-11.3.835.091,3.744.495,6.746-.928,3.23-1.531,4.478-4.187,5.724-5.723,3.709-4.577,10.659-3.258,21.211-3.494,18.528-.414,20.989-5.015,32.642-2.23,8.149,1.948,12.994,5.644,13.049,8.093.005.202-.034.653.09,1.293.147.763.719,1.819,3.116,5.017,6.087,8.116,12.579,11.768,22.521,13.188,9.942,1.42,9.536,2.232,16.231,6.087,6.695,3.855,11.565,5.681,16.637,6.087,5.072.406,12.579,2.029,16.231,0,3.652-2.029,8.724-6.696,14.406-9.13,5.681-2.435,9.13-3.652,14-3.652s10.753,3.246,18.26,0c7.507-3.247,35.303-17.246,39.767-24.55,4.464-7.304,13.797-9.739,17.854-15.825,4.058-6.087-.406-19.478,8.319-20.695,8.724-1.217,21.709-.406,27.593-9.13,5.884-8.725,47.68-36.927,53.158-38.752,3.872-1.291,6.841-2.803,8.724-3.449" fill="none" stroke="#000" stroke-miterlimit="10" stroke-width=".75"/>
  <path d="m567.811,445.465c1.931,8.732-3.31,18.047-9.929,20.376-6.62,2.329-9.654.776-12.963-2.717s0-10.867,1.103-14.36c1.103-3.493,1.655-7.762-8.826-12.807-10.481-5.045-12.963-4.463-18.48.388s-11.309,10.285-14.067,4.657c-2.758-5.628-6.62-8.732-7.171-15.136s-.276-17.271,10.205-17.465c10.481-.194,21.514,1.746,30.34,7.18,8.826,5.433,24.272,6.21,27.582,9.703s.552,11.061.827,14.166,1.379,6.016,1.379,6.016Z" fill="none" stroke="#231f20" stroke-miterlimit="10" stroke-width=".75"/>
  <path d="m257.031,391.608c-10.009,7.735-17.056,13.579-6.733,15.158,10.323,1.579,19.3,4.737,27.379,6,8.079,1.263,11.67,11.053,0,12-11.67.947-25.135-2.526-32.317.316-7.181,2.842-6.733,10.421-3.591,13.895,3.142,3.474,5.835,1.895,11.67-1.895,5.835-3.79,17.505-7.579,24.686-4.105,7.181,3.474,9.875,6.947,4.04,14.21-5.835,7.263-8.977,10.421-7.181,13.895,1.795,3.474-5.835,7.263-12.568,4.737-6.733-2.526-12.568-6.947-14.363-3.158-1.795,3.79-1.795,10.737-7.63,15.158-5.835,4.421-7.63,1.579-8.079,7.263-.449,5.684-.898,11.052,1.795,13.895,2.693,2.842,9.426,10.105,6.733,14.21-2.693,4.105-3.142.948-21.096,12-17.954,11.052-43.538,36.631-48.924,40.42-5.386,3.79-8.417,11.154-11.048,13.93s-4.209,12.216.263,16.843c4.472,4.627-4.472,9.995-7.629,12.031-3.157,2.036-2.894,6.108-6.577,11.291-3.683,5.182-10.523,11.845-5.261,15.362,5.261,3.517,15.521-2.776,17.1-5.552,1.578-2.776-1.842-4.072,3.683-11.291,5.525-7.218,9.734-9.995,13.943-10.18,4.209-.185,10.523-.74,15.258-7.773,4.735-7.034,12.891-8.884,20.52-8.144s12.891,6.108,16.311,8.884,5.525,6.848,11.838,10.18,17.1,9.439,18.941,12.956,5.525,15.917,9.734,19.249c4.209,3.332,7.892,10.365,10.786,13.326s10.523,9.81,13.417,12.586c2.894,2.776,6.314,7.774,2.105,13.696-4.209,5.923-7.629,10.735,2.631,12.586,10.26,1.851,15.521,3.332,15.258,7.404-.263,4.072,0,15.547-1.052,23.691-1.052,8.144-6.577,36.462-5.788,41.459.789,4.997,6.577,7.958,10.26,18.879,3.683,10.92,1.315,17.213-2.894,20.729-4.209,3.517-13.417,10.55-9.734,15.362,3.683,4.812,2.631,6.663,3.157,11.846.526,5.182,4.735,12.956,12.101,13.141s5.525,9.439,13.943,8.514c8.418-.925,2.894-12.03,5.261-15.547,2.368-3.517,7.366-3.332,11.575-.925,4.209,2.406,11.312,2.036,16.311-2.406,4.998-4.442,17.1-17.398,17.626-21.1.526-3.702-.263-15.732,7.892-22.581,8.155-6.848,13.417-8.884,18.941-30.91s14.206-35.352,21.572-44.235c7.366-8.884,13.943-15.917,18.941-17.398,4.998-1.48,15.521-1.851,20.52,2.036,4.998,3.887,12.101,3.702,15.258,2.591,3.157-1.111,11.838-8.514,20.257-3.702,8.418,4.812,18.678,14.437,20.257,17.213s5.261,7.588,12.891,10.92c7.629,3.332,3.683,7.774-3.683,9.439-7.366,1.666-10.786,7.588-14.206,8.884-3.42,1.295-8.945,4.257-9.208,11.105s2.105,15.177,12.364,17.398c10.26,2.221,18.415,5.552,20.783,8.884,2.368,3.332,2.631,7.404,2.368,13.697s1.315,9.625,6.051,11.475c4.735,1.851,11.575,2.406,13.68.555,2.105-1.851,4.209-5.922,3.157-8.329s-2.894-4.812-4.735-6.478c-1.842-1.666-7.629-2.221-9.208-5.183-1.578-2.961-2.894-6.108-5.525-8.699-2.631-2.591-8.681-1.296-12.628-7.404s-3.42-5.738-2.894-9.81c.526-4.072-2.894-10.735-2.368-13.326.526-2.591-1.578-5.183,8.155-10.92,9.734-5.738,5.788-7.959,5.261-9.439-.526-1.481-4.209-4.998-6.314-7.219-2.105-2.221-6.051-3.887-6.84-7.958s-4.998-7.218-13.154-11.476c-8.155-4.257-11.838-6.663-17.626-7.403-5.788-.74-12.628,1.296-19.731-1.11s-13.154-10.18-25.518-10.55c-12.364-.371-16.574,10.55-21.572,15.362-4.998,4.812-13.417,23.321-15.521,26.282-2.105,2.961-1.315,6.108-3.946,9.81-2.631,3.702-5.788,7.958-7.629,9.625-1.842,1.666-9.734,1.295-9.734-1.666s6.051-9.254,8.945-11.661c2.894-2.406,6.84-5.737,9.997-12.03,3.157-6.293-3.157-17.583-6.577-19.249-3.42-1.666-5.261-4.998-4.209-9.254,1.052-4.257.526-6.848-5.261-7.774-5.788-.925-7.366,4.812-13.417,4.442s-4.735-2.221-7.366-4.072c-2.631-1.851-.789-12.4-15.784-16.103-14.995-3.702-20.257-8.144-42.355-9.625-12.852-.861-19.386-2.224-23.95-3.722-2.478-.813-5.128-1.63-8.408-3.311-6.53-3.346-10.994-7.646-15.048-12.208-8.591-9.667-7.722-11.939-15.731-22.033-7.327-9.233-14.538-16.522-19.204-19.805-4.472-3.146-9.997-9.254-15.521-13.881-5.525-4.627-8.155-15.547-6.577-24.246,1.578-8.699,4.735-8.514,5.788-11.661,1.052-3.146-4.209-10.55-.263-14.622,3.946-4.072,8.945-12.771,14.732-16.658,5.788-3.887,8.155-8.699,5.261-12.586-2.894-3.887-3.157-6.293-.789-8.329,2.368-2.036,3.42-8.144,5.788-12.586s.789-11.846,7.103-12.401c0,0,9.202,13.433,19.337,7.032s3.2-19.736,13.335-29.337c10.135-9.602,21.87-11.202,18.136-29.337s-4.801-29.871-16.536-29.337c-11.735.534-11.202,12.802-18.669,8.001-7.468-4.801-8.515-13.108-14.925-8.155Z" fill="none" stroke="#231f20" stroke-miterlimit="10" stroke-width=".75"/>
  <path d="m320.654,455.881c-5.478-1.722-6.997-5.767-7.273-6.59-.927-2.764.163-4.967,1.31-7.288,1.767-3.574,3.551-7.181,8.791-8.854,4.606-1.471,10.885-1.128,15.089,1.526,4.48,2.828,4.441,6.918,4.426,8.453-.046,4.852-3.917,10.131-10.75,12.308-1.511.481-6.459,2.059-11.593.445Z" fill="none" stroke="#231f20" stroke-miterlimit="10" stroke-width=".75"/>
  <path d="m438.717,417.814c-2.622-6.278-2.766-10.892-.955-17.287,1.811-6.395,4.381-9.01,4.329-17.904s-6.058-16.698-11.713-25.854c-5.655-9.156-14.521-8.923-17.493-7.73-2.972,1.193-10.849,1.832-13.464-.738s-24.821-9.584-34.199-11.499c-9.378-1.915-36.764-6.631-36.764-6.631-1.172-.524-2.23-.988-3.137-1.376-8.638-3.69-22.565-9.269-21.608-10.569s1.423-3.294,4.244-3.722,4.603-2.622,4.032-6.382-1.884-12.409-11.857-21.089-10.868-9.506-16.015-16.803c-5.147-7.297-11.952-16.651-19.856-19.298s-7.991-9.558-12.881-15.163c-4.89-5.605-13.854-12.707-18.87-20.409-5.016-7.702-2.402-13.292-3.018-16.083s-6.481-12.288-5.584-20.31,7.006-26.068,5.455-31.218c-1.551-5.15-5.058-15.581-6.085-22.35-1.027-6.768-1.993-15.662,3.419-18.022,5.412-2.36,9.258-2.367,10.965-10.128,1.707-7.761-.482-12.044-.079-18.261.382-5.899-58.685-131.836-84.522-140.17-26.231-8.462-42.308-21.154-42.308-21.154l-2.157-2.044" fill="none" stroke="#231f20" stroke-miterlimit="10" stroke-width=".75"/>
  <path d="m108.982,58.21c7.047,2.576,14.193,5.771,20.042,9.603,14.295,9.367,26.668,15.431,35.546,20.955s6.574,9.318,10.335,12.762c3.761,3.444,10.675,4.084,21.493,18.352,10.818,14.268-2.029,9.419,9.529,25.375,11.558,15.957,6.816,16.082,5.993,23.254s2.248,13.229-3.658,29.204c-5.906,15.975,4.013,24.952,11.951,35.626,7.938,10.674,6.974,19.685,17.126,32.705,10.152,13.02,4.552,9.435,12.349,21.947,7.797,12.513,7.94,22.697-.03,37.208-7.969,14.511,12.011,30.874,11.461,43.422s-14.557,25.109-22.537,33.011c-7.98,7.901-3.842,7.07,1.773,7.07,5.615,0,9.457.208,14.481,3.327,5.024,3.119,4.729,7.07-2.364,8.733-7.093,1.663-6.797-1.04-20.983,0-14.186,1.04-3.842,14.763,5.024,19.545,8.866,4.782,9.753,9.565,6.797,13.307-2.955,3.743-9.753,6.238-7.093,9.149s1.278,8.542,1.278,8.542c-.452,3.177-4.064,3.177-6.321,5.401s-1.355,8.26-4.515,13.978c-3.161,5.718,3.161,5.083,8.579,14.931s-8.579,11.754-14.901,13.66c-6.321,1.906-24.617,12.1-29.65,17.53-5.034,5.43-37.585,37.54-40.27,44.387-2.685,6.847-12.01,19.917-14.306,26.581-2.296,6.663-1.435,30.692-3.444,36.75-2.009,6.058.574,6.663,6.314,7.067s9.184,2.625,9.184,5.25-.861,5.048,1.722,8.279c2.583,3.231,1.148,5.25-2.009,5.654s-4.305,4.442-7.175,6.865-14.637,2.827-22.673,3.635-3.731,6.461.861,9.086,2.87.606,10.906-2.019c8.036-2.625,8.897-1.615,11.193-4.24s12.915-11.106,16.646-14.134c3.731-3.029,2.296-9.692-.861-12.317s0-5.048,2.296-12.923c2.296-7.875,1.722-5.856,1.722-12.115s12.915-4.644,19.229-5.654c6.314-1.01,8.61-4.644,12.628-9.49,4.018-4.846,13.489-20.394,18.942-21s14.063,9.692,18.655,13.327c4.592,3.635,14.637,8.683,18.942,10.904,4.305,2.221,6.027,8.885,9.471,14.336s3.157,11.308,11.767,17.163c8.61,5.856,6.601,8.885,8.036,11.308s0,3.433,6.601,6.058,6.601,4.24,6.314,6.26-4.592,8.077-5.453,15.548c-.861,7.471,3.444,7.471,10.045,7.673,6.601.202,9.758,2.221,12.628,6.461,2.87,4.24-1.722,21.807-1.722,26.654s-4.592,17.163-6.314,21.404c-1.722,4.24-7.462,9.894-8.323,13.327s6.314,12.115,9.471,20.596-4.592,16.356-3.731,23.019-6.601,12.519-8.897,16.356c-2.296,3.836,0,12.923-.287,18.981s2.009,15.144,4.305,18.577c2.296,3.433,13.202,6.865,18.368,9.692,5.166,2.827,17.22,3.635,20.664,4.038s10.332-2.221,14.924-8.279c4.592-6.058,12.054-11.509,16.646-13.731,4.592-2.221,7.749-7.269,7.175-11.308-.574-4.038,2.87-9.692,6.601-14.336,3.731-4.644,12.915-11.711,13.776-14.134.861-2.423-3.157-11.711,4.305-16.558,7.462-4.846,11.193-13.327,13.776-19.384s1.148-13.125,8.897-32.913c7.749-19.788,12.546-20.798,17.784-24.22s1.497-7.897,8.979-13.951,11.972-5.264,14.591-2.632,7.108,7.37,16.836,8.949c9.727,1.579,11.972-3.685,18.706-5.264,6.734-1.579,10.476.79,18.706,1.579,8.231.79,4.864,7.37,5.238,10.529s2.993,5.791,3.741,8.16,3.741,3.685,1.871,5.528c-1.871,1.843-8.231,6.844-17.958,16.583-9.727,9.739-2.993,15.53.748,23.426,3.741,7.897,13.843,10.792,15.339,15.793s-10.476,15.003-15.339,19.215c-4.864,4.212-8.979,11.055-11.224,16.056s-8.605,13.687-16.836,28.164c-8.231,14.477-9.353,10.002-14.591,13.161s-5.238,13.424-8.605,19.215-4.49,5.528-24.318,14.477c-19.829,8.949-10.85,14.477-9.727,20.794,1.122,6.317,11.224,7.633,15.713,8.16s12.72-8.423,16.462-7.107c3.741,1.316,2.245,7.633,1.871,11.845-.374,4.212-5.986,18.952-5.612,23.426s2.982,14.417,1.845,25.014c-1.137,10.598-5.684,29.593-21.884,33.192-16.2,3.599-24.157,3.199-38.936,12.797-14.779,9.598-17.905,20.795-2.842,22.795,15.063,2,29.354,12.125,32.143,12.91,2.79.785,5.859-2.748,14.507,3.729,8.648,6.477,7.533,5.103,8.369,2.552s6.696-5.888-.279-4.318c-6.975,1.57-10.322-5.3-7.533-8.44,2.79-3.14-2.232-5.888-5.859-7.262-3.627-1.374-8.369-1.963-8.648-9.421-.279-7.459,3.906-12.169,11.438-10.01s12.554,6.085,10.043,1.178c-2.511-4.907,1.116-14.721,10.601-18.254s18.238-8.631,22.38-10.751c4.142-2.119,4.895-.397,7.907-11.259,3.012-10.861.565-12.848-3.012-16.027-3.577-3.179-5.083-9.404-3.954-12.583s3.389-27.683,2.636-33.776c-.753-6.093,3.954-11.391,8.66-14.835,4.707-3.444,6.777-11.788,7.342-15.63.565-3.841-5.648-9.934,7.719-20.795s15.814-19.868,15.438-26.226-3.577-8.742,1.694-14.305c5.271-5.563,8.66-8.212,8.848-11.523s-12.049-9.404.565-15.1c12.614-5.696,18.638,2.119,21.839,6.093,3.2,3.974,13.941,10.933,19.639,12.573s13.208-1.64,18.388-6.013c5.18-4.373,12.69-9.657,20.719-14.03s9.324-11.297,14.144-19.131c4.821-7.834,11.754-18.404,20.819-23.506,9.065-5.102,19.942-5.466,25.122-5.102s7.77,3.644,5.698,6.377c-2.072,2.733-7.77,5.466-17.87,9.111-10.1,3.644-13.726,9.657-12.69,11.662s14.244-.182,22.532-3.28c8.288-3.098,14.244-4.191,21.496-1.093,7.252,3.098,3.108,10.022,2.849,12.39s-5.698,2.004-9.065,14.212c-3.367,12.208-8.029,13.666-12.431,18.586-4.403,4.92-6.734,13.484,4.144,19.679,10.877,6.195,10.618,5.466,5.957,15.124-4.662,9.657,1.036,10.204,10.359,19.497s15.539,9.111,18.906,9.111c3.367,0,4.921-1.275,11.395,4.009,6.475,5.284,9.841,1.275,8.288-2.733-1.554-4.009-8.029-10.568-10.1-15.852-2.072-5.284,15.28-10.386,20.201-16.217,4.921-5.831.518-16.035-3.367-22.23s-6.993-9.839-8.029-15.124-8.806-6.56-11.654-11.844c-2.849-5.284,4.403-8.382,14.762-18.039,10.359-9.657,20.978-35.713,21.496-44.642.518-8.928-10.359-8.017-17.352-8.017-6.993,0-18.129.729-18.647-12.208s-.518-15.124,13.467-24.052c13.985-8.928,5.439-14.395,3.108-19.314-2.331-4.92,4.144-5.284,6.216-11.297,2.072-6.013,1.295-11.297,10.359-13.119s9.324-4.737,5.439-10.568c-3.885-5.831-10.877-17.492-15.021-22.959-4.144-5.466,4.662-34.256,16.575-39.175s2.59-3.28,12.69-11.115c10.1-7.835,10.1-.182,8.806,7.471-1.295,7.653-1.295,17.492-1.554,21.136-.259,3.644,3.885,2.369,6.475,1.093,2.59-1.275,3.626-3.098,13.985,1.093,10.359,4.191,8.288,22.412,9.065,28.972.777,6.56.518,7.471,7.511,20.408,6.993,12.937,3.367,17.492,1.813,20.225s-1.295,10.386-1.036,17.492c.259,7.106-4.921,12.208-20.978,22.23-16.057,10.022-22.532,16.581-28.23,25.327s-7.511,18.039-9.841,22.412-3.885,11.844-8.288,18.768c-4.403,6.924-2.28,8.005-4.906,16.934-2.626,8.929,2.188,19.398,4.376,24.94s9.19,11.7,10.503,20.013-8.315,14.779-16.192,25.864c-7.877,11.084-4.376,20.013-7.002,27.403s-7.44,20.321-12.254,24.324c-4.814,4.003-7.877,6.774-11.378,9.545s-7.44,10.161-25.383,12.316c-17.943,2.155-17.943,7.39-24.07,9.237s-3.063-3.079-5.252-16.934c-2.188-13.855-1.751-12.932,8.315-13.855s4.376-12.932,7.002-19.09-5.252-14.471-.438-18.166,14.442-11.084,3.063-11.7-21.006-12.008-15.755-20.321-2.626-9.853-5.252-15.395c-2.626-5.542,5.689-8.621,12.254-22.477,6.565-13.855-11.816-13.548-13.129-11.392s-18.983,7.26-30.241,8.646c-11.258,1.386-11.821,3.366-20.827,6.139-9.006,2.772-25.894,19.01-30.115,24.752-4.222,5.743.844,9.505,3.377,12.277,2.533,2.772,7.881,4.554,8.162,9.901s-1.407,12.277-4.785,14.257c-3.377,1.98-6.755-2.178-10.695-4.158-3.94-1.98-9.288-.792-18.294,1.782-9.006,2.574-14.354,7.327-18.576,12.673-4.222,5.346,3.377,16.435,2.533,17.624s-2.252,5.148-6.192,10.099-6.755,1.782-5.911-.792,1.97-6.733-4.785-5.743c-6.755.99-8.444,6.337-15.761,10.891-7.318,4.554-17.45,14.059-11.821,13.465s17.169-8.119,22.798-9.703,11.821,7.525,19.139,9.109c7.318,1.584,25.331-13.267,28.99-14.851s5.066-3.366,13.51-5.743c8.444-2.376,12.102-3.762,19.42-11.485s5.066-18.614,3.94-27.524-7.599-16.237-10.414-20-8.444-8.119-2.252-16.435c6.192-8.317,15.48-4.356,20.546-7.129,5.066-2.772,3.659-9.307,9.006-12.079,5.348-2.772,15.48-4.554,22.235-1.386s4.222,6.337,4.222,9.307-4.222,8.317-4.503,13.069,5.911,8.713,6.755,12.871c.844,4.158-3.096,6.733-3.659,12.079s1.407,8.713,5.066,17.624,5.911,17.822,5.911,21.584c0,3.762.844,4.752-5.629,12.673-6.473,7.921-19.031,11.287-20.827,15.049s-9.288,10.297-15.198,14.059c-5.911,3.762-4.503-5.148-5.348-9.505s-1.126-7.327-10.132-8.911c-9.006-1.584-10.977,6.139-10.132,11.287s2.252,14.257,5.911,19.802,7.318,2.376,10.414,0c3.096-2.376,7.318-4.356,10.695-1.386,3.377,2.97,1.689,4.752,0,7.723-1.689,2.97-1.689,6.535,1.407,11.683,3.096,5.148,9.288,2.376,18.576-.198,9.288-2.574,16.887-1.188,21.672-1.584s9.851,1.188,14.354-.396c4.503-1.584,14.917-4.95,18.294-5.148s4.503-.792,9.569-2.574c5.066-1.782,14.354-3.96,21.953-6.139,7.599-2.178,14.917-4.752,16.606-7.723,1.689-2.97,3.545-8.126,5.4-11.173,1.856-3.047,8.042-8.704,6.186-13.057s-3.505-9.575-1.237-15.813,2.474-6.673.206-18.569,1.237-15.813,3.712-21.761c2.474-5.948,11.135-15.088,14.434-21.761,3.299-6.673,3.918-9.575,3.918-17.119,0-7.544.619-21.036-1.031-29.015-1.65-7.979-7.423-10.155-10.104-11.606-2.681-1.451-5.567-6.093-2.062-9.14,3.505-3.047,7.217-5.078,6.805-6.818s.619-3.917,2.268-6.528,6.392-5.223,5.361-13.347,1.237-8.559,4.949-12.041c3.712-3.482,5.567-6.673,9.073-7.109s7.629.58,14.434-.435c6.805-1.016,8.042-4.497,11.753-11.316s7.217-9.285,9.279-16.103c2.062-6.818,1.65-10.3,7.423-16.974,5.774-6.673,3.712-11.026,5.567-15.668,1.856-4.642,11.135-12.186,12.166-22.051s-10.31-10.3-17.321-12.331c-7.011-2.031-11.341-5.948-10.722-10.59s-1.65-12.912-2.474-17.554,3.299-10.01,9.485-21.906c6.186-11.896,9.898-13.347,17.527-12.476,7.629.87,7.011,9.865,7.217,13.492s2.062,6.238,4.536,10.735c2.474,4.497,1.24,7.107,3.942,11.786,2.702,4.679,7.482,4.24,15.587,5.118,8.105.877,17.249-2.632,23.068-2.924,5.819-.292,8.105-.292,12.677,1.901s5.196,5.849,4.572,10.089-3.117,6.287-3.117,9.358.623,10.966,1.039,13.744-3.533,2.924-4.156,8.773,4.572,4.533,10.183,6.726,4.78,4.24,6.027,7.018,6.858,11.99,1.87,17.4c-4.988,5.41-2.494,9.65-.208,11.259,2.286,1.608,9.768,2.047,17.249,6.287,7.482,4.24,8.313.877,9.56-3.071s1.87-3.948,10.391-5.264,5.403-2.778,12.677-6.433,13.716-6.726,19.535-10.82c5.819-4.094,4.156-12.428,3.741-15.791s.623-2.486,3.741-10.381c3.117-7.896-1.663-10.235-4.78-11.697-3.117-1.462-13.716-6.433-18.289-8.919-4.572-2.486-15.795-12.282-20.99-16.23-5.196-3.948-4.156-5.41-12.262-6.287s-10.391-5.556-9.768-9.796,1.247-3.217,9.768-9.358-2.702-7.165,5.819-16.815c8.521-9.65,15.379-8.188,19.328-5.41,3.949,2.778,6.858,8.627,13.301,10.381s11.846,4.24,12.677,8.042c.831,3.802-1.247,17.838,10.807,18.862,12.054,1.024,12.054-4.24,12.885-13.598.831-9.358,4.88-12.679,6.457-15.342s8.202,1.775,11.041,2.219c2.839.444,7.571-4.661,13.88-3.551s3.47,8.877,2.839,13.094-7.255,10.875-3.785,15.535c3.47,4.661,4.732,11.984,12.933,15.313,8.202,3.329,13.249-1.997,18.611-7.102,5.363-5.104,8.517-9.543,13.564-13.76s4.101-8.212,4.732-15.313c.631-7.102,7.886-5.992,12.302-7.102,4.416-1.11,12.618,1.997,18.296,3.551,5.678,1.554,8.832,7.324,11.671,12.206,2.839,4.883,1.262,9.987,8.832,10.431,7.571.444,13.249-6.214,21.766-12.206,8.517-5.992,5.678-15.979,5.678-22.415,0-6.436,1.577-11.319,8.517-11.319,6.94,0,11.041,13.316,14.826,17.533,3.785,4.217,3.47,10.653,1.893,14.426s-11.987,10.875-15.457,18.864c-3.47,7.99-3.785,13.982-6.624,18.42s-10.094,9.099-17.98,18.199c-7.886,9.099-1.577,12.872,1.893,14.87,3.47,1.997,13.564,1.11,17.034,2.885,3.47,1.775,11.671,10.209,15.457,13.094s6.624,11.097,6.624,16.201c0,5.104-5.363,14.87-8.832,19.308-3.47,4.439-17.034,13.538-20.504,17.755-3.47,4.217,1.893,10.875-.631,16.867s-9.779,6.214-14.195,6.658c-4.416.444-14.195,9.321-17.665,13.094s-9.432,17.519-10.998,19.478c-1.566,1.959-4.874,3.551-7.31,3.551s-5.744-.612-14.621,1.714c-8.877,2.327-22.453,14.327-27.326,18.736-4.874,4.408-11.488,9.184-18.798,12.735-7.31,3.551-25.238,9.307-28.719,10.041-3.481.735-17.057-3.919-25.064,11.388-8.006,15.307-3.307,17.879.348,22.41,3.655,4.531,8.529,3.306,10.269,9.429,1.741,6.123-8.529,9.674-14.272,9.674-5.744,0-25.76.122-36.725.49-10.965.367-21.757,8.205-26.804,11.266-5.048,3.061-1.044,4.286,1.566,4.898s10.791-2.204,19.842-2.204c9.051,0,19.668,3.551,23.671,6.368,4.003,2.816,9.747,3.796,16.013,5.143,6.266,1.347,13.054,4.041,16.187,5.633,3.133,1.592,10.443,6.98,16.709,6.858s6.614-1.714,10.617-11.633c4.003-9.919,10.965-9.552,14.272-9.429,3.307.122,8.355,1.347,10.791,1.225s15.317-3.184,18.798-2.939c3.481.245,11.314-1.102,13.924-1.837,2.611-.735,7.832-.49,12.184,0,4.351.49,19.842,1.347,26.63,2.082,6.788.735,9.399.245,14.098-2.327,4.699-2.572,23.011-18.829,25.855-21.251,2.844-2.422,14.668-2.633,20.655-1.79,5.987.842,11.674,2.738,22.301,5.055,10.627,2.317,7.933,3.37,13.471,6.95s9.579.421,13.471-5.792,7.484-6.739,14.518-7.792c7.035-1.053,14.518,0,19.008.527s10.477-1.58,14.518-2.633c4.041-1.053,6.223-.232,7.568,4.501s-.807,6.816-2.691,9.088c-1.884,2.272-5.382,4.922-6.727,6.248s-1.884,2.84-7.266,7.762-7.535,15.525-8.073,23.098c-.538,7.573,11.84,11.928,17.222,15.146,5.382,3.219,10.205,4.378,16.392,7.357s4.559,6.415,10.421,12.143c5.862,5.728,11.398,3.895,19.539,0,8.141-3.895,13.352-2.979,17.26-1.604,3.908,1.375,8.467,4.353,13.352,4.124,4.885-.229,25.401-11.914,29.309-17.184,3.908-5.27,4.559-13.289,18.562-14.893,14.003-1.604,5.862,11.914,5.21,14.205-.651,2.291,4.559,3.666.651,6.644-3.908,2.979-8.141,4.124-12.049,5.27-3.908,1.146-8.467,8.019-12.375,10.768-3.908,2.749-6.839,4.124-15.957,8.706-9.118,4.582-11.072,12.831-16.934,17.871-5.862,5.041-11.536,5.486-16.486,7.292s-10.633,7.61-16.866,11.608-7.883,6.191-4.4,11.221c3.483,5.03,3.116,9.544-1.283,13.672s-11.733,4.256-15.949,5.288c-4.216,1.032-10.633,5.804-17.049,11.479s-12.649,9.931-19.249,16.251c-6.6,6.32-15.033,11.479-19.982,13.672-4.95,2.193-13.566,4.772-17.416,6.836-3.85,2.064-5.133,1.419-18.699,9.544-13.566,8.126-10.816,17.412-10.266,26.183.55,8.77-1.833,14.703-4.216,18.573-2.383,3.869-9.899,11.35-12.283,12.124-2.383.774-3.483.774-7.883-1.161s-.183-7.223,2.2-10.189c2.383-2.966,2.2-5.288,1.833-7.223s-6.309-1.776-7.444,2.816c-1.135,4.592-4.257,5.191-9.081,5.191-4.824,0-6.243,4.193-2.554,9.184,3.689,4.992,15.608,7.387,19.581,7.188s6.811.599,10.5,1.997c3.689,1.398,8.23,1.797,17.879.799,9.649-.998,12.203.399,14.473.998s5.108,1.797,11.068.399,5.676-2.596,10.5-7.188c4.824-4.592,15.201-6.772,20.636-7.345s16.984-5.353,25.137-12.619c8.153-7.265,14.267-11.376,23.099-14.626,8.832-3.25,16.984-9.56,22.555-12.619,5.571-3.059,10.598.096,12.636,1.912,2.038,1.816,6.386,10.229,12.365,16.634,5.979,6.405,11.278.86,23.642-6.214,12.365-7.074,18.071-2.868,21.604,0,3.533,2.868,6.522,4.78,11.685,5.258,5.163.478,6.93-1.625,11.685-3.633s8.424-1.434,13.995-3.728,9.24-5.162,12.229-8.317c2.989-3.155,2.989-7.265,4.212-13.766,1.223-6.501,6.386-5.927,11.278-5.927,4.892,0,5.299-.765,9.24-2.963,3.94-2.199,9.341-8.742,11.149-12.377s-.258-4.725,4.908-8.542,13.95-15.812,16.274-17.448c2.325-1.636,8.266-1.454,14.466-2.908,6.2-1.454,12.4-3.271,16.274-7.815s8.266-3.271,11.883-2.908c3.617.363-.517,5.089,5.941,6.361s6.716-.909,14.208-5.089c7.491-4.18,8.008,0,9.558,4.725,1.55,4.725-6.2,9.269-6.716,11.813-.517,2.544-1.808,4.18-5.839,6.293-4.03,2.112,1.189,5.157,6.872,10.973,5.683,5.816-3.358,8.906-10.075,12.177-6.716,3.271-3.875,9.451-2.583,15.267,1.292,5.816,8.525,5.452,13.95,6.179,5.425.727,6.716,5.271,7.491,11.632.775,6.361,1.55,8.36,3.875,14.54,2.325,6.179,10.333,6.361,15.499,6.361,0,0,47.635,6.423,65.248,17.513,17.613,11.09,80.237,10.437,87.412,2.609,7.176-7.828,19.57-9.133,29.355-9.133s25.441-5.219,30.007,1.957c4.566,7.176,13.699,13.047,31.312,11.09,17.613-1.957,20.875-11.742,36.531-8.48,15.656,3.262,48,17.587,66.119,16.626,11.202-.594,14.278-17.451,47.198-20.624,32.92-3.173,53.941-10.312,62.27-15.468,8.329-5.156,36.093-28.16,42.439-30.937,6.346-2.776,9.916-8.726,23.401-1.19,13.485,7.536,38.472-9.519,46.802-18.245,8.329-8.726,21.814-14.278,40.059-11.899,18.245,2.38,20.228,3.57,31.333,15.468,11.105,11.899,36.886,33.316,71.392,42.042,34.506,8.726,63.46,17.055,75.358,22.211,11.899,5.156,16.658,24.194,16.658,24.194" fill="none" stroke="#221f1f" stroke-miterlimit="10" stroke-width=".75"/>
  <g>
    <rect x="-396.473" y="-1690.288" width="3386.58" height="2514.089" transform="translate(1730.061 863.574) rotate(-90)" fill="none" stroke="#231f20" stroke-linecap="round" stroke-miterlimit="10" stroke-width="7"/>
    <rect x="-379.506" y="-1673.166" width="3353.392" height="2482.402" transform="translate(1729.155 865.225) rotate(-90)" fill="none" stroke="#231f20" stroke-linecap="round" stroke-miterlimit="10" stroke-width="3"/>
    <rect x="-341.031" y="-1637.548" width="3275.615" height="2412.095" transform="translate(1728.278 865.276) rotate(-90)" fill="none" stroke="#231f20" stroke-linecap="round" stroke-miterlimit="10"/>
    <rect x="-323.163" y="-1620.185" width="3239.88" height="2376.261" transform="translate(1728.831 864.723) rotate(-90)" fill="none" stroke="#231f20" stroke-linecap="round" stroke-miterlimit="10"/>
    <g>
      <g>
        <g>
          <line x1="90.729" y1="180.202" x2="108.646" y2="180.202" fill="none" stroke="#231f20" stroke-linecap="round" stroke-miterlimit="10"/>
          <line x1="90.729" y1="108.074" x2="108.646" y2="108.074" fill="none" stroke="#231f20" stroke-linecap="round" stroke-miterlimit="10"/>
          <line x1="90.729" y1="36.235" x2="108.646" y2="36.235" fill="none" stroke="#231f20" stroke-linecap="round" stroke-miterlimit="10"/>
        </g>
        <g>
          <line x1="90.729" y1="396.599" x2="108.646" y2="396.599" fill="none" stroke="#231f20" stroke-linecap="round" stroke-miterlimit="10"/>
          <line x1="90.729" y1="324.444" x2="108.646" y2="324.444" fill="none" stroke="#231f20" stroke-linecap="round" stroke-miterlimit="10"/>
          <line x1="90.729" y1="252.523" x2="108.646" y2="252.523" fill="none" stroke="#231f20" stroke-linecap="round" stroke-miterlimit="10"/>
        </g>
      </g>
      <rect x="27.688" y="247.725" width="144" height="8.773" transform="translate(-152.424 351.799) rotate(-90)" fill="#231f20" stroke-width="0"/>
      <rect x="27.958" y="-37.765" width="144" height="3.6" transform="translate(135.923 63.993) rotate(-90)" fill="#231f20" stroke-width="0"/>
    </g>
  </g>
</svg>