<?xml version="1.0" encoding="UTF-8"?>
<svg id="a" data-name="Layer 1" xmlns="http://www.w3.org/2000/svg" width="9.002in" height="6.002in" viewBox="0 0 648.177 432.177">
  <g>
    <g>
      <path d="m474.511,408.783c-5.224-10.29-11.42-19.244-17.923-26.964-6.513-7.725-13.346-14.221-20.053-19.715-6.713-5.496-13.301-9.994-19.481-13.781-3.144-1.8-6.094-3.587-9.019-5.046-1.455-.743-2.841-1.524-4.241-2.176-1.397-.658-2.753-1.297-4.07-1.918-10.574-4.888-18.996-7.47-24.611-9.169-2.825-.813-4.975-1.357-6.414-1.705-.717-.184-1.26-.306-1.623-.385-.363-.081-.544-.122-.544-.122" fill="none" stroke="#231f20" stroke-miterlimit="10" stroke-width=".25"/>
      <path d="m472.297,409.904c-5.126-10.097-11.211-18.894-17.605-26.485-6.403-7.596-13.127-13.988-19.73-19.397-6.609-5.411-13.1-9.843-19.189-13.575-3.1-1.773-6.006-3.536-8.89-4.973-1.434-.732-2.8-1.503-4.18-2.145-1.377-.649-2.714-1.279-4.012-1.89-10.424-4.819-18.73-7.365-24.263-9.04-2.783-.8-4.897-1.335-6.313-1.678-.705-.181-1.239-.301-1.596-.379-.356-.08-.535-.12-.535-.12" fill="none" stroke="#231f20" stroke-miterlimit="10" stroke-width=".25"/>
      <path d="m327.606,325.865c-5.824.899-11.458,2.578-16.588,4.786-5.144,2.218-9.884,4.961-14.064,8.197-8.372,6.435-14.567,14.776-17.716,23.549-.375,1.1-.747,2.189-1.114,3.267-.263,1.106-.524,2.2-.781,3.283-.292,1.078-.435,2.167-.578,3.244-.132,1.077-.335,2.139-.396,3.195-.087,2.113-.271,4.186-.121,6.193.05,1.004.055,2.004.146,2.979.117.971.233,1.931.347,2.88,1.007,7.582,3.325,14.071,5.894,19.521,2.569,5.47,5.511,9.88,8.22,13.501,2.691,3.646,5.326,6.383,7.453,8.546,1.056,1.093,2.054,1.93,2.873,2.711.819.776,1.532,1.387,2.112,1.863,1.15.967,1.728,1.452,1.728,1.452" fill="none" stroke="#231f20" stroke-miterlimit="10" stroke-width=".25"/>
      <path d="m328.004,328.315c-5.65.872-11.054,2.487-16.007,4.617-4.957,2.137-9.521,4.778-13.531,7.884-8.035,6.18-13.917,14.125-16.9,22.438-.357,1.043-.71,2.076-1.059,3.098-.249,1.05-.496,2.089-.74,3.118-.28,1.022-.414,2.058-.549,3.083-.124,1.024-.321,2.033-.378,3.04-.079,2.014-.261,3.987-.114,5.907.048.96.051,1.914.138,2.847.112.931.224,1.85.333,2.758.962,7.265,3.194,13.527,5.678,18.794,2.482,5.287,5.334,9.561,7.957,13.068,2.606,3.533,5.159,6.182,7.217,8.276,1.021,1.058,2,1.878,2.796,2.637.798.756,1.492,1.352,2.06,1.817,1.122.943,1.686,1.417,1.686,1.417" fill="none" stroke="#231f20" stroke-miterlimit="10" stroke-width=".25"/>
    </g>
    <g>
      <path d="m469.891,521.523c1.18-2.469,2.408-4.872,3.501-7.288.971-2.468,2.015-4.866,2.887-7.282.399-1.221.794-2.432,1.187-3.633.393-1.201.805-2.386,1.082-3.6.31-1.204.617-2.398.922-3.582.151-.592.302-1.182.451-1.769.114-.596.227-1.189.34-1.779,1.936-9.425,2.523-18.425,2.306-26.71-.185-8.297-1.301-15.88-2.754-22.666-.647-3.416-1.608-6.583-2.406-9.613-.44-1.503-.952-2.941-1.403-4.352-.467-1.406-.884-2.785-1.421-4.074-3.937-10.459-8.075-17.849-11.007-22.644-1.465-2.404-2.702-4.13-3.462-5.322-.391-.589-.685-1.032-.881-1.327-.211-.285-.316-.428-.316-.428" fill="none" stroke="#231f20" stroke-miterlimit="10" stroke-width=".25"/>
      <path d="m467.696,520.365c1.151-2.416,2.354-4.765,3.423-7.127.947-2.413,1.969-4.757,2.821-7.116.389-1.192.775-2.375,1.158-3.548.385-1.173.787-2.329,1.057-3.516.303-1.177.603-2.344.901-3.501.148-.579.295-1.155.442-1.729.111-.582.222-1.162.332-1.74,1.892-9.213,2.468-18.023,2.256-26.139-.18-8.127-1.275-15.562-2.701-22.218-.634-3.35-1.578-6.456-2.359-9.428-.432-1.475-.935-2.884-1.377-4.269-.458-1.379-.865-2.732-1.394-3.997-3.863-10.26-7.92-17.507-10.794-22.208-1.437-2.357-2.652-4.053-3.398-5.223-.384-.579-.672-1.013-.864-1.303-.207-.28-.311-.42-.311-.42" fill="none" stroke="#231f20" stroke-miterlimit="10" stroke-width=".25"/>
      <path d="m429.648,364.931c-17.388-13.543-35.229-21.864-51.042-26.997-15.834-5.243-29.81-7.071-40.864-6.557-11.093.487-19.124,3.052-24.17,5.273-1.285.518-2.363,1.076-3.297,1.533-.944.44-1.691.882-2.297,1.22-.606.339-1.061.594-1.365.764-.303.172-.445.273-.445.273" fill="none" stroke="#231f20" stroke-miterlimit="10" stroke-width=".25"/>
      <path d="m428.118,366.884c-17.112-13.328-34.697-21.534-50.278-26.591-15.615-5.17-29.276-6.936-39.992-6.438-5.363.216-10.005.986-13.875,1.92-3.855.943-6.992,2.079-9.42,3.153-1.234.496-2.267,1.033-3.163,1.471-.906.421-1.621.846-2.202,1.17-.581.325-1.017.569-1.309.731-.29.164-.426.261-.426.261" fill="none" stroke="#231f20" stroke-miterlimit="10" stroke-width=".25"/>
      <path d="m284.289,367.886c-1.43,5.124-1.844,10.359-1.454,15.376.377,5.023,1.485,9.829,3.023,14.31.731,2.258,1.698,4.387,2.612,6.49.52,1.023,1.036,2.038,1.547,3.043.485,1.019,1.116,1.948,1.658,2.914,2.268,3.804,4.773,7.286,7.491,10.356,1.297,1.592,2.759,2.974,4.114,4.398.711.684,1.442,1.337,2.15,1.997.704.665,1.417,1.304,2.153,1.902.726.61,1.444,1.214,2.153,1.81.735.567,1.461,1.128,2.18,1.683,1.417,1.133,2.901,2.114,4.307,3.126,5.714,3.934,11.239,6.961,16.233,9.505,5.004,2.533,9.512,4.55,13.415,6.221,3.897,1.681,7.196,3.01,9.838,4.079,5.308,2.105,7.985,3.167,7.985,3.167" fill="none" stroke="#231f20" stroke-miterlimit="10" stroke-width=".25"/>
      <path d="m286.681,368.549c-1.346,4.821-1.742,9.765-1.37,14.536.359,4.776,1.416,9.375,2.894,13.678.7,2.168,1.634,4.217,2.511,6.243.502.987.999,1.964,1.492,2.933.465.983,1.078,1.879,1.6,2.811,2.188,3.671,4.608,7.037,7.234,10.001,1.252,1.539,2.664,2.869,3.97,4.245.689.663,1.402,1.299,2.09,1.94.684.647,1.377,1.269,2.096,1.852.707.594,1.406,1.182,2.097,1.764.717.553,1.426,1.1,2.127,1.641,1.381,1.106,2.835,2.065,4.208,3.055,5.588,3.848,11.022,6.827,15.949,9.336,4.937,2.499,9.401,4.497,13.274,6.156,3.867,1.668,7.151,2.992,9.783,4.056,5.297,2.101,7.969,3.16,7.969,3.16" fill="none" stroke="#231f20" stroke-miterlimit="10" stroke-width=".25"/>
    </g>
  </g>
  <g>
    <path d="m344.493,381.424h0l-5.836.003,3.228-4.418c.502-.688.352-1.652-.336-2.155s-1.652-.352-2.155.336l-3.782,5.176-3.812-5.155c-.506-.684-1.473-.831-2.157-.322-.684.506-.829,1.471-.323,2.156l3.243,4.385-5.088.003c-.851,0-1.542.691-1.541,1.543,0,.851.69,1.54,1.542,1.54h0l5.106-.003-3.227,4.417c-.502.688-.352,1.652.336,2.155.274.2.592.297.908.297.476,0,.945-.218,1.247-.632l3.782-5.177,3.812,5.154c.303.408.769.625,1.241.625.318,0,.64-.098.915-.303.684-.506.829-1.471.323-2.156l-3.242-4.383,5.817-.003c.851,0,1.542-.691,1.541-1.543,0-.851-.69-1.54-1.542-1.54Z" fill="none" stroke="#231f20" stroke-miterlimit="10" stroke-width=".25"/>
    <g>
      <circle cx="313.389" cy="387.66" r="2.494" fill="none" stroke="#231f20" stroke-miterlimit="10" stroke-width=".25"/>
      <circle cx="313.167" cy="378.773" r="2.494" fill="none" stroke="#231f20" stroke-miterlimit="10" stroke-width=".25"/>
      <circle cx="316.364" cy="370.476" r="2.494" fill="none" stroke="#231f20" stroke-miterlimit="10" stroke-width=".25"/>
      <circle cx="322.491" cy="364.034" r="2.494" fill="none" stroke="#231f20" stroke-miterlimit="10" stroke-width=".25"/>
      <circle cx="330.617" cy="360.429" r="2.494" fill="none" stroke="#231f20" stroke-miterlimit="10" stroke-width=".25"/>
      <circle cx="339.505" cy="360.206" r="2.494" fill="none" stroke="#231f20" stroke-miterlimit="10" stroke-width=".25"/>
      <circle cx="347.802" cy="363.404" r="2.494" fill="none" stroke="#231f20" stroke-miterlimit="10" stroke-width=".25"/>
      <circle cx="354.244" cy="369.53" r="2.494" fill="none" stroke="#231f20" stroke-miterlimit="10" stroke-width=".25"/>
      <circle cx="357.85" cy="377.657" r="2.494" fill="none" stroke="#231f20" stroke-miterlimit="10" stroke-width=".25"/>
      <circle cx="358.072" cy="386.544" r="2.494" fill="none" stroke="#231f20" stroke-miterlimit="10" stroke-width=".25"/>
      <circle cx="354.874" cy="394.841" r="2.494" fill="none" stroke="#231f20" stroke-miterlimit="10" stroke-width=".25"/>
      <circle cx="348.747" cy="401.282" r="2.494" fill="none" stroke="#231f20" stroke-miterlimit="10" stroke-width=".25"/>
      <circle cx="340.622" cy="404.888" r="2.494" fill="none" stroke="#231f20" stroke-miterlimit="10" stroke-width=".25"/>
      <circle cx="331.732" cy="405.11" r="2.494" fill="none" stroke="#231f20" stroke-miterlimit="10" stroke-width=".25"/>
      <circle cx="323.437" cy="401.915" r="2.494" fill="none" stroke="#231f20" stroke-miterlimit="10" stroke-width=".25"/>
      <circle cx="316.996" cy="395.788" r="2.494" fill="none" stroke="#231f20" stroke-miterlimit="10" stroke-width=".25"/>
    </g>
  </g>
  <g>
    <g>
      <path d="m562.113,617.521c15.463-13.269,28.899-27.002,40.495-40.658,1.437-1.719,2.861-3.423,4.272-5.112.706-.845,1.408-1.686,2.108-2.523.692-.843,1.329-1.725,1.991-2.579,2.622-3.44,5.197-6.819,7.724-10.135,2.383-3.453,4.722-6.841,7.016-10.165,2.215-3.357,4.281-6.706,6.276-10.011,1.991-3.307,3.881-6.583,5.68-9.826,1.805-3.218,3.492-6.518,5.106-9.586,3.249-6.174,6.354-12.074,9.314-17.699,1.482-2.811,2.928-5.554,4.337-8.228,1.46-2.645,2.883-5.222,4.268-7.73,2.77-5.017,5.389-9.76,7.856-14.229,1.216-2.245,2.461-4.382,3.666-6.451,1.201-2.071,2.363-4.075,3.485-6.01,2.244-3.871,4.331-7.469,6.259-10.794,3.919-6.61,7.317-12.055,9.977-16.458,1.342-2.194,2.517-4.116,3.525-5.765,1.043-1.626,1.914-2.982,2.61-4.069,1.394-2.172,2.094-3.263,2.094-3.263" fill="none" stroke="#231f20" stroke-miterlimit="10" stroke-width=".25"/>
      <path d="m560.498,615.637c15.361-13.181,28.704-26.82,40.218-40.379,1.426-1.707,2.84-3.399,4.242-5.076.701-.839,1.398-1.674,2.093-2.505.687-.837,1.319-1.713,1.977-2.561,2.603-3.416,5.16-6.77,7.67-10.063,2.358-3.417,4.672-6.77,6.942-10.059,2.197-3.33,4.249-6.655,6.229-9.935,3.953-6.551,7.505-13.034,10.707-19.27,3.254-6.183,6.364-12.092,9.329-17.726,1.484-2.816,2.932-5.563,4.344-8.24,1.463-2.65,2.888-5.231,4.276-7.744,2.775-5.026,5.398-9.778,7.87-14.255,1.218-2.249,2.465-4.39,3.673-6.464,1.203-2.076,2.367-4.083,3.492-6.023,2.249-3.879,4.34-7.485,6.271-10.817,3.927-6.625,7.334-12.083,10-16.497,1.345-2.199,2.523-4.126,3.534-5.779,1.046-1.63,1.919-2.991,2.618-4.08,1.398-2.178,2.099-3.272,2.099-3.272" fill="none" stroke="#231f20" stroke-miterlimit="10" stroke-width=".25"/>
    </g>
    <g>
      <path d="m629.665,527.442c2.505-4.339,4.814-8.654,7.05-12.986,2.276-4.324,4.516-8.582,6.721-12.771,2.205-4.19,4.374-8.312,6.508-12.366,2.17-4.035,4.38-7.963,6.511-11.846,4.283-7.754,8.369-15.268,12.57-22.365,4.164-7.117,8.037-14.047,12.077-20.522,15.75-26.141,30.081-47.367,42.34-63.87,12.249-16.515,22.427-28.292,29.619-35.835,1.797-1.887,3.381-3.533,4.81-4.889.703-.687,1.349-1.316,1.936-1.889.609-.557,1.157-1.058,1.644-1.504.964-.896,1.721-1.554,2.242-1.984.512-.435.769-.652.769-.652" fill="none" stroke="#231f20" stroke-miterlimit="10" stroke-width=".25"/>
      <path d="m627.514,526.205c2.491-4.316,4.763-8.561,6.996-12.887,2.279-4.331,4.523-8.595,6.731-12.791,2.208-4.196,4.381-8.324,6.518-12.385,2.174-4.042,4.388-7.977,6.522-11.867,4.291-7.768,8.383-15.294,12.594-22.407,4.172-7.132,8.053-14.074,12.103-20.566,15.786-26.201,30.161-47.493,42.473-64.068,12.303-16.586,22.544-28.443,29.816-36.068,1.817-1.908,3.419-3.572,4.872-4.952.714-.697,1.37-1.336,1.966-1.918.622-.569,1.182-1.082,1.681-1.538.5-.455.938-.853,1.313-1.195.399-.339.731-.621.997-.848.532-.452.799-.678.799-.678" fill="none" stroke="#231f20" stroke-miterlimit="10" stroke-width=".25"/>
    </g>
  </g>
  <g>
    <rect x="-1044.473" y="469.712" width="3386.58" height="2514.089" transform="translate(-1077.939 2375.574) rotate(-90)" fill="none" stroke="#231f20" stroke-linecap="round" stroke-miterlimit="10" stroke-width="7"/>
    <rect x="-1027.506" y="486.834" width="3353.392" height="2482.402" transform="translate(-1078.845 2377.225) rotate(-90)" fill="none" stroke="#231f20" stroke-linecap="round" stroke-miterlimit="10" stroke-width="3"/>
    <rect x="-989.031" y="522.452" width="3275.615" height="2412.095" transform="translate(-1079.722 2377.276) rotate(-90)" fill="none" stroke="#231f20" stroke-linecap="round" stroke-miterlimit="10"/>
    <rect x="-971.163" y="539.815" width="3239.88" height="2376.261" transform="translate(-1079.169 2376.723) rotate(-90)" fill="none" stroke="#231f20" stroke-linecap="round" stroke-miterlimit="10"/>
    <line x1="180.444" y1="108.608" x2="180.444" y2="90.692" fill="none" stroke="#231f20" stroke-linecap="round" stroke-miterlimit="10"/>
    <line x1="108.316" y1="108.608" x2="108.316" y2="90.692" fill="none" stroke="#231f20" stroke-linecap="round" stroke-miterlimit="10"/>
    <line x1="36.477" y1="108.608" x2="36.477" y2="90.692" fill="none" stroke="#231f20" stroke-linecap="round" stroke-miterlimit="10"/>
    <line x1="612.378" y1="108.608" x2="612.378" y2="90.692" fill="none" stroke="#231f20" stroke-linecap="round" stroke-miterlimit="10"/>
    <line x1="540.539" y1="108.608" x2="540.539" y2="90.692" fill="none" stroke="#231f20" stroke-linecap="round" stroke-miterlimit="10"/>
    <line x1="468.484" y1="108.608" x2="468.484" y2="90.692" fill="none" stroke="#231f20" stroke-linecap="round" stroke-miterlimit="10"/>
    <line x1="396.635" y1="108.608" x2="396.635" y2="90.692" fill="none" stroke="#231f20" stroke-linecap="round" stroke-miterlimit="10"/>
    <line x1="324.481" y1="108.608" x2="324.481" y2="90.692" fill="none" stroke="#231f20" stroke-linecap="round" stroke-miterlimit="10"/>
    <line x1="252.56" y1="108.608" x2="252.56" y2="90.692" fill="none" stroke="#231f20" stroke-linecap="round" stroke-miterlimit="10"/>
    <rect x="540.449" y="97.579" width="144" height="3.6" transform="translate(1224.898 198.759) rotate(180)" fill="#231f20" stroke-width="0"/>
    <rect x="324.598" y="95.264" width="144" height="8.773" transform="translate(793.195 199.3) rotate(180)" fill="#231f20" stroke-width="0"/>
    <rect x="36.521" y="97.579" width="144" height="3.6" transform="translate(217.043 198.759) rotate(180)" fill="#231f20" stroke-width="0"/>
  </g>
  <g>
    <path d="m223.9,428.239c.617-.207,1.284.126,1.491.742s-.126,1.284-.742,1.491c-.617.207-1.284-.126-1.491-.742-.207-.617.126-1.284.742-1.491Z" fill="#231f20" stroke-width="0"/>
    <path d="m222.399,423.759c.617-.207,1.284.126,1.491.742.207.617-.126,1.284-.742,1.491-.617.207-1.284-.126-1.491-.742-.207-.617.126-1.284.742-1.491Z" fill="#231f20" stroke-width="0"/>
    <path d="m220.897,419.279c.617-.207,1.284.126,1.491.742.207.617-.126,1.284-.742,1.491s-1.284-.126-1.491-.742c-.207-.617.126-1.284.742-1.491Z" fill="#231f20" stroke-width="0"/>
    <path d="m219.395,414.799c.617-.207,1.284.126,1.491.742.207.617-.126,1.284-.742,1.491s-1.284-.126-1.491-.742c-.207-.617.126-1.284.742-1.491Z" fill="#231f20" stroke-width="0"/>
    <path d="m217.894,410.319c.617-.207,1.284.126,1.491.742s-.126,1.284-.742,1.491c-.617.207-1.284-.126-1.491-.742-.207-.617.126-1.284.742-1.491Z" fill="#231f20" stroke-width="0"/>
    <path d="m216.392,405.839c.617-.207,1.284.126,1.491.742.207.617-.126,1.284-.742,1.491-.617.207-1.284-.126-1.491-.742-.207-.617.126-1.284.742-1.491Z" fill="#231f20" stroke-width="0"/>
    <path d="m214.89,401.359c.617-.207,1.284.126,1.491.742.207.617-.126,1.284-.742,1.491s-1.284-.126-1.491-.742c-.207-.617.126-1.284.742-1.491Z" fill="#231f20" stroke-width="0"/>
    <path d="m213.389,396.879c.617-.207,1.284.126,1.491.742.207.617-.126,1.284-.742,1.491s-1.284-.126-1.491-.742c-.207-.617.126-1.284.742-1.491Z" fill="#231f20" stroke-width="0"/>
    <path d="m211.887,392.4c.617-.207,1.284.126,1.491.742.207.617-.126,1.284-.742,1.491-.617.207-1.284-.126-1.491-.742-.207-.617.126-1.284.742-1.491Z" fill="#231f20" stroke-width="0"/>
    <path d="m210.385,387.92c.617-.207,1.284.126,1.491.742.207.617-.126,1.284-.742,1.491-.617.207-1.284-.126-1.491-.742-.207-.617.126-1.284.742-1.491Z" fill="#231f20" stroke-width="0"/>
    <path d="m208.884,383.44c.617-.207,1.284.126,1.491.742.207.617-.126,1.284-.742,1.491-.617.207-1.284-.126-1.491-.742-.207-.617.126-1.284.742-1.491Z" fill="#231f20" stroke-width="0"/>
    <path d="m207.382,378.96c.617-.207,1.284.126,1.491.742.207.617-.126,1.284-.742,1.491s-1.284-.126-1.491-.742c-.207-.617.126-1.284.742-1.491Z" fill="#231f20" stroke-width="0"/>
    <path d="m205.88,374.48c.617-.207,1.284.126,1.491.742.207.617-.126,1.284-.742,1.491-.617.207-1.284-.126-1.491-.742-.207-.617.126-1.284.742-1.491Z" fill="#231f20" stroke-width="0"/>
    <path d="m204.379,370c.617-.207,1.284.126,1.491.742.207.617-.126,1.284-.742,1.491-.617.207-1.284-.126-1.491-.742-.207-.617.126-1.284.742-1.491Z" fill="#231f20" stroke-width="0"/>
    <path d="m202.877,365.52c.617-.207,1.284.126,1.491.742.207.617-.126,1.284-.742,1.491-.617.207-1.284-.126-1.491-.742-.207-.617.126-1.284.742-1.491Z" fill="#231f20" stroke-width="0"/>
    <path d="m201.375,361.04c.617-.207,1.284.126,1.491.742.207.617-.126,1.284-.742,1.491-.617.207-1.284-.126-1.491-.742-.207-.617.126-1.284.742-1.491Z" fill="#231f20" stroke-width="0"/>
    <path d="m199.874,356.56c.617-.207,1.284.126,1.491.742.207.617-.126,1.284-.742,1.491-.617.207-1.284-.126-1.491-.742-.207-.617.126-1.284.742-1.491Z" fill="#231f20" stroke-width="0"/>
    <path d="m198.372,352.08c.617-.207,1.284.126,1.491.742.207.617-.126,1.284-.742,1.491-.617.207-1.284-.126-1.491-.742s.126-1.284.742-1.491Z" fill="#231f20" stroke-width="0"/>
    <path d="m196.87,347.6c.617-.207,1.284.126,1.491.742.207.617-.126,1.284-.742,1.491-.617.207-1.284-.126-1.491-.742-.207-.617.126-1.284.742-1.491Z" fill="#231f20" stroke-width="0"/>
    <path d="m195.369,343.12c.617-.207,1.284.126,1.491.742.207.617-.126,1.284-.742,1.491-.617.207-1.284-.126-1.491-.742-.207-.617.126-1.284.742-1.491Z" fill="#231f20" stroke-width="0"/>
    <path d="m193.867,338.64c.617-.207,1.284.126,1.491.742.207.617-.126,1.284-.742,1.491-.617.207-1.284-.126-1.491-.742-.207-.617.126-1.284.742-1.491Z" fill="#231f20" stroke-width="0"/>
    <path d="m192.365,334.161c.617-.207,1.284.126,1.491.742.207.617-.126,1.284-.742,1.491-.617.207-1.284-.126-1.491-.742-.207-.617.126-1.284.742-1.491Z" fill="#231f20" stroke-width="0"/>
    <path d="m190.864,329.681c.617-.207,1.284.126,1.491.742.207.617-.126,1.284-.742,1.491-.617.207-1.284-.126-1.491-.742-.207-.617.126-1.284.742-1.491Z" fill="#231f20" stroke-width="0"/>
    <path d="m189.362,325.201c.617-.207,1.284.126,1.491.742.207.617-.126,1.284-.742,1.491-.617.207-1.284-.126-1.491-.742-.207-.617.126-1.284.742-1.491Z" fill="#231f20" stroke-width="0"/>
    <path d="m187.86,320.721c.617-.207,1.284.126,1.491.742.207.617-.126,1.284-.742,1.491-.617.207-1.284-.126-1.491-.742-.207-.617.126-1.284.742-1.491Z" fill="#231f20" stroke-width="0"/>
    <path d="m186.359,316.241c.617-.207,1.284.126,1.491.742.207.617-.126,1.284-.742,1.491-.617.207-1.284-.126-1.491-.742-.207-.617.126-1.284.742-1.491Z" fill="#231f20" stroke-width="0"/>
    <path d="m184.857,311.761c.617-.207,1.284.126,1.491.742.207.617-.126,1.284-.742,1.491-.617.207-1.284-.126-1.491-.742-.207-.617.126-1.284.742-1.491Z" fill="#231f20" stroke-width="0"/>
    <path d="m183.355,307.281c.617-.207,1.284.126,1.491.742.207.617-.126,1.284-.742,1.491s-1.284-.126-1.491-.742c-.207-.617.126-1.284.742-1.491Z" fill="#231f20" stroke-width="0"/>
    <path d="m181.854,302.801c.617-.207,1.284.126,1.491.742.207.617-.126,1.284-.742,1.491-.617.207-1.284-.126-1.491-.742-.207-.617.126-1.284.742-1.491Z" fill="#231f20" stroke-width="0"/>
    <path d="m180.352,298.321c.617-.207,1.284.126,1.491.742.207.617-.126,1.284-.742,1.491-.617.207-1.284-.126-1.491-.742-.207-.617.126-1.284.742-1.491Z" fill="#231f20" stroke-width="0"/>
    <path d="m178.85,293.841c.617-.207,1.284.126,1.491.742.207.617-.126,1.284-.742,1.491-.617.207-1.284-.126-1.491-.742-.207-.617.126-1.284.742-1.491Z" fill="#231f20" stroke-width="0"/>
    <path d="m177.349,289.361c.617-.207,1.284.126,1.491.742.207.617-.126,1.284-.742,1.491s-1.284-.126-1.491-.742c-.207-.617.126-1.284.742-1.491Z" fill="#231f20" stroke-width="0"/>
    <path d="m175.847,284.881c.617-.207,1.284.126,1.491.742.207.617-.126,1.284-.742,1.491-.617.207-1.284-.126-1.491-.742-.207-.617.126-1.284.742-1.491Z" fill="#231f20" stroke-width="0"/>
    <path d="m174.345,280.401c.617-.207,1.284.126,1.491.742s-.126,1.284-.742,1.491c-.617.207-1.284-.126-1.491-.742-.207-.617.126-1.284.742-1.491Z" fill="#231f20" stroke-width="0"/>
    <path d="m172.844,275.922c.617-.207,1.284.126,1.491.742.207.617-.126,1.284-.742,1.491-.617.207-1.284-.126-1.491-.742-.207-.617.126-1.284.742-1.491Z" fill="#231f20" stroke-width="0"/>
    <path d="m171.342,271.442c.617-.207,1.284.126,1.491.742.207.617-.126,1.284-.742,1.491s-1.284-.126-1.491-.742c-.207-.617.126-1.284.742-1.491Z" fill="#231f20" stroke-width="0"/>
    <path d="m169.84,266.962c.617-.207,1.284.126,1.491.742.207.617-.126,1.284-.742,1.491-.617.207-1.284-.126-1.491-.742-.207-.617.126-1.284.742-1.491Z" fill="#231f20" stroke-width="0"/>
    <path d="m168.339,262.482c.617-.207,1.284.126,1.491.742s-.126,1.284-.742,1.491c-.617.207-1.284-.126-1.491-.742-.207-.617.126-1.284.742-1.491Z" fill="#231f20" stroke-width="0"/>
    <path d="m166.837,258.002c.617-.207,1.284.126,1.491.742.207.617-.126,1.284-.742,1.491-.617.207-1.284-.126-1.491-.742-.207-.617.126-1.284.742-1.491Z" fill="#231f20" stroke-width="0"/>
    <path d="m165.335,253.522c.617-.207,1.284.126,1.491.742.207.617-.126,1.284-.742,1.491-.617.207-1.284-.126-1.491-.742-.207-.617.126-1.284.742-1.491Z" fill="#231f20" stroke-width="0"/>
    <path d="m163.834,249.042c.617-.207,1.284.126,1.491.742.207.617-.126,1.284-.742,1.491-.617.207-1.284-.126-1.491-.742-.207-.617.126-1.284.742-1.491Z" fill="#231f20" stroke-width="0"/>
    <path d="m162.332,244.562c.617-.207,1.284.126,1.491.742.207.617-.126,1.284-.742,1.491-.617.207-1.284-.126-1.491-.742-.207-.617.126-1.284.742-1.491Z" fill="#231f20" stroke-width="0"/>
    <path d="m160.83,240.082c.617-.207,1.284.126,1.491.742.207.617-.126,1.284-.742,1.491-.617.207-1.284-.126-1.491-.742-.207-.617.126-1.284.742-1.491Z" fill="#231f20" stroke-width="0"/>
    <path d="m159.329,235.602c.617-.207,1.284.126,1.491.742.207.617-.126,1.284-.742,1.491-.617.207-1.284-.126-1.491-.742-.207-.617.126-1.284.742-1.491Z" fill="#231f20" stroke-width="0"/>
    <path d="m157.827,231.122c.617-.207,1.284.126,1.491.742.207.617-.126,1.284-.742,1.491-.617.207-1.284-.126-1.491-.742-.207-.617.126-1.284.742-1.491Z" fill="#231f20" stroke-width="0"/>
    <path d="m156.325,226.642c.617-.207,1.284.126,1.491.742.207.617-.126,1.284-.742,1.491-.617.207-1.284-.126-1.491-.742-.207-.617.126-1.284.742-1.491Z" fill="#231f20" stroke-width="0"/>
    <path d="m154.824,222.162c.617-.207,1.284.126,1.491.742.207.617-.126,1.284-.742,1.491-.617.207-1.284-.126-1.491-.742-.207-.617.126-1.284.742-1.491Z" fill="#231f20" stroke-width="0"/>
    <path d="m153.322,217.682c.617-.207,1.284.126,1.491.742.207.617-.126,1.284-.742,1.491s-1.284-.126-1.491-.742c-.207-.617.126-1.284.742-1.491Z" fill="#231f20" stroke-width="0"/>
    <path d="m151.82,213.203c.617-.207,1.284.126,1.491.742.207.617-.126,1.284-.742,1.491-.617.207-1.284-.126-1.491-.742-.207-.617.126-1.284.742-1.491Z" fill="#231f20" stroke-width="0"/>
    <path d="m150.319,208.723c.617-.207,1.284.126,1.491.742.207.617-.126,1.284-.742,1.491-.617.207-1.284-.126-1.491-.742-.207-.617.126-1.284.742-1.491Z" fill="#231f20" stroke-width="0"/>
    <path d="m148.817,204.243c.617-.207,1.284.126,1.491.742.207.617-.126,1.284-.742,1.491-.617.207-1.284-.126-1.491-.742-.207-.617.126-1.284.742-1.491Z" fill="#231f20" stroke-width="0"/>
    <path d="m147.315,199.763c.617-.207,1.284.126,1.491.742.207.617-.126,1.284-.742,1.491-.617.207-1.284-.126-1.491-.742-.207-.617.126-1.284.742-1.491Z" fill="#231f20" stroke-width="0"/>
    <path d="m145.814,195.283c.617-.207,1.284.126,1.491.742.207.617-.126,1.284-.742,1.491-.617.207-1.284-.126-1.491-.742-.207-.617.126-1.284.742-1.491Z" fill="#231f20" stroke-width="0"/>
    <path d="m144.312,190.803c.617-.207,1.284.126,1.491.742s-.126,1.284-.742,1.491c-.617.207-1.284-.126-1.491-.742-.207-.617.126-1.284.742-1.491Z" fill="#231f20" stroke-width="0"/>
    <path d="m142.81,186.323c.617-.207,1.284.126,1.491.742.207.617-.126,1.284-.742,1.491-.617.207-1.284-.126-1.491-.742s.126-1.284.742-1.491Z" fill="#231f20" stroke-width="0"/>
    <path d="m141.309,181.843c.617-.207,1.284.126,1.491.742.207.617-.126,1.284-.742,1.491-.617.207-1.284-.126-1.491-.742-.207-.617.126-1.284.742-1.491Z" fill="#231f20" stroke-width="0"/>
    <path d="m139.807,177.363c.617-.207,1.284.126,1.491.742.207.617-.126,1.284-.742,1.491-.617.207-1.284-.126-1.491-.742-.207-.617.126-1.284.742-1.491Z" fill="#231f20" stroke-width="0"/>
    <path d="m138.305,172.883c.617-.207,1.284.126,1.491.742.207.617-.126,1.284-.742,1.491-.617.207-1.284-.126-1.491-.742-.207-.617.126-1.284.742-1.491Z" fill="#231f20" stroke-width="0"/>
    <path d="m136.804,168.403c.617-.207,1.284.126,1.491.742.207.617-.126,1.284-.742,1.491-.617.207-1.284-.126-1.491-.742-.207-.617.126-1.284.742-1.491Z" fill="#231f20" stroke-width="0"/>
    <path d="m135.302,163.923c.617-.207,1.284.126,1.491.742.207.617-.126,1.284-.742,1.491-.617.207-1.284-.126-1.491-.742-.207-.617.126-1.284.742-1.491Z" fill="#231f20" stroke-width="0"/>
    <path d="m133.8,159.443c.617-.207,1.284.126,1.491.742.207.617-.126,1.284-.742,1.491-.617.207-1.284-.126-1.491-.742-.207-.617.126-1.284.742-1.491Z" fill="#231f20" stroke-width="0"/>
    <path d="m132.299,154.964c.617-.207,1.284.126,1.491.742.207.617-.126,1.284-.742,1.491-.617.207-1.284-.126-1.491-.742-.207-.617.126-1.284.742-1.491Z" fill="#231f20" stroke-width="0"/>
    <path d="m130.797,150.484c.617-.207,1.284.126,1.491.742.207.617-.126,1.284-.742,1.491-.617.207-1.284-.126-1.491-.742-.207-.617.126-1.284.742-1.491Z" fill="#231f20" stroke-width="0"/>
    <path d="m129.295,146.004c.617-.207,1.284.126,1.491.742.207.617-.126,1.284-.742,1.491-.617.207-1.284-.126-1.491-.742-.207-.617.126-1.284.742-1.491Z" fill="#231f20" stroke-width="0"/>
    <path d="m127.794,141.524c.617-.207,1.284.126,1.491.742.207.617-.126,1.284-.742,1.491-.617.207-1.284-.126-1.491-.742-.207-.617.126-1.284.742-1.491Z" fill="#231f20" stroke-width="0"/>
    <path d="m126.292,137.044c.617-.207,1.284.126,1.491.742s-.126,1.284-.742,1.491c-.617.207-1.284-.126-1.491-.742-.207-.617.126-1.284.742-1.491Z" fill="#231f20" stroke-width="0"/>
    <path d="m124.79,132.564c.617-.207,1.284.126,1.491.742.207.617-.126,1.284-.742,1.491-.617.207-1.284-.126-1.491-.742s.126-1.284.742-1.491Z" fill="#231f20" stroke-width="0"/>
    <path d="m123.289,128.084c.617-.207,1.284.126,1.491.742.207.617-.126,1.284-.742,1.491-.617.207-1.284-.126-1.491-.742-.207-.617.126-1.284.742-1.491Z" fill="#231f20" stroke-width="0"/>
    <path d="m121.787,123.604c.617-.207,1.284.126,1.491.742.207.617-.126,1.284-.742,1.491-.617.207-1.284-.126-1.491-.742-.207-.617.126-1.284.742-1.491Z" fill="#231f20" stroke-width="0"/>
    <path d="m120.286,119.124c.617-.207,1.284.126,1.491.742.207.617-.126,1.284-.742,1.491-.617.207-1.284-.126-1.491-.742-.207-.617.126-1.284.742-1.491Z" fill="#231f20" stroke-width="0"/>
    <path d="m118.784,114.644c.617-.207,1.284.126,1.491.742.207.617-.126,1.284-.742,1.491-.617.207-1.284-.126-1.491-.742-.207-.617.126-1.284.742-1.491Z" fill="#231f20" stroke-width="0"/>
    <path d="m117.282,110.164c.617-.207,1.284.126,1.491.742.207.617-.126,1.284-.742,1.491-.617.207-1.284-.126-1.491-.742-.207-.617.126-1.284.742-1.491Z" fill="#231f20" stroke-width="0"/>
  </g>
  <g>
    <g>
      <path d="m646.883,421.366c2.822-7.338,5.22-14.385,7.203-21.082.475-1.683,1.006-3.311,1.41-4.958.418-1.641.828-3.252,1.23-4.834.401-1.582.69-3.171,1.03-4.71.33-1.542.659-3.053.877-4.564,2.083-11.995,2.233-22.454,1.158-30.758-.068-1.043-.281-2.041-.449-3.011-.174-.969-.343-1.907-.505-2.812-.267-1.822-.769-3.468-1.18-5-.208-.765-.408-1.498-.599-2.2-.195-.701-.355-1.378-.61-1.992-.463-1.243-.88-2.363-1.252-3.359-.378-.994-.69-1.871-.993-2.612-.345-.728-.633-1.336-.864-1.822-.463-.972-.695-1.46-.695-1.46" fill="none" stroke="#231f20" stroke-miterlimit="10" stroke-width=".25"/>
      <path d="m644.564,420.483c2.807-7.297,5.181-14.281,7.142-20.901.469-1.663.995-3.275,1.393-4.898.412-1.618.817-3.207,1.214-4.767.396-1.56.679-3.121,1.014-4.636.325-1.518.65-3.005.862-4.487,2.044-11.782,2.182-21.972,1.141-30.028-.064-1.014-.273-1.98-.436-2.92-.169-.939-.332-1.847-.49-2.725-.256-1.767-.745-3.358-1.142-4.839-.201-.74-.394-1.45-.579-2.129-.188-.678-.341-1.334-.589-1.927-.448-1.201-.852-2.283-1.211-3.246-.365-.961-.665-1.81-.958-2.525-.333-.7-.61-1.285-.833-1.753-.445-.935-.669-1.405-.669-1.405" fill="none" stroke="#231f20" stroke-miterlimit="10" stroke-width=".25"/>
      <path d="m635.536,304.299c-6.297-5.39-13.052-9.419-19.76-12.251-6.714-2.835-13.387-4.468-19.654-5.154-6.271-.673-12.14-.524-17.367.348-5.235.836-9.864,2.203-13.837,3.832-3.976,1.627-7.289,3.52-9.984,5.372-2.696,1.851-4.804,3.632-6.379,5.179-1.612,1.511-2.662,2.814-3.413,3.632-.692.888-1.039,1.334-1.039,1.334" fill="none" stroke="#231f20" stroke-miterlimit="10" stroke-width=".25"/>
      <path d="m633.914,306.177c-6.088-5.209-12.621-9.106-19.103-11.842-6.487-2.74-12.926-4.313-18.963-4.974-6.04-.647-11.682-.507-16.709.333-5.033.804-9.477,2.117-13.279,3.675-3.806,1.558-6.965,3.364-9.528,5.126-2.565,1.762-4.565,3.45-6.057,4.916-1.529,1.431-2.519,2.664-3.231,3.437-.649.835-.975,1.255-.975,1.255" fill="none" stroke="#231f20" stroke-miterlimit="10" stroke-width=".25"/>
    </g>
    <g>
      <path d="m608.893,493.286c6.884-13.887,12.308-26.425,16.873-37.259,4.548-10.838,8.267-19.99,11.23-27.316,2.949-7.33,5.042-12.893,6.367-16.635.659-1.872,1.155-3.28,1.486-4.219.329-.941.472-1.419.472-1.419" fill="none" stroke="#231f20" stroke-miterlimit="10" stroke-width=".25"/>
      <path d="m606.671,492.181c6.846-13.81,12.253-26.305,16.808-37.117,4.536-10.81,8.261-19.975,11.215-27.279,2.939-7.306,5.018-12.832,6.333-16.545.654-1.856,1.146-3.253,1.474-4.185.326-.933.468-1.405.468-1.405" fill="none" stroke="#231f20" stroke-miterlimit="10" stroke-width=".25"/>
      <path d="m652.606,377.672c1.167-7.57,1.544-14.759,1.197-21.432-.426-6.674-1.714-12.758-3.352-18.238-.501-1.339-.991-2.651-1.472-3.936-.24-.643-.476-1.278-.711-1.907-.288-.603-.573-1.2-.854-1.791-1.049-2.401-2.374-4.531-3.561-6.599-1.361-1.962-2.566-3.891-3.97-5.533-.688-.829-1.286-1.695-1.994-2.431-.691-.75-1.362-1.478-2.013-2.185-5.308-5.581-10.207-8.833-13.493-10.86-.828-.505-1.554-.948-2.177-1.327-.647-.336-1.186-.617-1.618-.842-.865-.448-1.299-.673-1.299-.673" fill="none" stroke="#231f20" stroke-miterlimit="10" stroke-width=".25"/>
      <path d="m650.154,377.294c1.144-7.421,1.508-14.429,1.172-20.904-.414-6.473-1.662-12.342-3.237-17.625-.483-1.29-.956-2.553-1.42-3.79-.23-.619-.457-1.232-.682-1.838-.276-.578-.55-1.15-.82-1.715-1.002-2.301-2.278-4.343-3.413-6.329-1.311-1.882-2.463-3.738-3.816-5.315-.662-.797-1.234-1.631-1.917-2.339-.665-.722-1.311-1.422-1.937-2.102-5.108-5.374-9.833-8.509-12.999-10.461-.798-.487-1.497-.914-2.097-1.28-.623-.324-1.143-.594-1.56-.81-.833-.432-1.252-.648-1.252-.648" fill="none" stroke="#231f20" stroke-miterlimit="10" stroke-width=".25"/>
      <path d="m593,293.122c-7.515-.526-14.642.41-20.95,2.327-6.323,1.908-11.772,4.901-16.176,8.387-8.923,7.05-12.687,16.326-13.766,23.685-.558,3.714-.466,7.025-.1,9.803.115.691.226,1.354.332,1.988.128.629.304,1.216.441,1.784.242,1.147.684,2.105.966,2.995.711,1.721,1.319,2.987,1.821,3.774.467.808.701,1.214.701,1.214" fill="none" stroke="#231f20" stroke-miterlimit="10" stroke-width=".25"/>
      <path d="m592.826,295.598c-7.2-.505-14.028.395-20.05,2.224-6.037,1.821-11.199,4.668-15.348,7.949-2.05,1.676-3.844,3.46-5.411,5.292-1.466,1.86-2.787,3.722-3.776,5.669-2.089,3.834-3.14,7.715-3.678,11.157-.52,3.462-.432,6.532-.096,9.095.106.637.208,1.247.305,1.832.117.579.282,1.116.407,1.637.218,1.055.629,1.925.882,2.74.652,1.569,1.199,2.722,1.659,3.436.422.735.634,1.105.634,1.105" fill="none" stroke="#231f20" stroke-miterlimit="10" stroke-width=".25"/>
    </g>
  </g>
  <g>
    <g>
      <path d="m519.523,283.857c-5.82-5.734-9.381-10.867-11.795-14.241-1.119-1.756-1.962-3.08-2.526-3.965-.58-.875-.814-1.353-.814-1.353" fill="none" stroke="#231f20" stroke-miterlimit="10" stroke-width=".25"/>
      <path d="m517.782,285.625c-5.98-5.892-9.635-11.156-12.11-14.619-1.147-1.8-2.013-3.158-2.591-4.066-.594-.898-.835-1.387-.835-1.387" fill="none" stroke="#231f20" stroke-miterlimit="10" stroke-width=".25"/>
      <path d="m501.133,258.231c-.441-.924-.868-1.821-1.282-2.689-.424-.864-.818-1.707-1.135-2.551-.672-1.67-1.298-3.225-1.877-4.663-.954-2.95-1.898-5.377-2.373-7.411-.53-2.017-.992-3.523-1.202-4.553-.213-1.03-.321-1.549-.321-1.549" fill="none" stroke="#231f20" stroke-miterlimit="10" stroke-width=".25"/>
      <path d="m498.909,259.333c-.452-.947-.889-1.866-1.314-2.756-.434-.886-.838-1.75-1.163-2.614-.688-1.712-1.329-3.305-1.922-4.778-.98-3.021-1.943-5.509-2.432-7.592-.544-2.066-1.015-3.609-1.231-4.665-.219-1.055-.329-1.587-.329-1.587" fill="none" stroke="#231f20" stroke-miterlimit="10" stroke-width=".25"/>
      <path d="m491.569,227.028c-.35-2.021-.447-3.944-.609-5.736-.068-.897-.165-1.761-.205-2.596-.018-.836-.035-1.641-.052-2.415-.008-1.547-.125-2.97-.04-4.263.053-1.293.101-2.46.143-3.499.029-2.083.309-3.632.386-4.676.109-1.042.164-1.568.164-1.568" fill="none" stroke="#231f20" stroke-miterlimit="10" stroke-width=".25"/>
      <path d="m489.11,227.363c-.357-2.071-.459-4.043-.624-5.879-.07-.919-.168-1.805-.209-2.662-.019-.858-.037-1.683-.054-2.477-.009-1.586-.126-3.046-.04-4.372.054-1.327.103-2.524.146-3.59.032-2.137.316-3.728.396-4.8.112-1.07.169-1.609.169-1.609" fill="none" stroke="#231f20" stroke-miterlimit="10" stroke-width=".25"/>
      <path d="m492.427,195.499c.761-4.015,1.747-7.332,2.851-9.96,1.099-2.635,2.336-4.563,3.438-5.966,1.087-1.352,2.081-2.226,2.753-2.774.342-.269.597-.474.779-.591.178-.124.267-.187.267-.187" fill="none" stroke="#231f20" stroke-miterlimit="10" stroke-width=".25"/>
      <path d="m489.994,195.013c.781-4.119,1.809-7.611,2.997-10.436,1.181-2.832,2.543-4.973,3.78-6.544,1.24-1.545,2.372-2.539,3.142-3.166.391-.309.684-.542.893-.678.204-.143.307-.215.307-.215" fill="none" stroke="#231f20" stroke-miterlimit="10" stroke-width=".25"/>
    </g>
    <g>
      <path d="m506.814,279.39c-5.42-6.868-8.588-12.726-10.718-16.613-1.919-4.004-2.895-6.04-2.895-6.04" fill="none" stroke="#231f20" stroke-miterlimit="10" stroke-width=".25"/>
      <path d="m504.867,280.929c-5.553-7.037-8.797-13.032-10.975-17.011-1.964-4.097-2.963-6.181-2.963-6.181" fill="none" stroke="#231f20" stroke-miterlimit="10" stroke-width=".25"/>
      <path d="m490.498,249.916c-.682-2.071-1.382-3.999-1.927-5.836-.502-1.85-.969-3.572-1.401-5.164-.396-1.601-.662-3.096-.956-4.445-.282-1.352-.551-2.57-.682-3.673-.32-2.197-.561-3.854-.722-4.962-.099-1.115-.149-1.678-.149-1.678" fill="none" stroke="#231f20" stroke-miterlimit="10" stroke-width=".25"/>
      <path d="m488.164,250.758c-.699-2.118-1.414-4.091-1.971-5.971-.513-1.893-.991-3.654-1.433-5.283-.405-1.638-.679-3.167-.979-4.548-.289-1.383-.563-2.629-.698-3.758-.327-2.248-.574-3.944-.739-5.078-.102-1.142-.153-1.717-.153-1.717" fill="none" stroke="#231f20" stroke-miterlimit="10" stroke-width=".25"/>
      <path d="m484.173,215.748c-.017-1.091-.063-2.149-.052-3.174.041-1.025.082-2.017.12-2.976.039-.959.077-1.884.114-2.776.039-.892.167-1.745.242-2.567.18-1.643.315-3.156.493-4.528.234-1.364.445-2.595.633-3.691.352-2.196.705-3.838.975-4.936.277-1.098.417-1.651.417-1.651" fill="none" stroke="#231f20" stroke-miterlimit="10" stroke-width=".25"/>
      <path d="m481.692,215.795c-.017-1.117-.064-2.201-.053-3.25.042-1.05.083-2.066.122-3.048.041-.982.08-1.93.117-2.844.041-.914.171-1.788.247-2.631.183-1.684.324-3.235.507-4.64.24-1.399.456-2.661.648-3.784.361-2.25.724-3.936,1.004-5.072.287-1.138.432-1.712.432-1.712" fill="none" stroke="#231f20" stroke-miterlimit="10" stroke-width=".25"/>
      <path d="m489.558,182.348c1.816-4.131,4.251-7.523,6.924-9.862,2.644-2.352,5.358-3.75,7.666-4.503,2.316-.76,4.204-.916,5.45-.915.625-.023,1.096.036,1.411.052.314.023.472.034.472.034" fill="none" stroke="#231f20" stroke-miterlimit="10" stroke-width=".25"/>
      <path d="m487.289,181.344c.964-2.203,2.12-4.229,3.379-6.029,1.252-1.793,2.72-3.401,4.163-4.681,2.915-2.593,5.931-4.155,8.538-5.007,2.613-.859,4.781-1.04,6.214-1.041.718-.024,1.263.04,1.625.06.362.027.544.041.544.041" fill="none" stroke="#231f20" stroke-miterlimit="10" stroke-width=".25"/>
    </g>
  </g>
  <g>
    <g>
      <path d="m614.127,149.847c6.046-2.819,10.972-4.172,14.281-4.928,1.653-.406,2.923-.602,3.768-.754.845-.151,1.271-.227,1.271-.227" fill="none" stroke="#231f20" stroke-miterlimit="10" stroke-width=".25"/>
      <path d="m613.059,147.607c6.27-2.926,11.371-4.324,14.797-5.107,1.711-.419,3.026-.623,3.9-.781.875-.156,1.316-.234,1.316-.234" fill="none" stroke="#231f20" stroke-miterlimit="10" stroke-width=".25"/>
      <path d="m639.041,143.325c6.683-.515,11.77.061,15.133.492,1.678.274,2.95.444,3.784.647.839.175,1.262.264,1.262.264" fill="none" stroke="#231f20" stroke-miterlimit="10" stroke-width=".25"/>
      <path d="m638.859,140.85c6.914-.531,12.179.062,15.661.51,1.738.282,3.055.461,3.919.67.869.182,1.307.273,1.307.273" fill="none" stroke="#231f20" stroke-miterlimit="10" stroke-width=".25"/>
    </g>
    <g>
      <path d="m620.829,140.227c6.974-2.213,12.517-2.903,16.203-3.279,1.851-.16,3.249-.264,4.186-.273.937-.031,1.409-.047,1.409-.047" fill="none" stroke="#231f20" stroke-miterlimit="10" stroke-width=".25"/>
      <path d="m620.078,137.862c7.203-2.285,12.921-2.998,16.724-3.385,1.91-.166,3.352-.272,4.319-.281.966-.032,1.453-.049,1.453-.049" fill="none" stroke="#231f20" stroke-miterlimit="10" stroke-width=".25"/>
    </g>
  </g>
  <g>
    <g>
      <path d="m21.044,426.053c2.806-6.822,3.966-13.19,4.579-18.628.614-5.458.45-10.044.27-13.701-.228-3.66-.646-6.392-.899-8.22-.329-1.816-.495-2.732-.495-2.732" fill="none" stroke="#231f20" stroke-miterlimit="10" stroke-width=".25"/>
      <path d="m18.744,425.12c2.695-6.546,3.818-12.697,4.411-17.958.596-5.282.435-9.734.261-13.283-.221-3.554-.628-6.209-.873-7.985-.32-1.765-.482-2.655-.482-2.655" fill="none" stroke="#231f20" stroke-miterlimit="10" stroke-width=".25"/>
      <path d="m21.472,371.13c-2.197-6.766-4.712-12.462-7.051-17.23-2.35-4.767-4.519-8.627-6.291-11.695-1.789-3.056-3.184-5.323-4.126-6.83-.946-1.502-1.424-2.26-1.424-2.26" fill="none" stroke="#231f20" stroke-miterlimit="10" stroke-width=".25"/>
      <path d="m19.111,371.895c-2.148-6.615-4.615-12.207-6.917-16.902-2.313-4.693-4.455-8.505-6.208-11.539-1.77-3.024-3.153-5.271-4.088-6.766-.939-1.491-1.413-2.243-1.413-2.243" fill="none" stroke="#231f20" stroke-miterlimit="10" stroke-width=".25"/>
    </g>
    <g>
      <path d="m-7.217,448.607c2.892-1.582,5.451-3.333,7.685-5.151.575-.436,1.102-.908,1.62-1.37.517-.463,1.044-.899,1.508-1.382.476-.47.943-.931,1.401-1.384.424-.484.84-.959,1.248-1.424.409-.464.809-.92,1.201-1.365.385-.452.707-.939,1.052-1.39.655-.93,1.374-1.753,1.885-2.661.548-.882,1.069-1.72,1.563-2.516.448-.823.843-1.618,1.232-2.358,1.507-2.984,2.391-5.364,2.921-6.969.272-.801.496-1.397.615-1.806.112-.411.168-.617.168-.617" fill="none" stroke="#231f20" stroke-miterlimit="10" stroke-width=".25"/>
      <path d="m-8.416,446.435c2.766-1.513,5.204-3.182,7.325-4.909.548-.413,1.047-.862,1.538-1.301.491-.44.992-.852,1.43-1.31.451-.445.894-.882,1.328-1.31.401-.459.794-.909,1.18-1.349.387-.439.767-.87,1.138-1.291.365-.427.668-.891.996-1.319.619-.883,1.306-1.658,1.788-2.523.521-.837,1.016-1.634,1.486-2.389.413-.792.803-1.54,1.171-2.245,1.435-2.841,2.281-5.116,2.788-6.654.26-.767.476-1.336.59-1.728.107-.394.16-.592.16-.592" fill="none" stroke="#231f20" stroke-miterlimit="10" stroke-width=".25"/>
      <path d="m19.229,405.674c.591-6.614.243-12.499-.445-17.484-.711-4.992-1.692-9.096-2.678-12.361-.966-3.265-1.832-5.689-2.442-7.299-.578-1.621-.932-2.416-.932-2.416" fill="none" stroke="#231f20" stroke-miterlimit="10" stroke-width=".25"/>
      <path d="m16.758,405.448c.57-6.384.236-12.087-.432-16.919-.691-4.844-1.636-8.807-2.601-12.001-.942-3.185-1.789-5.555-2.386-7.13-.564-1.585-.912-2.365-.912-2.365" fill="none" stroke="#231f20" stroke-miterlimit="10" stroke-width=".25"/>
      <path d="m8.095,355.8c-3.028-6.021-6.043-11.155-8.725-15.523-2.687-4.367-5.048-7.969-6.961-10.854-3.861-5.758-5.826-8.687-5.826-8.687" fill="none" stroke="#231f20" stroke-miterlimit="10" stroke-width=".25"/>
      <path d="m5.875,356.909c-2.981-5.926-5.96-11.002-8.619-15.332-2.663-4.328-5.011-7.91-6.917-10.784-3.853-5.745-5.813-8.668-5.813-8.668" fill="none" stroke="#231f20" stroke-miterlimit="10" stroke-width=".25"/>
    </g>
  </g>
  <g>
    <g>
      <path d="m253.465,441.065c-12.203,1.831-23.191,1.474-32.449.13-2.318-.319-4.517-.808-6.636-1.172-2.13-.327-4.111-.895-6.01-1.384-.95-.245-1.876-.485-2.779-.718-.904-.23-1.787-.446-2.619-.753-1.679-.562-3.266-1.093-4.762-1.593-.748-.249-1.473-.491-2.175-.725-.684-.283-1.345-.557-1.984-.821-1.279-.528-2.467-1.019-3.565-1.472-2.223-.848-3.97-1.8-5.4-2.496-2.852-1.412-4.29-2.124-4.29-2.124" fill="none" stroke="#231f20" stroke-miterlimit="10" stroke-width=".25"/>
      <path d="m253.848,443.517c-12.492,1.876-23.724,1.507-33.18.135-2.368-.326-4.613-.823-6.777-1.197-2.174-.336-4.197-.914-6.136-1.413-.969-.251-1.915-.495-2.837-.733-.923-.235-1.824-.456-2.673-.769-1.713-.573-3.333-1.115-4.86-1.625-.763-.255-1.503-.502-2.219-.741-.698-.289-1.373-.568-2.025-.837-1.305-.539-2.517-1.039-3.638-1.502-2.268-.867-4.051-1.837-5.51-2.547-2.909-1.442-4.377-2.169-4.377-2.169" fill="none" stroke="#231f20" stroke-miterlimit="10" stroke-width=".25"/>
      <path d="m163.436,416.446c-9.725-7.679-16.986-15.917-22.33-23.547-.662-.96-1.311-1.901-1.946-2.823-.314-.463-.641-.91-.935-1.372-.274-.475-.544-.944-.812-1.408-1.073-1.855-2.099-3.628-3.077-5.318-.903-1.731-1.66-3.433-2.436-5.015-.764-1.589-1.515-3.079-2.035-4.566-.57-1.465-1.106-2.841-1.606-4.125-.251-.642-.493-1.262-.726-1.859-.189-.613-.372-1.202-.547-1.769-.696-2.267-1.277-4.161-1.743-5.678-.442-1.524-.645-2.707-.843-3.479-.179-.778-.268-1.168-.268-1.168" fill="none" stroke="#231f20" stroke-miterlimit="10" stroke-width=".25"/>
      <path d="m161.897,418.393c-9.93-7.841-17.355-16.263-22.825-24.071-.677-.983-1.341-1.946-1.991-2.889-.321-.474-.655-.932-.956-1.405-.28-.485-.558-.966-.832-1.44-1.098-1.899-2.148-3.713-3.148-5.443-.924-1.771-1.7-3.51-2.493-5.129-.781-1.625-1.548-3.15-2.081-4.67-.583-1.498-1.13-2.904-1.641-4.217-.256-.657-.503-1.29-.741-1.9-.194-.626-.38-1.228-.559-1.807-.711-2.316-1.305-4.251-1.781-5.801-.451-1.557-.66-2.764-.862-3.553-.182-.794-.274-1.193-.274-1.193" fill="none" stroke="#231f20" stroke-miterlimit="10" stroke-width=".25"/>
      <path d="m121.131,330.631c-.318-12.404,1.265-23.292,3.499-32.377,2.14-9.145,5.334-16.359,7.912-22.075,1.478-2.771,2.69-5.251,3.869-7.299,1.254-2.003,2.302-3.677,3.142-5.019.428-.665.765-1.273,1.121-1.75.355-.477.651-.876.888-1.194.474-.638.712-.958.712-.958" fill="none" stroke="#231f20" stroke-miterlimit="10" stroke-width=".25"/>
      <path d="m118.65,330.697c-.324-12.656,1.29-23.766,3.572-33.042,2.187-9.335,5.446-16.712,8.086-22.555,1.509-2.835,2.751-5.37,3.958-7.465,1.283-2.051,2.356-3.764,3.215-5.137.438-.68.785-1.302,1.148-1.791.363-.489.666-.897.908-1.223.485-.653.728-.981.728-.981" fill="none" stroke="#231f20" stroke-miterlimit="10" stroke-width=".25"/>
      <path d="m155.971,244.391c9.007-8.491,18.282-14.446,26.619-18.707.516-.279,1.026-.554,1.532-.827.508-.268,1.037-.479,1.547-.718,1.025-.464,2.028-.918,3.01-1.362.981-.445,1.94-.881,2.878-1.306.941-.417,1.901-.725,2.816-1.08,1.839-.686,3.589-1.338,5.248-1.957,1.689-.528,3.301-.982,4.811-1.436.756-.224,1.489-.441,2.198-.652.708-.217,1.394-.42,2.074-.55,1.35-.299,2.604-.576,3.764-.833,1.159-.258,2.223-.494,3.191-.71.971-.195,1.861-.289,2.645-.417,3.143-.468,4.728-.704,4.728-.704" fill="none" stroke="#231f20" stroke-miterlimit="10" stroke-width=".25"/>
      <path d="m154.273,242.581c9.205-8.677,18.672-14.753,27.18-19.103.526-.284,1.048-.565,1.564-.843.519-.273,1.058-.489,1.578-.733,1.046-.474,2.069-.937,3.071-1.391,1.001-.454,1.98-.898,2.937-1.331.96-.425,1.94-.74,2.873-1.103,1.877-.7,3.662-1.365,5.355-1.996,1.723-.54,3.368-1.004,4.909-1.467.772-.229,1.519-.45,2.244-.664.722-.221,1.423-.428,2.117-.561,1.378-.305,2.658-.589,3.841-.851,1.183-.263,2.269-.504,3.257-.723.992-.199,1.9-.296,2.701-.427,3.21-.478,4.828-.719,4.828-.719" fill="none" stroke="#231f20" stroke-miterlimit="10" stroke-width=".25"/>
    </g>
    <g>
      <path d="m218.031,447.325c-12.917-2.089-23.866-5.887-32.864-9.948-2.214-1.097-4.338-2.15-6.372-3.159-1.032-.476-1.977-1.061-2.915-1.606-.936-.548-1.851-1.082-2.744-1.604-.893-.522-1.763-1.032-2.612-1.529-.85-.494-1.615-1.077-2.395-1.589-1.541-1.052-2.999-2.046-4.372-2.983-.342-.236-.679-.467-1.011-.696-.316-.25-.627-.496-.933-.737-.612-.484-1.204-.952-1.776-1.404-1.143-.905-2.206-1.746-3.189-2.523-1.006-.749-1.824-1.562-2.602-2.261-.772-.706-1.468-1.343-2.087-1.909-1.237-1.134-2.167-1.986-2.788-2.555-.579-.613-.869-.921-.869-.921" fill="none" stroke="#231f20" stroke-miterlimit="10" stroke-width=".25"/>
      <path d="m217.642,449.775c-13.177-2.13-24.337-6.003-33.509-10.143-2.257-1.119-4.422-2.192-6.495-3.219-1.051-.486-2.015-1.081-2.971-1.637-.955-.558-1.887-1.103-2.797-1.635-.91-.533-1.797-1.053-2.662-1.559-.867-.504-1.647-1.098-2.442-1.62-1.572-1.073-3.058-2.087-4.458-3.042-.349-.24-.693-.477-1.031-.71-.323-.255-.64-.505-.952-.752-.625-.493-1.229-.971-1.812-1.432-1.166-.923-2.25-1.781-3.252-2.574-1.025-.765-1.861-1.593-2.655-2.306-.788-.721-1.498-1.37-2.13-1.948-1.262-1.157-2.211-2.028-2.844-2.609-.591-.625-.888-.939-.888-.939" fill="none" stroke="#231f20" stroke-miterlimit="10" stroke-width=".25"/>
      <path d="m134.572,394.905c-7.326-10.871-11.798-21.623-14.652-31.07-.362-1.182-.717-2.341-1.065-3.475-.309-1.144-.539-2.284-.803-3.388-.483-2.219-1.053-4.318-1.397-6.357-.605-4.092-1.337-7.762-1.509-11.087-.142-1.656-.276-3.21-.4-4.662-.081-.725-.091-1.428-.098-2.105-.012-.677-.023-1.329-.034-1.954-.024-2.503-.119-4.595-.063-6.27.173-3.348.26-5.036.26-5.036" fill="none" stroke="#231f20" stroke-miterlimit="10" stroke-width=".25"/>
      <path d="m132.513,396.29c-7.489-11.114-12.055-22.096-14.968-31.735-.369-1.207-.731-2.389-1.086-3.547-.316-1.168-.551-2.329-.82-3.456-.493-2.263-1.073-4.405-1.424-6.485-.62-4.172-1.361-7.915-1.539-11.304-.145-1.688-.281-3.272-.407-4.753-.082-.739-.093-1.456-.1-2.146-.012-.69-.024-1.354-.035-1.992-.026-2.551-.12-4.684-.063-6.391.176-3.413.265-5.134.265-5.134" fill="none" stroke="#231f20" stroke-miterlimit="10" stroke-width=".25"/>
      <path d="m118.846,294.652c3.369-12.637,8.324-23.157,13.511-31.575.657-1.05,1.301-2.078,1.931-3.085.322-.499.614-1.011.95-1.485.346-.467.688-.929,1.027-1.386,1.356-1.827,2.651-3.574,3.886-5.238,1.314-1.6,2.639-3.062,3.855-4.48.613-.705,1.21-1.391,1.79-2.057.568-.678,1.221-1.24,1.799-1.838,1.183-1.17,2.294-2.268,3.332-3.294.519-.513,1.02-1.007,1.503-1.484.516-.44,1.012-.864,1.488-1.27,1.907-1.626,3.5-2.984,4.776-4.073,1.3-1.058,2.352-1.76,3.02-2.274.678-.499,1.019-.75,1.019-.75" fill="none" stroke="#231f20" stroke-miterlimit="10" stroke-width=".25"/>
      <path d="m116.448,294.011c3.437-12.89,8.494-23.633,13.796-32.237.672-1.073,1.33-2.124,1.974-3.153.329-.51.628-1.033.972-1.517.353-.478.703-.95,1.049-1.418,1.386-1.867,2.71-3.652,3.973-5.353,1.342-1.636,2.694-3.129,3.937-4.577.627-.72,1.237-1.42,1.829-2.101.581-.692,1.246-1.267,1.836-1.877,1.208-1.194,2.342-2.316,3.402-3.363.53-.523,1.042-1.028,1.535-1.514.526-.449,1.032-.882,1.518-1.297,1.946-1.659,3.572-3.045,4.875-4.156,1.327-1.079,2.399-1.797,3.08-2.32.692-.509,1.039-.765,1.039-.765" fill="none" stroke="#231f20" stroke-miterlimit="10" stroke-width=".25"/>
      <path d="m181.449,218.896c11.745-5.737,22.834-9.125,32.546-10.949,2.424-.48,4.785-.747,7.027-1.106,1.126-.142,2.215-.385,3.302-.433,1.083-.083,2.14-.163,3.172-.242,1.032-.078,2.039-.155,3.021-.229.982-.075,1.937-.165,2.872-.139,1.868-.004,3.634-.009,5.298-.013.832-.002,1.638-.003,2.419-.004.779.056,1.533.111,2.261.163,1.456.107,2.809.206,4.06.297,2.509.112,4.573.512,6.235.751,3.322.505,4.997.76,4.997.76" fill="none" stroke="#231f20" stroke-miterlimit="10" stroke-width=".25"/>
      <path d="m180.348,216.672c11.972-5.849,23.274-9.3,33.178-11.162,2.472-.489,4.881-.763,7.168-1.129,1.149-.145,2.26-.391,3.368-.441,1.105-.085,2.184-.167,3.237-.248,1.053-.08,2.081-.157,3.082-.233,1.002-.076,1.977-.167,2.932-.141,1.907-.005,3.71-.009,5.409-.014.849-.001,1.673-.002,2.47-.003.796.057,1.566.112,2.31.165,1.487.109,2.87.21,4.148.304,2.562.117,4.672.523,6.371.767,3.395.518,5.107.779,5.107.779" fill="none" stroke="#231f20" stroke-miterlimit="10" stroke-width=".25"/>
    </g>
  </g>
  <g>
    <g>
      <path d="m261.006,313.347c-2.413-.349-4.658-1.116-6.657-2.253-1.991-1.154-3.747-2.63-5.246-4.291-2.983-3.357-4.906-7.363-6.022-11.218-1.129-3.872-1.44-7.634-1.242-10.972.185-3.351.925-6.276,1.865-8.715.466-1.194,1.094-2.34,1.646-3.409.138-.267.274-.529.408-.787.156-.245.31-.486.46-.723.299-.474.587-.93.863-1.368.532-.89,1.18-1.607,1.68-2.316.498-.712,1.042-1.286,1.506-1.812.466-.524.874-.983,1.224-1.377.381-.369.698-.677.953-.924.507-.495.762-.743.762-.743" fill="none" stroke="#231f20" stroke-miterlimit="10" stroke-width=".25"/>
      <path d="m260.679,315.807c-2.736-.39-5.3-1.27-7.56-2.557-2.252-1.303-4.213-2.958-5.866-4.792-3.291-3.708-5.353-8.037-6.557-12.183-1.212-4.165-1.548-8.201-1.335-11.807.201-3.617,1-6.803,2.034-9.48,2.26-5.349,5.061-8.934,7.006-11.142.494-.555.927-1.041,1.298-1.458.401-.39.736-.716,1.005-.977.536-.522.805-.784.805-.784" fill="none" stroke="#231f20" stroke-miterlimit="10" stroke-width=".25"/>
      <path d="m268.986,252.27c5.207-2.299,10.393-3.905,15.342-4.964,4.938-1.061,9.733-1.683,14.169-2.128,8.9-.859,16.552-1.062,22.73-1.382,6.182-.284,10.909-.604,14.071-.894,1.58-.128,2.774-.261,3.57-.347.796-.085,1.196-.128,1.196-.128" fill="none" stroke="#231f20" stroke-miterlimit="10" stroke-width=".25"/>
      <path d="m267.979,250.002c5.391-2.38,10.732-4.031,15.82-5.12,5.085-1.093,9.95-1.721,14.453-2.173,9.023-.87,16.691-1.071,22.856-1.392,6.168-.284,10.846-.6,13.972-.887,1.563-.127,2.739-.258,3.524-.343.785-.084,1.179-.126,1.179-.126" fill="none" stroke="#231f20" stroke-miterlimit="10" stroke-width=".25"/>
      <path d="m363.834,237.223c6.017-2.118,11.51-4.763,16.311-7.895,4.787-3.156,8.858-6.798,12.088-10.663.773-.996,1.594-1.921,2.273-2.925.675-1.007,1.356-1.978,1.976-2.961,1.183-2.006,2.238-3.976,3.044-5.941,1.667-3.908,2.634-7.633,3.185-10.969,1.082-6.698.689-11.791.32-15.116-.183-1.671-.401-2.912-.545-3.74-.132-.831-.229-1.241-.229-1.241" fill="none" stroke="#231f20" stroke-miterlimit="10" stroke-width=".25"/>
      <path d="m363.014,234.881c5.848-2.059,11.157-4.619,15.77-7.627,4.597-3.032,8.478-6.509,11.546-10.181.732-.947,1.515-1.824,2.158-2.777.638-.956,1.286-1.877,1.874-2.808,1.119-1.9,2.119-3.763,2.88-5.623,1.578-3.699,2.495-7.23,3.019-10.401,1.03-6.367.658-11.242.303-14.429-.175-1.602-.385-2.793-.523-3.589-.126-.798-.219-1.192-.219-1.192" fill="none" stroke="#231f20" stroke-miterlimit="10" stroke-width=".25"/>
      <path d="m394.742,155.44c-3.125-5.628-6.725-10.53-10.563-14.696-1.921-2.08-3.872-4.009-5.885-5.729-.985-.9-2.006-1.631-2.979-2.43-.984-.774-1.926-1.565-2.921-2.236-7.79-5.639-14.95-9.272-20.753-11.869-1.44-.69-2.835-1.205-4.116-1.757-1.282-.549-2.485-1.018-3.604-1.428-1.115-.421-2.139-.807-3.071-1.159-.938-.324-1.784-.615-2.536-.875-1.505-.518-2.635-.915-3.397-1.143-.759-.24-1.141-.361-1.141-.361" fill="none" stroke="#231f20" stroke-miterlimit="10" stroke-width=".25"/>
      <path d="m392.569,156.638c-3.024-5.444-6.508-10.191-10.218-14.217-1.857-2.011-3.741-3.875-5.683-5.532-.945-.866-1.95-1.584-2.894-2.36-.958-.753-1.873-1.525-2.844-2.178-7.591-5.495-14.6-9.056-20.3-11.606-1.412-.678-2.788-1.184-4.046-1.727-1.26-.539-2.445-1.002-3.548-1.406-1.099-.415-2.108-.795-3.026-1.142-.926-.319-1.761-.607-2.503-.863-1.485-.511-2.6-.903-3.354-1.129-.751-.238-1.128-.357-1.128-.357" fill="none" stroke="#231f20" stroke-miterlimit="10" stroke-width=".25"/>
    </g>
    <g>
      <path d="m236.301,295.412c-1.461-6.215-1.319-12.375.045-17.86.677-2.729,1.709-5.354,2.976-7.596.308-.572.575-1.16.909-1.702.34-.539.676-1.072,1.009-1.6.343-.521.644-1.065,1.013-1.553.368-.488.732-.972,1.092-1.451,2.912-3.811,6.146-6.821,9.272-9.269,3.131-2.461,6.233-4.252,9.004-5.794,5.628-2.937,10.148-4.508,13.173-5.48,1.516-.48,2.674-.783,3.438-1.012.765-.229,1.158-.31,1.158-.31" fill="none" stroke="#231f20" stroke-miterlimit="10" stroke-width=".25"/>
      <path d="m233.885,295.975c-1.549-6.603-1.407-13.146.055-19.03.176-.737.412-1.456.617-2.174.235-.711.495-1.409.744-2.103.29-.678.57-1.366.87-2.015.321-.622.638-1.238.953-1.849.325-.605.611-1.226.963-1.799.358-.569.713-1.133,1.065-1.691.362-.551.683-1.125,1.071-1.639.387-.515.771-1.025,1.15-1.531,3.07-4.017,6.462-7.171,9.725-9.725,3.269-2.568,6.485-4.426,9.358-6.023,5.825-3.041,10.477-4.654,13.588-5.655,1.559-.494,2.748-.805,3.534-1.041.787-.235,1.189-.318,1.189-.318" fill="none" stroke="#231f20" stroke-miterlimit="10" stroke-width=".25"/>
      <path d="m299.812,238.507c6.093-.543,11.803-.784,17.121-1.037,5.318-.243,10.245-.475,14.777-.815,4.532-.337,8.672-.78,12.406-1.329,3.73-.529,7.043-1.275,9.978-1.974,5.847-1.5,10.093-3.132,12.864-4.337,1.386-.604,2.397-1.12,3.088-1.434.691-.313,1.015-.513,1.015-.513" fill="none" stroke="#231f20" stroke-miterlimit="10" stroke-width=".25"/>
      <path d="m299.592,236.035c6.167-.55,11.906-.791,17.226-1.044,5.32-.243,10.22-.474,14.707-.811,4.486-.333,8.566-.771,12.226-1.309,3.647-.516,6.876-1.246,9.736-1.926,5.694-1.462,9.805-3.043,12.481-4.206,1.338-.583,2.311-1.081,2.978-1.383.668-.301.977-.493.977-.493" fill="none" stroke="#231f20" stroke-miterlimit="10" stroke-width=".25"/>
      <path d="m388.394,213.031c3.582-4.559,5.797-9.606,7.107-14.5,1.259-4.925,1.555-9.715,1.313-14.112-.553-8.828-3.075-15.995-5.547-21.412-2.52-5.435-5.071-9.202-6.829-11.65-1.778-2.443-2.78-3.593-2.78-3.593" fill="none" stroke="#231f20" stroke-miterlimit="10" stroke-width=".25"/>
      <path d="m386.423,211.522c3.378-4.296,5.437-9.009,6.676-13.614,1.183-4.631,1.468-9.164,1.237-13.347-.525-8.401-2.941-15.3-5.324-20.517-2.427-5.236-4.89-8.872-6.586-11.233-1.714-2.357-2.681-3.465-2.681-3.465" fill="none" stroke="#231f20" stroke-miterlimit="10" stroke-width=".25"/>
      <path d="m366.994,134.51c-4.859-3.394-9.743-6.134-14.443-8.438-4.731-2.248-9.258-4.097-13.51-5.653-8.524-3.071-15.894-5.067-21.821-6.619-5.933-1.539-10.456-2.576-13.475-3.29-3.024-.701-4.55-1.054-4.55-1.054" fill="none" stroke="#231f20" stroke-miterlimit="10" stroke-width=".25"/>
      <path d="m365.571,136.543c-4.729-3.303-9.498-5.98-14.101-8.237-4.637-2.202-9.087-4.021-13.276-5.555-8.402-3.027-15.707-5.008-21.595-6.549-5.893-1.529-10.406-2.563-13.416-3.276-3.02-.7-4.543-1.052-4.543-1.052" fill="none" stroke="#231f20" stroke-miterlimit="10" stroke-width=".25"/>
    </g>
  </g>
  <g>
    <g>
      <path d="m491.955,305.759c.639,5.106,1.222,9.047,1.671,11.688.46,2.647.746,3.998.746,3.998" fill="none" stroke="#231f20" stroke-miterlimit="10" stroke-width=".25"/>
      <path d="m494.417,305.447c.638,5.093,1.214,8.981,1.656,11.582.453,2.603.733,3.924.733,3.924" fill="none" stroke="#231f20" stroke-miterlimit="10" stroke-width=".25"/>
      <path d="m495.34,325.833c1.28,5.225,2.759,9.152,3.866,11.741.599,1.284,1.023,2.261,1.359,2.897.337.636.507.956.507.956" fill="none" stroke="#231f20" stroke-miterlimit="10" stroke-width=".25"/>
      <path d="m497.75,325.243c1.248,5.088,2.672,8.862,3.732,11.344.574,1.226.978,2.163,1.299,2.768.321.605.483.91.483.91" fill="none" stroke="#231f20" stroke-miterlimit="10" stroke-width=".25"/>
      <path d="m503.873,346.089c3.209,4.678,6.501,7.718,8.792,9.488,2.309,1.784,3.592,2.528,3.592,2.528" fill="none" stroke="#231f20" stroke-miterlimit="10" stroke-width=".25"/>
      <path d="m505.923,344.692c3.042,4.429,6.116,7.266,8.277,8.936,2.174,1.679,3.384,2.381,3.384,2.381" fill="none" stroke="#231f20" stroke-miterlimit="10" stroke-width=".25"/>
      <path d="m520.449,360.445c5.137,2.514,9.435,3.411,12.29,3.893.72.104,1.351.196,1.894.274.547.047,1.004.087,1.37.118.732.061,1.102.092,1.102.092" fill="none" stroke="#231f20" stroke-miterlimit="10" stroke-width=".25"/>
      <path d="m521.537,358.214c4.847,2.373,8.905,3.219,11.595,3.673.678.099,1.274.185,1.785.259.515.044.945.081,1.29.11.69.058,1.037.087,1.037.087" fill="none" stroke="#231f20" stroke-miterlimit="10" stroke-width=".25"/>
    </g>
    <g>
      <path d="m499.371,312c.724,5.025,1.471,8.772,2.062,11.253.274,1.248.538,2.169.698,2.79.164.62.246.933.246.933" fill="none" stroke="#231f20" stroke-miterlimit="10" stroke-width=".25"/>
      <path d="m501.827,311.641c.717,4.971,1.448,8.632,2.023,11.048.267,1.218.523,2.108.678,2.711.159.601.239.905.239.905" fill="none" stroke="#231f20" stroke-miterlimit="10" stroke-width=".25"/>
      <path d="m503.638,330.966c1.622,4.694,3.398,7.99,4.731,10.082.622,1.08,1.221,1.801,1.564,2.324.358.512.548.763.548.763" fill="none" stroke="#231f20" stroke-miterlimit="10" stroke-width=".25"/>
      <path d="m505.982,330.151c1.559,4.509,3.239,7.617,4.492,9.583.584,1.019,1.147,1.688,1.467,2.181.335.481.513.715.513.715" fill="none" stroke="#231f20" stroke-miterlimit="10" stroke-width=".25"/>
      <path d="m513.55,347.665c3.46,3.393,6.65,5.339,8.839,6.468,2.205,1.12,3.392,1.549,3.392,1.549" fill="none" stroke="#231f20" stroke-miterlimit="10" stroke-width=".25"/>
      <path d="m515.309,345.915c3.211,3.145,6.185,4.967,8.229,6.019,2.059,1.045,3.167,1.445,3.167,1.445" fill="none" stroke="#231f20" stroke-miterlimit="10" stroke-width=".25"/>
      <path d="m529.649,356.995c4.688,1.331,8.427,1.395,10.874,1.345.615-.03,1.155-.039,1.617-.075.46-.05.845-.091,1.153-.124.617-.065.928-.098.928-.098" fill="none" stroke="#231f20" stroke-miterlimit="10" stroke-width=".25"/>
      <path d="m530.317,354.605c4.379,1.245,7.858,1.3,10.13,1.254.57-.029,1.073-.035,1.501-.069.427-.046.783-.085,1.069-.116.572-.06.86-.09.86-.09" fill="none" stroke="#231f20" stroke-miterlimit="10" stroke-width=".25"/>
    </g>
  </g>
  <g>
    <g>
      <line x1="63.538" y1="392.516" x2="65.996" y2="397.097" fill="none" stroke="#221f1f" stroke-miterlimit="10" stroke-width=".5"/>
      <path d="m70.738,404.275c-.152.588-.23,1.007-.706,1.271-.135.075-.244.106-.412.139-.652.128-1.192-.167-1.411-.286-.14-.077-.342-.203-.554-.405-.478.254-.956.508-1.433.762l-.162-.322,1.347-.74-.315-.54-1.529.812-.205-.382,1.532-.822s-.573-.785-.637-1.818.742-2.925.665-3.242c-.077-.317-.164-.321-.164-.321.031-.017.13-.064.251-.039.198.04.271.235.276.249.231.819.6,1.313.897,1.615.562.57.911.494,1.433,1.154.4.506.558,1.011.828.977.058-.007.205-.135.498-.389.262-.228.268-.244.333-.277.253-.127.574-.092.811.024.466.227.539.732.544.773.011.084.043.336-.096.56-.143.231-.316.334-.316.334-.052.031-.121.064-.172.142-.046.071-.055.145-.057.199-.013.36.255,1.142.155,1.204-.022.014-.075,0-.21-.132-.014-.036-.067-.17-.137-.347-.172-.437-.218-.559-.355-.658-.057-.041-.495-.285-.699.504Z" fill="#221f1f" stroke-width="0"/>
    </g>
    <g>
      <line x1="72.037" y1="408.358" x2="74.503" y2="412.935" fill="none" stroke="#221f1f" stroke-miterlimit="10" stroke-width=".5"/>
      <path d="m79.263,420.101c-.151.589-.227,1.008-.703,1.273-.135.075-.243.106-.412.14-.651.129-1.192-.164-1.411-.282-.141-.076-.342-.202-.555-.404l-1.431.765-.163-.322,1.345-.743-.316-.539-1.527.816-.206-.382,1.53-.826s-.576-.784-.642-1.817c-.066-1.034.735-2.927.657-3.244-.078-.317-.164-.32-.164-.32.031-.017.13-.064.251-.04.198.04.272.235.277.248.233.818.603,1.312.901,1.612.564.569.913.492,1.436,1.15.401.505.56,1.009.831.975.058-.007.205-.135.497-.39.262-.229.268-.245.332-.277.252-.127.574-.093.811.022.466.226.54.73.545.771.011.084.043.336-.095.56-.143.231-.315.335-.315.335-.052.031-.121.064-.171.143-.046.071-.055.145-.057.199-.013.36.258,1.141.158,1.204-.022.014-.075,0-.21-.131-.014-.036-.067-.17-.137-.346-.173-.436-.219-.559-.357-.656-.057-.04-.496-.283-.698.506Z" fill="#221f1f" stroke-width="0"/>
    </g>
    <g>
      <line x1="80.574" y1="424.184" x2="83.046" y2="428.757" fill="none" stroke="#221f1f" stroke-miterlimit="10" stroke-width=".5"/>
      <path d="m87.824,435.911c-.149.589-.225,1.009-.7,1.275-.135.076-.243.107-.411.141-.651.131-1.193-.161-1.412-.279-.141-.076-.343-.201-.556-.402l-1.43.769-.164-.321,1.344-.746-.318-.538-1.525.819-.207-.381,1.528-.829s-.578-.782-.646-1.816c-.069-1.033.728-2.928.649-3.245-.079-.317-.165-.32-.165-.32.031-.017.13-.065.251-.04.198.039.272.234.277.247.235.818.606,1.31.905,1.61.565.568.914.489,1.439,1.146.402.504.563,1.008.833.973.058-.008.205-.136.496-.391.261-.229.267-.245.332-.278.252-.128.573-.095.811.02.467.225.542.729.547.77.011.084.044.335-.094.56-.142.231-.315.336-.315.336-.052.031-.121.064-.171.143-.045.071-.054.145-.056.199-.012.36.261,1.14.161,1.203-.022.014-.075,0-.21-.131-.014-.036-.068-.169-.138-.346-.174-.436-.221-.558-.358-.656-.057-.04-.497-.282-.697.508Z" fill="#221f1f" stroke-width="0"/>
    </g>
  </g>
</svg>