<?xml version="1.0" encoding="UTF-8"?>
<svg id="a" data-name="Layer 1" xmlns="http://www.w3.org/2000/svg" width="9.002in" height="6.002in" viewBox="0 0 648.177 432.177">
  <g>
    <g>
      <path d="m267.236,188.373c22.177-2.229,41.782-4.418,58.573-7.229,16.803-2.717,30.766-6.064,41.833-9.26,11.076-3.209,19.215-6.386,24.63-8.558,2.692-1.144,4.717-2.004,6.069-2.579,1.329-.626,1.996-.941,1.996-.941" fill="none" stroke="#231f20" stroke-miterlimit="10" stroke-width=".25"/>
      <path d="m266.984,185.905c22.175-2.229,41.716-4.412,58.422-7.209,16.718-2.703,30.571-6.026,41.542-9.194,10.977-3.18,19.03-6.325,24.384-8.472,2.659-1.13,4.659-1.979,5.994-2.547,1.312-.619,1.971-.929,1.971-.929" fill="none" stroke="#231f20" stroke-miterlimit="10" stroke-width=".25"/>
      <path d="m433.397,140.384c9.194-6.811,17.18-14.131,23.93-21.658,6.748-7.535,12.19-15.32,16.495-22.932.542-.95,1.078-1.891,1.609-2.822.513-.941.947-1.913,1.417-2.852.895-1.901,1.872-3.716,2.64-5.577.754-1.868,1.491-3.695,2.212-5.48.176-.448.366-.887.528-1.335.148-.453.296-.902.443-1.35.293-.895.582-1.779.868-2.652.285-.874.566-1.737.844-2.589.252-.859.453-1.721.677-2.565.429-1.692.873-3.336,1.255-4.946.312-1.625.615-3.206.911-4.742.144-.769.286-1.526.426-2.273.098-.753.194-1.494.289-2.224,1.604-11.687,1.209-20.603.876-26.505-.298-2.946-.522-5.162-.672-6.641-.062-.742-.172-1.29-.224-1.658-.058-.368-.087-.552-.087-.552" fill="none" stroke="#231f20" stroke-miterlimit="10" stroke-width=".25"/>
      <path d="m431.922,138.388c9.063-6.714,16.922-13.92,23.556-21.317,6.631-7.405,11.968-15.043,16.185-22.501.531-.931,1.057-1.852,1.578-2.764.503-.921.927-1.873,1.386-2.793.875-1.862,1.834-3.638,2.585-5.46.738-1.828,1.459-3.616,2.164-5.363.172-.438.359-.868.517-1.306.145-.443.289-.883.432-1.32.286-.875.569-1.74.848-2.594.279-.854.554-1.698.826-2.531.247-.841.443-1.684.662-2.51.42-1.656.855-3.264,1.229-4.839.305-1.591.602-3.138.891-4.642.141-.752.281-1.494.418-2.225.095-.737.19-1.463.282-2.178,1.57-11.446,1.184-20.19.858-25.98-.293-2.891-.513-5.065-.659-6.516-.06-.728-.17-1.265-.22-1.627-.057-.361-.085-.542-.085-.542" fill="none" stroke="#231f20" stroke-miterlimit="10" stroke-width=".25"/>
      <path d="m327.606-106.135c-5.824.899-11.458,2.578-16.588,4.786-5.144,2.218-9.884,4.961-14.064,8.197-8.372,6.435-14.567,14.776-17.716,23.549-.375,1.1-.747,2.189-1.114,3.267-.263,1.106-.524,2.2-.781,3.283-.292,1.078-.435,2.167-.578,3.244-.132,1.077-.335,2.139-.396,3.195-.087,2.113-.271,4.186-.121,6.193.05,1.004.055,2.004.146,2.979.117.971.233,1.931.347,2.88,1.007,7.582,3.325,14.071,5.894,19.521,2.569,5.47,5.511,9.88,8.22,13.501,2.691,3.646,5.326,6.383,7.453,8.546,1.056,1.093,2.054,1.93,2.873,2.711.819.776,1.532,1.387,2.112,1.863,1.15.967,1.728,1.452,1.728,1.452" fill="none" stroke="#231f20" stroke-miterlimit="10" stroke-width=".25"/>
      <path d="m328.004-103.685c-5.65.872-11.054,2.487-16.007,4.617-4.957,2.137-9.521,4.778-13.531,7.884-8.035,6.18-13.917,14.125-16.9,22.438-.357,1.043-.71,2.076-1.059,3.098-.249,1.05-.496,2.089-.74,3.118-.28,1.022-.414,2.058-.549,3.083-.124,1.024-.321,2.033-.378,3.04-.079,2.014-.261,3.987-.114,5.907.048.96.051,1.914.138,2.847.112.931.224,1.85.333,2.758.962,7.265,3.194,13.527,5.678,18.794,2.482,5.287,5.334,9.561,7.957,13.068,2.606,3.533,5.159,6.182,7.217,8.276,1.021,1.058,2,1.878,2.796,2.637.798.756,1.492,1.352,2.06,1.817,1.122.943,1.686,1.417,1.686,1.417" fill="none" stroke="#231f20" stroke-miterlimit="10" stroke-width=".25"/>
    </g>
    <g>
      <path d="m328.264,174.132c10.934-1.88,21.125-4.06,30.528-6.551,9.405-2.487,18.016-5.286,25.827-8.257,3.931-1.431,7.584-3.067,11.118-4.553,3.451-1.666,6.813-3.132,9.874-4.815,1.542-.818,3.064-1.583,4.515-2.389,1.436-.832,2.836-1.642,4.198-2.43.681-.394,1.353-.783,2.016-1.166.646-.41,1.284-.814,1.912-1.212,1.254-.8,2.472-1.578,3.653-2.332,9.383-6.155,15.774-11.725,20.008-15.445,2.047-1.942,3.586-3.403,4.614-4.378.523-.479.882-.871,1.126-1.129.244-.258.366-.387.366-.387" fill="none" stroke="#231f20" stroke-miterlimit="10" stroke-width=".25"/>
      <path d="m327.842,171.687c10.874-1.869,20.993-4.035,30.317-6.505,9.326-2.466,17.852-5.238,25.579-8.177,3.892-1.416,7.494-3.032,10.984-4.498,3.406-1.645,6.726-3.091,9.745-4.753,1.521-.808,3.024-1.562,4.456-2.357,1.417-.82,2.797-1.62,4.141-2.398.672-.389,1.335-.772,1.989-1.15.637-.404,1.266-.803,1.885-1.195,1.237-.789,2.437-1.555,3.602-2.299,9.251-6.068,15.538-11.551,19.705-15.21,2.012-1.909,3.526-3.346,4.537-4.304.515-.471.867-.856,1.106-1.11.24-.253.359-.38.359-.38" fill="none" stroke="#231f20" stroke-miterlimit="10" stroke-width=".25"/>
      <path d="m469.891,89.523c1.18-2.469,2.408-4.872,3.501-7.288.971-2.468,2.015-4.866,2.887-7.282.399-1.221.794-2.432,1.187-3.633.393-1.201.805-2.386,1.082-3.6.31-1.204.617-2.398.922-3.582.151-.592.302-1.182.451-1.769.114-.596.227-1.189.34-1.779,1.936-9.425,2.523-18.425,2.306-26.71-.185-8.297-1.301-15.88-2.754-22.666-.647-3.416-1.608-6.583-2.406-9.613-.44-1.503-.952-2.941-1.403-4.352-.467-1.406-.884-2.785-1.421-4.074-3.937-10.459-8.075-17.849-11.007-22.644-1.465-2.404-2.702-4.13-3.462-5.322-.391-.589-.685-1.032-.881-1.327-.211-.285-.316-.428-.316-.428" fill="none" stroke="#231f20" stroke-miterlimit="10" stroke-width=".25"/>
      <path d="m467.696,88.365c1.151-2.416,2.354-4.765,3.423-7.127.947-2.413,1.969-4.757,2.821-7.116.389-1.192.775-2.375,1.158-3.548.385-1.173.787-2.329,1.057-3.516.303-1.177.603-2.344.901-3.501.148-.579.295-1.155.442-1.729.111-.582.222-1.162.332-1.74,1.892-9.213,2.468-18.023,2.256-26.139-.18-8.127-1.275-15.562-2.701-22.218-.634-3.35-1.578-6.456-2.359-9.428-.432-1.475-.935-2.884-1.377-4.269-.458-1.379-.865-2.732-1.394-3.997-3.863-10.26-7.92-17.507-10.794-22.208-1.437-2.357-2.652-4.053-3.398-5.223-.384-.579-.672-1.013-.864-1.303-.207-.28-.311-.42-.311-.42" fill="none" stroke="#231f20" stroke-miterlimit="10" stroke-width=".25"/>
      <path d="m284.289-64.114c-1.43,5.124-1.844,10.359-1.454,15.376.377,5.023,1.485,9.829,3.023,14.31.731,2.258,1.698,4.387,2.612,6.49.52,1.023,1.036,2.038,1.547,3.043.485,1.019,1.116,1.948,1.658,2.914,2.268,3.804,4.773,7.286,7.491,10.356,1.297,1.592,2.759,2.974,4.114,4.398.711.684,1.442,1.337,2.15,1.997.704.665,1.417,1.304,2.153,1.902.726.61,1.444,1.214,2.153,1.81.735.567,1.461,1.128,2.18,1.683,1.417,1.133,2.901,2.114,4.307,3.126,5.714,3.934,11.239,6.961,16.233,9.505,5.004,2.533,9.512,4.55,13.415,6.221,3.897,1.681,7.196,3.01,9.838,4.079,5.308,2.105,7.985,3.167,7.985,3.167" fill="none" stroke="#231f20" stroke-miterlimit="10" stroke-width=".25"/>
      <path d="m286.681-63.451c-1.346,4.821-1.742,9.765-1.37,14.536.359,4.776,1.416,9.375,2.894,13.678.7,2.168,1.634,4.217,2.511,6.243.502.987.999,1.964,1.492,2.933.465.983,1.078,1.879,1.6,2.811,2.188,3.671,4.608,7.037,7.234,10.001,1.252,1.539,2.664,2.869,3.97,4.245.689.663,1.402,1.299,2.09,1.94.684.647,1.377,1.269,2.096,1.852.707.594,1.406,1.182,2.097,1.764.717.553,1.426,1.1,2.127,1.641,1.381,1.106,2.835,2.065,4.208,3.055,5.588,3.848,11.022,6.827,15.949,9.336,4.937,2.499,9.401,4.497,13.274,6.156,3.867,1.668,7.151,2.992,9.783,4.056,5.297,2.101,7.969,3.16,7.969,3.16" fill="none" stroke="#231f20" stroke-miterlimit="10" stroke-width=".25"/>
    </g>
  </g>
  <g>
    <g>
      <path d="m208.194,347.565c38.121,6.402,67.489,7.907,87.115,8.346,2.456.053,4.761.102,6.915.149,1.077.023,2.116.045,3.117.067,1.001-.01,1.964-.02,2.889-.03,3.7-.04,6.792-.074,9.269-.101,4.955-.055,7.454-.083,7.454-.083" fill="none" stroke="#231f20" stroke-miterlimit="10" stroke-width=".25"/>
      <path d="m208.618,345.12c37.956,6.374,67.2,7.873,86.745,8.31,2.446.053,4.741.102,6.886.148,1.072.023,2.107.045,3.104.067.997-.01,1.956-.02,2.877-.03,3.685-.04,6.764-.074,9.231-.101,4.935-.055,7.423-.083,7.423-.083" fill="none" stroke="#231f20" stroke-miterlimit="10" stroke-width=".25"/>
      <path d="m357.377,354.103c2.406-.189,4.779-.34,7.109-.553,2.327-.248,4.618-.493,6.873-.734,4.507-.498,8.877-.912,13.086-1.435,4.201-.582,8.257-1.144,12.167-1.686,1.955-.271,3.873-.537,5.755-.798,1.873-.316,3.71-.626,5.51-.93,7.193-1.257,13.832-2.258,19.806-3.562,2.995-.607,5.844-1.183,8.546-1.73,2.702-.544,5.26-1.047,7.644-1.639,9.557-2.262,16.793-3.865,21.556-5.235,4.785-1.279,7.199-1.924,7.199-1.924" fill="none" stroke="#231f20" stroke-miterlimit="10" stroke-width=".25"/>
      <path d="m357.178,351.629c2.396-.188,4.759-.338,7.08-.551,2.318-.248,4.6-.491,6.845-.731,4.489-.496,8.842-.908,13.034-1.429,4.185-.58,8.225-1.14,12.119-1.68,1.947-.27,3.858-.535,5.732-.795,1.866-.315,3.695-.624,5.488-.927,7.165-1.253,13.778-2.249,19.728-3.548,2.984-.604,5.821-1.179,8.512-1.724,2.692-.542,5.239-1.042,7.614-1.633,9.52-2.254,16.728-3.849,21.472-5.214,4.767-1.274,7.171-1.917,7.171-1.917" fill="none" stroke="#231f20" stroke-miterlimit="10" stroke-width=".25"/>
      <path d="m508.265,323.023c2.288-.764,4.542-1.517,6.761-2.258,2.22-.738,4.364-1.585,6.497-2.352,4.254-1.567,8.372-3.083,12.351-4.548,3.948-1.546,7.734-3.106,11.398-4.573,3.653-1.494,7.206-2.843,10.529-4.36,3.343-1.468,6.55-2.877,9.621-4.226,1.535-.675,3.037-1.334,4.504-1.979,1.464-.651,2.865-1.352,4.248-2,5.512-2.641,10.51-4.972,14.915-7.14,4.367-2.247,8.197-4.219,11.486-5.912,1.645-.847,3.154-1.624,4.527-2.331,1.366-.721,2.573-1.416,3.659-2.01,4.333-2.402,6.518-3.614,6.518-3.614" fill="none" stroke="#231f20" stroke-miterlimit="10" stroke-width=".25"/>
      <path d="m507.474,320.671c2.28-.761,4.525-1.511,6.735-2.25,2.212-.735,4.347-1.579,6.472-2.343,4.238-1.561,8.339-3.071,12.303-4.531,3.933-1.54,7.704-3.094,11.354-4.556,3.638-1.488,7.179-2.832,10.488-4.343,3.33-1.463,6.524-2.866,9.583-4.21,1.529-.672,3.025-1.329,4.487-1.971,1.458-.649,2.854-1.347,4.232-1.993,5.49-2.631,10.469-4.953,14.857-7.112,4.349-2.239,8.165-4.202,11.441-5.889,1.638-.843,3.141-1.617,4.51-2.321,1.36-.718,2.562-1.411,3.645-2.003,4.315-2.393,6.492-3.599,6.492-3.599" fill="none" stroke="#231f20" stroke-miterlimit="10" stroke-width=".25"/>
      <path d="m643.231,259.201c32.667-20.61,55.675-38.912,70.61-51.659,1.871-1.592,3.682-3.021,5.274-4.473,1.606-1.436,3.099-2.77,4.479-4.004,2.759-2.467,5.065-4.528,6.912-6.179,1.865-1.633,3.208-2.926,4.103-3.79.9-.86,1.352-1.291,1.352-1.291" fill="none" stroke="#231f20" stroke-miterlimit="10" stroke-width=".25"/>
      <path d="m641.913,257.099c32.537-20.528,55.45-38.754,70.323-51.449,1.863-1.585,3.667-3.008,5.253-4.455,1.599-1.43,3.086-2.759,4.46-3.987,2.748-2.456,5.043-4.509,6.883-6.153,1.857-1.626,3.194-2.913,4.086-3.774.896-.856,1.346-1.286,1.346-1.286" fill="none" stroke="#231f20" stroke-miterlimit="10" stroke-width=".25"/>
    </g>
    <g>
      <path d="m262.29,347.747c4.751.487,9.383.639,13.861.905,2.24.122,4.444.242,6.611.359,1.084.059,2.159.117,3.224.175,1.067.024,2.125.049,3.174.073,8.392.147,16.201.464,23.428.272,3.613-.039,7.079-.077,10.398-.113,3.319-.03,6.486-.248,9.508-.354,6.042-.283,11.499-.417,16.341-.857,4.846-.364,9.098-.682,12.748-.956,3.65-.281,6.684-.684,9.124-.921,4.875-.521,7.333-.783,7.333-.783" fill="none" stroke="#231f20" stroke-miterlimit="10" stroke-width=".25"/>
      <path d="m262.486,345.273c4.731.485,9.343.636,13.802.901,2.23.121,4.425.241,6.583.358,1.079.059,2.149.117,3.211.175,1.063.024,2.116.048,3.161.072,8.357.146,16.133.462,23.33.27,3.598-.039,7.05-.077,10.355-.113,3.305-.03,6.46-.248,9.469-.352,6.017-.282,11.452-.414,16.274-.854,4.827-.362,9.061-.68,12.696-.952,3.635-.28,6.657-.682,9.087-.917,4.855-.519,7.303-.78,7.303-.78" fill="none" stroke="#231f20" stroke-miterlimit="10" stroke-width=".25"/>
      <path d="m409.85,341.017c37.698-6.332,65.654-14.367,84.191-20.172,4.642-1.44,8.663-2.863,12.143-4,3.469-1.171,6.383-2.103,8.691-2.931,4.601-1.694,6.921-2.549,6.921-2.549" fill="none" stroke="#231f20" stroke-miterlimit="10" stroke-width=".25"/>
      <path d="m409.438,338.57c37.548-6.307,65.395-14.31,83.859-20.092,4.624-1.434,8.629-2.852,12.095-3.985,3.455-1.167,6.359-2.094,8.657-2.919,4.583-1.688,6.894-2.539,6.894-2.539" fill="none" stroke="#231f20" stroke-miterlimit="10" stroke-width=".25"/>
      <path d="m556.047,297.703c35.049-15.25,60.334-29.621,76.886-39.788,1.044-.622,2.056-1.225,3.035-1.808.961-.614,1.891-1.208,2.788-1.781,1.796-1.148,3.465-2.215,5.007-3.2,3.085-1.972,5.662-3.619,7.728-4.939,2.055-1.336,3.553-2.413,4.576-3.097,1.016-.695,1.526-1.044,1.526-1.044" fill="none" stroke="#231f20" stroke-miterlimit="10" stroke-width=".25"/>
      <path d="m555.06,295.426c34.911-15.19,60.096-29.503,76.581-39.63,1.04-.619,2.047-1.22,3.023-1.801.957-.612,1.883-1.203,2.777-1.774,1.788-1.143,3.451-2.206,4.987-3.188,3.072-1.963,5.639-3.604,7.697-4.919,2.047-1.331,3.538-2.403,4.557-3.085,1.012-.693,1.52-1.04,1.52-1.04" fill="none" stroke="#231f20" stroke-miterlimit="10" stroke-width=".25"/>
    </g>
  </g>
  <g>
    <path d="m631.939,305.125c3.781-1.056,7.505-2.097,11.172-3.121,1.828-.531,3.666-.98,5.444-1.568,1.777-.591,3.541-1.177,5.29-1.758,3.491-1.184,6.957-2.262,10.308-3.481,3.328-1.281,6.6-2.54,9.817-3.778,1.605-.627,3.21-1.215,4.775-1.86,1.551-.677,3.089-1.348,4.612-2.013,3.047-1.33,6.04-2.637,8.977-3.92,2.914-1.331,5.715-2.76,8.495-4.094,2.761-1.371,5.513-2.631,8.129-4.019,21.026-10.941,37.775-21.632,50.805-30.727,3.314-2.2,6.313-4.415,9.13-6.465,2.818-2.049,5.438-3.953,7.859-5.713,4.738-3.652,8.696-6.703,11.868-9.149,3.15-2.472,5.453-4.411,7.022-5.668,1.559-1.269,2.342-1.906,2.342-1.906" fill="none" stroke="#231f20" stroke-miterlimit="10" stroke-width=".25"/>
    <path d="m631.331,302.72c3.753-1.049,7.449-2.081,11.088-3.098,1.814-.527,3.638-.972,5.403-1.556,1.765-.587,3.515-1.169,5.252-1.746,3.466-1.175,6.907-2.245,10.234-3.456,3.305-1.272,6.554-2.523,9.749-3.752,1.594-.623,3.188-1.206,4.742-1.847,1.541-.672,3.068-1.339,4.582-2,3.027-1.322,6-2.619,8.919-3.893,2.896-1.322,5.679-2.743,8.442-4.069,2.744-1.362,5.479-2.614,8.079-3.994,20.9-10.875,37.563-21.51,50.532-30.564,3.297-2.189,6.284-4.395,9.089-6.435,2.806-2.039,5.414-3.935,7.824-5.687,4.718-3.637,8.66-6.676,11.819-9.111,3.137-2.462,5.432-4.395,6.995-5.646,1.553-1.264,2.333-1.898,2.333-1.898" fill="none" stroke="#231f20" stroke-miterlimit="10" stroke-width=".25"/>
  </g>
  <g>
    <g>
      <path d="m438.266,283.485c-36.838,11.154-65.8,15.768-85.193,18.215-4.861.57-9.118,1.132-12.785,1.507-3.675.296-6.745.544-9.206.742-4.921.397-7.403.598-7.403.598" fill="none" stroke="#231f20" stroke-miterlimit="10" stroke-width=".25"/>
      <path d="m439.001,285.855c-37.026,11.212-66.132,15.848-85.62,18.307-4.885.573-9.163,1.137-12.848,1.514-3.693.298-6.779.547-9.251.746-4.945.399-7.439.6-7.439.6" fill="none" stroke="#231f20" stroke-miterlimit="10" stroke-width=".25"/>
      <path d="m291.341,305.578c-9.622.179-18.652-.342-27.101-.62-2.114-.044-4.184-.218-6.218-.377-2.034-.155-4.032-.307-5.993-.457-3.92-.321-7.703-.536-11.322-.912-7.226-.864-13.881-1.548-19.916-2.363-6.019-.938-11.449-1.784-16.285-2.537-2.426-.331-4.663-.87-6.773-1.255-2.105-.414-4.063-.799-5.872-1.155-3.616-.716-6.637-1.315-9.059-1.795-4.802-1.145-7.223-1.723-7.223-1.723" fill="none" stroke="#231f20" stroke-miterlimit="10" stroke-width=".25"/>
      <path d="m291.346,308.059c-9.669.179-18.743-.343-27.234-.623-2.124-.045-4.204-.219-6.249-.379-2.044-.156-4.052-.309-6.023-.459-3.939-.323-7.741-.539-11.378-.916-7.262-.867-13.949-1.556-20.014-2.375-6.048-.942-11.505-1.793-16.365-2.55-2.438-.333-4.686-.874-6.807-1.261-2.116-.416-4.083-.803-5.901-1.16-3.634-.72-6.67-1.322-9.103-1.804-4.826-1.151-7.259-1.731-7.259-1.731" fill="none" stroke="#231f20" stroke-miterlimit="10" stroke-width=".25"/>
      <path d="m139.774,282.598c-4.572-1.488-9.005-2.932-13.301-4.33-2.139-.726-4.224-1.504-6.285-2.234-2.061-.731-4.083-1.465-6.058-2.227-1.979-.749-3.924-1.484-5.835-2.207-1.902-.751-3.769-1.488-5.602-2.211-3.673-1.429-7.176-2.902-10.554-4.285-13.487-5.602-24.672-10.638-33.653-14.695-17.949-8.21-27.08-12.386-27.08-12.386" fill="none" stroke="#231f20" stroke-miterlimit="10" stroke-width=".25"/>
      <path d="m139.028,284.965c-4.595-1.496-9.051-2.947-13.369-4.353-2.15-.729-4.244-1.511-6.315-2.245-2.071-.734-4.102-1.472-6.086-2.237-1.988-.752-3.941-1.49-5.859-2.216-1.909-.753-3.783-1.493-5.623-2.22-3.687-1.435-7.201-2.912-10.589-4.299-13.529-5.62-24.733-10.664-33.724-14.726-17.957-8.213-27.091-12.391-27.091-12.391" fill="none" stroke="#231f20" stroke-miterlimit="10" stroke-width=".25"/>
      <path d="m1.585,224.559c-8.914-3.926-17.36-7.489-25.31-10.727-7.972-3.185-15.428-6.079-22.407-8.556-13.935-5.012-25.844-8.62-35.485-11.231-2.417-.634-4.685-1.229-6.804-1.786-2.134-.505-4.118-.974-5.951-1.407-3.659-.897-6.752-1.5-9.226-2.006-2.475-.5-4.329-.908-5.585-1.101-1.25-.217-1.878-.326-1.878-.326" fill="none" stroke="#231f20" stroke-miterlimit="10" stroke-width=".25"/>
      <path d="m.586,226.831c-8.896-3.918-17.319-7.471-25.24-10.698-7.944-3.173-15.37-6.056-22.316-8.521-13.872-4.989-25.711-8.575-35.292-11.17-2.401-.63-4.654-1.222-6.76-1.774-2.119-.501-4.089-.967-5.909-1.397-3.634-.891-6.704-1.489-9.159-1.992-2.456-.496-4.297-.902-5.542-1.093-1.24-.215-1.863-.323-1.863-.323" fill="none" stroke="#231f20" stroke-miterlimit="10" stroke-width=".25"/>
    </g>
    <g>
      <path d="m387.336,302.869c-2.392.459-4.73,1.01-7.065,1.372-2.332.375-4.628.745-6.888,1.108-4.523.701-8.885,1.489-13.128,2.051-4.251.512-8.354,1.006-12.31,1.483-1.978.238-3.919.472-5.823.701-1.911.159-3.785.315-5.621.467-14.684,1.366-27.037,1.742-36.945,2.027-4.958.011-9.306.02-13.041.029-1.867.002-3.581.004-5.14.006-1.558-.057-2.962-.109-4.212-.155-4.997-.184-7.517-.277-7.517-.277" fill="none" stroke="#231f20" stroke-miterlimit="10" stroke-width=".25"/>
      <path d="m387.807,305.306c-2.404.461-4.753,1.014-7.1,1.378-2.344.377-4.651.748-6.922,1.114-4.545.704-8.928,1.495-13.193,2.06-4.271.515-8.395,1.011-12.37,1.49-1.988.239-3.938.474-5.851.704-1.92.16-3.803.317-5.649.47-14.755,1.372-27.168,1.751-37.123,2.036-4.982.011-9.351.021-13.103.029-1.876.002-3.598.004-5.165.005-1.566-.058-2.977-.109-4.232-.156-5.021-.185-7.554-.279-7.554-.279" fill="none" stroke="#231f20" stroke-miterlimit="10" stroke-width=".25"/>
      <path d="m236.96,309.34c-38.771-4.182-67.622-11.295-86.65-16.787-2.386-.671-4.626-1.302-6.719-1.89-2.086-.612-3.994-1.282-5.774-1.846-3.551-1.156-6.519-2.123-8.897-2.897-2.377-.776-4.165-1.36-5.359-1.75-1.182-.424-1.775-.637-1.775-.637" fill="none" stroke="#231f20" stroke-miterlimit="10" stroke-width=".25"/>
      <path d="m236.702,311.808c-38.958-4.202-67.951-11.351-87.074-16.87-2.398-.675-4.649-1.308-6.752-1.9-2.096-.615-4.014-1.288-5.803-1.855-3.569-1.162-6.552-2.133-8.941-2.911-2.389-.78-4.186-1.367-5.386-1.759-1.187-.426-1.783-.64-1.783-.64" fill="none" stroke="#231f20" stroke-miterlimit="10" stroke-width=".25"/>
      <path d="m86.754,269.925c-17.928-7.556-33.458-14.69-46.81-20.81-13.348-6.132-24.521-11.256-33.528-15.278-9.001-4.034-15.833-6.968-20.41-8.905-4.569-1.959-6.895-2.886-6.895-2.886" fill="none" stroke="#231f20" stroke-miterlimit="10" stroke-width=".25"/>
      <path d="m85.793,272.213c-17.98-7.577-33.529-14.721-46.884-20.843-13.352-6.134-24.513-11.252-33.506-15.268-8.987-4.028-15.801-6.954-20.365-8.885-4.557-1.954-6.874-2.878-6.874-2.878" fill="none" stroke="#231f20" stroke-miterlimit="10" stroke-width=".25"/>
    </g>
  </g>
  <g>
    <path d="m247.597,187.784c-.65-1.255-1.519-2.56-1.117-2.854.402-.295,1.676,1.385,2.117,2.075s1.07.898,1.525.175c.455-.723,1.526-2.758,2.008-2.437.482.321-.562,2.522-.884,3.042-.321.52-.503,1.215.488,1.215s3.368-.159,3.502.376-2.403.851-3.267.964-1.205.428-.643,1.419c.562.991,1.473,2.41.991,2.812-.482.402-2.169-1.928-2.544-2.464-.375-.536-.855-.304-1.257.366-.402.669-1.703,2.633-2.138,2.366-.435-.268.326-2.085.781-2.808.455-.723.471-1.222-.332-1.463s-3.026-.229-3.053-.898c-.027-.669,2.236-.591,3.119-.671s.923-.789.702-1.215Z" fill="none" stroke="#0b0b0b" stroke-miterlimit="10" stroke-width=".25"/>
    <circle cx="245.047" cy="181.864" r="1.272" fill="none" stroke="#0b0b0b" stroke-miterlimit="10" stroke-width=".25"/>
    <path d="m253.65,181.327c0,.703-.57,1.272-1.272,1.272s-1.272-.57-1.272-1.272.57-1.272,1.272-1.272,1.272.57,1.272,1.272Z" fill="none" stroke="#0b0b0b" stroke-miterlimit="10" stroke-width=".25"/>
    <circle cx="257.778" cy="185.368" r="1.272" fill="none" stroke="#0b0b0b" stroke-miterlimit="10" stroke-width=".25"/>
    <circle cx="257.595" cy="192.472" r="1.272" fill="none" stroke="#0b0b0b" stroke-miterlimit="10" stroke-width=".25"/>
    <circle cx="254.131" cy="197.538" r="1.272" fill="none" stroke="#0b0b0b" stroke-miterlimit="10" stroke-width=".25"/>
    <circle cx="246.984" cy="198.151" r="1.272" fill="none" stroke="#0b0b0b" stroke-miterlimit="10" stroke-width=".25"/>
    <circle cx="241.352" cy="193.744" r="1.272" fill="none" stroke="#0b0b0b" stroke-miterlimit="10" stroke-width=".25"/>
    <circle cx="240.922" cy="187.179" r="1.272" fill="none" stroke="#0b0b0b" stroke-miterlimit="10" stroke-width=".25"/>
  </g>
  <polyline points="45.181 573.105 41.152 576.532 32.894 566.82 36.923 563.394 28.88 553.936 24.851 557.362 16.636 547.702 20.665 544.275 11.417 533.401 7.388 536.827 -26.376 497.123 -22.347 493.697 -56.069 454.043 -60.098 457.469 -93.819 417.815 -90.422 414.927" fill="none" stroke="#231f20" stroke-miterlimit="10" stroke-width=".449"/>
  <g>
    <g>
      <line x1="91.383" y1="428.219" x2="83.395" y2="415.944" fill="none" stroke="#221f1f" stroke-miterlimit="10" stroke-width=".5"/>
      <line x1="80.003" y1="410.731" x2="72.016" y2="398.456" fill="none" stroke="#221f1f" stroke-miterlimit="10" stroke-width=".5"/>
    </g>
    <g>
      <g>
        <line x1="66.656" y1="389.381" x2="58.668" y2="377.106" fill="none" stroke="#221f1f" stroke-miterlimit="10" stroke-width=".5"/>
        <line x1="55.276" y1="371.893" x2="47.288" y2="359.618" fill="none" stroke="#221f1f" stroke-miterlimit="10" stroke-width=".5"/>
        <line x1="43.975" y1="354.314" x2="35.987" y2="342.039" fill="none" stroke="#221f1f" stroke-miterlimit="10" stroke-width=".5"/>
        <line x1="32.595" y1="336.827" x2="24.608" y2="324.552" fill="none" stroke="#221f1f" stroke-miterlimit="10" stroke-width=".5"/>
      </g>
      <g>
        <line x1="20.966" y1="318.214" x2="12.978" y2="305.939" fill="none" stroke="#221f1f" stroke-miterlimit="10" stroke-width=".5"/>
        <line x1="9.586" y1="300.726" x2="1.598" y2="288.451" fill="none" stroke="#221f1f" stroke-miterlimit="10" stroke-width=".5"/>
      </g>
    </g>
  </g>
  <g>
    <g>
      <path d="m246.635,438.378c-7.76-16.257-11.778-24.672-11.778-24.672" fill="none" stroke="#231f20" stroke-miterlimit="10" stroke-width=".188"/>
      <path d="m244.955,439.18c-7.76-16.256-11.778-24.672-11.778-24.672" fill="none" stroke="#231f20" stroke-miterlimit="10" stroke-width=".188"/>
      <path d="m231.593,406.869c-7.76-16.256-11.778-24.672-11.778-24.672" fill="none" stroke="#231f20" stroke-miterlimit="10" stroke-width=".188"/>
      <path d="m229.914,407.671c-7.76-16.257-11.778-24.672-11.778-24.672" fill="none" stroke="#231f20" stroke-miterlimit="10" stroke-width=".188"/>
    </g>
    <g>
      <path d="m236.797,429.118c-7.76-16.256-11.778-24.672-11.778-24.672" fill="none" stroke="#231f20" stroke-miterlimit="10" stroke-width=".188"/>
      <path d="m235.118,429.92c-7.76-16.257-11.778-24.672-11.778-24.672" fill="none" stroke="#231f20" stroke-miterlimit="10" stroke-width=".188"/>
      <path d="m221.756,397.609c-7.76-16.257-11.778-24.672-11.778-24.672" fill="none" stroke="#231f20" stroke-miterlimit="10" stroke-width=".188"/>
      <path d="m220.076,398.411c-7.76-16.256-11.778-24.672-11.778-24.672" fill="none" stroke="#231f20" stroke-miterlimit="10" stroke-width=".188"/>
    </g>
  </g>
  <g>
    <g>
      <path d="m268.684,275.938c20.25,2.175,39.428,2.603,57.307,1.986,17.881-.704,34.481-2.486,49.67-5.086.952-.148,1.898-.296,2.84-.443.936-.181,1.867-.362,2.794-.541,1.853-.36,3.686-.716,5.501-1.068,1.814-.353,3.609-.701,5.385-1.046,1.773-.359,3.507-.807,5.232-1.2,3.446-.81,6.816-1.601,10.109-2.375,3.26-.904,6.444-1.788,9.551-2.65,12.426-3.474,23.418-7.342,33.095-11.054,1.214-.454,2.409-.9,3.586-1.34,1.165-.469,2.296-.97,3.417-1.441,2.238-.953,4.402-1.876,6.493-2.766,2.091-.891,4.108-1.751,6.051-2.58,1.917-.888,3.761-1.742,5.532-2.562,3.525-1.677,6.743-3.253,9.651-4.725,2.889-1.508,5.518-2.819,7.812-4.072,4.586-2.505,8.041-4.38,10.292-5.73,2.27-1.317,3.409-1.978,3.409-1.978" fill="none" stroke="#231f20" stroke-miterlimit="10" stroke-width=".25"/>
      <path d="m268.95,273.471c20.123,2.161,39.18,2.587,56.948,1.974,17.769-.7,34.264-2.47,49.355-5.054.945-.147,1.886-.294,2.822-.44.93-.18,1.855-.359,2.776-.538,1.841-.357,3.662-.711,5.465-1.061,1.803-.35,3.586-.697,5.35-1.039,1.761-.357,3.484-.802,5.198-1.192,3.424-.804,6.771-1.591,10.043-2.359,3.238-.899,6.401-1.776,9.489-2.633,12.344-3.451,23.264-7.294,32.878-10.981,1.206-.451,2.393-.894,3.562-1.331,1.157-.466,2.28-.964,3.394-1.432,2.223-.947,4.373-1.863,6.45-2.748,2.077-.885,4.081-1.739,6.011-2.562,1.904-.882,3.736-1.731,5.496-2.546,3.502-1.666,6.699-3.232,9.588-4.695,2.871-1.499,5.483-2.801,7.762-4.046,4.557-2.489,7.991-4.352,10.227-5.694,2.255-1.309,3.388-1.966,3.388-1.966" fill="none" stroke="#231f20" stroke-miterlimit="10" stroke-width=".25"/>
      <path d="m562.113,185.521c15.463-13.269,28.899-27.002,40.495-40.658,1.437-1.719,2.861-3.423,4.272-5.112.706-.845,1.408-1.686,2.108-2.523.692-.843,1.329-1.725,1.991-2.579,2.622-3.44,5.197-6.819,7.724-10.135,2.383-3.453,4.722-6.841,7.016-10.165,2.215-3.357,4.281-6.706,6.276-10.011,1.991-3.307,3.881-6.583,5.68-9.826,1.805-3.218,3.492-6.518,5.106-9.586,3.249-6.174,6.354-12.074,9.314-17.699,1.482-2.811,2.928-5.554,4.337-8.228,1.46-2.645,2.883-5.222,4.268-7.73,2.77-5.017,5.389-9.76,7.856-14.229,1.216-2.245,2.461-4.382,3.666-6.451,1.201-2.071,2.363-4.075,3.485-6.01,2.244-3.871,4.331-7.469,6.259-10.794,3.919-6.61,7.317-12.055,9.977-16.458,1.342-2.194,2.517-4.116,3.525-5.765,1.043-1.626,1.914-2.982,2.61-4.069,1.394-2.172,2.094-3.263,2.094-3.263" fill="none" stroke="#231f20" stroke-miterlimit="10" stroke-width=".25"/>
      <path d="m560.498,183.637c15.361-13.181,28.704-26.82,40.218-40.379,1.426-1.707,2.84-3.399,4.242-5.076.701-.839,1.398-1.674,2.093-2.505.687-.837,1.319-1.713,1.977-2.561,2.603-3.416,5.16-6.77,7.67-10.063,2.358-3.417,4.672-6.77,6.942-10.059,2.197-3.33,4.249-6.655,6.229-9.935,3.953-6.551,7.505-13.034,10.707-19.27,3.254-6.183,6.364-12.092,9.329-17.726,1.484-2.816,2.932-5.563,4.344-8.24,1.463-2.65,2.888-5.231,4.276-7.744,2.775-5.026,5.398-9.778,7.87-14.255,1.218-2.249,2.465-4.39,3.673-6.464,1.203-2.076,2.367-4.083,3.492-6.023,2.249-3.879,4.34-7.485,6.271-10.817,3.927-6.625,7.334-12.083,10-16.497,1.345-2.199,2.523-4.126,3.534-5.779,1.046-1.63,1.919-2.991,2.618-4.08,1.398-2.178,2.099-3.272,2.099-3.272" fill="none" stroke="#231f20" stroke-miterlimit="10" stroke-width=".25"/>
    </g>
    <g>
      <path d="m380.919,265.287c19.688-3.652,37.893-8.592,54.53-14.32,8.246-3.059,16.266-5.878,23.739-9.233,1.883-.802,3.749-1.597,5.596-2.384.923-.396,1.841-.791,2.755-1.183.902-.419,1.8-.837,2.693-1.253,3.588-1.63,7.039-3.372,10.445-5.028,27.062-13.677,48.117-28.099,64.176-40.608,16.012-12.608,27.19-23.212,34.36-30.56,1.808-1.825,3.391-3.423,4.75-4.795,1.342-1.387,2.397-2.606,3.276-3.55,1.738-1.906,2.61-2.863,2.61-2.863" fill="none" stroke="#231f20" stroke-miterlimit="10" stroke-width=".25"/>
      <path d="m380.469,262.847c19.559-3.628,37.643-8.535,54.168-14.224,8.191-3.04,16.157-5.838,23.58-9.172,1.871-.797,3.724-1.586,5.559-2.368.917-.394,1.829-.785,2.737-1.175.896-.417,1.788-.832,2.675-1.244,3.564-1.619,6.992-3.35,10.376-4.995,26.887-13.588,47.809-27.919,63.761-40.345,15.906-12.525,27.007-23.055,34.126-30.352,1.795-1.812,3.368-3.399,4.717-4.761,1.333-1.377,2.38-2.588,3.252-3.525,1.725-1.892,2.592-2.843,2.592-2.843" fill="none" stroke="#231f20" stroke-miterlimit="10" stroke-width=".25"/>
      <path d="m629.665,95.442c2.505-4.339,4.814-8.654,7.05-12.986,2.276-4.324,4.516-8.582,6.721-12.771,2.205-4.19,4.374-8.312,6.508-12.366,2.17-4.035,4.38-7.963,6.511-11.846,4.283-7.754,8.369-15.268,12.57-22.365,4.164-7.117,8.037-14.047,12.077-20.522,15.75-26.141,30.081-47.367,42.34-63.87,12.249-16.515,22.427-28.292,29.619-35.835,1.797-1.887,3.381-3.533,4.81-4.889.703-.687,1.349-1.316,1.936-1.889.609-.557,1.157-1.058,1.644-1.504.964-.896,1.721-1.554,2.242-1.984.512-.435.769-.652.769-.652" fill="none" stroke="#231f20" stroke-miterlimit="10" stroke-width=".25"/>
      <path d="m627.514,94.205c2.491-4.316,4.763-8.561,6.996-12.887,2.279-4.331,4.523-8.595,6.731-12.791,2.208-4.196,4.381-8.324,6.518-12.385,2.174-4.042,4.388-7.977,6.522-11.867,4.291-7.768,8.383-15.294,12.594-22.407,4.172-7.132,8.053-14.074,12.103-20.566,15.786-26.201,30.161-47.493,42.473-64.068,12.303-16.586,22.544-28.443,29.816-36.068,1.817-1.908,3.419-3.572,4.872-4.952.714-.697,1.37-1.336,1.966-1.918.622-.569,1.182-1.082,1.681-1.538.5-.455.938-.853,1.313-1.195.399-.339.731-.621.997-.848.532-.452.799-.678.799-.678" fill="none" stroke="#231f20" stroke-miterlimit="10" stroke-width=".25"/>
    </g>
  </g>
  <g>
    <rect x="-1044.473" y="37.712" width="3386.58" height="2514.089" transform="translate(-645.939 1943.574) rotate(-90)" fill="none" stroke="#231f20" stroke-linecap="round" stroke-miterlimit="10" stroke-width="7"/>
    <rect x="-1027.506" y="54.834" width="3353.392" height="2482.402" transform="translate(-646.845 1945.225) rotate(-90)" fill="none" stroke="#231f20" stroke-linecap="round" stroke-miterlimit="10" stroke-width="3"/>
    <rect x="-989.031" y="90.452" width="3275.615" height="2412.095" transform="translate(-647.722 1945.276) rotate(-90)" fill="none" stroke="#231f20" stroke-linecap="round" stroke-miterlimit="10"/>
    <rect x="-971.163" y="107.815" width="3239.88" height="2376.261" transform="translate(-647.169 1944.723) rotate(-90)" fill="none" stroke="#231f20" stroke-linecap="round" stroke-miterlimit="10"/>
  </g>
  <g>
    <path d="m368.523,429.86c.617-.207,1.284.125,1.491.742s-.125,1.284-.742,1.491c-.617.207-1.284-.125-1.491-.742-.207-.617.125-1.284.742-1.491Z" fill="#231f20" stroke-width="0"/>
    <path d="m367.02,425.381c.617-.207,1.284.125,1.491.742.207.617-.125,1.284-.742,1.491s-1.284-.125-1.491-.742.125-1.284.742-1.491Z" fill="#231f20" stroke-width="0"/>
    <path d="m365.518,420.901c.617-.207,1.284.125,1.491.742s-.125,1.284-.742,1.491-1.284-.125-1.491-.742.125-1.284.742-1.491Z" fill="#231f20" stroke-width="0"/>
    <path d="m364.016,416.422c.617-.207,1.284.125,1.491.742s-.125,1.284-.742,1.491-1.284-.125-1.491-.742c-.207-.617.125-1.284.742-1.491Z" fill="#231f20" stroke-width="0"/>
    <path d="m362.514,411.943c.617-.207,1.284.125,1.491.742.207.617-.125,1.284-.742,1.491-.617.207-1.284-.125-1.491-.742-.207-.617.125-1.284.742-1.491Z" fill="#231f20" stroke-width="0"/>
    <path d="m361.012,407.464c.617-.207,1.284.125,1.491.742s-.125,1.284-.742,1.491-1.284-.125-1.491-.742.125-1.284.742-1.491Z" fill="#231f20" stroke-width="0"/>
    <path d="m359.51,402.985c.617-.207,1.284.125,1.491.742s-.125,1.284-.742,1.491-1.284-.125-1.491-.742.125-1.284.742-1.491Z" fill="#231f20" stroke-width="0"/>
    <path d="m358.008,398.506c.617-.207,1.284.125,1.491.742s-.125,1.284-.742,1.491c-.617.207-1.284-.125-1.491-.742-.207-.617.125-1.284.742-1.491Z" fill="#231f20" stroke-width="0"/>
    <path d="m356.506,394.027c.617-.207,1.284.125,1.491.742.207.617-.125,1.284-.742,1.491s-1.284-.125-1.491-.742c-.207-.617.125-1.284.742-1.491Z" fill="#231f20" stroke-width="0"/>
    <path d="m355.004,389.548c.617-.207,1.284.125,1.491.742s-.125,1.284-.742,1.491-1.284-.125-1.491-.742.125-1.284.742-1.491Z" fill="#231f20" stroke-width="0"/>
    <path d="m353.501,385.069c.617-.207,1.284.125,1.491.742s-.125,1.284-.742,1.491-1.284-.125-1.491-.742c-.207-.617.125-1.284.742-1.491Z" fill="#231f20" stroke-width="0"/>
    <path d="m351.999,380.59c.617-.207,1.284.125,1.491.742s-.125,1.284-.742,1.491c-.617.207-1.284-.125-1.491-.742s.125-1.284.742-1.491Z" fill="#231f20" stroke-width="0"/>
    <path d="m350.497,376.111c.617-.207,1.284.125,1.491.742.207.617-.125,1.284-.742,1.491s-1.284-.125-1.491-.742.125-1.284.742-1.491Z" fill="#231f20" stroke-width="0"/>
    <path d="m348.995,371.632c.617-.207,1.284.125,1.491.742s-.125,1.284-.742,1.491-1.284-.125-1.491-.742.125-1.284.742-1.491Z" fill="#231f20" stroke-width="0"/>
  </g>
  <g>
    <path d="m258.438,99.277c.617-.207,1.284.126,1.491.742.207.617-.126,1.284-.742,1.491-.617.207-1.284-.126-1.491-.742-.207-.617.126-1.284.742-1.491Z" fill="#231f20" stroke-width="0"/>
    <path d="m256.937,94.797c.617-.207,1.284.126,1.491.742.207.617-.126,1.284-.742,1.491-.617.207-1.284-.126-1.491-.742-.207-.617.126-1.284.742-1.491Z" fill="#231f20" stroke-width="0"/>
    <path d="m255.435,90.317c.617-.207,1.284.126,1.491.742.207.617-.126,1.284-.742,1.491-.617.207-1.284-.126-1.491-.742-.207-.617.126-1.284.742-1.491Z" fill="#231f20" stroke-width="0"/>
    <path d="m253.934,85.838c.617-.207,1.284.126,1.491.742s-.126,1.284-.742,1.491c-.617.207-1.284-.126-1.491-.742-.207-.617.126-1.284.742-1.491Z" fill="#231f20" stroke-width="0"/>
    <path d="m252.432,81.358c.617-.207,1.284.126,1.491.742.207.617-.126,1.284-.742,1.491-.617.207-1.284-.126-1.491-.742-.207-.617.126-1.284.742-1.491Z" fill="#231f20" stroke-width="0"/>
    <path d="m250.93,76.878c.617-.207,1.284.126,1.491.742.207.617-.126,1.284-.742,1.491-.617.207-1.284-.126-1.491-.742-.207-.617.126-1.284.742-1.491Z" fill="#231f20" stroke-width="0"/>
    <path d="m249.429,72.398c.617-.207,1.284.126,1.491.742.207.617-.126,1.284-.742,1.491-.617.207-1.284-.126-1.491-.742-.207-.617.126-1.284.742-1.491Z" fill="#231f20" stroke-width="0"/>
    <path d="m247.927,67.918c.617-.207,1.284.126,1.491.742.207.617-.126,1.284-.742,1.491-.617.207-1.284-.126-1.491-.742-.207-.617.126-1.284.742-1.491Z" fill="#231f20" stroke-width="0"/>
    <path d="m246.425,63.438c.617-.207,1.284.126,1.491.742.207.617-.126,1.284-.742,1.491-.617.207-1.284-.126-1.491-.742-.207-.617.126-1.284.742-1.491Z" fill="#231f20" stroke-width="0"/>
    <path d="m244.924,58.958c.617-.207,1.284.126,1.491.742.207.617-.126,1.284-.742,1.491-.617.207-1.284-.126-1.491-.742-.207-.617.126-1.284.742-1.491Z" fill="#231f20" stroke-width="0"/>
    <path d="m243.422,54.478c.617-.207,1.284.126,1.491.742.207.617-.126,1.284-.742,1.491-.617.207-1.284-.126-1.491-.742-.207-.617.126-1.284.742-1.491Z" fill="#231f20" stroke-width="0"/>
    <path d="m241.92,49.998c.617-.207,1.284.126,1.491.742.207.617-.126,1.284-.742,1.491-.617.207-1.284-.126-1.491-.742-.207-.617.126-1.284.742-1.491Z" fill="#231f20" stroke-width="0"/>
    <path d="m240.419,45.518c.617-.207,1.284.126,1.491.742.207.617-.126,1.284-.742,1.491-.617.207-1.284-.126-1.491-.742s.126-1.284.742-1.491Z" fill="#231f20" stroke-width="0"/>
    <path d="m238.917,41.038c.617-.207,1.284.126,1.491.742.207.617-.126,1.284-.742,1.491-.617.207-1.284-.126-1.491-.742-.207-.617.126-1.284.742-1.491Z" fill="#231f20" stroke-width="0"/>
    <path d="m237.415,36.558c.617-.207,1.284.126,1.491.742.207.617-.126,1.284-.742,1.491-.617.207-1.284-.126-1.491-.742-.207-.617.126-1.284.742-1.491Z" fill="#231f20" stroke-width="0"/>
    <path d="m235.914,32.078c.617-.207,1.284.126,1.491.742.207.617-.126,1.284-.742,1.491-.617.207-1.284-.126-1.491-.742-.207-.617.126-1.284.742-1.491Z" fill="#231f20" stroke-width="0"/>
    <path d="m234.412,27.598c.617-.207,1.284.126,1.491.742.207.617-.126,1.284-.742,1.491-.617.207-1.284-.126-1.491-.742s.126-1.284.742-1.491Z" fill="#231f20" stroke-width="0"/>
    <path d="m232.91,23.119c.617-.207,1.284.126,1.491.742.207.617-.126,1.284-.742,1.491s-1.284-.126-1.491-.742c-.207-.617.126-1.284.742-1.491Z" fill="#231f20" stroke-width="0"/>
    <path d="m231.409,18.639c.617-.207,1.284.126,1.491.742.207.617-.126,1.284-.742,1.491-.617.207-1.284-.126-1.491-.742-.207-.617.126-1.284.742-1.491Z" fill="#231f20" stroke-width="0"/>
    <path d="m229.907,14.159c.617-.207,1.284.126,1.491.742.207.617-.126,1.284-.742,1.491-.617.207-1.284-.126-1.491-.742-.207-.617.126-1.284.742-1.491Z" fill="#231f20" stroke-width="0"/>
    <path d="m228.405,9.679c.617-.207,1.284.126,1.491.742.207.617-.126,1.284-.742,1.491-.617.207-1.284-.126-1.491-.742s.126-1.284.742-1.491Z" fill="#231f20" stroke-width="0"/>
    <path d="m226.904,5.199c.617-.207,1.284.126,1.491.742.207.617-.126,1.284-.742,1.491s-1.284-.126-1.491-.742c-.207-.617.126-1.284.742-1.491Z" fill="#231f20" stroke-width="0"/>
    <path d="m225.402.719c.617-.207,1.284.126,1.491.742.207.617-.126,1.284-.742,1.491s-1.284-.126-1.491-.742c-.207-.617.126-1.284.742-1.491Z" fill="#231f20" stroke-width="0"/>
  </g>
  <g>
    <g>
      <path d="m497.992,178.213c7.714-2.344,14.727-5.207,21.103-8.239,3.128-1.628,6.203-3.106,9.007-4.808,1.412-.832,2.83-1.599,4.161-2.442,1.326-.851,2.627-1.686,3.902-2.504,10.142-6.638,17.868-13.235,23.776-18.776,5.894-5.566,10.072-10.028,12.779-13.079,1.35-1.529,2.365-2.68,3.043-3.448.342-.381.591-.675.751-.875.163-.198.245-.297.245-.297" fill="none" stroke="#231f20" stroke-miterlimit="10" stroke-width=".25"/>
      <path d="m497.286,175.834c7.569-2.301,14.457-5.113,20.723-8.091,3.076-1.602,6.099-3.053,8.857-4.729,1.389-.819,2.784-1.572,4.095-2.403,1.306-.838,2.586-1.66,3.841-2.466,9.987-6.536,17.611-13.044,23.444-18.514,5.819-5.496,9.949-9.905,12.624-12.921,1.334-1.512,2.338-2.649,3.008-3.408.338-.377.584-.667.742-.865.161-.196.242-.294.242-.294" fill="none" stroke="#231f20" stroke-miterlimit="10" stroke-width=".25"/>
      <path d="m592.785,102.425c8.8-13.159,15.456-25.359,20.81-35.98,5.354-10.63,9.434-19.698,12.642-26.991,3.208-7.295,5.51-12.832,7.064-16.529,1.534-3.701,2.307-5.567,2.307-5.567" fill="none" stroke="#231f20" stroke-miterlimit="10" stroke-width=".25"/>
      <path d="m590.724,101.043c8.721-13.04,15.332-25.154,20.655-35.716,5.323-10.57,9.388-19.601,12.585-26.871,3.197-7.271,5.495-12.797,7.046-16.486,1.531-3.695,2.303-5.559,2.303-5.559" fill="none" stroke="#231f20" stroke-miterlimit="10" stroke-width=".25"/>
    </g>
    <g>
      <path d="m534.652,153.419c6.359-4.323,11.987-8.88,17.089-13.32,2.498-2.283,4.943-4.45,7.154-6.697,1.113-1.115,2.25-2.164,3.284-3.274,1.043-1.102,2.065-2.182,3.067-3.241,7.956-8.534,13.914-16.326,18.44-22.739,4.513-6.432,7.703-11.441,9.766-14.83,1.031-1.695,1.807-2.97,2.325-3.822.505-.86.758-1.291.758-1.291" fill="none" stroke="#231f20" stroke-miterlimit="10" stroke-width=".25"/>
      <path d="m533.258,151.366c6.259-4.256,11.807-8.748,16.839-13.126,2.464-2.253,4.877-4.389,7.06-6.609,1.099-1.101,2.221-2.136,3.243-3.232,1.03-1.088,2.04-2.155,3.03-3.201,7.86-8.43,13.754-16.137,18.232-22.483,4.469-6.369,7.631-11.334,9.677-14.695,1.023-1.681,1.792-2.946,2.306-3.79.5-.853.752-1.281.752-1.281" fill="none" stroke="#231f20" stroke-miterlimit="10" stroke-width=".25"/>
      <path d="m608.893,61.286c6.884-13.887,12.308-26.425,16.873-37.259,4.548-10.838,8.267-19.99,11.23-27.316,2.949-7.33,5.042-12.893,6.367-16.635.659-1.872,1.155-3.28,1.486-4.219.329-.941.472-1.419.472-1.419" fill="none" stroke="#231f20" stroke-miterlimit="10" stroke-width=".25"/>
      <path d="m606.671,60.181c6.846-13.81,12.253-26.305,16.808-37.117,4.536-10.81,8.261-19.975,11.215-27.279,2.939-7.306,5.018-12.832,6.333-16.545.654-1.856,1.146-3.253,1.474-4.185.326-.933.468-1.405.468-1.405" fill="none" stroke="#231f20" stroke-miterlimit="10" stroke-width=".25"/>
    </g>
  </g>
  <g>
    <g>
      <path d="m-23.089,29.394c7.063-1.559,13.073-3.944,17.983-6.523C-.186,20.291,3.596,17.44,6.432,14.947c.715-.62,1.373-1.215,1.954-1.812.582-.593,1.163-1.107,1.625-1.652.943-1.074,1.731-1.971,2.363-2.69.628-.722,1.015-1.33,1.313-1.706.285-.386.429-.579.429-.579" fill="none" stroke="#231f20" stroke-miterlimit="10" stroke-width=".25"/>
      <path d="m-23.631,26.972c6.846-1.51,12.645-3.817,17.366-6.296,4.731-2.48,8.345-5.21,11.054-7.589.682-.592,1.311-1.16,1.865-1.729.554-.566,1.11-1.054,1.55-1.575.899-1.024,1.65-1.879,2.252-2.564.6-.687.967-1.27,1.252-1.628.272-.368.409-.553.409-.553" fill="none" stroke="#231f20" stroke-miterlimit="10" stroke-width=".25"/>
    </g>
    <g>
      <path d="m-7.217,16.607c2.892-1.582,5.451-3.333,7.685-5.151.575-.436,1.102-.908,1.62-1.37.517-.463,1.044-.899,1.508-1.382.476-.47.943-.931,1.401-1.384.424-.484.84-.959,1.248-1.424.409-.464.809-.92,1.201-1.365.385-.452.707-.939,1.052-1.39.655-.93,1.374-1.753,1.885-2.661.548-.882,1.069-1.72,1.563-2.516.448-.823.843-1.618,1.232-2.358,1.507-2.984,2.391-5.364,2.921-6.969.272-.801.496-1.397.615-1.806.112-.411.168-.617.168-.617" fill="none" stroke="#231f20" stroke-miterlimit="10" stroke-width=".25"/>
      <path d="m-8.416,14.435c2.766-1.513,5.204-3.182,7.325-4.909.548-.413,1.047-.862,1.538-1.301.491-.44.992-.852,1.43-1.31.451-.445.894-.882,1.328-1.31.401-.459.794-.909,1.18-1.349.387-.439.767-.87,1.138-1.291.365-.427.668-.891.996-1.319C7.138.762,7.824-.012,8.307-.878c.521-.837,1.016-1.634,1.486-2.389.413-.792.803-1.54,1.171-2.245,1.435-2.841,2.281-5.116,2.788-6.654.26-.767.476-1.336.59-1.728.107-.394.16-.592.16-.592" fill="none" stroke="#231f20" stroke-miterlimit="10" stroke-width=".25"/>
    </g>
  </g>
  <g>
    <g>
      <path d="m-70.873,120.724c13.557.196,25.453.214,35.675.271,10.223.044,18.765.129,25.62.245,13.708.228,20.655.542,20.655.542" fill="none" stroke="#231f20" stroke-miterlimit="10" stroke-width=".25"/>
      <path d="m-70.836,118.243c13.534.196,25.426.213,35.651.271,10.225.044,18.782.129,25.649.245,13.734.229,20.705.543,20.705.543" fill="none" stroke="#231f20" stroke-miterlimit="10" stroke-width=".25"/>
      <path d="m36.954,123.215c26.748,2.012,46.714,5.708,59.897,8.827,3.284.83,6.174,1.523,8.639,2.177,2.453.695,4.502,1.276,6.144,1.741,1.649.448,2.867.843,3.679,1.11.814.262,1.223.393,1.223.393" fill="none" stroke="#231f20" stroke-miterlimit="10" stroke-width=".25"/>
      <path d="m37.144,120.741c26.87,2.021,46.988,5.741,60.278,8.886,3.312.836,6.226,1.535,8.712,2.196,2.475.701,4.542,1.287,6.199,1.757,1.663.452,2.893.851,3.714,1.121.822.264,1.235.397,1.235.397" fill="none" stroke="#231f20" stroke-miterlimit="10" stroke-width=".25"/>
      <path d="m137.473,145.148c12.221,5.147,22.481,10.739,30.923,16.091,2.156,1.273,4.104,2.67,6.006,3.956,1.894,1.296,3.73,2.5,5.37,3.794,1.668,1.257,3.254,2.453,4.759,3.587,1.485,1.157,2.821,2.334,4.117,3.397,1.278,1.084,2.515,2.06,3.604,3.046,1.077.998,2.077,1.927,3.002,2.784.925.857,1.774,1.644,2.547,2.359.786.703,1.405,1.423,2.004,2.017,2.347,2.424,3.53,3.646,3.53,3.646" fill="none" stroke="#231f20" stroke-miterlimit="10" stroke-width=".25"/>
      <path d="m138.44,142.863c12.353,5.203,22.732,10.859,31.28,16.278,2.182,1.289,4.156,2.704,6.082,4.006,1.918,1.313,3.777,2.533,5.441,3.844,1.69,1.275,3.298,2.487,4.823,3.636,1.506,1.173,2.861,2.366,4.175,3.445,1.296,1.1,2.55,2.09,3.655,3.09,1.093,1.013,2.109,1.955,3.047,2.825.939.87,1.801,1.668,2.585,2.395.797.714,1.427,1.445,2.035,2.048,2.383,2.461,3.585,3.703,3.585,3.703" fill="none" stroke="#231f20" stroke-miterlimit="10" stroke-width=".25"/>
    </g>
    <g>
      <path d="m-32.994,114.488c27.047.099,47.616.708,61.388,1.607,6.889.398,12.078.871,15.549,1.143,3.467.337,5.216.506,5.216.506" fill="none" stroke="#231f20" stroke-miterlimit="10" stroke-width=".25"/>
      <path d="m-32.981,112.006c27.062.098,47.699.709,61.526,1.611,6.915.4,12.13.875,15.617,1.148,3.485.338,5.242.509,5.242.509" fill="none" stroke="#231f20" stroke-miterlimit="10" stroke-width=".25"/>
      <path d="m75.157,121.122c13.415,2.183,25.095,4.868,35.01,7.648,4.974,1.336,9.467,2.85,13.576,4.165,2.039.704,3.96,1.429,5.792,2.086,1.829.665,3.566,1.275,5.162,1.957,1.606.655,3.113,1.269,4.522,1.843,1.413.563,2.717,1.109,3.899,1.667,2.379,1.081,4.367,1.984,5.96,2.708,1.594.723,2.747,1.363,3.538,1.744.785.396,1.179.595,1.179.595" fill="none" stroke="#231f20" stroke-miterlimit="10" stroke-width=".25"/>
      <path d="m75.557,118.673c13.505,2.198,25.279,4.904,35.28,7.708,5.015,1.347,9.555,2.877,13.706,4.205,2.06.711,4.001,1.443,5.851,2.107,1.848.672,3.602,1.289,5.215,1.977,1.623.661,3.146,1.282,4.569,1.862,1.427.57,2.745,1.12,3.94,1.685,2.405,1.093,4.414,2.006,6.024,2.737,1.61.731,2.777,1.377,3.577,1.763.793.4,1.192.601,1.192.601" fill="none" stroke="#231f20" stroke-miterlimit="10" stroke-width=".25"/>
      <path d="m173.739,156.878c11.468,7.412,20.825,15.057,28.241,22.273.97.857,1.819,1.802,2.691,2.686.864.892,1.709,1.765,2.536,2.62.816.864,1.659,1.668,2.401,2.529.744.86,1.47,1.7,2.179,2.52,1.399,1.656,2.808,3.165,4.001,4.715,1.19,1.552,2.315,3.02,3.376,4.403.53.692,1.043,1.362,1.541,2.011.459.677.904,1.332,1.333,1.964.854,1.268,1.648,2.446,2.382,3.536,1.519,2.146,2.57,4.077,3.467,5.589,1.777,3.036,2.674,4.568,2.674,4.568" fill="none" stroke="#231f20" stroke-miterlimit="10" stroke-width=".25"/>
      <path d="m175.085,154.793c11.608,7.503,21.092,15.25,28.618,22.571.983.87,1.846,1.829,2.731,2.725.877.905,1.735,1.792,2.574,2.659.829.877,1.683,1.693,2.437,2.567.755.873,1.493,1.726,2.213,2.559,1.421,1.681,2.851,3.214,4.063,4.79,1.21,1.578,2.353,3.069,3.431,4.475.538.703,1.06,1.385,1.565,2.044.467.688.919,1.354,1.356,1.997.869,1.289,1.676,2.488,2.422,3.595,1.543,2.182,2.614,4.146,3.527,5.685,1.807,3.089,2.719,4.647,2.719,4.647" fill="none" stroke="#231f20" stroke-miterlimit="10" stroke-width=".25"/>
    </g>
  </g>
  <g>
    <g>
      <path d="m253.465,9.065c-12.203,1.831-23.191,1.474-32.449.13-2.318-.319-4.517-.808-6.636-1.172-2.13-.327-4.111-.895-6.01-1.384-.95-.245-1.876-.485-2.779-.718-.904-.23-1.787-.446-2.619-.753-1.679-.562-3.266-1.093-4.762-1.593-.748-.249-1.473-.491-2.175-.725-.684-.283-1.345-.557-1.984-.821-1.279-.528-2.467-1.019-3.565-1.472-2.223-.848-3.97-1.8-5.4-2.496-2.852-1.412-4.29-2.124-4.29-2.124" fill="none" stroke="#231f20" stroke-miterlimit="10" stroke-width=".25"/>
      <path d="m253.848,11.517c-12.492,1.876-23.724,1.507-33.18.135-2.368-.326-4.613-.823-6.777-1.197-2.174-.336-4.197-.914-6.136-1.413-.969-.251-1.915-.495-2.837-.733-.923-.235-1.824-.456-2.673-.769-1.713-.573-3.333-1.115-4.86-1.625-.763-.255-1.503-.502-2.219-.741-.698-.289-1.373-.568-2.025-.837-1.305-.539-2.517-1.039-3.638-1.502-2.268-.867-4.051-1.837-5.51-2.547-2.909-1.442-4.377-2.169-4.377-2.169" fill="none" stroke="#231f20" stroke-miterlimit="10" stroke-width=".25"/>
    </g>
    <g>
      <path d="m218.031,15.325c-12.917-2.089-23.866-5.887-32.864-9.948-2.214-1.097-4.338-2.15-6.372-3.159-1.032-.476-1.977-1.061-2.915-1.606-.936-.548-1.851-1.082-2.744-1.604-.893-.522-1.763-1.032-2.612-1.529-.85-.494-1.615-1.077-2.395-1.589-1.541-1.052-2.999-2.046-4.372-2.983-.342-.236-.679-.467-1.011-.696-.316-.25-.627-.496-.933-.737-.612-.484-1.204-.952-1.776-1.404-1.143-.905-2.206-1.746-3.189-2.523-1.006-.749-1.824-1.562-2.602-2.261-.772-.706-1.468-1.343-2.087-1.909-1.237-1.134-2.167-1.986-2.788-2.555-.579-.613-.869-.921-.869-.921" fill="none" stroke="#231f20" stroke-miterlimit="10" stroke-width=".25"/>
      <path d="m217.642,17.775c-13.177-2.13-24.337-6.003-33.509-10.143-2.257-1.119-4.422-2.192-6.495-3.219-1.051-.486-2.015-1.081-2.971-1.637-.955-.558-1.887-1.103-2.797-1.635-.91-.533-1.797-1.053-2.662-1.559-.867-.504-1.647-1.098-2.442-1.62-1.572-1.073-3.058-2.087-4.458-3.042-.349-.24-.693-.477-1.031-.71-.323-.255-.64-.505-.952-.752-.625-.493-1.229-.971-1.812-1.432-1.166-.923-2.25-1.781-3.252-2.574-1.025-.765-1.861-1.593-2.655-2.306-.788-.721-1.498-1.37-2.13-1.948-1.262-1.157-2.211-2.028-2.844-2.609-.591-.625-.888-.939-.888-.939" fill="none" stroke="#231f20" stroke-miterlimit="10" stroke-width=".25"/>
    </g>
  </g>
  <g>
    <line x1="474.172" y1="368.367" x2="487.222" y2="435.067" fill="none" stroke="#231f20" stroke-miterlimit="10" stroke-width=".25"/>
    <line x1="482.298" y1="401.09" x2="478.884" y2="401.758" fill="none" stroke="#231f20" stroke-miterlimit="10" stroke-width=".25"/>
    <line x1="483.37" y1="409.333" x2="480.979" y2="409.801" fill="none" stroke="#231f20" stroke-miterlimit="10" stroke-width=".25"/>
    <line x1="485.101" y1="418.178" x2="482.709" y2="418.646" fill="none" stroke="#231f20" stroke-miterlimit="10" stroke-width=".25"/>
    <line x1="486.715" y1="426.431" x2="484.324" y2="426.899" fill="none" stroke="#231f20" stroke-miterlimit="10" stroke-width=".25"/>
    <line x1="480.189" y1="393.075" x2="477.798" y2="393.543" fill="none" stroke="#231f20" stroke-miterlimit="10" stroke-width=".25"/>
    <line x1="478.574" y1="384.818" x2="476.183" y2="385.286" fill="none" stroke="#231f20" stroke-miterlimit="10" stroke-width=".25"/>
    <line x1="476.98" y1="376.673" x2="474.589" y2="377.14" fill="none" stroke="#231f20" stroke-miterlimit="10" stroke-width=".25"/>
    <line x1="475.823" y1="368.044" x2="472.409" y2="368.712" fill="none" stroke="#231f20" stroke-miterlimit="10" stroke-width=".25"/>
  </g>
  <g>
    <line x1="408.911" y1="35.236" x2="421.961" y2="101.936" fill="none" stroke="#231f20" stroke-miterlimit="10" stroke-width=".25"/>
    <line x1="417.036" y1="67.96" x2="413.622" y2="68.627" fill="none" stroke="#231f20" stroke-miterlimit="10" stroke-width=".25"/>
    <line x1="418.109" y1="76.202" x2="415.717" y2="76.67" fill="none" stroke="#231f20" stroke-miterlimit="10" stroke-width=".25"/>
    <line x1="419.839" y1="85.047" x2="417.448" y2="85.515" fill="none" stroke="#231f20" stroke-miterlimit="10" stroke-width=".25"/>
    <line x1="421.454" y1="93.3" x2="419.063" y2="93.768" fill="none" stroke="#231f20" stroke-miterlimit="10" stroke-width=".25"/>
    <line x1="414.928" y1="59.944" x2="412.536" y2="60.412" fill="none" stroke="#231f20" stroke-miterlimit="10" stroke-width=".25"/>
    <line x1="413.312" y1="51.687" x2="410.921" y2="52.155" fill="none" stroke="#231f20" stroke-miterlimit="10" stroke-width=".25"/>
    <line x1="411.719" y1="43.542" x2="409.327" y2="44.01" fill="none" stroke="#231f20" stroke-miterlimit="10" stroke-width=".25"/>
    <line x1="410.561" y1="34.913" x2="407.147" y2="35.581" fill="none" stroke="#231f20" stroke-miterlimit="10" stroke-width=".25"/>
    <line x1="423.636" y1="101.44" x2="420.222" y2="102.108" fill="none" stroke="#231f20" stroke-miterlimit="10" stroke-width=".25"/>
  </g>
  <g>
    <path d="m87.824,3.911c-.149.589-.225,1.009-.7,1.275-.135.076-.243.107-.411.141-.651.131-1.193-.161-1.412-.279-.141-.076-.343-.201-.556-.402l-1.43.769-.164-.321,1.344-.746-.318-.538-1.525.819-.207-.381,1.528-.829s-.578-.782-.646-1.816c-.069-1.033.728-2.928.649-3.245-.079-.317-.165-.32-.165-.32.031-.017.13-.065.251-.04.198.039.272.234.277.247.235.818.606,1.31.905,1.61.565.568.914.489,1.439,1.146.402.504.563,1.008.833.973.058-.008.205-.136.496-.391.261-.229.267-.245.332-.278.252-.128.573-.095.811.02.467.225.542.729.547.77.011.084.044.335-.094.56-.142.231-.315.336-.315.336-.052.031-.121.064-.171.143-.045.071-.054.145-.056.199-.012.36.261,1.14.161,1.203-.022.014-.075,0-.21-.131-.014-.036-.068-.169-.138-.346-.174-.436-.221-.558-.358-.656-.057-.04-.497-.282-.697.508Z" fill="#221f1f" stroke-width="0"/>
    <g>
      <line x1="89.146" y1="7.99" x2="91.627" y2="12.558" fill="none" stroke="#221f1f" stroke-miterlimit="10" stroke-width=".5"/>
      <path d="m96.425,19.698c-.148.59-.222,1.009-.696,1.277-.135.076-.243.108-.411.142-.651.133-1.193-.158-1.413-.275-.141-.075-.343-.201-.557-.401l-1.427.773-.165-.321,1.342-.75-.319-.538-1.522.823-.208-.381,1.526-.833s-.58-.781-.651-1.814c-.072-1.033.72-2.93.64-3.246-.08-.317-.166-.32-.166-.32.031-.017.129-.065.251-.041.198.039.273.233.278.247.238.817.61,1.308.909,1.608.567.566.915.487,1.442,1.142.404.502.566,1.006.836.971.058-.008.204-.136.495-.393.26-.23.266-.246.331-.279.252-.129.573-.096.811.018.467.224.544.727.549.768.011.084.045.335-.092.56-.141.232-.314.337-.314.337-.052.032-.12.065-.171.144-.045.071-.054.145-.056.199-.011.36.264,1.14.165,1.203-.022.014-.075,0-.21-.13-.014-.035-.068-.169-.139-.346-.175-.435-.222-.558-.36-.655-.057-.04-.497-.281-.695.51Z" fill="#221f1f" stroke-width="0"/>
    </g>
    <g>
      <line x1="97.758" y1="23.774" x2="100.254" y2="28.334" fill="none" stroke="#221f1f" stroke-miterlimit="10" stroke-width=".5"/>
      <path d="m105.072,35.46c-.146.59-.219,1.01-.693,1.279-.135.077-.242.108-.411.143-.65.135-1.193-.154-1.413-.27-.141-.075-.344-.199-.558-.399l-1.425.777-.166-.321,1.339-.754-.321-.537-1.52.828-.209-.38,1.523-.838s-.582-.779-.657-1.812c-.075-1.033.711-2.932.631-3.249-.08-.316-.167-.319-.167-.319.031-.017.129-.065.251-.042.198.038.274.233.279.246.24.816.614,1.307.914,1.605.568.564.917.484,1.445,1.138.405.501.569,1.005.838.968.058-.008.204-.137.493-.394.26-.231.266-.247.33-.28.251-.129.573-.098.811.015.468.222.546.726.552.767.011.084.046.335-.091.561-.141.232-.313.338-.313.338-.052.032-.12.065-.17.144-.045.071-.054.145-.055.199-.01.36.267,1.139.168,1.203-.022.014-.075,0-.211-.129-.014-.035-.069-.169-.14-.345-.176-.435-.224-.557-.362-.653-.057-.04-.498-.279-.694.512Z" fill="#221f1f" stroke-width="0"/>
    </g>
    <g>
      <line x1="106.417" y1="39.533" x2="108.934" y2="44.081" fill="none" stroke="#221f1f" stroke-miterlimit="10" stroke-width=".5"/>
      <path d="m113.773,51.192c-.144.591-.216,1.011-.688,1.282-.134.077-.242.109-.41.145-.65.138-1.194-.149-1.414-.265-.141-.075-.344-.198-.559-.397l-1.422.783-.167-.32,1.336-.759-.323-.536-1.517.834-.21-.38,1.52-.844s-.584-.777-.662-1.81c-.078-1.033.702-2.936.62-3.252-.081-.316-.168-.319-.168-.319.031-.017.129-.066.251-.043.198.038.274.232.279.245.242.816.618,1.305.919,1.602.57.562.918.481,1.448,1.133.406.5.572,1.003.841.965.058-.008.203-.138.492-.396.259-.232.265-.248.329-.281.251-.13.572-.1.811.012.468.22.548.724.554.765.012.084.047.335-.089.561-.14.233-.311.339-.311.339-.052.032-.12.066-.17.145-.045.071-.053.145-.055.199-.009.361.272,1.137.173,1.201-.022.014-.075,0-.212-.128-.015-.035-.07-.169-.142-.344-.177-.434-.225-.556-.364-.652-.057-.04-.499-.277-.692.515Z" fill="#221f1f" stroke-width="0"/>
    </g>
    <g>
      <line x1="115.14" y1="55.255" x2="117.675" y2="59.793" fill="none" stroke="#221f1f" stroke-miterlimit="10" stroke-width=".5"/>
      <path d="m122.551,66.878c-.141.591-.21,1.012-.68,1.286-.134.078-.242.111-.409.147-.649.141-1.195-.143-1.416-.257-.142-.074-.346-.196-.562-.394l-1.418.79-.169-.319,1.332-.766-.326-.534-1.512.842-.213-.378,1.515-.852s-.59-.774-.674-1.806c-.086-1.032.686-2.939.604-3.255-.082-.316-.169-.318-.169-.318.031-.017.129-.066.25-.044.199.037.275.231.28.244.245.815.622,1.303.926,1.598.574.559.921.476,1.456,1.125.41.497.578.999.848.96.058-.008.203-.139.49-.399.258-.233.263-.249.327-.283.25-.132.572-.103.811.008.47.218.553.72.559.761.012.084.049.335-.085.561-.138.233-.309.341-.309.341-.051.032-.12.066-.169.146-.044.072-.052.146-.053.2-.006.36.278,1.136.179,1.2-.022.014-.075.001-.212-.127-.015-.035-.07-.168-.143-.344-.18-.433-.229-.555-.368-.65-.057-.039-.501-.274-.689.518Z" fill="#221f1f" stroke-width="0"/>
    </g>
    <g>
      <line x1="123.934" y1="70.937" x2="126.498" y2="75.459" fill="none" stroke="#221f1f" stroke-miterlimit="10" stroke-width=".5"/>
      <path d="m131.42,82.511c-.136.592-.202,1.013-.671,1.291-.133.079-.241.113-.408.15-.648.146-1.196-.134-1.418-.247-.143-.073-.347-.194-.565-.39l-1.412.801-.171-.318,1.327-.776-.33-.532-1.506.853-.216-.377,1.509-.862s-.596-.77-.687-1.802c-.09-1.033.67-2.945.585-3.26-.085-.315-.171-.317-.171-.317.031-.017.128-.067.25-.046.199.036.277.229.282.242.251.813.631,1.299.935,1.592.575.557.924.47,1.463,1.115.413.494.585.995.854.954.058-.009.202-.14.487-.402.256-.235.262-.251.325-.285.249-.134.571-.107.811.002.471.214.558.715.564.756.013.083.051.334-.081.561-.137.234-.307.343-.307.343-.051.033-.119.067-.168.147-.044.072-.051.146-.052.2-.004.36.286,1.133.188,1.199-.022.015-.075.002-.213-.126-.015-.035-.071-.168-.146-.343-.183-.432-.233-.553-.373-.647-.058-.039-.503-.27-.685.523Z" fill="#221f1f" stroke-width="0"/>
    </g>
    <g>
      <line x1="132.837" y1="86.557" x2="135.438" y2="91.057" fill="none" stroke="#221f1f" stroke-miterlimit="10" stroke-width=".5"/>
      <path d="m140.445,98.043c-.127.593-.185,1.015-.649,1.3-.132.081-.239.117-.406.157-.645.156-1.199-.115-1.424-.225-.144-.071-.35-.189-.57-.383l-1.4.821-.176-.317,1.315-.795-.337-.528-1.494.873-.221-.375,1.498-.883s-.607-.763-.711-1.795c-.102-1.033.635-2.953.547-3.267-.088-.314-.175-.315-.175-.315.031-.018.128-.069.25-.048.199.033.279.225.285.238.26.81.646,1.29.953,1.581.582.549.927.46,1.474,1.097.419.488.597.986.866.941.058-.01.2-.143.482-.409.253-.238.258-.254.322-.29.247-.137.569-.115.81-.01.473.207.565.706.572.747.014.083.055.333-.074.562-.133.236-.302.347-.302.347-.051.033-.118.069-.166.149-.043.072-.049.146-.049.2.002.359.304,1.125.207,1.192-.022.015-.074.003-.215-.121-.016-.035-.074-.166-.151-.339-.19-.427-.242-.547-.383-.638-.058-.038-.507-.262-.677.533Z" fill="#221f1f" stroke-width="0"/>
    </g>
  </g>
</svg>