<?xml version="1.0" encoding="UTF-8"?>
<svg id="a" data-name="Layer 1" xmlns="http://www.w3.org/2000/svg" width="9.002in" height="6.002in" viewBox="0 0 648.177 432.177">
  <g>
    <g>
      <g>
        <path d="m440.323,150.424c-1.009-3.797-1.263-7.309-1.129-10.298.137-2.995.607-5.48,1.124-7.424.531-1.941,1.045-3.372,1.449-4.299.375-.941.612-1.392.612-1.392" fill="none" stroke="#231f20" stroke-miterlimit="10" stroke-width=".25"/>
        <path d="m437.929,151.077c-1.088-4.089-1.357-7.854-1.214-11.057.147-3.209.65-5.869,1.204-7.953.569-2.081,1.122-3.616,1.555-4.612.403-1.01.657-1.496.657-1.496" fill="none" stroke="#231f20" stroke-miterlimit="10" stroke-width=".25"/>
        <path d="m445.764,121.341c2.347-3.174,4.974-5.538,7.39-7.3,2.419-1.777,4.666-2.93,6.501-3.737,1.841-.806,3.293-1.23,4.258-1.517.975-.273,1.482-.388,1.482-.388" fill="none" stroke="#231f20" stroke-miterlimit="10" stroke-width=".25"/>
        <path d="m443.772,119.861c2.522-3.409,5.333-5.939,7.922-7.826,2.591-1.902,4.999-3.139,6.97-4.005,1.977-.865,3.539-1.323,4.578-1.631,1.047-.293,1.586-.414,1.586-.414" fill="none" stroke="#231f20" stroke-miterlimit="10" stroke-width=".25"/>
        <path d="m473.38,107.148c4.343-.471,8.459-.803,12.06-1.57,1.795-.379,3.448-.714,4.906-1.188.735-.216,1.434-.421,2.097-.615.66-.203,1.263-.455,1.842-.66,2.326-.807,3.995-1.608,5.122-2.121.563-.258.986-.451,1.268-.581.274-.146.411-.22.411-.22" fill="none" stroke="#231f20" stroke-miterlimit="10" stroke-width=".25"/>
        <path d="m473.11,104.681c4.399-.476,8.413-.802,11.854-1.539,1.718-.364,3.301-.682,4.699-1.138.705-.206,1.375-.403,2.01-.589.633-.194,1.211-.437,1.766-.634,2.231-.773,3.833-1.544,4.915-2.035.54-.247.947-.432,1.218-.556.263-.141.395-.212.395-.212" fill="none" stroke="#231f20" stroke-miterlimit="10" stroke-width=".25"/>
        <path d="m508.066,96.1c3.973-2.717,7.137-5.536,9.735-8.077,1.232-1.336,2.405-2.53,3.376-3.702.949-1.191,1.849-2.232,2.566-3.224.705-1.002,1.324-1.881,1.855-2.635.539-.75.899-1.438,1.233-1.958.641-1.059.964-1.592.964-1.592" fill="none" stroke="#231f20" stroke-miterlimit="10" stroke-width=".25"/>
        <path d="m506.675,94.045c3.82-2.613,6.863-5.326,9.364-7.769,1.183-1.287,2.313-2.433,3.246-3.56.911-1.146,1.778-2.145,2.467-3.099.678-.962,1.272-1.807,1.783-2.532.519-.72.862-1.381,1.183-1.88.616-1.016.926-1.528.926-1.528" fill="none" stroke="#231f20" stroke-miterlimit="10" stroke-width=".25"/>
      </g>
      <g>
        <path d="m432.722,139.096c.278-4.7,1.325-8.749,2.577-12.079,1.262-3.334,2.764-5.948,4.09-7.942,1.323-2.004,2.512-3.372,3.298-4.287.818-.888,1.231-1.336,1.231-1.336" fill="none" stroke="#231f20" stroke-miterlimit="10" stroke-width=".25"/>
        <path d="m430.245,138.946c.295-4.982,1.404-9.272,2.734-12.808,1.339-3.539,2.937-6.323,4.347-8.443,1.407-2.129,2.667-3.582,3.502-4.553.868-.942,1.306-1.417,1.306-1.417" fill="none" stroke="#231f20" stroke-miterlimit="10" stroke-width=".25"/>
        <path d="m449.927,108.325c3.867-2.681,7.681-4.409,11.083-5.472,3.418-1.067,6.339-1.506,8.639-1.821,2.308-.305,4.026-.468,5.169-.59,1.139-.118,1.714-.177,1.714-.177" fill="none" stroke="#231f20" stroke-miterlimit="10" stroke-width=".25"/>
        <path d="m448.504,106.292c4.098-2.843,8.145-4.676,11.763-5.807,3.644-1.137,6.692-1.588,9.053-1.913,2.371-.313,4.099-.477,5.245-.599,1.136-.118,1.709-.177,1.709-.177" fill="none" stroke="#231f20" stroke-miterlimit="10" stroke-width=".25"/>
        <path d="m484.868,99.034c2.12-.388,4.046-1.027,5.864-1.552,1.767-.683,3.453-1.215,4.919-1.943.743-.338,1.456-.662,2.139-.972.661-.356,1.292-.696,1.894-1.021,1.222-.618,2.262-1.283,3.189-1.874,3.707-2.368,5.399-3.851,5.399-3.851" fill="none" stroke="#231f20" stroke-miterlimit="10" stroke-width=".25"/>
        <path d="m484.36,96.605c2.017-.366,3.853-.981,5.587-1.478,1.686-.655,3.295-1.157,4.695-1.856.71-.322,1.392-.632,2.044-.928.632-.341,1.235-.667,1.811-.977,1.169-.589,2.164-1.227,3.051-1.793,3.547-2.266,5.168-3.686,5.168-3.686" fill="none" stroke="#231f20" stroke-miterlimit="10" stroke-width=".25"/>
        <path d="m513.647,82.928c3.047-3.078,5.253-6.199,7.068-8.907,1.737-2.766,3.006-5.195,3.886-7.202.429-1.009.805-1.893,1.128-2.653.268-.78.491-1.432.671-1.955.36-1.044.542-1.571.542-1.571" fill="none" stroke="#231f20" stroke-miterlimit="10" stroke-width=".25"/>
        <path d="m511.864,81.203c2.92-2.946,5.025-5.935,6.763-8.521,1.659-2.644,2.871-4.962,3.71-6.875.409-.961.768-1.804,1.077-2.528.254-.743.467-1.364.637-1.861.344-.994.517-1.495.517-1.495" fill="none" stroke="#231f20" stroke-miterlimit="10" stroke-width=".25"/>
      </g>
    </g>
    <g>
      <g>
        <path d="m459.57,124.245c4.427-3.023,9.167-4.477,13.357-5.261,4.201-.804,7.909-.917,10.877-.947,2.978-.005,5.253.156,6.771.253,1.535.128,2.309.192,2.309.192" fill="none" stroke="#231f20" stroke-miterlimit="10" stroke-width=".25"/>
        <path d="m458.166,122.199c4.82-3.289,9.895-4.827,14.301-5.653,4.426-.845,8.266-.959,11.332-.99,3.074-.005,5.404.16,6.959.26,1.562.13,2.35.195,2.35.195" fill="none" stroke="#231f20" stroke-miterlimit="10" stroke-width=".25"/>
        <path d="m503.108,119.62c6.16.755,11.766,1.328,16.687,1.436,4.922.135,9.154-.217,12.459-.675,3.318-.46,5.77-1.019,7.405-1.392.822-.177,1.425-.352,1.833-.454.407-.106.611-.16.611-.16" fill="none" stroke="#231f20" stroke-miterlimit="10" stroke-width=".25"/>
        <path d="m503.403,117.156c6.153.755,11.659,1.314,16.452,1.419,4.793.131,8.856-.21,12.059-.653,3.211-.445,5.591-.988,7.178-1.35.797-.171,1.384-.343,1.781-.441.395-.103.594-.155.594-.155" fill="none" stroke="#231f20" stroke-miterlimit="10" stroke-width=".25"/>
        <path d="m553.961,114.402c11.931-4.907,20.083-10.037,25.559-13.466,1.352-.884,2.538-1.66,3.556-2.326,1-.693,1.835-1.273,2.505-1.737,1.336-.933,2.01-1.403,2.01-1.403" fill="none" stroke="#231f20" stroke-miterlimit="10" stroke-width=".25"/>
        <path d="m553.034,112.101c11.678-4.8,19.755-9.874,25.149-13.254,1.334-.872,2.504-1.637,3.508-2.294.986-.684,1.81-1.256,2.471-1.714,1.318-.92,1.983-1.384,1.983-1.384" fill="none" stroke="#231f20" stroke-miterlimit="10" stroke-width=".25"/>
        <path d="m596.078,88.993c9.847-8.022,16.562-14.979,20.894-19.763,2.134-2.425,3.758-4.242,4.776-5.516,1.039-1.255,1.563-1.888,1.563-1.888" fill="none" stroke="#231f20" stroke-miterlimit="10" stroke-width=".25"/>
        <path d="m594.517,87.063c9.716-7.915,16.341-14.779,20.615-19.499,2.105-2.393,3.708-4.185,4.711-5.442,1.025-1.238,1.542-1.862,1.542-1.862" fill="none" stroke="#231f20" stroke-miterlimit="10" stroke-width=".25"/>
      </g>
      <g>
        <path d="m472.735,112.388c6.351-1.054,11.97-.958,16.733-.699,4.768.292,8.687.785,11.827,1.149,6.267.768,9.411,1.082,9.411,1.082" fill="none" stroke="#231f20" stroke-miterlimit="10" stroke-width=".25"/>
        <path d="m472.322,109.941c6.635-1.1,12.414-.992,17.292-.73,4.878.299,8.823.798,11.974,1.162,6.28.77,9.367,1.078,9.367,1.078" fill="none" stroke="#231f20" stroke-miterlimit="10" stroke-width=".25"/>
        <path d="m520.923,114.557c6.04.097,11.291-.622,15.76-1.578,4.464-.973,8.131-2.145,11.038-3.184,2.91-1.035,5.061-1.954,6.497-2.569,1.429-.634,2.15-.953,2.15-.953" fill="none" stroke="#231f20" stroke-miterlimit="10" stroke-width=".25"/>
        <path d="m520.955,112.076c11.644.143,20.267-2.652,25.931-4.616,2.837-1.009,4.941-1.908,6.347-2.509,1.4-.621,2.106-.934,2.106-.934" fill="none" stroke="#231f20" stroke-miterlimit="10" stroke-width=".25"/>
        <path d="m566.87,100.913c10.696-5.981,18.18-11.558,23.086-15.388,2.463-1.91,4.247-3.442,5.449-4.455,1.21-1.004,1.795-1.538,1.795-1.538" fill="none" stroke="#231f20" stroke-miterlimit="10" stroke-width=".25"/>
        <path d="m565.662,98.746c10.544-5.896,17.924-11.396,22.762-15.172,2.429-1.883,4.188-3.394,5.374-4.393,1.193-.99,1.771-1.517,1.771-1.517" fill="none" stroke="#231f20" stroke-miterlimit="10" stroke-width=".25"/>
        <path d="m604.762,72.535c4.375-4.289,7.97-8.306,10.999-11.811,2.981-3.548,5.379-6.602,7.231-9.108.919-1.258,1.725-2.362,2.417-3.309.663-.968,1.217-1.777,1.661-2.425.888-1.296,1.336-1.95,1.336-1.95" fill="none" stroke="#231f20" stroke-miterlimit="10" stroke-width=".25"/>
        <path d="m603.024,70.764c4.314-4.23,7.859-8.191,10.846-11.647,2.939-3.499,5.304-6.509,7.129-8.98.906-1.24,1.701-2.328,2.383-3.263.654-.954,1.2-1.752,1.637-2.391.876-1.278,1.317-1.922,1.317-1.922" fill="none" stroke="#231f20" stroke-miterlimit="10" stroke-width=".25"/>
      </g>
    </g>
  </g>
  <g>
    <g>
      <line x1="1.646" y1="339.937" x2="12.709" y2="349.159" fill="none" stroke="#231f20" stroke-miterlimit="10"/>
      <path d="m17.948,327.771c2.611,2.456,5.222,4.913,7.833,7.369" fill="none" stroke="#231f20" stroke-miterlimit="10"/>
      <line x1="11.629" y1="342.839" x2="15.499" y2="346.181" fill="none" stroke="#231f20" stroke-miterlimit="10"/>
      <path d="m19.146,334.219c1.349,1.173,2.698,2.345,4.047,3.518" fill="none" stroke="#231f20" stroke-miterlimit="10"/>
      <path d="m16.511,337.192c1.32,1.139,2.639,2.279,3.959,3.418" fill="none" stroke="#231f20" stroke-miterlimit="10"/>
      <line x1="14.007" y1="340.116" x2="17.935" y2="343.39" fill="none" stroke="#231f20" stroke-miterlimit="10"/>
    </g>
    <g>
      <line x1="55.938" y1="279.518" x2="66.044" y2="289.78" fill="none" stroke="#231f20" stroke-miterlimit="10"/>
      <path d="m73.354,269.009c2.358,2.701,4.715,5.401,7.073,8.102" fill="none" stroke="#231f20" stroke-miterlimit="10"/>
      <line x1="65.589" y1="283.385" x2="69.113" y2="287.09" fill="none" stroke="#231f20" stroke-miterlimit="10"/>
      <path d="m73.915,275.543c1.227,1.299,2.455,2.598,3.682,3.897" fill="none" stroke="#231f20" stroke-miterlimit="10"/>
      <path d="m71.001,278.243c1.202,1.263,2.403,2.527,3.605,3.79" fill="none" stroke="#231f20" stroke-miterlimit="10"/>
      <line x1="68.222" y1="280.908" x2="71.81" y2="284.551" fill="none" stroke="#231f20" stroke-miterlimit="10"/>
    </g>
    <g>
      <line x1="115.891" y1="224.711" x2="124.943" y2="235.915" fill="none" stroke="#231f20" stroke-miterlimit="10"/>
      <path d="m134.254,215.96c2.082,2.919,4.163,5.837,6.245,8.756" fill="none" stroke="#231f20" stroke-miterlimit="10"/>
      <line x1="125.117" y1="229.505" x2="128.26" y2="233.538" fill="none" stroke="#231f20" stroke-miterlimit="10"/>
      <path d="m134.171,222.518c1.094,1.413,2.189,2.826,3.283,4.24" fill="none" stroke="#231f20" stroke-miterlimit="10"/>
      <path d="m131.007,224.919c1.072,1.375,2.144,2.75,3.216,4.125" fill="none" stroke="#231f20" stroke-miterlimit="10"/>
      <line x1="127.98" y1="227.299" x2="131.193" y2="231.276" fill="none" stroke="#231f20" stroke-miterlimit="10"/>
    </g>
    <g>
      <line x1="180.928" y1="176.045" x2="188.838" y2="188.082" fill="none" stroke="#231f20" stroke-miterlimit="10"/>
      <path d="m200.059,169.135c1.785,3.109,3.571,6.217,5.356,9.326" fill="none" stroke="#231f20" stroke-miterlimit="10"/>
      <line x1="189.639" y1="181.72" x2="192.372" y2="186.042" fill="none" stroke="#231f20" stroke-miterlimit="10"/>
      <path d="m199.334,175.654c.95,1.514,1.901,3.027,2.851,4.541" fill="none" stroke="#231f20" stroke-miterlimit="10"/>
      <path d="m195.95,177.733c.932,1.473,1.864,2.947,2.796,4.42" fill="none" stroke="#231f20" stroke-miterlimit="10"/>
      <line x1="192.705" y1="179.805" x2="195.513" y2="184.078" fill="none" stroke="#231f20" stroke-miterlimit="10"/>
    </g>
    <g>
      <line x1="250.421" y1="133.987" x2="257.113" y2="146.741" fill="none" stroke="#231f20" stroke-miterlimit="10"/>
      <path d="m270.138,128.986c1.472,3.269,2.944,6.537,4.416,9.806" fill="none" stroke="#231f20" stroke-miterlimit="10"/>
      <line x1="258.534" y1="140.489" x2="260.83" y2="145.057" fill="none" stroke="#231f20" stroke-miterlimit="10"/>
      <path d="m268.777,135.402c.798,1.6,1.595,3.199,2.393,4.799" fill="none" stroke="#231f20" stroke-miterlimit="10"/>
      <path d="m265.205,137.14c.783,1.558,1.566,3.115,2.35,4.673" fill="none" stroke="#231f20" stroke-miterlimit="10"/>
      <line x1="261.773" y1="138.883" x2="264.148" y2="143.411" fill="none" stroke="#231f20" stroke-miterlimit="10"/>
    </g>
    <g>
      <line x1="323.702" y1="98.944" x2="329.112" y2="112.292" fill="none" stroke="#231f20" stroke-miterlimit="10"/>
      <path d="m343.814,95.899c1.145,3.397,2.289,6.794,3.434,10.192" fill="none" stroke="#231f20" stroke-miterlimit="10"/>
      <line x1="331.139" y1="106.209" x2="332.976" y2="110.981" fill="none" stroke="#231f20" stroke-miterlimit="10"/>
      <path d="m341.831,102.151c.637,1.67,1.274,3.34,1.911,5.01" fill="none" stroke="#231f20" stroke-miterlimit="10"/>
      <path d="m338.106,103.53c.627,1.627,1.253,3.254,1.88,4.881" fill="none" stroke="#231f20" stroke-miterlimit="10"/>
      <line x1="334.519" y1="104.929" x2="336.44" y2="109.668" fill="none" stroke="#231f20" stroke-miterlimit="10"/>
    </g>
    <g>
      <line x1="400.065" y1="71.252" x2="404.141" y2="85.067" fill="none" stroke="#231f20" stroke-miterlimit="10"/>
      <path d="m420.379,70.194c.806,3.493,1.612,6.986,2.419,10.479" fill="none" stroke="#231f20" stroke-miterlimit="10"/>
      <line x1="406.754" y1="79.212" x2="408.115" y2="84.141" fill="none" stroke="#231f20" stroke-miterlimit="10"/>
      <path d="m417.793,76.221c.47,1.724.94,3.449,1.41,5.173" fill="none" stroke="#231f20" stroke-miterlimit="10"/>
      <path d="m413.951,77.229c.464,1.681.928,3.361,1.393,5.042" fill="none" stroke="#231f20" stroke-miterlimit="10"/>
      <line x1="410.244" y1="78.269" x2="411.69" y2="83.174" fill="none" stroke="#231f20" stroke-miterlimit="10"/>
    </g>
    <g>
      <line x1="478.775" y1="51.178" x2="481.476" y2="65.326" fill="none" stroke="#231f20" stroke-miterlimit="10"/>
      <path d="m499.094,52.116c.46,3.555.92,7.11,1.38,10.666" fill="none" stroke="#231f20" stroke-miterlimit="10"/>
      <line x1="484.651" y1="59.756" x2="485.522" y2="64.794" fill="none" stroke="#231f20" stroke-miterlimit="10"/>
      <path d="m495.93,57.861c.299,1.762.598,3.524.897,5.286" fill="none" stroke="#231f20" stroke-miterlimit="10"/>
      <path d="m492.007,58.487c.297,1.718.595,3.436.892,5.154" fill="none" stroke="#231f20" stroke-miterlimit="10"/>
      <line x1="488.216" y1="59.159" x2="489.175" y2="64.182" fill="none" stroke="#231f20" stroke-miterlimit="10"/>
    </g>
    <g>
      <line x1="559.073" y1="38.917" x2="560.375" y2="53.261" fill="none" stroke="#231f20" stroke-miterlimit="10"/>
      <path d="m579.203,41.842c.109,3.583.218,7.166.328,10.75" fill="none" stroke="#231f20" stroke-miterlimit="10"/>
      <line x1="564.08" y1="48.028" x2="564.453" y2="53.128" fill="none" stroke="#231f20" stroke-miterlimit="10"/>
      <path d="m575.49,47.249c.125,1.783.249,3.566.374,5.349" fill="none" stroke="#231f20" stroke-miterlimit="10"/>
      <path d="m571.526,47.487c.127,1.739.255,3.478.382,5.217" fill="none" stroke="#231f20" stroke-miterlimit="10"/>
      <line x1="567.687" y1="47.785" x2="568.149" y2="52.877" fill="none" stroke="#231f20" stroke-miterlimit="10"/>
    </g>
    <g>
      <line x1="640.187" y1="34.584" x2="640.076" y2="48.987" fill="none" stroke="#231f20" stroke-miterlimit="10"/>
      <line x1="644.277" y1="44.143" x2="644.148" y2="49.255" fill="none" stroke="#231f20" stroke-miterlimit="10"/>
      <line x1="647.89" y1="44.254" x2="647.851" y2="49.367" fill="none" stroke="#231f20" stroke-miterlimit="10"/>
    </g>
  </g>
  <g>
    <path d="m465.912,139.724c-.65-1.255-1.519-2.56-1.117-2.854.402-.295,1.676,1.385,2.117,2.075s1.07.898,1.525.175c.455-.723,1.526-2.758,2.008-2.437.482.321-.562,2.522-.884,3.042-.321.52-.503,1.215.488,1.215s3.368-.159,3.502.376-2.403.851-3.267.964-1.205.428-.643,1.419c.562.991,1.473,2.41.991,2.812-.482.402-2.169-1.928-2.544-2.464-.375-.536-.855-.304-1.257.366-.402.669-1.703,2.633-2.138,2.366-.435-.268.326-2.085.781-2.808.455-.723.471-1.222-.332-1.463s-3.026-.229-3.053-.898c-.027-.669,2.236-.591,3.119-.671s.923-.789.702-1.215Z" fill="none" stroke="#0b0b0b" stroke-miterlimit="10" stroke-width=".25"/>
    <circle cx="463.362" cy="133.804" r="1.272" fill="none" stroke="#0b0b0b" stroke-miterlimit="10" stroke-width=".25"/>
    <path d="m471.965,133.267c0,.703-.57,1.272-1.272,1.272s-1.272-.57-1.272-1.272.57-1.272,1.272-1.272,1.272.57,1.272,1.272Z" fill="none" stroke="#0b0b0b" stroke-miterlimit="10" stroke-width=".25"/>
    <circle cx="476.092" cy="137.309" r="1.272" fill="none" stroke="#0b0b0b" stroke-miterlimit="10" stroke-width=".25"/>
    <circle cx="475.909" cy="144.413" r="1.272" fill="none" stroke="#0b0b0b" stroke-miterlimit="10" stroke-width=".25"/>
    <circle cx="472.445" cy="149.478" r="1.272" fill="none" stroke="#0b0b0b" stroke-miterlimit="10" stroke-width=".25"/>
    <circle cx="465.298" cy="150.091" r="1.272" fill="none" stroke="#0b0b0b" stroke-miterlimit="10" stroke-width=".25"/>
    <circle cx="459.666" cy="145.685" r="1.272" fill="none" stroke="#0b0b0b" stroke-miterlimit="10" stroke-width=".25"/>
    <circle cx="459.237" cy="139.119" r="1.272" fill="none" stroke="#0b0b0b" stroke-miterlimit="10" stroke-width=".25"/>
  </g>
  <polyline points="328.231 474.546 325.936 476.502 316.507 465.439 318.802 463.483 309.619 452.709 307.324 454.664 297.944 443.659 300.239 441.703 289.68 429.315 287.385 431.271 248.834 386.04 251.129 384.084 212.627 338.911 210.332 340.867 171.83 295.693 173.765 294.044" fill="none" stroke="#231f20" stroke-miterlimit="10" stroke-width=".256"/>
  <g>
    <g>
      <line x1="50.791" y1="438.425" x2="41.487" y2="432.043" fill="none" stroke="#221f1f" stroke-miterlimit="10" stroke-width=".5"/>
      <line x1="37.58" y1="429.222" x2="28.277" y2="422.84" fill="none" stroke="#221f1f" stroke-miterlimit="10" stroke-width=".5"/>
      <line x1="24.326" y1="420.129" x2="15.023" y2="413.747" fill="none" stroke="#221f1f" stroke-miterlimit="10" stroke-width=".5"/>
    </g>
    <line x1="10.615" y1="410.232" x2="1.311" y2="403.85" fill="none" stroke="#221f1f" stroke-miterlimit="10" stroke-width=".5"/>
  </g>
  <g>
    <path d="m109.511,362.743c2.366,2.167,3.893,4.351,3.41,4.879-.483.528-2.793-.801-5.16-2.967-2.366-2.167-3.893-4.351-3.41-4.879.483-.528,2.793.801,5.16,2.967Z" fill="#231f20" stroke-width="0"/>
    <path d="m133.678,384.838c2.366,2.167,3.893,4.351,3.41,4.879-.483.528-2.793-.801-5.16-2.967-2.366-2.167-3.893-4.351-3.41-4.879.483-.528,2.793.801,5.16,2.967Z" fill="#231f20" stroke-width="0"/>
    <path d="m157.344,406.453c2.366,2.167,3.893,4.351,3.41,4.879-.483.528-2.793-.801-5.16-2.967-2.366-2.167-3.893-4.351-3.41-4.879.483-.528,2.793.801,5.16,2.967Z" fill="#231f20" stroke-width="0"/>
    <path d="m183.115,430.017c2.366,2.167,3.893,4.351,3.41,4.879-.483.528-2.793-.801-5.16-2.967-2.366-2.167-3.893-4.351-3.41-4.879.483-.528,2.793.801,5.16,2.967Z" fill="#231f20" stroke-width="0"/>
  </g>
  <polyline points="45.181 141.105 41.152 144.532 32.894 134.82 36.923 131.394 28.88 121.936 24.851 125.362 16.636 115.702 20.665 112.275 11.417 101.401 7.388 104.827 -26.376 65.123 -22.347 61.697 -56.069 22.043 -60.098 25.469 -93.819 -14.185 -90.422 -17.073" fill="none" stroke="#231f20" stroke-miterlimit="10" stroke-width=".449"/>
  <g>
    <g>
      <line x1="380.029" y1="439.214" x2="375.404" y2="432.06" fill="none" stroke="#221f1f" stroke-miterlimit="10" stroke-width=".5"/>
      <line x1="373.526" y1="428.943" x2="368.9" y2="421.79" fill="none" stroke="#221f1f" stroke-miterlimit="10" stroke-width=".5"/>
      <line x1="366.936" y1="418.752" x2="362.311" y2="411.598" fill="none" stroke="#221f1f" stroke-miterlimit="10" stroke-width=".5"/>
    </g>
    <g>
      <g>
        <line x1="359.369" y1="406.207" x2="354.743" y2="399.053" fill="none" stroke="#221f1f" stroke-miterlimit="10" stroke-width=".5"/>
        <line x1="352.779" y1="396.015" x2="348.154" y2="388.861" fill="none" stroke="#221f1f" stroke-miterlimit="10" stroke-width=".5"/>
        <line x1="346.276" y1="385.744" x2="341.65" y2="378.591" fill="none" stroke="#221f1f" stroke-miterlimit="10" stroke-width=".5"/>
        <line x1="339.686" y1="375.553" x2="335.061" y2="368.399" fill="none" stroke="#221f1f" stroke-miterlimit="10" stroke-width=".5"/>
      </g>
      <g>
        <line x1="333.095" y1="364.615" x2="328.47" y2="357.461" fill="none" stroke="#221f1f" stroke-miterlimit="10" stroke-width=".5"/>
        <line x1="326.506" y1="354.423" x2="321.88" y2="347.27" fill="none" stroke="#221f1f" stroke-miterlimit="10" stroke-width=".5"/>
        <line x1="320.002" y1="344.153" x2="315.377" y2="336.999" fill="none" stroke="#221f1f" stroke-miterlimit="10" stroke-width=".5"/>
        <line x1="313.412" y1="333.961" x2="308.787" y2="326.808" fill="none" stroke="#221f1f" stroke-miterlimit="10" stroke-width=".5"/>
      </g>
    </g>
  </g>
  <g>
    <g>
      <line x1="159.754" y1="102.452" x2="151.766" y2="90.177" fill="none" stroke="#221f1f" stroke-miterlimit="10" stroke-width=".5"/>
      <line x1="148.374" y1="84.964" x2="140.387" y2="72.689" fill="none" stroke="#221f1f" stroke-miterlimit="10" stroke-width=".5"/>
      <line x1="137.073" y1="67.386" x2="129.085" y2="55.111" fill="none" stroke="#221f1f" stroke-miterlimit="10" stroke-width=".5"/>
      <line x1="125.693" y1="49.898" x2="117.706" y2="37.623" fill="none" stroke="#221f1f" stroke-miterlimit="10" stroke-width=".5"/>
    </g>
    <g>
      <line x1="114.064" y1="31.285" x2="106.076" y2="19.01" fill="none" stroke="#221f1f" stroke-miterlimit="10" stroke-width=".5"/>
      <line x1="102.684" y1="13.797" x2="94.697" y2="1.522" fill="none" stroke="#221f1f" stroke-miterlimit="10" stroke-width=".5"/>
    </g>
  </g>
  <g>
    <g>
      <path d="m431.734,391.844c-6.199-13.229-9.408-20.077-9.408-20.077" fill="none" stroke="#231f20" stroke-miterlimit="10" stroke-width=".188"/>
      <path d="m430.049,392.634c-6.199-13.229-9.408-20.077-9.408-20.077" fill="none" stroke="#231f20" stroke-miterlimit="10" stroke-width=".188"/>
      <path d="m419.719,366.204c-6.199-13.229-9.408-20.077-9.408-20.077" fill="none" stroke="#231f20" stroke-miterlimit="10" stroke-width=".188"/>
      <path d="m418.034,366.994c-6.199-13.229-9.408-20.077-9.408-20.077" fill="none" stroke="#231f20" stroke-miterlimit="10" stroke-width=".188"/>
      <path d="m407.319,339.743c-6.199-13.229-9.408-20.077-9.408-20.077" fill="none" stroke="#231f20" stroke-miterlimit="10" stroke-width=".188"/>
      <path d="m405.634,340.532c-6.199-13.229-9.408-20.077-9.408-20.077" fill="none" stroke="#231f20" stroke-miterlimit="10" stroke-width=".188"/>
      <path d="m395.304,314.103c-6.199-13.229-9.408-20.077-9.408-20.077" fill="none" stroke="#231f20" stroke-miterlimit="10" stroke-width=".188"/>
      <path d="m393.619,314.892c-6.199-13.229-9.408-20.077-9.408-20.077" fill="none" stroke="#231f20" stroke-miterlimit="10" stroke-width=".188"/>
    </g>
    <g>
      <path d="m422.973,384.67c-6.199-13.229-9.408-20.077-9.408-20.077" fill="none" stroke="#231f20" stroke-miterlimit="10" stroke-width=".188"/>
      <path d="m421.288,385.46c-6.199-13.229-9.408-20.077-9.408-20.077" fill="none" stroke="#231f20" stroke-miterlimit="10" stroke-width=".188"/>
      <path d="m410.958,359.03c-6.199-13.229-9.408-20.077-9.408-20.077" fill="none" stroke="#231f20" stroke-miterlimit="10" stroke-width=".188"/>
      <path d="m409.273,359.82c-6.199-13.229-9.408-20.077-9.408-20.077" fill="none" stroke="#231f20" stroke-miterlimit="10" stroke-width=".188"/>
      <path d="m398.558,332.568c-6.199-13.229-9.408-20.077-9.408-20.077" fill="none" stroke="#231f20" stroke-miterlimit="10" stroke-width=".188"/>
      <path d="m396.873,333.358c-6.199-13.229-9.408-20.077-9.408-20.077" fill="none" stroke="#231f20" stroke-miterlimit="10" stroke-width=".188"/>
      <path d="m386.543,306.928c-6.199-13.229-9.408-20.077-9.408-20.077" fill="none" stroke="#231f20" stroke-miterlimit="10" stroke-width=".188"/>
      <path d="m384.858,307.718c-6.199-13.229-9.408-20.077-9.408-20.077" fill="none" stroke="#231f20" stroke-miterlimit="10" stroke-width=".188"/>
    </g>
  </g>
  <g>
    <g>
      <path d="m277.199,70.405c-7.76-16.256-11.778-24.672-11.778-24.672" fill="none" stroke="#231f20" stroke-miterlimit="10" stroke-width=".188"/>
      <path d="m275.52,71.207c-7.76-16.257-11.778-24.672-11.778-24.672" fill="none" stroke="#231f20" stroke-miterlimit="10" stroke-width=".188"/>
      <path d="m262.158,38.896c-7.76-16.257-11.778-24.672-11.778-24.672" fill="none" stroke="#231f20" stroke-miterlimit="10" stroke-width=".188"/>
      <path d="m260.478,39.698c-7.76-16.256-11.778-24.672-11.778-24.672" fill="none" stroke="#231f20" stroke-miterlimit="10" stroke-width=".188"/>
      <path d="m246.635,6.378c-7.76-16.257-11.778-24.672-11.778-24.672" fill="none" stroke="#231f20" stroke-miterlimit="10" stroke-width=".188"/>
      <path d="m244.955,7.18c-7.76-16.256-11.778-24.672-11.778-24.672" fill="none" stroke="#231f20" stroke-miterlimit="10" stroke-width=".188"/>
    </g>
    <g>
      <path d="m267.362,61.146c-7.76-16.257-11.778-24.672-11.778-24.672" fill="none" stroke="#231f20" stroke-miterlimit="10" stroke-width=".188"/>
      <path d="m265.682,61.947c-7.76-16.256-11.778-24.672-11.778-24.672" fill="none" stroke="#231f20" stroke-miterlimit="10" stroke-width=".188"/>
      <path d="m252.32,29.637c-7.76-16.256-11.778-24.672-11.778-24.672" fill="none" stroke="#231f20" stroke-miterlimit="10" stroke-width=".188"/>
      <path d="m250.641,30.438c-7.76-16.257-11.778-24.672-11.778-24.672" fill="none" stroke="#231f20" stroke-miterlimit="10" stroke-width=".188"/>
    </g>
  </g>
  <g>
    <rect x="-1044.473" y="-394.288" width="3386.58" height="2514.089" transform="translate(-213.939 1511.574) rotate(-90)" fill="none" stroke="#231f20" stroke-linecap="round" stroke-miterlimit="10" stroke-width="7"/>
    <rect x="-1027.506" y="-377.166" width="3353.392" height="2482.402" transform="translate(-214.845 1513.225) rotate(-90)" fill="none" stroke="#231f20" stroke-linecap="round" stroke-miterlimit="10" stroke-width="3"/>
    <rect x="-989.031" y="-341.548" width="3275.615" height="2412.095" transform="translate(-215.722 1513.276) rotate(-90)" fill="none" stroke="#231f20" stroke-linecap="round" stroke-miterlimit="10"/>
    <rect x="-971.163" y="-324.185" width="3239.88" height="2376.261" transform="translate(-215.169 1512.723) rotate(-90)" fill="none" stroke="#231f20" stroke-linecap="round" stroke-miterlimit="10"/>
  </g>
  <g>
    <path d="m512.816,430.58c.617-.206,1.284.127,1.49.744s-.127,1.284-.744,1.49c-.617.206-1.284-.127-1.49-.744-.206-.617.127-1.284.744-1.49Z" fill="#231f20" stroke-width="0"/>
    <path d="m511.303,426.053c.617-.206,1.284.127,1.49.744.206.617-.127,1.284-.744,1.49s-1.284-.127-1.49-.744c-.206-.617.127-1.284.744-1.49Z" fill="#231f20" stroke-width="0"/>
    <path d="m509.791,421.526c.617-.206,1.284.127,1.49.744.206.617-.127,1.284-.744,1.49-.617.206-1.284-.127-1.49-.744-.206-.617.127-1.284.744-1.49Z" fill="#231f20" stroke-width="0"/>
    <path d="m508.278,416.999c.617-.206,1.284.127,1.49.744.206.617-.127,1.284-.744,1.49-.617.206-1.284-.127-1.49-.744-.206-.617.127-1.284.744-1.49Z" fill="#231f20" stroke-width="0"/>
    <path d="m506.765,412.471c.617-.206,1.284.127,1.49.744.206.617-.127,1.284-.744,1.49-.617.206-1.284-.127-1.49-.744-.206-.617.127-1.284.744-1.49Z" fill="#231f20" stroke-width="0"/>
    <path d="m505.252,407.944c.617-.206,1.284.127,1.49.744.206.617-.127,1.284-.744,1.49-.617.206-1.284-.127-1.49-.744-.206-.617.127-1.284.744-1.49Z" fill="#231f20" stroke-width="0"/>
    <path d="m503.74,403.417c.617-.206,1.284.127,1.49.744.206.617-.127,1.284-.744,1.49-.617.206-1.284-.127-1.49-.744-.206-.617.127-1.284.744-1.49Z" fill="#231f20" stroke-width="0"/>
    <path d="m502.227,398.889c.617-.206,1.284.127,1.49.744.206.617-.127,1.284-.744,1.49-.617.206-1.284-.127-1.49-.744-.206-.617.127-1.284.744-1.49Z" fill="#231f20" stroke-width="0"/>
    <path d="m500.714,394.362c.617-.206,1.284.127,1.49.744s-.127,1.284-.744,1.49c-.617.206-1.284-.127-1.49-.744-.206-.617.127-1.284.744-1.49Z" fill="#231f20" stroke-width="0"/>
    <path d="m499.201,389.835c.617-.206,1.284.127,1.49.744.206.617-.127,1.284-.744,1.49-.617.206-1.284-.127-1.49-.744-.206-.617.127-1.284.744-1.49Z" fill="#231f20" stroke-width="0"/>
    <path d="m497.689,385.308c.617-.206,1.284.127,1.49.744.206.617-.127,1.284-.744,1.49-.617.206-1.284-.127-1.49-.744-.206-.617.127-1.284.744-1.49Z" fill="#231f20" stroke-width="0"/>
    <path d="m496.176,380.78c.617-.206,1.284.127,1.49.744.206.617-.127,1.284-.744,1.49-.617.206-1.284-.127-1.49-.744-.206-.617.127-1.284.744-1.49Z" fill="#231f20" stroke-width="0"/>
    <path d="m494.663,376.253c.617-.206,1.284.127,1.49.744.206.617-.127,1.284-.744,1.49-.617.206-1.284-.127-1.49-.744-.206-.617.127-1.284.744-1.49Z" fill="#231f20" stroke-width="0"/>
    <path d="m493.151,371.726c.617-.206,1.284.127,1.49.744.206.617-.127,1.284-.744,1.49-.617.206-1.284-.127-1.49-.744-.206-.617.127-1.284.744-1.49Z" fill="#231f20" stroke-width="0"/>
    <path d="m491.638,367.198c.617-.206,1.284.127,1.49.744.206.617-.127,1.284-.744,1.49-.617.206-1.284-.127-1.49-.744-.206-.617.127-1.284.744-1.49Z" fill="#231f20" stroke-width="0"/>
    <path d="m490.125,362.671c.617-.206,1.284.127,1.49.744.206.617-.127,1.284-.744,1.49-.617.206-1.284-.127-1.49-.744-.206-.617.127-1.284.744-1.49Z" fill="#231f20" stroke-width="0"/>
    <path d="m488.612,358.144c.617-.206,1.284.127,1.49.744s-.127,1.284-.744,1.49-1.284-.127-1.49-.744c-.206-.617.127-1.284.744-1.49Z" fill="#231f20" stroke-width="0"/>
    <path d="m487.1,353.616c.617-.206,1.284.127,1.49.744.206.617-.127,1.284-.744,1.49-.617.206-1.284-.127-1.49-.744-.206-.617.127-1.284.744-1.49Z" fill="#231f20" stroke-width="0"/>
    <path d="m485.587,349.089c.617-.206,1.284.127,1.49.744.206.617-.127,1.284-.744,1.49-.617.206-1.284-.127-1.49-.744-.206-.617.127-1.284.744-1.49Z" fill="#231f20" stroke-width="0"/>
    <path d="m484.074,344.562c.617-.206,1.284.127,1.49.744.206.617-.127,1.284-.744,1.49-.617.206-1.284-.127-1.49-.744-.206-.617.127-1.284.744-1.49Z" fill="#231f20" stroke-width="0"/>
    <path d="m482.561,340.035c.617-.206,1.284.127,1.49.744.206.617-.127,1.284-.744,1.49s-1.284-.127-1.49-.744c-.206-.617.127-1.284.744-1.49Z" fill="#231f20" stroke-width="0"/>
    <path d="m481.049,335.507c.617-.206,1.284.127,1.49.744.206.617-.127,1.284-.744,1.49-.617.206-1.284-.127-1.49-.744-.206-.617.127-1.284.744-1.49Z" fill="#231f20" stroke-width="0"/>
    <path d="m479.536,330.98c.617-.206,1.284.127,1.49.744.206.617-.127,1.284-.744,1.49-.617.206-1.284-.127-1.49-.744-.206-.617.127-1.284.744-1.49Z" fill="#231f20" stroke-width="0"/>
    <path d="m478.023,326.453c.617-.206,1.284.127,1.49.744.206.617-.127,1.284-.744,1.49-.617.206-1.284-.127-1.49-.744-.206-.617.127-1.284.744-1.49Z" fill="#231f20" stroke-width="0"/>
    <path d="m476.511,321.925c.617-.206,1.284.127,1.49.744s-.127,1.284-.744,1.49-1.284-.127-1.49-.744c-.206-.617.127-1.284.744-1.49Z" fill="#231f20" stroke-width="0"/>
    <path d="m474.998,317.398c.617-.206,1.284.127,1.49.744.206.617-.127,1.284-.744,1.49-.617.206-1.284-.127-1.49-.744-.206-.617.127-1.284.744-1.49Z" fill="#231f20" stroke-width="0"/>
    <path d="m473.485,312.871c.617-.206,1.284.127,1.49.744.206.617-.127,1.284-.744,1.49-.617.206-1.284-.127-1.49-.744-.206-.617.127-1.284.744-1.49Z" fill="#231f20" stroke-width="0"/>
    <path d="m471.972,308.343c.617-.206,1.284.127,1.49.744.206.617-.127,1.284-.744,1.49-.617.206-1.284-.127-1.49-.744s.127-1.284.744-1.49Z" fill="#231f20" stroke-width="0"/>
    <path d="m470.46,303.816c.617-.206,1.284.127,1.49.744.206.617-.127,1.284-.744,1.49-.617.206-1.284-.127-1.49-.744-.206-.617.127-1.284.744-1.49Z" fill="#231f20" stroke-width="0"/>
    <path d="m468.947,299.289c.617-.206,1.284.127,1.49.744.206.617-.127,1.284-.744,1.49-.617.206-1.284-.127-1.49-.744-.206-.617.127-1.284.744-1.49Z" fill="#231f20" stroke-width="0"/>
    <path d="m467.434,294.761c.617-.206,1.284.127,1.49.744.206.617-.127,1.284-.744,1.49-.617.206-1.284-.127-1.49-.744-.206-.617.127-1.284.744-1.49Z" fill="#231f20" stroke-width="0"/>
    <path d="m465.921,290.234c.617-.206,1.284.127,1.49.744.206.617-.127,1.284-.744,1.49-.617.206-1.284-.127-1.49-.744-.206-.617.127-1.284.744-1.49Z" fill="#231f20" stroke-width="0"/>
    <path d="m464.409,285.707c.617-.206,1.284.127,1.49.744.206.617-.127,1.284-.744,1.49-.617.206-1.284-.127-1.49-.744-.206-.617.127-1.284.744-1.49Z" fill="#231f20" stroke-width="0"/>
    <path d="m462.896,281.18c.617-.206,1.284.127,1.49.744.206.617-.127,1.284-.744,1.49-.617.206-1.284-.127-1.49-.744-.206-.617.127-1.284.744-1.49Z" fill="#231f20" stroke-width="0"/>
    <path d="m461.383,276.652c.617-.206,1.284.127,1.49.744.206.617-.127,1.284-.744,1.49-.617.206-1.284-.127-1.49-.744-.206-.617.127-1.284.744-1.49Z" fill="#231f20" stroke-width="0"/>
    <path d="m459.87,272.125c.617-.206,1.284.127,1.49.744s-.127,1.284-.744,1.49c-.617.206-1.284-.127-1.49-.744s.127-1.284.744-1.49Z" fill="#231f20" stroke-width="0"/>
    <path d="m458.358,267.598c.617-.206,1.284.127,1.49.744.206.617-.127,1.284-.744,1.49-.617.206-1.284-.127-1.49-.744-.206-.617.127-1.284.744-1.49Z" fill="#231f20" stroke-width="0"/>
    <path d="m456.845,263.07c.617-.206,1.284.127,1.49.744.206.617-.127,1.284-.744,1.49-.617.206-1.284-.127-1.49-.744-.206-.617.127-1.284.744-1.49Z" fill="#231f20" stroke-width="0"/>
    <path d="m455.332,258.543c.617-.206,1.284.127,1.49.744.206.617-.127,1.284-.744,1.49-.617.206-1.284-.127-1.49-.744-.206-.617.127-1.284.744-1.49Z" fill="#231f20" stroke-width="0"/>
    <path d="m453.82,254.016c.617-.206,1.284.127,1.49.744.206.617-.127,1.284-.744,1.49s-1.284-.127-1.49-.744c-.206-.617.127-1.284.744-1.49Z" fill="#231f20" stroke-width="0"/>
    <path d="m452.307,249.489c.617-.206,1.284.127,1.49.744.206.617-.127,1.284-.744,1.49-.617.206-1.284-.127-1.49-.744-.206-.617.127-1.284.744-1.49Z" fill="#231f20" stroke-width="0"/>
    <path d="m450.794,244.961c.617-.206,1.284.127,1.49.744.206.617-.127,1.284-.744,1.49-.617.206-1.284-.127-1.49-.744-.206-.617.127-1.284.744-1.49Z" fill="#231f20" stroke-width="0"/>
    <path d="m449.281,240.434c.617-.206,1.284.127,1.49.744.206.617-.127,1.284-.744,1.49-.617.206-1.284-.127-1.49-.744-.206-.617.127-1.284.744-1.49Z" fill="#231f20" stroke-width="0"/>
    <path d="m447.769,235.907c.617-.206,1.284.127,1.49.744s-.127,1.284-.744,1.49-1.284-.127-1.49-.744c-.206-.617.127-1.284.744-1.49Z" fill="#231f20" stroke-width="0"/>
    <path d="m446.256,231.379c.617-.206,1.284.127,1.49.744.206.617-.127,1.284-.744,1.49-.617.206-1.284-.127-1.49-.744-.206-.617.127-1.284.744-1.49Z" fill="#231f20" stroke-width="0"/>
    <path d="m444.743,226.852c.617-.206,1.284.127,1.49.744.206.617-.127,1.284-.744,1.49-.617.206-1.284-.127-1.49-.744-.206-.617.127-1.284.744-1.49Z" fill="#231f20" stroke-width="0"/>
    <path d="m443.23,222.325c.617-.206,1.284.127,1.49.744.206.617-.127,1.284-.744,1.49-.617.206-1.284-.127-1.49-.744-.206-.617.127-1.284.744-1.49Z" fill="#231f20" stroke-width="0"/>
    <path d="m441.718,217.797c.617-.206,1.284.127,1.49.744.206.617-.127,1.284-.744,1.49s-1.284-.127-1.49-.744c-.206-.617.127-1.284.744-1.49Z" fill="#231f20" stroke-width="0"/>
    <path d="m440.205,213.27c.617-.206,1.284.127,1.49.744.206.617-.127,1.284-.744,1.49-.617.206-1.284-.127-1.49-.744-.206-.617.127-1.284.744-1.49Z" fill="#231f20" stroke-width="0"/>
  </g>
  <g>
    <path d="m386.548,51.608c.617-.207,1.285.125,1.491.742s-.125,1.284-.742,1.491c-.617.207-1.284-.125-1.491-.742-.207-.617.125-1.284.742-1.491Z" fill="#231f20" stroke-width="0"/>
    <path d="m385.046,47.129c.617-.207,1.284.125,1.491.742.207.617-.125,1.284-.742,1.491-.617.207-1.284-.125-1.491-.742-.207-.617.125-1.284.742-1.491Z" fill="#231f20" stroke-width="0"/>
    <path d="m383.544,42.65c.617-.207,1.284.125,1.491.742.207.617-.125,1.284-.742,1.491-.617.207-1.284-.125-1.491-.742-.207-.617.125-1.284.742-1.491Z" fill="#231f20" stroke-width="0"/>
    <path d="m382.042,38.171c.617-.207,1.284.125,1.491.742.207.617-.125,1.284-.742,1.491-.617.207-1.285-.125-1.491-.742-.207-.617.125-1.284.742-1.491Z" fill="#231f20" stroke-width="0"/>
    <path d="m380.54,33.692c.617-.207,1.284.125,1.491.742.207.617-.125,1.284-.742,1.491-.617.207-1.284-.125-1.491-.742-.207-.617.125-1.284.742-1.491Z" fill="#231f20" stroke-width="0"/>
    <path d="m379.037,29.213c.617-.207,1.284.125,1.491.742.207.617-.125,1.284-.742,1.491-.617.207-1.284-.125-1.491-.742-.207-.617.125-1.284.742-1.491Z" fill="#231f20" stroke-width="0"/>
    <path d="m377.535,24.734c.617-.207,1.284.125,1.491.742.207.617-.125,1.284-.742,1.491-.617.207-1.284-.125-1.491-.742-.207-.617.125-1.284.742-1.491Z" fill="#231f20" stroke-width="0"/>
    <path d="m376.033,20.255c.617-.207,1.284.125,1.491.742.207.617-.125,1.284-.742,1.491-.617.207-1.284-.125-1.491-.742s.125-1.284.742-1.491Z" fill="#231f20" stroke-width="0"/>
    <path d="m374.531,15.776c.617-.207,1.284.125,1.491.742.207.617-.125,1.284-.742,1.491-.617.207-1.284-.125-1.491-.742-.207-.617.125-1.284.742-1.491Z" fill="#231f20" stroke-width="0"/>
    <path d="m373.029,11.297c.617-.207,1.284.125,1.491.742.207.617-.125,1.284-.742,1.491-.617.207-1.284-.125-1.491-.742-.207-.617.125-1.284.742-1.491Z" fill="#231f20" stroke-width="0"/>
    <path d="m371.527,6.818c.617-.207,1.284.125,1.491.742s-.125,1.284-.742,1.491-1.284-.125-1.491-.742.125-1.284.742-1.491Z" fill="#231f20" stroke-width="0"/>
    <path d="m370.025,2.339c.617-.207,1.284.125,1.491.742s-.125,1.284-.742,1.491-1.284-.125-1.491-.742.125-1.284.742-1.491Z" fill="#231f20" stroke-width="0"/>
    <path d="m368.523-2.14c.617-.207,1.284.125,1.491.742s-.125,1.284-.742,1.491c-.617.207-1.284-.125-1.491-.742-.207-.617.125-1.284.742-1.491Z" fill="#231f20" stroke-width="0"/>
  </g>
  <g>
    <path d="m616.876,253.201c.204,2.95-.21,5.382-.924,5.432-.714.049-1.458-2.302-1.662-5.253-.204-2.95.21-5.382.924-5.431s1.458,2.302,1.662,5.253Z" fill="#231f20" stroke-width="0"/>
    <path d="m618.979,283.312c.204,2.95-.21,5.382-.924,5.431-.714.049-1.458-2.302-1.662-5.253-.204-2.95.21-5.382.924-5.431.714-.049,1.458,2.302,1.662,5.253Z" fill="#231f20" stroke-width="0"/>
    <path d="m621.193,314.783c.204,2.95-.21,5.382-.924,5.431s-1.458-2.302-1.662-5.253c-.204-2.95.21-5.382.924-5.431s1.458,2.302,1.662,5.253Z" fill="#231f20" stroke-width="0"/>
    <path d="m623.533,348.324c.204,2.95-.21,5.382-.924,5.432-.714.049-1.458-2.302-1.661-5.253-.204-2.95.21-5.382.924-5.431s1.458,2.302,1.662,5.253Z" fill="#231f20" stroke-width="0"/>
    <path d="m608.307,130.994c.204,2.95-.21,5.382-.924,5.431-.714.049-1.458-2.302-1.662-5.253-.204-2.95.21-5.382.924-5.431s1.458,2.302,1.662,5.253Z" fill="#231f20" stroke-width="0"/>
    <path d="m610.41,161.104c.204,2.95-.21,5.382-.924,5.431s-1.458-2.302-1.662-5.253c-.204-2.95.21-5.382.924-5.431.714-.049,1.458,2.302,1.662,5.253Z" fill="#231f20" stroke-width="0"/>
    <path d="m612.485,190.575c.204,2.95-.21,5.382-.924,5.431-.714.049-1.458-2.302-1.662-5.253-.204-2.95.21-5.382.924-5.431.714-.049,1.458,2.302,1.662,5.253Z" fill="#231f20" stroke-width="0"/>
    <path d="m614.727,222.686c.204,2.95-.21,5.382-.924,5.432s-1.458-2.302-1.662-5.253c-.204-2.95.21-5.382.924-5.431s1.458,2.302,1.662,5.253Z" fill="#231f20" stroke-width="0"/>
  </g>
  <path d="m628.754,432.89c.052.994-.486,1.83-1.201,1.867-.715.037-1.336-.739-1.387-1.733-.052-.994.486-1.83,1.201-1.867s1.336.739,1.387,1.733Z" fill="#231f20" stroke-width="0"/>
  <g>
    <line x1="521.059" y1="180.388" x2="534.109" y2="247.088" fill="none" stroke="#231f20" stroke-miterlimit="10" stroke-width=".25"/>
    <line x1="529.184" y1="213.112" x2="525.771" y2="213.78" fill="none" stroke="#231f20" stroke-miterlimit="10" stroke-width=".25"/>
    <line x1="530.257" y1="221.354" x2="527.865" y2="221.822" fill="none" stroke="#231f20" stroke-miterlimit="10" stroke-width=".25"/>
    <line x1="531.987" y1="230.199" x2="529.596" y2="230.667" fill="none" stroke="#231f20" stroke-miterlimit="10" stroke-width=".25"/>
    <line x1="533.602" y1="238.453" x2="531.211" y2="238.92" fill="none" stroke="#231f20" stroke-miterlimit="10" stroke-width=".25"/>
    <line x1="527.076" y1="205.096" x2="524.685" y2="205.564" fill="none" stroke="#231f20" stroke-miterlimit="10" stroke-width=".25"/>
    <line x1="525.46" y1="196.84" x2="523.069" y2="197.308" fill="none" stroke="#231f20" stroke-miterlimit="10" stroke-width=".25"/>
    <line x1="523.867" y1="188.694" x2="521.475" y2="189.162" fill="none" stroke="#231f20" stroke-miterlimit="10" stroke-width=".25"/>
    <line x1="522.709" y1="180.065" x2="519.295" y2="180.733" fill="none" stroke="#231f20" stroke-miterlimit="10" stroke-width=".25"/>
    <line x1="535.784" y1="246.592" x2="532.37" y2="247.26" fill="none" stroke="#231f20" stroke-miterlimit="10" stroke-width=".25"/>
  </g>
  <g>
    <line x1="547.976" y1="313.527" x2="573.351" y2="444.027" fill="none" stroke="#231f20" stroke-miterlimit="10" stroke-width=".25"/>
    <line x1="562.209" y1="377.864" x2="558.794" y2="378.528" fill="none" stroke="#231f20" stroke-miterlimit="10" stroke-width=".25"/>
    <line x1="564.785" y1="393.892" x2="562.394" y2="394.357" fill="none" stroke="#231f20" stroke-miterlimit="10" stroke-width=".25"/>
    <line x1="568.15" y1="411.198" x2="565.759" y2="411.663" fill="none" stroke="#231f20" stroke-miterlimit="10" stroke-width=".25"/>
    <line x1="571.29" y1="427.345" x2="568.898" y2="427.81" fill="none" stroke="#231f20" stroke-miterlimit="10" stroke-width=".25"/>
    <line x1="558.6" y1="362.083" x2="556.209" y2="362.548" fill="none" stroke="#231f20" stroke-miterlimit="10" stroke-width=".25"/>
    <line x1="555.459" y1="345.928" x2="553.067" y2="346.394" fill="none" stroke="#231f20" stroke-miterlimit="10" stroke-width=".25"/>
    <line x1="552.36" y1="329.992" x2="549.968" y2="330.457" fill="none" stroke="#231f20" stroke-miterlimit="10" stroke-width=".25"/>
    <line x1="549.627" y1="313.206" x2="546.212" y2="313.87" fill="none" stroke="#231f20" stroke-miterlimit="10" stroke-width=".25"/>
  </g>
  <g>
    <line x1="474.172" y1="-63.633" x2="487.222" y2="3.067" fill="none" stroke="#231f20" stroke-miterlimit="10" stroke-width=".25"/>
    <line x1="488.898" y1="2.571" x2="485.484" y2="3.239" fill="none" stroke="#231f20" stroke-miterlimit="10" stroke-width=".25"/>
  </g>
</svg>