<?xml version="1.0" encoding="UTF-8"?>
<svg id="a" data-name="Layer 1" xmlns="http://www.w3.org/2000/svg" width="9.002in" height="6.002in" viewBox="0 0 648.177 432.177">
  <g opacity=".75">
    <g>
      <g>
        <path d="m15.868,426.4c-.154,18.385-2.555,35.64-6.99,51.174-.559,1.94-1.069,3.876-1.653,5.772-.633,1.88-1.26,3.744-1.882,5.591-.31.924-.619,1.843-.927,2.759-.352.899-.703,1.794-1.053,2.685-.698,1.782-1.39,3.547-2.075,5.297-.706,1.741-1.517,3.418-2.258,5.106-.778,1.671-1.453,3.372-2.294,4.974-.821,1.612-1.634,3.208-2.438,4.788-.402.79-.802,1.577-1.2,2.359-.435.762-.868,1.521-1.299,2.276-6.79,12.139-14.321,22.539-21.904,31.361-7.595,8.821-15.209,16.101-22.371,22.112-14.456,11.898-26.807,18.93-35.19,23.199-1.048.54-2.031,1.047-2.948,1.52-.917.475-1.807.837-2.609,1.214-1.613.733-2.959,1.345-4.036,1.835-1.08.485-1.882.871-2.432,1.093-.551.218-.828.328-.828.328" fill="none" stroke="#231f20" stroke-miterlimit="10" stroke-width=".25"/>
        <path d="m18.35,426.4c-.153,18.619-2.589,36.1-7.08,51.837-.566,1.965-1.083,3.927-1.675,5.847-.641,1.905-1.276,3.793-1.906,5.664-.315.936-.628,1.867-.939,2.795-.357.911-.712,1.818-1.066,2.72-.708,1.805-1.409,3.594-2.103,5.366-.715,1.763-1.536,3.463-2.287,5.173-.788,1.693-1.473,3.415-2.325,5.039-.831,1.633-1.655,3.25-2.47,4.851-.407.801-.813,1.597-1.216,2.39-.441.772-.88,1.541-1.316,2.306-6.878,12.297-14.508,22.833-22.19,31.77-7.694,8.936-15.407,16.31-22.663,22.399-14.644,12.054-27.158,19.178-35.652,23.504-1.062.547-2.058,1.06-2.988,1.54-.929.481-1.831.848-2.643,1.231-1.634.743-2.998,1.363-4.09,1.86-1.094.491-1.907.882-2.464,1.107-.559.221-.839.332-.839.332" fill="none" stroke="#231f20" stroke-miterlimit="10" stroke-width=".25"/>
      </g>
      <g>
        <path d="m-98.003,244.946c17.516,7.4,32.922,16.768,45.959,27.207,13.137,10.337,23.913,21.705,32.759,33.03,8.854,11.337,15.749,22.69,21.099,33.467,5.357,10.784,9.171,20.988,12.043,30.221,5.514,18.565,7.235,33.166,7.932,42.872.454,4.86.418,8.533.506,10.98.061,2.448.092,3.678.092,3.678" fill="none" stroke="#231f20" stroke-miterlimit="10" stroke-width=".25"/>
        <path d="m-97.046,242.657c17.741,7.494,33.342,16.983,46.544,27.552,13.303,10.468,24.214,21.978,33.172,33.446,8.966,11.479,15.947,22.976,21.365,33.889,5.425,10.921,9.288,21.254,12.195,30.604,5.585,18.8,7.327,33.585,8.033,43.412.458,4.921.424,8.639.512,11.116.061,2.479.092,3.723.092,3.723" fill="none" stroke="#231f20" stroke-miterlimit="10" stroke-width=".25"/>
      </g>
    </g>
    <g>
      <g>
        <path d="m59.728,427.32c-.191,22.677-3.127,43.965-8.566,63.136-.683,2.395-1.32,4.781-2.024,7.124-.777,2.32-1.548,4.62-2.312,6.9-.381,1.14-.761,2.275-1.139,3.405-.43,1.111-.859,2.216-1.285,3.317-.858,2.199-1.708,4.379-2.55,6.538-.85,2.156-1.859,4.222-2.766,6.307-.952,2.065-1.796,4.157-2.811,6.144-1.009,1.99-2.008,3.96-2.997,5.911-.494.976-.986,1.947-1.475,2.913-.512.954-1.063,1.881-1.588,2.815-8.334,14.997-17.582,27.855-26.899,38.767-9.335,10.908-18.682,19.934-27.506,27.361-17.771,14.747-32.991,23.45-43.311,28.751-1.291.668-2.502,1.296-3.633,1.881-1.121.607-2.225,1.041-3.21,1.513-1.988.908-3.647,1.666-4.975,2.272-1.329.604-2.327,1.059-2.993,1.361-.68.271-1.02.406-1.02.406" fill="none" stroke="#231f20" stroke-miterlimit="10" stroke-width=".25"/>
        <path d="m62.21,427.32c-.191,22.91-3.16,44.421-8.655,63.795-.69,2.42-1.335,4.831-2.046,7.199-.785,2.345-1.564,4.67-2.336,6.973-.386,1.152-.769,2.299-1.152,3.44-.435,1.123-.867,2.24-1.298,3.352-.867,2.223-1.726,4.425-2.578,6.607-.859,2.178-1.878,4.267-2.795,6.374-.962,2.087-1.815,4.201-2.841,6.209-1.019,2.011-2.029,4.002-3.028,5.974-.5.986-.997,1.967-1.491,2.943-.518.964-1.073,1.901-1.604,2.845-8.421,15.155-17.768,28.148-27.182,39.176-9.433,11.023-18.88,20.144-27.797,27.65-17.959,14.904-33.343,23.7-43.773,29.059-1.305.676-2.529,1.309-3.673,1.901-1.133.613-2.248,1.053-3.245,1.529-2.009.918-3.686,1.684-5.028,2.297-1.343.611-2.352,1.07-3.026,1.376-.687.274-1.031.411-1.031.411" fill="none" stroke="#231f20" stroke-miterlimit="10" stroke-width=".25"/>
        <path d="m-207.554,195.152c5.623-.685,11.14-1.561,16.632-1.853,1.37-.105,2.734-.21,4.093-.315l2.034-.157c.677-.04,1.356-.041,2.032-.063,2.704-.069,5.387-.138,8.048-.206l1.992-.052,1.984.046c1.32.034,2.635.068,3.944.101,1.309.033,2.613.066,3.912.099,1.299.023,2.592.058,3.875.183,5.134.425,10.199.669,15.126,1.419,2.467.333,4.923.595,7.338.977,2.407.435,4.793.865,7.158,1.293,1.182.213,2.36.425,3.532.636,1.16.27,2.314.538,3.463.806,2.298.536,4.575,1.067,6.831,1.592,2.253.538,4.439,1.245,6.63,1.849,2.177.652,4.367,1.192,6.476,1.917,2.11.722,4.199,1.436,6.268,2.144,1.035.353,2.064.705,3.088,1.055,1.019.365,2.009.79,3.008,1.179,15.999,6.172,29.989,13.591,42.053,21.352,12.058,7.784,22.263,15.83,30.788,23.599,16.997,15.634,27.659,29.56,34.328,39.058,3.435,4.7,5.63,8.495,7.231,10.938.783,1.233,1.371,2.159,1.763,2.777.362.636.544.955.544.955" fill="none" stroke="#231f20" stroke-miterlimit="10" stroke-width=".25"/>
        <path d="m-207.928,192.699c5.683-.694,11.26-1.577,16.811-1.874,1.384-.106,2.763-.213,4.137-.318l2.056-.158c.685-.041,1.37-.041,2.053-.064,2.733-.07,5.444-.139,8.134-.208l2.013-.052,2.005.046c1.334.034,2.663.068,3.986.102,1.323.034,2.641.067,3.953.101,1.313.024,2.62.06,3.916.185,5.189.428,10.308.677,15.288,1.434,2.493.336,4.976.602,7.417.988,2.433.439,4.845.875,7.236,1.306,1.195.215,2.385.43,3.57.644,1.172.272,2.339.544,3.501.814,2.323.542,4.625,1.078,6.905,1.61,2.277.544,4.488,1.258,6.702,1.869,2.201.658,4.414,1.206,6.546,1.938,2.133.729,4.245,1.451,6.336,2.167,1.046.357,2.086.713,3.122,1.067,1.03.369,2.031.798,3.04,1.191,16.173,6.239,30.313,13.738,42.506,21.582,12.187,7.867,22.499,15.999,31.115,23.85,2.172,1.943,4.153,3.96,6.139,5.84.984.949,1.953,1.883,2.905,2.801.908.962,1.8,1.908,2.677,2.838,1.754,1.859,3.446,3.652,5.076,5.38,1.546,1.804,3.033,3.539,4.462,5.206,2.924,3.279,5.321,6.522,7.585,9.406,2.308,2.852,4.145,5.602,5.847,7.999,3.47,4.75,5.69,8.584,7.307,11.053.791,1.246,1.385,2.182,1.781,2.807.366.643.55.965.55.965" fill="none" stroke="#231f20" stroke-miterlimit="10" stroke-width=".25"/>
      </g>
      <g>
        <path d="m-80.801,204.488c1.366.508,2.663,1.166,3.984,1.751,1.315.601,2.625,1.199,3.929,1.795,1.304.597,2.603,1.192,3.898,1.785,1.264.654,2.524,1.306,3.778,1.955,2.497,1.32,5.024,2.539,7.441,3.913,2.404,1.397,4.79,2.783,7.156,4.157,9.325,5.72,18.121,11.671,26.046,18.159,16.067,12.717,29.21,26.713,40.017,40.62,10.809,13.929,19.217,27.87,25.739,41.097,6.529,13.236,11.174,25.753,14.671,37.076,6.72,22.765,8.814,40.66,9.662,52.558.554,5.956.508,10.459.616,13.458.075,3.001.112,4.508.112,4.508" fill="none" stroke="#231f20" stroke-miterlimit="10" stroke-width=".25"/>
        <path d="m-79.838,202.201c1.38.514,2.691,1.178,4.026,1.769,1.329.607,2.652,1.211,3.971,1.814,1.318.604,2.631,1.205,3.938,1.804,1.278.661,2.55,1.319,3.818,1.974,2.523,1.333,5.077,2.566,7.519,3.955,2.43,1.411,4.84,2.812,7.231,4.201,9.423,5.779,18.309,11.793,26.316,18.347,16.232,12.849,29.511,26.988,40.428,41.037,10.92,14.072,19.414,28.156,26.003,41.519,6.597,13.372,11.289,26.018,14.821,37.457,6.79,22.999,8.905,41.078,9.762,53.095.559,6.017.513,10.564.622,13.594.075,3.031.113,4.553.113,4.553" fill="none" stroke="#231f20" stroke-miterlimit="10" stroke-width=".25"/>
      </g>
    </g>
    <g>
      <g>
        <path d="m103.588,428.24c-.228,26.968-3.699,52.288-10.141,75.096-.808,2.849-1.572,5.686-2.394,8.477-.922,2.761-1.836,5.497-2.742,8.209-.452,1.356-.903,2.706-1.351,4.05-.479,1.333-1.016,2.638-1.518,3.949-1.018,2.617-2.026,5.21-3.025,7.779-.472,1.296-1.061,2.536-1.613,3.785-.556,1.247-1.11,2.488-1.661,3.723-1.126,2.459-2.138,4.943-3.327,7.315-1.197,2.368-2.382,4.713-3.556,7.035-.586,1.161-1.17,2.317-1.75,3.466-.592,1.143-1.256,2.241-1.876,3.355-9.877,17.854-20.843,33.17-31.893,46.174-11.074,12.995-22.155,23.768-32.639,32.611-2.606,2.228-5.262,4.232-7.762,6.258-1.26,1.001-2.499,1.985-3.718,2.954-1.263.91-2.504,1.804-3.724,2.683-2.44,1.757-4.795,3.452-7.063,5.086-2.344,1.523-4.599,2.987-6.765,4.394-4.277,2.904-8.439,5.182-12.154,7.374-3.685,2.248-7.185,3.947-10.246,5.557-3.07,1.593-5.74,3.027-8.13,4.054-2.363,1.083-4.335,1.986-5.913,2.709-1.578.724-2.764,1.267-3.555,1.63-.808.323-1.213.484-1.213.484" fill="none" stroke="#231f20" stroke-miterlimit="10" stroke-width=".25"/>
        <path d="m106.07,428.24c-.228,27.199-3.732,52.742-10.23,75.752-.815,2.875-1.586,5.736-2.416,8.552-.93,2.785-1.852,5.546-2.765,8.282-.457,1.368-.911,2.73-1.363,4.086-.484,1.345-1.025,2.661-1.531,3.984-1.027,2.64-2.044,5.256-3.052,7.848-.477,1.307-1.071,2.558-1.627,3.818-.561,1.258-1.12,2.51-1.676,3.756-1.136,2.481-2.157,4.987-3.357,7.38-1.207,2.389-2.403,4.755-3.587,7.098-.592,1.171-1.181,2.337-1.766,3.497-.598,1.153-1.267,2.261-1.892,3.385-9.965,18.013-21.027,33.463-32.175,46.582-11.172,13.11-22.352,23.979-32.93,32.901-2.629,2.248-5.309,4.27-7.831,6.314-1.271,1.01-2.522,2.003-3.752,2.979-1.274.918-2.526,1.821-3.757,2.707-2.462,1.773-4.838,3.483-7.127,5.131-2.365,1.536-4.64,3.015-6.826,4.435-4.316,2.929-8.515,5.229-12.264,7.441-3.719,2.267-7.25,3.983-10.339,5.607-3.098,1.607-5.792,3.054-8.204,4.09-2.384,1.093-4.374,2.004-5.967,2.734-1.593.73-2.789,1.279-3.588,1.645-.815.326-1.224.489-1.224.489" fill="none" stroke="#231f20" stroke-miterlimit="10" stroke-width=".25"/>
        <path d="m-213.847,151.709c6.687-.815,13.247-1.865,19.779-2.213,1.629-.126,3.251-.251,4.867-.376l2.419-.187c.806-.05,1.612-.049,2.416-.076,3.216-.082,6.406-.164,9.571-.245l2.369-.062,2.359.055c1.57.04,3.133.081,4.69.121,1.557.04,3.107.079,4.652.119l2.311.058c.769.027,1.532.109,2.296.161,6.105.504,12.129.801,17.987,1.695,2.933.399,5.854.707,8.726,1.169,2.863.518,5.7,1.032,8.512,1.542,1.406.254,2.806.507,4.199.759,1.379.323,2.751.644,4.117.964,2.733.639,5.44,1.272,8.123,1.899,2.676.652,5.278,1.488,7.882,2.211,1.299.374,2.592.746,3.878,1.116,1.286.371,2.573.718,3.819,1.176,2.508.86,4.992,1.713,7.452,2.556,1.23.422,2.454.841,3.672,1.258,1.206.449,2.387.946,3.573,1.412,19.016,7.37,35.638,16.225,49.965,25.486,14.323,9.285,26.426,18.894,36.555,28.143,2.538,2.305,4.876,4.673,7.207,6.892,1.153,1.122,2.306,2.208,3.406,3.309,1.066,1.134,2.114,2.249,3.144,3.345,2.058,2.193,4.043,4.309,5.956,6.348,1.816,2.126,3.563,4.171,5.241,6.135,3.438,3.862,6.236,7.698,8.902,11.09,2.714,3.359,4.853,6.611,6.859,9.429.994,1.416,1.926,2.744,2.796,3.984.894,1.224,1.585,2.455,2.299,3.542,1.39,2.198,2.55,4.031,3.478,5.5.926,1.47,1.621,2.574,2.085,3.31.429.757.644,1.137.644,1.137" fill="none" stroke="#231f20" stroke-miterlimit="10" stroke-width=".25"/>
        <path d="m-214.222,149.256c6.748-.825,13.368-1.881,19.958-2.234,1.644-.127,3.281-.253,4.911-.379l2.441-.188c.813-.051,1.627-.05,2.438-.077,3.245-.083,6.464-.166,9.657-.247l2.39-.062,2.38.055c1.584.041,3.161.081,4.732.122,1.571.04,3.135.08,4.693.12l2.332.059c.775.027,1.546.11,2.317.162,6.16.507,12.238.809,18.15,1.71,2.96.402,5.908.714,8.805,1.18,2.889.523,5.752,1.042,8.59,1.555,1.419.257,2.831.512,4.238.767,1.391.326,2.776.65,4.155.973,2.758.645,5.49,1.284,8.197,1.917,2.701.658,5.326,1.501,7.954,2.23,1.311.377,2.616.753,3.914,1.126,1.298.374,2.597.725,3.854,1.187,2.531.868,5.038,1.728,7.52,2.58,1.241.425,2.476.849,3.705,1.27,1.217.453,2.409.954,3.606,1.425,19.19,7.437,35.962,16.373,50.418,25.717,14.452,9.369,26.663,19.064,36.881,28.395,2.561,2.326,4.92,4.714,7.271,6.953,1.163,1.132,2.326,2.228,3.436,3.339,1.076,1.144,2.133,2.269,3.173,3.374,2.076,2.213,4.079,4.348,6.009,6.404,1.832,2.144,3.595,4.207,5.288,6.189,3.467,3.897,6.291,7.765,8.981,11.188,2.737,3.389,4.896,6.67,6.92,9.513,1.002,1.429,1.943,2.769,2.821,4.02.902,1.235,1.599,2.477,2.319,3.573,1.402,2.217,2.572,4.067,3.509,5.548.934,1.483,1.635,2.597,2.104,3.34.433.764.65,1.147.65,1.147" fill="none" stroke="#231f20" stroke-miterlimit="10" stroke-width=".25"/>
      </g>
      <g>
        <path d="m-63.601,164.03c1.618.602,3.145,1.398,4.712,2.086,1.556.713,3.106,1.423,4.65,2.131,1.542.711,3.079,1.42,4.609,2.126,1.496.776,2.986,1.55,4.471,2.32,1.484.771,2.963,1.538,4.436,2.303,1.466.777,2.96,1.489,4.365,2.35,2.845,1.658,5.667,3.303,8.467,4.935,11.021,6.807,21.431,13.862,30.794,21.571,18.996,15.097,34.507,31.72,47.275,48.209,12.764,16.522,22.686,33.05,30.379,48.727,7.702,15.688,13.177,30.519,17.299,43.931,7.927,26.964,10.394,48.156,11.393,62.245.655,7.053.597,12.385.726,15.937.088,3.554.133,5.338.133,5.338" fill="none" stroke="#231f20" stroke-miterlimit="10" stroke-width=".25"/>
        <path d="m-62.634,161.744c1.632.608,3.174,1.41,4.754,2.104,1.57.719,3.134,1.436,4.692,2.15,1.556.718,3.106,1.433,4.65,2.146,1.509.783,3.013,1.563,4.511,2.34,1.498.777,2.989,1.552,4.475,2.323,1.479.784,2.986,1.503,4.404,2.371,2.87,1.673,5.717,3.332,8.542,4.978,11.119,6.866,21.619,13.984,31.064,21.76,19.161,15.229,34.807,31.996,47.685,48.627,12.874,16.665,22.882,33.336,30.641,49.149,7.769,15.824,13.292,30.783,17.448,44.312,7.997,27.198,10.483,48.571,11.491,62.78.659,7.114.603,12.49.732,16.072.089,3.583.133,5.383.133,5.383" fill="none" stroke="#231f20" stroke-miterlimit="10" stroke-width=".25"/>
      </g>
    </g>
  </g>
  <g>
    <g>
      <g>
        <line x1="360.204" y1="411.51" x2="378.198" y2="413.57" fill="none" stroke="#231f20" stroke-miterlimit="10" stroke-width=".75"/>
        <path d="m368.945,387.472c4.44.78,8.879,1.561,13.319,2.341" fill="none" stroke="#231f20" stroke-miterlimit="10" stroke-width=".75"/>
        <line x1="372.702" y1="407.671" x2="379.076" y2="408.514" fill="none" stroke="#231f20" stroke-miterlimit="10" stroke-width=".75"/>
        <path d="m374.655,393.423c2.227.302,4.454.603,6.681.905" fill="none" stroke="#231f20" stroke-miterlimit="10" stroke-width=".75"/>
        <path d="m373.936,398.366c2.174.287,4.347.574,6.521.861" fill="none" stroke="#231f20" stroke-miterlimit="10" stroke-width=".75"/>
        <line x1="373.322" y1="403.168" x2="379.71" y2="403.899" fill="none" stroke="#231f20" stroke-miterlimit="10" stroke-width=".75"/>
      </g>
      <g>
        <line x1="365.86" y1="371.589" x2="383.392" y2="376.132" fill="none" stroke="#231f20" stroke-miterlimit="10" stroke-width=".75"/>
        <path d="m377.861,349.001c4.288,1.391,8.576,2.781,12.864,4.172" fill="none" stroke="#231f20" stroke-miterlimit="10" stroke-width=".75"/>
        <line x1="378.77" y1="369.526" x2="384.965" y2="371.248" fill="none" stroke="#231f20" stroke-miterlimit="10" stroke-width=".75"/>
        <path d="m382.687,355.689c2.163.609,4.327,1.217,6.49,1.826" fill="none" stroke="#231f20" stroke-miterlimit="10" stroke-width=".75"/>
        <path d="m381.287,360.483c2.112.587,4.225,1.173,6.337,1.76" fill="none" stroke="#231f20" stroke-miterlimit="10" stroke-width=".75"/>
        <line x1="380.011" y1="365.154" x2="386.235" y2="366.767" fill="none" stroke="#231f20" stroke-miterlimit="10" stroke-width=".75"/>
      </g>
      <g>
        <line x1="377.016" y1="332.842" x2="393.745" y2="339.782" fill="none" stroke="#231f20" stroke-miterlimit="10" stroke-width=".75"/>
        <path d="m392.044,312.145c4.053,1.974,8.105,3.948,12.158,5.922" fill="none" stroke="#231f20" stroke-miterlimit="10" stroke-width=".75"/>
        <line x1="390.088" y1="332.597" x2="395.983" y2="335.164" fill="none" stroke="#231f20" stroke-miterlimit="10" stroke-width=".75"/>
        <path d="m395.893,319.439c2.058.904,4.115,1.808,6.173,2.712" fill="none" stroke="#231f20" stroke-miterlimit="10" stroke-width=".75"/>
        <path d="m393.839,323.992c2.01.875,4.02,1.75,6.031,2.625" fill="none" stroke="#231f20" stroke-miterlimit="10" stroke-width=".75"/>
        <line x1="391.925" y1="328.439" x2="397.864" y2="330.903" fill="none" stroke="#231f20" stroke-miterlimit="10" stroke-width=".75"/>
      </g>
      <g>
        <line x1="393.457" y1="296.026" x2="409.057" y2="305.227" fill="none" stroke="#231f20" stroke-miterlimit="10" stroke-width=".75"/>
        <path d="m411.219,277.621c3.738,2.519,7.477,5.037,11.215,7.556" fill="none" stroke="#231f20" stroke-miterlimit="10" stroke-width=".75"/>
        <line x1="406.435" y1="297.602" x2="411.915" y2="300.965" fill="none" stroke="#231f20" stroke-miterlimit="10" stroke-width=".75"/>
        <path d="m414.015,285.381c1.912,1.181,3.824,2.363,5.736,3.544" fill="none" stroke="#231f20" stroke-miterlimit="10" stroke-width=".75"/>
        <path d="m411.348,289.604c1.869,1.146,3.738,2.293,5.607,3.439" fill="none" stroke="#231f20" stroke-miterlimit="10" stroke-width=".75"/>
        <line x1="408.834" y1="293.741" x2="414.372" y2="297.007" fill="none" stroke="#231f20" stroke-miterlimit="10" stroke-width=".75"/>
      </g>
      <g>
        <line x1="414.861" y1="261.855" x2="429.029" y2="273.137" fill="none" stroke="#231f20" stroke-miterlimit="10" stroke-width=".75"/>
        <path d="m435.012,246.102c3.352,3.014,6.703,6.029,10.055,9.043" fill="none" stroke="#231f20" stroke-miterlimit="10" stroke-width=".75"/>
        <line x1="427.493" y1="265.222" x2="432.452" y2="269.315" fill="none" stroke="#231f20" stroke-miterlimit="10" stroke-width=".75"/>
        <path d="m436.7,254.174c1.729,1.436,3.458,2.872,5.187,4.308" fill="none" stroke="#231f20" stroke-miterlimit="10" stroke-width=".75"/>
        <path d="m433.471,257.985c1.691,1.395,3.382,2.79,5.073,4.186" fill="none" stroke="#231f20" stroke-miterlimit="10" stroke-width=".75"/>
        <line x1="430.406" y1="261.733" x2="435.436" y2="265.738" fill="none" stroke="#231f20" stroke-miterlimit="10" stroke-width=".75"/>
      </g>
      <g>
        <line x1="440.812" y1="230.997" x2="453.272" y2="244.141" fill="none" stroke="#231f20" stroke-miterlimit="10" stroke-width=".75"/>
        <path d="m462.959,218.201c2.899,3.452,5.799,6.903,8.698,10.355" fill="none" stroke="#231f20" stroke-miterlimit="10" stroke-width=".75"/>
        <line x1="452.853" y1="236.09" x2="457.194" y2="240.832" fill="none" stroke="#231f20" stroke-miterlimit="10" stroke-width=".75"/>
        <path d="m463.508,226.43c1.512,1.663,3.024,3.325,4.537,4.988" fill="none" stroke="#231f20" stroke-miterlimit="10" stroke-width=".75"/>
        <path d="m459.78,229.755c1.481,1.617,2.961,3.234,4.442,4.851" fill="none" stroke="#231f20" stroke-miterlimit="10" stroke-width=".75"/>
        <line x1="456.223" y1="233.039" x2="460.646" y2="237.705" fill="none" stroke="#231f20" stroke-miterlimit="10" stroke-width=".75"/>
      </g>
      <g>
        <line x1="470.806" y1="204.051" x2="481.315" y2="218.801" fill="none" stroke="#231f20" stroke-miterlimit="10" stroke-width=".75"/>
        <path d="m494.518,194.462c2.391,3.821,4.782,7.643,7.173,11.465" fill="none" stroke="#231f20" stroke-miterlimit="10" stroke-width=".75"/>
        <line x1="482.021" y1="210.769" x2="485.66" y2="216.07" fill="none" stroke="#231f20" stroke-miterlimit="10" stroke-width=".75"/>
        <path d="m493.916,202.687c1.266,1.857,2.532,3.714,3.798,5.571" fill="none" stroke="#231f20" stroke-miterlimit="10" stroke-width=".75"/>
        <path d="m489.762,205.46c1.241,1.807,2.482,3.615,3.723,5.422" fill="none" stroke="#231f20" stroke-miterlimit="10" stroke-width=".75"/>
        <line x1="485.783" y1="208.217" x2="489.513" y2="213.454" fill="none" stroke="#231f20" stroke-miterlimit="10" stroke-width=".75"/>
      </g>
      <g>
        <line x1="504.257" y1="181.541" x2="512.612" y2="197.61" fill="none" stroke="#231f20" stroke-miterlimit="10" stroke-width=".75"/>
        <path d="m529.074,175.346c1.836,4.117,3.671,8.234,5.507,12.351" fill="none" stroke="#231f20" stroke-miterlimit="10" stroke-width=".75"/>
        <line x1="514.428" y1="189.755" x2="517.294" y2="195.511" fill="none" stroke="#231f20" stroke-miterlimit="10" stroke-width=".75"/>
        <path d="m527.333,183.407c.995,2.015,1.991,4.03,2.986,6.045" fill="none" stroke="#231f20" stroke-miterlimit="10" stroke-width=".75"/>
        <path d="m522.833,185.575c.977,1.962,1.955,3.925,2.932,5.887" fill="none" stroke="#231f20" stroke-miterlimit="10" stroke-width=".75"/>
        <line x1="518.509" y1="187.752" x2="521.475" y2="193.456" fill="none" stroke="#231f20" stroke-miterlimit="10" stroke-width=".75"/>
      </g>
      <g>
        <line x1="540.517" y1="163.906" x2="546.554" y2="180.981" fill="none" stroke="#231f20" stroke-miterlimit="10" stroke-width=".75"/>
        <path d="m565.954,161.224c1.245,4.332,2.49,8.665,3.735,12.997" fill="none" stroke="#231f20" stroke-miterlimit="10" stroke-width=".75"/>
        <line x1="549.446" y1="173.455" x2="551.483" y2="179.554" fill="none" stroke="#231f20" stroke-miterlimit="10" stroke-width=".75"/>
        <path d="m563.108,168.965c.705,2.134,1.41,4.268,2.116,6.402" fill="none" stroke="#231f20" stroke-miterlimit="10" stroke-width=".75"/>
        <path d="m558.35,170.486c.695,2.079,1.39,4.159,2.084,6.238" fill="none" stroke="#231f20" stroke-miterlimit="10" stroke-width=".75"/>
        <line x1="553.765" y1="172.039" x2="555.908" y2="178.101" fill="none" stroke="#231f20" stroke-miterlimit="10" stroke-width=".75"/>
      </g>
      <g>
        <line x1="578.877" y1="151.488" x2="582.479" y2="169.238" fill="none" stroke="#231f20" stroke-miterlimit="10" stroke-width=".75"/>
        <path d="m604.44,152.373c.63,4.464,1.26,8.927,1.889,13.391" fill="none" stroke="#231f20" stroke-miterlimit="10" stroke-width=".75"/>
        <line x1="586.39" y1="162.187" x2="587.558" y2="168.51" fill="none" stroke="#231f20" stroke-miterlimit="10" stroke-width=".75"/>
        <path d="m600.544,159.642c.401,2.211.803,4.423,1.204,6.634" fill="none" stroke="#231f20" stroke-miterlimit="10" stroke-width=".75"/>
        <path d="m595.621,160.486c.399,2.156.797,4.312,1.196,6.468" fill="none" stroke="#231f20" stroke-miterlimit="10" stroke-width=".75"/>
        <line x1="590.864" y1="161.386" x2="592.143" y2="167.687" fill="none" stroke="#231f20" stroke-miterlimit="10" stroke-width=".75"/>
      </g>
      <g>
        <line x1="618.592" y1="144.53" x2="619.689" y2="162.608" fill="none" stroke="#231f20" stroke-miterlimit="10" stroke-width=".75"/>
        <path d="m643.783,148.964c.002,4.508.005,9.016.007,13.523" fill="none" stroke="#231f20" stroke-miterlimit="10" stroke-width=".75"/>
        <line x1="624.543" y1="156.171" x2="624.82" y2="162.594" fill="none" stroke="#231f20" stroke-miterlimit="10" stroke-width=".75"/>
        <path d="m638.914,155.62c.09,2.246.179,4.491.269,6.737" fill="none" stroke="#231f20" stroke-miterlimit="10" stroke-width=".75"/>
        <path d="m633.921,155.771c.095,2.19.19,4.381.284,6.571" fill="none" stroke="#231f20" stroke-miterlimit="10" stroke-width=".75"/>
        <line x1="629.085" y1="156" x2="629.474" y2="162.418" fill="none" stroke="#231f20" stroke-miterlimit="10" stroke-width=".75"/>
      </g>
      <g>
        <path d="m365.47,426.81c4.505.155,9.01.31,13.515.465" fill="none" stroke="#231f20" stroke-miterlimit="10" stroke-width=".75"/>
        <path d="m371.953,431.909c2.247-.011,4.495-.022,6.742-.034" fill="none" stroke="#231f20" stroke-miterlimit="10" stroke-width=".75"/>
      </g>
    </g>
    <g>
      <g>
        <path d="m445.807,431.598c-2.11-.084-4.22-.167-6.33-.251" fill="#e5e5e5" stroke="#221f1f" stroke-miterlimit="10" stroke-width=".5"/>
        <path d="m445.972,428.225c-2.11-.084-4.22-.167-6.33-.251" fill="#e5e5e5" stroke="#221f1f" stroke-miterlimit="10" stroke-width=".5"/>
        <path d="m446.091,424.722c-2.096-.114-4.193-.228-6.289-.343" fill="#e5e5e5" stroke="#221f1f" stroke-miterlimit="10" stroke-width=".5"/>
        <path d="m446.26,421.279c-2.096-.114-4.193-.228-6.289-.343" fill="#e5e5e5" stroke="#221f1f" stroke-miterlimit="10" stroke-width=".5"/>
        <path d="m446.629,414.098c-2.106-.158-4.211-.316-6.317-.474" fill="#e5e5e5" stroke="#221f1f" stroke-miterlimit="10" stroke-width=".5"/>
        <path d="m446.917,410.651c-2.106-.158-4.211-.316-6.317-.474" fill="#e5e5e5" stroke="#221f1f" stroke-miterlimit="10" stroke-width=".5"/>
        <path d="m447.162,407.109c-2.091-.188-4.182-.376-6.273-.564" fill="#e5e5e5" stroke="#221f1f" stroke-miterlimit="10" stroke-width=".5"/>
        <path d="m447.452,403.674c-2.091-.188-4.182-.376-6.273-.564" fill="#e5e5e5" stroke="#221f1f" stroke-miterlimit="10" stroke-width=".5"/>
        <path d="m446.457,417.601c-4.396-.204-8.792-.407-13.188-.611" fill="#e5e5e5" stroke="#221f1f" stroke-miterlimit="10" stroke-width=".5"/>
      </g>
      <g>
        <line x1="432.836" y1="387.985" x2="449.143" y2="391.596" fill="#e5e5e5" stroke="#221f1f" stroke-miterlimit="10" stroke-width=".5"/>
        <path d="m450.126,387.982c-2.043-.535-4.085-1.071-6.128-1.606" fill="#e5e5e5" stroke="#221f1f" stroke-miterlimit="10" stroke-width=".5"/>
        <path d="m451.012,384.724c-2.043-.535-4.085-1.071-6.128-1.606" fill="#e5e5e5" stroke="#221f1f" stroke-miterlimit="10" stroke-width=".5"/>
        <path d="m451.881,381.329c-2.023-.562-4.046-1.124-6.068-1.687" fill="#e5e5e5" stroke="#221f1f" stroke-miterlimit="10" stroke-width=".5"/>
        <path d="m452.786,378.002c-2.023-.562-4.046-1.124-6.068-1.687" fill="#e5e5e5" stroke="#221f1f" stroke-miterlimit="10" stroke-width=".5"/>
        <path d="m454.69,371.069c-2.022-.607-4.045-1.214-6.067-1.821" fill="#e5e5e5" stroke="#221f1f" stroke-miterlimit="10" stroke-width=".5"/>
        <path d="m455.712,367.764c-2.022-.607-4.045-1.214-6.067-1.821" fill="#e5e5e5" stroke="#221f1f" stroke-miterlimit="10" stroke-width=".5"/>
        <path d="m456.713,364.358c-2.002-.633-4.003-1.266-6.005-1.9" fill="#e5e5e5" stroke="#221f1f" stroke-miterlimit="10" stroke-width=".5"/>
        <path d="m457.735,361.065c-2.002-.633-4.003-1.266-6.005-1.9" fill="#e5e5e5" stroke="#221f1f" stroke-miterlimit="10" stroke-width=".5"/>
        <path d="m453.769,374.452c-4.249-1.144-8.499-2.288-12.748-3.431" fill="#e5e5e5" stroke="#221f1f" stroke-miterlimit="10" stroke-width=".5"/>
      </g>
      <g>
        <line x1="446.833" y1="342.601" x2="461.983" y2="349.633" fill="#e5e5e5" stroke="#221f1f" stroke-miterlimit="10" stroke-width=".5"/>
        <path d="m463.719,346.315c-1.88-.962-3.76-1.924-5.639-2.886" fill="#e5e5e5" stroke="#221f1f" stroke-miterlimit="10" stroke-width=".5"/>
        <path d="m465.285,343.323c-1.88-.962-3.76-1.924-5.639-2.886" fill="#e5e5e5" stroke="#221f1f" stroke-miterlimit="10" stroke-width=".5"/>
        <path d="m466.864,340.194c-1.855-.984-3.709-1.968-5.564-2.952" fill="#e5e5e5" stroke="#221f1f" stroke-miterlimit="10" stroke-width=".5"/>
        <path d="m468.463,337.14c-1.855-.984-3.709-1.968-5.564-2.952" fill="#e5e5e5" stroke="#221f1f" stroke-miterlimit="10" stroke-width=".5"/>
        <path d="m471.813,330.778c-1.845-1.028-3.689-2.055-5.534-3.083" fill="#e5e5e5" stroke="#221f1f" stroke-miterlimit="10" stroke-width=".5"/>
        <path d="m473.521,327.771c-1.845-1.028-3.689-2.055-5.534-3.083" fill="#e5e5e5" stroke="#221f1f" stroke-miterlimit="10" stroke-width=".5"/>
        <path d="m475.232,324.659c-1.819-1.049-3.638-2.097-5.456-3.146" fill="#e5e5e5" stroke="#221f1f" stroke-miterlimit="10" stroke-width=".5"/>
        <path d="m476.937,321.662c-1.819-1.049-3.638-2.097-5.456-3.146" fill="#e5e5e5" stroke="#221f1f" stroke-miterlimit="10" stroke-width=".5"/>
        <path d="m470.186,333.884c-3.904-2.031-7.809-4.061-11.713-6.092" fill="#e5e5e5" stroke="#221f1f" stroke-miterlimit="10" stroke-width=".5"/>
      </g>
      <g>
        <line x1="470.26" y1="301.286" x2="483.544" y2="311.41" fill="#e5e5e5" stroke="#221f1f" stroke-miterlimit="10" stroke-width=".5"/>
        <path d="m485.953,308.543c-1.629-1.344-3.258-2.687-4.887-4.03" fill="#e5e5e5" stroke="#221f1f" stroke-miterlimit="10" stroke-width=".5"/>
        <path d="m488.125,305.958c-1.629-1.344-3.258-2.687-4.887-4.03" fill="#e5e5e5" stroke="#221f1f" stroke-miterlimit="10" stroke-width=".5"/>
        <path d="m490.34,303.242c-1.6-1.36-3.2-2.719-4.799-4.079" fill="#e5e5e5" stroke="#221f1f" stroke-miterlimit="10" stroke-width=".5"/>
        <path d="m492.558,300.603c-1.6-1.36-3.2-2.719-4.799-4.079" fill="#e5e5e5" stroke="#221f1f" stroke-miterlimit="10" stroke-width=".5"/>
        <path d="m497.197,295.11c-1.581-1.4-3.161-2.8-4.742-4.2" fill="#e5e5e5" stroke="#221f1f" stroke-miterlimit="10" stroke-width=".5"/>
        <path d="m499.512,292.54c-1.581-1.4-3.161-2.8-4.742-4.2" fill="#e5e5e5" stroke="#221f1f" stroke-miterlimit="10" stroke-width=".5"/>
        <path d="m501.852,289.868c-1.551-1.415-3.102-2.83-4.652-4.245" fill="#e5e5e5" stroke="#221f1f" stroke-miterlimit="10" stroke-width=".5"/>
        <path d="m504.161,287.309c-1.551-1.415-3.102-2.83-4.652-4.245" fill="#e5e5e5" stroke="#221f1f" stroke-miterlimit="10" stroke-width=".5"/>
        <path d="m494.941,297.794c-3.376-2.822-6.753-5.645-10.129-8.467" fill="#e5e5e5" stroke="#221f1f" stroke-miterlimit="10" stroke-width=".5"/>
      </g>
      <g>
        <line x1="502.02" y1="265.974" x2="512.817" y2="278.717" fill="#e5e5e5" stroke="#221f1f" stroke-miterlimit="10" stroke-width=".5"/>
        <path d="m515.786,276.435c-1.302-1.662-2.604-3.325-3.906-4.987" fill="#e5e5e5" stroke="#221f1f" stroke-miterlimit="10" stroke-width=".5"/>
        <path d="m518.463,274.377c-1.302-1.662-2.604-3.325-3.906-4.987" fill="#e5e5e5" stroke="#221f1f" stroke-miterlimit="10" stroke-width=".5"/>
        <path d="m521.21,272.201c-1.27-1.672-2.54-3.343-3.81-5.015" fill="#e5e5e5" stroke="#221f1f" stroke-miterlimit="10" stroke-width=".5"/>
        <path d="m523.944,270.1c-1.27-1.672-2.54-3.343-3.81-5.015" fill="#e5e5e5" stroke="#221f1f" stroke-miterlimit="10" stroke-width=".5"/>
        <path d="m529.655,265.733c-1.243-1.707-2.485-3.414-3.728-5.122" fill="#e5e5e5" stroke="#221f1f" stroke-miterlimit="10" stroke-width=".5"/>
        <path d="m532.469,263.721c-1.243-1.707-2.485-3.414-3.728-5.122" fill="#e5e5e5" stroke="#221f1f" stroke-miterlimit="10" stroke-width=".5"/>
        <path d="m535.328,261.614c-1.21-1.715-2.421-3.431-3.631-5.146" fill="#e5e5e5" stroke="#221f1f" stroke-miterlimit="10" stroke-width=".5"/>
        <path d="m538.133,259.611c-1.21-1.715-2.421-3.431-3.631-5.146" fill="#e5e5e5" stroke="#221f1f" stroke-miterlimit="10" stroke-width=".5"/>
        <path d="m526.875,267.869c-2.691-3.482-5.382-6.965-8.072-10.447" fill="#e5e5e5" stroke="#221f1f" stroke-miterlimit="10" stroke-width=".5"/>
      </g>
      <g>
        <line x1="540.629" y1="238.314" x2="548.434" y2="253.081" fill="#e5e5e5" stroke="#221f1f" stroke-miterlimit="10" stroke-width=".5"/>
        <path d="m551.824,251.49c-.914-1.903-1.829-3.807-2.743-5.71" fill="#e5e5e5" stroke="#221f1f" stroke-miterlimit="10" stroke-width=".5"/>
        <path d="m554.881,250.056c-.914-1.903-1.829-3.807-2.743-5.71" fill="#e5e5e5" stroke="#221f1f" stroke-miterlimit="10" stroke-width=".5"/>
        <path d="m558.032,248.521c-.881-1.906-1.762-3.811-2.643-5.717" fill="#e5e5e5" stroke="#221f1f" stroke-miterlimit="10" stroke-width=".5"/>
        <path d="m561.153,247.057c-.881-1.906-1.762-3.811-2.643-5.717" fill="#e5e5e5" stroke="#221f1f" stroke-miterlimit="10" stroke-width=".5"/>
        <path d="m567.67,244.02c-.847-1.934-1.693-3.869-2.54-5.803" fill="#e5e5e5" stroke="#221f1f" stroke-miterlimit="10" stroke-width=".5"/>
        <path d="m570.85,242.659c-.847-1.934-1.693-3.869-2.54-5.803" fill="#e5e5e5" stroke="#221f1f" stroke-miterlimit="10" stroke-width=".5"/>
        <path d="m574.095,241.217c-.813-1.936-1.627-3.871-2.44-5.807" fill="#e5e5e5" stroke="#221f1f" stroke-miterlimit="10" stroke-width=".5"/>
        <path d="m577.265,239.864c-.813-1.936-1.627-3.871-2.44-5.807" fill="#e5e5e5" stroke="#221f1f" stroke-miterlimit="10" stroke-width=".5"/>
        <path d="m564.495,245.508c-1.879-3.979-3.759-7.959-5.638-11.938" fill="#e5e5e5" stroke="#221f1f" stroke-miterlimit="10" stroke-width=".5"/>
      </g>
      <g>
        <line x1="584.281" y1="219.602" x2="588.729" y2="235.701" fill="#e5e5e5" stroke="#221f1f" stroke-miterlimit="10" stroke-width=".5"/>
        <path d="m592.382,234.876c-.484-2.055-.968-4.111-1.451-6.166" fill="#e5e5e5" stroke="#221f1f" stroke-miterlimit="10" stroke-width=".5"/>
        <path d="m595.676,234.133c-.484-2.055-.968-4.111-1.451-6.166" fill="#e5e5e5" stroke="#221f1f" stroke-miterlimit="10" stroke-width=".5"/>
        <path d="m599.083,233.311c-.451-2.05-.902-4.101-1.352-6.151" fill="#e5e5e5" stroke="#221f1f" stroke-miterlimit="10" stroke-width=".5"/>
        <path d="m602.446,232.552c-.451-2.05-.902-4.101-1.352-6.151" fill="#e5e5e5" stroke="#221f1f" stroke-miterlimit="10" stroke-width=".5"/>
        <path d="m609.463,230.987c-.411-2.071-.822-4.142-1.233-6.214" fill="#e5e5e5" stroke="#221f1f" stroke-miterlimit="10" stroke-width=".5"/>
        <path d="m612.862,230.342c-.411-2.071-.822-4.142-1.233-6.214" fill="#e5e5e5" stroke="#221f1f" stroke-miterlimit="10" stroke-width=".5"/>
        <path d="m616.341,229.631c-.378-2.065-.756-4.13-1.135-6.195" fill="#e5e5e5" stroke="#221f1f" stroke-miterlimit="10" stroke-width=".5"/>
        <path d="m619.728,228.991c-.378-2.065-.756-4.13-1.135-6.195" fill="#e5e5e5" stroke="#221f1f" stroke-miterlimit="10" stroke-width=".5"/>
        <path d="m606.043,231.758c-.98-4.29-1.96-8.581-2.94-12.871" fill="#e5e5e5" stroke="#221f1f" stroke-miterlimit="10" stroke-width=".5"/>
      </g>
      <g>
        <line x1="630.935" y1="210.711" x2="631.818" y2="227.389" fill="#e5e5e5" stroke="#221f1f" stroke-miterlimit="10" stroke-width=".5"/>
        <path d="m635.563,227.369c-.031-2.111-.061-4.223-.092-6.334" fill="#e5e5e5" stroke="#221f1f" stroke-miterlimit="10" stroke-width=".5"/>
        <path d="m638.94,227.351c-.031-2.111-.061-4.223-.092-6.334" fill="#e5e5e5" stroke="#221f1f" stroke-miterlimit="10" stroke-width=".5"/>
        <path d="m642.444,227.281c0-2.099.001-4.199.002-6.298" fill="#e5e5e5" stroke="#221f1f" stroke-miterlimit="10" stroke-width=".5"/>
        <path d="m645.891,227.263c0-2.099.001-4.199.002-6.298" fill="#e5e5e5" stroke="#221f1f" stroke-miterlimit="10" stroke-width=".5"/>
      </g>
    </g>
  </g>
  <polyline points="328.231 42.546 325.936 44.502 316.507 33.439 318.802 31.483 309.619 20.709 307.324 22.664 297.944 11.659 300.239 9.703 289.68 -2.685 287.385 -.729 248.834 -45.96 251.129 -47.916 212.627 -93.089 210.332 -91.133 171.83 -136.307 173.765 -137.956" fill="none" stroke="#231f20" stroke-miterlimit="10" stroke-width=".256"/>
  <g>
    <line x1="314.94" y1="349.754" x2="122.24" y2="306.626" fill="none" stroke="#231f20" stroke-miterlimit="10" stroke-width=".5"/>
    <line x1="218.723" y1="331.685" x2="220.243" y2="324.896" fill="none" stroke="#231f20" stroke-miterlimit="10" stroke-width=".5"/>
    <line x1="195.436" y1="325.387" x2="196.5" y2="320.631" fill="none" stroke="#231f20" stroke-miterlimit="10" stroke-width=".5"/>
    <line x1="169.882" y1="319.667" x2="170.946" y2="314.912" fill="none" stroke="#231f20" stroke-miterlimit="10" stroke-width=".5"/>
    <line x1="146.038" y1="314.331" x2="147.102" y2="309.576" fill="none" stroke="#231f20" stroke-miterlimit="10" stroke-width=".5"/>
    <line x1="242.406" y1="335.899" x2="243.471" y2="331.143" fill="none" stroke="#231f20" stroke-miterlimit="10" stroke-width=".5"/>
    <line x1="266.261" y1="341.238" x2="267.325" y2="336.482" fill="none" stroke="#231f20" stroke-miterlimit="10" stroke-width=".5"/>
    <line x1="289.794" y1="346.504" x2="290.858" y2="341.749" fill="none" stroke="#231f20" stroke-miterlimit="10" stroke-width=".5"/>
    <line x1="314.206" y1="353.036" x2="315.725" y2="346.246" fill="none" stroke="#231f20" stroke-miterlimit="10" stroke-width=".5"/>
    <line x1="121.948" y1="310.126" x2="123.467" y2="303.336" fill="none" stroke="#231f20" stroke-miterlimit="10" stroke-width=".5"/>
  </g>
  <line x1="623.905" y1="289.984" x2="636.024" y2="361.148" fill="none" stroke="#221f1f" stroke-miterlimit="10" stroke-width=".5"/>
  <g>
    <g>
      <g>
        <line x1="327.429" y1="398.093" x2="312.307" y2="396.64" fill="none" stroke="#221f1f" stroke-miterlimit="10" stroke-width=".5"/>
        <line x1="305.885" y1="396.023" x2="290.763" y2="394.569" fill="none" stroke="#221f1f" stroke-miterlimit="10" stroke-width=".5"/>
        <line x1="284.317" y1="393.833" x2="269.195" y2="392.38" fill="none" stroke="#221f1f" stroke-miterlimit="10" stroke-width=".5"/>
        <line x1="262.773" y1="391.762" x2="247.651" y2="390.309" fill="none" stroke="#221f1f" stroke-miterlimit="10" stroke-width=".5"/>
      </g>
      <g>
        <line x1="240.153" y1="389.182" x2="225.031" y2="387.729" fill="none" stroke="#221f1f" stroke-miterlimit="10" stroke-width=".5"/>
        <line x1="218.609" y1="387.111" x2="203.487" y2="385.658" fill="none" stroke="#221f1f" stroke-miterlimit="10" stroke-width=".5"/>
        <line x1="197.041" y1="384.922" x2="181.919" y2="383.468" fill="none" stroke="#221f1f" stroke-miterlimit="10" stroke-width=".5"/>
        <line x1="175.497" y1="382.851" x2="160.375" y2="381.398" fill="none" stroke="#221f1f" stroke-miterlimit="10" stroke-width=".5"/>
      </g>
    </g>
    <g>
      <g>
        <line x1="149.546" y1="379.897" x2="134.423" y2="378.444" fill="none" stroke="#221f1f" stroke-miterlimit="10" stroke-width=".5"/>
        <line x1="128.002" y1="377.827" x2="112.879" y2="376.373" fill="none" stroke="#221f1f" stroke-miterlimit="10" stroke-width=".5"/>
        <line x1="106.434" y1="375.637" x2="91.312" y2="374.184" fill="none" stroke="#221f1f" stroke-miterlimit="10" stroke-width=".5"/>
        <line x1="84.89" y1="373.566" x2="69.767" y2="372.113" fill="none" stroke="#221f1f" stroke-miterlimit="10" stroke-width=".5"/>
      </g>
      <g>
        <line x1="62.27" y1="370.986" x2="47.147" y2="369.532" fill="none" stroke="#221f1f" stroke-miterlimit="10" stroke-width=".5"/>
        <line x1="40.726" y1="368.915" x2="25.603" y2="367.462" fill="none" stroke="#221f1f" stroke-miterlimit="10" stroke-width=".5"/>
        <line x1="19.158" y1="366.726" x2="4.036" y2="365.272" fill="none" stroke="#221f1f" stroke-miterlimit="10" stroke-width=".5"/>
      </g>
    </g>
  </g>
  <g>
    <path d="m325.063,307.749c-.519-.182-.747-.878-.51-1.553.237-.675.851-1.074,1.37-.892.519.182.747.878.51,1.553-.237.675-.851,1.074-1.37.892Z" fill="#231f20" stroke-width="0"/>
    <path d="m319.757,305.908c-.519-.182-.747-.878-.51-1.553s.851-1.074,1.37-.892c.519.182.747.878.51,1.553s-.851,1.074-1.37.892Z" fill="#231f20" stroke-width="0"/>
    <path d="m314.207,303.998c-.519-.182-.747-.878-.51-1.553.237-.675.851-1.074,1.37-.892.519.182.747.878.51,1.553-.237.675-.851,1.074-1.37.892Z" fill="#231f20" stroke-width="0"/>
    <path d="m308.298,301.945c-.519-.182-.747-.878-.51-1.553s.851-1.074,1.37-.892c.519.182.747.878.51,1.553s-.851,1.074-1.37.892Z" fill="#231f20" stroke-width="0"/>
    <path d="m346.607,315.19c-.519-.182-.747-.878-.51-1.553s.851-1.074,1.37-.892c.519.182.747.878.51,1.553-.237.675-.851,1.074-1.37.892Z" fill="#231f20" stroke-width="0"/>
    <path d="m341.302,313.349c-.519-.183-.747-.878-.51-1.553.237-.675.851-1.074,1.37-.892.519.182.747.878.51,1.553s-.851,1.074-1.37.892Z" fill="#231f20" stroke-width="0"/>
    <path d="m336.103,311.563c-.519-.182-.747-.878-.51-1.553.237-.675.851-1.074,1.37-.892.519.182.747.878.51,1.553-.237.675-.851,1.074-1.37.892Z" fill="#231f20" stroke-width="0"/>
    <path d="m330.446,309.598c-.519-.182-.747-.878-.51-1.553.237-.675.851-1.074,1.37-.892.519.182.747.878.51,1.553-.237.675-.851,1.074-1.37.892Z" fill="#231f20" stroke-width="0"/>
  </g>
  <g>
    <path d="m123.361,233.593c-1.717-.633-2.908-1.691-2.661-2.362.248-.671,1.84-.702,3.557-.069,1.717.633,2.908,1.691,2.661,2.362-.248.671-1.84.702-3.557.069Z" fill="#231f20" stroke-width="0"/>
    <path d="m105.829,227.153c-1.717-.633-2.908-1.691-2.661-2.362.248-.671,1.84-.702,3.557-.069,1.717.633,2.908,1.691,2.661,2.362-.248.671-1.84.702-3.557.069Z" fill="#231f20" stroke-width="0"/>
    <path d="m87.499,220.435c-1.717-.633-2.908-1.691-2.661-2.362.248-.671,1.84-.702,3.557-.069,1.717.633,2.908,1.691,2.661,2.362-.248.671-1.84.702-3.557.069Z" fill="#231f20" stroke-width="0"/>
    <path d="m67.972,213.259c-1.717-.633-2.908-1.691-2.661-2.362.248-.671,1.84-.702,3.557-.069,1.717.633,2.908,1.691,2.661,2.362-.248.671-1.84.702-3.557.069Z" fill="#231f20" stroke-width="0"/>
    <path d="m194.528,259.701c-1.717-.633-2.908-1.691-2.661-2.362.248-.671,1.84-.702,3.557-.069,1.717.633,2.908,1.691,2.661,2.362-.248.671-1.84.702-3.557.069Z" fill="#231f20" stroke-width="0"/>
    <path d="m176.996,253.261c-1.717-.633-2.908-1.691-2.661-2.362.248-.671,1.84-.702,3.557-.069,1.717.633,2.908,1.691,2.661,2.362-.248.671-1.84.702-3.557.069Z" fill="#231f20" stroke-width="0"/>
    <path d="m159.831,246.973c-1.717-.633-2.908-1.691-2.661-2.362.248-.671,1.84-.702,3.557-.069,1.717.633,2.908,1.691,2.661,2.362-.248.671-1.84.702-3.557.069Z" fill="#231f20" stroke-width="0"/>
    <path d="m141.135,240.103c-1.717-.633-2.908-1.691-2.661-2.362.248-.671,1.84-.702,3.557-.069,1.717.633,2.908,1.691,2.661,2.362-.248.671-1.84.702-3.557.069Z" fill="#231f20" stroke-width="0"/>
  </g>
  <g>
    <line x1="328.368" y1="266.949" x2="336.462" y2="250.871" fill="none" stroke="#221f1f" stroke-miterlimit="10"/>
    <line x1="321.416" y1="253.373" x2="325.463" y2="245.334" fill="none" stroke="#221f1f" stroke-miterlimit="10"/>
    <line x1="288.418" y1="236.76" x2="292.466" y2="228.721" fill="none" stroke="#221f1f" stroke-miterlimit="10"/>
    <line x1="310.417" y1="247.835" x2="314.464" y2="239.796" fill="none" stroke="#221f1f" stroke-miterlimit="10"/>
    <line x1="299.418" y1="242.298" x2="303.465" y2="234.259" fill="none" stroke="#221f1f" stroke-miterlimit="10"/>
    <line x1="266.42" y1="225.685" x2="270.467" y2="217.646" fill="none" stroke="#221f1f" stroke-miterlimit="10"/>
    <line x1="244.422" y1="214.61" x2="248.469" y2="206.572" fill="none" stroke="#221f1f" stroke-miterlimit="10"/>
    <line x1="365.412" y1="275.522" x2="369.459" y2="267.484" fill="none" stroke="#221f1f" stroke-miterlimit="10"/>
  </g>
  <g>
    <line x1="179.891" y1="189.296" x2="188.156" y2="173.306" fill="none" stroke="#221f1f" stroke-miterlimit="10"/>
    <line x1="177.99" y1="178.182" x2="182.122" y2="170.187" fill="none" stroke="#221f1f" stroke-miterlimit="10"/>
    <line x1="159.889" y1="168.827" x2="164.022" y2="160.832" fill="none" stroke="#221f1f" stroke-miterlimit="10"/>
    <line x1="171.956" y1="175.064" x2="176.089" y2="167.069" fill="none" stroke="#221f1f" stroke-miterlimit="10"/>
    <line x1="165.923" y1="171.945" x2="170.055" y2="163.95" fill="none" stroke="#221f1f" stroke-miterlimit="10"/>
    <line x1="147.822" y1="162.59" x2="151.955" y2="154.595" fill="none" stroke="#221f1f" stroke-miterlimit="10"/>
    <line x1="135.756" y1="156.353" x2="139.888" y2="148.358" fill="none" stroke="#221f1f" stroke-miterlimit="10"/>
    <line x1="202.124" y1="190.656" x2="206.256" y2="182.661" fill="none" stroke="#221f1f" stroke-miterlimit="10"/>
  </g>
  <g>
    <line x1="49.781" y1="122.047" x2="58.058" y2="106.063" fill="none" stroke="#221f1f" stroke-miterlimit="10"/>
    <line x1="42.531" y1="108.157" x2="46.669" y2="100.165" fill="none" stroke="#221f1f" stroke-miterlimit="10"/>
    <line x1="8.364" y1="90.464" x2="12.502" y2="82.472" fill="none" stroke="#221f1f" stroke-miterlimit="10"/>
    <line x1="31.142" y1="102.259" x2="35.28" y2="94.267" fill="none" stroke="#221f1f" stroke-miterlimit="10"/>
    <line x1="19.753" y1="96.362" x2="23.891" y2="88.37" fill="none" stroke="#221f1f" stroke-miterlimit="10"/>
    <line x1="88.087" y1="131.749" x2="92.225" y2="123.757" fill="none" stroke="#221f1f" stroke-miterlimit="10"/>
  </g>
  <g>
    <g>
      <g>
        <line x1="245.652" y1="141.807" x2="243.56" y2="140.444" fill="none" stroke="#221f1f" stroke-miterlimit="10" stroke-width=".5"/>
        <line x1="242.671" y1="139.865" x2="240.579" y2="138.502" fill="none" stroke="#221f1f" stroke-miterlimit="10" stroke-width=".5"/>
        <line x1="239.749" y1="137.823" x2="237.657" y2="136.46" fill="none" stroke="#221f1f" stroke-miterlimit="10" stroke-width=".5"/>
        <line x1="236.769" y1="135.881" x2="234.677" y2="134.518" fill="none" stroke="#221f1f" stroke-miterlimit="10" stroke-width=".5"/>
      </g>
      <g>
        <line x1="233.855" y1="133.5" x2="231.763" y2="132.136" fill="none" stroke="#221f1f" stroke-miterlimit="10" stroke-width=".5"/>
        <line x1="230.874" y1="131.558" x2="228.782" y2="130.194" fill="none" stroke="#221f1f" stroke-miterlimit="10" stroke-width=".5"/>
        <line x1="227.952" y1="129.516" x2="225.86" y2="128.152" fill="none" stroke="#221f1f" stroke-miterlimit="10" stroke-width=".5"/>
        <line x1="224.971" y1="127.573" x2="222.879" y2="126.21" fill="none" stroke="#221f1f" stroke-miterlimit="10" stroke-width=".5"/>
      </g>
    </g>
    <g>
      <g>
        <line x1="221.625" y1="124.847" x2="219.533" y2="123.484" fill="none" stroke="#221f1f" stroke-miterlimit="10" stroke-width=".5"/>
        <line x1="218.644" y1="122.905" x2="216.552" y2="121.542" fill="none" stroke="#221f1f" stroke-miterlimit="10" stroke-width=".5"/>
        <line x1="215.722" y1="120.863" x2="213.63" y2="119.5" fill="none" stroke="#221f1f" stroke-miterlimit="10" stroke-width=".5"/>
        <line x1="212.741" y1="118.921" x2="210.649" y2="117.558" fill="none" stroke="#221f1f" stroke-miterlimit="10" stroke-width=".5"/>
      </g>
      <g>
        <line x1="209.827" y1="116.54" x2="207.735" y2="115.176" fill="none" stroke="#221f1f" stroke-miterlimit="10" stroke-width=".5"/>
        <line x1="206.847" y1="114.597" x2="204.755" y2="113.234" fill="none" stroke="#221f1f" stroke-miterlimit="10" stroke-width=".5"/>
        <line x1="203.925" y1="112.555" x2="201.832" y2="111.192" fill="none" stroke="#221f1f" stroke-miterlimit="10" stroke-width=".5"/>
        <line x1="200.944" y1="110.613" x2="198.852" y2="109.25" fill="none" stroke="#221f1f" stroke-miterlimit="10" stroke-width=".5"/>
      </g>
    </g>
  </g>
  <g>
    <line x1="64.045" y1="15.519" x2="54.742" y2="9.136" fill="none" stroke="#221f1f" stroke-miterlimit="10" stroke-width=".5"/>
    <line x1="50.791" y1="6.425" x2="41.487" y2=".043" fill="none" stroke="#221f1f" stroke-miterlimit="10" stroke-width=".5"/>
  </g>
  <polyline points="377.793 104.352 378.938 103.373 381.299 106.133 380.153 107.112 382.453 109.801 383.598 108.821 385.946 111.567 384.801 112.546 387.445 115.637 388.59 114.658 398.242 125.943 397.097 126.922 406.737 138.193 407.882 137.214 417.522 148.485 416.556 149.31" fill="none" stroke="#231f20" stroke-miterlimit="10" stroke-width=".128"/>
  <g>
    <path d="m207.619,20.397c2.366,2.167,3.893,4.351,3.41,4.879-.483.528-2.793-.801-5.16-2.967-2.366-2.167-3.893-4.351-3.41-4.879.483-.528,2.793.801,5.16,2.967Z" fill="#231f20" stroke-width="0"/>
    <path d="m231.786,42.493c2.366,2.167,3.893,4.351,3.41,4.879-.483.528-2.793-.801-5.16-2.967-2.366-2.167-3.893-4.351-3.41-4.879.483-.528,2.793.801,5.16,2.967Z" fill="#231f20" stroke-width="0"/>
    <path d="m257.056,65.576c2.366,2.167,3.893,4.351,3.41,4.879-.483.528-2.793-.801-5.16-2.967-2.366-2.167-3.893-4.351-3.41-4.879.483-.528,2.793.801,5.16,2.967Z" fill="#231f20" stroke-width="0"/>
    <path d="m283.973,90.19c2.366,2.167,3.893,4.351,3.41,4.879-.483.528-2.793-.801-5.16-2.967-2.366-2.167-3.893-4.351-3.41-4.879.483-.528,2.793.801,5.16,2.967Z" fill="#231f20" stroke-width="0"/>
    <path d="m183.115-1.983c2.366,2.167,3.893,4.351,3.41,4.879-.483.528-2.793-.801-5.16-2.967-2.366-2.167-3.893-4.351-3.41-4.879.483-.528,2.793.801,5.16,2.967Z" fill="#231f20" stroke-width="0"/>
  </g>
  <g>
    <path d="m351.118,150.008c.666.599.817,1.516.339,2.048s-1.406.477-2.072-.122c-.666-.599-.817-1.516-.339-2.048s1.406-.477,2.072.122Z" fill="#231f20" stroke-width="0"/>
    <path d="m357.928,156.106c.666.599.817,1.516.339,2.048-.479.532-1.406.477-2.072-.122s-.817-1.516-.339-2.048c.479-.532,1.406-.477,2.072.122Z" fill="#231f20" stroke-width="0"/>
    <path d="m365.056,162.468c.666.599.817,1.516.339,2.048-.479.532-1.406.477-2.072-.122s-.817-1.516-.339-2.048c.479-.532,1.406-.477,2.072.122Z" fill="#231f20" stroke-width="0"/>
    <path d="m372.64,169.262c.666.599.817,1.516.339,2.048s-1.406.477-2.072-.122c-.666-.599-.817-1.516-.339-2.048s1.406-.477,2.072.122Z" fill="#231f20" stroke-width="0"/>
    <path d="m323.456,125.285c.666.599.817,1.516.339,2.048s-1.406.477-2.072-.122-.817-1.516-.339-2.048c.479-.532,1.406-.477,2.072.122Z" fill="#231f20" stroke-width="0"/>
    <path d="m330.266,131.382c.666.599.817,1.516.339,2.048s-1.406.477-2.072-.122c-.666-.599-.817-1.516-.339-2.048s1.406-.477,2.072.122Z" fill="#231f20" stroke-width="0"/>
    <path d="m336.943,137.338c.666.599.817,1.516.339,2.048s-1.406.477-2.072-.122-.817-1.516-.339-2.048,1.406-.477,2.072.122Z" fill="#231f20" stroke-width="0"/>
    <path d="m344.204,143.842c.666.599.817,1.516.339,2.048-.479.532-1.406.477-2.072-.122s-.817-1.516-.339-2.048c.479-.532,1.406-.477,2.072.122Z" fill="#231f20" stroke-width="0"/>
  </g>
  <g>
    <g>
      <line x1="412.892" y1="58.997" x2="408.267" y2="51.844" fill="none" stroke="#221f1f" stroke-miterlimit="10" stroke-width=".5"/>
      <line x1="406.303" y1="48.806" x2="401.677" y2="41.652" fill="none" stroke="#221f1f" stroke-miterlimit="10" stroke-width=".5"/>
      <line x1="399.799" y1="38.535" x2="395.174" y2="31.382" fill="none" stroke="#221f1f" stroke-miterlimit="10" stroke-width=".5"/>
      <line x1="393.21" y1="28.344" x2="388.584" y2="21.19" fill="none" stroke="#221f1f" stroke-miterlimit="10" stroke-width=".5"/>
    </g>
    <g>
      <line x1="386.619" y1="17.406" x2="381.993" y2="10.252" fill="none" stroke="#221f1f" stroke-miterlimit="10" stroke-width=".5"/>
      <line x1="380.029" y1="7.214" x2="375.404" y2=".06" fill="none" stroke="#221f1f" stroke-miterlimit="10" stroke-width=".5"/>
    </g>
  </g>
  <g>
    <g>
      <path d="m516.199,136.271c-6.718-14.67-10.195-22.265-10.195-22.265" fill="none" stroke="#231f20" stroke-miterlimit="10" stroke-width=".188"/>
      <path d="m514.507,137.046c-6.718-14.67-10.196-22.265-10.196-22.265" fill="none" stroke="#231f20" stroke-miterlimit="10" stroke-width=".188"/>
      <path d="m503.179,107.837c-6.718-14.67-10.196-22.265-10.196-22.265" fill="none" stroke="#231f20" stroke-miterlimit="10" stroke-width=".188"/>
      <path d="m501.487,108.612c-6.718-14.67-10.195-22.265-10.195-22.265" fill="none" stroke="#231f20" stroke-miterlimit="10" stroke-width=".188"/>
      <path d="m489.741,78.492c-6.718-14.67-10.195-22.265-10.195-22.265" fill="none" stroke="#231f20" stroke-miterlimit="10" stroke-width=".188"/>
      <path d="m488.049,79.267c-6.718-14.67-10.195-22.265-10.195-22.265" fill="none" stroke="#231f20" stroke-miterlimit="10" stroke-width=".188"/>
      <path d="m476.72,50.058c-6.718-14.67-10.195-22.265-10.195-22.265" fill="none" stroke="#231f20" stroke-miterlimit="10" stroke-width=".188"/>
      <path d="m475.028,50.833c-6.718-14.67-10.195-22.265-10.195-22.265" fill="none" stroke="#231f20" stroke-miterlimit="10" stroke-width=".188"/>
    </g>
    <g>
      <path d="m507.058,128.05c-6.718-14.67-10.195-22.265-10.195-22.265" fill="none" stroke="#231f20" stroke-miterlimit="10" stroke-width=".188"/>
      <path d="m505.365,128.825c-6.718-14.67-10.195-22.265-10.195-22.265" fill="none" stroke="#231f20" stroke-miterlimit="10" stroke-width=".188"/>
      <path d="m494.037,99.616c-6.718-14.67-10.195-22.265-10.195-22.265" fill="none" stroke="#231f20" stroke-miterlimit="10" stroke-width=".188"/>
      <path d="m492.345,100.391c-6.718-14.67-10.196-22.265-10.196-22.265" fill="none" stroke="#231f20" stroke-miterlimit="10" stroke-width=".188"/>
      <path d="m480.599,70.271c-6.718-14.67-10.195-22.265-10.195-22.265" fill="none" stroke="#231f20" stroke-miterlimit="10" stroke-width=".188"/>
      <path d="m478.907,71.046c-6.718-14.67-10.195-22.265-10.195-22.265" fill="none" stroke="#231f20" stroke-miterlimit="10" stroke-width=".188"/>
      <path d="m467.579,41.837c-6.718-14.67-10.195-22.265-10.195-22.265" fill="none" stroke="#231f20" stroke-miterlimit="10" stroke-width=".188"/>
      <path d="m465.887,42.612c-6.718-14.67-10.195-22.265-10.195-22.265" fill="none" stroke="#231f20" stroke-miterlimit="10" stroke-width=".188"/>
    </g>
  </g>
  <g>
    <rect x="-1044.473" y="-826.288" width="3386.58" height="2514.089" transform="translate(218.061 1079.574) rotate(-90)" fill="none" stroke="#231f20" stroke-linecap="round" stroke-miterlimit="10" stroke-width="7"/>
    <rect x="-1027.506" y="-809.166" width="3353.392" height="2482.402" transform="translate(217.155 1081.225) rotate(-90)" fill="none" stroke="#231f20" stroke-linecap="round" stroke-miterlimit="10" stroke-width="3"/>
    <rect x="-989.031" y="-773.548" width="3275.615" height="2412.095" transform="translate(216.278 1081.276) rotate(-90)" fill="none" stroke="#231f20" stroke-linecap="round" stroke-miterlimit="10"/>
    <rect x="-971.163" y="-756.185" width="3239.88" height="2376.261" transform="translate(216.831 1080.723) rotate(-90)" fill="none" stroke="#231f20" stroke-linecap="round" stroke-miterlimit="10"/>
  </g>
  <g>
    <path d="m538.532,75.545c.617-.206,1.284.127,1.49.744.206.617-.127,1.284-.744,1.49-.617.206-1.284-.127-1.49-.744-.206-.617.127-1.284.744-1.49Z" fill="#231f20" stroke-width="0"/>
    <path d="m537.02,71.017c.617-.206,1.284.127,1.49.744.206.617-.127,1.284-.744,1.49-.617.206-1.284-.127-1.49-.744-.206-.617.127-1.284.744-1.49Z" fill="#231f20" stroke-width="0"/>
    <path d="m535.507,66.49c.617-.206,1.284.127,1.49.744.206.617-.127,1.284-.744,1.49-.617.206-1.284-.127-1.49-.744-.206-.617.127-1.284.744-1.49Z" fill="#231f20" stroke-width="0"/>
    <path d="m533.994,61.963c.617-.206,1.284.127,1.49.744.206.617-.127,1.284-.744,1.49-.617.206-1.284-.127-1.49-.744-.206-.617.127-1.284.744-1.49Z" fill="#231f20" stroke-width="0"/>
    <path d="m532.481,57.435c.617-.206,1.284.127,1.49.744.206.617-.127,1.284-.744,1.49-.617.206-1.284-.127-1.49-.744-.206-.617.127-1.284.744-1.49Z" fill="#231f20" stroke-width="0"/>
    <path d="m530.969,52.908c.617-.206,1.284.127,1.49.744.206.617-.127,1.284-.744,1.49-.617.206-1.284-.127-1.49-.744-.206-.617.127-1.284.744-1.49Z" fill="#231f20" stroke-width="0"/>
    <path d="m529.456,48.381c.617-.206,1.284.127,1.49.744.206.617-.127,1.284-.744,1.49-.617.206-1.284-.127-1.49-.744-.206-.617.127-1.284.744-1.49Z" fill="#231f20" stroke-width="0"/>
    <path d="m527.943,43.853c.617-.206,1.284.127,1.49.744.206.617-.127,1.284-.744,1.49-.617.206-1.284-.127-1.49-.744-.206-.617.127-1.284.744-1.49Z" fill="#231f20" stroke-width="0"/>
    <path d="m526.431,39.326c.617-.206,1.284.127,1.49.744.206.617-.127,1.284-.744,1.49-.617.206-1.284-.127-1.49-.744-.206-.617.127-1.284.744-1.49Z" fill="#231f20" stroke-width="0"/>
    <path d="m524.918,34.799c.617-.206,1.284.127,1.49.744s-.127,1.284-.744,1.49c-.617.206-1.284-.127-1.49-.744-.206-.617.127-1.284.744-1.49Z" fill="#231f20" stroke-width="0"/>
    <path d="m523.405,30.272c.617-.206,1.284.127,1.49.744.206.617-.127,1.284-.744,1.49s-1.284-.127-1.49-.744c-.206-.617.127-1.284.744-1.49Z" fill="#231f20" stroke-width="0"/>
    <path d="m521.892,25.744c.617-.206,1.284.127,1.49.744.206.617-.127,1.284-.744,1.49-.617.206-1.284-.127-1.49-.744-.206-.617.127-1.284.744-1.49Z" fill="#231f20" stroke-width="0"/>
    <path d="m520.38,21.217c.617-.206,1.284.127,1.49.744.206.617-.127,1.284-.744,1.49-.617.206-1.284-.127-1.49-.744-.206-.617.127-1.284.744-1.49Z" fill="#231f20" stroke-width="0"/>
    <path d="m518.867,16.69c.617-.206,1.284.127,1.49.744.206.617-.127,1.284-.744,1.49-.617.206-1.284-.127-1.49-.744-.206-.617.127-1.284.744-1.49Z" fill="#231f20" stroke-width="0"/>
    <path d="m517.354,12.162c.617-.206,1.284.127,1.49.744.206.617-.127,1.284-.744,1.49s-1.284-.127-1.49-.744c-.206-.617.127-1.284.744-1.49Z" fill="#231f20" stroke-width="0"/>
    <path d="m515.841,7.635c.617-.206,1.284.127,1.49.744.206.617-.127,1.284-.744,1.49-.617.206-1.284-.127-1.49-.744-.206-.617.127-1.284.744-1.49Z" fill="#231f20" stroke-width="0"/>
    <path d="m514.329,3.108c.617-.206,1.284.127,1.49.744.206.617-.127,1.284-.744,1.49-.617.206-1.284-.127-1.49-.744-.206-.617.127-1.284.744-1.49Z" fill="#231f20" stroke-width="0"/>
    <path d="m512.816-1.42c.617-.206,1.284.127,1.49.744s-.127,1.284-.744,1.49c-.617.206-1.284-.127-1.49-.744-.206-.617.127-1.284.744-1.49Z" fill="#231f20" stroke-width="0"/>
  </g>
  <g>
    <path d="m631.018,42.063c.052.994-.486,1.83-1.201,1.867-.715.037-1.336-.739-1.387-1.733-.052-.994.486-1.83,1.201-1.867.715-.037,1.336.739,1.387,1.733Z" fill="#231f20" stroke-width="0"/>
    <path d="m631.568,52.207c.052.994-.486,1.83-1.201,1.867-.715.037-1.336-.739-1.387-1.733-.052-.994.486-1.83,1.201-1.867s1.336.739,1.387,1.733Z" fill="#231f20" stroke-width="0"/>
    <path d="m632.157,62.81c.052.994-.486,1.83-1.201,1.867-.715.037-1.336-.739-1.387-1.733-.052-.994.486-1.83,1.201-1.867.715-.037,1.336.739,1.387,1.733Z" fill="#231f20" stroke-width="0"/>
    <path d="m632.767,74.11c.052.994-.486,1.83-1.201,1.867-.715.037-1.336-.739-1.387-1.733-.052-.994.486-1.83,1.201-1.867s1.336.739,1.387,1.733Z" fill="#231f20" stroke-width="0"/>
    <path d="m628.754.89c.052.994-.486,1.83-1.201,1.867-.715.037-1.336-.739-1.387-1.733-.052-.994.486-1.83,1.201-1.867s1.336.739,1.387,1.733Z" fill="#231f20" stroke-width="0"/>
    <path d="m629.304,11.035c.052.994-.486,1.83-1.201,1.867-.715.037-1.336-.739-1.387-1.733-.052-.994.486-1.83,1.201-1.867s1.336.739,1.387,1.733Z" fill="#231f20" stroke-width="0"/>
    <path d="m629.858,20.964c.052.994-.486,1.83-1.201,1.867-.715.037-1.336-.739-1.387-1.733-.052-.994.486-1.83,1.201-1.867.715-.037,1.336.739,1.387,1.733Z" fill="#231f20" stroke-width="0"/>
    <path d="m630.443,31.782c.052.994-.486,1.83-1.201,1.867s-1.336-.739-1.387-1.733c-.052-.994.486-1.83,1.201-1.867s1.336.739,1.387,1.733Z" fill="#231f20" stroke-width="0"/>
  </g>
  <g>
    <line x1="547.976" y1="-118.473" x2="573.351" y2="12.027" fill="none" stroke="#231f20" stroke-miterlimit="10" stroke-width=".25"/>
    <line x1="574.997" y1="11.378" x2="571.582" y2="12.042" fill="none" stroke="#231f20" stroke-miterlimit="10" stroke-width=".25"/>
  </g>
</svg>