<?xml version="1.0" encoding="UTF-8"?>
<svg id="a" data-name="Layer 1" xmlns="http://www.w3.org/2000/svg" width="9.002in" height="6.002in" viewBox="0 0 648.177 432.177">
  <g opacity=".75">
    <g>
      <path d="m15.868-5.6c-.154,18.385-2.555,35.64-6.99,51.174-.559,1.94-1.069,3.876-1.653,5.772-.633,1.88-1.26,3.744-1.882,5.591-.31.924-.619,1.843-.927,2.759-.352.899-.703,1.794-1.053,2.685-.698,1.782-1.39,3.547-2.075,5.297-.706,1.741-1.517,3.418-2.258,5.106-.778,1.671-1.453,3.372-2.294,4.974-.821,1.612-1.634,3.208-2.438,4.788-.402.79-.802,1.577-1.2,2.359-.435.762-.868,1.521-1.299,2.276-6.79,12.139-14.321,22.539-21.904,31.361-7.595,8.821-15.209,16.101-22.371,22.112-14.456,11.898-26.807,18.93-35.19,23.199-1.048.54-2.031,1.047-2.948,1.52-.917.475-1.807.837-2.609,1.214-1.613.733-2.959,1.345-4.036,1.835-1.08.485-1.882.871-2.432,1.093-.551.218-.828.328-.828.328" fill="none" stroke="#231f20" stroke-miterlimit="10" stroke-width=".25"/>
      <path d="m18.35-5.6c-.153,18.619-2.589,36.1-7.08,51.837-.566,1.965-1.083,3.927-1.675,5.847-.641,1.905-1.276,3.793-1.906,5.664-.315.936-.628,1.867-.939,2.795-.357.911-.712,1.818-1.066,2.72-.708,1.805-1.409,3.594-2.103,5.366-.715,1.763-1.536,3.463-2.287,5.173-.788,1.693-1.473,3.415-2.325,5.039-.831,1.633-1.655,3.25-2.47,4.851-.407.801-.813,1.597-1.216,2.39-.441.772-.88,1.541-1.316,2.306-6.878,12.297-14.508,22.833-22.19,31.77-7.694,8.936-15.407,16.31-22.663,22.399-14.644,12.054-27.158,19.178-35.652,23.504-1.062.547-2.058,1.06-2.988,1.54-.929.481-1.831.848-2.643,1.231-1.634.743-2.998,1.363-4.09,1.86-1.094.491-1.907.882-2.464,1.107-.559.221-.839.332-.839.332" fill="none" stroke="#231f20" stroke-miterlimit="10" stroke-width=".25"/>
    </g>
    <g>
      <g>
        <path d="m59.728-4.68c-.191,22.677-3.127,43.965-8.566,63.136-.683,2.395-1.32,4.781-2.024,7.124-.777,2.32-1.548,4.62-2.312,6.9-.381,1.14-.761,2.275-1.139,3.405-.43,1.111-.859,2.216-1.285,3.317-.858,2.199-1.708,4.379-2.55,6.538-.85,2.156-1.859,4.222-2.766,6.307-.952,2.065-1.796,4.157-2.811,6.144-1.009,1.99-2.008,3.96-2.997,5.911-.494.976-.986,1.947-1.475,2.913-.512.954-1.063,1.881-1.588,2.815-8.334,14.997-17.582,27.855-26.899,38.767-9.335,10.908-18.682,19.934-27.506,27.361-17.771,14.747-32.991,23.45-43.311,28.751-1.291.668-2.502,1.296-3.633,1.881-1.121.607-2.225,1.041-3.21,1.513-1.988.908-3.647,1.666-4.975,2.272-1.329.604-2.327,1.059-2.993,1.361-.68.271-1.02.406-1.02.406" fill="none" stroke="#231f20" stroke-miterlimit="10" stroke-width=".25"/>
        <path d="m62.21-4.68c-.191,22.91-3.16,44.421-8.655,63.795-.69,2.42-1.335,4.831-2.046,7.199-.785,2.345-1.564,4.67-2.336,6.973-.386,1.152-.769,2.299-1.152,3.44-.435,1.123-.867,2.24-1.298,3.352-.867,2.223-1.726,4.425-2.578,6.607-.859,2.178-1.878,4.267-2.795,6.374-.962,2.087-1.815,4.201-2.841,6.209-1.019,2.011-2.029,4.002-3.028,5.974-.5.986-.997,1.967-1.491,2.943-.518.964-1.073,1.901-1.604,2.845-8.421,15.155-17.768,28.148-27.182,39.176-9.433,11.023-18.88,20.144-27.797,27.65-17.959,14.904-33.343,23.7-43.773,29.059-1.305.676-2.529,1.309-3.673,1.901-1.133.613-2.248,1.053-3.245,1.529-2.009.918-3.686,1.684-5.028,2.297-1.343.611-2.352,1.07-3.026,1.376-.687.274-1.031.411-1.031.411" fill="none" stroke="#231f20" stroke-miterlimit="10" stroke-width=".25"/>
      </g>
      <g>
        <path d="m32.218,119.491c-1.469,2.514-3.083,4.915-4.599,7.349-.773,1.208-1.524,2.424-2.307,3.612-.819,1.164-1.635,2.323-2.447,3.478-.813,1.155-1.622,2.305-2.429,3.451-.814,1.14-1.584,2.306-2.461,3.386-1.707,2.195-3.4,4.372-5.08,6.532-6.935,8.458-13.995,16.389-21.489,23.372-14.742,14.23-30.381,25.376-45.617,34.214-15.264,8.83-30.236,15.245-44.248,19.851-14.023,4.615-27.079,7.425-38.788,9.267-23.503,3.36-41.514,2.786-53.41,1.896-1.491-.115-2.889-.222-4.194-.323-1.306-.093-2.519-.188-3.632-.354-2.229-.286-4.089-.525-5.578-.716-2.979-.383-4.474-.575-4.474-.575" fill="none" stroke="#231f20" stroke-miterlimit="10" stroke-width=".25"/>
        <path d="m34.35,120.761c-1.485,2.54-3.114,4.966-4.646,7.425-.781,1.22-1.54,2.449-2.331,3.649-.827,1.176-1.651,2.347-2.472,3.514-.821,1.167-1.639,2.329-2.454,3.486-.822,1.152-1.601,2.329-2.487,3.42-1.724,2.217-3.435,4.417-5.132,6.599-7.006,8.546-14.14,16.557-21.709,23.612-14.895,14.375-30.694,25.638-46.089,34.568-15.423,8.922-30.552,15.404-44.713,20.059-14.171,4.663-27.365,7.504-39.197,9.364-23.75,3.397-41.944,2.815-53.965,1.916-1.506-.116-2.919-.225-4.238-.326-1.32-.094-2.546-.19-3.67-.358-2.253-.289-4.132-.53-5.637-.723-3.01-.387-4.521-.582-4.521-.582" fill="none" stroke="#231f20" stroke-miterlimit="10" stroke-width=".25"/>
      </g>
    </g>
    <g>
      <g>
        <path d="m103.588-3.76c-.228,26.968-3.699,52.288-10.141,75.096-.808,2.849-1.572,5.686-2.394,8.477-.922,2.761-1.836,5.497-2.742,8.209-.452,1.356-.903,2.706-1.351,4.05-.479,1.333-1.016,2.638-1.518,3.949-1.018,2.617-2.026,5.21-3.025,7.779-.472,1.296-1.061,2.536-1.613,3.785-.556,1.247-1.11,2.488-1.661,3.723-1.126,2.459-2.138,4.943-3.327,7.315-1.197,2.368-2.382,4.713-3.556,7.035-.586,1.161-1.17,2.317-1.75,3.466-.592,1.143-1.256,2.241-1.876,3.355-9.877,17.854-20.843,33.17-31.893,46.174-11.074,12.995-22.155,23.768-32.639,32.611-2.606,2.228-5.262,4.232-7.762,6.258-1.26,1.001-2.499,1.985-3.718,2.954-1.263.91-2.504,1.804-3.724,2.683-2.44,1.757-4.795,3.452-7.063,5.086-2.344,1.523-4.599,2.987-6.765,4.394-4.277,2.904-8.439,5.182-12.154,7.374-3.685,2.248-7.185,3.947-10.246,5.557-3.07,1.593-5.74,3.027-8.13,4.054-2.363,1.083-4.335,1.986-5.913,2.709-1.578.724-2.764,1.267-3.555,1.63-.808.323-1.213.484-1.213.484" fill="none" stroke="#231f20" stroke-miterlimit="10" stroke-width=".25"/>
        <path d="m106.07-3.76c-.228,27.199-3.732,52.742-10.23,75.752-.815,2.875-1.586,5.736-2.416,8.552-.93,2.785-1.852,5.546-2.765,8.282-.457,1.368-.911,2.73-1.363,4.086-.484,1.345-1.025,2.661-1.531,3.984-1.027,2.64-2.044,5.256-3.052,7.848-.477,1.307-1.071,2.558-1.627,3.818-.561,1.258-1.12,2.51-1.676,3.756-1.136,2.481-2.157,4.987-3.357,7.38-1.207,2.389-2.403,4.755-3.587,7.098-.592,1.171-1.181,2.337-1.766,3.497-.598,1.153-1.267,2.261-1.892,3.385-9.965,18.013-21.027,33.463-32.175,46.582-11.172,13.11-22.352,23.979-32.93,32.901-2.629,2.248-5.309,4.27-7.831,6.314-1.271,1.01-2.522,2.003-3.752,2.979-1.274.918-2.526,1.821-3.757,2.707-2.462,1.773-4.838,3.483-7.127,5.131-2.365,1.536-4.64,3.015-6.826,4.435-4.316,2.929-8.515,5.229-12.264,7.441-3.719,2.267-7.25,3.983-10.339,5.607-3.098,1.607-5.792,3.054-8.204,4.09-2.384,1.093-4.374,2.004-5.967,2.734-1.593.73-2.789,1.279-3.588,1.645-.815.326-1.224.489-1.224.489" fill="none" stroke="#231f20" stroke-miterlimit="10" stroke-width=".25"/>
      </g>
      <g>
        <path d="m69.971,143.331c-.818,1.52-1.794,2.937-2.693,4.393-.915,1.446-1.826,2.887-2.734,4.322-.909,1.434-1.815,2.863-2.717,4.286-.968,1.38-1.932,2.754-2.892,4.123-.96,1.369-1.917,2.732-2.87,4.091-.969,1.346-1.862,2.741-2.901,4.02-2.017,2.602-4.019,5.183-6.004,7.744-8.18,10.043-16.531,19.442-25.38,27.735-17.422,16.886-35.899,30.141-53.927,40.633-18.054,10.49-35.77,18.118-52.355,23.596-16.597,5.488-32.055,8.833-45.917,11.024-27.829,3.995-49.159,3.314-63.245,2.254-1.765-.136-3.421-.264-4.967-.383-.773-.06-1.519-.117-2.237-.173-.718-.061-1.403-.172-2.063-.25-2.64-.34-4.842-.623-6.605-.85-3.527-.455-5.298-.683-5.298-.683" fill="none" stroke="#231f20" stroke-miterlimit="10" stroke-width=".25"/>
        <path d="m72.106,144.596c-.826,1.532-1.809,2.962-2.716,4.431-.923,1.459-1.842,2.912-2.757,4.36-.917,1.447-1.831,2.888-2.741,4.323-.976,1.392-1.948,2.778-2.917,4.159-.969,1.381-1.934,2.756-2.895,4.126-.977,1.358-1.879,2.764-2.926,4.054-2.035,2.625-4.053,5.228-6.056,7.811-8.25,10.13-16.675,19.61-25.6,27.976-17.574,17.031-36.212,30.404-54.399,40.989-18.214,10.583-36.087,18.278-52.821,23.805-16.746,5.537-32.341,8.912-46.328,11.122-28.077,4.031-49.591,3.343-63.803,2.274-1.781-.137-3.451-.266-5.011-.387-.78-.06-1.532-.119-2.257-.175-.724-.062-1.415-.173-2.082-.252-2.663-.343-4.885-.629-6.664-.858-3.558-.459-5.345-.69-5.345-.69" fill="none" stroke="#231f20" stroke-miterlimit="10" stroke-width=".25"/>
      </g>
    </g>
  </g>
  <g>
    <g>
      <g>
        <path d="m633.434,282.65c.312-4.497.624-8.994.936-13.491" fill="none" stroke="#231f20" stroke-miterlimit="10" stroke-width=".75"/>
        <path d="m638.756,276.35c.067-2.246.134-4.493.202-6.739" fill="none" stroke="#231f20" stroke-miterlimit="10" stroke-width=".75"/>
        <path d="m643.747,276.548c.058-2.192.117-4.383.175-6.575" fill="none" stroke="#231f20" stroke-miterlimit="10" stroke-width=".75"/>
      </g>
      <g>
        <line x1="617.96" y1="287.379" x2="620.646" y2="269.467" fill="none" stroke="#231f20" stroke-miterlimit="10" stroke-width=".75"/>
        <path d="m594.241,277.804c.935-4.41,1.87-8.82,2.804-13.229" fill="none" stroke="#231f20" stroke-miterlimit="10" stroke-width=".75"/>
        <line x1="614.559" y1="274.755" x2="615.624" y2="268.414" fill="none" stroke="#231f20" stroke-miterlimit="10" stroke-width=".75"/>
        <path d="m600.388,272.305c.379-2.215.758-4.431,1.138-6.646" fill="none" stroke="#231f20" stroke-miterlimit="10" stroke-width=".75"/>
        <path d="m605.303,273.196c.363-2.162.725-4.324,1.088-6.487" fill="none" stroke="#231f20" stroke-miterlimit="10" stroke-width=".75"/>
        <line x1="610.081" y1="273.977" x2="611.035" y2="267.619" fill="none" stroke="#231f20" stroke-miterlimit="10" stroke-width=".75"/>
      </g>
      <g>
        <line x1="578.26" y1="280.333" x2="583.413" y2="262.97" fill="none" stroke="#231f20" stroke-miterlimit="10" stroke-width=".75"/>
        <path d="m556.105,267.551c1.539-4.237,3.079-8.474,4.618-12.71" fill="none" stroke="#231f20" stroke-miterlimit="10" stroke-width=".75"/>
        <line x1="576.65" y1="267.359" x2="578.586" y2="261.228" fill="none" stroke="#231f20" stroke-miterlimit="10" stroke-width=".75"/>
        <path d="m562.957,262.961c.684-2.141,1.368-4.282,2.051-6.423" fill="none" stroke="#231f20" stroke-miterlimit="10" stroke-width=".75"/>
        <path d="m567.7,264.527c.66-2.091,1.32-4.181,1.98-6.272" fill="none" stroke="#231f20" stroke-miterlimit="10" stroke-width=".75"/>
        <line x1="572.323" y1="265.966" x2="574.152" y2="259.802" fill="none" stroke="#231f20" stroke-miterlimit="10" stroke-width=".75"/>
      </g>
      <g>
        <line x1="539.926" y1="267.83" x2="547.446" y2="251.354" fill="none" stroke="#231f20" stroke-miterlimit="10" stroke-width=".75"/>
        <path d="m519.766,252.089c2.114-3.981,4.228-7.963,6.342-11.944" fill="none" stroke="#231f20" stroke-miterlimit="10" stroke-width=".75"/>
        <line x1="540.137" y1="254.758" x2="542.908" y2="248.957" fill="none" stroke="#231f20" stroke-miterlimit="10" stroke-width=".75"/>
        <path d="m527.19,248.498c.975-2.025,1.95-4.05,2.925-6.075" fill="none" stroke="#231f20" stroke-miterlimit="10" stroke-width=".75"/>
        <path d="m531.669,250.709c.945-1.978,1.889-3.957,2.834-5.935" fill="none" stroke="#231f20" stroke-miterlimit="10" stroke-width=".75"/>
        <line x1="536.047" y1="252.777" x2="538.716" y2="246.927" fill="none" stroke="#231f20" stroke-miterlimit="10" stroke-width=".75"/>
      </g>
      <g>
        <line x1="503.706" y1="250.116" x2="513.446" y2="234.846" fill="none" stroke="#231f20" stroke-miterlimit="10" stroke-width=".75"/>
        <path d="m485.933,231.722c2.648-3.648,5.295-7.297,7.943-10.945" fill="none" stroke="#231f20" stroke-miterlimit="10" stroke-width=".75"/>
        <line x1="505.735" y1="237.201" x2="509.286" y2="231.841" fill="none" stroke="#231f20" stroke-miterlimit="10" stroke-width=".75"/>
        <path d="m493.785,229.199c1.247-1.869,2.495-3.739,3.742-5.608" fill="none" stroke="#231f20" stroke-miterlimit="10" stroke-width=".75"/>
        <path d="m497.912,232.012c1.211-1.828,2.422-3.655,3.632-5.483" fill="none" stroke="#231f20" stroke-miterlimit="10" stroke-width=".75"/>
        <line x1="501.959" y1="234.669" x2="505.417" y2="229.248" fill="none" stroke="#231f20" stroke-miterlimit="10" stroke-width=".75"/>
      </g>
      <g>
        <line x1="470.305" y1="227.532" x2="482.074" y2="213.766" fill="none" stroke="#231f20" stroke-miterlimit="10" stroke-width=".75"/>
        <path d="m455.264,206.844c3.13-3.244,6.259-6.489,9.389-9.733" fill="none" stroke="#231f20" stroke-miterlimit="10" stroke-width=".75"/>
        <line x1="474.11" y1="215.025" x2="478.373" y2="210.212" fill="none" stroke="#231f20" stroke-miterlimit="10" stroke-width=".75"/>
        <path d="m463.391,205.438c1.495-1.678,2.991-3.355,4.487-5.033" fill="none" stroke="#231f20" stroke-miterlimit="10" stroke-width=".75"/>
        <path d="m467.086,208.798c1.453-1.641,2.907-3.283,4.36-4.924" fill="none" stroke="#231f20" stroke-miterlimit="10" stroke-width=".75"/>
        <line x1="470.724" y1="211.992" x2="474.903" y2="207.105" fill="none" stroke="#231f20" stroke-miterlimit="10" stroke-width=".75"/>
      </g>
      <g>
        <line x1="440.37" y1="200.52" x2="453.941" y2="188.526" fill="none" stroke="#231f20" stroke-miterlimit="10" stroke-width=".75"/>
        <path d="m428.355,177.939c3.551-2.777,7.101-5.554,10.652-8.332" fill="none" stroke="#231f20" stroke-miterlimit="10" stroke-width=".75"/>
        <line x1="445.88" y1="188.664" x2="450.771" y2="184.491" fill="none" stroke="#231f20" stroke-miterlimit="10" stroke-width=".75"/>
        <path d="m436.599,177.679c1.714-1.453,3.429-2.906,5.143-4.36" fill="none" stroke="#231f20" stroke-miterlimit="10" stroke-width=".75"/>
        <path d="m439.791,181.52c1.668-1.423,3.335-2.846,5.003-4.27" fill="none" stroke="#231f20" stroke-miterlimit="10" stroke-width=".75"/>
        <line x1="442.949" y1="185.19" x2="447.767" y2="180.932" fill="none" stroke="#231f20" stroke-miterlimit="10" stroke-width=".75"/>
      </g>
      <g>
        <line x1="414.487" y1="169.604" x2="429.595" y2="159.615" fill="none" stroke="#231f20" stroke-miterlimit="10" stroke-width=".75"/>
        <path d="m405.731,145.571c3.903-2.256,7.805-4.512,11.708-6.768" fill="none" stroke="#231f20" stroke-miterlimit="10" stroke-width=".75"/>
        <line x1="421.593" y1="158.63" x2="427.017" y2="155.178" fill="none" stroke="#231f20" stroke-miterlimit="10" stroke-width=".75"/>
        <path d="m413.931,146.46c1.9-1.2,3.8-2.401,5.7-3.601" fill="none" stroke="#231f20" stroke-miterlimit="10" stroke-width=".75"/>
        <path d="m416.557,150.708c1.85-1.177,3.699-2.354,5.549-3.532" fill="none" stroke="#231f20" stroke-miterlimit="10" stroke-width=".75"/>
        <line x1="419.174" y1="154.782" x2="424.537" y2="151.236" fill="none" stroke="#231f20" stroke-miterlimit="10" stroke-width=".75"/>
      </g>
      <g>
        <line x1="393.158" y1="135.387" x2="409.509" y2="127.598" fill="none" stroke="#231f20" stroke-miterlimit="10" stroke-width=".75"/>
        <path d="m387.832,110.369c4.179-1.691,8.357-3.382,12.536-5.073" fill="none" stroke="#231f20" stroke-miterlimit="10" stroke-width=".75"/>
        <line x1="401.722" y1="125.509" x2="407.574" y2="122.846" fill="none" stroke="#231f20" stroke-miterlimit="10" stroke-width=".75"/>
        <path d="m395.828,112.391c2.049-.924,4.097-1.849,6.146-2.773" fill="none" stroke="#231f20" stroke-miterlimit="10" stroke-width=".75"/>
        <path d="m397.838,116.963c1.995-.908,3.991-1.817,5.986-2.725" fill="none" stroke="#231f20" stroke-miterlimit="10" stroke-width=".75"/>
        <line x1="399.862" y1="121.361" x2="405.667" y2="118.596" fill="none" stroke="#231f20" stroke-miterlimit="10" stroke-width=".75"/>
      </g>
      <g>
        <line x1="376.799" y1="98.535" x2="394.075" y2="93.098" fill="none" stroke="#231f20" stroke-miterlimit="10" stroke-width=".75"/>
        <path d="m375.007,73.02c4.373-1.093,8.747-2.186,13.12-3.279" fill="none" stroke="#231f20" stroke-miterlimit="10" stroke-width=".75"/>
        <line x1="386.654" y1="89.945" x2="392.82" y2="88.122" fill="none" stroke="#231f20" stroke-miterlimit="10" stroke-width=".75"/>
        <path d="m382.643,76.134c2.157-.63,4.315-1.261,6.472-1.891" fill="none" stroke="#231f20" stroke-miterlimit="10" stroke-width=".75"/>
        <path d="m383.997,80.942c2.102-.622,4.205-1.244,6.307-1.865" fill="none" stroke="#231f20" stroke-miterlimit="10" stroke-width=".75"/>
        <line x1="385.39" y1="85.579" x2="391.523" y2="83.649" fill="none" stroke="#231f20" stroke-miterlimit="10" stroke-width=".75"/>
      </g>
      <g>
        <line x1="365.728" y1="59.765" x2="383.592" y2="56.785" fill="none" stroke="#231f20" stroke-miterlimit="10" stroke-width=".75"/>
        <path d="m367.504,34.249c4.483-.474,8.966-.947,13.448-1.421" fill="none" stroke="#231f20" stroke-miterlimit="10" stroke-width=".75"/>
        <line x1="376.683" y1="52.63" x2="383.042" y2="51.683" fill="none" stroke="#231f20" stroke-miterlimit="10" stroke-width=".75"/>
        <path d="m374.633,38.396c2.224-.324,4.448-.648,6.672-.972" fill="none" stroke="#231f20" stroke-miterlimit="10" stroke-width=".75"/>
        <path d="m375.305,43.345c2.168-.323,4.337-.646,6.505-.97" fill="none" stroke="#231f20" stroke-miterlimit="10" stroke-width=".75"/>
        <line x1="376.038" y1="48.131" x2="382.38" y2="47.073" fill="none" stroke="#231f20" stroke-miterlimit="10" stroke-width=".75"/>
      </g>
      <g>
        <line x1="360.16" y1="19.831" x2="378.266" y2="19.366" fill="none" stroke="#231f20" stroke-miterlimit="10" stroke-width=".75"/>
        <line x1="372.002" y1="14.29" x2="378.431" y2="14.238" fill="none" stroke="#231f20" stroke-miterlimit="10" stroke-width=".75"/>
        <path d="m371.953-.091c2.247-.011,4.495-.022,6.742-.034" fill="none" stroke="#231f20" stroke-miterlimit="10" stroke-width=".75"/>
        <path d="m371.929,4.904c2.192-.018,4.385-.037,6.577-.055" fill="none" stroke="#231f20" stroke-miterlimit="10" stroke-width=".75"/>
        <line x1="371.99" y1="9.745" x2="378.417" y2="9.58" fill="none" stroke="#231f20" stroke-miterlimit="10" stroke-width=".75"/>
      </g>
    </g>
    <g>
      <g>
        <line x1="642.263" y1="217.194" x2="643.188" y2="200.517" fill="#e5e5e5" stroke="#221f1f" stroke-miterlimit="10" stroke-width=".5"/>
        <path d="m639.463,200.132c-.198,2.102-.396,4.205-.593,6.307" fill="#e5e5e5" stroke="#221f1f" stroke-miterlimit="10" stroke-width=".5"/>
        <path d="m636.104,199.785c-.198,2.102-.396,4.205-.593,6.307" fill="#e5e5e5" stroke="#221f1f" stroke-miterlimit="10" stroke-width=".5"/>
        <path d="m632.613,199.476c-.228,2.087-.455,4.174-.683,6.261" fill="#e5e5e5" stroke="#221f1f" stroke-miterlimit="10" stroke-width=".5"/>
        <path d="m629.184,199.122c-.228,2.087-.455,4.174-.683,6.261" fill="#e5e5e5" stroke="#221f1f" stroke-miterlimit="10" stroke-width=".5"/>
        <path d="m622.034,198.364c-.272,2.094-.544,4.188-.816,6.282" fill="#e5e5e5" stroke="#221f1f" stroke-miterlimit="10" stroke-width=".5"/>
        <path d="m618.608,197.89c-.272,2.094-.544,4.188-.816,6.282" fill="#e5e5e5" stroke="#221f1f" stroke-miterlimit="10" stroke-width=".5"/>
        <path d="m615.083,197.453c-.301,2.078-.602,4.156-.903,6.233" fill="#e5e5e5" stroke="#221f1f" stroke-miterlimit="10" stroke-width=".5"/>
        <path d="m611.669,196.978c-.301,2.078-.602,4.156-.903,6.233" fill="#e5e5e5" stroke="#221f1f" stroke-miterlimit="10" stroke-width=".5"/>
        <path d="m625.522,198.726c-.441,4.379-.882,8.757-1.324,13.136" fill="#e5e5e5" stroke="#221f1f" stroke-miterlimit="10" stroke-width=".5"/>
      </g>
      <g>
        <line x1="595.212" y1="210.723" x2="599.7" y2="194.636" fill="#e5e5e5" stroke="#221f1f" stroke-miterlimit="10" stroke-width=".5"/>
        <path d="m596.145,193.459c-.645,2.011-1.29,4.021-1.935,6.032" fill="#e5e5e5" stroke="#221f1f" stroke-miterlimit="10" stroke-width=".5"/>
        <path d="m592.939,192.398c-.645,2.011-1.29,4.021-1.935,6.032" fill="#e5e5e5" stroke="#221f1f" stroke-miterlimit="10" stroke-width=".5"/>
        <path d="m589.596,191.345c-.671,1.989-1.342,3.979-2.013,5.968" fill="#e5e5e5" stroke="#221f1f" stroke-miterlimit="10" stroke-width=".5"/>
        <path d="m586.323,190.262c-.671,1.989-1.342,3.979-2.013,5.968" fill="#e5e5e5" stroke="#221f1f" stroke-miterlimit="10" stroke-width=".5"/>
        <path d="m579.503,187.985c-.716,1.987-1.431,3.973-2.147,5.96" fill="#e5e5e5" stroke="#221f1f" stroke-miterlimit="10" stroke-width=".5"/>
        <path d="m576.259,186.786c-.716,1.987-1.431,3.973-2.147,5.96" fill="#e5e5e5" stroke="#221f1f" stroke-miterlimit="10" stroke-width=".5"/>
        <path d="m572.911,185.602c-.741,1.964-1.481,3.929-2.222,5.893" fill="#e5e5e5" stroke="#221f1f" stroke-miterlimit="10" stroke-width=".5"/>
        <path d="m569.679,184.404c-.741,1.964-1.481,3.929-2.222,5.893" fill="#e5e5e5" stroke="#221f1f" stroke-miterlimit="10" stroke-width=".5"/>
        <path d="m582.832,189.088c-1.372,4.181-2.744,8.363-4.117,12.544" fill="#e5e5e5" stroke="#221f1f" stroke-miterlimit="10" stroke-width=".5"/>
      </g>
      <g>
        <line x1="550.652" y1="194.289" x2="558.494" y2="179.542" fill="#e5e5e5" stroke="#221f1f" stroke-miterlimit="10" stroke-width=".5"/>
        <path d="m555.275,177.628c-1.062,1.825-2.124,3.65-3.187,5.475" fill="#e5e5e5" stroke="#221f1f" stroke-miterlimit="10" stroke-width=".5"/>
        <path d="m552.373,175.903c-1.062,1.825-2.124,3.65-3.187,5.475" fill="#e5e5e5" stroke="#221f1f" stroke-miterlimit="10" stroke-width=".5"/>
        <path d="m549.334,174.157c-1.083,1.799-2.166,3.597-3.248,5.396" fill="#e5e5e5" stroke="#221f1f" stroke-miterlimit="10" stroke-width=".5"/>
        <path d="m546.37,172.395c-1.083,1.799-2.166,3.597-3.248,5.396" fill="#e5e5e5" stroke="#221f1f" stroke-miterlimit="10" stroke-width=".5"/>
        <path d="m540.199,168.706c-1.126,1.786-2.252,3.573-3.378,5.359" fill="#e5e5e5" stroke="#221f1f" stroke-miterlimit="10" stroke-width=".5"/>
        <path d="m537.288,166.837c-1.126,1.786-2.252,3.573-3.378,5.359" fill="#e5e5e5" stroke="#221f1f" stroke-miterlimit="10" stroke-width=".5"/>
        <path d="m534.274,164.961c-1.146,1.759-2.291,3.519-3.437,5.278" fill="#e5e5e5" stroke="#221f1f" stroke-miterlimit="10" stroke-width=".5"/>
        <path d="m531.374,163.096c-1.146,1.759-2.291,3.519-3.437,5.278" fill="#e5e5e5" stroke="#221f1f" stroke-miterlimit="10" stroke-width=".5"/>
        <path d="m543.213,170.498c-2.239,3.789-4.478,7.577-6.717,11.366" fill="#e5e5e5" stroke="#221f1f" stroke-miterlimit="10" stroke-width=".5"/>
      </g>
      <g>
        <line x1="510.667" y1="168.661" x2="521.495" y2="155.945" fill="#e5e5e5" stroke="#221f1f" stroke-miterlimit="10" stroke-width=".5"/>
        <path d="m518.763,153.384c-1.43,1.554-2.859,3.108-4.289,4.662" fill="#e5e5e5" stroke="#221f1f" stroke-miterlimit="10" stroke-width=".5"/>
        <path d="m516.299,151.075c-1.43,1.554-2.859,3.108-4.289,4.662" fill="#e5e5e5" stroke="#221f1f" stroke-miterlimit="10" stroke-width=".5"/>
        <path d="m513.707,148.716c-1.444,1.524-2.888,3.048-4.333,4.571" fill="#e5e5e5" stroke="#221f1f" stroke-miterlimit="10" stroke-width=".5"/>
        <path d="m511.191,146.359c-1.444,1.524-2.888,3.048-4.333,4.571" fill="#e5e5e5" stroke="#221f1f" stroke-miterlimit="10" stroke-width=".5"/>
        <path d="m505.958,141.429c-1.484,1.503-2.967,3.005-4.451,4.508" fill="#e5e5e5" stroke="#221f1f" stroke-miterlimit="10" stroke-width=".5"/>
        <path d="m503.517,138.978c-1.484,1.503-2.967,3.005-4.451,4.508" fill="#e5e5e5" stroke="#221f1f" stroke-miterlimit="10" stroke-width=".5"/>
        <path d="m500.976,136.498c-1.497,1.472-2.994,2.944-4.491,4.416" fill="#e5e5e5" stroke="#221f1f" stroke-miterlimit="10" stroke-width=".5"/>
        <path d="m498.545,134.053c-1.497,1.472-2.994,2.944-4.491,4.416" fill="#e5e5e5" stroke="#221f1f" stroke-miterlimit="10" stroke-width=".5"/>
        <path d="m508.515,143.827c-3.001,3.219-6.002,6.437-9.003,9.656" fill="#e5e5e5" stroke="#221f1f" stroke-miterlimit="10" stroke-width=".5"/>
      </g>
      <g>
        <line x1="477.125" y1="135.035" x2="490.434" y2="124.944" fill="#e5e5e5" stroke="#221f1f" stroke-miterlimit="10" stroke-width=".5"/>
        <path d="m488.316,121.855c-1.73,1.21-3.461,2.42-5.191,3.631" fill="#e5e5e5" stroke="#221f1f" stroke-miterlimit="10" stroke-width=".5"/>
        <path d="m486.406,119.071c-1.73,1.21-3.461,2.42-5.191,3.631" fill="#e5e5e5" stroke="#221f1f" stroke-miterlimit="10" stroke-width=".5"/>
        <path d="m484.382,116.21c-1.738,1.178-3.476,2.356-5.214,3.533" fill="#e5e5e5" stroke="#221f1f" stroke-miterlimit="10" stroke-width=".5"/>
        <path d="m482.432,113.367c-1.738,1.178-3.476,2.356-5.214,3.533" fill="#e5e5e5" stroke="#221f1f" stroke-miterlimit="10" stroke-width=".5"/>
        <path d="m478.38,107.427c-1.772,1.148-3.544,2.297-5.316,3.445" fill="#e5e5e5" stroke="#221f1f" stroke-miterlimit="10" stroke-width=".5"/>
        <path d="m476.523,104.509c-1.772,1.148-3.544,2.297-5.316,3.445" fill="#e5e5e5" stroke="#221f1f" stroke-miterlimit="10" stroke-width=".5"/>
        <path d="m474.575,101.54c-1.778,1.116-3.557,2.231-5.335,3.347" fill="#e5e5e5" stroke="#221f1f" stroke-miterlimit="10" stroke-width=".5"/>
        <path d="m472.727,98.63c-1.778,1.116-3.557,2.231-5.335,3.347" fill="#e5e5e5" stroke="#221f1f" stroke-miterlimit="10" stroke-width=".5"/>
        <path d="m480.363,110.319c-3.623,2.498-7.246,4.997-10.868,7.495" fill="#e5e5e5" stroke="#221f1f" stroke-miterlimit="10" stroke-width=".5"/>
      </g>
      <g>
        <line x1="451.597" y1="94.984" x2="466.764" y2="87.99" fill="#e5e5e5" stroke="#221f1f" stroke-miterlimit="10" stroke-width=".5"/>
        <path d="m465.36,84.519c-1.95.81-3.9,1.62-5.85,2.43" fill="#e5e5e5" stroke="#221f1f" stroke-miterlimit="10" stroke-width=".5"/>
        <path d="m464.093,81.389c-1.95.81-3.9,1.62-5.85,2.43" fill="#e5e5e5" stroke="#221f1f" stroke-miterlimit="10" stroke-width=".5"/>
        <path d="m462.731,78.159c-1.951.777-3.901,1.553-5.852,2.33" fill="#e5e5e5" stroke="#221f1f" stroke-miterlimit="10" stroke-width=".5"/>
        <path d="m461.438,74.964c-1.951.777-3.901,1.553-5.852,2.33" fill="#e5e5e5" stroke="#221f1f" stroke-miterlimit="10" stroke-width=".5"/>
        <path d="m458.758,68.292c-1.977.741-3.955,1.481-5.932,2.222" fill="#e5e5e5" stroke="#221f1f" stroke-miterlimit="10" stroke-width=".5"/>
        <path d="m457.572,65.043c-1.977.741-3.955,1.481-5.932,2.222" fill="#e5e5e5" stroke="#221f1f" stroke-miterlimit="10" stroke-width=".5"/>
        <path d="m456.307,61.724c-1.977.707-3.953,1.415-5.93,2.122" fill="#e5e5e5" stroke="#221f1f" stroke-miterlimit="10" stroke-width=".5"/>
        <path d="m455.127,58.485c-1.977.707-3.953,1.415-5.93,2.122" fill="#e5e5e5" stroke="#221f1f" stroke-miterlimit="10" stroke-width=".5"/>
        <path d="m460.072,71.543c-4.075,1.661-8.15,3.322-12.226,4.983" fill="#e5e5e5" stroke="#221f1f" stroke-miterlimit="10" stroke-width=".5"/>
      </g>
      <g>
        <line x1="435.275" y1="50.384" x2="451.591" y2="46.814" fill="#e5e5e5" stroke="#221f1f" stroke-miterlimit="10" stroke-width=".5"/>
        <path d="m450.966,43.122c-2.079.372-4.157.744-6.236,1.116" fill="#e5e5e5" stroke="#221f1f" stroke-miterlimit="10" stroke-width=".5"/>
        <path d="m450.402,39.793c-2.079.372-4.157.744-6.236,1.116" fill="#e5e5e5" stroke="#221f1f" stroke-miterlimit="10" stroke-width=".5"/>
        <path d="m449.765,36.346c-2.072.339-4.144.678-6.216,1.017" fill="#e5e5e5" stroke="#221f1f" stroke-miterlimit="10" stroke-width=".5"/>
        <path d="m449.189,32.947c-2.072.339-4.144.678-6.216,1.017" fill="#e5e5e5" stroke="#221f1f" stroke-miterlimit="10" stroke-width=".5"/>
        <path d="m448.006,25.855c-2.09.298-4.181.597-6.271.895" fill="#e5e5e5" stroke="#221f1f" stroke-miterlimit="10" stroke-width=".5"/>
        <path d="m447.546,22.427c-2.09.298-4.181.597-6.271.895" fill="#e5e5e5" stroke="#221f1f" stroke-miterlimit="10" stroke-width=".5"/>
        <path d="m447.025,18.914c-2.083.266-4.165.532-6.248.797" fill="#e5e5e5" stroke="#221f1f" stroke-miterlimit="10" stroke-width=".5"/>
        <path d="m446.569,15.497c-2.083.266-4.165.532-6.248.797" fill="#e5e5e5" stroke="#221f1f" stroke-miterlimit="10" stroke-width=".5"/>
        <path d="m448.591,29.312c-4.337.746-8.674,1.493-13.011,2.239" fill="#e5e5e5" stroke="#221f1f" stroke-miterlimit="10" stroke-width=".5"/>
      </g>
      <line x1="428.922" y1="3.317" x2="445.624" y2="3.338" fill="#e5e5e5" stroke="#221f1f" stroke-miterlimit="10" stroke-width=".5"/>
    </g>
  </g>
  <line x1="577.304" y1="12.092" x2="506.139" y2="24.211" fill="none" stroke="#221f1f" stroke-miterlimit="10" stroke-width=".5"/>
  <polyline points="295.833 279.626 299.48 284.255 284.604 295.977 280.956 291.348 266.467 302.764 270.115 307.393 255.316 319.054 251.668 314.425 235.01 327.55 238.657 332.179 177.834 380.104 174.187 375.474 113.442 423.338 117.089 427.967 56.344 475.83 53.269 471.927" fill="none" stroke="#231f20" stroke-miterlimit="10" stroke-width=".5"/>
  <g>
    <path d="m531.531,303.116c-.603-.244-.895-.93-.651-1.533.244-.603.93-.895,1.533-.651s.895.93.651,1.533c-.244.603-.93.895-1.533.651Z" fill="#231f20" stroke-width="0"/>
    <path d="m529.742,307.548c-.603-.244-.895-.93-.651-1.533s.93-.895,1.533-.651c.603.244.895.93.651,1.533-.244.603-.93.895-1.533.651Z" fill="#231f20" stroke-width="0"/>
    <path d="m527.953,311.979c-.603-.244-.895-.93-.651-1.533.244-.603.93-.895,1.533-.651.603.244.895.93.651,1.533s-.93.895-1.533.651Z" fill="#231f20" stroke-width="0"/>
    <path d="m526.164,316.411c-.603-.244-.895-.93-.651-1.533.244-.603.93-.895,1.533-.651.603.244.895.93.651,1.533-.244.603-.93.895-1.533.651Z" fill="#231f20" stroke-width="0"/>
    <path d="m524.375,320.842c-.603-.243-.895-.93-.651-1.533.244-.603.93-.895,1.533-.651.603.244.895.93.651,1.533s-.93.895-1.533.651Z" fill="#231f20" stroke-width="0"/>
    <path d="m522.586,325.274c-.603-.243-.895-.93-.651-1.533.244-.603.93-.895,1.533-.651.603.243.895.93.651,1.533-.244.603-.93.895-1.533.651Z" fill="#231f20" stroke-width="0"/>
    <path d="m520.797,329.706c-.603-.243-.895-.93-.651-1.533.243-.603.93-.895,1.533-.651.603.243.895.93.651,1.533-.244.603-.93.895-1.533.651Z" fill="#231f20" stroke-width="0"/>
    <path d="m519.008,334.137c-.603-.243-.895-.93-.651-1.533s.93-.895,1.533-.651c.603.244.895.93.651,1.533s-.93.895-1.533.651Z" fill="#231f20" stroke-width="0"/>
    <path d="m517.219,338.569c-.603-.243-.895-.93-.651-1.533.243-.603.93-.895,1.533-.651.603.244.895.93.651,1.533s-.93.895-1.533.651Z" fill="#231f20" stroke-width="0"/>
    <path d="m515.43,343c-.603-.244-.895-.93-.651-1.533s.93-.895,1.533-.651c.603.244.895.93.651,1.533-.243.603-.93.895-1.533.651Z" fill="#231f20" stroke-width="0"/>
    <path d="m513.641,347.432c-.603-.244-.895-.93-.651-1.533s.93-.895,1.533-.651c.603.243.895.93.651,1.533s-.93.895-1.533.651Z" fill="#231f20" stroke-width="0"/>
    <path d="m511.852,351.864c-.603-.244-.895-.93-.651-1.533.244-.603.93-.895,1.533-.651.603.243.895.93.651,1.533-.243.603-.93.895-1.533.651Z" fill="#231f20" stroke-width="0"/>
    <path d="m510.063,356.295c-.603-.243-.895-.93-.651-1.533.244-.603.93-.895,1.533-.651.603.243.895.93.651,1.533-.244.603-.93.895-1.533.651Z" fill="#231f20" stroke-width="0"/>
    <path d="m508.274,360.727c-.603-.243-.895-.93-.651-1.533.244-.603.93-.895,1.533-.651.603.243.895.93.651,1.533-.244.603-.93.895-1.533.651Z" fill="#231f20" stroke-width="0"/>
    <path d="m506.485,365.158c-.603-.243-.895-.93-.651-1.533s.93-.895,1.533-.651c.603.244.895.93.651,1.533-.244.603-.93.895-1.533.651Z" fill="#231f20" stroke-width="0"/>
    <path d="m504.696,369.59c-.603-.243-.895-.93-.651-1.533s.93-.895,1.533-.651c.603.244.895.93.651,1.533-.244.603-.93.895-1.533.651Z" fill="#231f20" stroke-width="0"/>
    <path d="m502.907,374.022c-.603-.244-.895-.93-.651-1.533s.93-.895,1.533-.651c.603.244.895.93.651,1.533s-.93.895-1.533.651Z" fill="#231f20" stroke-width="0"/>
    <path d="m501.118,378.453c-.603-.244-.895-.93-.651-1.533s.93-.895,1.533-.651c.603.244.895.93.651,1.533s-.93.895-1.533.651Z" fill="#231f20" stroke-width="0"/>
    <path d="m499.329,382.885c-.603-.244-.895-.93-.651-1.533s.93-.895,1.533-.651c.603.243.895.93.651,1.533s-.93.895-1.533.651Z" fill="#231f20" stroke-width="0"/>
    <path d="m497.54,387.316c-.603-.243-.895-.93-.651-1.533.244-.603.93-.895,1.533-.651.603.243.895.93.651,1.533s-.93.895-1.533.651Z" fill="#231f20" stroke-width="0"/>
    <path d="m495.751,391.748c-.603-.243-.895-.93-.651-1.533.244-.603.93-.895,1.533-.651.603.243.895.93.651,1.533-.244.603-.93.895-1.533.651Z" fill="#231f20" stroke-width="0"/>
    <path d="m493.962,396.18c-.603-.243-.895-.93-.651-1.533s.93-.895,1.533-.651c.603.243.895.93.651,1.533-.244.603-.93.895-1.533.651Z" fill="#231f20" stroke-width="0"/>
    <path d="m492.173,400.611c-.603-.243-.895-.93-.651-1.533s.93-.895,1.533-.651c.603.244.895.93.651,1.533s-.93.895-1.533.651Z" fill="#231f20" stroke-width="0"/>
    <path d="m490.384,405.043c-.603-.244-.895-.93-.651-1.533.244-.603.93-.895,1.533-.651.603.244.895.93.651,1.533s-.93.895-1.533.651Z" fill="#231f20" stroke-width="0"/>
    <path d="m488.595,409.475c-.603-.244-.895-.93-.651-1.533s.93-.895,1.533-.651c.603.244.895.93.651,1.533s-.93.895-1.533.651Z" fill="#231f20" stroke-width="0"/>
    <path d="m486.806,413.906c-.603-.244-.895-.93-.651-1.533.244-.603.93-.895,1.533-.651.603.243.895.93.651,1.533s-.93.895-1.533.651Z" fill="#231f20" stroke-width="0"/>
    <path d="m485.017,418.338c-.603-.244-.895-.93-.651-1.533.244-.603.93-.895,1.533-.651.603.243.895.93.651,1.533s-.93.895-1.533.651Z" fill="#231f20" stroke-width="0"/>
    <path d="m483.228,422.769c-.603-.243-.895-.93-.651-1.533.243-.603.93-.895,1.533-.651.603.243.895.93.651,1.533-.244.603-.93.895-1.533.651Z" fill="#231f20" stroke-width="0"/>
    <path d="m481.439,427.201c-.603-.243-.895-.93-.651-1.533.244-.603.93-.895,1.533-.651.603.243.895.93.651,1.533-.244.603-.93.895-1.533.651Z" fill="#231f20" stroke-width="0"/>
    <path d="m479.65,431.633c-.603-.243-.895-.93-.651-1.533.243-.603.93-.895,1.533-.651.603.244.895.93.651,1.533-.244.603-.93.895-1.533.651Z" fill="#231f20" stroke-width="0"/>
  </g>
  <g>
    <line x1="568.788" y1="353.209" x2="551.34" y2="348.784" fill="none" stroke="#221f1f" stroke-miterlimit="10"/>
    <line x1="556.708" y1="364.228" x2="547.984" y2="362.015" fill="none" stroke="#221f1f" stroke-miterlimit="10"/>
    <line x1="546.639" y1="403.924" x2="537.915" y2="401.711" fill="none" stroke="#221f1f" stroke-miterlimit="10"/>
    <line x1="553.351" y1="377.46" x2="544.628" y2="375.247" fill="none" stroke="#221f1f" stroke-miterlimit="10"/>
    <line x1="549.995" y1="390.692" x2="541.271" y2="388.479" fill="none" stroke="#221f1f" stroke-miterlimit="10"/>
    <line x1="539.926" y1="430.387" x2="531.202" y2="428.175" fill="none" stroke="#221f1f" stroke-miterlimit="10"/>
    <line x1="570.133" y1="311.301" x2="561.41" y2="309.088" fill="none" stroke="#221f1f" stroke-miterlimit="10"/>
  </g>
  <polyline points="595.78 412.291 602.812 413.355 546.835 783.339 539.803 782.275" fill="none" stroke="#231f20" stroke-miterlimit="10" stroke-width=".445"/>
  <g>
    <polyline points="610.569 317.655 613.814 318.095 608.026 360.776 604.782 360.336" fill="none" stroke="#231f20" stroke-miterlimit="10" stroke-width=".205"/>
    <line x1="610.684" y1="323.084" x2="613.093" y2="323.411" fill="none" stroke="#231f20" stroke-miterlimit="10" stroke-width=".205"/>
    <line x1="609.972" y1="328.335" x2="612.381" y2="328.662" fill="none" stroke="#231f20" stroke-miterlimit="10" stroke-width=".205"/>
    <line x1="609.256" y1="333.614" x2="611.665" y2="333.94" fill="none" stroke="#231f20" stroke-miterlimit="10" stroke-width=".205"/>
    <line x1="607.705" y1="338.779" x2="610.949" y2="339.219" fill="none" stroke="#231f20" stroke-miterlimit="10" stroke-width=".205"/>
    <line x1="607.829" y1="344.144" x2="610.237" y2="344.47" fill="none" stroke="#231f20" stroke-miterlimit="10" stroke-width=".205"/>
    <line x1="607.055" y1="349.851" x2="609.464" y2="350.177" fill="none" stroke="#231f20" stroke-miterlimit="10" stroke-width=".205"/>
    <line x1="606.343" y1="355.103" x2="608.751" y2="355.429" fill="none" stroke="#231f20" stroke-miterlimit="10" stroke-width=".205"/>
  </g>
  <g>
    <g>
      <path d="m392.358,262.849c-33.521,34.571-50.874,52.468-50.874,52.468" fill="none" stroke="#231f20" stroke-miterlimit="10" stroke-width=".125"/>
      <path d="m393.249,263.713c-33.521,34.571-50.874,52.468-50.874,52.468" fill="none" stroke="#231f20" stroke-miterlimit="10" stroke-width=".125"/>
      <path d="m327.387,329.855c-33.521,34.571-50.874,52.468-50.874,52.468" fill="none" stroke="#231f20" stroke-miterlimit="10" stroke-width=".125"/>
      <path d="m328.278,330.719c-33.521,34.571-50.874,52.468-50.874,52.468" fill="none" stroke="#231f20" stroke-miterlimit="10" stroke-width=".125"/>
      <path d="m260.334,399.009c-33.521,34.571-50.874,52.468-50.874,52.468" fill="none" stroke="#231f20" stroke-miterlimit="10" stroke-width=".125"/>
      <path d="m261.225,399.872c-33.521,34.571-50.874,52.468-50.874,52.468" fill="none" stroke="#231f20" stroke-miterlimit="10" stroke-width=".125"/>
    </g>
    <g>
      <path d="m371.262,289.288c-33.521,34.571-50.874,52.468-50.874,52.468" fill="none" stroke="#231f20" stroke-miterlimit="10" stroke-width=".125"/>
      <path d="m372.153,290.152c-33.521,34.571-50.874,52.468-50.874,52.468" fill="none" stroke="#231f20" stroke-miterlimit="10" stroke-width=".125"/>
      <path d="m306.291,356.295c-33.521,34.571-50.874,52.468-50.874,52.468" fill="none" stroke="#231f20" stroke-miterlimit="10" stroke-width=".125"/>
      <path d="m307.182,357.158c-33.521,34.571-50.874,52.468-50.874,52.468" fill="none" stroke="#231f20" stroke-miterlimit="10" stroke-width=".125"/>
      <path d="m239.238,425.448c-33.521,34.571-50.874,52.468-50.874,52.468" fill="none" stroke="#231f20" stroke-miterlimit="10" stroke-width=".125"/>
      <path d="m240.129,426.312c-33.521,34.571-50.874,52.468-50.874,52.468" fill="none" stroke="#231f20" stroke-miterlimit="10" stroke-width=".125"/>
    </g>
  </g>
  <polyline points="457.6 255.748 460.22 257.679 455.566 263.995 452.945 262.064 448.412 268.216 451.033 270.147 446.403 276.431 443.782 274.5 438.57 281.573 441.191 283.505 422.161 309.331 419.54 307.4 400.535 333.193 403.156 335.124 384.15 360.917 381.941 359.289" fill="none" stroke="#231f20" stroke-miterlimit="10" stroke-width=".276"/>
  <polyline points="340.431 412.557 343.865 415.136 339.721 420.655 336.286 418.075 332.25 423.45 335.684 426.03 331.561 431.52 328.127 428.94 323.485 435.12 326.92 437.7 309.975 460.263 306.54 457.684 289.616 480.219 293.051 482.799 276.127 505.334 273.231 503.159" fill="none" stroke="#231f20" stroke-miterlimit="10" stroke-width=".364"/>
  <g>
    <g>
      <g>
        <line x1="477.516" y1="312.703" x2="475.401" y2="316.436" fill="none" stroke="#221f1f" stroke-miterlimit="10" stroke-width=".5"/>
        <line x1="474.502" y1="318.021" x2="472.387" y2="321.753" fill="none" stroke="#221f1f" stroke-miterlimit="10" stroke-width=".5"/>
        <line x1="471.383" y1="323.29" x2="469.268" y2="327.022" fill="none" stroke="#221f1f" stroke-miterlimit="10" stroke-width=".5"/>
        <line x1="468.37" y1="328.607" x2="466.255" y2="332.34" fill="none" stroke="#221f1f" stroke-miterlimit="10" stroke-width=".5"/>
      </g>
      <g>
        <line x1="464.849" y1="334" x2="462.734" y2="337.733" fill="none" stroke="#221f1f" stroke-miterlimit="10" stroke-width=".5"/>
        <line x1="461.835" y1="339.318" x2="459.72" y2="343.05" fill="none" stroke="#221f1f" stroke-miterlimit="10" stroke-width=".5"/>
        <line x1="458.717" y1="344.587" x2="456.601" y2="348.32" fill="none" stroke="#221f1f" stroke-miterlimit="10" stroke-width=".5"/>
        <line x1="455.703" y1="349.905" x2="453.588" y2="353.637" fill="none" stroke="#221f1f" stroke-miterlimit="10" stroke-width=".5"/>
      </g>
    </g>
    <g>
      <g>
        <line x1="451.669" y1="356.095" x2="449.554" y2="359.828" fill="none" stroke="#221f1f" stroke-miterlimit="10" stroke-width=".5"/>
        <line x1="448.656" y1="361.413" x2="446.541" y2="365.145" fill="none" stroke="#221f1f" stroke-miterlimit="10" stroke-width=".5"/>
        <line x1="445.537" y1="366.682" x2="443.422" y2="370.414" fill="none" stroke="#221f1f" stroke-miterlimit="10" stroke-width=".5"/>
        <line x1="442.524" y1="371.999" x2="440.408" y2="375.732" fill="none" stroke="#221f1f" stroke-miterlimit="10" stroke-width=".5"/>
      </g>
      <g>
        <line x1="439.002" y1="377.392" x2="436.887" y2="381.125" fill="none" stroke="#221f1f" stroke-miterlimit="10" stroke-width=".5"/>
        <line x1="435.989" y1="382.71" x2="433.874" y2="386.442" fill="none" stroke="#221f1f" stroke-miterlimit="10" stroke-width=".5"/>
        <line x1="432.87" y1="387.979" x2="430.755" y2="391.711" fill="none" stroke="#221f1f" stroke-miterlimit="10" stroke-width=".5"/>
        <line x1="429.857" y1="393.296" x2="427.741" y2="397.029" fill="none" stroke="#221f1f" stroke-miterlimit="10" stroke-width=".5"/>
      </g>
    </g>
  </g>
  <g>
    <path d="m224.85,258.711c-2.016,1.191-3.944,1.656-4.308,1.04s.975-2.081,2.99-3.271c2.016-1.191,3.944-1.656,4.308-1.04.364.616-.975,2.081-2.99,3.271Z" fill="#231f20" stroke-width="0"/>
    <path d="m204.292,270.883c-2.015,1.191-3.944,1.656-4.308,1.04s.975-2.081,2.99-3.271c2.015-1.191,3.944-1.656,4.308-1.04.364.616-.975,2.081-2.99,3.271Z" fill="#231f20" stroke-width="0"/>
    <path d="m182.811,283.618c-2.016,1.191-3.944,1.656-4.308,1.04s.975-2.081,2.99-3.271c2.016-1.191,3.944-1.656,4.308-1.04.364.616-.975,2.081-2.99,3.271Z" fill="#231f20" stroke-width="0"/>
    <path d="m159.91,297.173c-2.016,1.191-3.944,1.656-4.308,1.04-.364-.616.975-2.081,2.99-3.271,2.016-1.191,3.944-1.656,4.308-1.04s-.975,2.081-2.99,3.271Z" fill="#231f20" stroke-width="0"/>
    <path d="m308.274,209.283c-2.015,1.191-3.944,1.656-4.308,1.04s.975-2.081,2.99-3.271c2.015-1.191,3.944-1.656,4.308-1.04.364.616-.975,2.081-2.99,3.271Z" fill="#231f20" stroke-width="0"/>
    <path d="m287.716,221.454c-2.016,1.191-3.944,1.656-4.308,1.04s.975-2.081,2.99-3.271c2.016-1.191,3.944-1.656,4.308-1.04.364.616-.975,2.081-2.99,3.271Z" fill="#231f20" stroke-width="0"/>
    <path d="m267.602,233.382c-2.016,1.191-3.944,1.656-4.308,1.04s.975-2.081,2.99-3.271c2.016-1.191,3.944-1.656,4.308-1.04.364.616-.975,2.081-2.99,3.271Z" fill="#231f20" stroke-width="0"/>
    <path d="m245.677,246.361c-2.016,1.191-3.944,1.656-4.308,1.04s.975-2.081,2.99-3.271c2.016-1.191,3.944-1.656,4.308-1.04.364.616-.975,2.081-2.99,3.271Z" fill="#231f20" stroke-width="0"/>
  </g>
  <g>
    <path d="m63.223,355.22c-5.836,3.537-10.868,5.908-11.239,5.296s4.06-3.975,9.896-7.512c5.836-3.537,10.868-5.907,11.239-5.296.371.612-4.06,3.975-9.896,7.512Z" fill="#231f20" stroke-width="0"/>
    <path d="m3.668,391.336c-5.836,3.537-10.868,5.907-11.239,5.296-.371-.612,4.06-3.975,9.896-7.512,5.836-3.537,10.868-5.907,11.239-5.296.371.612-4.06,3.975-9.896,7.512Z" fill="#231f20" stroke-width="0"/>
  </g>
  <g>
    <path d="m350.899,130.558c-.26-.597.013-1.291.61-1.55.596-.26,1.29.013,1.55.61.26.597-.013,1.291-.61,1.55s-1.29-.013-1.55-.61Z" fill="#231f20" stroke-width="0"/>
    <path d="m346.459,132.492c-.26-.596.013-1.291.61-1.55s1.29.013,1.55.61c.26.596-.013,1.29-.61,1.55-.596.26-1.29-.013-1.55-.61Z" fill="#231f20" stroke-width="0"/>
    <path d="m342.019,134.425c-.26-.596.013-1.291.61-1.55.596-.26,1.291.013,1.55.61s-.013,1.291-.61,1.55c-.596.26-1.291-.013-1.55-.61Z" fill="#231f20" stroke-width="0"/>
    <path d="m337.578,136.358c-.26-.596.013-1.29.61-1.55.596-.26,1.29.013,1.55.61.26.596-.013,1.291-.61,1.55s-1.29-.013-1.55-.61Z" fill="#231f20" stroke-width="0"/>
    <path d="m333.138,138.291c-.26-.597.013-1.291.61-1.55s1.29.013,1.55.61c.26.597-.013,1.291-.61,1.55-.596.26-1.29-.013-1.55-.61Z" fill="#231f20" stroke-width="0"/>
    <path d="m328.697,140.224c-.26-.596.013-1.291.61-1.55.596-.26,1.291.013,1.55.61.26.596-.013,1.29-.61,1.55-.596.26-1.29-.013-1.55-.61Z" fill="#231f20" stroke-width="0"/>
    <path d="m324.257,142.157c-.26-.596.013-1.291.61-1.55.596-.26,1.29.013,1.55.61.26.596-.013,1.29-.61,1.55-.596.26-1.29-.013-1.55-.61Z" fill="#231f20" stroke-width="0"/>
    <path d="m319.816,144.09c-.26-.596.013-1.29.61-1.55.596-.26,1.29.013,1.55.61.26.596-.013,1.291-.61,1.55-.596.26-1.29-.013-1.55-.61Z" fill="#231f20" stroke-width="0"/>
    <path d="m315.376,146.024c-.26-.597.013-1.291.61-1.55.596-.26,1.291.013,1.55.61.26.597-.013,1.291-.61,1.55-.596.26-1.29-.013-1.55-.61Z" fill="#231f20" stroke-width="0"/>
    <path d="m310.935,147.957c-.26-.596.013-1.291.61-1.55.596-.26,1.29.013,1.55.61.26.596-.013,1.29-.61,1.55-.596.26-1.29-.013-1.55-.61Z" fill="#231f20" stroke-width="0"/>
    <path d="m306.495,149.89c-.26-.596.013-1.291.61-1.55.596-.26,1.29.013,1.55.61.26.596-.013,1.29-.61,1.55-.596.26-1.291-.013-1.55-.61Z" fill="#231f20" stroke-width="0"/>
    <path d="m302.054,151.823c-.26-.596.013-1.29.61-1.55.596-.26,1.291.013,1.55.61s-.013,1.291-.61,1.55c-.596.26-1.29-.013-1.55-.61Z" fill="#231f20" stroke-width="0"/>
    <path d="m297.614,153.756c-.26-.597.013-1.291.61-1.55.596-.26,1.29.013,1.55.61.26.597-.013,1.291-.61,1.55-.596.26-1.29-.013-1.55-.61Z" fill="#231f20" stroke-width="0"/>
    <path d="m293.173,155.689c-.26-.596.013-1.291.61-1.55.596-.26,1.29.013,1.55.61.26.596-.013,1.29-.61,1.55-.596.26-1.291-.013-1.55-.61Z" fill="#231f20" stroke-width="0"/>
    <path d="m288.733,157.622c-.26-.596.013-1.291.61-1.55.596-.26,1.29.013,1.55.61s-.013,1.29-.61,1.55c-.596.26-1.29-.013-1.55-.61Z" fill="#231f20" stroke-width="0"/>
    <path d="m284.292,159.555c-.26-.596.013-1.29.61-1.55.596-.26,1.29.013,1.55.61.26.596-.013,1.291-.61,1.55-.596.26-1.29-.013-1.55-.61Z" fill="#231f20" stroke-width="0"/>
    <path d="m279.852,161.489c-.26-.597.013-1.291.61-1.55.596-.26,1.29.013,1.55.61.26.597-.013,1.291-.61,1.55-.596.26-1.291-.013-1.55-.61Z" fill="#231f20" stroke-width="0"/>
    <path d="m275.412,163.422c-.26-.596.013-1.291.61-1.55.596-.26,1.29.013,1.55.61.26.596-.013,1.29-.61,1.55-.596.26-1.29-.013-1.55-.61Z" fill="#231f20" stroke-width="0"/>
    <path d="m270.971,165.355c-.26-.596.013-1.291.61-1.55s1.29.013,1.55.61c.26.596-.013,1.29-.61,1.55-.596.26-1.29-.013-1.55-.61Z" fill="#231f20" stroke-width="0"/>
    <path d="m266.531,167.288c-.26-.596.013-1.29.61-1.55.596-.26,1.291.013,1.55.61s-.013,1.291-.61,1.55c-.596.26-1.291-.013-1.55-.61Z" fill="#231f20" stroke-width="0"/>
    <path d="m262.09,169.221c-.26-.596.013-1.29.61-1.55.596-.26,1.29.013,1.55.61.26.596-.013,1.291-.61,1.55s-1.29-.013-1.55-.61Z" fill="#231f20" stroke-width="0"/>
    <path d="m257.65,171.154c-.26-.596.013-1.291.61-1.55s1.29.013,1.55.61c.26.596-.013,1.29-.61,1.55-.596.26-1.29-.013-1.55-.61Z" fill="#231f20" stroke-width="0"/>
    <path d="m253.209,173.087c-.26-.596.013-1.291.61-1.55.596-.26,1.291.013,1.55.61s-.013,1.29-.61,1.55c-.596.26-1.291-.013-1.55-.61Z" fill="#231f20" stroke-width="0"/>
  </g>
  <g>
    <path d="m181.794,204.8c-.263-.595.005-1.291.6-1.554s1.291.005,1.554.6c.263.595-.005,1.291-.6,1.554s-1.291-.005-1.554-.6Z" fill="#231f20" stroke-width="0"/>
    <path d="m177.466,206.717c-.263-.595.005-1.291.6-1.554s1.291.005,1.554.6c.263.595-.005,1.291-.6,1.554-.595.264-1.291-.005-1.554-.6Z" fill="#231f20" stroke-width="0"/>
    <path d="m173.138,208.634c-.263-.595.005-1.291.6-1.554.595-.263,1.291.005,1.554.6.263.595-.005,1.291-.6,1.554s-1.291-.005-1.554-.6Z" fill="#231f20" stroke-width="0"/>
    <path d="m168.811,210.55c-.263-.595.005-1.291.6-1.554.595-.263,1.291.005,1.554.6.263.595-.005,1.291-.6,1.554-.595.263-1.291-.005-1.554-.6Z" fill="#231f20" stroke-width="0"/>
    <path d="m164.483,212.467c-.263-.595.005-1.291.6-1.554.595-.263,1.291.005,1.554.6.263.595-.005,1.291-.6,1.554-.595.263-1.291-.005-1.554-.6Z" fill="#231f20" stroke-width="0"/>
    <path d="m160.155,214.384c-.263-.595.005-1.291.6-1.554.595-.264,1.291.005,1.554.6.263.595-.005,1.291-.6,1.554s-1.291-.005-1.554-.6Z" fill="#231f20" stroke-width="0"/>
    <path d="m155.827,216.301c-.263-.595.005-1.291.6-1.554s1.291.005,1.554.6c.263.595-.005,1.291-.6,1.554s-1.291-.005-1.554-.6Z" fill="#231f20" stroke-width="0"/>
    <path d="m151.499,218.217c-.263-.595.005-1.291.6-1.554.595-.263,1.291.005,1.554.6.263.595-.005,1.291-.6,1.554-.595.263-1.291-.005-1.554-.6Z" fill="#231f20" stroke-width="0"/>
    <path d="m147.172,220.134c-.263-.595.005-1.291.6-1.554.595-.263,1.291.005,1.554.6s-.005,1.291-.6,1.554c-.595.263-1.291-.005-1.554-.6Z" fill="#231f20" stroke-width="0"/>
    <path d="m142.844,222.051c-.263-.595.005-1.291.6-1.554s1.291.005,1.554.6c.263.595-.005,1.291-.6,1.554-.595.263-1.291-.005-1.554-.6Z" fill="#231f20" stroke-width="0"/>
    <path d="m138.516,223.968c-.263-.595.005-1.291.6-1.554s1.291.005,1.554.6-.005,1.291-.6,1.554-1.291-.005-1.554-.6Z" fill="#231f20" stroke-width="0"/>
    <path d="m134.188,225.884c-.263-.595.005-1.291.6-1.554.595-.263,1.291.005,1.554.6.263.595-.005,1.291-.6,1.554s-1.291-.005-1.554-.6Z" fill="#231f20" stroke-width="0"/>
    <path d="m129.861,227.801c-.263-.595.005-1.291.6-1.554.595-.263,1.291.005,1.554.6.263.595-.005,1.291-.6,1.554-.595.264-1.291-.005-1.554-.6Z" fill="#231f20" stroke-width="0"/>
    <path d="m125.533,229.718c-.263-.595.005-1.291.6-1.554.595-.263,1.291.005,1.554.6.263.595-.005,1.291-.6,1.554-.595.263-1.291-.005-1.554-.6Z" fill="#231f20" stroke-width="0"/>
    <path d="m121.205,231.635c-.263-.595.005-1.291.6-1.554s1.291.005,1.554.6c.263.595-.005,1.291-.6,1.554s-1.291-.005-1.554-.6Z" fill="#231f20" stroke-width="0"/>
    <path d="m116.877,233.552c-.263-.595.005-1.291.6-1.554.595-.263,1.291.005,1.554.6.263.595-.005,1.291-.6,1.554s-1.291-.005-1.554-.6Z" fill="#231f20" stroke-width="0"/>
    <path d="m112.55,235.468c-.263-.595.005-1.291.6-1.554.595-.264,1.291.005,1.554.6.263.595-.005,1.291-.6,1.554s-1.291-.005-1.554-.6Z" fill="#231f20" stroke-width="0"/>
    <path d="m108.222,237.385c-.263-.595.005-1.291.6-1.554.595-.263,1.291.005,1.554.6.263.595-.005,1.291-.6,1.554-.595.263-1.291-.005-1.554-.6Z" fill="#231f20" stroke-width="0"/>
    <path d="m103.894,239.302c-.263-.595.005-1.291.6-1.554s1.291.005,1.554.6c.263.595-.005,1.291-.6,1.554-.595.263-1.291-.005-1.554-.6Z" fill="#231f20" stroke-width="0"/>
    <path d="m99.566,241.219c-.263-.595.005-1.291.6-1.554s1.291.005,1.554.6-.005,1.291-.6,1.554-1.291-.005-1.554-.6Z" fill="#231f20" stroke-width="0"/>
    <path d="m95.238,243.135c-.263-.595.005-1.291.6-1.554s1.291.005,1.554.6-.005,1.291-.6,1.554-1.291-.005-1.554-.6Z" fill="#231f20" stroke-width="0"/>
    <path d="m90.911,245.052c-.263-.595.005-1.291.6-1.554.595-.263,1.291.005,1.554.6s-.005,1.291-.6,1.554c-.595.263-1.291-.005-1.554-.6Z" fill="#231f20" stroke-width="0"/>
    <path d="m86.583,246.969c-.263-.595.005-1.291.6-1.554.595-.263,1.291.005,1.554.6.263.595-.005,1.291-.6,1.554-.595.263-1.291-.005-1.554-.6Z" fill="#231f20" stroke-width="0"/>
    <path d="m82.255,248.886c-.263-.595.005-1.291.6-1.554s1.291.005,1.554.6c.263.595-.005,1.291-.6,1.554-.595.264-1.291-.005-1.554-.6Z" fill="#231f20" stroke-width="0"/>
    <path d="m77.927,250.802c-.263-.595.005-1.291.6-1.554s1.291.005,1.554.6c.263.595-.005,1.291-.6,1.554-.595.263-1.291-.005-1.554-.6Z" fill="#231f20" stroke-width="0"/>
    <path d="m73.6,252.719c-.263-.595.005-1.291.6-1.554.595-.263,1.291.005,1.554.6.263.595-.005,1.291-.6,1.554s-1.291-.005-1.554-.6Z" fill="#231f20" stroke-width="0"/>
    <path d="m69.272,254.636c-.263-.595.005-1.291.6-1.554.595-.263,1.291.005,1.554.6.263.595-.005,1.291-.6,1.554-.595.263-1.291-.005-1.554-.6Z" fill="#231f20" stroke-width="0"/>
    <path d="m64.944,256.553c-.263-.595.005-1.291.6-1.554.595-.264,1.291.005,1.554.6.263.595-.005,1.291-.6,1.554-.595.263-1.291-.005-1.554-.6Z" fill="#231f20" stroke-width="0"/>
    <path d="m60.616,258.469c-.263-.595.005-1.291.6-1.554s1.291.005,1.554.6c.263.595-.005,1.291-.6,1.554s-1.291-.005-1.554-.6Z" fill="#231f20" stroke-width="0"/>
    <path d="m56.289,260.386c-.263-.595.005-1.291.6-1.554s1.291.005,1.554.6c.263.595-.005,1.291-.6,1.554s-1.291-.005-1.554-.6Z" fill="#231f20" stroke-width="0"/>
    <path d="m51.961,262.303c-.263-.595.005-1.291.6-1.554.595-.263,1.291.005,1.554.6s-.005,1.291-.6,1.554c-.595.263-1.291-.005-1.554-.6Z" fill="#231f20" stroke-width="0"/>
    <path d="m47.633,264.22c-.263-.595.005-1.291.6-1.554.595-.263,1.291.005,1.554.6s-.005,1.291-.6,1.554c-.595.263-1.291-.005-1.554-.6Z" fill="#231f20" stroke-width="0"/>
    <path d="m43.305,266.136c-.263-.595.005-1.291.6-1.554s1.291.005,1.554.6c.263.595-.005,1.291-.6,1.554-.595.263-1.291-.005-1.554-.6Z" fill="#231f20" stroke-width="0"/>
    <path d="m38.977,268.053c-.263-.595.005-1.291.6-1.554s1.291.005,1.554.6c.263.595-.005,1.291-.6,1.554s-1.291-.005-1.554-.6Z" fill="#231f20" stroke-width="0"/>
    <path d="m34.65,269.97c-.263-.595.005-1.291.6-1.554.595-.263,1.291.005,1.554.6.263.595-.005,1.291-.6,1.554-.595.264-1.291-.005-1.554-.6Z" fill="#231f20" stroke-width="0"/>
    <path d="m30.322,271.887c-.263-.595.005-1.291.6-1.554.595-.263,1.291.005,1.554.6.263.595-.005,1.291-.6,1.554-.595.263-1.291-.005-1.554-.6Z" fill="#231f20" stroke-width="0"/>
    <path d="m25.994,273.803c-.263-.595.005-1.291.6-1.554.595-.263,1.291.005,1.554.6.263.595-.005,1.291-.6,1.554-.595.263-1.291-.005-1.554-.6Z" fill="#231f20" stroke-width="0"/>
    <path d="m21.666,275.72c-.263-.595.005-1.291.6-1.554s1.291.005,1.554.6c.263.595-.005,1.291-.6,1.554s-1.291-.005-1.554-.6Z" fill="#231f20" stroke-width="0"/>
    <path d="m17.339,277.637c-.263-.595.005-1.291.6-1.554.595-.263,1.291.005,1.554.6.263.595-.005,1.291-.6,1.554s-1.291-.005-1.554-.6Z" fill="#231f20" stroke-width="0"/>
    <path d="m13.011,279.554c-.263-.595.005-1.291.6-1.554.595-.263,1.291.005,1.554.6.263.595-.005,1.291-.6,1.554s-1.291-.005-1.554-.6Z" fill="#231f20" stroke-width="0"/>
    <path d="m8.683,281.47c-.263-.595.005-1.291.6-1.554.595-.263,1.291.005,1.554.6.263.595-.005,1.291-.6,1.554-.595.263-1.291-.005-1.554-.6Z" fill="#231f20" stroke-width="0"/>
    <path d="m4.355,283.387c-.263-.595.005-1.291.6-1.554s1.291.005,1.554.6c.263.595-.005,1.291-.6,1.554-.595.263-1.291-.005-1.554-.6Z" fill="#231f20" stroke-width="0"/>
    <path d="m.027,285.304c-.263-.595.005-1.291.6-1.554s1.291.005,1.554.6c.263.595-.005,1.291-.6,1.554s-1.291-.005-1.554-.6Z" fill="#231f20" stroke-width="0"/>
  </g>
  <g>
    <g>
      <path d="m342.434,85.753c-28.67,8.46-43.512,12.84-43.512,12.84" fill="none" stroke="#231f20" stroke-miterlimit="10" stroke-width=".188"/>
      <path d="m342.96,87.538c-28.67,8.46-43.512,12.84-43.512,12.84" fill="none" stroke="#231f20" stroke-miterlimit="10" stroke-width=".188"/>
      <path d="m286.865,102.151c-28.67,8.46-43.512,12.84-43.512,12.84" fill="none" stroke="#231f20" stroke-miterlimit="10" stroke-width=".188"/>
      <path d="m287.392,103.936c-28.67,8.46-43.512,12.84-43.512,12.84" fill="none" stroke="#231f20" stroke-miterlimit="10" stroke-width=".188"/>
      <path d="m229.516,119.074c-28.67,8.46-43.512,12.84-43.512,12.84" fill="none" stroke="#231f20" stroke-miterlimit="10" stroke-width=".188"/>
      <path d="m230.042,120.859c-28.67,8.46-43.512,12.84-43.512,12.84" fill="none" stroke="#231f20" stroke-miterlimit="10" stroke-width=".188"/>
      <path d="m173.947,135.472c-28.67,8.46-43.512,12.84-43.512,12.84" fill="none" stroke="#231f20" stroke-miterlimit="10" stroke-width=".188"/>
      <path d="m174.474,137.257c-28.67,8.46-43.512,12.84-43.512,12.84" fill="none" stroke="#231f20" stroke-miterlimit="10" stroke-width=".188"/>
    </g>
    <g>
      <path d="m323.773,96.357c-28.67,8.46-43.512,12.84-43.512,12.84" fill="none" stroke="#231f20" stroke-miterlimit="10" stroke-width=".188"/>
      <path d="m324.299,98.142c-28.67,8.46-43.512,12.84-43.512,12.84" fill="none" stroke="#231f20" stroke-miterlimit="10" stroke-width=".188"/>
      <path d="m268.204,112.755c-28.67,8.46-43.512,12.84-43.512,12.84" fill="none" stroke="#231f20" stroke-miterlimit="10" stroke-width=".188"/>
      <path d="m268.731,114.54c-28.67,8.46-43.512,12.84-43.512,12.84" fill="none" stroke="#231f20" stroke-miterlimit="10" stroke-width=".188"/>
      <path d="m210.855,129.678c-28.67,8.46-43.512,12.84-43.512,12.84" fill="none" stroke="#231f20" stroke-miterlimit="10" stroke-width=".188"/>
      <path d="m211.382,131.463c-28.67,8.46-43.512,12.84-43.512,12.84" fill="none" stroke="#231f20" stroke-miterlimit="10" stroke-width=".188"/>
      <path d="m155.286,146.075c-28.67,8.46-43.512,12.84-43.512,12.84" fill="none" stroke="#231f20" stroke-miterlimit="10" stroke-width=".188"/>
      <path d="m155.813,147.86c-28.67,8.46-43.512,12.84-43.512,12.84" fill="none" stroke="#231f20" stroke-miterlimit="10" stroke-width=".188"/>
    </g>
  </g>
  <polyline points="287.299 54.621 288.105 59.251 282.526 60.223 281.72 55.593 276.286 56.539 277.092 61.169 271.541 62.135 270.735 57.505 264.488 58.593 265.294 63.223 242.482 67.194 241.676 62.565 218.893 66.531 219.699 71.161 196.917 75.127 196.237 71.224" fill="none" stroke="#231f20" stroke-miterlimit="10" stroke-width=".399"/>
  <g>
    <path d="m222.658,9.594c-2.426.055-4.406-.481-4.422-1.196-.016-.715,1.937-1.34,4.363-1.395,2.426-.055,4.406.481,4.422,1.196.016.715-1.937,1.34-4.363,1.395Z" fill="#231f20" stroke-width="0"/>
    <path d="m197.9,10.176c-2.426.055-4.406-.481-4.422-1.196-.016-.715,1.937-1.34,4.363-1.395,2.426-.055,4.406.481,4.422,1.196.016.715-1.937,1.34-4.363,1.395Z" fill="#231f20" stroke-width="0"/>
    <path d="m172.021,10.8c-2.426.055-4.406-.481-4.422-1.196-.016-.715,1.937-1.34,4.363-1.394,2.426-.055,4.406.481,4.422,1.196.016.715-1.937,1.34-4.363,1.394Z" fill="#231f20" stroke-width="0"/>
    <path d="m144.442,11.446c-2.426.055-4.406-.481-4.422-1.196-.016-.715,1.937-1.34,4.363-1.395,2.426-.055,4.406.481,4.422,1.196.016.715-1.937,1.34-4.363,1.395Z" fill="#231f20" stroke-width="0"/>
    <path d="m323.146,7.198c-2.426.055-4.406-.481-4.422-1.196-.016-.715,1.937-1.34,4.363-1.395,2.426-.055,4.406.481,4.422,1.196.016.715-1.937,1.34-4.363,1.395Z" fill="#231f20" stroke-width="0"/>
    <path d="m298.387,7.78c-2.426.055-4.406-.481-4.422-1.196-.016-.715,1.937-1.34,4.363-1.395,2.426-.055,4.406.481,4.422,1.196s-1.937,1.34-4.363,1.395Z" fill="#231f20" stroke-width="0"/>
    <path d="m274.154,8.366c-2.426.055-4.406-.481-4.422-1.196s1.937-1.34,4.363-1.395c2.426-.055,4.406.481,4.422,1.196.016.715-1.937,1.34-4.363,1.395Z" fill="#231f20" stroke-width="0"/>
    <path d="m247.75,8.986c-2.426.055-4.406-.481-4.422-1.196-.016-.715,1.937-1.34,4.363-1.395,2.426-.055,4.406.481,4.422,1.196.016.715-1.937,1.34-4.363,1.394Z" fill="#231f20" stroke-width="0"/>
  </g>
  <g>
    <rect x="-1044.473" y="-1258.288" width="3386.58" height="2514.089" transform="translate(650.061 647.574) rotate(-90)" fill="none" stroke="#231f20" stroke-linecap="round" stroke-miterlimit="10" stroke-width="7"/>
    <rect x="-1027.506" y="-1241.166" width="3353.392" height="2482.402" transform="translate(649.155 649.225) rotate(-90)" fill="none" stroke="#231f20" stroke-linecap="round" stroke-miterlimit="10" stroke-width="3"/>
    <rect x="-989.031" y="-1205.548" width="3275.615" height="2412.095" transform="translate(648.278 649.276) rotate(-90)" fill="none" stroke="#231f20" stroke-linecap="round" stroke-miterlimit="10"/>
    <rect x="-971.163" y="-1188.185" width="3239.88" height="2376.261" transform="translate(648.831 648.723) rotate(-90)" fill="none" stroke="#231f20" stroke-linecap="round" stroke-miterlimit="10"/>
  </g>
</svg>