<?xml version="1.0" encoding="UTF-8"?>
<svg id="a" data-name="Layer 1" xmlns="http://www.w3.org/2000/svg" width="9.002in" height="6.002in" viewBox="0 0 648.177 432.177">
  <g>
    <ellipse cx="10.33" cy="268.877" rx=".906" ry=".887" fill="#bfbfbf" stroke-width="0"/>
    <ellipse cx="2.83" cy="252.043" rx=".887" ry=".906" fill="#bfbfbf" stroke-width="0"/>
    <path d="m4.96,271.303l.878-.128.878-.128-.878.128-.878.128Z" fill="#bfbfbf" stroke-width="0"/>
    <ellipse cx="2.034" cy="271.327" rx=".887" ry=".906" fill="#bfbfbf" stroke-width="0"/>
    <ellipse cx="4.808" cy="270.517" rx=".887" ry=".906" fill="#bfbfbf" stroke-width="0"/>
    <ellipse cx="3.491" cy="268.087" rx=".864" ry=".882" fill="#bfbfbf" stroke-width="0"/>
    <ellipse cx=".247" cy="268.117" rx=".887" ry=".906" fill="#bfbfbf" stroke-width="0"/>
    <ellipse cx="-.022" cy="263.377" rx=".864" ry=".882" fill="#bfbfbf" stroke-width="0"/>
    <ellipse cx="2.32" cy="265.265" rx=".887" ry=".906" fill="#bfbfbf" stroke-width="0"/>
    <ellipse cx="5.544" cy="265.343" rx=".864" ry=".882" fill="#bfbfbf" stroke-width="0"/>
    <ellipse cx="3.632" cy="255.356" rx=".887" ry=".906" fill="#bfbfbf" stroke-width="0"/>
    <ellipse cx="1.406" cy="261.161" rx=".864" ry=".882" fill="#bfbfbf" stroke-width="0"/>
    <ellipse cx="1.954" cy="257.608" rx=".887" ry=".906" fill="#bfbfbf" stroke-width="0"/>
    <ellipse cx="4.808" cy="259.29" rx=".887" ry=".906" fill="#bfbfbf" stroke-width="0"/>
    <ellipse cx="-.215" cy="246.103" rx=".887" ry=".906" fill="#bfbfbf" stroke-width="0"/>
    <ellipse cx=".195" cy="249.428" rx=".887" ry=".906" fill="#bfbfbf" stroke-width="0"/>
    <ellipse cx=".699" cy="254.658" rx=".887" ry=".906" fill="#bfbfbf" stroke-width="0"/>
    <path d="m5.444,288.18l-.159-.874-.159-.874.159.874.159.874Z" fill="#bfbfbf" stroke-width="0"/>
    <ellipse cx="5.569" cy="291.104" rx=".906" ry=".887" fill="#bfbfbf" stroke-width="0"/>
    <ellipse cx="5.104" cy="287.338" rx=".906" ry=".887" fill="#bfbfbf" stroke-width="0"/>
    <ellipse cx="2.281" cy="289.755" rx=".882" ry=".864" fill="#bfbfbf" stroke-width="0"/>
    <ellipse cx="4.7" cy="294.485" rx=".906" ry=".887" fill="#bfbfbf" stroke-width="0"/>
    <ellipse cx="2.422" cy="292.997" rx=".906" ry=".887" fill="#bfbfbf" stroke-width="0"/>
    <ellipse cx="6.163" cy="298.094" rx=".882" ry=".864" fill="#bfbfbf" stroke-width="0"/>
    <ellipse cx="3.344" cy="297.122" rx=".906" ry=".887" fill="#bfbfbf" stroke-width="0"/>
    <ellipse cx=".252" cy="295.243" rx=".882" ry=".864" fill="#bfbfbf" stroke-width="0"/>
    <ellipse cx="-.499" cy="291.02" rx=".906" ry=".887" fill="#bfbfbf" stroke-width="0"/>
    <ellipse cx="-.283" cy="287.39" rx=".882" ry=".864" fill="#bfbfbf" stroke-width="0"/>
    <ellipse cx="2.332" cy="285.575" rx=".906" ry=".887" fill="#bfbfbf" stroke-width="0"/>
    <ellipse cx="4.963" cy="284.075" rx=".906" ry=".887" fill="#bfbfbf" stroke-width="0"/>
    <ellipse cx="5.712" cy="280.541" rx=".906" ry=".887" fill="#bfbfbf" stroke-width="0"/>
    <ellipse cx="1.738" cy="282.311" rx=".906" ry=".887" fill="#bfbfbf" stroke-width="0"/>
    <ellipse cx="4.657" cy="301.135" rx=".882" ry=".864" fill="#bfbfbf" stroke-width="0"/>
    <ellipse cx="1.588" cy="300.107" rx=".882" ry=".864" fill="#bfbfbf" stroke-width="0"/>
    <ellipse cx="-.598" cy="298.026" rx=".787" ry=".771" fill="#bfbfbf" stroke-width="0"/>
    <ellipse cx="1.099" cy="303.197" rx=".906" ry=".887" fill="#bfbfbf" stroke-width="0"/>
    <ellipse cx="3.797" cy="304.677" rx=".791" ry=".775" fill="#bfbfbf" stroke-width="0"/>
    <ellipse cx="2.29" cy="278.815" rx=".906" ry=".887" fill="#bfbfbf" stroke-width="0"/>
    <ellipse cx="5.056" cy="276.936" rx=".906" ry=".887" fill="#bfbfbf" stroke-width="0"/>
    <ellipse cx="2.029" cy="275.484" rx=".906" ry=".887" fill="#bfbfbf" stroke-width="0"/>
    <ellipse cx="7.349" cy="268.771" rx=".906" ry=".887" fill="#bfbfbf" stroke-width="0"/>
    <ellipse cx="16.051" cy="321.831" rx=".906" ry=".887" fill="#bfbfbf" stroke-width="0"/>
    <ellipse cx="12.913" cy="322.341" rx=".906" ry=".887" fill="#bfbfbf" stroke-width="0"/>
    <ellipse cx=".772" cy="306.707" rx=".906" ry=".887" fill="#bfbfbf" stroke-width="0"/>
    <ellipse cx="5.75" cy="306.405" rx=".906" ry=".887" fill="#bfbfbf" stroke-width="0"/>
    <ellipse cx="3.425" cy="308.441" rx=".906" ry=".887" fill="#bfbfbf" stroke-width="0"/>
    <ellipse cx=".399" cy="310.634" rx=".906" ry=".887" fill="#bfbfbf" stroke-width="0"/>
    <ellipse cx="10.072" cy="321.389" rx=".906" ry=".887" fill="#bfbfbf" stroke-width="0"/>
    <ellipse cx="7.302" cy="260.1" rx=".906" ry=".887" fill="#bfbfbf" stroke-width="0"/>
    <ellipse cx=".264" cy="313.987" rx=".906" ry=".887" fill="#bfbfbf" stroke-width="0"/>
    <ellipse cx="3.391" cy="312.169" rx=".906" ry=".887" fill="#bfbfbf" stroke-width="0"/>
    <ellipse cx="3.355" cy="315.494" rx=".906" ry=".887" fill="#bfbfbf" stroke-width="0"/>
    <ellipse cx="2.459" cy="317.969" rx=".882" ry=".864" fill="#bfbfbf" stroke-width="0"/>
    <ellipse cx="6.892" cy="262.493" rx=".906" ry=".887" fill="#bfbfbf" stroke-width="0"/>
    <ellipse cx="6.11" cy="273.749" rx=".882" ry=".864" fill="#bfbfbf" stroke-width="0"/>
    <ellipse cx="5.939" cy="313.696" rx=".906" ry=".887" fill="#bfbfbf" stroke-width="0"/>
    <ellipse cx="6.117" cy="310.219" rx=".906" ry=".887" fill="#bfbfbf" stroke-width="0"/>
    <ellipse cx="5.162" cy="318.241" rx=".906" ry=".887" fill="#bfbfbf" stroke-width="0"/>
    <ellipse cx="12.692" cy="271.321" rx=".906" ry=".887" fill="#bfbfbf" stroke-width="0"/>
    <ellipse cx="6.198" cy="303.486" rx=".882" ry=".864" fill="#bfbfbf" stroke-width="0"/>
    <ellipse cx="4.161" cy="262.565" rx=".882" ry=".864" fill="#bfbfbf" stroke-width="0"/>
    <ellipse cx="8.789" cy="265.986" rx=".906" ry=".887" fill="#bfbfbf" stroke-width="0"/>
    <ellipse cx="6.906" cy="321.935" rx=".882" ry=".864" fill="#bfbfbf" stroke-width="0"/>
    <ellipse cx="18.826" cy="322.28" rx=".638" ry=".625" fill="#bfbfbf" stroke-width="0"/>
    <ellipse cx="4.415" cy="321.471" rx=".882" ry=".864" fill="#bfbfbf" stroke-width="0"/>
    <ellipse cx=".363" cy="273.512" rx=".646" ry=".633" fill="#bfbfbf" stroke-width="0"/>
    <ellipse cx="24.21" cy="321.534" rx=".906" ry=".887" fill="#bfbfbf" stroke-width="0"/>
    <ellipse cx="34.38" cy="322.103" rx=".906" ry=".887" fill="#bfbfbf" stroke-width="0"/>
    <ellipse cx="31.224" cy="321.682" rx=".906" ry=".887" fill="#bfbfbf" stroke-width="0"/>
    <ellipse cx="27.718" cy="321.936" rx=".906" ry=".887" fill="#bfbfbf" stroke-width="0"/>
    <ellipse cx="22.238" cy="318.794" rx=".906" ry=".887" fill="#bfbfbf" stroke-width="0"/>
    <ellipse cx="42.211" cy="295.182" rx=".906" ry=".887" fill="#bfbfbf" stroke-width="0"/>
    <ellipse cx="41.681" cy="298.19" rx=".906" ry=".887" fill="#bfbfbf" stroke-width="0"/>
    <ellipse cx="44.607" cy="300.102" rx=".727" ry=".712" fill="#bfbfbf" stroke-width="0"/>
    <ellipse cx="47.362" cy="301.927" rx=".738" ry=".723" fill="#bfbfbf" stroke-width="0"/>
    <path d="m38.197,294.985l-.159-.874-.159-.874.159.874.159.874Z" fill="#bfbfbf" stroke-width="0"/>
    <ellipse cx="38.321" cy="297.908" rx=".906" ry=".887" fill="#bfbfbf" stroke-width="0"/>
    <ellipse cx="37.856" cy="294.143" rx=".906" ry=".887" fill="#bfbfbf" stroke-width="0"/>
    <ellipse cx="35.033" cy="296.56" rx=".882" ry=".864" fill="#bfbfbf" stroke-width="0"/>
    <ellipse cx="37.453" cy="301.289" rx=".906" ry=".887" fill="#bfbfbf" stroke-width="0"/>
    <ellipse cx="35.175" cy="299.801" rx=".906" ry=".887" fill="#bfbfbf" stroke-width="0"/>
    <ellipse cx="38.915" cy="304.898" rx=".882" ry=".864" fill="#bfbfbf" stroke-width="0"/>
    <ellipse cx="36.097" cy="303.927" rx=".906" ry=".887" fill="#bfbfbf" stroke-width="0"/>
    <ellipse cx="33.004" cy="302.048" rx=".882" ry=".864" fill="#bfbfbf" stroke-width="0"/>
    <ellipse cx="30.447" cy="300.227" rx=".882" ry=".864" fill="#bfbfbf" stroke-width="0"/>
    <ellipse cx="32.253" cy="297.824" rx=".906" ry=".887" fill="#bfbfbf" stroke-width="0"/>
    <ellipse cx="32.469" cy="294.195" rx=".882" ry=".864" fill="#bfbfbf" stroke-width="0"/>
    <ellipse cx="35.084" cy="292.38" rx=".906" ry=".887" fill="#bfbfbf" stroke-width="0"/>
    <ellipse cx="37.715" cy="290.879" rx=".906" ry=".887" fill="#bfbfbf" stroke-width="0"/>
    <ellipse cx="34.491" cy="289.115" rx=".906" ry=".887" fill="#bfbfbf" stroke-width="0"/>
    <ellipse cx="31.455" cy="289.645" rx=".906" ry=".887" fill="#bfbfbf" stroke-width="0"/>
    <ellipse cx="29.617" cy="292.108" rx=".906" ry=".887" fill="#bfbfbf" stroke-width="0"/>
    <ellipse cx="29.56" cy="295.59" rx=".906" ry=".887" fill="#bfbfbf" stroke-width="0"/>
    <ellipse cx="28.183" cy="298.873" rx=".882" ry=".864" fill="#bfbfbf" stroke-width="0"/>
    <ellipse cx="37.409" cy="307.94" rx=".882" ry=".864" fill="#bfbfbf" stroke-width="0"/>
    <ellipse cx="34.34" cy="306.911" rx=".882" ry=".864" fill="#bfbfbf" stroke-width="0"/>
    <ellipse cx="32.155" cy="304.831" rx=".787" ry=".771" fill="#bfbfbf" stroke-width="0"/>
    <ellipse cx="28.765" cy="303.202" rx=".882" ry=".864" fill="#bfbfbf" stroke-width="0"/>
    <ellipse cx="27.988" cy="306.13" rx=".906" ry=".887" fill="#bfbfbf" stroke-width="0"/>
    <ellipse cx="30.977" cy="308.017" rx=".741" ry=".726" fill="#bfbfbf" stroke-width="0"/>
    <ellipse cx="33.851" cy="310.001" rx=".906" ry=".887" fill="#bfbfbf" stroke-width="0"/>
    <ellipse cx="36.549" cy="311.481" rx=".791" ry=".775" fill="#bfbfbf" stroke-width="0"/>
    <ellipse cx="26.28" cy="301.384" rx=".882" ry=".864" fill="#bfbfbf" stroke-width="0"/>
    <ellipse cx="25.689" cy="296.265" rx=".906" ry=".887" fill="#bfbfbf" stroke-width="0"/>
    <ellipse cx="26.426" cy="293.346" rx=".906" ry=".887" fill="#bfbfbf" stroke-width="0"/>
    <ellipse cx="26.491" cy="290.112" rx=".906" ry=".887" fill="#bfbfbf" stroke-width="0"/>
    <ellipse cx="28.744" cy="288" rx=".906" ry=".887" fill="#bfbfbf" stroke-width="0"/>
    <ellipse cx="28.65" cy="284.273" rx=".906" ry=".887" fill="#bfbfbf" stroke-width="0"/>
    <ellipse cx="25.134" cy="304.237" rx=".906" ry=".887" fill="#bfbfbf" stroke-width="0"/>
    <ellipse cx="24.603" cy="307.244" rx=".906" ry=".887" fill="#bfbfbf" stroke-width="0"/>
    <ellipse cx="27.53" cy="309.156" rx=".727" ry=".712" fill="#bfbfbf" stroke-width="0"/>
    <ellipse cx="30.284" cy="310.981" rx=".738" ry=".723" fill="#bfbfbf" stroke-width="0"/>
    <path d="m11.659,287.224l.128.878.128.878-.128-.878-.128-.878Z" fill="#bfbfbf" stroke-width="0"/>
    <ellipse cx="11.635" cy="284.298" rx=".906" ry=".887" fill="#bfbfbf" stroke-width="0"/>
    <ellipse cx="11.97" cy="288.076" rx=".906" ry=".887" fill="#bfbfbf" stroke-width="0"/>
    <ellipse cx="14.875" cy="285.754" rx=".882" ry=".864" fill="#bfbfbf" stroke-width="0"/>
    <ellipse cx="12.62" cy="280.947" rx=".906" ry=".887" fill="#bfbfbf" stroke-width="0"/>
    <ellipse cx="14.846" cy="282.511" rx=".906" ry=".887" fill="#bfbfbf" stroke-width="0"/>
    <ellipse cx="11.284" cy="277.292" rx=".882" ry=".864" fill="#bfbfbf" stroke-width="0"/>
    <ellipse cx="14.067" cy="278.357" rx=".906" ry=".887" fill="#bfbfbf" stroke-width="0"/>
    <ellipse cx="17.092" cy="280.337" rx=".882" ry=".864" fill="#bfbfbf" stroke-width="0"/>
    <ellipse cx="19.586" cy="282.241" rx=".882" ry=".864" fill="#bfbfbf" stroke-width="0"/>
    <ellipse cx="17.697" cy="284.583" rx=".906" ry=".887" fill="#bfbfbf" stroke-width="0"/>
    <ellipse cx="17.356" cy="288.203" rx=".882" ry=".864" fill="#bfbfbf" stroke-width="0"/>
    <ellipse cx="14.68" cy="289.931" rx=".906" ry=".887" fill="#bfbfbf" stroke-width="0"/>
    <ellipse cx="11.998" cy="291.343" rx=".906" ry=".887" fill="#bfbfbf" stroke-width="0"/>
    <ellipse cx="11.128" cy="294.85" rx=".906" ry=".887" fill="#bfbfbf" stroke-width="0"/>
    <ellipse cx="15.16" cy="293.213" rx=".906" ry=".887" fill="#bfbfbf" stroke-width="0"/>
    <ellipse cx="18.212" cy="292.784" rx=".906" ry=".887" fill="#bfbfbf" stroke-width="0"/>
    <ellipse cx="20.134" cy="290.383" rx=".906" ry=".887" fill="#bfbfbf" stroke-width="0"/>
    <ellipse cx="20.312" cy="286.906" rx=".906" ry=".887" fill="#bfbfbf" stroke-width="0"/>
    <ellipse cx="21.802" cy="283.67" rx=".882" ry=".864" fill="#bfbfbf" stroke-width="0"/>
    <ellipse cx="12.894" cy="274.302" rx=".882" ry=".864" fill="#bfbfbf" stroke-width="0"/>
    <ellipse cx="15.926" cy="275.432" rx=".882" ry=".864" fill="#bfbfbf" stroke-width="0"/>
    <ellipse cx="18.038" cy="277.584" rx=".787" ry=".771" fill="#bfbfbf" stroke-width="0"/>
    <ellipse cx="21.369" cy="279.324" rx=".882" ry=".864" fill="#bfbfbf" stroke-width="0"/>
    <ellipse cx="39.702" cy="321.452" rx=".741" ry=".726" fill="#bfbfbf" stroke-width="0"/>
    <ellipse cx="37.054" cy="321.491" rx=".906" ry=".887" fill="#bfbfbf" stroke-width="0"/>
    <ellipse cx="23.79" cy="281.223" rx=".882" ry=".864" fill="#bfbfbf" stroke-width="0"/>
    <ellipse cx="24.204" cy="286.359" rx=".906" ry=".887" fill="#bfbfbf" stroke-width="0"/>
    <ellipse cx="23.366" cy="289.252" rx=".906" ry=".887" fill="#bfbfbf" stroke-width="0"/>
    <ellipse cx="23.189" cy="292.482" rx=".906" ry=".887" fill="#bfbfbf" stroke-width="0"/>
    <ellipse cx="20.865" cy="294.518" rx=".906" ry=".887" fill="#bfbfbf" stroke-width="0"/>
    <ellipse cx="17.838" cy="296.711" rx=".906" ry=".887" fill="#bfbfbf" stroke-width="0"/>
    <ellipse cx="14.487" cy="296.688" rx=".906" ry=".887" fill="#bfbfbf" stroke-width="0"/>
    <ellipse cx="11.658" cy="298.475" rx=".906" ry=".887" fill="#bfbfbf" stroke-width="0"/>
    <ellipse cx="14.634" cy="300.026" rx=".906" ry=".887" fill="#bfbfbf" stroke-width="0"/>
    <ellipse cx="17.704" cy="300.064" rx=".906" ry=".887" fill="#bfbfbf" stroke-width="0"/>
    <ellipse cx="20.83" cy="298.246" rx=".906" ry=".887" fill="#bfbfbf" stroke-width="0"/>
    <ellipse cx="20.794" cy="301.571" rx=".906" ry=".887" fill="#bfbfbf" stroke-width="0"/>
    <ellipse cx="41.968" cy="322.459" rx=".727" ry=".712" fill="#bfbfbf" stroke-width="0"/>
    <ellipse cx="40.091" cy="318.617" rx=".738" ry=".723" fill="#bfbfbf" stroke-width="0"/>
    <ellipse cx="8.083" cy="315.636" rx=".906" ry=".887" fill="#bfbfbf" stroke-width="0"/>
    <ellipse cx="8.893" cy="318.409" rx=".906" ry=".887" fill="#bfbfbf" stroke-width="0"/>
    <ellipse cx="11.323" cy="317.093" rx=".882" ry=".864" fill="#bfbfbf" stroke-width="0"/>
    <ellipse cx="9.068" cy="312.286" rx=".906" ry=".887" fill="#bfbfbf" stroke-width="0"/>
    <ellipse cx="11.293" cy="313.849" rx=".906" ry=".887" fill="#bfbfbf" stroke-width="0"/>
    <ellipse cx="7.731" cy="308.63" rx=".882" ry=".864" fill="#bfbfbf" stroke-width="0"/>
    <ellipse cx="10.514" cy="309.695" rx=".906" ry=".887" fill="#bfbfbf" stroke-width="0"/>
    <ellipse cx="13.54" cy="311.675" rx=".882" ry=".864" fill="#bfbfbf" stroke-width="0"/>
    <ellipse cx="16.033" cy="313.579" rx=".882" ry=".864" fill="#bfbfbf" stroke-width="0"/>
    <ellipse cx="14.145" cy="315.921" rx=".906" ry=".887" fill="#bfbfbf" stroke-width="0"/>
    <ellipse cx="14.067" cy="319.145" rx=".882" ry=".864" fill="#bfbfbf" stroke-width="0"/>
    <ellipse cx="40.271" cy="301.571" rx=".906" ry=".887" fill="#bfbfbf" stroke-width="0"/>
    <ellipse cx="44.389" cy="303.016" rx=".906" ry=".887" fill="#bfbfbf" stroke-width="0"/>
    <ellipse cx="43.518" cy="306.524" rx=".906" ry=".887" fill="#bfbfbf" stroke-width="0"/>
    <ellipse cx="47.55" cy="304.886" rx=".906" ry=".887" fill="#bfbfbf" stroke-width="0"/>
    <ellipse cx="50.602" cy="304.458" rx=".906" ry=".887" fill="#bfbfbf" stroke-width="0"/>
    <ellipse cx="24.054" cy="317.233" rx=".906" ry=".887" fill="#bfbfbf" stroke-width="0"/>
    <ellipse cx="16.759" cy="318.244" rx=".906" ry=".887" fill="#bfbfbf" stroke-width="0"/>
    <ellipse cx="18.249" cy="315.008" rx=".882" ry=".864" fill="#bfbfbf" stroke-width="0"/>
    <ellipse cx="9.341" cy="305.641" rx=".882" ry=".864" fill="#bfbfbf" stroke-width="0"/>
    <ellipse cx="12.373" cy="306.77" rx=".882" ry=".864" fill="#bfbfbf" stroke-width="0"/>
    <ellipse cx="14.485" cy="308.922" rx=".787" ry=".771" fill="#bfbfbf" stroke-width="0"/>
    <ellipse cx="17.816" cy="310.662" rx=".882" ry=".864" fill="#bfbfbf" stroke-width="0"/>
    <ellipse cx="18.695" cy="307.762" rx=".906" ry=".887" fill="#bfbfbf" stroke-width="0"/>
    <ellipse cx="15.773" cy="305.776" rx=".741" ry=".726" fill="#bfbfbf" stroke-width="0"/>
    <ellipse cx="12.969" cy="303.698" rx=".906" ry=".887" fill="#bfbfbf" stroke-width="0"/>
    <ellipse cx="10.323" cy="302.129" rx=".791" ry=".775" fill="#bfbfbf" stroke-width="0"/>
    <ellipse cx="19.824" cy="312.561" rx=".882" ry=".864" fill="#bfbfbf" stroke-width="0"/>
    <ellipse cx="21.802" cy="315.556" rx=".906" ry=".887" fill="#bfbfbf" stroke-width="0"/>
    <ellipse cx="21.557" cy="322.009" rx=".906" ry=".887" fill="#bfbfbf" stroke-width="0"/>
    <ellipse cx="53.255" cy="306.191" rx=".906" ry=".887" fill="#bfbfbf" stroke-width="0"/>
    <ellipse cx="50.229" cy="308.384" rx=".906" ry=".887" fill="#bfbfbf" stroke-width="0"/>
    <ellipse cx="46.878" cy="308.362" rx=".906" ry=".887" fill="#bfbfbf" stroke-width="0"/>
    <ellipse cx="44.049" cy="310.148" rx=".906" ry=".887" fill="#bfbfbf" stroke-width="0"/>
    <ellipse cx="47.024" cy="311.699" rx=".906" ry=".887" fill="#bfbfbf" stroke-width="0"/>
    <ellipse cx="50.094" cy="311.737" rx=".906" ry=".887" fill="#bfbfbf" stroke-width="0"/>
    <ellipse cx="53.221" cy="309.919" rx=".906" ry=".887" fill="#bfbfbf" stroke-width="0"/>
    <ellipse cx="53.185" cy="313.244" rx=".906" ry=".887" fill="#bfbfbf" stroke-width="0"/>
    <ellipse cx="21.482" cy="309.749" rx=".906" ry=".887" fill="#bfbfbf" stroke-width="0"/>
    <ellipse cx="22.116" cy="306.76" rx=".906" ry=".887" fill="#bfbfbf" stroke-width="0"/>
    <ellipse cx="19.257" cy="304.752" rx=".727" ry=".712" fill="#bfbfbf" stroke-width="0"/>
    <ellipse cx="16.567" cy="302.837" rx=".738" ry=".723" fill="#bfbfbf" stroke-width="0"/>
    <ellipse cx="33.307" cy="313.386" rx=".906" ry=".887" fill="#bfbfbf" stroke-width="0"/>
    <ellipse cx="29.982" cy="313.797" rx=".906" ry=".887" fill="#bfbfbf" stroke-width="0"/>
    <ellipse cx="27.418" cy="315.933" rx=".906" ry=".887" fill="#bfbfbf" stroke-width="0"/>
    <ellipse cx="30.576" cy="317.087" rx=".906" ry=".887" fill="#bfbfbf" stroke-width="0"/>
    <ellipse cx="33.625" cy="316.727" rx=".906" ry=".887" fill="#bfbfbf" stroke-width="0"/>
    <ellipse cx="36.479" cy="314.522" rx=".906" ry=".887" fill="#bfbfbf" stroke-width="0"/>
    <ellipse cx="37.114" cy="316.962" rx=".906" ry=".887" fill="#bfbfbf" stroke-width="0"/>
    <ellipse cx="27.035" cy="312.402" rx=".906" ry=".887" fill="#bfbfbf" stroke-width="0"/>
    <ellipse cx="24.686" cy="310.662" rx=".906" ry=".887" fill="#bfbfbf" stroke-width="0"/>
    <ellipse cx="23.995" cy="299.337" rx=".906" ry=".887" fill="#bfbfbf" stroke-width="0"/>
    <ellipse cx="22.247" cy="303.773" rx=".906" ry=".887" fill="#bfbfbf" stroke-width="0"/>
    <ellipse cx="24.752" cy="314.301" rx=".906" ry=".887" fill="#bfbfbf" stroke-width="0"/>
    <ellipse cx="22.574" cy="312.561" rx=".906" ry=".887" fill="#bfbfbf" stroke-width="0"/>
    <ellipse cx="40.464" cy="292.615" rx=".906" ry=".887" fill="#bfbfbf" stroke-width="0"/>
    <path d="m40.407,312.083l-.179.87-.179.87.179-.87.179-.87Z" fill="#bfbfbf" stroke-width="0"/>
    <ellipse cx="41.384" cy="309.317" rx=".906" ry=".887" fill="#bfbfbf" stroke-width="0"/>
    <ellipse cx="40.409" cy="312.988" rx=".906" ry=".887" fill="#bfbfbf" stroke-width="0"/>
    <ellipse cx="8.364" cy="299.648" rx=".882" ry=".864" fill="#bfbfbf" stroke-width="0"/>
    <ellipse cx="50.247" cy="322.586" rx=".906" ry=".887" fill="#bfbfbf" stroke-width="0"/>
    <ellipse cx="43.916" cy="313.386" rx=".882" ry=".864" fill="#bfbfbf" stroke-width="0"/>
    <ellipse cx="19.604" cy="317.798" rx=".906" ry=".887" fill="#bfbfbf" stroke-width="0"/>
    <ellipse cx="42.632" cy="315.991" rx=".882" ry=".864" fill="#bfbfbf" stroke-width="0"/>
    <ellipse cx="52.289" cy="315.719" rx=".882" ry=".864" fill="#bfbfbf" stroke-width="0"/>
    <ellipse cx="46.614" cy="314.092" rx=".906" ry=".887" fill="#bfbfbf" stroke-width="0"/>
    <ellipse cx="35.777" cy="319.432" rx=".882" ry=".864" fill="#bfbfbf" stroke-width="0"/>
    <ellipse cx="7.921" cy="303.055" rx=".906" ry=".887" fill="#bfbfbf" stroke-width="0"/>
    <ellipse cx="39.32" cy="316.076" rx=".906" ry=".887" fill="#bfbfbf" stroke-width="0"/>
    <ellipse cx="8.995" cy="289.645" rx=".906" ry=".887" fill="#bfbfbf" stroke-width="0"/>
    <ellipse cx="42.243" cy="318.581" rx=".906" ry=".887" fill="#bfbfbf" stroke-width="0"/>
    <ellipse cx="18.441" cy="320.087" rx=".638" ry=".625" fill="#bfbfbf" stroke-width="0"/>
    <ellipse cx="63.415" cy="322.185" rx=".906" ry=".887" fill="#bfbfbf" stroke-width="0"/>
    <ellipse cx="66.085" cy="322.23" rx=".906" ry=".887" fill="#bfbfbf" stroke-width="0"/>
    <ellipse cx="7.731" cy="277.652" rx=".882" ry=".864" fill="#bfbfbf" stroke-width="0"/>
    <ellipse cx="38.87" cy="310.417" rx=".721" ry=".706" fill="#bfbfbf" stroke-width="0"/>
    <ellipse cx="51.859" cy="320.476" rx=".882" ry=".864" fill="#bfbfbf" stroke-width="0"/>
    <ellipse cx="26.825" cy="318.919" rx=".787" ry=".771" fill="#bfbfbf" stroke-width="0"/>
    <ellipse cx="7.921" cy="272.55" rx=".882" ry=".864" fill="#bfbfbf" stroke-width="0"/>
    <ellipse cx="56.541" cy="322.796" rx=".741" ry=".726" fill="#bfbfbf" stroke-width="0"/>
    <ellipse cx="53.57" cy="322.556" rx=".906" ry=".887" fill="#bfbfbf" stroke-width="0"/>
    <ellipse cx="41.587" cy="303.927" rx=".791" ry=".775" fill="#bfbfbf" stroke-width="0"/>
    <ellipse cx="8.901" cy="274.883" rx=".882" ry=".864" fill="#bfbfbf" stroke-width="0"/>
    <ellipse cx="9.315" cy="280.02" rx=".906" ry=".887" fill="#bfbfbf" stroke-width="0"/>
    <ellipse cx="8.477" cy="282.912" rx=".906" ry=".887" fill="#bfbfbf" stroke-width="0"/>
    <ellipse cx="8.3" cy="286.142" rx=".906" ry=".887" fill="#bfbfbf" stroke-width="0"/>
    <ellipse cx="61.094" cy="322.581" rx=".906" ry=".887" fill="#bfbfbf" stroke-width="0"/>
    <ellipse cx="58.765" cy="321.742" rx=".906" ry=".887" fill="#bfbfbf" stroke-width="0"/>
    <ellipse cx="25.824" cy="283.162" rx=".906" ry=".887" fill="#bfbfbf" stroke-width="0"/>
    <ellipse cx="26.89" cy="286.372" rx=".906" ry=".887" fill="#bfbfbf" stroke-width="0"/>
    <ellipse cx="49.572" cy="314.983" rx=".906" ry=".887" fill="#bfbfbf" stroke-width="0"/>
    <ellipse cx="8.439" cy="292.803" rx=".906" ry=".887" fill="#bfbfbf" stroke-width="0"/>
    <ellipse cx="8.403" cy="296.128" rx=".906" ry=".887" fill="#bfbfbf" stroke-width="0"/>
    <ellipse cx="10.145" cy="272.071" rx=".906" ry=".887" fill="#bfbfbf" stroke-width="0"/>
    <ellipse cx="44.18" cy="319.704" rx=".906" ry=".887" fill="#bfbfbf" stroke-width="0"/>
    <ellipse cx="47.735" cy="322.323" rx=".727" ry=".712" fill="#bfbfbf" stroke-width="0"/>
    <ellipse cx="45.115" cy="322.28" rx=".738" ry=".723" fill="#bfbfbf" stroke-width="0"/>
    <ellipse cx="50.828" cy="318.156" rx=".882" ry=".864" fill="#bfbfbf" stroke-width="0"/>
    <ellipse cx="45.553" cy="316.693" rx=".906" ry=".887" fill="#bfbfbf" stroke-width="0"/>
    <ellipse cx="48.511" cy="317.585" rx=".906" ry=".887" fill="#bfbfbf" stroke-width="0"/>
    <ellipse cx="47.156" cy="319.435" rx=".887" ry=".906" transform="translate(-222.032 141.109) rotate(-48.08)" fill="#bfbfbf" stroke-width="0"/>
    <ellipse cx="55.732" cy="320.076" rx=".882" ry=".864" fill="#bfbfbf" stroke-width="0"/>
    <ellipse cx="33.307" cy="318.919" rx=".882" ry=".864" fill="#bfbfbf" stroke-width="0"/>
    <ellipse cx="38.219" cy="319.51" rx=".638" ry=".625" fill="#bfbfbf" stroke-width="0"/>
    <ellipse cx="57.769" cy="319.707" rx=".638" ry=".625" fill="#bfbfbf" stroke-width="0"/>
    <ellipse cx="53.456" cy="318.409" rx=".882" ry=".864" fill="#bfbfbf" stroke-width="0"/>
    <ellipse cx="30.03" cy="319.194" rx=".646" ry=".633" fill="#bfbfbf" stroke-width="0"/>
  </g>
  <path d="m163.418-258.842c.952-2.903,4.443-10.495,5.078-14.291.635-3.795,2.539-7.368,10.79-7.368s10.156,1.786,13.012-2.679c2.856-4.466,0-15.184-2.856-18.31-2.856-3.126-8.886-8.931,1.587-8.038s17.138,4.689,19.677-7.145c2.539-11.834.317-17.863-9.521-22.775-9.838-4.912-19.042-6.028-17.455-11.164,1.587-5.136,1.581-7.766,10.629-9.465,5.152-.968,10.99-1.86,15.999-1.566,5.008.294,22.398,4.502,23.65,6.754,1.252,2.251,4.313,4.404.139,11.745-4.174,7.341-5.843,8.516-7.791,12.333-1.948,3.817-2.504,7.243.974,10.767,3.478,3.523,4.73,9.103,1.53,12.039s-10.851,9.69,2.504,7.243c13.356-2.447,13.634-4.405,19.199-3.622,5.565.783,11.408-.196,12.938,3.328,1.53,3.524,3.2,4.111,5.426,5.09,2.226.979,7.652,2.838,5.843,5.971-1.809,3.132-3.617,3.23-3.895,6.362-.278,3.132-.696,6.754-1.113,7.831s-4.591,2.936-3.756,5.089,4.869,1.958,10.156-.391,6.817-1.664,10.434-6.46c3.617-4.796,7.513-7.439,8.765-9.886,1.252-2.447-.696-5.188-2.643-6.852-1.948-1.664-6.4-4.601-4.452-9.886,1.948-5.286,7.095-6.558,11.13-7.243s13.216-.685,15.999-3.328c2.782-2.643,1.809-7.145-2.087-7.243-3.895-.098-10.156,1.174-13.495-.49-3.339-1.664-9.043-8.222-9.321-10.179-.278-1.958-1.391-6.362,6.121-6.362s11.825-.881,16.973-2.153c5.147-1.272,9.878-1.468,10.851-.881.974.587,9.871,7.318,18.53,8.841s13.95,1.523,19.482,5.077c5.532,3.553,10.102,12.86,7.937,21.66-2.165,8.799-7.456,5.246-7.696,14.214-.241,8.968,6.013,10.999,9.861,10.999s46.179-7.276,40.888,6.092-8.899,20.137-3.367,22.675c5.532,2.539,12.266,3.892,18.76-3.046,6.494-6.938,15.153-19.967,19.722-21.49,4.57-1.523,6.982-11.812,25.599-9.583,18.617,2.229,19.013,14.213,34.462,2.787,15.448-11.426,21.786-21.18,29.312-29.541,7.526-8.361,17.825-16.721,28.124-10.869,10.299,5.852-1.584,11.426-5.149,15.885-3.565,4.459-7.13,9.197,3.961,13.935,11.091,4.738,6.338,10.312,3.565,15.885s-4.753,11.983-13.468,23.688c-8.714,11.705-27.332,22.853-25.351,39.574,1.981,16.721,8.714,14.771,11.091,18.393,2.377,3.623,5.15,8.64,9.111,12.541,3.961,3.902,4.753,6.688,5.15,11.147s3.169,4.738,5.546,7.803c2.377,3.065,3.565,5.853-1.981,10.033s-8.318,12.541-5.942,18.115c2.377,5.574,8.714,12.262-5.149,13.098-13.864.836-19.013,1.672-20.598,11.705s-3.169,11.426-9.903,14.77c-6.734,3.344-15.052,4.738-26.143,18.394-11.091,13.656-20.202,30.376-30.501,42.917-10.299,12.541-15.052,21.459-26.936,26.754-11.883,5.295-21.39,5.295-29.708,16.164-8.318,10.869-19.806,13.655-21.786,22.852-1.981,9.197,3.169,12.541,11.091,5.017,7.922-7.525,9.903-10.312,15.844-11.984,5.942-1.672,6.734-8.918,13.468-11.426,6.734-2.508,7.526-.558,16.241-.558s10.695-1.672,15.844-1.394c5.15.279,9.111.836,12.676,1.672,3.565.836,7.13-.836,11.091,10.869,3.961,11.705,10.299,8.639,16.241,6.131,5.942-2.508,13.072-5.295,14.26-6.967,1.188-1.672-5.942-3.902-6.734-6.131-.792-2.229-6.688-5.458,9.967-6.054,16.655-.596,18.349-3.376,24.559-4.369,6.21-.993,18.631-.596,25.97-.993,7.339-.397,25.406-1.39,31.051-1.787,5.646-.397,12.703-3.178,19.195-3.575,6.493-.397,18.631.794,23.712,2.78,5.081,1.986,8.469,2.383,11.291,4.965,2.823,2.582,16.87,11.03,14.637,20.191-2.232,9.162-10.79,19.371-7.441,27.224,3.349,7.853,14.51,19.109,31.998,26.962,17.487,7.853,18.975,7.068,28.649.786,9.674-6.283,30.137-14.136,16.743-1.571-13.394,12.565-2.977,9.686,4.837,8.115,7.813-1.571,13.022-5.759,17.487-8.115,4.465-2.356,3.721-8.638,4.465-10.732s5.209-3.927,16.371,1.047c11.162,4.974,11.162,9.947,26.789,11.518,15.627,1.57,27.161,7.853,14.883,16.753-12.278,8.9-13.766,6.021-22.324,6.806-8.557.785-18.603,7.33-24.184,14.921-5.581,7.591-5.209,3.403-15.999,2.618-10.79-.786-17.859,3.665-24.556,16.491-6.697,12.827-11.906,13.35-26.045,23.036-14.138,9.686-13.394,18.847-17.115,22.25-3.721,3.403-18.975,1.833-21.58,16.492-2.604,14.659,10.046,15.444,22.696,10.471,12.65-4.974,26.417-17.8,30.881-21.465,4.465-3.665,11.534-2.356,21.952,2.618,10.418,4.973,15.255-2.618,22.696-3.142,7.441-.523,19.347-.523,23.068,4.188,3.721,4.712,5.581,16.229-2.232,18.847-7.813,2.618-17.115,5.497-25.3,2.356s-11.162-6.021-14.883-6.282c-3.721-.262-11.906.168-11.742,11.8.164,11.632,6.875,14.972,3.11,26.375-3.765,11.402-4.911,15.548,6.384,13.705,11.295-1.843,7.858-3.801,17.188-3.916,9.331-.115,10.313,2.649,19.316-1.728s13.423-6.795,16.534,1.382c3.11,8.177,11.623,10.25,14.242,8.983,2.619-1.267,8.185-2.649,8.185-16.239s1.964-13.82,5.238-14.396c3.274-.576,13.751,0,22.427-7.371,8.676-7.371,10.64-13.475,8.185-14.972-2.455-1.498-5.566-.576-9.003.576-3.438,1.152-7.694,2.073-9.495-1.497s-3.11-5.183-8.021-8.523c-4.911-3.34-7.039-13.014-2.947-16.93,4.092-3.916,8.512-5.874,22.099-6.68s14.733-3.455,20.953-3.34c6.221.115,11.131.23,10.477,5.874-.655,5.644-3.274,10.135,1.31,10.135s4.747-4.031,8.185-3.686c3.438.345,4.42,1.037,9.167-1.612,4.747-2.649,7.53-8.868,16.042-7.256s15.388,6.45,25.864,3.686c10.477-2.764,12.768-8.177,21.281-9.329,8.512-1.151,18.007-3.8,18.662,8.292s-6.221,29.138-12.114,31.326c-5.893,2.188-9.658,3.225-6.221,7.486s3.765,2.764,12.605,9.099c8.84,6.334-23.167-4.967-20.881,5.329s11.89,18.983,12.805,25.097c.915,6.113-2.744,3.861,4.573,11.261,7.317,7.4,24.695,11.904,24.695,11.904,0,0,60.224,8.745,64.66,10.963s62.84,8.872,42.14-21.44c-20.7-30.311-45.837,25.875-32.529-44.358,13.307-70.233,65.798-41.401,37.704-70.233-28.093-28.833-39.922-.739-34.008-49.533s-14.786-106.459,19.961-147.12c34.747-40.661,74.669,8.872,95.37,12.568,20.7,3.696,53.969,26.615,66.537-1.479,12.568-28.093,25.136-38.444,15.525-54.708-9.611-16.265-11.829-28.093-5.175-46.576s28.833-6.654,28.833-14.786-5.914-12.568-5.914-25.136,5.679-13.211,10.972-16.956c7.24-5.122,14.675-7.139,24.591-5.553,9.916,1.586,23.797,5.156,39.266-2.776,15.468-7.932,34.903-9.122,42.042-11.105,7.139-1.983,45.215-15.468,53.148-15.865,7.932-.397,15.865-3.57,30.937-6.743,15.072-3.173,44.818-9.519,58.304,2.38,13.485,11.899,18.245,20.228,29.35,20.624,11.105.397,25.781,1.19,38.869,4.759s38.076-5.949,42.835-5.553,20.624,3.966,37.283-8.726c16.658-12.692,47.198-36.489,68.616-52.751,21.418-16.262,15.072-14.278,29.35-26.177s21.814-16.262,21.814-16.262c0,0,13.54-9.368,22.805-10.191" fill="none" stroke="#221f1f" stroke-linecap="round" stroke-miterlimit="10" stroke-width=".75"/>
  <g>
    <path d="m126.013,1.569c-.602-.246-.891-.934-.645-1.536.246-.602.934-.891,1.536-.645.602.246.891.934.645,1.536-.246.602-.934.891-1.536.645Z" fill="#231f20" stroke-width="0"/>
    <path d="m124.216,5.971c-.602-.246-.891-.933-.645-1.536.246-.602.934-.891,1.536-.645.602.246.891.934.645,1.536-.246.602-.934.891-1.536.645Z" fill="#231f20" stroke-width="0"/>
    <path d="m122.418,10.373c-.602-.246-.891-.933-.645-1.536.246-.602.934-.891,1.536-.645.602.246.891.934.645,1.536-.246.602-.934.891-1.536.645Z" fill="#231f20" stroke-width="0"/>
    <path d="m120.62,14.775c-.602-.246-.891-.933-.645-1.536.246-.602.934-.891,1.536-.645.602.246.891.934.645,1.536s-.934.891-1.536.645Z" fill="#231f20" stroke-width="0"/>
    <path d="m118.822,19.178c-.602-.246-.891-.933-.645-1.536.246-.602.933-.891,1.536-.645.602.246.891.934.645,1.536-.246.602-.934.891-1.536.645Z" fill="#231f20" stroke-width="0"/>
    <path d="m117.025,23.58c-.602-.246-.891-.934-.645-1.536.246-.602.933-.891,1.536-.645.602.246.891.934.645,1.536-.246.602-.934.891-1.536.645Z" fill="#231f20" stroke-width="0"/>
    <path d="m115.227,27.982c-.602-.246-.891-.934-.645-1.536.246-.602.934-.891,1.536-.645s.891.934.645,1.536c-.246.602-.934.891-1.536.645Z" fill="#231f20" stroke-width="0"/>
    <path d="m113.429,32.385c-.602-.246-.891-.934-.645-1.536.246-.602.934-.891,1.536-.645s.891.934.645,1.536c-.246.602-.934.891-1.536.645Z" fill="#231f20" stroke-width="0"/>
    <path d="m111.632,36.787c-.602-.246-.891-.934-.645-1.536.246-.602.934-.891,1.536-.645.602.246.891.933.645,1.536-.246.602-.933.891-1.536.645Z" fill="#231f20" stroke-width="0"/>
    <path d="m109.834,41.189c-.602-.246-.891-.934-.645-1.536s.934-.891,1.536-.645c.602.246.891.933.645,1.536-.246.602-.933.891-1.536.645Z" fill="#231f20" stroke-width="0"/>
    <path d="m108.036,45.592c-.602-.246-.891-.934-.645-1.536s.934-.891,1.536-.645c.602.246.891.933.645,1.536-.246.602-.934.891-1.536.645Z" fill="#231f20" stroke-width="0"/>
    <path d="m106.238,49.994c-.602-.246-.891-.934-.645-1.536s.934-.891,1.536-.645c.602.246.891.933.645,1.536-.246.602-.934.891-1.536.645Z" fill="#231f20" stroke-width="0"/>
    <path d="m104.441,54.396c-.602-.246-.891-.934-.645-1.536.246-.602.934-.891,1.536-.645.602.246.891.934.645,1.536-.246.602-.934.891-1.536.645Z" fill="#231f20" stroke-width="0"/>
  </g>
  <g>
    <path d="m83.72,107.155c-.604-.241-.899-.926-.658-1.531.241-.604.926-.899,1.531-.658.604.241.899.926.658,1.531s-.926.899-1.531.658Z" fill="#231f20" stroke-width="0"/>
    <path d="m81.957,111.574c-.604-.241-.899-.926-.658-1.531s.926-.898,1.531-.657c.604.241.899.926.658,1.531s-.926.899-1.531.657Z" fill="#231f20" stroke-width="0"/>
    <path d="m80.195,115.993c-.604-.241-.899-.926-.658-1.531s.926-.899,1.531-.658c.604.241.899.926.658,1.531-.241.604-.926.899-1.531.658Z" fill="#231f20" stroke-width="0"/>
    <path d="m78.432,120.412c-.604-.241-.899-.926-.658-1.531s.926-.899,1.53-.657c.604.241.899.926.658,1.531-.241.604-.926.898-1.53.657Z" fill="#231f20" stroke-width="0"/>
    <path d="m76.669,124.831c-.604-.241-.899-.926-.658-1.531.241-.604.926-.899,1.53-.658.604.241.899.926.658,1.531s-.926.899-1.53.658Z" fill="#231f20" stroke-width="0"/>
    <path d="m74.906,129.25c-.604-.241-.899-.926-.658-1.531.241-.604.926-.899,1.531-.657.604.241.899.926.658,1.53-.241.604-.926.899-1.531.658Z" fill="#231f20" stroke-width="0"/>
    <path d="m73.143,133.669c-.604-.241-.899-.926-.658-1.53.241-.604.926-.899,1.531-.658.604.241.899.926.658,1.531s-.926.899-1.531.657Z" fill="#231f20" stroke-width="0"/>
    <path d="m71.38,138.088c-.604-.241-.899-.926-.658-1.531s.926-.899,1.531-.658c.604.241.899.926.658,1.531-.241.604-.926.899-1.531.658Z" fill="#231f20" stroke-width="0"/>
    <path d="m69.617,142.507c-.604-.241-.899-.926-.658-1.531.241-.604.926-.898,1.53-.657.604.241.899.926.658,1.531-.241.604-.926.899-1.53.657Z" fill="#231f20" stroke-width="0"/>
    <path d="m67.854,146.926c-.604-.241-.899-.926-.658-1.531.241-.604.926-.899,1.53-.658.604.241.899.926.658,1.531s-.926.899-1.53.658Z" fill="#231f20" stroke-width="0"/>
    <path d="m66.091,151.345c-.604-.241-.899-.926-.658-1.531.241-.604.926-.899,1.531-.657.604.241.899.926.658,1.531s-.926.899-1.531.657Z" fill="#231f20" stroke-width="0"/>
    <path d="m64.329,155.764c-.604-.241-.899-.926-.658-1.531s.926-.899,1.531-.658c.604.241.899.926.658,1.531s-.926.899-1.531.658Z" fill="#231f20" stroke-width="0"/>
    <path d="m62.566,160.183c-.604-.241-.899-.926-.658-1.531s.926-.899,1.531-.657c.604.241.899.926.658,1.531-.241.604-.926.898-1.531.657Z" fill="#231f20" stroke-width="0"/>
    <path d="m60.803,164.603c-.604-.241-.899-.926-.658-1.531s.926-.899,1.53-.658c.604.241.899.926.658,1.531-.241.604-.926.899-1.53.658Z" fill="#231f20" stroke-width="0"/>
    <path d="m59.04,169.021c-.604-.241-.899-.926-.658-1.531.241-.604.926-.899,1.53-.657.604.241.899.926.658,1.53-.241.604-.926.899-1.53.658Z" fill="#231f20" stroke-width="0"/>
    <path d="m57.277,173.44c-.604-.241-.899-.926-.658-1.53.241-.604.926-.899,1.531-.658s.899.926.658,1.531-.926.899-1.531.657Z" fill="#231f20" stroke-width="0"/>
    <path d="m55.514,177.86c-.604-.241-.899-.926-.658-1.531s.926-.899,1.531-.658c.604.241.899.926.658,1.531s-.926.899-1.531.658Z" fill="#231f20" stroke-width="0"/>
    <path d="m53.751,182.279c-.604-.241-.899-.926-.658-1.531.241-.604.926-.898,1.531-.657.604.241.899.926.658,1.531-.241.604-.926.899-1.531.657Z" fill="#231f20" stroke-width="0"/>
    <path d="m51.988,186.698c-.604-.241-.899-.926-.658-1.531s.926-.899,1.53-.658c.604.241.899.926.658,1.531-.241.604-.926.899-1.53.658Z" fill="#231f20" stroke-width="0"/>
    <path d="m50.225,191.117c-.604-.241-.899-.926-.658-1.531.241-.604.926-.899,1.53-.657.604.241.899.926.658,1.531s-.926.898-1.53.657Z" fill="#231f20" stroke-width="0"/>
    <path d="m48.462,195.536c-.604-.241-.899-.926-.658-1.531.241-.604.926-.899,1.531-.658.604.241.899.926.658,1.531s-.926.899-1.531.658Z" fill="#231f20" stroke-width="0"/>
    <path d="m46.7,199.955c-.604-.241-.899-.926-.658-1.531s.926-.899,1.531-.657c.604.241.899.926.658,1.531-.241.604-.926.898-1.531.657Z" fill="#231f20" stroke-width="0"/>
    <path d="m44.937,204.374c-.604-.241-.899-.926-.658-1.53s.926-.899,1.53-.658c.604.241.899.926.658,1.531-.241.604-.926.899-1.531.657Z" fill="#231f20" stroke-width="0"/>
    <path d="m43.174,208.793c-.604-.241-.899-.926-.658-1.531s.926-.899,1.53-.657c.604.241.899.926.658,1.53-.241.604-.926.899-1.53.658Z" fill="#231f20" stroke-width="0"/>
    <path d="m41.411,213.212c-.604-.241-.899-.926-.658-1.531.241-.604.926-.898,1.53-.657s.899.926.658,1.531-.926.899-1.53.657Z" fill="#231f20" stroke-width="0"/>
    <path d="m39.648,217.631c-.604-.241-.899-.926-.658-1.531.241-.604.926-.899,1.531-.658.604.241.899.926.658,1.531s-.926.899-1.531.658Z" fill="#231f20" stroke-width="0"/>
    <path d="m37.885,222.05c-.604-.241-.899-.926-.658-1.531s.926-.898,1.531-.657c.604.241.899.926.658,1.531s-.926.899-1.531.657Z" fill="#231f20" stroke-width="0"/>
    <path d="m36.122,226.469c-.604-.241-.899-.926-.658-1.531s.926-.899,1.53-.658c.604.241.899.926.658,1.531-.241.604-.926.899-1.531.658Z" fill="#231f20" stroke-width="0"/>
    <path d="m34.359,230.888c-.604-.241-.899-.926-.658-1.531.241-.604.926-.899,1.53-.657.604.241.899.926.658,1.531-.241.604-.926.898-1.53.657Z" fill="#231f20" stroke-width="0"/>
    <path d="m32.597,235.307c-.604-.241-.899-.926-.658-1.531.241-.604.926-.899,1.53-.658s.899.926.658,1.531-.926.899-1.53.658Z" fill="#231f20" stroke-width="0"/>
    <path d="m30.834,239.726c-.604-.241-.899-.926-.658-1.531.241-.604.926-.899,1.531-.657.604.241.899.926.658,1.53-.241.604-.926.899-1.531.658Z" fill="#231f20" stroke-width="0"/>
    <path d="m29.071,244.145c-.604-.241-.899-.926-.658-1.53.241-.604.926-.899,1.531-.658.604.241.899.926.658,1.531s-.926.899-1.531.657Z" fill="#231f20" stroke-width="0"/>
    <path d="m27.308,248.564c-.604-.241-.899-.926-.658-1.531s.926-.899,1.53-.658c.604.241.899.926.658,1.531-.241.604-.926.899-1.531.658Z" fill="#231f20" stroke-width="0"/>
    <path d="m25.545,252.983c-.604-.241-.899-.926-.658-1.531.241-.604.926-.898,1.53-.657.604.241.899.926.658,1.531-.241.604-.926.899-1.53.657Z" fill="#231f20" stroke-width="0"/>
    <path d="m23.782,257.403c-.604-.241-.899-.926-.658-1.531.241-.604.926-.899,1.53-.658.604.241.899.926.658,1.531s-.926.899-1.53.658Z" fill="#231f20" stroke-width="0"/>
    <path d="m22.019,261.822c-.604-.241-.899-.926-.658-1.531.241-.604.926-.899,1.531-.657.604.241.899.926.658,1.531s-.926.899-1.531.657Z" fill="#231f20" stroke-width="0"/>
    <path d="m20.256,266.241c-.604-.241-.899-.926-.658-1.531s.926-.899,1.531-.658c.604.241.899.926.658,1.531s-.926.899-1.531.658Z" fill="#231f20" stroke-width="0"/>
    <path d="m18.493,270.66c-.604-.241-.899-.926-.658-1.531s.926-.899,1.53-.657c.604.241.899.926.658,1.531-.241.604-.926.898-1.531.657Z" fill="#231f20" stroke-width="0"/>
    <path d="m16.73,275.079c-.604-.241-.899-.926-.658-1.531.241-.604.926-.899,1.53-.658.604.241.899.926.658,1.531-.241.604-.926.899-1.53.658Z" fill="#231f20" stroke-width="0"/>
    <path d="m14.968,279.498c-.604-.241-.899-.926-.658-1.531.241-.604.926-.899,1.53-.657.604.241.899.926.658,1.53-.241.604-.926.899-1.53.658Z" fill="#231f20" stroke-width="0"/>
    <path d="m13.205,283.917c-.604-.241-.899-.926-.658-1.53.241-.604.926-.899,1.531-.658.604.241.899.926.658,1.531s-.926.899-1.531.657Z" fill="#231f20" stroke-width="0"/>
    <path d="m11.442,288.336c-.604-.241-.899-.926-.658-1.531s.926-.899,1.531-.658c.604.241.899.926.658,1.531s-.926.899-1.531.658Z" fill="#231f20" stroke-width="0"/>
    <path d="m9.679,292.755c-.604-.241-.899-.926-.658-1.531.241-.604.926-.898,1.53-.657.604.241.899.926.658,1.531-.241.604-.926.899-1.531.657Z" fill="#231f20" stroke-width="0"/>
    <path d="m7.916,297.174c-.604-.241-.899-.926-.658-1.531.241-.604.926-.899,1.53-.658.604.241.899.926.658,1.531-.241.604-.926.899-1.53.658Z" fill="#231f20" stroke-width="0"/>
    <path d="m6.153,301.593c-.604-.241-.899-.926-.658-1.531.241-.604.926-.899,1.53-.657.604.241.899.926.658,1.531s-.926.898-1.53.657Z" fill="#231f20" stroke-width="0"/>
    <path d="m4.39,306.012c-.604-.241-.899-.926-.658-1.531.241-.604.926-.899,1.531-.658.604.241.899.926.658,1.531s-.926.899-1.531.658Z" fill="#231f20" stroke-width="0"/>
    <path d="m2.627,310.431c-.604-.241-.899-.926-.658-1.531s.926-.899,1.531-.657c.604.241.899.926.658,1.531-.241.604-.926.898-1.531.657Z" fill="#231f20" stroke-width="0"/>
    <path d="m.864,314.85c-.604-.241-.899-.926-.658-1.531s.926-.899,1.53-.658c.604.241.899.926.658,1.531-.241.604-.926.899-1.531.658Z" fill="#231f20" stroke-width="0"/>
    <path d="m-.898,319.269c-.604-.241-.899-.926-.658-1.531.241-.604.926-.899,1.53-.657.604.241.899.926.658,1.53-.241.604-.926.899-1.53.658Z" fill="#231f20" stroke-width="0"/>
  </g>
  <path d="m-326.626-523.986c61.078-6.289,78.21,52.003,78.012,61.468s.198,19.486,4.154,29.089,6.726,11.274,9.891,15.728c3.165,4.454,10.881,2.505,16.024.557,5.144-1.949,14.046-.696,18.2-.696s8.507,6.263,19.585,8.908,18.992,5.011,19.783,11.135-14.244,5.985-25.916,5.985-7.32,6.959-5.737,10.856,5.935,7.794,5.539,10.578c-.396,2.784.198,8.212,5.737,16.563,5.539,8.351,9.298,3.479,15.826-1.392,6.528-4.872,8.507.278,22.75,2.087,14.244,1.81,15.31-7.141,16.717-14.466,1.407-7.326,6.191-6.336,9.005-5.544s.844,3.96,16.04,5.544c15.196,1.583,21.95-10.89,29.548-26.729,7.598-15.839,22.794-46.527,22.794-51.675s7.598-4.95,7.598-14.453-1.688-14.849,8.724-17.621c10.412-2.772,16.04,5.742,21.669,14.849s1.97,15.641-2.533,20.393c-4.503,4.752-7.88,16.433-10.259,24.552-2.38,8.119-10.284,33.657-8.595,36.825s13.789,14.057,11.256,19.601c-2.533,5.544-2.661,13.268.281,17.027,2.943,3.759,19.699,16.631,28.704,21.581,9.005,4.95,15.759,4.158,22.794,9.306,7.035,5.147,3.377,13.859.563,16.829-2.814,2.97-1.006,4.788-17.509,6.078-16.504,1.291-20.905,9.805-22.005,20.384-1.1,10.579,11.003,2.838,13.937.258,2.934-2.581,15.037-3.871,7.335,2.838-7.702,6.708-3.301,11.353,4.401,13.159,7.702,1.806,10.636-6.451,20.171-12.127,9.536-5.676,14.67,1.291,19.438,4.645,4.768,3.354,2.934,15.482,8.069,30.964,5.134,15.481,13.203,4.128,15.404-1.807,2.201-5.935,2.934-18.836,3.301-25.287s7.335-14.45,6.602-18.836c-.733-4.387-.367-19.868.734-24.771,1.1-4.902,5.501-10.321,13.937-10.837,8.435-.516,10.269,8.257,10.636,11.095.367,2.838,4.768,3.612,6.235-4.128,1.467-7.741-1.467-10.837-4.401-16.772s2.934-9.805,12.103-9.547c9.169.258,23.472,2.322,36.308,2.581,12.836.258,12.836-5.935,11.003-14.45-1.834-8.515,1.179-11.787,3.782-14.076,2.603-2.29,3.471-6.868,4.556-10.531,1.085-3.664,3.471-13.126,11.064-21.827,7.593-8.7,7.593-16.179,9.979-23.505,2.386-7.326,14.969-9.921,23.43-9.311s19.525,5.342,12.366,13.89c-7.159,8.547,3.471,10.073,10.413,11.142,6.942,1.068,20.176-.306,28.202-10.837,8.027-10.532,13.45-12.363,20.826-11.295s6.291,5.953,6.074,7.937c-.217,1.984-9.762,3.968-3.471,7.479,6.291,3.51,14.535,1.526,24.081-.458s5.641-6.716,3.254-14.042,3.254-10.684,11.498-10.684,18.223,4.121,18.006,14.805c-.217,10.684-8.895,12.974-11.715,14.042s-11.281,0-27.552,10.531c-16.271,10.532,2.169,18.011-16.705,23.353-18.874,5.342-9.112,9.005.434,10.99,9.545,1.984,18.874.458,28.853,1.679,9.979,1.221,18.223,6.258,25.382,5.953,7.159-.305,10.847-7.174,10.847-11.447s1.085-9.311,4.773-9.921c3.688-.611,14.318-1.374,18.44,2.442,4.122,3.816,15.186,10.684,21.694,13.89,6.508,3.205,11.715,12.363,11.715,12.363,0,0,49.246,1.526,49.029-2.595-.217-4.121,2.169-5.953,10.847-11.6,8.678-5.647,3.471-9.31,1.302-15.263s-4.556-10.379-1.736-16.942c2.82-6.563,10.196-15.11,16.271-22.437,6.074-7.326-3.905-9.158-6.508-9.005-2.603.153-11.932.153-25.382-.458-13.45-.611-19.091-1.221-26.684-3.511-7.593-2.29-8.027-9.005-7.376-13.584.651-4.579,8.461-9.616,13.016-10.379s14.535-2.595,18.874-10.684c4.339-8.089,8.461-9.311,13.884-10.379,5.424-1.068,9.545,2.595,10.847,4.273,1.302,1.679,4.773,10.532,11.932,13.737,7.159,3.205,20.541,5.955,28.856,12.324,8.315,6.37,4.989,17.029,5.173,20.149.185,3.12-1.109,10.53-10.716,17.939-9.608,7.41-6.652,11.31-4.25,17.679s-2.402,6.11-6.652,11.959c-4.25,5.85-5.913,15.08-2.032,21.839,3.88,6.76,14.597,2.21,14.597,20.02s9.238,5.72,15.336,1.04c6.097-4.68,18.292-16.77,30.487-18.979,12.195-2.21,12.934,2.73,16.814,7.41,3.88,4.68,15.705-.13,21.248.65,5.543.78,17.738,10.4,21.618,13.129,3.88,2.73,2.032,9.49-5.913,11.83-7.945,2.34-13.119,8.58-14.781,10.79-1.663,2.21,2.587,3.51-6.282,7.67-8.869,4.16-9.054,6.5-8.13,9.62.924,3.12,2.402,7.41,1.663,9.229-.739,1.82-1.478,3.77-7.206,4.939-5.728,1.17-8.869,13.39-.924,20.149,7.945,6.76,15.89,3.12,17.738-.13,1.848-3.25,6.097-4.81,9.977-8.06,3.88-3.25,2.217-14.299,3.695-19.239,1.478-4.94,7.021-7.02,11.64-7.8,4.619-.78,7.76-3.38,10.717-7.02,2.956-3.64,7.76-7.8,13.673-8.32,5.912-.52,12.195,3.64,17.368,5.33,5.173,1.69,6.467.78,13.119,2.08,6.652,1.3,7.206,7.15,7.391,10.53.185,3.379-2.772,9.619-8.315,11.179-5.543,1.56-12.749,4.81-24.205,9.88-11.456,5.069-23.096,11.049-22.172,16.509.924,5.459,2.217,4.419,14.781,7.799,12.564,3.38,9.608,8.32,7.945,10.919-1.663,2.6-8.869,6.5-19.031,1.69-10.162-4.81-16.814-2.6-21.987-1.43-5.174,1.17-10.347,4.94-19.031,8.45s-13.303,2.6-25.313,3.12-16.629,5.07-14.412,14.95c2.217,9.879,7.021,10.009,14.597,15.729,7.575,5.72,8.869,8.06,8.684,12.609-.185,4.55.739,6.89,3.511,8.71,2.771,1.82,4.25,2.34,7.76,5.07,3.51,2.729,2.956,5.589,2.402,11.829-.554,6.24,4.989,4.03,7.206,2.21,2.217-1.82,4.804-3.12,10.162-4.81,5.358-1.69,6.652,3.77,6.467,5.85-.185,2.08,1.293,8.32,4.434,13.52,3.141,5.2.554,6.24-1.293,7.8-1.848,1.56-3.88,4.68-3.511,6.239.37,1.56-.554,3.64-6.467,7.28-5.913,3.64-4.989,9.75,4.989,6.24,9.978-3.51,8.869,1.43,8.315,4.03-.554,2.6-11.086,18.459,22.727,20.799,33.812,2.34,32.519-6.5,38.432-10.01,5.913-3.51,6.467-14.299,15.151-18.589,8.684-4.29,21.987-2.6,32.704,4.55,10.717,7.149,11.64,12.089,16.999,17.549,5.358,5.46,11.456,4.55,19.77,1.3,8.315-3.25,14.966-2.86,19.585,1.3,4.619,4.16.554,8.58-7.576,13.52-8.13,4.939-6.652,9.359-2.956,14.429,3.695,5.07,20.879,6.5,24.02,6.89,3.141.39,5.543,1.17,9.054,4.42,3.511,3.25,2.402,9.62-6.467,11.7-8.869,2.08-13.303,2.99-23.096,9.229-9.793,6.24-13.488,9.75-17.368,11.439-3.88,1.69-17.922,3.77-29.378,11.049-11.456,7.28-7.945,13.649-5.173,19.239s16.26,5.98,23.281,5.07c7.021-.91-.924-5.46,15.336-2.08,16.26,3.38,22.172,9.75,31.226,15.859,9.054,6.11,22.357,3.9,26.237,1.17,3.88-2.729,9.978-10.009,21.803-14.949,11.825-4.94,11.456-15.079,7.945-21.189-3.511-6.11-5.173-11.05-2.032-15.209,3.141-4.16,8.684-9.879,14.597-22.359s16.26-12.609,20.14-12.089c3.88.52,5.173,12.739,4.25,17.809s14.78,13.624-4.434,15.469c-19.215,1.846-22.357,4.81-23.096,10.53-.739,5.72,2.771,4.939,10.347,12.739,7.576,7.8,31.411,11.569,51.181,13.779s9.054,15.209,2.587,19.109c-6.467,3.9-12.01-.91-19.401-5.2-7.391-4.29-12.01-1.17-14.227.52-2.217,1.689-14.597,11.309-22.911,16.769s-24.02,14.299-26.791,16.769c-2.771,2.47-5.173,5.07-3.695,8.45s11.825,1.95,17.183-1.95c5.358-3.9,11.64-9.75,17.738-9.75s7.575,3.51,9.423,9.879c1.848,6.37,6.097,7.67,13.488,7.02,7.391-.65,10.717-7.279,10.347-12.089-.37-4.81-1.293-10.14,7.021-10.009,8.315.13,9.423,7.02,10.717,13.649,1.293,6.629-5.913,7.54-11.271,12.999-5.358,5.46,4.619,11.31,7.206,12.87,2.587,1.56,4.983-.107,10.943,9.327,5.96,9.434,12.664,8.91,20.114,6.813,0,0,76.409-26.038,76.409-65.645s22.554-58.311,23.104-77.564c.55-19.253,5.501-24.205,12.102-27.505,6.601-3.301,6.601-14.303,20.354-11.552,13.753,2.75,14.303-6.051,33.556-1.65,19.254,4.401,25.305,6.051,32.456,12.652s11.552,12.103,23.654,15.953c12.102,3.851,35.207,11.552,36.307-9.902,1.1-21.454-15.403-47.309,1.1-73.714,12.486-19.977,17.729-25.785,22.639-27.428.475-.159,2.315-.183,4.866-.627,3.719-.647,8.516-1.482,12.688-3.874,7.188-4.119,10.053-11.44,10.478-12.574,2.145-5.711.181-7.418,2.688-16.009,1.273-4.359,2.834-7.537,3.561-8.934,1.259-2.42,4.381-8.421,9.887-12.927,7.794-6.378,19.232-8.834,28.759-7.096,5.581,1.018,8.326,3.078,14.316,2.274,4.028-.54,5.987-1.9,10.704-3.837,4.607-1.892,8.934-2.905,17.587-4.93,13.256-3.102,30.761-4.741,47.183-6.96,38.77-5.24,60.715-12.258,69.48-11.3.835.091,3.744.495,6.746-.928,3.23-1.531,4.478-4.187,5.724-5.723,3.709-4.577,10.659-3.258,21.211-3.494,18.528-.414,20.989-5.015,32.642-2.23,8.149,1.948,12.994,5.644,13.049,8.093.005.202-.034.653.09,1.293.147.763.719,1.819,3.116,5.017,6.087,8.116,12.579,11.768,22.521,13.188,9.942,1.42,9.536,2.232,16.231,6.087,6.695,3.855,11.565,5.681,16.637,6.087,5.072.406,12.579,2.029,16.231,0,3.652-2.029,8.724-6.696,14.406-9.13,5.681-2.435,9.13-3.652,14-3.652s10.753,3.246,18.26,0c7.507-3.247,35.303-17.246,39.767-24.55,4.464-7.304,13.797-9.739,17.854-15.825,4.058-6.087-.406-19.478,8.319-20.695,8.724-1.217,21.709-.406,27.593-9.13,5.884-8.725,47.68-36.927,53.158-38.752,3.872-1.291,6.841-2.803,8.724-3.449" fill="none" stroke="#000" stroke-miterlimit="10" stroke-width=".75"/>
  <path d="m184.359-254.541c11.364,3.998,9.298,4.906,11.623,7.813,2.325,2.908,5.94,8.359,1.033,11.812-4.907,3.453,8.265,7.996,14.722,6.179,6.457-1.817,11.364-7.451,16.788-5.633,5.424,1.817,10.848,7.45,20.404,6.178,9.556-1.272,5.682,5.633,4.133,7.632-1.55,1.999-1.808,10.721-2.066,14.901-.258,4.18-.775,3.271-3.616,9.812-2.841,6.542,3.874,6.905,8.265,11.993,4.391,5.088,6.715,10.721,7.49,21.079s1.291,14.174,10.073,15.991c8.782,1.817,16.788-1.454,17.305,7.632.517,9.086,2.066,8.541,5.682,6.36,3.616-2.181,6.974-5.451,6.199-7.995-.775-2.544-5.424-7.269,8.523-11.63,13.947-4.361,10.073-7.996,15.755-7.45,5.682.545,12.914,3.271,16.272,2.18s2.325-3.816,4.649-6.178,4.391-6.178,3.616-8.359-5.94-3.271-1.291-11.993c4.649-8.722,15.239-18.171,16.013-21.987.775-3.816-2.325-10.176-3.358-16.354-1.033-6.178-.258-11.448,4.133-16.354s6.715-11.084,9.815-11.812c3.099-.727,13.172-.545,16.272,5.633,3.099,6.178,5.166,13.628-.258,18.717-5.424,5.088,1.033,8.541.517,11.448-.517,2.908-2.841,4.543-3.874,11.267-1.033,6.723,1.808,11.993,8.265,9.085,6.457-2.907,11.881-4.725,17.305-16.354,5.424-11.63,19.888-34.526,32.543-41.613s19.629-5.088,22.729-1.272c3.099,3.816,5.166,12.72,10.073,13.265,4.907.545,22.212.545,31.252-4.18,9.04-4.725,16.013-15.991,21.696-18.898,5.682-2.907,16.272-.182,9.815,5.633s-13.431,10.721-13.172,15.083c.258,4.361-.258,14.719-5.424,16.899-5.166,2.181-22.47,12.356-26.086,19.443-3.616,7.087-2.583,21.624,5.424,23.078,8.007,1.454,12.139-1.272,14.464-2.726,2.325-1.454,6.974-4.179,17.821,4.906,10.848,9.086,9.298,17.99,6.715,21.261-2.583,3.271-3.358,15.628-5.166,18.535-1.808,2.907-8.265,10.176-15.755,9.994-7.49-.182-12.914-3.998-16.013-3.634-3.099.364-8.265,5.633.775,9.813,9.04,4.179,2.874,21.951-4.529,24.216-7.403,2.264-17.38,16.304-20.921,20.153-3.54,3.85-5.15,10.417-23.174,11.775-18.024,1.358-25.749,14.04-28.324,18.795-2.575,4.755-15.127,19.701-32.186,19.927-17.058.227-12.552-8.378-12.874-11.775-.322-3.396.322-9.963-7.081-2.944-7.403,7.02-12.553,8.605-19.955,1.359-7.403-7.246-3.862-13.134-17.059-12.001s-9.978,5.435-11.587,9.511c-1.609,4.076-.966,8.831-13.84,11.096-12.874,2.265-14.806.453-15.449,19.701s-13.84,32.155-27.036,36.684c-13.196,4.529-15.771-1.585-21.565-.906-5.793.68-7.081,3.85-1.287,6.567,5.793,2.718,12.552,5.208,18.346,2.944,5.793-2.264,12.874-9.511,17.059-6.793,4.184,2.718,3.862,9.737.322,12.002-3.54,2.264-13.461,2.179-12.606,9.797.855,7.618-3.134,10.826-14.532,7.618s-14.817-4.812-17.382-6.215-7.124-.401-9.688,5.613c-2.565,6.014-5.699,9.623-3.134,13.031,2.565,3.408,3.134,9.823-4.274,11.427-7.409,1.604-10.543,15.236-13.678,21.852-3.134,6.616-16.527,10.625-21.656,11.427-5.129.802-8.548,2.406-9.118,5.613-.57,3.208-4.844,3.809-2.565,5.614,2.28,1.804,12.823-9.623,20.801-10.225s8.548,1.604,6.839,6.015c-1.71,4.41,0,9.222,2.565,3.608,2.565-5.613,2.849-9.623,3.989-12.831,1.14-3.208,5.699-7.017,6.839-11.026,1.14-4.009,14.532-16.64,14.532-19.246s2.28-12.63,13.108-6.416,10.543,7.217,15.672,5.212c5.129-2.004,11.968.201,15.102-1.403,3.134-1.604,8.263-7.417,12.253-8.219,3.989-.802,8.548-.401,9.688-1.805,1.14-1.403-3.134-11.227,10.828-13.031,13.963-1.804,16.527,3.608,20.801,5.413,4.274,1.804,16.527,6.816,2.849,10.625s-18.807-3.608-36.188,9.422c-17.382,13.031-.285,31.675,3.419,32.077,3.704.401,11.398-5.413,16.812-8.22,5.414-2.807,10.828-7.618,12.253-9.422,1.425-1.804,2.565-6.015,9.973-7.618,7.409-1.604,16.527.2,20.516-.802,3.989-1.002,10.258-3.809,15.102-1.805,4.844,2.005,7.979,3.408,11.968-1.002,3.989-4.41,14.817-12.028,18.237-1.604,3.419,10.425,6.269,5.814,11.968,4.812,5.699-1.002,11.683-8.22,18.807-5.212,7.124,3.007,3.704,10.024,6.554,13.031,2.849,3.007,17.952,2.005,23.651,8.22,5.699,6.215,1.995,13.833,4.559,14.835,2.565,1.002,12.253-3.609,9.688-10.225-2.564-6.616-8.548-11.828-11.968-14.635-3.419-2.807-10.258-12.831-1.14-20.85,9.118-8.019,13.963-10.024,18.237-11.427,4.274-1.403,3.704,2.807,7.979,7.017,4.274,4.21,10.543,12.43,20.231,7.418,9.688-5.012-4.274-8.42-1.14-12.63,3.135-4.21,3.135-8.019,4.274-11.026,1.14-3.007-1.425-4.21,3.989-5.413,5.414-1.203,9.118-.201,11.683-3.809,2.565-3.608-.855-1.704,4.844-9.823,5.699-8.12,13.393-.702,15.387,2.506s15.102,4.812,17.382,7.618c2.28,2.807,5.414,9.222-7.124,14.434-12.538,5.212-18.807,4.812-23.366,21.852-4.559,17.041-7.979,19.246-8.833,24.258-.855,5.012-3.135,12.63,6.554,2.005,9.688-10.625,3.134-7.618,14.817-15.036,11.683-7.418,14.532-13.432,17.382-18.444,2.849-5.012,7.979-13.833,13.963-15.637,5.984-1.805,13.677-1.203,19.946-9.623,6.269-8.42-2.849-11.828,7.979-16.439,10.828-4.611,16.527-1.804,18.237-.802,1.71,1.002,8.833,3.408,12.253,2.005,3.419-1.403,15.102-.201,5.129,7.618-9.973,7.818-9.973,9.021-17.667,16.84-7.694,7.819-11.41,14.13-15.565,22.023-4.156,7.894-4.156,15.495,3.532,17.249,7.688,1.754,13.297,4.239,15.375,9.794,2.078,5.555,3.532,8.186,9.142,4.97,5.61-3.216,12.051-9.502,16.829,1.754,4.779,11.256-.416,13.302.831,17.395,1.247,4.093,9.557,9.355,15.167,9.502,5.61.146,34.136,5.224,10.553,15.619-23.583,10.395-34.38,11.594-30.118,20.99,4.262,9.396,7.956,12.794-1.136,20.39-9.092,7.597-11.65,12.994-19.605,16.792s-16.48,11.994-23.867,16.392c-7.387,4.398-18.469,6.397-22.162,8.996-3.694,2.599-7.103,7.796-22.447,7.996-15.343.2-33.812,1.799-40.915,8.796-7.103,6.997-19.889,6.796-23.299,15.992-3.41,9.195-10.797,23.588-2.841,35.583,7.956,11.995,33.528,17.992,38.358,18.391,4.83.4,10.797.6,13.923-3.198,2.378-2.89,7.881-5.664,10.627-3.568,1.077.822.818,1.898,1.59,3.568,3.297,7.13,18.671,6.666,20.845,6.6,2.632-.08,5.812-.262,9.801-1.459,7.411-2.224,8.749-5.615,14.532-6.54.669-.107,2.31-.162,3.722-1.377.985-.848,1.23-2.07,3.097-4.22,3.125-3.598,9.376-7.596,21.026-11.395,11.65-3.798,20.458-10.795,26.709-16.192,6.251-5.397,27.845-15.192,31.539-17.391,3.694-2.199,4.262,5.397,7.103,6.796,2.841,1.399,10.229,7.396,13.354,8.196,3.125.799,5.114-2.999,11.365,1.599,6.251,4.598,10.797,1.199,15.343-.6,4.546-1.799,14.775-8.196,19.037-10.195,4.262-1.999,10.797-1.599,8.24,5.997-2.557,7.596,0,7.396,4.262,7.396s7.387-6.197,12.218-6.197,2.557,3.198,8.524,3.398c5.967.2,18.469-5.397,25.004-9.595,6.535-4.198,13.638-9.396,13.638-12.194s-4.262-7.597-2.557-11.395c1.705-3.798,3.41-4.598,11.081-5.597,7.672-1,13.923-7.597,17.332-11.595,3.41-3.998,7.103-11.594,13.354-18.591,6.251-6.997,17.048-12.794,24.435-14.193,7.388-1.399,9.376-1.599,8.524,4.798s1.421,6.997,9.661,2.799c6.281-3.2,11.407-5.542,14.775-7.197" fill="none" stroke="#231f20" stroke-linecap="round" stroke-miterlimit="10" stroke-width=".75"/>
  <path d="m633.718,93.865c-2.737-2.311-3.285-6.355-1.369-10.207s10.128-2.889,12.865,3.659c2.737,6.548,1.642,6.74-1.642,7.703s-9.854-1.156-9.854-1.156Z" fill="none" stroke="#231f20" stroke-miterlimit="10" stroke-width=".75"/>
  <path d="m669.577,13.557c-5.201-5.007-16.424-11.17-17.793-13.288-1.369-2.118-11.497-14.444,5.475-15.022,16.971-.578,19.982,9.244,22.72,11.748,2.737,2.504,12.865,5.97,17.245,7.318,4.38,1.348,13.687,5.585,12.318,9.052s-7.117,3.081-10.676,2.504c-3.559-.578-6.296,1.156-8.759,5.585s-6.296,7.511-13.413-.193l-7.117-7.703Z" fill="none" stroke="#231f20" stroke-miterlimit="10" stroke-width=".75"/>
  <path d="m599.775,17.794c-5.627-.99-13.687-7.703-3.559-11.363,10.128-3.659,12.865-2.696,14.782,4.044,1.916,6.74-6.843,8.089-11.223,7.318Z" fill="none" stroke="#231f20" stroke-miterlimit="10" stroke-width=".75"/>
  <path d="m-539.018-805.79c7.047,2.576,14.193,5.771,20.042,9.603,14.295,9.367,26.668,15.431,35.546,20.955s6.574,9.318,10.335,12.762c3.761,3.444,10.675,4.084,21.493,18.352,10.818,14.268-2.029,9.419,9.529,25.375,11.558,15.957,6.816,16.082,5.993,23.254s2.248,13.229-3.658,29.204c-5.906,15.975,4.013,24.952,11.951,35.626,7.938,10.674,6.974,19.685,17.126,32.705,10.152,13.02,4.552,9.435,12.349,21.947,7.797,12.513,7.94,22.697-.03,37.208-7.969,14.511,12.011,30.874,11.461,43.422s-14.557,25.109-22.537,33.011c-7.98,7.901-3.842,7.07,1.773,7.07,5.615,0,9.457.208,14.481,3.327,5.024,3.119,4.729,7.07-2.364,8.733-7.093,1.663-6.797-1.04-20.983,0-14.186,1.04-3.842,14.763,5.024,19.545,8.866,4.782,9.753,9.565,6.797,13.307-2.955,3.743-9.753,6.238-7.093,9.149s1.278,8.542,1.278,8.542c-.452,3.177-4.064,3.177-6.321,5.401s-1.355,8.26-4.515,13.978c-3.161,5.718,3.161,5.083,8.579,14.931s-8.579,11.754-14.901,13.66c-6.321,1.906-24.617,12.1-29.65,17.53-5.034,5.43-37.585,37.54-40.27,44.387-2.685,6.847-12.01,19.917-14.306,26.581-2.296,6.663-1.435,30.692-3.444,36.75-2.009,6.058.574,6.663,6.314,7.067s9.184,2.625,9.184,5.25-.861,5.048,1.722,8.279c2.583,3.231,1.148,5.25-2.009,5.654s-4.305,4.442-7.175,6.865-14.637,2.827-22.673,3.635-3.731,6.461.861,9.086,2.87.606,10.906-2.019c8.036-2.625,8.897-1.615,11.193-4.24s12.915-11.106,16.646-14.134c3.731-3.029,2.296-9.692-.861-12.317s0-5.048,2.296-12.923c2.296-7.875,1.722-5.856,1.722-12.115s12.915-4.644,19.229-5.654c6.314-1.01,8.61-4.644,12.628-9.49,4.018-4.846,13.489-20.394,18.942-21s14.063,9.692,18.655,13.327c4.592,3.635,14.637,8.683,18.942,10.904,4.305,2.221,6.027,8.885,9.471,14.336s3.157,11.308,11.767,17.163c8.61,5.856,6.601,8.885,8.036,11.308s0,3.433,6.601,6.058,6.601,4.24,6.314,6.26-4.592,8.077-5.453,15.548c-.861,7.471,3.444,7.471,10.045,7.673,6.601.202,9.758,2.221,12.628,6.461,2.87,4.24-1.722,21.807-1.722,26.654s-4.592,17.163-6.314,21.404c-1.722,4.24-7.462,9.894-8.323,13.327s6.314,12.115,9.471,20.596-4.592,16.356-3.731,23.019-6.601,12.519-8.897,16.356c-2.296,3.836,0,12.923-.287,18.981s2.009,15.144,4.305,18.577c2.296,3.433,13.202,6.865,18.368,9.692,5.166,2.827,17.22,3.635,20.664,4.038s10.332-2.221,14.924-8.279c4.592-6.058,12.054-11.509,16.646-13.731,4.592-2.221,7.749-7.269,7.175-11.308-.574-4.038,2.87-9.692,6.601-14.336,3.731-4.644,12.915-11.711,13.776-14.134.861-2.423-3.157-11.711,4.305-16.558,7.462-4.846,11.193-13.327,13.776-19.384s1.148-13.125,8.897-32.913c7.749-19.788,12.546-20.798,17.784-24.22s1.497-7.897,8.979-13.951,11.972-5.264,14.591-2.632,7.108,7.37,16.836,8.949c9.727,1.579,11.972-3.685,18.706-5.264,6.734-1.579,10.476.79,18.706,1.579,8.231.79,4.864,7.37,5.238,10.529s2.993,5.791,3.741,8.16,3.741,3.685,1.871,5.528c-1.871,1.843-8.231,6.844-17.958,16.583-9.727,9.739-2.993,15.53.748,23.426,3.741,7.897,13.843,10.792,15.339,15.793s-10.476,15.003-15.339,19.215c-4.864,4.212-8.979,11.055-11.224,16.056s-8.605,13.687-16.836,28.164c-8.231,14.477-9.353,10.002-14.591,13.161s-5.238,13.424-8.605,19.215-4.49,5.528-24.318,14.477c-19.829,8.949-10.85,14.477-9.727,20.794,1.122,6.317,11.224,7.633,15.713,8.16s12.72-8.423,16.462-7.107c3.741,1.316,2.245,7.633,1.871,11.845-.374,4.212-5.986,18.952-5.612,23.426s2.982,14.417,1.845,25.014c-1.137,10.598-5.684,29.593-21.884,33.192-16.2,3.599-24.157,3.199-38.936,12.797-14.779,9.598-17.905,20.795-2.842,22.795,15.063,2,29.354,12.125,32.143,12.91,2.79.785,5.859-2.748,14.507,3.729,8.648,6.477,7.533,5.103,8.369,2.552s6.696-5.888-.279-4.318c-6.975,1.57-10.322-5.3-7.533-8.44,2.79-3.14-2.232-5.888-5.859-7.262-3.627-1.374-8.369-1.963-8.648-9.421-.279-7.459,3.906-12.169,11.438-10.01s12.554,6.085,10.043,1.178c-2.511-4.907,1.116-14.721,10.601-18.254s18.238-8.631,22.38-10.751c4.142-2.119,4.895-.397,7.907-11.259,3.012-10.861.565-12.848-3.012-16.027-3.577-3.179-5.083-9.404-3.954-12.583s3.389-27.683,2.636-33.776c-.753-6.093,3.954-11.391,8.66-14.835,4.707-3.444,6.777-11.788,7.342-15.63.565-3.841-5.648-9.934,7.719-20.795s15.814-19.868,15.438-26.226-3.577-8.742,1.694-14.305c5.271-5.563,8.66-8.212,8.848-11.523s-12.049-9.404.565-15.1c12.614-5.696,18.638,2.119,21.839,6.093,3.2,3.974,13.941,10.933,19.639,12.573s13.208-1.64,18.388-6.013c5.18-4.373,12.69-9.657,20.719-14.03s9.324-11.297,14.144-19.131c4.821-7.834,11.754-18.404,20.819-23.506,9.065-5.102,19.942-5.466,25.122-5.102s7.77,3.644,5.698,6.377c-2.072,2.733-7.77,5.466-17.87,9.111-10.1,3.644-13.726,9.657-12.69,11.662s14.244-.182,22.532-3.28c8.288-3.098,14.244-4.191,21.496-1.093,7.252,3.098,3.108,10.022,2.849,12.39s-5.698,2.004-9.065,14.212c-3.367,12.208-8.029,13.666-12.431,18.586-4.403,4.92-6.734,13.484,4.144,19.679,10.877,6.195,10.618,5.466,5.957,15.124-4.662,9.657,1.036,10.204,10.359,19.497s15.539,9.111,18.906,9.111c3.367,0,4.921-1.275,11.395,4.009,6.475,5.284,9.841,1.275,8.288-2.733-1.554-4.009-8.029-10.568-10.1-15.852-2.072-5.284,15.28-10.386,20.201-16.217,4.921-5.831.518-16.035-3.367-22.23s-6.993-9.839-8.029-15.124-8.806-6.56-11.654-11.844c-2.849-5.284,4.403-8.382,14.762-18.039,10.359-9.657,20.978-35.713,21.496-44.642.518-8.928-10.359-8.017-17.352-8.017-6.993,0-18.129.729-18.647-12.208s-.518-15.124,13.467-24.052c13.985-8.928,5.439-14.395,3.108-19.314-2.331-4.92,4.144-5.284,6.216-11.297,2.072-6.013,1.295-11.297,10.359-13.119s9.324-4.737,5.439-10.568c-3.885-5.831-10.877-17.492-15.021-22.959-4.144-5.466,4.662-34.256,16.575-39.175s2.59-3.28,12.69-11.115c10.1-7.835,10.1-.182,8.806,7.471-1.295,7.653-1.295,17.492-1.554,21.136-.259,3.644,3.885,2.369,6.475,1.093,2.59-1.275,3.626-3.098,13.985,1.093,10.359,4.191,8.288,22.412,9.065,28.972.777,6.56.518,7.471,7.511,20.408,6.993,12.937,3.367,17.492,1.813,20.225s-1.295,10.386-1.036,17.492c.259,7.106-4.921,12.208-20.978,22.23-16.057,10.022-22.532,16.581-28.23,25.327s-7.511,18.039-9.841,22.412-3.885,11.844-8.288,18.768c-4.403,6.924-2.28,8.005-4.906,16.934-2.626,8.929,2.188,19.398,4.376,24.94s9.19,11.7,10.503,20.013S101.564.098,93.686,11.183c-7.877,11.084-4.376,20.013-7.002,27.403s-7.44,20.321-12.254,24.324c-4.814,4.003-7.877,6.774-11.378,9.545s-7.44,10.161-25.383,12.316c-17.943,2.155-17.943,7.39-24.07,9.237s-3.063-3.079-5.252-16.934c-2.188-13.855-1.751-12.932,8.315-13.855s4.376-12.932,7.002-19.09-5.252-14.471-.438-18.166,14.442-11.084,3.063-11.7S5.284,2.254,10.536-6.06s-2.626-9.853-5.252-15.395c-2.626-5.542,5.689-8.621,12.254-22.477,6.565-13.855-11.816-13.548-13.129-11.392s-18.983,7.26-30.241,8.646c-11.258,1.386-11.821,3.366-20.827,6.139-9.006,2.772-25.894,19.01-30.115,24.752-4.222,5.743.844,9.505,3.377,12.277,2.533,2.772,7.881,4.554,8.162,9.901s-1.407,12.277-4.785,14.257c-3.377,1.98-6.755-2.178-10.695-4.158-3.94-1.98-9.288-.792-18.294,1.782-9.006,2.574-14.354,7.327-18.576,12.673-4.222,5.346,3.377,16.435,2.533,17.624s-2.252,5.148-6.192,10.099-6.755,1.782-5.911-.792,1.97-6.733-4.785-5.743c-6.755.99-8.444,6.337-15.761,10.891-7.318,4.554-17.45,14.059-11.821,13.465s17.169-8.119,22.798-9.703,11.821,7.525,19.139,9.109c7.318,1.584,25.331-13.267,28.99-14.851s5.066-3.366,13.51-5.743c8.444-2.376,12.102-3.762,19.42-11.485s5.066-18.614,3.94-27.524S-59.325.055-62.139-3.708s-8.444-8.119-2.252-16.435c6.192-8.317,15.48-4.356,20.546-7.129,5.066-2.772,3.659-9.307,9.006-12.079,5.348-2.772,15.48-4.554,22.235-1.386s4.222,6.337,4.222,9.307-4.222,8.317-4.503,13.069S-6.975-9.648-6.13-5.49c.844,4.158-3.096,6.733-3.659,12.079s1.407,8.713,5.066,17.624S1.187,42.034,1.187,45.797c0,3.762.844,4.752-5.629,12.673-6.473,7.921-19.031,11.287-20.827,15.049s-9.288,10.297-15.198,14.059c-5.911,3.762-4.503-5.148-5.348-9.505s-1.126-7.327-10.132-8.911c-9.006-1.584-10.977,6.139-10.132,11.287s2.252,14.257,5.911,19.802,7.318,2.376,10.414,0c3.096-2.376,7.318-4.356,10.695-1.386,3.377,2.97,1.689,4.752,0,7.723-1.689,2.97-1.689,6.535,1.407,11.683,3.096,5.148,9.288,2.376,18.576-.198,9.288-2.574,16.887-1.188,21.672-1.584s9.851,1.188,14.354-.396c4.503-1.584,14.917-4.95,18.294-5.148s4.503-.792,9.569-2.574c5.066-1.782,14.354-3.96,21.953-6.139,7.599-2.178,14.917-4.752,16.606-7.723,1.689-2.97,3.545-8.126,5.4-11.173,1.856-3.047,8.042-8.704,6.186-13.057s-3.505-9.575-1.237-15.813,2.474-6.673.206-18.569,1.237-15.813,3.712-21.761c2.474-5.948,11.135-15.088,14.434-21.761,3.299-6.673,3.918-9.575,3.918-17.119,0-7.544.619-21.036-1.031-29.015-1.65-7.979-7.423-10.155-10.104-11.606-2.681-1.451-5.567-6.093-2.062-9.14,3.505-3.047,7.217-5.078,6.805-6.818s.619-3.917,2.268-6.528,6.392-5.223,5.361-13.347,1.237-8.559,4.949-12.041c3.712-3.482,5.567-6.673,9.073-7.109s7.629.58,14.434-.435c6.805-1.016,8.042-4.497,11.753-11.316s7.217-9.285,9.279-16.103c2.062-6.818,1.65-10.3,7.423-16.974,5.774-6.673,3.712-11.026,5.567-15.668,1.856-4.642,11.135-12.186,12.166-22.051s-10.31-10.3-17.321-12.331c-7.011-2.031-11.341-5.948-10.722-10.59s-1.65-12.912-2.474-17.554,3.299-10.01,9.485-21.906c6.186-11.896,9.898-13.347,17.527-12.476,7.629.87,7.011,9.865,7.217,13.492s2.062,6.238,4.536,10.735c2.474,4.497,1.24,7.107,3.942,11.786,2.702,4.679,7.482,4.24,15.587,5.118,8.105.877,17.249-2.632,23.068-2.924,5.819-.292,8.105-.292,12.677,1.901s5.196,5.849,4.572,10.089-3.117,6.287-3.117,9.358.623,10.966,1.039,13.744-3.533,2.924-4.156,8.773,4.572,4.533,10.183,6.726,4.78,4.24,6.027,7.018,6.858,11.99,1.87,17.4c-4.988,5.41-2.494,9.65-.208,11.259,2.286,1.608,9.768,2.047,17.249,6.287,7.482,4.24,8.313.877,9.56-3.071s1.87-3.948,10.391-5.264,5.403-2.778,12.677-6.433,13.716-6.726,19.535-10.82c5.819-4.094,4.156-12.428,3.741-15.791s.623-2.486,3.741-10.381c3.117-7.896-1.663-10.235-4.78-11.697-3.117-1.462-13.716-6.433-18.289-8.919-4.572-2.486-15.795-12.282-20.99-16.23-5.196-3.948-4.156-5.41-12.262-6.287s-10.391-5.556-9.768-9.796,1.247-3.217,9.768-9.358-2.702-7.165,5.819-16.815c8.521-9.65,15.379-8.188,19.328-5.41,3.949,2.778,6.858,8.627,13.301,10.381s11.846,4.24,12.677,8.042c.831,3.802-1.247,17.838,10.807,18.862,12.054,1.024,12.054-4.24,12.885-13.598.831-9.358,4.88-12.679,6.457-15.342s8.202,1.775,11.041,2.219c2.839.444,7.571-4.661,13.88-3.551s3.47,8.877,2.839,13.094-7.255,10.875-3.785,15.535c3.47,4.661,4.732,11.984,12.933,15.313,8.202,3.329,13.249-1.997,18.611-7.102,5.363-5.104,8.517-9.543,13.564-13.76s4.101-8.212,4.732-15.313c.631-7.102,7.886-5.992,12.302-7.102,4.416-1.11,12.618,1.997,18.296,3.551,5.678,1.554,8.832,7.324,11.671,12.206,2.839,4.883,1.262,9.987,8.832,10.431,7.571.444,13.249-6.214,21.766-12.206,8.517-5.992,5.678-15.979,5.678-22.415,0-6.436,1.577-11.319,8.517-11.319,6.94,0,11.041,13.316,14.826,17.533,3.785,4.217,3.47,10.653,1.893,14.426s-11.987,10.875-15.457,18.864c-3.47,7.99-3.785,13.982-6.624,18.42s-10.094,9.099-17.98,18.199c-7.886,9.099-1.577,12.872,1.893,14.87,3.47,1.997,13.564,1.11,17.034,2.885,3.47,1.775,11.671,10.209,15.457,13.094s6.624,11.097,6.624,16.201c0,5.104-5.363,14.87-8.832,19.308-3.47,4.439-17.034,13.538-20.504,17.755-3.47,4.217,1.893,10.875-.631,16.867s-9.779,6.214-14.195,6.658c-4.416.444-14.195,9.321-17.665,13.094s-9.432,17.519-10.998,19.478c-1.566,1.959-4.874,3.551-7.31,3.551s-5.744-.612-14.621,1.714c-8.877,2.327-22.453,14.327-27.326,18.736-4.874,4.408-11.488,9.184-18.798,12.735-7.31,3.551-25.238,9.307-28.719,10.041-3.481.735-17.057-3.919-25.064,11.388-8.006,15.307-3.307,17.879.348,22.41,3.655,4.531,8.529,3.306,10.269,9.429,1.741,6.123-8.529,9.674-14.272,9.674-5.744,0-25.76.122-36.725.49-10.965.367-21.757,8.205-26.804,11.266-5.048,3.061-1.044,4.286,1.566,4.898s10.791-2.204,19.842-2.204c9.051,0,19.668,3.551,23.671,6.368,4.003,2.816,9.747,3.796,16.013,5.143,6.266,1.347,13.054,4.041,16.187,5.633,3.133,1.592,10.443,6.98,16.709,6.858s6.614-1.714,10.617-11.633c4.003-9.919,10.965-9.552,14.272-9.429,3.307.122,8.355,1.347,10.791,1.225s15.317-3.184,18.798-2.939c3.481.245,11.314-1.102,13.924-1.837,2.611-.735,7.832-.49,12.184,0,4.351.49,19.842,1.347,26.63,2.082,6.788.735,9.399.245,14.098-2.327,4.699-2.572,23.011-18.829,25.855-21.251,2.844-2.422,14.668-2.633,20.655-1.79,5.987.842,11.674,2.738,22.301,5.055,10.627,2.317,7.933,3.37,13.471,6.95s9.579.421,13.471-5.792,7.484-6.739,14.518-7.792c7.035-1.053,14.518,0,19.008.527s10.477-1.58,14.518-2.633c4.041-1.053,6.223-.232,7.568,4.501s-.807,6.816-2.691,9.088c-1.884,2.272-5.382,4.922-6.727,6.248s-1.884,2.84-7.266,7.762-7.535,15.525-8.073,23.098c-.538,7.573,11.84,11.928,17.222,15.146,5.382,3.219,10.205,4.378,16.392,7.357s4.559,6.415,10.421,12.143c5.862,5.728,11.398,3.895,19.539,0,8.141-3.895,13.352-2.979,17.26-1.604,3.908,1.375,8.467,4.353,13.352,4.124,4.885-.229,25.401-11.914,29.309-17.184,3.908-5.27,4.559-13.289,18.562-14.893,14.003-1.604,5.862,11.914,5.21,14.205-.651,2.291,4.559,3.666.651,6.644-3.908,2.979-8.141,4.124-12.049,5.27-3.908,1.146-8.467,8.019-12.375,10.768-3.908,2.749-6.839,4.124-15.957,8.706-9.118,4.582-11.072,12.831-16.934,17.871-5.862,5.041-11.536,5.486-16.486,7.292s-10.633,7.61-16.866,11.608-7.883,6.191-4.4,11.221c3.483,5.03,3.116,9.544-1.283,13.672s-11.733,4.256-15.949,5.288c-4.216,1.032-10.633,5.804-17.049,11.479s-12.649,9.931-19.249,16.251c-6.6,6.32-15.033,11.479-19.982,13.672-4.95,2.193-13.566,4.772-17.416,6.836-3.85,2.064-5.133,1.419-18.699,9.544-13.566,8.126-10.816,17.412-10.266,26.183.55,8.77-1.833,14.703-4.216,18.573-2.383,3.869-9.899,11.35-12.283,12.124-2.383.774-3.483.774-7.883-1.161s-.183-7.223,2.2-10.189c2.383-2.966,2.2-5.288,1.833-7.223s-6.309-1.776-7.444,2.816c-1.135,4.592-4.257,5.191-9.081,5.191-4.824,0-6.243,4.193-2.554,9.184,3.689,4.992,15.608,7.387,19.581,7.188s6.811.599,10.5,1.997c3.689,1.398,8.23,1.797,17.879.799,9.649-.998,12.203.399,14.473.998s5.108,1.797,11.068.399,5.676-2.596,10.5-7.188c4.824-4.592,15.201-6.772,20.636-7.345s16.984-5.353,25.137-12.619c8.153-7.265,14.267-11.376,23.099-14.626,8.832-3.25,16.984-9.56,22.555-12.619,5.571-3.059,10.598.096,12.636,1.912,2.038,1.816,6.386,10.229,12.365,16.634,5.979,6.405,11.278.86,23.642-6.214,12.365-7.074,18.071-2.868,21.604,0,3.533,2.868,6.522,4.78,11.685,5.258,5.163.478,6.93-1.625,11.685-3.633s8.424-1.434,13.995-3.728,9.24-5.162,12.229-8.317c2.989-3.155,2.989-7.265,4.212-13.766,1.223-6.501,6.386-5.927,11.278-5.927,4.892,0,5.299-.765,9.24-2.963,3.94-2.199,9.341-8.742,11.149-12.377s-.258-4.725,4.908-8.542,13.95-15.812,16.274-17.448c2.325-1.636,8.266-1.454,14.466-2.908,6.2-1.454,12.4-3.271,16.274-7.815s8.266-3.271,11.883-2.908c3.617.363-.517,5.089,5.941,6.361s6.716-.909,14.208-5.089c7.491-4.18,8.008,0,9.558,4.725,1.55,4.725-6.2,9.269-6.716,11.813-.517,2.544-1.808,4.18-5.839,6.293-4.03,2.112,1.189,5.157,6.872,10.973,5.683,5.816-3.358,8.906-10.075,12.177-6.716,3.271-3.875,9.451-2.583,15.267,1.292,5.816,8.525,5.452,13.95,6.179,5.425.727,6.716,5.271,7.491,11.632.775,6.361,1.55,8.36,3.875,14.54,2.325,6.179,10.333,6.361,15.499,6.361,0,0,47.635,6.423,65.248,17.513,17.613,11.09,80.237,10.437,87.412,2.609,7.176-7.828,19.57-9.133,29.355-9.133s25.441-5.219,30.007,1.957c4.566,7.176,13.699,13.047,31.312,11.09,17.613-1.957,20.875-11.742,36.531-8.48,15.656,3.262,48,17.587,66.119,16.626,11.202-.594,14.278-17.451,47.198-20.624,32.92-3.173,53.941-10.312,62.27-15.468,8.329-5.156,36.093-28.16,42.439-30.937,6.346-2.776,9.916-8.726,23.401-1.19,13.485,7.536,38.472-9.519,46.802-18.245,8.329-8.726,21.814-14.278,40.059-11.899,18.245,2.38,20.228,3.57,31.333,15.468,11.105,11.899,36.886,33.316,71.392,42.042,34.506,8.726,63.46,17.055,75.358,22.211,11.899,5.156,16.658,24.194,16.658,24.194" fill="none" stroke="#221f1f" stroke-miterlimit="10" stroke-width=".75"/>
  <g>
    <rect x="-1044.473" y="-2554.288" width="3386.58" height="2514.089" transform="translate(1946.061 -648.426) rotate(-90)" fill="none" stroke="#231f20" stroke-linecap="round" stroke-miterlimit="10" stroke-width="7"/>
    <rect x="-1027.506" y="-2537.166" width="3353.392" height="2482.402" transform="translate(1945.155 -646.775) rotate(-90)" fill="none" stroke="#231f20" stroke-linecap="round" stroke-miterlimit="10" stroke-width="3"/>
    <rect x="-989.031" y="-2501.548" width="3275.615" height="2412.095" transform="translate(1944.278 -646.724) rotate(-90)" fill="none" stroke="#231f20" stroke-linecap="round" stroke-miterlimit="10"/>
    <rect x="-971.163" y="-2484.185" width="3239.88" height="2376.261" transform="translate(1944.831 -647.277) rotate(-90)" fill="none" stroke="#231f20" stroke-linecap="round" stroke-miterlimit="10"/>
    <line x1="252.657" y1="324.39" x2="252.657" y2="342.307" fill="none" stroke="#231f20" stroke-linecap="round" stroke-miterlimit="10"/>
    <line x1="324.785" y1="324.39" x2="324.785" y2="342.307" fill="none" stroke="#231f20" stroke-linecap="round" stroke-miterlimit="10"/>
    <line x1="396.624" y1="324.39" x2="396.624" y2="342.307" fill="none" stroke="#231f20" stroke-linecap="round" stroke-miterlimit="10"/>
    <line x1="468.895" y1="324.39" x2="468.895" y2="342.307" fill="none" stroke="#231f20" stroke-linecap="round" stroke-miterlimit="10"/>
    <line x1="540.733" y1="324.39" x2="540.733" y2="342.307" fill="none" stroke="#231f20" stroke-linecap="round" stroke-miterlimit="10"/>
    <line x1="612.788" y1="324.39" x2="612.788" y2="342.307" fill="none" stroke="#231f20" stroke-linecap="round" stroke-miterlimit="10"/>
    <line x1="36.465" y1="324.39" x2="36.465" y2="342.307" fill="none" stroke="#231f20" stroke-linecap="round" stroke-miterlimit="10"/>
    <line x1="108.62" y1="324.39" x2="108.62" y2="342.307" fill="none" stroke="#231f20" stroke-linecap="round" stroke-miterlimit="10"/>
    <line x1="180.541" y1="324.39" x2="180.541" y2="342.307" fill="none" stroke="#231f20" stroke-linecap="round" stroke-miterlimit="10"/>
    <line x1="396.545" y1="341.647" x2="396.545" y2="323.73" fill="none" stroke="#231f20" stroke-linecap="round" stroke-miterlimit="10"/>
    <line x1="324.417" y1="341.647" x2="324.417" y2="323.73" fill="none" stroke="#231f20" stroke-linecap="round" stroke-miterlimit="10"/>
    <line x1="252.579" y1="341.647" x2="252.579" y2="323.73" fill="none" stroke="#231f20" stroke-linecap="round" stroke-miterlimit="10"/>
    <line x1="180.307" y1="341.647" x2="180.307" y2="323.73" fill="none" stroke="#231f20" stroke-linecap="round" stroke-miterlimit="10"/>
    <line x1="108.469" y1="341.647" x2="108.469" y2="323.73" fill="none" stroke="#231f20" stroke-linecap="round" stroke-miterlimit="10"/>
    <line x1="36.414" y1="341.647" x2="36.414" y2="323.73" fill="none" stroke="#231f20" stroke-linecap="round" stroke-miterlimit="10"/>
    <line x1="612.167" y1="341.647" x2="612.167" y2="323.73" fill="none" stroke="#231f20" stroke-linecap="round" stroke-miterlimit="10"/>
    <line x1="540.013" y1="341.647" x2="540.013" y2="323.73" fill="none" stroke="#231f20" stroke-linecap="round" stroke-miterlimit="10"/>
    <line x1="468.091" y1="341.647" x2="468.091" y2="323.73" fill="none" stroke="#231f20" stroke-linecap="round" stroke-miterlimit="10"/>
    <rect x="395.833" y="330.618" width="144" height="3.6" transform="translate(935.666 664.837) rotate(180)" fill="#231f20" stroke-width="0"/>
    <rect x="180.507" y="328.302" width="144" height="8.773" transform="translate(505.014 665.378) rotate(180)" fill="#231f20" stroke-width="0"/>
    <rect x="-107.569" y="330.618" width="144" height="3.6" transform="translate(-71.138 664.837) rotate(180)" fill="#231f20" stroke-width="0"/>
  </g>
</svg>