<?xml version="1.0" encoding="UTF-8"?>
<svg id="a" data-name="Layer 1" xmlns="http://www.w3.org/2000/svg" width="9.002in" height="6.002in" viewBox="0 0 648.177 432.177">
  <g>
    <g>
      <path d="m359.662,433.073c43.854-43.394,81.023-72.036,106.566-90.185,3.185-2.285,6.141-4.477,8.962-6.441,2.856-1.913,5.511-3.692,7.964-5.336,4.906-3.287,9.005-6.034,12.291-8.235,1.644-1.098,3.085-2.06,4.32-2.885,1.263-.783,2.317-1.436,3.161-1.959,1.688-1.046,2.535-1.571,2.535-1.571" fill="none" stroke="#231f20" stroke-miterlimit="10" stroke-width=".25"/>
      <path d="m357.912,431.314c43.97-43.51,81.261-72.247,106.874-90.445,3.194-2.292,6.16-4.49,8.988-6.46,2.864-1.919,5.527-3.703,7.987-5.351,4.921-3.297,9.032-6.052,12.326-8.259,1.649-1.101,3.094-2.066,4.333-2.893,1.267-.785,2.324-1.44,3.17-1.965,1.693-1.049,2.543-1.576,2.543-1.576" fill="none" stroke="#231f20" stroke-miterlimit="10" stroke-width=".25"/>
      <path d="m550.039,290.014c6.764-3.686,13.416-7.094,19.809-10.488,3.212-1.667,6.333-3.386,9.475-4.934,3.155-1.521,6.258-3.017,9.307-4.487,6.106-2.925,11.972-5.814,17.679-8.482,5.769-2.535,11.322-4.975,16.659-7.32,10.606-4.852,20.661-8.571,29.703-12.235,9.015-3.745,17.385-6.494,24.749-9.185,3.691-1.32,7.156-2.559,10.393-3.716,1.61-.604,3.201-1.075,4.722-1.565,1.523-.484,2.988-.95,4.395-1.397,5.628-1.789,10.33-3.284,14.099-4.482,3.775-1.177,6.588-2.147,8.509-2.653,1.913-.533,2.873-.801,2.873-.801" fill="none" stroke="#231f20" stroke-miterlimit="10" stroke-width=".25"/>
      <path d="m548.84,287.841c6.784-3.697,13.454-7.115,19.867-10.518,3.222-1.672,6.352-3.395,9.502-4.948,3.164-1.525,6.276-3.025,9.334-4.5,6.124-2.934,12.006-5.831,17.73-8.506,5.786-2.542,11.355-4.99,16.707-7.341,10.637-4.866,20.721-8.596,29.79-12.271,9.041-3.756,17.436-6.513,24.821-9.212,3.702-1.324,7.177-2.566,10.423-3.727,1.615-.605,3.21-1.078,4.735-1.57,1.527-.485,2.996-.952,4.407-1.401,5.645-1.794,10.361-3.294,14.14-4.495,3.786-1.18,6.608-2.153,8.534-2.661,1.918-.535,2.881-.804,2.881-.804" fill="none" stroke="#231f20" stroke-miterlimit="10" stroke-width=".25"/>
    </g>
    <g>
      <path d="m245.253,546.61c20.982-22.758,39.124-43.085,54.956-60.388,15.813-17.32,29.264-31.661,40.261-42.989,2.741-2.84,5.363-5.459,7.786-7.931,2.434-2.462,4.673-4.773,6.807-6.846,4.246-4.167,7.757-7.684,10.633-10.441,5.768-5.497,8.677-8.269,8.677-8.269" fill="none" stroke="#231f20" stroke-miterlimit="10" stroke-width=".25"/>
      <path d="m243.43,544.926c20.961-22.735,39.104-43.063,54.947-60.378,15.824-17.332,29.294-31.694,40.312-43.043,2.746-2.845,5.374-5.47,7.802-7.947,2.439-2.467,4.682-4.782,6.821-6.861,4.256-4.177,7.775-7.703,10.659-10.466,5.784-5.512,8.701-8.292,8.701-8.292" fill="none" stroke="#231f20" stroke-miterlimit="10" stroke-width=".25"/>
      <path d="m419.485,370.278c2.934-2.544,6.02-4.807,8.971-7.143,2.97-2.313,5.894-4.59,8.771-6.831,2.878-2.241,5.709-4.445,8.493-6.614,2.857-2.072,5.666-4.11,8.427-6.113,5.53-3.997,10.868-7.855,16.014-11.575,5.245-3.577,10.344-6.949,15.217-10.228,2.44-1.635,4.83-3.236,7.171-4.805,1.17-.784,2.328-1.56,3.474-2.328,1.172-.727,2.331-1.445,3.478-2.156,4.586-2.843,8.969-5.56,13.148-8.15,2.089-1.295,4.127-2.559,6.114-3.79.994-.616,1.974-1.224,2.942-1.824.987-.568,1.961-1.128,2.922-1.68,3.849-2.202,7.488-4.284,10.917-6.246,13.619-8.02,24.312-13.307,31.334-17.073,3.526-1.855,6.178-3.251,7.949-4.183,1.798-.878,2.701-1.319,2.701-1.319" fill="none" stroke="#231f20" stroke-miterlimit="10" stroke-width=".25"/>
      <path d="m417.918,368.354c2.943-2.551,6.037-4.821,8.998-7.164,2.979-2.32,5.911-4.603,8.797-6.851,2.886-2.247,5.726-4.458,8.519-6.633,2.865-2.079,5.682-4.122,8.451-6.131,5.546-4.008,10.9-7.878,16.06-11.608,5.26-3.588,10.374-6.969,15.261-10.258,2.447-1.639,4.844-3.246,7.192-4.818,1.174-.786,2.335-1.564,3.484-2.334,1.175-.729,2.338-1.45,3.488-2.163,4.599-2.851,8.995-5.576,13.185-8.174,2.095-1.299,4.139-2.566,6.132-3.801.996-.618,1.98-1.227,2.951-1.829.99-.569,1.967-1.131,2.931-1.685,3.86-2.208,7.51-4.297,10.948-6.264,13.659-8.043,24.382-13.346,31.424-17.122,3.536-1.861,6.196-3.26,7.972-4.195,1.803-.88,2.708-1.322,2.708-1.322" fill="none" stroke="#231f20" stroke-miterlimit="10" stroke-width=".25"/>
      <path d="m624.94,246.318c1.777-.781,3.54-1.556,5.29-2.324,1.775-.709,3.536-1.413,5.284-2.112,3.498-1.392,6.941-2.762,10.329-4.111,6.782-2.685,13.304-5.39,19.766-7.587,6.425-2.297,12.627-4.514,18.605-6.651,2.974-1.114,5.959-2.011,8.869-2.944,2.912-.926,5.768-1.834,8.567-2.723,5.605-1.757,10.953-3.538,16.127-5.07,5.198-1.45,10.165-2.836,14.901-4.157,4.737-1.314,9.243-2.563,13.516-3.748,4.312-1.037,8.388-2.018,12.229-2.941,3.841-.924,7.446-1.791,10.814-2.601,3.367-.813,6.493-1.59,9.42-2.134,5.833-1.181,10.707-2.168,14.612-2.958,7.811-1.581,11.75-2.378,11.75-2.378" fill="none" stroke="#231f20" stroke-miterlimit="10" stroke-width=".25"/>
      <path d="m623.966,244.035c1.782-.783,3.55-1.56,5.305-2.331,1.78-.712,3.546-1.418,5.299-2.118,3.508-1.396,6.961-2.77,10.359-4.123,6.801-2.693,13.343-5.405,19.823-7.609,6.443-2.303,12.663-4.527,18.659-6.671,2.983-1.117,5.976-2.017,8.895-2.952,2.921-.929,5.785-1.839,8.592-2.732,5.621-1.762,10.985-3.548,16.174-5.085,5.213-1.454,10.195-2.844,14.944-4.169,4.751-1.318,9.27-2.571,13.556-3.759,4.324-1.04,8.413-2.024,12.265-2.951,3.852-.926,7.468-1.796,10.846-2.608,3.377-.816,6.512-1.594,9.448-2.14,5.85-1.185,10.739-2.174,14.656-2.967,7.834-1.586,11.786-2.385,11.786-2.385" fill="none" stroke="#231f20" stroke-miterlimit="10" stroke-width=".25"/>
    </g>
  </g>
  <g>
    <g>
      <path d="m-85.887,617.521c15.463-13.269,28.899-27.002,40.495-40.658,1.437-1.719,2.861-3.423,4.272-5.112.706-.845,1.408-1.686,2.108-2.523.692-.843,1.329-1.725,1.991-2.579,2.622-3.44,5.197-6.819,7.724-10.135,2.383-3.453,4.722-6.841,7.016-10.165,2.215-3.357,4.281-6.706,6.276-10.011,1.991-3.307,3.881-6.583,5.68-9.826,1.805-3.218,3.492-6.518,5.106-9.586,3.249-6.174,6.354-12.074,9.314-17.699,1.482-2.811,2.928-5.554,4.337-8.228,1.46-2.645,2.883-5.222,4.268-7.73,2.77-5.017,5.389-9.76,7.856-14.229,1.216-2.245,2.461-4.382,3.666-6.451,1.201-2.071,2.363-4.075,3.485-6.01,2.244-3.871,4.331-7.469,6.259-10.794,3.919-6.61,7.317-12.055,9.977-16.458,1.342-2.194,2.517-4.116,3.525-5.765,1.043-1.626,1.914-2.982,2.61-4.069,1.394-2.172,2.094-3.263,2.094-3.263" fill="none" stroke="#231f20" stroke-miterlimit="10" stroke-width=".25"/>
      <path d="m-87.502,615.637c15.361-13.181,28.704-26.82,40.218-40.379,1.426-1.707,2.84-3.399,4.242-5.076.701-.839,1.398-1.674,2.093-2.505.687-.837,1.319-1.713,1.977-2.561,2.603-3.416,5.16-6.77,7.67-10.063,2.358-3.417,4.672-6.77,6.942-10.059,2.197-3.33,4.249-6.655,6.229-9.935,3.953-6.551,7.505-13.034,10.707-19.27,3.254-6.183,6.364-12.092,9.329-17.726,1.484-2.816,2.932-5.563,4.344-8.24,1.463-2.65,2.888-5.231,4.276-7.744,2.775-5.026,5.398-9.778,7.87-14.255,1.218-2.249,2.465-4.39,3.673-6.464,1.203-2.076,2.367-4.083,3.492-6.023,2.249-3.879,4.34-7.485,6.271-10.817,3.927-6.625,7.334-12.083,10-16.497,1.345-2.199,2.523-4.126,3.534-5.779,1.046-1.63,1.919-2.991,2.618-4.08,1.398-2.178,2.099-3.272,2.099-3.272" fill="none" stroke="#231f20" stroke-miterlimit="10" stroke-width=".25"/>
      <path d="m97.149,353.613c1.905-2.223,3.761-4.499,5.706-6.678,1.966-2.154,3.881-4.373,5.887-6.476,2.014-2.093,4.004-4.223,6.089-6.201l1.547-1.51,1.575-1.436c.525-.474,1.05-.975,1.573-1.403l.785-.667.196-.167.049-.042.024-.021-.07.055c-.11.084-.233.163-.367.234-.268.142-.581.246-.901.292-.16.023-.321.032-.478.028l-.117-.006-.058-.005c-.005.06-.027-.1-.048-.275l-.055-.471c-.138-1.258-.196-2.523-.178-3.789l2.708,3.588c6.922-5.237,13.818-10.279,21.023-14.848,7.19-4.574,14.636-8.687,22.332-12.201,15.385-6.993,31.92-11.377,48.664-11.881,8.37-.231,16.721.395,24.984,2.014,8.274,1.58,16.435,3.894,24.275,6.931,15.669,6.032,30.174,15.227,40.928,27.798" fill="none" stroke="#231f20" stroke-miterlimit="10" stroke-width=".25"/>
      <path d="m95.247,352.021c1.919-2.239,3.786-4.529,5.748-6.726,1.984-2.175,3.913-4.409,5.942-6.536,2.037-2.118,4.047-4.269,6.17-6.283l1.572-1.534,1.613-1.471c.539-.487,1.071-.993,1.622-1.446l.819-.696.205-.174c.015-.014.11-.093.06-.053-.029.022-.065.041-.105.057-.08.032-.18.047-.284.035-.052-.006-.104-.017-.154-.035l-.074-.031-.018-.009-.009-.005c-.004-.036-.003.09-.013-.142-.029-.632-.039-1.264-.03-1.897l1.215,1.607c6.93-5.243,13.899-10.341,21.184-14.96,7.273-4.627,14.821-8.798,22.638-12.367,15.625-7.104,32.496-11.587,49.613-12.102,8.55-.238,17.108.407,25.524,2.056,8.423,1.609,16.719,3.96,24.71,7.055,15.96,6.145,30.834,15.545,41.916,28.497" fill="none" stroke="#231f20" stroke-miterlimit="10" stroke-width=".25"/>
      <path d="m322.917,386.038c-.523,9.588-2.515,18.807-5.512,27.355-2.992,8.56-7.07,16.418-11.749,23.487-4.717,7.051-10.099,13.291-15.907,18.586-5.822,5.265-12.045,9.669-18.448,13.205-12.779,7.151-25.899,11.18-37.971,13.136-12.102,1.946-23.264,1.638-32.727-.239-9.496-1.845-17.188-5.456-22.821-9.614-5.68-4.15-9.191-8.895-11.645-12.963-.651-.991-1.128-2.007-1.622-2.924-.51-.91-.9-1.799-1.257-2.622-.771-1.621-1.25-3.041-1.668-4.164-.447-1.114-.641-1.996-.826-2.567-.17-.575-.255-.864-.255-.864" fill="none" stroke="#231f20" stroke-miterlimit="10" stroke-width=".25"/>
      <path d="m325.395,386.171c-.537,9.846-2.581,19.294-5.649,28.046-3.065,8.765-7.236,16.804-12.025,24.04-4.828,7.217-10.34,13.608-16.299,19.042-5.977,5.407-12.362,9.921-18.909,13.538-13.072,7.313-26.451,11.421-38.793,13.422-12.371,1.988-23.818,1.683-33.602-.256-9.812-1.906-17.866-5.662-23.81-10.051-5.998-4.382-9.739-9.431-12.3-13.684-.682-1.042-1.182-2.102-1.699-3.063-.532-.954-.941-1.883-1.315-2.743-.804-1.696-1.308-3.179-1.744-4.354-.465-1.165-.671-2.087-.864-2.684-.178-.602-.267-.903-.267-.903" fill="none" stroke="#231f20" stroke-miterlimit="10" stroke-width=".25"/>
    </g>
    <g>
      <path d="m-18.335,527.442c2.505-4.339,4.814-8.654,7.05-12.986,2.276-4.324,4.516-8.582,6.721-12.771,2.205-4.19,4.374-8.312,6.508-12.366,2.17-4.035,4.38-7.963,6.511-11.846,4.283-7.754,8.369-15.268,12.57-22.365,4.164-7.117,8.037-14.047,12.077-20.522,15.75-26.141,30.081-47.367,42.34-63.87,12.249-16.515,22.427-28.292,29.619-35.835,1.797-1.887,3.381-3.533,4.81-4.889.703-.687,1.349-1.316,1.936-1.889.609-.557,1.157-1.058,1.644-1.504.964-.896,1.721-1.554,2.242-1.984.512-.435.769-.652.769-.652" fill="none" stroke="#231f20" stroke-miterlimit="10" stroke-width=".25"/>
      <path d="m-20.486,526.205c2.491-4.316,4.763-8.561,6.996-12.887,2.279-4.331,4.523-8.595,6.731-12.791,2.208-4.196,4.381-8.324,6.518-12.385,2.174-4.042,4.388-7.977,6.522-11.867,4.291-7.768,8.383-15.294,12.594-22.407,4.172-7.132,8.053-14.074,12.103-20.566,15.786-26.201,30.161-47.493,42.473-64.068,12.303-16.586,22.544-28.443,29.816-36.068,1.817-1.908,3.419-3.572,4.872-4.952.714-.697,1.37-1.336,1.966-1.918.622-.569,1.182-1.082,1.681-1.538.5-.455.938-.853,1.313-1.195.399-.339.731-.621.997-.848.532-.452.799-.678.799-.678" fill="none" stroke="#231f20" stroke-miterlimit="10" stroke-width=".25"/>
      <path d="m185.321,287.229c4.948-1.278,9.897-2.251,14.812-2.93,2.454-.367,4.909-.574,7.341-.804,2.44-.138,4.859-.308,7.265-.31,2.405-.082,4.791.037,7.156.091,2.361.159,4.708.263,7.018.551,4.64.435,9.144,1.243,13.531,2.16,17.523,3.777,33.226,10.289,46.12,18.947,12.935,8.611,22.758,19.571,29.183,30.916,6.445,11.368,9.747,22.893,11.054,33.262,1.317,10.398.777,19.653-.442,27.414-1.214,7.78-3.063,14.115-4.82,19.072-1.735,4.971-3.419,8.561-4.532,10.955-.585,1.184-1.024,2.074-1.317,2.667-.287.596-.455.883-.455.883" fill="none" stroke="#231f20" stroke-miterlimit="10" stroke-width=".25"/>
      <path d="m184.695,284.828c5.04-1.302,10.086-2.294,15.099-2.987,2.504-.373,5.009-.586,7.491-.82,2.49-.142,4.959-.314,7.416-.317,2.455-.083,4.891.037,7.306.093,2.411.162,4.807.269,7.166.562,4.741.446,9.329,1.269,13.789,2.201,17.81,3.84,33.789,10.456,46.987,19.314,13.233,8.806,23.349,20.077,29.955,31.747,6.629,11.69,10.017,23.529,11.359,34.177,1.352,10.675.796,20.162-.452,28.11-1.244,7.967-3.136,14.447-4.932,19.515-1.775,5.083-3.495,8.753-4.633,11.199-.598,1.21-1.047,2.119-1.346,2.726-.294.609-.465.902-.465.902" fill="none" stroke="#231f20" stroke-miterlimit="10" stroke-width=".25"/>
      <path d="m268.659,477.412c-9.211,4.47-18.674,7.676-28.082,9.667-4.699,1.021-9.388,1.734-14.032,2.127-4.641.393-9.235.568-13.749.342-4.512-.21-8.939-.715-13.241-1.536-4.297-.852-8.454-2.058-12.413-3.593-3.966-1.518-7.707-3.454-11.124-5.749-3.407-2.299-6.57-4.882-9.221-7.853-2.664-2.951-4.915-6.128-6.816-9.4-.465-.823-.885-1.665-1.325-2.49-.215-.415-.44-.824-.644-1.242l-.566-1.27c-.368-.848-.766-1.678-1.103-2.528-.317-.858-.631-1.711-.944-2.559-.335-.841-.572-1.71-.827-2.567-.245-.86-.525-1.706-.734-2.565-.358-1.734-.839-3.422-1.041-5.146-.128-.857-.255-1.708-.382-2.555-.067-.855-.133-1.704-.199-2.549-.183-1.686-.108-3.368-.119-5.024.109-6.634,1.654-12.92,4.12-18.398,2.474-5.491,5.891-10.146,9.653-13.928,3.795-3.768,7.948-6.624,12.01-8.884,1.032-.538,2.046-1.067,3.042-1.586,1.032-.439,2.045-.87,3.039-1.294.5-.203.984-.438,1.485-.608.502-.168.999-.335,1.491-.5.985-.327,1.951-.648,2.898-.962,7.688-2.17,14.394-2.601,19.704-2.547,5.317.214,9.29.766,11.901,1.302,2.611.551,3.922.827,3.922.827" fill="none" stroke="#231f20" stroke-miterlimit="10" stroke-width=".25"/>
      <path d="m269.747,479.642c-9.404,4.564-19.051,7.831-28.652,9.863-4.795,1.041-9.583,1.769-14.33,2.172-4.745.402-9.446.58-14.076.349-4.628-.215-9.179-.733-13.612-1.58-4.43-.878-8.73-2.123-12.84-3.717-4.115-1.577-8.017-3.592-11.594-5.993-3.567-2.405-6.886-5.119-9.678-8.245-2.802-3.104-5.156-6.428-7.137-9.839-.485-.858-.923-1.734-1.381-2.594-.224-.433-.458-.859-.67-1.294l-.59-1.322c-.384-.882-.797-1.747-1.147-2.632-.329-.893-.657-1.78-.983-2.663-.348-.875-.595-1.779-.861-2.672-.255-.896-.545-1.776-.763-2.671-.376-1.806-.872-3.564-1.086-5.363-.133-.894-.265-1.782-.397-2.665-.07-.893-.14-1.781-.209-2.663-.188-1.761-.115-3.523-.124-5.256.116-6.947,1.736-13.573,4.338-19.351,2.609-5.794,6.214-10.698,10.164-14.667,3.985-3.957,8.329-6.944,12.57-9.303,1.077-.561,2.135-1.112,3.174-1.654,1.075-.458,2.13-.908,3.166-1.349.521-.211,1.026-.455,1.547-.633.522-.175,1.039-.349,1.551-.521,1.025-.34,2.031-.673,3.015-1,7.992-2.257,14.945-2.702,20.447-2.645,5.507.218,9.618.793,12.319,1.346,2.699.57,4.055.857,4.055.857" fill="none" stroke="#231f20" stroke-miterlimit="10" stroke-width=".25"/>
    </g>
  </g>
  <g>
    <g>
      <path d="m644.182,272.399c-4.818.692-9.622,1.851-13.903,4.457-2.124,1.29-4.063,3.002-5.525,4.992-1.469,1.976-2.474,4.185-3.077,6.298-.574,2.117-.776,4.086-.882,5.895-.068,1.783-.043,3.428.014,4.906.116,2.981.233,5.401.112,7.4-.203,4.01-1.276,6.02-2.327,7.601-.526.756-.97,1.321-1.296,1.692-.316.373-.488.559-.488.559" fill="none" stroke="#231f20" stroke-miterlimit="10" stroke-width=".25"/>
      <path d="m644.527,274.856c-4.641.66-9.133,1.784-12.945,4.112-1.896,1.152-3.577,2.644-4.841,4.366-1.271,1.713-2.139,3.616-2.674,5.476-.988,3.757-.864,7.14-.779,10.05.112,2.927.239,5.45.109,7.624-.12,2.17-.466,3.973-.984,5.409-.508,1.44-1.178,2.563-1.762,3.44-.603.869-1.105,1.503-1.464,1.913-.352.414-.539.617-.539.617" fill="none" stroke="#231f20" stroke-miterlimit="10" stroke-width=".25"/>
      <path d="m603.969,327.513c-6.962,6.223-12.682,12.283-17.083,17.983-4.448,5.662-7.562,10.942-9.775,15.315-2.204,4.377-3.464,7.949-4.256,10.31-.705,2.4-1.061,3.61-1.061,3.61" fill="none" stroke="#231f20" stroke-miterlimit="10" stroke-width=".25"/>
      <path d="m605.623,329.363c-6.87,6.141-12.481,12.089-16.779,17.658-4.346,5.532-7.367,10.662-9.515,14.903-2.139,4.25-3.345,7.679-4.112,9.959-.68,2.314-1.023,3.481-1.023,3.481" fill="none" stroke="#231f20" stroke-miterlimit="10" stroke-width=".25"/>
      <path d="m569.598,390.995c-.095,9.835,2.225,18.572,5.769,25.315.401.864.932,1.641,1.38,2.438.233.394.464.783.693,1.169.241.381.517.743.771,1.109.521.724,1.031,1.433,1.529,2.125.553.644,1.094,1.272,1.622,1.886.266.305.528.607.787.904.281.275.559.546.833.814.551.533,1.087,1.053,1.609,1.559,1.089.958,2.169,1.804,3.171,2.616,4.137,3.105,7.753,4.648,10.132,5.672,1.223.449,2.143.787,2.757,1.012.62.208.944.28.944.28" fill="none" stroke="#231f20" stroke-miterlimit="10" stroke-width=".25"/>
      <path d="m572.079,391.016c-.09,9.444,2.132,17.759,5.488,24.147.378.82.884,1.553,1.307,2.309.221.373.439.742.655,1.107.228.359.487.697.726,1.04.488.68.966,1.344,1.433,1.994.521.605,1.03,1.195,1.526,1.772.249.287.496.571.739.852.265.258.527.514.786.765.519.503,1.024.993,1.516,1.47,1.027.902,2.048,1.7,2.992,2.469,3.907,2.934,7.328,4.389,9.573,5.358,1.154.424,2.022.743,2.601.956.585.197.89.263.89.263" fill="none" stroke="#231f20" stroke-miterlimit="10" stroke-width=".25"/>
    </g>
    <g>
      <path d="m690,275.402c-18.167,1.336-31.953,2.35-41.198,3.03-4.53.393-7.81,1.078-9.901,1.724-2.1.634-3.052,1.128-3.052,1.128" fill="none" stroke="#231f20" stroke-miterlimit="10" stroke-width=".25"/>
      <path d="m690.181,277.877c-18.149,1.335-31.921,2.347-41.156,3.026-4.417.384-7.492,1.037-9.409,1.629-1.926.582-2.749,1.015-2.749,1.015" fill="none" stroke="#231f20" stroke-miterlimit="10" stroke-width=".25"/>
      <path d="m627.662,291.156c-.752,4.043-.21,8.3-.18,12.411.025,2.065-.035,4.122-.362,6.137-.346,2.008-.953,3.975-1.83,5.692-1.77,3.445-4.212,5.889-6.395,7.912-2.214,2.017-4.28,3.622-6.015,5.11-3.513,2.963-6.079,5.285-7.754,6.875-.851.783-1.464,1.397-1.881,1.8-.415.404-.624.607-.624.607" fill="none" stroke="#231f20" stroke-miterlimit="10" stroke-width=".25"/>
      <path d="m630.099,291.624c-.668,3.469-.185,7.654-.136,11.91.025,2.143-.034,4.344-.394,6.571-.378,2.22-1.074,4.477-2.067,6.414-2.005,3.889-4.658,6.505-6.933,8.62-2.314,2.106-4.39,3.716-6.093,5.178-3.473,2.929-6.002,5.218-7.651,6.784-.839.771-1.441,1.375-1.85,1.771-.408.398-.613.597-.613.597" fill="none" stroke="#231f20" stroke-miterlimit="10" stroke-width=".25"/>
      <path d="m591.145,350.631c-5.404,7.113-9.073,14.121-11.356,20.386-1.179,3.131-1.89,6.128-2.498,8.853-.518,2.745-.885,5.243-1.021,7.48-.306,4.47-.123,7.856.17,10.083.061.559.115,1.049.161,1.469.073.416.134.763.182,1.04.097.556.146.835.146.835" fill="none" stroke="#231f20" stroke-miterlimit="10" stroke-width=".25"/>
      <path d="m593.124,352.128c-5.264,6.928-8.812,13.726-11.002,19.734-1.134,3.007-1.814,5.887-2.4,8.502-.495,2.634-.849,5.029-.978,7.17-.292,4.278-.12,7.507.162,9.623.058.532.109.998.152,1.398.07.394.128.724.174.987.092.527.138.792.138.792" fill="none" stroke="#231f20" stroke-miterlimit="10" stroke-width=".25"/>
      <path d="m581.818,414.518c4.243,7.564,10.603,12.414,16.512,15.149,1.463.747,2.96,1.229,4.366,1.759.716.224,1.43.397,2.119.593.346.095.687.189,1.025.282.344.063.683.125,1.019.186.671.122,1.325.241,1.964.357.642.077,1.271.115,1.882.174,1.221.159,2.377.099,3.466.096,4.366-.123,7.504-1.163,9.541-1.89.999-.423,1.724-.805,2.222-1.026.494-.232.742-.348.742-.348" fill="none" stroke="#231f20" stroke-miterlimit="10" stroke-width=".25"/>
      <path d="m583.978,413.296c3.941,7.035,9.868,11.561,15.407,14.124,1.367.702,2.767,1.147,4.079,1.645.668.208,1.333.367,1.975.551.322.089.64.178.954.265.319.057.635.114.946.17.623.114,1.23.225,1.823.333.595.07,1.176.103,1.741.158,1.131.151,2.193.09,3.195.089,4.012-.113,6.854-1.065,8.703-1.718,1.784-.826,2.684-1.243,2.684-1.243" fill="none" stroke="#231f20" stroke-miterlimit="10" stroke-width=".25"/>
    </g>
  </g>
  <g>
    <rect x="-1692.473" y="469.712" width="3386.58" height="2514.089" transform="translate(-1725.939 1727.574) rotate(-90)" fill="none" stroke="#231f20" stroke-linecap="round" stroke-miterlimit="10" stroke-width="7"/>
    <rect x="-1675.506" y="486.834" width="3353.392" height="2482.402" transform="translate(-1726.845 1729.225) rotate(-90)" fill="none" stroke="#231f20" stroke-linecap="round" stroke-miterlimit="10" stroke-width="3"/>
    <rect x="-1637.031" y="522.452" width="3275.615" height="2412.095" transform="translate(-1727.722 1729.276) rotate(-90)" fill="none" stroke="#231f20" stroke-linecap="round" stroke-miterlimit="10"/>
    <rect x="-1619.163" y="539.815" width="3239.88" height="2376.261" transform="translate(-1727.169 1728.723) rotate(-90)" fill="none" stroke="#231f20" stroke-linecap="round" stroke-miterlimit="10"/>
    <line x1="180.615" y1="108.608" x2="180.615" y2="90.692" fill="none" stroke="#231f20" stroke-linecap="round" stroke-miterlimit="10"/>
    <line x1="108.487" y1="108.608" x2="108.487" y2="90.692" fill="none" stroke="#231f20" stroke-linecap="round" stroke-miterlimit="10"/>
    <line x1="36.649" y1="108.608" x2="36.649" y2="90.692" fill="none" stroke="#231f20" stroke-linecap="round" stroke-miterlimit="10"/>
    <line x1="612.755" y1="108.608" x2="612.755" y2="90.692" fill="none" stroke="#231f20" stroke-linecap="round" stroke-miterlimit="10"/>
    <line x1="540.916" y1="108.608" x2="540.916" y2="90.692" fill="none" stroke="#231f20" stroke-linecap="round" stroke-miterlimit="10"/>
    <line x1="468.861" y1="108.608" x2="468.861" y2="90.692" fill="none" stroke="#231f20" stroke-linecap="round" stroke-miterlimit="10"/>
    <line x1="397.012" y1="108.608" x2="397.012" y2="90.692" fill="none" stroke="#231f20" stroke-linecap="round" stroke-miterlimit="10"/>
    <line x1="324.858" y1="108.608" x2="324.858" y2="90.692" fill="none" stroke="#231f20" stroke-linecap="round" stroke-miterlimit="10"/>
    <line x1="252.937" y1="108.608" x2="252.937" y2="90.692" fill="none" stroke="#231f20" stroke-linecap="round" stroke-miterlimit="10"/>
    <rect x="468.916" y="97.85" width="144" height="3.6" transform="translate(1081.833 199.3) rotate(180)" fill="#231f20" stroke-width="0"/>
    <rect x="180.525" y="95.264" width="144" height="8.773" transform="translate(505.05 199.3) rotate(180)" fill="#231f20" stroke-width="0"/>
    <rect x="-107.551" y="97.579" width="144" height="3.6" transform="translate(-71.102 198.759) rotate(180)" fill="#231f20" stroke-width="0"/>
  </g>
  <g>
    <g>
      <path d="m-1.117,421.366c2.822-7.338,5.22-14.385,7.203-21.082.475-1.683,1.006-3.311,1.41-4.958.418-1.641.828-3.252,1.23-4.834.401-1.582.69-3.171,1.03-4.71.33-1.542.659-3.053.877-4.564,2.083-11.995,2.233-22.454,1.158-30.758-.068-1.043-.281-2.041-.449-3.011-.174-.969-.343-1.907-.505-2.812-.267-1.822-.769-3.468-1.18-5-.208-.765-.408-1.498-.599-2.2-.195-.701-.355-1.378-.61-1.992-.463-1.243-.88-2.363-1.252-3.359-.378-.994-.69-1.871-.993-2.612-.345-.728-.633-1.336-.864-1.822-.463-.972-.695-1.46-.695-1.46" fill="none" stroke="#231f20" stroke-miterlimit="10" stroke-width=".25"/>
      <path d="m-3.436,420.483c2.807-7.297,5.181-14.281,7.142-20.901.469-1.663.995-3.275,1.393-4.898.412-1.618.817-3.207,1.214-4.767.396-1.56.679-3.121,1.014-4.636.325-1.518.65-3.005.862-4.487,2.044-11.782,2.182-21.972,1.141-30.028-.064-1.014-.273-1.98-.436-2.92-.169-.939-.332-1.847-.49-2.725-.256-1.767-.745-3.358-1.142-4.839-.201-.74-.394-1.45-.579-2.129-.188-.678-.341-1.334-.589-1.927-.448-1.201-.852-2.283-1.211-3.246-.365-.961-.665-1.81-.958-2.525-.333-.7-.61-1.285-.833-1.753-.445-.935-.669-1.405-.669-1.405" fill="none" stroke="#231f20" stroke-miterlimit="10" stroke-width=".25"/>
    </g>
    <g>
      <path d="m4.606,377.672c1.167-7.57,1.544-14.759,1.197-21.432-.426-6.674-1.714-12.758-3.352-18.238-.501-1.339-.991-2.651-1.472-3.936-.24-.643-.476-1.278-.711-1.907-.288-.603-.573-1.2-.854-1.791-1.049-2.401-2.374-4.531-3.561-6.599-1.361-1.962-2.566-3.891-3.97-5.533-.688-.829-1.286-1.695-1.994-2.431-.691-.75-1.362-1.478-2.013-2.185-5.308-5.581-10.207-8.833-13.493-10.86-.828-.505-1.554-.948-2.177-1.327-.647-.336-1.186-.617-1.618-.842-.865-.448-1.299-.673-1.299-.673" fill="none" stroke="#231f20" stroke-miterlimit="10" stroke-width=".25"/>
      <path d="m2.154,377.294c1.144-7.421,1.508-14.429,1.172-20.904-.414-6.473-1.662-12.342-3.237-17.625-.483-1.29-.956-2.553-1.42-3.79-.23-.619-.457-1.232-.682-1.838-.276-.578-.55-1.15-.82-1.715-1.002-2.301-2.278-4.343-3.413-6.329-1.311-1.882-2.463-3.738-3.816-5.315-.662-.797-1.234-1.631-1.917-2.339-.665-.722-1.311-1.422-1.937-2.102-5.108-5.374-9.833-8.509-12.999-10.461-.798-.487-1.497-.914-2.097-1.28-.623-.324-1.143-.594-1.56-.81-.833-.432-1.252-.648-1.252-.648" fill="none" stroke="#231f20" stroke-miterlimit="10" stroke-width=".25"/>
    </g>
  </g>
  <g>
    <g>
      <path d="m-8.959,143.325c6.683-.515,11.77.061,15.133.492,1.678.274,2.95.444,3.784.647.839.175,1.262.264,1.262.264" fill="none" stroke="#231f20" stroke-miterlimit="10" stroke-width=".25"/>
      <path d="m-9.141,140.85c6.914-.531,12.179.062,15.661.51,1.738.282,3.055.461,3.919.67.869.182,1.307.273,1.307.273" fill="none" stroke="#231f20" stroke-miterlimit="10" stroke-width=".25"/>
      <path d="m17.435,146.393c6.367,1.998,10.842,4.482,13.791,6.154,2.918,1.751,4.32,2.771,4.32,2.771" fill="none" stroke="#231f20" stroke-miterlimit="10" stroke-width=".25"/>
      <path d="m18.19,144.029c6.604,2.075,11.24,4.645,14.292,6.378,3.022,1.812,4.472,2.868,4.472,2.868" fill="none" stroke="#231f20" stroke-miterlimit="10" stroke-width=".25"/>
      <path d="m40.052,158.686c5.182,4.245,8.563,8.083,10.674,10.741,2.109,2.669,3.059,4.115,3.059,4.115" fill="none" stroke="#231f20" stroke-miterlimit="10" stroke-width=".25"/>
      <path d="m41.617,156.76c5.362,4.392,8.859,8.363,11.046,11.115,2.183,2.763,3.168,4.262,3.168,4.262" fill="none" stroke="#231f20" stroke-miterlimit="10" stroke-width=".25"/>
    </g>
    <g>
      <path d="m.766,136.746c7.3.418,12.739,1.708,16.313,2.717,1.783.531,3.119.964,4.011,1.256.88.327,1.324.491,1.324.491" fill="none" stroke="#231f20" stroke-miterlimit="10" stroke-width=".25"/>
      <path d="m.909,134.269c7.533.431,13.151,1.764,16.845,2.807,1.843.548,3.225.996,4.146,1.298.91.337,1.369.507,1.369.507" fill="none" stroke="#231f20" stroke-miterlimit="10" stroke-width=".25"/>
      <path d="m28.911,143.955c6.588,3.181,11.138,6.417,14.051,8.713,1.466,1.14,2.515,2.072,3.243,2.662.694.629,1.044.946,1.044.946" fill="none" stroke="#231f20" stroke-miterlimit="10" stroke-width=".25"/>
      <path d="m29.984,141.717c6.805,3.286,11.498,6.626,14.504,8.994,1.513,1.176,2.596,2.138,3.346,2.747.717.649,1.078.976,1.078.976" fill="none" stroke="#231f20" stroke-miterlimit="10" stroke-width=".25"/>
      <path d="m51.655,160.553c4.985,5.347,8.081,9.994,9.99,13.178.982,1.581,1.617,2.834,2.06,3.661.441.828.664,1.246.664,1.246" fill="none" stroke="#231f20" stroke-miterlimit="10" stroke-width=".25"/>
      <path d="m53.458,158.847c5.145,5.517,8.342,10.316,10.315,13.606,1.014,1.633,1.671,2.929,2.13,3.784.456.857.685,1.289.685,1.289" fill="none" stroke="#231f20" stroke-miterlimit="10" stroke-width=".25"/>
    </g>
  </g>
  <g>
    <g>
      <path d="m105.079,168.05c18.194-5.454,32.263-8.682,41.769-10.425,9.52-1.686,14.363-2.544,14.363-2.544" fill="none" stroke="#231f20" stroke-miterlimit="10" stroke-width=".25"/>
      <path d="m104.332,165.683c18.318-5.493,32.481-8.741,42.05-10.496,9.583-1.697,14.458-2.56,14.458-2.56" fill="none" stroke="#231f20" stroke-miterlimit="10" stroke-width=".25"/>
      <path d="m177.07,153.098c1.179-.141,2.338-.307,3.484-.422,1.149-.085,2.28-.169,3.393-.251,2.226-.165,4.38-.325,6.462-.479,2.082-.155,4.092-.304,6.03-.448.969-.072,1.92-.143,2.852-.213.935-.025,1.852-.05,2.75-.074,3.594-.087,6.897-.167,9.905-.24,1.504-.037,2.935-.072,4.292-.105,1.357-.035,2.64-.081,3.848-.024,9.669.244,14.588.368,14.588.368" fill="none" stroke="#231f20" stroke-miterlimit="10" stroke-width=".25"/>
      <path d="m176.803,150.631c1.187-.142,2.353-.309,3.506-.424,1.156-.086,2.295-.17,3.415-.253,2.24-.166,4.408-.327,6.504-.483,2.096-.156,4.119-.306,6.069-.451.975-.073,1.932-.144,2.871-.213.941-.025,1.863-.05,2.768-.075,3.617-.088,6.941-.168,9.969-.242,1.514-.037,2.953-.072,4.319-.105,1.365-.035,2.656-.081,3.873-.024,9.731.246,14.681.37,14.681.37" fill="none" stroke="#231f20" stroke-miterlimit="10" stroke-width=".25"/>
      <path d="m252.979,152.418c1.185.088,2.352.175,3.501.261,1.149.083,2.271.266,3.38.391,2.215.276,4.359.543,6.432.801,2.072.258,4.073.506,6.001.746,1.926.255,3.792.423,5.557.775,7.081,1.251,13.023,2.251,17.777,3.133,9.433,2.136,14.231,3.222,14.231,3.222" fill="none" stroke="#231f20" stroke-miterlimit="10" stroke-width=".25"/>
      <path d="m253.199,149.946c1.192.089,2.367.176,3.523.263,1.157.083,2.285.268,3.401.393,2.229.277,4.387.546,6.473.806,2.085.259,4.099.51,6.04.751,1.938.256,3.816.427,5.592.78,7.126,1.258,13.106,2.265,17.89,3.154,9.493,2.149,14.323,3.242,14.323,3.242" fill="none" stroke="#231f20" stroke-miterlimit="10" stroke-width=".25"/>
      <path d="m325.303,165.849c2.288.639,4.507,1.258,6.657,1.859,2.13.665,4.168,1.382,6.151,2.034,3.96,1.324,7.646,2.556,11.055,3.696,1.719.53,3.298,1.232,4.842,1.815,1.537.603,3.006,1.179,4.406,1.728,2.801,1.098,5.328,2.088,7.578,2.97,2.269.839,4.189,1.739,5.846,2.493,1.658.751,3.044,1.378,4.154,1.881,2.221,1.005,3.341,1.512,3.341,1.512" fill="none" stroke="#231f20" stroke-miterlimit="10" stroke-width=".25"/>
      <path d="m325.985,163.463c2.303.643,4.536,1.267,6.7,1.871,2.144.669,4.196,1.39,6.192,2.047,3.986,1.333,7.695,2.573,11.127,3.72,1.73.534,3.319,1.24,4.874,1.826,1.547.607,3.026,1.186,4.435,1.739,2.819,1.105,5.363,2.102,7.628,2.99,2.283.845,4.217,1.751,5.885,2.51,1.669.756,3.064,1.387,4.182,1.893,2.236,1.012,3.363,1.522,3.363,1.522" fill="none" stroke="#231f20" stroke-miterlimit="10" stroke-width=".25"/>
    </g>
    <g>
      <path d="m129.202,154.763c2.354-.543,4.638-1.07,6.85-1.581,1.106-.255,2.194-.506,3.265-.753.535-.123,1.066-.246,1.592-.367.531-.095,1.059-.19,1.581-.284,4.182-.741,8.075-1.43,11.675-2.068,1.8-.319,3.527-.624,5.181-.917,1.653-.298,3.255-.433,4.771-.643,3.036-.38,5.776-.722,8.216-1.028,2.44-.305,4.58-.572,6.418-.802,1.838-.225,3.388-.276,4.622-.388,2.473-.184,3.72-.277,3.72-.277" fill="none" stroke="#231f20" stroke-miterlimit="10" stroke-width=".25"/>
      <path d="m128.629,152.348c2.37-.547,4.669-1.077,6.896-1.591,1.113-.257,2.209-.509,3.286-.758.539-.124,1.073-.247,1.603-.369.535-.096,1.065-.191,1.591-.286,4.209-.746,8.127-1.44,11.751-2.082,1.812-.321,3.55-.628,5.215-.923,1.664-.3,3.276-.436,4.801-.647,3.056-.382,5.813-.727,8.269-1.035,2.455-.307,4.609-.576,6.459-.807,1.85-.226,3.409-.279,4.652-.391,2.489-.185,3.744-.279,3.744-.279" fill="none" stroke="#231f20" stroke-miterlimit="10" stroke-width=".25"/>
      <path d="m203.315,144.66c4.83-.117,9.369-.227,13.615-.331,2.123-.1,4.172.046,6.147.069,1.975.05,3.877.098,5.704.144,3.654.106,7.014.146,10.07.285,3.051.228,5.804.433,8.256.616,4.902.376,8.604.621,11.073.85,2.461.306,3.702.46,3.702.46" fill="none" stroke="#231f20" stroke-miterlimit="10" stroke-width=".25"/>
      <path d="m203.22,142.181c4.861-.118,9.428-.229,13.7-.332,2.136-.1,4.198.046,6.185.069,1.988.05,3.901.098,5.74.144,3.677.107,7.058.148,10.133.288,3.07.229,5.84.435,8.307.619,4.933.378,8.658.625,11.142.856,2.476.308,3.725.463,3.725.463" fill="none" stroke="#231f20" stroke-miterlimit="10" stroke-width=".25"/>
      <path d="m280.369,149.216c4.759.832,9.232,1.614,13.415,2.345,1.044.193,2.078.34,3.078.562,1,.226,1.981.448,2.945.666,1.927.436,3.782.856,5.565,1.259,3.566.807,6.842,1.549,9.826,2.225,2.948.818,5.609,1.556,7.978,2.213,4.736,1.323,8.309,2.322,10.697,2.989,1.189.35,2.064.677,2.658.865.591.197.887.297.887.297" fill="none" stroke="#231f20" stroke-miterlimit="10" stroke-width=".25"/>
      <path d="m280.756,146.765c4.789.837,9.29,1.624,13.499,2.36,1.05.194,2.091.343,3.097.566,1.006.227,1.994.451,2.963.67,1.939.439,3.806.861,5.6,1.267,3.588.813,6.885,1.559,9.888,2.239,2.967.823,5.644,1.565,8.029,2.227,4.766,1.332,8.361,2.337,10.765,3.009,1.197.352,2.078.681,2.675.87.594.199.893.298.893.298" fill="none" stroke="#231f20" stroke-miterlimit="10" stroke-width=".25"/>
      <path d="m352.836,167.793c18.081,6.838,31.457,12.907,40.219,17.372,8.737,4.521,13.182,6.82,13.182,6.82" fill="none" stroke="#231f20" stroke-miterlimit="10" stroke-width=".25"/>
      <path d="m353.682,165.461c18.199,6.88,31.662,12.991,40.483,17.485,8.796,4.551,13.27,6.866,13.27,6.866" fill="none" stroke="#231f20" stroke-miterlimit="10" stroke-width=".25"/>
    </g>
  </g>
  <g>
    <g>
      <path d="m53.114,238.072c5.716-5.653,10.351-9.638,13.578-12.156,3.244-2.499,4.894-3.77,4.894-3.77" fill="none" stroke="#231f20" stroke-miterlimit="10" stroke-width=".25"/>
      <path d="m51.341,236.335c5.814-5.752,10.528-9.803,13.808-12.363,3.298-2.54,4.976-3.832,4.976-3.832" fill="none" stroke="#231f20" stroke-miterlimit="10" stroke-width=".25"/>
      <path d="m77.167,218.311c.818-.587,1.645-1.105,2.459-1.588.807-.493,1.588-.97,2.343-1.432,1.523-.9,2.884-1.835,4.244-2.527,2.688-1.435,4.912-2.692,6.744-3.611,3.704-1.758,5.588-2.652,5.588-2.652" fill="none" stroke="#231f20" stroke-miterlimit="10" stroke-width=".25"/>
      <path d="m75.798,216.241c.832-.596,1.672-1.123,2.499-1.614.82-.501,1.614-.986,2.381-1.455,1.548-.915,2.932-1.863,4.313-2.567,2.731-1.459,4.991-2.735,6.852-3.669,3.763-1.786,5.677-2.695,5.677-2.695" fill="none" stroke="#231f20" stroke-miterlimit="10" stroke-width=".25"/>
      <path d="m105.707,203.473c1.845-.814,3.662-1.361,5.323-1.971,1.675-.572,3.212-1.173,4.673-1.607,2.925-.857,5.375-1.575,7.343-2.151,3.988-.949,6.016-1.432,6.016-1.432" fill="none" stroke="#231f20" stroke-miterlimit="10" stroke-width=".25"/>
      <path d="m104.796,201.164c1.875-.825,3.72-1.383,5.408-2.003,1.702-.581,3.263-1.191,4.747-1.632,2.972-.87,5.461-1.6,7.46-2.185,4.052-.965,6.113-1.456,6.113-1.456" fill="none" stroke="#231f20" stroke-miterlimit="10" stroke-width=".25"/>
      <path d="m135.707,195.002c.99-.182,1.95-.358,2.881-.528.935-.14,1.845-.241,2.721-.358,1.755-.225,3.388-.435,4.898-.629,3.03-.292,5.578-.427,7.619-.594,1.02-.097,1.918-.1,2.689-.112.771-.014,1.414-.025,1.93-.035,1.032-.019,1.552-.029,1.552-.029" fill="none" stroke="#231f20" stroke-miterlimit="10" stroke-width=".25"/>
      <path d="m135.276,192.558c1.006-.184,1.982-.363,2.928-.536.95-.143,1.875-.246,2.766-.364,1.783-.229,3.443-.442,4.978-.638,3.08-.298,5.671-.435,7.745-.605,1.037-.098,1.95-.102,2.734-.114.784-.014,1.438-.026,1.963-.036,1.049-.019,1.579-.029,1.579-.029" fill="none" stroke="#231f20" stroke-miterlimit="10" stroke-width=".25"/>
    </g>
    <g>
      <path d="m57.038,225.488c1.601-1.359,3.063-2.687,4.508-3.835,1.462-1.126,2.823-2.174,4.081-3.144,2.477-1.995,4.748-3.395,6.488-4.634.88-.605,1.653-1.135,2.316-1.591.665-.454,1.254-.78,1.708-1.069.919-.562,1.383-.845,1.383-.845" fill="none" stroke="#231f20" stroke-miterlimit="10" stroke-width=".25"/>
      <path d="m55.405,223.619c1.627-1.381,3.114-2.73,4.581-3.897,1.485-1.144,2.868-2.209,4.146-3.194,2.517-2.026,4.822-3.449,6.59-4.707.895-.614,1.679-1.153,2.353-1.616.675-.461,1.273-.792,1.735-1.085.933-.571,1.404-.859,1.404-.859" fill="none" stroke="#231f20" stroke-miterlimit="10" stroke-width=".25"/>
      <path d="m83.595,206.771c1.846-.998,3.581-1.936,5.204-2.814,1.631-.861,3.207-1.547,4.634-2.244,1.437-.675,2.747-1.319,3.959-1.863,1.229-.507,2.337-.964,3.324-1.371,1.976-.809,3.467-1.42,4.464-1.828,1.016-.358,1.528-.539,1.528-.539" fill="none" stroke="#231f20" stroke-miterlimit="10" stroke-width=".25"/>
      <path d="m82.382,204.606c1.875-1.014,3.636-1.966,5.284-2.857,1.656-.874,3.256-1.572,4.704-2.279,1.459-.686,2.789-1.339,4.02-1.891,1.247-.515,2.373-.979,3.375-1.392,2.007-.821,3.52-1.441,4.532-1.855,1.031-.364,1.551-.547,1.551-.547" fill="none" stroke="#231f20" stroke-miterlimit="10" stroke-width=".25"/>
      <path d="m114.374,193.492c2.013-.593,3.905-1.15,5.674-1.671,1.763-.544,3.456-.858,4.994-1.252,1.545-.368,2.964-.706,4.257-1.014,1.307-.242,2.486-.46,3.536-.654,2.101-.384,3.687-.674,4.746-.868,1.068-.144,1.606-.217,1.606-.217" fill="none" stroke="#231f20" stroke-miterlimit="10" stroke-width=".25"/>
      <path d="m113.632,191.124c2.044-.602,3.965-1.167,5.761-1.696,1.79-.551,3.509-.872,5.07-1.272,1.569-.373,3.01-.716,4.323-1.028,1.327-.246,2.525-.468,3.591-.665,2.134-.39,3.744-.684,4.82-.88,1.084-.147,1.631-.221,1.631-.221" fill="none" stroke="#231f20" stroke-miterlimit="10" stroke-width=".25"/>
      <path d="m146.194,186.919c8.368-.723,14.751-.834,19.023-.702,4.273.161,6.446.243,6.446.243" fill="none" stroke="#231f20" stroke-miterlimit="10" stroke-width=".25"/>
      <path d="m145.945,184.45c8.501-.737,14.988-.847,19.33-.714,4.343.164,6.552.248,6.552.248" fill="none" stroke="#231f20" stroke-miterlimit="10" stroke-width=".25"/>
    </g>
  </g>
  <g>
    <g>
      <path d="m303.177,210.21c7.564,1.631,13.213,3.275,16.938,4.559,3.719,1.307,5.61,1.972,5.61,1.972" fill="none" stroke="#231f20" stroke-miterlimit="10" stroke-width=".25"/>
      <path d="m303.662,207.776c7.703,1.659,13.453,3.335,17.243,4.64,3.784,1.331,5.709,2.007,5.709,2.007" fill="none" stroke="#231f20" stroke-miterlimit="10" stroke-width=".25"/>
      <path d="m331.746,219.24c.903.353,1.754.75,2.57,1.155.821.394,1.615.776,2.383,1.145,1.524.761,2.992,1.37,4.261,2.109,2.565,1.424,4.743,2.565,6.442,3.567,3.355,2.08,5.061,3.138,5.061,3.138" fill="none" stroke="#231f20" stroke-miterlimit="10" stroke-width=".25"/>
      <path d="m332.738,216.966c.918.36,1.785.763,2.615,1.175.835.401,1.643.789,2.424,1.164,1.55.773,3.042,1.395,4.334,2.145,2.609,1.447,4.824,2.609,6.552,3.628,3.411,2.115,5.146,3.19,5.146,3.19" fill="none" stroke="#231f20" stroke-miterlimit="10" stroke-width=".25"/>
      <path d="m358.648,234.573c1.62,1.069,3.008,2.257,4.367,3.285,1.334,1.06,2.622,1.991,3.733,2.949,2.214,1.925,4.069,3.538,5.558,4.833,2.839,2.741,4.283,4.135,4.283,4.135" fill="none" stroke="#231f20" stroke-miterlimit="10" stroke-width=".25"/>
      <path d="m360.096,232.558c1.647,1.088,3.059,2.294,4.44,3.34,1.357,1.077,2.665,2.025,3.795,2.999,2.252,1.958,4.138,3.598,5.652,4.915,2.887,2.787,4.356,4.205,4.356,4.205" fill="none" stroke="#231f20" stroke-miterlimit="10" stroke-width=".25"/>
      <path d="m381.095,254.486c.66.709,1.301,1.397,1.922,2.063.598.686,1.15,1.373,1.699,2.024,1.091,1.308,2.106,2.525,3.045,3.651,1.804,2.309,3.229,4.31,4.419,5.88.606.778,1.072,1.507,1.479,2.127.409.619.75,1.136,1.024,1.551.548.829.824,1.247.824,1.247" fill="none" stroke="#231f20" stroke-miterlimit="10" stroke-width=".25"/>
      <path d="m382.923,252.807c.672.722,1.323,1.421,1.954,2.099.608.698,1.171,1.396,1.729,2.058,1.109,1.33,2.142,2.569,3.097,3.714,1.836,2.349,3.286,4.385,4.497,5.983.616.792,1.09,1.533,1.505,2.164.416.63.764,1.157,1.042,1.578.557.844.839,1.269.839,1.269" fill="none" stroke="#231f20" stroke-miterlimit="10" stroke-width=".25"/>
    </g>
    <g>
      <path d="m315.455,206.521c1.942.579,3.786,1.061,5.475,1.625,1.68.591,3.243,1.14,4.69,1.649,2.917.954,5.242,2.059,7.158,2.816.952.395,1.787.742,2.504,1.04.716.3,1.289.606,1.761.823.937.45,1.41.677,1.41.677" fill="none" stroke="#231f20" stroke-miterlimit="10" stroke-width=".25"/>
      <path d="m316.13,204.133c1.975.589,3.851,1.08,5.568,1.654,1.708.6,3.298,1.159,4.769,1.676,2.966.971,5.329,2.092,7.278,2.863.968.402,1.816.755,2.545,1.057.728.305,1.311.616,1.79.836.953.457,1.433.688,1.433.688" fill="none" stroke="#231f20" stroke-miterlimit="10" stroke-width=".25"/>
      <path d="m344.552,218.185c1.776.974,3.444,1.889,5.005,2.744,1.552.871,2.932,1.791,4.243,2.583,1.299.812,2.506,1.538,3.581,2.237,1.053.732,2.002,1.393,2.848,1.981,1.688,1.181,2.962,2.072,3.814,2.667.821.638,1.234.96,1.234.96" fill="none" stroke="#231f20" stroke-miterlimit="10" stroke-width=".25"/>
      <path d="m345.711,215.991c1.804.99,3.5,1.919,5.086,2.789,1.577.885,2.979,1.819,4.311,2.625,1.32.825,2.546,1.563,3.638,2.273,1.07.744,2.035,1.415,2.894,2.013,1.715,1.2,3.009,2.106,3.875,2.711.834.648,1.254.975,1.254.975" fill="none" stroke="#231f20" stroke-miterlimit="10" stroke-width=".25"/>
      <path d="m371.4,236.215c1.53,1.326,2.968,2.573,4.312,3.739,1.36,1.148,2.495,2.361,3.615,3.406,1.102,1.064,2.115,2.042,3.038,2.933.876.937,1.665,1.783,2.369,2.536,1.404,1.509,2.463,2.648,3.171,3.409.671.794,1.01,1.194,1.01,1.194" fill="none" stroke="#231f20" stroke-miterlimit="10" stroke-width=".25"/>
      <path d="m372.992,234.311c1.555,1.348,3.016,2.614,4.382,3.799,1.382,1.168,2.536,2.399,3.674,3.461,1.12,1.082,2.149,2.076,3.087,2.981.89.952,1.693,1.812,2.408,2.577,1.427,1.534,2.503,2.692,3.222,3.465.682.807,1.027,1.214,1.027,1.214" fill="none" stroke="#231f20" stroke-miterlimit="10" stroke-width=".25"/>
      <path d="m393.278,258.666c4.924,6.437,8.315,11.581,10.413,15.131,2.074,3.566,3.129,5.38,3.129,5.38" fill="none" stroke="#231f20" stroke-miterlimit="10" stroke-width=".25"/>
      <path d="m395.227,257.13c5.008,6.544,8.455,11.776,10.59,15.388,2.11,3.629,3.183,5.474,3.183,5.474" fill="none" stroke="#231f20" stroke-miterlimit="10" stroke-width=".25"/>
    </g>
  </g>
  <g>
    <g>
      <path d="m420.205,311.207c-4.102.54-7.06,1.595-8.977,2.385-.969.383-1.667.74-2.139.967-.471.23-.709.345-.709.345" fill="none" stroke="#231f20" stroke-miterlimit="10" stroke-width=".25"/>
      <path d="m420.505,313.67c-3.795.502-6.546,1.48-8.329,2.215-.901.355-1.551.689-1.99.9-.439.213-.66.321-.66.321" fill="none" stroke="#231f20" stroke-miterlimit="10" stroke-width=".25"/>
      <path d="m405.422,316.641c-3.435,2.209-5.63,4.449-7.046,5.965-.684.786-1.212,1.369-1.522,1.797-.322.417-.485.627-.485.627" fill="none" stroke="#231f20" stroke-miterlimit="10" stroke-width=".25"/>
      <path d="m406.771,318.723c-3.201,2.057-5.243,4.144-6.559,5.552-.635.732-1.127,1.272-1.414,1.669-.299.387-.45.582-.45.582" fill="none" stroke="#231f20" stroke-miterlimit="10" stroke-width=".25"/>
      <path d="m394.163,328.331c-2.111,3.565-3.008,6.589-3.569,8.583-.51,2.019-.656,3.067-.656,3.067" fill="none" stroke="#231f20" stroke-miterlimit="10" stroke-width=".25"/>
      <path d="m396.303,329.587c-1.955,3.297-2.787,6.106-3.31,7.961-.474,1.878-.609,2.854-.609,2.854" fill="none" stroke="#231f20" stroke-miterlimit="10" stroke-width=".25"/>
      <path d="m389.517,343.386c-.287,4.073.108,7.175.493,9.216.393,2.045.706,3.063.706,3.063" fill="none" stroke="#231f20" stroke-miterlimit="10" stroke-width=".25"/>
      <path d="m391.991,343.571c-.266,3.794.1,6.683.459,8.58.366,1.901.656,2.846.656,2.846" fill="none" stroke="#231f20" stroke-miterlimit="10" stroke-width=".25"/>
    </g>
    <g>
      <path d="m416.448,318.641c-3.199.958-5.435,2.223-6.887,3.093-.721.452-1.261.798-1.602,1.06-.349.25-.525.376-.525.376" fill="none" stroke="#231f20" stroke-miterlimit="10" stroke-width=".25"/>
      <path d="m417.159,321.018c-2.918.873-4.969,2.033-6.299,2.83-.661.414-1.156.731-1.468.972-.32.229-.481.345-.481.345" fill="none" stroke="#231f20" stroke-miterlimit="10" stroke-width=".25"/>
      <path d="m405.26,324.951c-2.491,2.237-3.989,4.309-4.901,5.727-.444.719-.765,1.271-.978,1.64-.194.38-.291.571-.291.571" fill="none" stroke="#231f20" stroke-miterlimit="10" stroke-width=".25"/>
      <path d="m406.92,326.796c-2.281,2.047-3.645,3.937-4.474,5.226-.393.659-.69,1.156-.888,1.489-.175.345-.264.519-.264.519" fill="none" stroke="#231f20" stroke-miterlimit="10" stroke-width=".25"/>
      <path d="m397.786,335.82c-1.164,3.126-1.555,5.662-1.71,7.351-.085.846-.098,1.489-.132,1.917-.004.429-.005.645-.005.645" fill="none" stroke="#231f20" stroke-miterlimit="10" stroke-width=".25"/>
      <path d="m400.108,336.695c-1.061,2.849-1.423,5.173-1.563,6.721-.079.775-.088,1.365-.122,1.756-.003.393-.004.591-.004.591" fill="none" stroke="#231f20" stroke-miterlimit="10" stroke-width=".25"/>
      <path d="m396.026,348.543c.309,3.333,1.035,5.782,1.612,7.368.272.803.543,1.38.712,1.772.169.391.255.588.255.588" fill="none" stroke="#231f20" stroke-miterlimit="10" stroke-width=".25"/>
      <path d="m398.499,348.338c.285,3.052.947,5.286,1.472,6.728.246.732.494,1.254.647,1.61.153.355.23.535.23.535" fill="none" stroke="#231f20" stroke-miterlimit="10" stroke-width=".25"/>
    </g>
  </g>
</svg>