<?xml version="1.0" encoding="UTF-8"?>
<svg id="a" data-name="Layer 1" xmlns="http://www.w3.org/2000/svg" width="9.002in" height="6.002in" viewBox="0 0 648.177 432.177">
  <g>
    <g>
      <path d="m120.667,484.602c-2.102-4.505-3.705-8.896-5.054-13.052-1.262-4.184-2.286-8.129-2.98-11.834-1.444-7.401-1.935-13.728-2.124-18.801-.038-2.541-.1-4.769-.012-6.684.024-.957.046-1.836.066-2.635.051-.798.096-1.518.137-2.158.085-1.28.148-2.243.191-2.885.064-.641.096-.963.096-.963" fill="none" stroke="#231f20" stroke-miterlimit="10" stroke-width=".25"/>
      <path d="m118.417,485.648c-2.151-4.61-3.792-9.104-5.171-13.355-1.292-4.279-2.338-8.313-3.047-12.099-1.475-7.563-1.977-14.023-2.169-19.2-.04-2.593-.102-4.867-.013-6.82.025-.976.048-1.873.068-2.688.051-.814.098-1.548.139-2.201.087-1.305.152-2.287.195-2.943.065-.654.098-.982.098-.982" fill="none" stroke="#231f20" stroke-miterlimit="10" stroke-width=".25"/>
      <path d="m113.662,408.989c2.193-9.772,5.332-18.051,8.458-24.934,3.15-6.885,6.398-12.348,9.188-16.591,2.774-4.26,5.159-7.266,6.753-9.266.781-1.015,1.412-1.741,1.837-2.223.42-.486.631-.73.631-.73" fill="none" stroke="#231f20" stroke-miterlimit="10" stroke-width=".25"/>
      <path d="m111.243,408.436c2.236-9.96,5.434-18.398,8.621-25.416,3.211-7.019,6.524-12.592,9.371-16.921,2.831-4.347,5.266-7.416,6.893-9.459.798-1.036,1.442-1.778,1.876-2.271.429-.496.645-.746.645-.746" fill="none" stroke="#231f20" stroke-miterlimit="10" stroke-width=".25"/>
    </g>
    <g>
      <path d="m105.922,459.308c-.933-5.182-1.515-10.105-1.755-14.724-.316-4.616-.246-8.926-.125-12.902.319-7.957,1.318-14.571,2.348-19.817.125-.657.245-1.294.362-1.911.14-.612.276-1.203.407-1.775.263-1.143.507-2.206.732-3.188.525-1.945.964-3.571,1.315-4.873.773-2.585,1.199-3.878,1.199-3.878" fill="none" stroke="#231f20" stroke-miterlimit="10" stroke-width=".25"/>
      <path d="m103.481,459.751c-.952-5.289-1.545-10.311-1.79-15.021-.322-4.708-.252-9.099-.128-13.152.325-8.109,1.343-14.844,2.391-20.187.127-.669.25-1.318.369-1.946.143-.623.281-1.226.414-1.808.268-1.164.516-2.246.746-3.246.535-1.981.981-3.636,1.339-4.962.786-2.632,1.22-3.949,1.22-3.949" fill="none" stroke="#231f20" stroke-miterlimit="10" stroke-width=".25"/>
      <path d="m116.888,379.799c4.57-9.473,9.548-17.334,14.45-23.611,4.877-6.302,9.535-11.117,13.447-14.781,3.969-3.607,7.131-6.141,9.306-7.75,2.186-1.596,3.288-2.401,3.288-2.401" fill="none" stroke="#231f20" stroke-miterlimit="10" stroke-width=".25"/>
      <path d="m114.646,378.736c4.655-9.65,9.729-17.661,14.728-24.064,4.974-6.427,9.729-11.343,13.724-15.084,4.052-3.685,7.284-6.272,9.506-7.917,2.234-1.631,3.361-2.453,3.361-2.453" fill="none" stroke="#231f20" stroke-miterlimit="10" stroke-width=".25"/>
    </g>
  </g>
  <g>
    <g>
      <path d="m180.422,286.152c.279-1.681.557-3.349.832-5.005.14-.827.279-1.652.418-2.473.172-.815.344-1.627.514-2.436.344-1.617.685-3.222,1.023-4.814.403-1.577.803-3.142,1.2-4.695.199-.776.398-1.549.595-2.319.229-.761.457-1.52.684-2.275.454-1.51.904-3.008,1.35-4.494.505-1.467,1.005-2.922,1.502-4.365.503-1.44.969-2.88,1.543-4.268,4.276-11.218,9.311-21.249,14.624-30.125,5.316-8.88,10.911-16.606,16.392-23.317.684-.84,1.36-1.67,2.027-2.489.695-.796,1.382-1.582,2.059-2.359,1.361-1.548,2.651-3.087,4.015-4.489,1.341-1.422,2.646-2.805,3.914-4.149,1.315-1.299,2.591-2.56,3.83-3.784,1.219-1.245,2.486-2.361,3.686-3.47,1.211-1.097,2.353-2.191,3.508-3.189,1.162-.99,2.284-1.945,3.364-2.865,1.075-.927,2.117-1.809,3.159-2.606,2.074-1.604,3.912-3.163,5.701-4.428,1.768-1.291,3.362-2.455,4.78-3.49,2.917-1.953,5.089-3.456,6.573-4.406,1.498-.929,2.25-1.395,2.25-1.395" fill="none" stroke="#231f20" stroke-miterlimit="10" stroke-width=".25"/>
      <path d="m177.966,285.799c.283-1.706.565-3.398.844-5.078.142-.839.284-1.676.425-2.509.174-.827.348-1.651.521-2.471.349-1.64.695-3.268,1.038-4.883.409-1.6.814-3.187,1.217-4.761.202-.787.403-1.571.604-2.351.232-.772.463-1.541.694-2.306.46-1.531.917-3.05,1.369-4.557.511-1.488,1.019-2.963,1.522-4.425.51-1.46.984-2.92,1.565-4.326,4.334-11.37,9.435-21.533,14.816-30.522,5.384-8.993,11.049-16.816,16.598-23.61.693-.85,1.377-1.69,2.052-2.52.704-.806,1.399-1.602,2.085-2.388,1.377-1.567,2.685-3.125,4.065-4.544,1.358-1.439,2.679-2.839,3.962-4.2,1.331-1.315,2.623-2.592,3.877-3.831,1.234-1.259,2.516-2.39,3.731-3.513,1.226-1.111,2.382-2.218,3.552-3.228,1.177-1.002,2.312-1.969,3.406-2.901,1.089-.938,2.144-1.831,3.198-2.639,2.1-1.624,3.961-3.202,5.772-4.483,1.791-1.308,3.404-2.486,4.84-3.534,2.953-1.979,5.153-3.5,6.656-4.462,1.517-.941,2.279-1.413,2.279-1.413" fill="none" stroke="#231f20" stroke-miterlimit="10" stroke-width=".25"/>
      <path d="m311.523,133.092c12.98-4.276,25.657-6.435,37.643-7.67,11.991-1.198,23.279-1.342,33.728-1.081,10.454.281,20.079.922,28.859,1.691,8.781.754,16.711,1.554,23.793,2.279,14.158,1.467,24.91,2.49,32.112,3.076,3.607.272,6.321.476,8.132.613,1.816.102,2.728.153,2.728.153" fill="none" stroke="#231f20" stroke-miterlimit="10" stroke-width=".25"/>
      <path d="m310.765,130.728c13.159-4.335,26.039-6.529,38.153-7.776,12.129-1.212,23.517-1.355,34.038-1.092,10.526.283,20.199.928,29.005,1.699,8.808.756,16.752,1.558,23.835,2.283,14.162,1.467,24.883,2.487,32.061,3.072,3.593.271,6.295.474,8.099.61,1.807.101,2.715.152,2.715.152" fill="none" stroke="#231f20" stroke-miterlimit="10" stroke-width=".25"/>
      <path d="m532.976,132.788c7.053-.217,13.879-.722,20.494-1.147,6.602-.595,13-1.09,19.155-1.849,6.17-.632,12.093-1.507,17.811-2.28,2.859-.392,5.647-.89,8.391-1.317,2.74-.456,5.437-.837,8.057-1.353,21.022-3.766,38.402-8.096,52.223-11.987,13.832-3.865,24.086-7.393,30.949-9.746,3.411-1.238,5.976-2.17,7.689-2.792.858-.305,1.497-.553,1.921-.722.426-.166.639-.249.639-.249" fill="none" stroke="#231f20" stroke-miterlimit="10" stroke-width=".25"/>
      <path d="m532.881,130.308c7.021-.216,13.815-.719,20.4-1.142,6.572-.593,12.94-1.085,19.067-1.841,6.141-.629,12.037-1.5,17.73-2.269,2.845-.39,5.621-.886,8.353-1.311,2.727-.454,5.412-.832,8.02-1.347,20.926-3.749,38.226-8.059,51.983-11.932,13.769-3.847,23.975-7.359,30.798-9.698,3.391-1.231,5.942-2.158,7.645-2.776.854-.303,1.488-.55,1.91-.718.423-.165.635-.248.635-.248" fill="none" stroke="#231f20" stroke-miterlimit="10" stroke-width=".25"/>
    </g>
    <g>
      <path d="m201.498,211.67c.954-1.487,1.9-2.963,2.839-4.428.991-1.43,1.975-2.85,2.95-4.258.957-1.422,1.972-2.785,2.992-4.129,1.014-1.347,2.02-2.684,3.019-4.01,1.044-1.29,2.08-2.57,3.108-3.839.514-.635,1.026-1.266,1.535-1.896.532-.61,1.062-1.218,1.589-1.824,1.056-1.21,2.104-2.41,3.142-3.6,1.054-1.176,2.146-2.299,3.204-3.435,8.524-9.031,17.218-16.714,25.768-23.136,8.544-6.432,16.866-11.711,24.73-15.991,7.869-4.278,15.254-7.586,21.935-10.261,13.432-5.208,24.056-7.719,31.168-9.143,1.784-.342,3.347-.641,4.688-.898,1.348-.201,2.473-.369,3.374-.504,1.802-.264,2.707-.397,2.707-.397" fill="none" stroke="#231f20" stroke-miterlimit="10" stroke-width=".25"/>
      <path d="m199.399,210.347c.965-1.505,1.924-3,2.875-4.482,1.003-1.448,1.998-2.884,2.986-4.31.969-1.439,1.996-2.819,3.028-4.179,1.027-1.364,2.045-2.717,3.055-4.059,1.057-1.306,2.105-2.601,3.145-3.885.52-.642,1.038-1.281,1.554-1.918.538-.618,1.074-1.233,1.608-1.846,1.069-1.224,2.129-2.439,3.18-3.643,1.067-1.19,2.172-2.327,3.242-3.477,8.626-9.139,17.424-16.913,26.077-23.413,8.647-6.51,17.072-11.854,25.035-16.189,7.968-4.333,15.449-7.684,22.218-10.393,13.609-5.278,24.381-7.823,31.593-9.267,1.809-.347,3.394-.65,4.754-.911,1.365-.204,2.504-.374,3.415-.511,1.824-.267,2.74-.401,2.74-.401" fill="none" stroke="#231f20" stroke-miterlimit="10" stroke-width=".25"/>
      <path d="m387.577,117.943c14.055.562,27.195,1.758,39.448,2.96,12.253,1.214,23.626,2.439,34.149,3.381,21.034,1.979,38.703,2.453,52.894,2.418,7.092-.113,13.316-.151,18.654-.427,2.67-.108,5.12-.207,7.349-.298,2.227-.143,4.233-.273,6.018-.388,7.144-.418,10.735-.788,10.735-.788" fill="none" stroke="#231f20" stroke-miterlimit="10" stroke-width=".25"/>
      <path d="m387.671,115.463c14.142.566,27.327,1.767,39.597,2.971,12.27,1.216,23.633,2.44,34.128,3.379,20.969,1.973,38.531,2.442,52.663,2.408,7.059-.113,13.254-.15,18.567-.426,2.657-.108,5.096-.206,7.315-.296,2.216-.143,4.213-.272,5.99-.386,7.111-.416,10.685-.784,10.685-.784" fill="none" stroke="#231f20" stroke-miterlimit="10" stroke-width=".25"/>
      <path d="m610.145,117.607c13.703-2.558,26.495-5.433,38.328-8.609,1.482-.387,2.951-.77,4.407-1.15,1.448-.411,2.883-.819,4.305-1.223,2.842-.815,5.634-1.616,8.374-2.402,2.72-.852,5.39-1.687,8.008-2.507,1.309-.41,2.606-.816,3.889-1.218,1.275-.428,2.536-.852,3.786-1.272,20.015-6.653,36.231-13.712,48.901-19.999,12.674-6.306,21.748-11.936,27.757-15.758,2.97-1.965,5.161-3.507,6.645-4.506.739-.504,1.293-.883,1.663-1.135.373-.249.549-.388.549-.388" fill="none" stroke="#231f20" stroke-miterlimit="10" stroke-width=".25"/>
      <path d="m609.691,115.168c13.64-2.546,26.372-5.407,38.15-8.569,1.475-.385,2.937-.766,4.387-1.144,1.441-.409,2.869-.815,4.284-1.218,2.829-.811,5.607-1.608,8.334-2.39,2.708-.848,5.364-1.679,7.971-2.495,1.303-.408,2.594-.812,3.871-1.212,1.268-.426,2.523-.848,3.766-1.265,19.91-6.618,36.012-13.63,48.583-19.867,12.574-6.256,21.56-11.833,27.511-15.618,2.94-1.946,5.108-3.472,6.577-4.46.731-.499,1.28-.874,1.646-1.123.369-.246.543-.384.543-.384" fill="none" stroke="#231f20" stroke-miterlimit="10" stroke-width=".25"/>
    </g>
  </g>
  <g>
    <g>
      <path d="m283.414,314.507c2.597-6.573,4.97-11.4,6.735-14.538,1.788-3.128,2.697-4.719,2.697-4.719" fill="none" stroke="#231f20" stroke-miterlimit="10" stroke-width=".25"/>
      <path d="m281.089,313.638c2.654-6.725,5.082-11.658,6.885-14.865,1.827-3.196,2.757-4.821,2.757-4.821" fill="none" stroke="#231f20" stroke-miterlimit="10" stroke-width=".25"/>
      <path d="m296.122,290.273c.246-.368.477-.739.724-1.09.258-.344.512-.682.762-1.015.5-.666.983-1.31,1.451-1.933.467-.623.918-1.225,1.352-1.805.425-.588.855-1.137,1.302-1.638,1.749-2.034,3.167-3.781,4.383-5.114,2.497-2.607,3.768-3.933,3.768-3.933" fill="none" stroke="#231f20" stroke-miterlimit="10" stroke-width=".25"/>
      <path d="m294.077,288.867c.251-.376.487-.754.74-1.113.263-.351.523-.696.778-1.036.51-.68,1.004-1.338,1.481-1.974.477-.636.937-1.251,1.381-1.843.434-.6.874-1.16,1.329-1.672,1.784-2.078,3.233-3.859,4.474-5.22,2.549-2.661,3.845-4.014,3.845-4.014" fill="none" stroke="#231f20" stroke-miterlimit="10" stroke-width=".25"/>
      <path d="m314.836,269.039c1.268-1.244,2.614-2.235,3.803-3.243,1.215-.976,2.301-1.943,3.385-2.735,2.174-1.574,3.995-2.893,5.457-3.951,3.042-1.942,4.589-2.93,4.589-2.93" fill="none" stroke="#231f20" stroke-miterlimit="10" stroke-width=".25"/>
      <path d="m313.181,267.19c1.295-1.268,2.667-2.282,3.881-3.31,1.24-.996,2.349-1.982,3.455-2.79,2.219-1.607,4.077-2.952,5.569-4.033,3.105-1.983,4.685-2.991,4.685-2.991" fill="none" stroke="#231f20" stroke-miterlimit="10" stroke-width=".25"/>
      <path d="m337.233,253.201c.774-.431,1.525-.85,2.252-1.255.741-.378,1.475-.711,2.175-1.051,1.404-.672,2.711-1.298,3.919-1.877,2.456-1.068,4.557-1.86,6.22-2.551.828-.359,1.581-.594,2.225-.806.643-.213,1.181-.391,1.612-.534.861-.286,1.296-.43,1.296-.43" fill="none" stroke="#231f20" stroke-miterlimit="10" stroke-width=".25"/>
      <path d="m336.042,251.024c.791-.44,1.557-.867,2.3-1.281.757-.386,1.506-.727,2.221-1.074,1.434-.687,2.769-1.326,4.004-1.917,2.509-1.092,4.656-1.902,6.355-2.607.846-.366,1.616-.607,2.275-.824.658-.218,1.207-.4,1.648-.546.881-.292,1.325-.44,1.325-.44" fill="none" stroke="#231f20" stroke-miterlimit="10" stroke-width=".25"/>
    </g>
    <g>
      <path d="m281.469,302.616c.839-1.673,1.566-3.278,2.357-4.72.816-1.428,1.576-2.757,2.279-3.986.696-1.234,1.341-2.364,2.018-3.337.651-.99,1.239-1.883,1.762-2.678.523-.795.983-1.493,1.377-2.092.397-.597.78-1.06,1.06-1.449.576-.768.866-1.156.866-1.156" fill="none" stroke="#231f20" stroke-miterlimit="10" stroke-width=".25"/>
      <path d="m279.232,301.541c.856-1.709,1.6-3.347,2.407-4.819.833-1.458,1.608-2.814,2.326-4.069.711-1.259,1.37-2.412,2.06-3.406.664-1.01,1.264-1.921,1.797-2.733.534-.811,1.003-1.523,1.406-2.134.405-.609.795-1.081,1.081-1.478.587-.784.883-1.179.883-1.179" fill="none" stroke="#231f20" stroke-miterlimit="10" stroke-width=".25"/>
      <path d="m297.04,278.226c1.21-1.426,2.348-2.765,3.411-4.018,1.078-1.24,2.177-2.307,3.143-3.34.983-1.017,1.868-1.971,2.708-2.805.868-.805,1.652-1.531,2.349-2.178,1.399-1.29,2.442-2.276,3.16-2.913.741-.61,1.115-.917,1.115-.917" fill="none" stroke="#231f20" stroke-miterlimit="10" stroke-width=".25"/>
      <path d="m295.121,276.652c1.234-1.454,2.394-2.82,3.479-4.097,1.099-1.265,2.219-2.353,3.204-3.406,1.002-1.037,1.905-2.009,2.761-2.859.885-.821,1.683-1.562,2.395-2.221,1.426-1.315,2.49-2.32,3.222-2.969.755-.622,1.136-.935,1.136-.935" fill="none" stroke="#231f20" stroke-miterlimit="10" stroke-width=".25"/>
      <path d="m318.55,257.531c1.513-1.099,2.934-2.132,4.264-3.098.655-.498,1.323-.926,1.971-1.332.644-.412,1.265-.808,1.861-1.189,1.193-.761,2.289-1.461,3.287-2.098,1.034-.578,1.966-1.1,2.797-1.565,1.663-.925,2.918-1.623,3.757-2.09.856-.434,1.298-.634,1.298-.634" fill="none" stroke="#231f20" stroke-miterlimit="10" stroke-width=".25"/>
      <path d="m317.052,255.552c1.542-1.121,2.992-2.174,4.347-3.158.668-.507,1.349-.944,2.009-1.359.657-.42,1.29-.824,1.898-1.213,1.216-.776,2.334-1.489,3.352-2.139,1.054-.59,2.005-1.123,2.852-1.597,1.697-.943,2.977-1.655,3.833-2.131.873-.443,1.324-.647,1.324-.647" fill="none" stroke="#231f20" stroke-miterlimit="10" stroke-width=".25"/>
      <path d="m343.461,242.807c6.898-2.909,12.304-4.695,15.983-5.686,3.688-.962,5.565-1.452,5.565-1.452" fill="none" stroke="#231f20" stroke-miterlimit="10" stroke-width=".25"/>
      <path d="m342.46,240.537c7.039-2.971,12.56-4.793,16.317-5.806,3.768-.982,5.685-1.482,5.685-1.482" fill="none" stroke="#231f20" stroke-miterlimit="10" stroke-width=".25"/>
    </g>
  </g>
  <g>
    <g>
      <path d="m279.841,246.955c4.565-13.935,11.802-26.004,20.219-35.865,1.064-1.225,2.12-2.438,3.166-3.642,1.11-1.147,2.21-2.284,3.301-3.411,1.064-1.153,2.227-2.189,3.355-3.24,1.144-1.034,2.217-2.124,3.388-3.086,2.332-1.935,4.569-3.895,6.943-5.598,1.176-.864,2.298-1.778,3.484-2.579,1.186-.803,2.359-1.598,3.521-2.384,9.345-6.246,18.738-10.685,27.532-14.017,8.828-3.323,17.093-5.517,24.535-7.07,14.922-3.033,26.496-3.59,34.188-3.835,1.928-.037,3.617-.07,5.066-.099,1.451.013,2.661.024,3.63.033,1.938.017,2.912.026,2.912.026" fill="none" stroke="#231f20" stroke-miterlimit="10" stroke-width=".25"/>
      <path d="m277.477,246.201c4.681-14.296,12.097-26.645,20.689-36.714,1.087-1.25,2.164-2.489,3.233-3.718,1.132-1.171,2.255-2.331,3.367-3.481,1.086-1.176,2.271-2.233,3.421-3.305,1.166-1.054,2.262-2.165,3.454-3.146,2.375-1.973,4.657-3.969,7.075-5.705,1.198-.881,2.342-1.81,3.55-2.627,1.207-.818,2.402-1.627,3.586-2.428,9.514-6.358,19.078-10.879,28.024-14.268,8.972-3.377,17.362-5.604,24.909-7.178,15.133-3.076,26.842-3.637,34.621-3.885,1.949-.038,3.657-.071,5.122-.099,1.466.013,2.689.024,3.669.033,1.959.017,2.943.026,2.943.026" fill="none" stroke="#231f20" stroke-miterlimit="10" stroke-width=".25"/>
      <path d="m475.427,168.217c14.844,2.943,28.542,6.933,41.214,11.041,12.694,4.069,24.25,8.68,34.891,13.035,21.207,8.94,38.507,17.596,52.305,24.718,13.796,7.132,24.057,12.845,30.939,16.614,6.861,3.821,10.321,5.748,10.321,5.748" fill="none" stroke="#231f20" stroke-miterlimit="10" stroke-width=".25"/>
      <path d="m475.925,165.786c14.954,2.965,28.742,6.981,41.49,11.114,12.771,4.095,24.385,8.728,35.076,13.104,21.303,8.98,38.657,17.664,52.489,24.804,13.832,7.15,24.105,12.871,30.998,16.646,6.868,3.825,10.332,5.754,10.332,5.754" fill="none" stroke="#231f20" stroke-miterlimit="10" stroke-width=".25"/>
    </g>
    <g>
      <path d="m327.846,179.041c6.628-4.059,13.366-7.498,20.136-10.241,6.757-2.755,13.442-5.064,20.046-6.763,6.589-1.741,13.033-3.109,19.303-4.025,3.125-.534,6.218-.842,9.243-1.213,1.513-.183,3.02-.271,4.507-.409,1.489-.113,2.96-.283,4.423-.336,11.69-.703,22.458-.465,32.213.234,9.755.721,18.519,1.833,26.247,3.193,3.862.693,7.505,1.256,10.876,1.94,3.363.727,6.489,1.403,9.377,2.028,2.899.581,5.514,1.302,7.905,1.909,2.39.614,4.543,1.167,6.459,1.66,1.923.466,3.577.984,5.003,1.402,1.425.422,2.614.773,3.566,1.055,1.904.563,2.86.846,2.86.846" fill="none" stroke="#231f20" stroke-miterlimit="10" stroke-width=".25"/>
      <path d="m326.552,176.923c6.742-4.129,13.596-7.625,20.482-10.417,6.869-2.801,13.654-5.142,20.353-6.867,6.683-1.766,13.217-3.152,19.567-4.08,3.166-.54,6.296-.853,9.359-1.228,1.532-.185,3.056-.275,4.561-.414,1.507-.114,2.996-.285,4.475-.339,11.824-.712,22.701-.47,32.547.236,9.845.728,18.686,1.85,26.472,3.22,3.891.698,7.561,1.266,10.957,1.955,3.386.732,6.535,1.413,9.444,2.042,2.92.585,5.552,1.311,7.959,1.922,2.406.618,4.573,1.175,6.502,1.671,1.937.47,3.6.99,5.035,1.411,1.434.424,2.631.778,3.589,1.061,1.916.567,2.878.852,2.878.852" fill="none" stroke="#231f20" stroke-miterlimit="10" stroke-width=".25"/>
      <path d="m558.587,188.229c14.145,6.053,27.195,12.272,39.234,18.387,6.055,2.993,11.791,6.084,17.373,8.966,5.523,2.986,10.878,5.796,15.955,8.613,20.368,11.169,37.227,20.849,50.809,28.518,13.565,7.702,23.843,13.409,30.722,17.214,6.901,3.76,10.381,5.655,10.381,5.655" fill="none" stroke="#231f20" stroke-miterlimit="10" stroke-width=".25"/>
      <path d="m559.564,185.948c14.206,6.079,27.302,12.321,39.375,18.452,6.074,3.002,11.821,6.099,17.416,8.989,5.533,2.991,10.901,5.808,15.984,8.629,20.399,11.186,37.263,20.869,50.841,28.536,13.562,7.7,23.826,13.4,30.696,17.2,6.889,3.753,10.364,5.646,10.364,5.646" fill="none" stroke="#231f20" stroke-miterlimit="10" stroke-width=".25"/>
    </g>
  </g>
  <g>
    <g>
      <path d="m-4.769,259.201c32.667-20.61,55.675-38.912,70.61-51.659,1.871-1.592,3.682-3.021,5.274-4.473,1.606-1.436,3.099-2.77,4.479-4.004,2.759-2.467,5.065-4.528,6.912-6.179,1.865-1.633,3.208-2.926,4.103-3.79.9-.86,1.352-1.291,1.352-1.291" fill="none" stroke="#231f20" stroke-miterlimit="10" stroke-width=".25"/>
      <path d="m-6.087,257.099c32.537-20.528,55.45-38.754,70.323-51.449,1.863-1.585,3.667-3.008,5.253-4.455,1.599-1.43,3.086-2.759,4.46-3.987,2.748-2.456,5.043-4.509,6.883-6.153,1.857-1.626,3.194-2.913,4.086-3.774.896-.856,1.346-1.286,1.346-1.286" fill="none" stroke="#231f20" stroke-miterlimit="10" stroke-width=".25"/>
    </g>
    <g>
      <path d="m-91.953,297.703c35.049-15.25,60.334-29.621,76.886-39.788,1.044-.622,2.056-1.225,3.035-1.808.961-.614,1.891-1.208,2.788-1.781,1.796-1.148,3.465-2.215,5.007-3.2,3.085-1.972,5.662-3.619,7.728-4.939,2.055-1.336,3.553-2.413,4.576-3.097,1.016-.695,1.526-1.044,1.526-1.044" fill="none" stroke="#231f20" stroke-miterlimit="10" stroke-width=".25"/>
      <path d="m-92.94,295.426c34.911-15.19,60.096-29.503,76.581-39.63,1.04-.619,2.047-1.22,3.023-1.801.957-.612,1.883-1.203,2.777-1.774,1.788-1.143,3.451-2.206,4.987-3.188,3.072-1.963,5.639-3.604,7.697-4.919,2.047-1.331,3.538-2.403,4.557-3.085,1.012-.693,1.52-1.04,1.52-1.04" fill="none" stroke="#231f20" stroke-miterlimit="10" stroke-width=".25"/>
      <path d="m35.754,223.394c30.356-23.222,51.359-43.331,64.943-57.205,1.699-1.736,3.295-3.366,4.785-4.888.745-.761,1.464-1.496,2.157-2.203.669-.73,1.312-1.433,1.93-2.108,2.47-2.701,4.533-4.958,6.187-6.766,3.308-3.617,4.976-5.441,4.976-5.441" fill="none" stroke="#231f20" stroke-miterlimit="10" stroke-width=".25"/>
      <path d="m34.256,221.416c30.23-23.127,51.143-43.149,64.668-56.963,1.692-1.729,3.28-3.351,4.764-4.867.742-.758,1.458-1.489,2.148-2.194.666-.727,1.306-1.427,1.921-2.099,2.459-2.689,4.514-4.936,6.16-6.737,3.293-3.601,4.954-5.417,4.954-5.417" fill="none" stroke="#231f20" stroke-miterlimit="10" stroke-width=".25"/>
    </g>
  </g>
  <g>
    <g>
      <path d="m-16.061,305.125c3.781-1.056,7.505-2.097,11.172-3.121,1.828-.531,3.666-.98,5.444-1.568,1.777-.591,3.541-1.177,5.29-1.758,3.491-1.184,6.957-2.262,10.308-3.481,3.328-1.281,6.6-2.54,9.817-3.778,1.605-.627,3.21-1.215,4.775-1.86,1.551-.677,3.089-1.348,4.612-2.013,3.047-1.33,6.04-2.637,8.977-3.92,2.914-1.331,5.715-2.76,8.495-4.094,2.761-1.371,5.513-2.631,8.129-4.019,21.026-10.941,37.775-21.632,50.805-30.727,3.314-2.2,6.313-4.415,9.13-6.465,2.818-2.049,5.438-3.953,7.859-5.713,4.738-3.652,8.696-6.703,11.868-9.149,3.15-2.472,5.453-4.411,7.022-5.668,1.559-1.269,2.342-1.906,2.342-1.906" fill="none" stroke="#231f20" stroke-miterlimit="10" stroke-width=".25"/>
      <path d="m-16.669,302.72c3.753-1.049,7.449-2.081,11.088-3.098,1.814-.527,3.638-.972,5.403-1.556,1.765-.587,3.515-1.169,5.252-1.746,3.466-1.175,6.907-2.245,10.234-3.456,3.305-1.272,6.554-2.523,9.749-3.752,1.594-.623,3.188-1.206,4.742-1.847,1.541-.672,3.068-1.339,4.582-2,3.027-1.322,6-2.619,8.919-3.893,2.896-1.322,5.679-2.743,8.442-4.069,2.744-1.362,5.479-2.614,8.079-3.994,20.9-10.875,37.563-21.51,50.532-30.564,3.297-2.189,6.284-4.395,9.089-6.435,2.806-2.039,5.414-3.935,7.824-5.687,4.718-3.637,8.66-6.676,11.819-9.111,3.137-2.462,5.432-4.395,6.995-5.646,1.553-1.264,2.333-1.898,2.333-1.898" fill="none" stroke="#231f20" stroke-miterlimit="10" stroke-width=".25"/>
      <path d="m189.282,181.195c11.277-10.738,21.676-21.019,31.157-30.85,9.54-9.78,18.213-19.061,26.22-27.654,15.966-17.227,29.094-31.843,39.685-43.514,21.134-23.385,32.036-35.089,32.036-35.089" fill="none" stroke="#231f20" stroke-miterlimit="10" stroke-width=".25"/>
      <path d="m187.577,179.392c11.244-10.707,21.618-20.962,31.082-30.776,9.521-9.761,18.182-19.03,26.18-27.612,15.949-17.207,29.073-31.82,39.665-43.492,21.137-23.388,32.055-35.11,32.055-35.11" fill="none" stroke="#231f20" stroke-miterlimit="10" stroke-width=".25"/>
      <path d="m359.662,1.073c43.854-43.394,81.023-72.036,106.566-90.185,3.185-2.285,6.141-4.477,8.962-6.441,2.856-1.913,5.511-3.692,7.964-5.336,4.906-3.287,9.005-6.034,12.291-8.235,1.644-1.098,3.085-2.06,4.32-2.885,1.263-.783,2.317-1.436,3.161-1.959,1.688-1.046,2.535-1.571,2.535-1.571" fill="none" stroke="#231f20" stroke-miterlimit="10" stroke-width=".25"/>
    </g>
    <g>
      <path d="m62.328,267.378c13.676-7.122,25.953-14.865,37.326-22.232,2.802-1.908,5.555-3.783,8.26-5.625,1.351-.923,2.69-1.838,4.016-2.745,1.3-.945,2.589-1.881,3.865-2.808,2.553-1.855,5.058-3.675,7.516-5.461,2.468-1.771,4.783-3.651,7.109-5.415,18.52-14.243,33.232-27.195,44.869-37.763,11.552-10.669,20.051-18.949,25.674-24.548,5.61-5.613,8.44-8.443,8.44-8.443" fill="none" stroke="#231f20" stroke-miterlimit="10" stroke-width=".25"/>
      <path d="m61.164,265.187c13.593-7.078,25.805-14.781,37.12-22.11,2.788-1.899,5.528-3.765,8.22-5.598,1.344-.919,2.677-1.829,3.997-2.731,1.294-.941,2.577-1.873,3.847-2.796,2.541-1.846,5.035-3.659,7.482-5.436,2.457-1.762,4.763-3.635,7.079-5.392,18.443-14.183,33.105-27.091,44.704-37.625,11.516-10.637,19.992-18.893,25.602-24.479,5.598-5.6,8.421-8.424,8.421-8.424" fill="none" stroke="#231f20" stroke-miterlimit="10" stroke-width=".25"/>
      <path d="m245.253,114.61c20.982-22.758,39.124-43.085,54.956-60.388,15.813-17.32,29.264-31.661,40.261-42.989,2.741-2.84,5.363-5.459,7.786-7.931,2.434-2.462,4.673-4.773,6.807-6.846,4.246-4.167,7.757-7.684,10.633-10.441,5.768-5.497,8.677-8.269,8.677-8.269" fill="none" stroke="#231f20" stroke-miterlimit="10" stroke-width=".25"/>
      <path d="m243.43,112.926c20.961-22.735,39.104-43.063,54.947-60.378,15.824-17.332,29.294-31.694,40.312-43.043,2.746-2.845,5.374-5.47,7.802-7.947,2.439-2.467,4.682-4.782,6.821-6.861,4.256-4.177,7.775-7.703,10.659-10.466,5.784-5.512,8.701-8.292,8.701-8.292" fill="none" stroke="#231f20" stroke-miterlimit="10" stroke-width=".25"/>
    </g>
  </g>
  <g>
    <line x1="335.569" y1="598.086" x2="488.755" y2="289.203" fill="none" stroke="#231f20" stroke-miterlimit="10" stroke-width=".25"/>
    <line x1="429.125" y1="406.827" x2="431.308" y2="407.91" fill="none" stroke="#231f20" stroke-miterlimit="10" stroke-width=".25"/>
    <line x1="449.439" y1="365.866" x2="451.622" y2="366.949" fill="none" stroke="#231f20" stroke-miterlimit="10" stroke-width=".25"/>
    <line x1="468.394" y1="327.647" x2="470.576" y2="328.729" fill="none" stroke="#231f20" stroke-miterlimit="10" stroke-width=".25"/>
    <line x1="486.825" y1="289.18" x2="489.941" y2="290.725" fill="none" stroke="#231f20" stroke-miterlimit="10" stroke-width=".25"/>
  </g>
  <line x1="503.658" y1="839.42" x2="978.086" y2="409.053" fill="none" stroke="#231f20" stroke-miterlimit="10" stroke-width=".375"/>
  <polyline points="173.589 466.942 165.523 465.436 167.944 452.474 176.01 453.981 178.368 441.358 170.302 439.851 172.711 426.957 180.777 428.464 183.488 413.95 175.422 412.443 185.321 359.451 193.387 360.958 203.274 308.033 195.208 306.526 205.095 253.601 211.895 254.872" fill="none" stroke="#231f20" stroke-miterlimit="10" stroke-width=".696"/>
  <g>
    <g>
      <path d="m-85.887,185.521c15.463-13.269,28.899-27.002,40.495-40.658,1.437-1.719,2.861-3.423,4.272-5.112.706-.845,1.408-1.686,2.108-2.523.692-.843,1.329-1.725,1.991-2.579,2.622-3.44,5.197-6.819,7.724-10.135,2.383-3.453,4.722-6.841,7.016-10.165,2.215-3.357,4.281-6.706,6.276-10.011,1.991-3.307,3.881-6.583,5.68-9.826,1.805-3.218,3.492-6.518,5.106-9.586,3.249-6.174,6.354-12.074,9.314-17.699,1.482-2.811,2.928-5.554,4.337-8.228,1.46-2.645,2.883-5.222,4.268-7.73,2.77-5.017,5.389-9.76,7.856-14.229,1.216-2.245,2.461-4.382,3.666-6.451,1.201-2.071,2.363-4.075,3.485-6.01,2.244-3.871,4.331-7.469,6.259-10.794,3.919-6.61,7.317-12.055,9.977-16.458,1.342-2.194,2.517-4.116,3.525-5.765,1.043-1.626,1.914-2.982,2.61-4.069,1.394-2.172,2.094-3.263,2.094-3.263" fill="none" stroke="#231f20" stroke-miterlimit="10" stroke-width=".25"/>
      <path d="m-87.502,183.637c15.361-13.181,28.704-26.82,40.218-40.379,1.426-1.707,2.84-3.399,4.242-5.076.701-.839,1.398-1.674,2.093-2.505.687-.837,1.319-1.713,1.977-2.561,2.603-3.416,5.16-6.77,7.67-10.063,2.358-3.417,4.672-6.77,6.942-10.059,2.197-3.33,4.249-6.655,6.229-9.935,3.953-6.551,7.505-13.034,10.707-19.27,3.254-6.183,6.364-12.092,9.329-17.726,1.484-2.816,2.932-5.563,4.344-8.24,1.463-2.65,2.888-5.231,4.276-7.744,2.775-5.026,5.398-9.778,7.87-14.255,1.218-2.249,2.465-4.39,3.673-6.464,1.203-2.076,2.367-4.083,3.492-6.023,2.249-3.879,4.34-7.485,6.271-10.817,3.927-6.625,7.334-12.083,10-16.497,1.345-2.199,2.523-4.126,3.534-5.779,1.046-1.63,1.919-2.991,2.618-4.08,1.398-2.178,2.099-3.272,2.099-3.272" fill="none" stroke="#231f20" stroke-miterlimit="10" stroke-width=".25"/>
      <path d="m322.917-45.962c-.523,9.588-2.515,18.807-5.512,27.355-2.992,8.56-7.07,16.418-11.749,23.487-4.717,7.051-10.099,13.291-15.907,18.586-5.822,5.265-12.045,9.669-18.448,13.205-12.779,7.151-25.899,11.18-37.971,13.136-12.102,1.946-23.264,1.638-32.727-.239-9.496-1.845-17.188-5.456-22.821-9.614-5.68-4.15-9.191-8.895-11.645-12.963-.651-.991-1.128-2.007-1.622-2.924-.51-.91-.9-1.799-1.257-2.622-.771-1.621-1.25-3.041-1.668-4.164-.447-1.114-.641-1.996-.826-2.567-.17-.575-.255-.864-.255-.864" fill="none" stroke="#231f20" stroke-miterlimit="10" stroke-width=".25"/>
      <path d="m325.395-45.829c-.537,9.846-2.581,19.294-5.649,28.046-3.065,8.765-7.236,16.804-12.025,24.04-4.828,7.217-10.34,13.608-16.299,19.042-5.977,5.407-12.362,9.921-18.909,13.538-13.072,7.313-26.451,11.421-38.793,13.422-12.371,1.988-23.818,1.683-33.602-.256-9.812-1.906-17.866-5.662-23.81-10.051-5.998-4.382-9.739-9.431-12.3-13.684-.682-1.042-1.182-2.102-1.699-3.063-.532-.954-.941-1.883-1.315-2.743-.804-1.696-1.308-3.179-1.744-4.354-.465-1.165-.671-2.087-.864-2.684-.178-.602-.267-.903-.267-.903" fill="none" stroke="#231f20" stroke-miterlimit="10" stroke-width=".25"/>
    </g>
    <g>
      <path d="m-18.335,95.442c2.505-4.339,4.814-8.654,7.05-12.986,2.276-4.324,4.516-8.582,6.721-12.771,2.205-4.19,4.374-8.312,6.508-12.366,2.17-4.035,4.38-7.963,6.511-11.846,4.283-7.754,8.369-15.268,12.57-22.365,4.164-7.117,8.037-14.047,12.077-20.522,15.75-26.141,30.081-47.367,42.34-63.87,12.249-16.515,22.427-28.292,29.619-35.835,1.797-1.887,3.381-3.533,4.81-4.889.703-.687,1.349-1.316,1.936-1.889.609-.557,1.157-1.058,1.644-1.504.964-.896,1.721-1.554,2.242-1.984.512-.435.769-.652.769-.652" fill="none" stroke="#231f20" stroke-miterlimit="10" stroke-width=".25"/>
      <path d="m-20.486,94.205c2.491-4.316,4.763-8.561,6.996-12.887,2.279-4.331,4.523-8.595,6.731-12.791,2.208-4.196,4.381-8.324,6.518-12.385,2.174-4.042,4.388-7.977,6.522-11.867,4.291-7.768,8.383-15.294,12.594-22.407,4.172-7.132,8.053-14.074,12.103-20.566,15.786-26.201,30.161-47.493,42.473-64.068,12.303-16.586,22.544-28.443,29.816-36.068,1.817-1.908,3.419-3.572,4.872-4.952.714-.697,1.37-1.336,1.966-1.918.622-.569,1.182-1.082,1.681-1.538.5-.455.938-.853,1.313-1.195.399-.339.731-.621.997-.848.532-.452.799-.678.799-.678" fill="none" stroke="#231f20" stroke-miterlimit="10" stroke-width=".25"/>
      <path d="m268.659,45.412c-9.211,4.47-18.674,7.676-28.082,9.667-4.699,1.021-9.388,1.734-14.032,2.127-4.641.393-9.235.568-13.749.342-4.512-.21-8.939-.715-13.241-1.536-4.297-.852-8.454-2.058-12.413-3.593-3.966-1.518-7.707-3.454-11.124-5.749-3.407-2.299-6.57-4.882-9.221-7.853-2.664-2.951-4.915-6.128-6.816-9.4-.465-.823-.885-1.665-1.325-2.49-.215-.415-.44-.824-.644-1.242l-.566-1.27c-.368-.848-.766-1.678-1.103-2.528-.317-.858-.631-1.711-.944-2.559-.335-.841-.572-1.71-.827-2.567-.245-.86-.525-1.706-.734-2.565-.358-1.734-.839-3.422-1.041-5.146-.128-.857-.255-1.708-.382-2.555-.067-.855-.133-1.704-.199-2.549-.183-1.686-.108-3.368-.119-5.024.109-6.634,1.654-12.92,4.12-18.398,2.474-5.491,5.891-10.146,9.653-13.928,3.795-3.768,7.948-6.624,12.01-8.884,1.032-.538,2.046-1.067,3.042-1.586,1.032-.439,2.045-.87,3.039-1.294.5-.203.984-.438,1.485-.608.502-.168.999-.335,1.491-.5.985-.327,1.951-.648,2.898-.962,7.688-2.17,14.394-2.601,19.704-2.547,5.317.214,9.29.766,11.901,1.302,2.611.551,3.922.827,3.922.827" fill="none" stroke="#231f20" stroke-miterlimit="10" stroke-width=".25"/>
      <path d="m269.747,47.642c-9.404,4.564-19.051,7.831-28.652,9.863-4.795,1.041-9.583,1.769-14.33,2.172-4.745.402-9.446.58-14.076.349-4.628-.215-9.179-.733-13.612-1.58-4.43-.878-8.73-2.123-12.84-3.717-4.115-1.577-8.017-3.592-11.594-5.993-3.567-2.405-6.886-5.119-9.678-8.245-2.802-3.104-5.156-6.428-7.137-9.839-.485-.858-.923-1.734-1.381-2.594-.224-.433-.458-.859-.67-1.294l-.59-1.322c-.384-.882-.797-1.747-1.147-2.632-.329-.893-.657-1.78-.983-2.663-.348-.875-.595-1.779-.861-2.672-.255-.896-.545-1.776-.763-2.671-.376-1.806-.872-3.564-1.086-5.363-.133-.894-.265-1.782-.397-2.665-.07-.893-.14-1.781-.209-2.663-.188-1.761-.115-3.523-.124-5.256.116-6.947,1.736-13.573,4.338-19.351,2.609-5.794,6.214-10.698,10.164-14.667,3.985-3.957,8.329-6.944,12.57-9.303,1.077-.561,2.135-1.112,3.174-1.654,1.075-.458,2.13-.908,3.166-1.349.521-.211,1.026-.455,1.547-.633.522-.175,1.039-.349,1.551-.521,1.025-.34,2.031-.673,3.015-1,7.992-2.257,14.945-2.702,20.447-2.645,5.507.218,9.618.793,12.319,1.346,2.699.57,4.055.857,4.055.857" fill="none" stroke="#231f20" stroke-miterlimit="10" stroke-width=".25"/>
    </g>
  </g>
  <g>
    <g>
      <path d="m439.965,106.219c19.317-.039,33.982-.207,43.82-.425,4.919-.114,8.63-.2,11.111-.257,2.481-.07,3.733-.106,3.733-.106" fill="none" stroke="#231f20" stroke-miterlimit="10" stroke-width=".25"/>
      <path d="m439.965,103.737c19.299-.039,33.947-.206,43.769-.424,4.911-.114,8.616-.199,11.093-.257,2.477-.07,3.726-.106,3.726-.106" fill="none" stroke="#231f20" stroke-miterlimit="10" stroke-width=".25"/>
      <path d="m514.899,104.835c19.347-.803,34.037-2.096,43.881-3.056,4.921-.553,8.635-.937,11.115-1.251,2.479-.343,3.73-.516,3.73-.516" fill="none" stroke="#231f20" stroke-miterlimit="10" stroke-width=".25"/>
      <path d="m514.79,102.356c19.304-.801,33.937-2.09,43.737-3.046,4.896-.551,8.592-.932,11.058-1.245,2.464-.341,3.706-.513,3.706-.513" fill="none" stroke="#231f20" stroke-miterlimit="10" stroke-width=".25"/>
      <path d="m592.25,97.02c4.804-1.006,9.326-1.887,13.515-3.029,4.213-.981,8.072-2.246,11.657-3.329,1.796-.528,3.474-1.23,5.104-1.797,1.617-.619,3.194-1.103,4.64-1.761,1.453-.631,2.835-1.231,4.146-1.8.655-.285,1.292-.563,1.911-.832.605-.308,1.192-.606,1.762-.896,1.138-.585,2.205-1.135,3.203-1.648,1.001-.51,1.93-.987,2.73-1.477,1.633-.952,2.998-1.748,4.092-2.386,1.102-.626,1.896-1.148,2.434-1.484.537-.339.806-.509.806-.509" fill="none" stroke="#231f20" stroke-miterlimit="10" stroke-width=".25"/>
      <path d="m591.779,94.584c4.757-.997,9.239-1.869,13.372-2.998,4.167-.97,7.966-2.217,11.5-3.283,1.771-.52,3.415-1.21,5.019-1.768,1.588-.608,3.143-1.083,4.557-1.729,1.424-.619,2.778-1.207,4.062-1.765.642-.279,1.267-.551,1.874-.815.591-.301,1.165-.593,1.722-.877,1.112-.572,2.155-1.109,3.13-1.61.978-.498,1.886-.962,2.679-1.449,1.613-.941,2.96-1.726,4.04-2.356,1.088-.617,1.873-1.134,2.405-1.467.531-.335.797-.503.797-.503" fill="none" stroke="#231f20" stroke-miterlimit="10" stroke-width=".25"/>
    </g>
    <g>
      <path d="m466.907,99.536c19.266-.175,33.869-.694,43.659-1.051,4.896-.164,8.581-.407,11.048-.512,2.466-.123,3.71-.185,3.71-.185" fill="none" stroke="#231f20" stroke-miterlimit="10" stroke-width=".25"/>
      <path d="m466.878,97.055c19.244-.175,33.818-.693,43.588-1.05,4.886-.164,8.56-.406,11.022-.511,2.46-.123,3.701-.185,3.701-.185" fill="none" stroke="#231f20" stroke-miterlimit="10" stroke-width=".25"/>
      <path d="m541.47,96.762c19.181-1.405,33.628-3.368,43.231-5.028,2.399-.426,4.518-.735,6.311-1.115,1.794-.375,3.293-.688,4.495-.939,2.403-.502,3.615-.754,3.615-.754" fill="none" stroke="#231f20" stroke-miterlimit="10" stroke-width=".25"/>
      <path d="m541.285,94.287c19.115-1.4,33.474-3.353,42.998-4.999,2.379-.423,4.484-.729,6.259-1.105,1.776-.371,3.26-.681,4.45-.93,2.379-.496,3.578-.747,3.578-.747" fill="none" stroke="#231f20" stroke-miterlimit="10" stroke-width=".25"/>
      <path d="m616.852,83.997c2.232-.814,4.396-1.604,6.493-2.369,2.065-.835,4.024-1.732,5.94-2.55.475-.212.957-.402,1.415-.627.454-.234.904-.465,1.349-.695.892-.459,1.767-.909,2.627-1.352.855-.455,1.714-.847,2.521-1.33.811-.473,1.606-.937,2.386-1.392,3.145-1.773,5.92-3.6,8.482-5.204,2.529-1.657,4.77-3.218,6.782-4.582,1.965-1.432,3.688-2.688,5.168-3.767,1.476-1.084,2.659-2.056,3.633-2.801,1.933-1.509,2.908-2.271,2.908-2.271" fill="none" stroke="#231f20" stroke-miterlimit="10" stroke-width=".25"/>
      <path d="m616.059,81.646c2.191-.8,4.317-1.575,6.376-2.327,2.024-.819,3.939-1.697,5.816-2.497.465-.207.937-.393,1.385-.613.443-.228.881-.455,1.316-.679.87-.448,1.725-.888,2.563-1.319.837-.445,1.667-.822,2.467-1.3.801-.467,1.586-.925,2.355-1.374,3.103-1.749,5.846-3.556,8.378-5.14,2.5-1.638,4.715-3.182,6.704-4.529,1.943-1.416,3.647-2.658,5.111-3.725,1.46-1.071,2.629-2.034,3.593-2.77,1.912-1.493,2.876-2.245,2.876-2.245" fill="none" stroke="#231f20" stroke-miterlimit="10" stroke-width=".25"/>
    </g>
  </g>
  <g>
    <g>
      <path d="m569.598-41.005c-.095,9.835,2.225,18.572,5.769,25.315.401.864.932,1.641,1.38,2.438.233.394.464.783.693,1.169.241.381.517.743.771,1.109.521.724,1.031,1.433,1.529,2.125.553.644,1.094,1.272,1.622,1.886.266.305.528.607.787.904.281.275.559.546.833.814.551.533,1.087,1.053,1.609,1.559,1.089.958,2.169,1.804,3.171,2.616,4.137,3.105,7.753,4.648,10.132,5.672,1.223.449,2.143.787,2.757,1.012.62.208.944.28.944.28" fill="none" stroke="#231f20" stroke-miterlimit="10" stroke-width=".25"/>
      <path d="m572.079-40.984c-.09,9.444,2.132,17.759,5.488,24.147.378.82.884,1.553,1.307,2.309.221.373.439.742.655,1.107.228.359.487.697.726,1.04.488.68.966,1.344,1.433,1.994.521.605,1.03,1.195,1.526,1.772.249.287.496.571.739.852.265.258.527.514.786.765.519.503,1.024.993,1.516,1.47,1.027.902,2.048,1.7,2.992,2.469,3.907,2.934,7.328,4.389,9.573,5.358,1.154.424,2.022.743,2.601.956.585.197.89.263.89.263" fill="none" stroke="#231f20" stroke-miterlimit="10" stroke-width=".25"/>
    </g>
    <path d="m581.818-17.482c4.243,7.564,10.603,12.414,16.512,15.149,1.463.747,2.96,1.229,4.366,1.759.716.224,1.43.397,2.119.593.346.095.687.189,1.025.282.344.063.683.125,1.019.186.671.122,1.325.241,1.964.357.642.077,1.271.115,1.882.174,1.221.159,2.377.099,3.466.096,4.366-.123,7.504-1.163,9.541-1.89.999-.423,1.724-.805,2.222-1.026.494-.232.742-.348.742-.348" fill="none" stroke="#231f20" stroke-miterlimit="10" stroke-width=".25"/>
  </g>
  <g>
    <g>
      <path d="m657.403,16.434c-3.018-.622-5.215-1.914-6.684-3.344-1.507-1.466-2.725-3.405-3.845-5.043-1.112-1.661-2.14-3.045-2.907-3.94-.813-.948-1.298-1.392-1.298-1.392" fill="none" stroke="#231f20" stroke-miterlimit="10" stroke-width=".25"/>
      <path d="m656.895,18.863c-3.431-.702-6.101-2.231-7.902-3.99-1.818-1.785-3.059-3.821-4.174-5.436-1.098-1.639-2.047-2.91-2.744-3.724-.719-.837-1.138-1.222-1.138-1.222" fill="none" stroke="#231f20" stroke-miterlimit="10" stroke-width=".25"/>
    </g>
    <g>
      <path d="m645.696,17.284c-1.48-1.547-2.551-3.13-3.514-4.537-.957-1.415-1.793-2.677-2.627-3.734-1.598-2.091-3.332-3.318-4.794-3.957-1.465-.626-2.554-.627-3.225-.547-.673.11-.982.27-.988.25" fill="none" stroke="#231f20" stroke-miterlimit="10" stroke-width=".25"/>
      <path d="m643.906,19.002c-1.665-1.744-2.798-3.434-3.777-4.863-.972-1.439-1.772-2.642-2.526-3.596-.187-.247-.372-.458-.55-.678-.172-.184-.318-.368-.49-.531-.326-.339-.666-.635-.992-.896-.656-.524-1.279-.883-1.797-1.107-1.053-.436-1.597-.385-1.904-.364-.301.055-.435.126-.441.111" fill="none" stroke="#231f20" stroke-miterlimit="10" stroke-width=".25"/>
    </g>
  </g>
  <g>
    <rect x="-1692.473" y="37.712" width="3386.58" height="2514.089" transform="translate(-1293.939 1295.574) rotate(-90)" fill="none" stroke="#231f20" stroke-linecap="round" stroke-miterlimit="10" stroke-width="7"/>
    <rect x="-1675.506" y="54.834" width="3353.392" height="2482.402" transform="translate(-1294.845 1297.225) rotate(-90)" fill="none" stroke="#231f20" stroke-linecap="round" stroke-miterlimit="10" stroke-width="3"/>
    <rect x="-1637.031" y="90.452" width="3275.615" height="2412.095" transform="translate(-1295.722 1297.276) rotate(-90)" fill="none" stroke="#231f20" stroke-linecap="round" stroke-miterlimit="10"/>
    <rect x="-1619.163" y="107.815" width="3239.88" height="2376.261" transform="translate(-1295.169 1296.723) rotate(-90)" fill="none" stroke="#231f20" stroke-linecap="round" stroke-miterlimit="10"/>
  </g>
  <g>
    <g>
      <path d="m104.253,7.031c-3.89,3.338-6.644,6.93-8.628,10.18-1.985,3.262-3.252,6.195-4.086,8.59-.455,1.189-.756,2.258-1.021,3.174-.284.912-.462,1.688-.6,2.31-.142.621-.249,1.089-.321,1.401-.075.311-.099.47-.099.47" fill="none" stroke="#231f20" stroke-miterlimit="10" stroke-width=".25"/>
      <path d="m105.856,8.925c-3.645,3.13-6.239,6.508-8.112,9.578-1.875,3.08-3.078,5.86-3.869,8.135-.433,1.128-.718,2.145-.97,3.017-.271.867-.44,1.605-.571,2.198-.136.592-.238,1.037-.306,1.334-.072.296-.095.448-.095.448" fill="none" stroke="#231f20" stroke-miterlimit="10" stroke-width=".25"/>
      <path d="m88.547,41.428c-.219,4.941.351,9.336,1.079,12.955.725,3.646,1.706,6.59,2.536,8.922.844,2.33,1.612,4.027,2.121,5.16.534,1.121.803,1.687.803,1.687" fill="none" stroke="#231f20" stroke-miterlimit="10" stroke-width=".25"/>
      <path d="m91.027,41.522c-.209,4.719.333,8.89,1.031,12.366.694,3.494,1.638,6.324,2.436,8.568.812,2.242,1.553,3.88,2.044,4.973.516,1.083.776,1.629.776,1.629" fill="none" stroke="#231f20" stroke-miterlimit="10" stroke-width=".25"/>
      <path d="m99.681,78.229c2.628,4.014,5.246,7.305,7.61,10.019,1.178,1.363,2.315,2.561,3.347,3.655,1.064,1.058,2.024,2.013,2.879,2.863,1.758,1.65,3.1,2.878,4.034,3.656.92.794,1.384,1.195,1.384,1.195" fill="none" stroke="#231f20" stroke-miterlimit="10" stroke-width=".25"/>
      <path d="m101.761,76.876c5.134,7.775,10.096,12.84,13.473,16.1,1.718,1.611,3.027,2.811,3.94,3.57.899.776,1.352,1.167,1.352,1.167" fill="none" stroke="#231f20" stroke-miterlimit="10" stroke-width=".25"/>
      <path d="m125.235,104.49c7.722,5.494,14.201,8.695,18.578,10.684,2.188,1.006,3.89,1.653,5.01,2.12,1.138.426,1.712.64,1.712.64" fill="none" stroke="#231f20" stroke-miterlimit="10" stroke-width=".25"/>
      <path d="m126.68,102.473c7.545,5.368,13.876,8.495,18.153,10.44,2.138.983,3.8,1.614,4.895,2.071,1.112.416,1.673.625,1.673.625" fill="none" stroke="#231f20" stroke-miterlimit="10" stroke-width=".25"/>
    </g>
    <g>
      <path d="m100.835,21.198c-2.19,3.718-3.496,7.341-4.328,10.513-.822,3.184-1.148,5.933-1.347,8.134-.161,2.21-.127,3.88-.125,4.997.064,1.114.097,1.676.097,1.676" fill="none" stroke="#231f20" stroke-miterlimit="10" stroke-width=".25"/>
      <path d="m102.977,22.451c-2.05,3.476-3.283,6.89-4.068,9.886-.777,3.008-1.084,5.612-1.274,7.697-.152,2.094-.119,3.676-.118,4.734.062,1.055.093,1.588.093,1.588" fill="none" stroke="#231f20" stroke-miterlimit="10" stroke-width=".25"/>
      <path d="m96.166,53.768c1.899,8.564,5.184,14.534,7.42,18.395.577.964,1.115,1.791,1.559,2.511.474.702.871,1.289,1.188,1.759.312.474.567.817.735,1.047.168.231.252.346.252.346" fill="none" stroke="#231f20" stroke-miterlimit="10" stroke-width=".25"/>
      <path d="m98.591,53.241c1.808,8.167,4.967,13.925,7.127,17.652.557.931,1.078,1.731,1.507,2.427.459.68.843,1.248,1.151,1.703.302.459.549.791.713,1.014.163.224.244.336.244.336" fill="none" stroke="#231f20" stroke-miterlimit="10" stroke-width=".25"/>
      <path d="m112.674,84.496c5.924,6.628,11.238,10.875,14.852,13.58,3.636,2.698,5.61,3.891,5.61,3.891" fill="none" stroke="#231f20" stroke-miterlimit="10" stroke-width=".25"/>
      <path d="m114.531,82.85c5.764,6.45,10.954,10.599,14.477,13.236,3.547,2.632,5.473,3.796,5.473,3.796" fill="none" stroke="#231f20" stroke-miterlimit="10" stroke-width=".25"/>
      <path d="m139.569,105.788c7.824,4.251,14.232,6.513,18.544,7.853,1.085.319,2.038.598,2.855.838.825.214,1.514.392,2.066.535,1.106.282,1.663.424,1.663.424" fill="none" stroke="#231f20" stroke-miterlimit="10" stroke-width=".25"/>
      <path d="m140.757,103.609c7.634,4.148,13.884,6.354,18.089,7.661,1.058.311,1.987.583,2.784.817.804.208,1.476.382,2.014.521,1.078.275,1.621.413,1.621.413" fill="none" stroke="#231f20" stroke-miterlimit="10" stroke-width=".25"/>
    </g>
  </g>
  <g>
    <path d="m566,430.734c.545.355.698,1.085.343,1.63-.355.545-1.085.699-1.63.343s-.699-1.085-.343-1.63c.355-.545,1.085-.699,1.63-.343Z" fill="#231f20" stroke-width="0"/>
    <path d="m568.609,426.734c.545.355.699,1.085.343,1.63-.355.545-1.085.699-1.63.343-.545-.355-.699-1.085-.343-1.63s1.085-.699,1.63-.343Z" fill="#231f20" stroke-width="0"/>
    <path d="m571.217,422.734c.545.355.699,1.085.343,1.63s-1.085.699-1.63.343c-.545-.355-.698-1.085-.343-1.63.355-.545,1.085-.699,1.63-.343Z" fill="#231f20" stroke-width="0"/>
    <path d="m573.826,418.734c.545.355.699,1.085.343,1.63-.355.545-1.085.699-1.63.343-.545-.355-.698-1.085-.343-1.63.355-.545,1.085-.699,1.63-.343Z" fill="#231f20" stroke-width="0"/>
    <path d="m576.434,414.734c.545.355.699,1.085.343,1.63-.355.545-1.085.699-1.63.343-.545-.355-.698-1.085-.343-1.63.355-.545,1.085-.699,1.63-.343Z" fill="#231f20" stroke-width="0"/>
    <path d="m579.043,410.734c.545.355.698,1.085.343,1.63-.355.545-1.085.699-1.63.343s-.698-1.085-.343-1.63c.355-.545,1.085-.699,1.63-.343Z" fill="#231f20" stroke-width="0"/>
    <path d="m581.651,406.734c.545.355.698,1.085.343,1.63-.355.545-1.085.699-1.63.343s-.699-1.085-.343-1.63c.355-.545,1.085-.699,1.63-.343Z" fill="#231f20" stroke-width="0"/>
    <path d="m584.26,402.735c.545.355.698,1.085.343,1.63-.355.545-1.085.699-1.63.343s-.699-1.085-.343-1.63c.355-.545,1.085-.699,1.63-.343Z" fill="#231f20" stroke-width="0"/>
    <path d="m586.868,398.735c.545.355.699,1.085.343,1.63-.355.545-1.085.699-1.63.343-.545-.355-.699-1.085-.343-1.63s1.085-.699,1.63-.343Z" fill="#231f20" stroke-width="0"/>
    <path d="m589.477,394.735c.545.355.699,1.085.343,1.63s-1.085.699-1.63.343c-.545-.355-.698-1.085-.343-1.63.355-.545,1.085-.699,1.63-.343Z" fill="#231f20" stroke-width="0"/>
    <path d="m592.085,390.735c.545.355.699,1.085.343,1.63-.355.545-1.085.699-1.63.343-.545-.355-.698-1.085-.343-1.63.355-.545,1.085-.699,1.63-.343Z" fill="#231f20" stroke-width="0"/>
    <path d="m594.694,386.735c.545.355.699,1.085.343,1.63-.355.545-1.085.699-1.63.343-.545-.355-.698-1.085-.343-1.63.355-.545,1.085-.699,1.63-.343Z" fill="#231f20" stroke-width="0"/>
    <path d="m597.302,382.735c.545.355.698,1.085.343,1.63-.355.545-1.085.699-1.63.343s-.698-1.085-.343-1.63c.355-.545,1.085-.699,1.63-.343Z" fill="#231f20" stroke-width="0"/>
    <path d="m599.911,378.735c.545.355.698,1.085.343,1.63-.355.545-1.085.699-1.63.343s-.699-1.085-.343-1.63c.355-.545,1.085-.699,1.63-.343Z" fill="#231f20" stroke-width="0"/>
    <path d="m602.519,374.735c.545.355.698,1.085.343,1.63-.355.545-1.085.699-1.63.343s-.699-1.085-.343-1.63c.355-.545,1.085-.699,1.63-.343Z" fill="#231f20" stroke-width="0"/>
    <path d="m605.128,370.736c.545.355.699,1.085.343,1.63-.355.545-1.085.699-1.63.343-.545-.355-.699-1.085-.343-1.63s1.085-.699,1.63-.343Z" fill="#231f20" stroke-width="0"/>
    <path d="m607.736,366.736c.545.355.699,1.085.343,1.63s-1.085.699-1.63.343c-.545-.355-.698-1.085-.343-1.63.355-.545,1.085-.699,1.63-.343Z" fill="#231f20" stroke-width="0"/>
    <path d="m610.345,362.736c.545.355.699,1.085.343,1.63-.355.545-1.085.699-1.63.343-.545-.355-.698-1.085-.343-1.63.355-.545,1.085-.699,1.63-.343Z" fill="#231f20" stroke-width="0"/>
    <path d="m612.953,358.736c.545.355.699,1.085.343,1.63-.355.545-1.085.699-1.63.343-.545-.355-.698-1.085-.343-1.63.355-.545,1.085-.699,1.63-.343Z" fill="#231f20" stroke-width="0"/>
    <path d="m615.562,354.736c.545.355.698,1.085.343,1.63-.355.545-1.085.699-1.63.343s-.698-1.085-.343-1.63c.355-.545,1.085-.699,1.63-.343Z" fill="#231f20" stroke-width="0"/>
    <path d="m618.17,350.736c.545.355.698,1.085.343,1.63-.355.545-1.085.699-1.63.343s-.699-1.085-.343-1.63c.355-.545,1.085-.699,1.63-.343Z" fill="#231f20" stroke-width="0"/>
    <path d="m620.779,346.736c.545.355.698,1.085.343,1.63-.355.545-1.085.699-1.63.343-.545-.355-.699-1.085-.343-1.63.355-.545,1.085-.699,1.63-.343Z" fill="#231f20" stroke-width="0"/>
    <path d="m623.387,342.737c.545.355.699,1.085.343,1.63-.355.545-1.085.699-1.63.343-.545-.355-.699-1.085-.343-1.63s1.085-.699,1.63-.343Z" fill="#231f20" stroke-width="0"/>
    <path d="m625.996,338.737c.545.355.699,1.085.343,1.63s-1.085.699-1.63.343c-.545-.355-.698-1.085-.343-1.63.355-.545,1.085-.699,1.63-.343Z" fill="#231f20" stroke-width="0"/>
    <path d="m628.604,334.737c.545.355.699,1.085.343,1.63-.355.545-1.085.699-1.63.343-.545-.355-.698-1.085-.343-1.63.355-.545,1.085-.699,1.63-.343Z" fill="#231f20" stroke-width="0"/>
    <path d="m631.213,330.737c.545.355.699,1.085.343,1.63-.355.545-1.085.699-1.63.343-.545-.355-.698-1.085-.343-1.63.355-.545,1.085-.699,1.63-.343Z" fill="#231f20" stroke-width="0"/>
    <path d="m633.821,326.737c.545.355.698,1.085.343,1.63-.355.545-1.085.699-1.63.343s-.698-1.085-.343-1.63c.355-.545,1.085-.699,1.63-.343Z" fill="#231f20" stroke-width="0"/>
    <path d="m636.43,322.737c.545.355.698,1.085.343,1.63-.355.545-1.085.699-1.63.343s-.699-1.085-.343-1.63c.355-.545,1.085-.699,1.63-.343Z" fill="#231f20" stroke-width="0"/>
    <path d="m639.038,318.737c.545.355.698,1.085.343,1.63-.355.545-1.085.699-1.63.343-.545-.355-.699-1.085-.343-1.63.355-.545,1.085-.699,1.63-.343Z" fill="#231f20" stroke-width="0"/>
    <path d="m641.647,314.738c.545.355.699,1.085.343,1.63-.355.545-1.085.699-1.63.343-.545-.355-.699-1.085-.343-1.63s1.085-.699,1.63-.343Z" fill="#231f20" stroke-width="0"/>
    <path d="m644.255,310.738c.545.355.699,1.085.343,1.63s-1.085.699-1.63.343c-.545-.355-.698-1.085-.343-1.63.355-.545,1.085-.699,1.63-.343Z" fill="#231f20" stroke-width="0"/>
    <path d="m646.864,306.738c.545.355.699,1.085.343,1.63-.355.545-1.085.699-1.63.343-.545-.355-.698-1.085-.343-1.63.355-.545,1.085-.699,1.63-.343Z" fill="#231f20" stroke-width="0"/>
    <path d="m649.472,302.738c.545.355.699,1.085.343,1.63-.355.545-1.085.699-1.63.343-.545-.355-.698-1.085-.343-1.63s1.085-.699,1.63-.343Z" fill="#231f20" stroke-width="0"/>
  </g>
  <g>
    <g>
      <line x1="290.807" y1="434.701" x2="293.384" y2="426.832" fill="none" stroke="#221f1f" stroke-miterlimit="10" stroke-width=".5"/>
      <line x1="294.479" y1="423.49" x2="297.057" y2="415.621" fill="none" stroke="#221f1f" stroke-miterlimit="10" stroke-width=".5"/>
      <line x1="298.267" y1="412.297" x2="300.845" y2="404.427" fill="none" stroke="#221f1f" stroke-miterlimit="10" stroke-width=".5"/>
      <line x1="301.94" y1="401.086" x2="304.518" y2="393.217" fill="none" stroke="#221f1f" stroke-miterlimit="10" stroke-width=".5"/>
    </g>
    <g>
      <g>
        <line x1="306.806" y1="387.701" x2="309.384" y2="379.832" fill="none" stroke="#221f1f" stroke-miterlimit="10" stroke-width=".5"/>
        <line x1="310.478" y1="376.49" x2="313.056" y2="368.62" fill="none" stroke="#221f1f" stroke-miterlimit="10" stroke-width=".5"/>
        <line x1="314.267" y1="365.297" x2="316.845" y2="357.427" fill="none" stroke="#221f1f" stroke-miterlimit="10" stroke-width=".5"/>
        <line x1="317.939" y1="354.086" x2="320.517" y2="346.216" fill="none" stroke="#221f1f" stroke-miterlimit="10" stroke-width=".5"/>
      </g>
      <g>
        <line x1="322.186" y1="342.42" x2="324.764" y2="334.551" fill="none" stroke="#221f1f" stroke-miterlimit="10" stroke-width=".5"/>
        <line x1="325.859" y1="331.209" x2="328.437" y2="323.34" fill="none" stroke="#221f1f" stroke-miterlimit="10" stroke-width=".5"/>
        <line x1="329.647" y1="320.016" x2="332.225" y2="312.147" fill="none" stroke="#221f1f" stroke-miterlimit="10" stroke-width=".5"/>
        <line x1="333.32" y1="308.805" x2="335.897" y2="300.936" fill="none" stroke="#221f1f" stroke-miterlimit="10" stroke-width=".5"/>
      </g>
    </g>
  </g>
  <g>
    <polyline points="63.36 314.743 68.259 315.048 60.219 443.936 55.32 443.631" fill="none" stroke="#231f20" stroke-miterlimit="10" stroke-width=".307"/>
    <line x1="63.62" y1="330.874" x2="67.257" y2="331.1" fill="none" stroke="#231f20" stroke-miterlimit="10" stroke-width=".307"/>
    <line x1="62.631" y1="346.732" x2="66.268" y2="346.959" fill="none" stroke="#231f20" stroke-miterlimit="10" stroke-width=".307"/>
    <line x1="61.637" y1="362.672" x2="65.274" y2="362.899" fill="none" stroke="#231f20" stroke-miterlimit="10" stroke-width=".307"/>
    <line x1="59.381" y1="378.533" x2="64.279" y2="378.839" fill="none" stroke="#231f20" stroke-miterlimit="10" stroke-width=".307"/>
    <line x1="59.653" y1="394.471" x2="63.29" y2="394.698" fill="none" stroke="#231f20" stroke-miterlimit="10" stroke-width=".307"/>
    <line x1="58.578" y1="411.705" x2="62.215" y2="411.932" fill="none" stroke="#231f20" stroke-miterlimit="10" stroke-width=".307"/>
    <line x1="57.589" y1="427.564" x2="61.226" y2="427.791" fill="none" stroke="#231f20" stroke-miterlimit="10" stroke-width=".307"/>
  </g>
</svg>