<?xml version="1.0" encoding="UTF-8"?>
<svg id="a" data-name="Layer 1" xmlns="http://www.w3.org/2000/svg" width="9.002in" height="6.002in" viewBox="0 0 648.177 432.177">
  <g>
    <g>
      <path d="m250.835,120.3c-9.789,1.708-18.596,2.044-26.12,1.566-7.532-.443-13.789-1.515-18.756-2.581-4.953-1.145-8.644-2.208-11.084-3.003-2.437-.806-3.665-1.213-3.665-1.213" fill="none" stroke="#231f20" stroke-miterlimit="10" stroke-width=".25"/>
      <path d="m251.283,122.741c-10.019,1.75-19.023,2.09-26.709,1.602-7.694-.453-14.081-1.547-19.148-2.635-5.054-1.167-8.818-2.252-11.305-3.062-2.484-.823-3.737-1.237-3.737-1.237" fill="none" stroke="#231f20" stroke-miterlimit="10" stroke-width=".25"/>
      <path d="m175.764,108.414c-8.931-4.532-16.221-9.549-22.113-14.287-5.902-4.739-10.401-9.223-13.833-12.962-.848-.945-1.644-1.832-2.387-2.661-.707-.859-1.365-1.658-1.972-2.396-1.24-1.457-2.173-2.753-2.946-3.772-.765-1.025-1.363-1.78-1.71-2.32-.363-.529-.545-.795-.545-.795" fill="none" stroke="#231f20" stroke-miterlimit="10" stroke-width=".25"/>
      <path d="m174.637,110.625c-9.102-4.62-16.533-9.732-22.541-14.564-6.018-4.832-10.608-9.407-14.112-13.224-.865-.965-1.677-1.871-2.436-2.717-.722-.877-1.394-1.693-2.014-2.446-1.265-1.488-2.22-2.811-3.009-3.853-.781-1.047-1.391-1.819-1.747-2.371-.371-.541-.557-.813-.557-.813" fill="none" stroke="#231f20" stroke-miterlimit="10" stroke-width=".25"/>
      <path d="m120.667,52.602c-2.102-4.505-3.705-8.896-5.054-13.052-1.262-4.184-2.286-8.129-2.98-11.834-1.444-7.401-1.935-13.728-2.124-18.801-.038-2.541-.1-4.769-.012-6.684.024-.957.046-1.836.066-2.635.051-.798.096-1.518.137-2.158.085-1.28.148-2.243.191-2.885.064-.641.096-.963.096-.963" fill="none" stroke="#231f20" stroke-miterlimit="10" stroke-width=".25"/>
      <path d="m118.417,53.648c-2.151-4.61-3.792-9.104-5.171-13.355-1.292-4.279-2.338-8.313-3.047-12.099-1.475-7.563-1.977-14.023-2.169-19.2-.04-2.593-.102-4.867-.013-6.82.025-.976.048-1.873.068-2.688.051-.814.098-1.548.139-2.201.087-1.305.152-2.287.195-2.943.065-.654.098-.982.098-.982" fill="none" stroke="#231f20" stroke-miterlimit="10" stroke-width=".25"/>
    </g>
    <g>
      <path d="m222.657,128.257c-2.631-.133-5.161-.492-7.62-.754-1.222-.189-2.424-.375-3.606-.557-.591-.093-1.177-.184-1.758-.275-.577-.115-1.149-.228-1.716-.341-1.134-.226-2.248-.449-3.342-.667-1.085-.26-2.15-.516-3.196-.768-2.1-.472-4.08-1.081-5.995-1.623-7.634-2.262-13.802-4.841-18.643-7.11-4.855-2.251-8.362-4.261-10.701-5.603-1.182-.651-2.03-1.211-2.608-1.564-.575-.358-.864-.537-.864-.537" fill="none" stroke="#231f20" stroke-miterlimit="10" stroke-width=".25"/>
      <path d="m222.482,130.732c-2.685-.137-5.265-.501-7.773-.769-1.246-.192-2.471-.382-3.677-.568-.603-.094-1.2-.188-1.793-.281-.588-.117-1.171-.232-1.749-.347-1.156-.231-2.291-.458-3.407-.68-1.106-.265-2.192-.526-3.257-.782-2.14-.482-4.158-1.101-6.108-1.654-7.777-2.305-14.059-4.931-18.989-7.241-4.944-2.293-8.515-4.339-10.897-5.706-1.203-.664-2.067-1.233-2.656-1.592-.586-.364-.88-.547-.88-.547" fill="none" stroke="#231f20" stroke-miterlimit="10" stroke-width=".25"/>
      <path d="m148.251,98.152c-8.099-6.715-14.447-13.526-19.36-19.791-4.887-6.294-8.441-11.98-10.966-16.71-.677-1.158-1.188-2.312-1.732-3.354-.513-1.058-1.049-2.013-1.438-2.947-.812-1.851-1.527-3.381-2.034-4.636-.98-2.523-1.474-3.795-1.474-3.795" fill="none" stroke="#231f20" stroke-miterlimit="10" stroke-width=".25"/>
      <path d="m146.672,100.066c-8.252-6.84-14.723-13.784-19.735-20.175-4.986-6.421-8.614-12.226-11.194-17.058-.691-1.183-1.214-2.362-1.77-3.427-.525-1.081-1.071-2.057-1.469-3.012-.83-1.891-1.561-3.456-2.078-4.738-1.002-2.578-1.507-3.879-1.507-3.879" fill="none" stroke="#231f20" stroke-miterlimit="10" stroke-width=".25"/>
      <path d="m105.922,27.308c-.933-5.182-1.515-10.105-1.755-14.724-.316-4.616-.246-8.926-.125-12.902.319-7.957,1.318-14.571,2.348-19.817.125-.657.245-1.294.362-1.911.14-.612.276-1.203.407-1.775.263-1.143.507-2.206.732-3.188.525-1.945.964-3.571,1.315-4.873.773-2.585,1.199-3.878,1.199-3.878" fill="none" stroke="#231f20" stroke-miterlimit="10" stroke-width=".25"/>
      <path d="m103.481,27.751c-.952-5.289-1.545-10.311-1.79-15.021-.322-4.708-.252-9.099-.128-13.152.325-8.109,1.343-14.844,2.391-20.187.127-.669.25-1.318.369-1.946.143-.623.281-1.226.414-1.808.268-1.164.516-2.246.746-3.246.535-1.981.981-3.636,1.339-4.962.786-2.632,1.22-3.949,1.22-3.949" fill="none" stroke="#231f20" stroke-miterlimit="10" stroke-width=".25"/>
    </g>
  </g>
  <g>
    <g>
      <path d="m11.933,39.469c-.243,3.577-.485,7.153-.728,10.73" fill="none" stroke="#231f20" stroke-miterlimit="10"/>
      <path d="m7.708,44.486c-.051,1.787-.101,3.573-.152,5.36" fill="none" stroke="#231f20" stroke-miterlimit="10"/>
      <path d="m3.739,44.334c-.044,1.743-.087,3.486-.131,5.229" fill="none" stroke="#231f20" stroke-miterlimit="10"/>
      <line x1="-.11" y1="44.254" x2="-.149" y2="49.367" fill="none" stroke="#231f20" stroke-miterlimit="10"/>
    </g>
    <g>
      <line x1="73.334" y1="38.223" x2="71.812" y2="52.546" fill="none" stroke="#231f20" stroke-miterlimit="10"/>
      <path d="m92.507,45.019c-.592,3.536-1.184,7.071-1.776,10.607" fill="none" stroke="#231f20" stroke-miterlimit="10"/>
      <line x1="76.468" y1="48.137" x2="75.839" y2="53.211" fill="none" stroke="#231f20" stroke-miterlimit="10"/>
      <path d="m87.811,49.598c-.226,1.773-.451,3.546-.677,5.319" fill="none" stroke="#231f20" stroke-miterlimit="10"/>
      <path d="m83.875,49.059c-.214,1.73-.428,3.461-.643,5.191" fill="none" stroke="#231f20" stroke-miterlimit="10"/>
      <line x1="80.052" y1="48.601" x2="79.512" y2="53.686" fill="none" stroke="#231f20" stroke-miterlimit="10"/>
    </g>
    <g>
      <line x1="153.734" y1="49.799" x2="150.816" y2="63.903" fill="none" stroke="#231f20" stroke-miterlimit="10"/>
      <path d="m172.148,58.441c-.936,3.461-1.871,6.921-2.807,10.382" fill="none" stroke="#231f20" stroke-miterlimit="10"/>
      <line x1="155.881" y1="59.972" x2="154.758" y2="64.96" fill="none" stroke="#231f20" stroke-miterlimit="10"/>
      <path d="m167.026,62.538c-.398,1.742-.796,3.485-1.195,5.227" fill="none" stroke="#231f20" stroke-miterlimit="10"/>
      <path d="m163.163,61.615c-.383,1.701-.766,3.402-1.148,5.103" fill="none" stroke="#231f20" stroke-miterlimit="10"/>
      <line x1="159.403" y1="60.785" x2="158.367" y2="65.793" fill="none" stroke="#231f20" stroke-miterlimit="10"/>
    </g>
    <g>
      <line x1="232.612" y1="69.199" x2="228.326" y2="82.949" fill="none" stroke="#231f20" stroke-miterlimit="10"/>
      <path d="m250.09,79.605c-1.27,3.352-2.541,6.704-3.811,10.057" fill="none" stroke="#231f20" stroke-miterlimit="10"/>
      <line x1="233.751" y1="79.533" x2="232.145" y2="84.387" fill="none" stroke="#231f20" stroke-miterlimit="10"/>
      <path d="m244.591,83.179c-.567,1.695-1.134,3.39-1.701,5.085" fill="none" stroke="#231f20" stroke-miterlimit="10"/>
      <path d="m240.837,81.882c-.548,1.655-1.095,3.311-1.643,4.966" fill="none" stroke="#231f20" stroke-miterlimit="10"/>
      <line x1="237.177" y1="80.688" x2="235.655" y2="85.57" fill="none" stroke="#231f20" stroke-miterlimit="10"/>
    </g>
    <g>
      <line x1="309.209" y1="96.237" x2="303.596" y2="109.501" fill="none" stroke="#231f20" stroke-miterlimit="10"/>
      <path d="m325.584,108.306c-1.593,3.212-3.186,6.423-4.778,9.635" fill="none" stroke="#231f20" stroke-miterlimit="10"/>
      <line x1="309.33" y1="106.633" x2="307.255" y2="111.307" fill="none" stroke="#231f20" stroke-miterlimit="10"/>
      <path d="m319.761,111.325c-.731,1.631-1.461,3.262-2.192,4.894" fill="none" stroke="#231f20" stroke-miterlimit="10"/>
      <path d="m316.151,109.666c-.707,1.594-1.415,3.187-2.122,4.781" fill="none" stroke="#231f20" stroke-miterlimit="10"/>
      <line x1="312.626" y1="108.119" x2="310.633" y2="112.827" fill="none" stroke="#231f20" stroke-miterlimit="10"/>
    </g>
    <g>
      <line x1="382.787" y1="130.653" x2="375.9" y2="143.303" fill="none" stroke="#231f20" stroke-miterlimit="10"/>
      <path d="m397.9,144.269c-1.9,3.04-3.8,6.08-5.7,9.12" fill="none" stroke="#231f20" stroke-miterlimit="10"/>
      <line x1="381.888" y1="141.011" x2="379.366" y2="145.459" fill="none" stroke="#231f20" stroke-miterlimit="10"/>
      <path d="m391.809,146.702c-.887,1.552-1.774,3.104-2.661,4.655" fill="none" stroke="#231f20" stroke-miterlimit="10"/>
      <path d="m388.38,144.697c-.86,1.517-1.72,3.033-2.58,4.55" fill="none" stroke="#231f20" stroke-miterlimit="10"/>
      <line x1="385.023" y1="142.812" x2="382.578" y2="147.303" fill="none" stroke="#231f20" stroke-miterlimit="10"/>
    </g>
    <g>
      <line x1="452.638" y1="172.115" x2="444.544" y2="184.029" fill="none" stroke="#231f20" stroke-miterlimit="10"/>
      <path d="m466.343,187.146c-2.189,2.839-4.377,5.678-6.566,8.517" fill="none" stroke="#231f20" stroke-miterlimit="10"/>
      <line x1="450.728" y1="182.335" x2="447.781" y2="186.514" fill="none" stroke="#231f20" stroke-miterlimit="10"/>
      <path d="m460.043,188.971c-1.035,1.457-2.069,2.915-3.104,4.372" fill="none" stroke="#231f20" stroke-miterlimit="10"/>
      <path d="m456.827,186.64c-1.005,1.425-2.009,2.85-3.014,4.275" fill="none" stroke="#231f20" stroke-miterlimit="10"/>
      <line x1="453.67" y1="184.435" x2="450.797" y2="188.664" fill="none" stroke="#231f20" stroke-miterlimit="10"/>
    </g>
    <g>
      <line x1="518.087" y1="220.224" x2="508.865" y2="231.288" fill="none" stroke="#231f20" stroke-miterlimit="10"/>
      <path d="m530.253,236.526c-2.456,2.611-4.913,5.222-7.369,7.833" fill="none" stroke="#231f20" stroke-miterlimit="10"/>
      <line x1="515.185" y1="230.208" x2="511.843" y2="234.078" fill="none" stroke="#231f20" stroke-miterlimit="10"/>
      <path d="m523.805,237.725c-1.173,1.349-2.345,2.698-3.518,4.047" fill="none" stroke="#231f20" stroke-miterlimit="10"/>
      <path d="m520.832,235.09c-1.139,1.32-2.279,2.639-3.418,3.959" fill="none" stroke="#231f20" stroke-miterlimit="10"/>
      <line x1="517.908" y1="232.586" x2="514.634" y2="236.513" fill="none" stroke="#231f20" stroke-miterlimit="10"/>
    </g>
    <g>
      <line x1="578.507" y1="274.516" x2="568.244" y2="284.623" fill="none" stroke="#231f20" stroke-miterlimit="10"/>
      <path d="m589.016,291.933c-2.701,2.358-5.401,4.715-8.102,7.073" fill="none" stroke="#231f20" stroke-miterlimit="10"/>
      <line x1="574.64" y1="284.167" x2="570.935" y2="287.691" fill="none" stroke="#231f20" stroke-miterlimit="10"/>
      <path d="m582.481,292.493c-1.299,1.227-2.598,2.455-3.897,3.682" fill="none" stroke="#231f20" stroke-miterlimit="10"/>
      <path d="m579.781,289.579c-1.263,1.202-2.527,2.403-3.79,3.605" fill="none" stroke="#231f20" stroke-miterlimit="10"/>
      <line x1="577.116" y1="286.801" x2="573.473" y2="290.388" fill="none" stroke="#231f20" stroke-miterlimit="10"/>
    </g>
    <g>
      <line x1="633.313" y1="334.469" x2="622.109" y2="343.521" fill="none" stroke="#231f20" stroke-miterlimit="10"/>
      <path d="m642.064,352.832c-2.919,2.082-5.837,4.163-8.756,6.245" fill="none" stroke="#231f20" stroke-miterlimit="10"/>
      <line x1="628.519" y1="343.695" x2="624.486" y2="346.839" fill="none" stroke="#231f20" stroke-miterlimit="10"/>
      <path d="m635.506,352.749c-1.413,1.094-2.826,2.189-4.24,3.283" fill="none" stroke="#231f20" stroke-miterlimit="10"/>
      <path d="m633.105,349.585c-1.375,1.072-2.75,2.144-4.125,3.216" fill="none" stroke="#231f20" stroke-miterlimit="10"/>
      <line x1="630.725" y1="346.558" x2="626.748" y2="349.772" fill="none" stroke="#231f20" stroke-miterlimit="10"/>
    </g>
  </g>
  <g>
    <line x1="335.569" y1="166.086" x2="488.755" y2="-142.797" fill="none" stroke="#231f20" stroke-miterlimit="10" stroke-width=".25"/>
    <line x1="409.954" y1="12.29" x2="413.071" y2="13.836" fill="none" stroke="#231f20" stroke-miterlimit="10" stroke-width=".25"/>
    <line x1="391.787" y1="50.117" x2="393.97" y2="51.199" fill="none" stroke="#231f20" stroke-miterlimit="10" stroke-width=".25"/>
    <line x1="372.824" y1="88.354" x2="375.007" y2="89.436" fill="none" stroke="#231f20" stroke-miterlimit="10" stroke-width=".25"/>
    <line x1="354.116" y1="126.075" x2="356.299" y2="127.158" fill="none" stroke="#231f20" stroke-miterlimit="10" stroke-width=".25"/>
    <line x1="334.063" y1="165.339" x2="337.179" y2="166.884" fill="none" stroke="#231f20" stroke-miterlimit="10" stroke-width=".25"/>
  </g>
  <g>
    <line x1="503.658" y1="407.42" x2="978.086" y2="-22.947" fill="none" stroke="#231f20" stroke-miterlimit="10" stroke-width=".375"/>
    <line x1="621.089" y1="298.544" x2="623.545" y2="301.251" fill="none" stroke="#231f20" stroke-miterlimit="10" stroke-width=".375"/>
    <line x1="563.151" y1="351.102" x2="565.606" y2="353.809" fill="none" stroke="#231f20" stroke-miterlimit="10" stroke-width=".375"/>
    <line x1="501.963" y1="405.552" x2="505.469" y2="409.416" fill="none" stroke="#231f20" stroke-miterlimit="10" stroke-width=".375"/>
  </g>
  <polyline points="71.166 539.911 65.743 538.855 67.441 530.141 72.864 531.197 74.518 522.71 69.095 521.654 70.784 512.985 76.207 514.042 78.108 504.284 72.685 503.227 79.627 467.599 85.051 468.656 91.984 433.074 86.561 432.017 93.494 396.435 98.066 397.326" fill="none" stroke="#231f20" stroke-miterlimit="10" stroke-width=".469"/>
  <polyline points="118.588 301.154 112.007 299.833 114.129 289.258 120.71 290.579 122.777 280.279 116.196 278.958 118.307 268.438 124.888 269.759 127.265 257.917 120.683 256.596 129.36 213.359 135.941 214.68 144.606 171.498 138.025 170.177 146.69 126.996 152.239 128.109" fill="none" stroke="#231f20" stroke-miterlimit="10" stroke-width=".569"/>
  <polyline points="173.589 34.942 165.523 33.436 167.944 20.474 176.01 21.981 178.368 9.358 170.302 7.851 172.711 -5.043 180.777 -3.536 183.488 -18.05 175.422 -19.557 185.321 -72.549 193.387 -71.042 203.274 -123.967 195.208 -125.474 205.095 -178.399 211.895 -177.128" fill="none" stroke="#231f20" stroke-miterlimit="10" stroke-width=".696"/>
  <path d="m619.725,19.469c-14.362,0-26.006,11.643-26.006,26.006s11.643,26.006,26.006,26.006,26.006-11.643,26.006-26.006-11.643-26.006-26.006-26.006Zm0,0v51.909m-25.955-25.904h51.909" fill="none" stroke="#898989" stroke-miterlimit="10"/>
  <g>
    <rect x="-1692.473" y="-394.288" width="3386.58" height="2514.089" transform="translate(-861.939 863.574) rotate(-90)" fill="none" stroke="#231f20" stroke-linecap="round" stroke-miterlimit="10" stroke-width="7"/>
    <rect x="-1675.506" y="-377.166" width="3353.392" height="2482.402" transform="translate(-862.845 865.225) rotate(-90)" fill="none" stroke="#231f20" stroke-linecap="round" stroke-miterlimit="10" stroke-width="3"/>
    <rect x="-1637.031" y="-341.548" width="3275.615" height="2412.095" transform="translate(-863.722 865.276) rotate(-90)" fill="none" stroke="#231f20" stroke-linecap="round" stroke-miterlimit="10"/>
    <rect x="-1619.163" y="-324.185" width="3239.88" height="2376.261" transform="translate(-863.169 864.723) rotate(-90)" fill="none" stroke="#231f20" stroke-linecap="round" stroke-miterlimit="10"/>
  </g>
  <g>
    <path d="m285.401,428.541c.543.358.692,1.089.334,1.632-.358.543-1.089.692-1.632.334-.543-.358-.692-1.089-.334-1.632s1.089-.693,1.632-.334Z" fill="#231f20" stroke-width="0"/>
    <path d="m288.013,424.584c.543.359.692,1.089.334,1.632-.358.543-1.089.693-1.632.334s-.693-1.089-.334-1.632c.358-.543,1.089-.693,1.632-.334Z" fill="#231f20" stroke-width="0"/>
    <path d="m290.625,420.628c.543.358.693,1.089.334,1.632-.358.543-1.089.693-1.632.334-.543-.359-.693-1.089-.334-1.632.358-.543,1.089-.693,1.632-.334Z" fill="#231f20" stroke-width="0"/>
    <path d="m293.237,416.671c.543.358.692,1.089.334,1.632s-1.089.693-1.632.334c-.543-.358-.692-1.089-.334-1.632.358-.543,1.089-.693,1.632-.334Z" fill="#231f20" stroke-width="0"/>
    <path d="m295.849,412.715c.543.358.693,1.089.334,1.632s-1.089.692-1.632.334c-.543-.358-.693-1.089-.334-1.632.359-.543,1.089-.692,1.632-.334Z" fill="#231f20" stroke-width="0"/>
    <path d="m298.461,408.759c.543.358.692,1.089.334,1.632s-1.089.692-1.632.334c-.543-.358-.692-1.089-.334-1.632.358-.543,1.089-.692,1.632-.334Z" fill="#231f20" stroke-width="0"/>
    <path d="m301.073,404.802c.543.358.692,1.089.334,1.632-.358.543-1.089.692-1.632.334s-.692-1.089-.334-1.632c.358-.543,1.089-.692,1.632-.334Z" fill="#231f20" stroke-width="0"/>
    <path d="m303.685,400.846c.543.358.693,1.089.334,1.632-.358.543-1.089.692-1.632.334-.543-.358-.693-1.089-.334-1.632s1.089-.692,1.632-.334Z" fill="#231f20" stroke-width="0"/>
    <path d="m306.297,396.889c.543.358.692,1.089.334,1.632-.358.543-1.089.692-1.632.334-.543-.358-.692-1.089-.334-1.632s1.089-.692,1.632-.334Z" fill="#231f20" stroke-width="0"/>
    <path d="m308.909,392.933c.543.358.692,1.089.334,1.632-.358.543-1.089.693-1.632.334s-.692-1.089-.334-1.632c.358-.543,1.089-.693,1.632-.334Z" fill="#231f20" stroke-width="0"/>
    <path d="m311.521,388.976c.543.359.693,1.089.334,1.632-.359.543-1.089.693-1.632.334-.543-.358-.693-1.089-.334-1.632.358-.543,1.089-.693,1.632-.334Z" fill="#231f20" stroke-width="0"/>
    <path d="m314.133,385.02c.543.358.692,1.089.334,1.632-.358.543-1.089.693-1.632.334-.543-.359-.692-1.089-.334-1.632.358-.543,1.089-.693,1.632-.334Z" fill="#231f20" stroke-width="0"/>
    <path d="m316.745,381.063c.543.358.693,1.089.334,1.632s-1.089.693-1.632.334c-.543-.358-.693-1.089-.334-1.632.358-.543,1.089-.692,1.632-.334Z" fill="#231f20" stroke-width="0"/>
    <path d="m319.357,377.107c.543.358.693,1.089.334,1.632-.358.543-1.089.692-1.632.334-.543-.358-.692-1.089-.334-1.632.358-.543,1.089-.692,1.632-.334Z" fill="#231f20" stroke-width="0"/>
    <path d="m321.969,373.151c.543.358.692,1.089.334,1.632s-1.089.692-1.632.334-.692-1.089-.334-1.632c.358-.543,1.089-.692,1.632-.334Z" fill="#231f20" stroke-width="0"/>
    <path d="m324.581,369.194c.543.358.693,1.089.334,1.632-.358.543-1.089.692-1.632.334-.543-.358-.693-1.089-.334-1.632.359-.543,1.089-.692,1.632-.334Z" fill="#231f20" stroke-width="0"/>
    <path d="m327.193,365.238c.543.358.692,1.089.334,1.632-.358.543-1.089.692-1.632.334-.543-.358-.692-1.089-.334-1.632s1.089-.692,1.632-.334Z" fill="#231f20" stroke-width="0"/>
    <path d="m329.805,361.281c.543.358.692,1.089.334,1.632-.358.543-1.089.692-1.632.334s-.692-1.089-.334-1.632,1.089-.693,1.632-.334Z" fill="#231f20" stroke-width="0"/>
    <path d="m332.417,357.325c.543.359.693,1.089.334,1.632-.359.543-1.089.693-1.632.334-.543-.358-.693-1.089-.334-1.632.358-.543,1.089-.693,1.632-.334Z" fill="#231f20" stroke-width="0"/>
    <path d="m335.029,353.368c.543.358.692,1.089.334,1.632-.358.543-1.089.693-1.632.334-.543-.359-.692-1.089-.334-1.632.358-.543,1.089-.693,1.632-.334Z" fill="#231f20" stroke-width="0"/>
    <path d="m337.641,349.412c.543.358.692,1.089.334,1.632-.358.543-1.089.693-1.632.334-.543-.358-.693-1.089-.334-1.632.358-.543,1.089-.693,1.632-.334Z" fill="#231f20" stroke-width="0"/>
    <path d="m340.253,345.456c.543.358.693,1.089.334,1.632-.358.543-1.089.692-1.632.334-.543-.358-.693-1.089-.334-1.632.358-.543,1.089-.692,1.632-.334Z" fill="#231f20" stroke-width="0"/>
    <path d="m342.865,341.499c.543.358.692,1.089.334,1.632s-1.089.692-1.632.334c-.543-.358-.692-1.089-.334-1.632.358-.543,1.089-.692,1.632-.334Z" fill="#231f20" stroke-width="0"/>
    <path d="m345.477,337.543c.543.358.693,1.089.334,1.632-.358.543-1.089.692-1.632.334-.543-.358-.693-1.089-.334-1.632.359-.543,1.089-.692,1.632-.334Z" fill="#231f20" stroke-width="0"/>
    <path d="m348.089,333.586c.543.358.692,1.089.334,1.632-.358.543-1.089.692-1.632.334-.543-.358-.692-1.089-.334-1.632s1.089-.692,1.632-.334Z" fill="#231f20" stroke-width="0"/>
    <path d="m350.701,329.63c.543.358.692,1.089.334,1.632-.358.543-1.089.692-1.632.334s-.692-1.089-.334-1.632,1.089-.692,1.632-.334Z" fill="#231f20" stroke-width="0"/>
    <path d="m353.313,325.673c.543.358.693,1.089.334,1.632-.358.543-1.089.693-1.632.334-.543-.358-.693-1.089-.334-1.632s1.089-.693,1.632-.334Z" fill="#231f20" stroke-width="0"/>
    <path d="m355.925,321.717c.543.359.692,1.089.334,1.632-.358.543-1.089.693-1.632.334-.543-.358-.692-1.089-.334-1.632.358-.543,1.089-.693,1.632-.334Z" fill="#231f20" stroke-width="0"/>
    <path d="m358.537,317.761c.543.358.692,1.089.334,1.632-.358.543-1.089.693-1.632.334-.543-.359-.692-1.089-.334-1.632.358-.543,1.089-.693,1.632-.334Z" fill="#231f20" stroke-width="0"/>
    <path d="m361.149,313.804c.543.358.693,1.089.334,1.632-.359.543-1.089.693-1.632.334-.543-.358-.693-1.089-.334-1.632.358-.543,1.089-.692,1.632-.334Z" fill="#231f20" stroke-width="0"/>
    <path d="m363.761,309.848c.543.358.692,1.089.334,1.632s-1.089.692-1.632.334c-.543-.358-.692-1.089-.334-1.632.358-.543,1.089-.692,1.632-.334Z" fill="#231f20" stroke-width="0"/>
    <path d="m366.373,305.891c.543.358.693,1.089.334,1.632s-1.089.692-1.632.334-.693-1.089-.334-1.632c.358-.543,1.089-.692,1.632-.334Z" fill="#231f20" stroke-width="0"/>
    <path d="m368.985,301.935c.543.358.693,1.089.334,1.632-.358.543-1.089.692-1.632.334-.543-.358-.692-1.089-.334-1.632s1.089-.692,1.632-.334Z" fill="#231f20" stroke-width="0"/>
    <path d="m371.597,297.978c.543.358.692,1.089.334,1.632-.358.543-1.089.692-1.632.334s-.692-1.089-.334-1.632,1.089-.692,1.632-.334Z" fill="#231f20" stroke-width="0"/>
    <path d="m374.209,294.022c.543.358.693,1.089.334,1.632-.358.543-1.089.692-1.632.334-.543-.358-.693-1.089-.334-1.632.359-.543,1.089-.693,1.632-.334Z" fill="#231f20" stroke-width="0"/>
    <path d="m376.821,290.065c.543.359.692,1.089.334,1.632-.358.543-1.089.693-1.632.334-.543-.358-.692-1.089-.334-1.632.358-.543,1.089-.693,1.632-.334Z" fill="#231f20" stroke-width="0"/>
    <path d="m379.433,286.109c.543.358.692,1.089.334,1.632-.358.543-1.089.693-1.632.334s-.692-1.089-.334-1.632c.358-.543,1.089-.693,1.632-.334Z" fill="#231f20" stroke-width="0"/>
    <path d="m382.045,282.153c.543.358.693,1.089.334,1.632-.359.543-1.089.693-1.632.334-.543-.358-.693-1.089-.334-1.632.358-.543,1.089-.693,1.632-.334Z" fill="#231f20" stroke-width="0"/>
  </g>
  <g>
    <path d="m485.137,122.729c.545.355.699,1.085.343,1.63-.355.545-1.085.699-1.63.343s-.698-1.085-.343-1.63c.355-.545,1.085-.699,1.63-.343Z" fill="#231f20" stroke-width="0"/>
    <path d="m487.745,118.729c.545.355.698,1.085.343,1.63-.355.545-1.085.699-1.63.343-.545-.355-.699-1.085-.343-1.63.355-.545,1.085-.699,1.63-.343Z" fill="#231f20" stroke-width="0"/>
    <path d="m490.354,114.729c.545.355.698,1.085.343,1.63s-1.085.699-1.63.343-.699-1.085-.343-1.63c.355-.545,1.085-.699,1.63-.343Z" fill="#231f20" stroke-width="0"/>
    <path d="m492.962,110.73c.545.355.698,1.085.343,1.63-.355.545-1.085.699-1.63.343s-.699-1.085-.343-1.63c.355-.545,1.085-.699,1.63-.343Z" fill="#231f20" stroke-width="0"/>
    <path d="m495.571,106.73c.545.355.699,1.085.343,1.63-.355.545-1.085.699-1.63.343-.545-.355-.699-1.085-.343-1.63.355-.545,1.085-.699,1.63-.343Z" fill="#231f20" stroke-width="0"/>
    <path d="m498.179,102.73c.545.355.699,1.085.343,1.63-.355.545-1.085.699-1.63.343-.545-.355-.698-1.085-.343-1.63s1.085-.699,1.63-.343Z" fill="#231f20" stroke-width="0"/>
    <path d="m500.788,98.73c.545.355.699,1.085.343,1.63-.355.545-1.085.699-1.63.343-.545-.355-.698-1.085-.343-1.63.355-.545,1.085-.699,1.63-.343Z" fill="#231f20" stroke-width="0"/>
    <path d="m503.396,94.73c.545.355.699,1.085.343,1.63-.355.545-1.085.699-1.63.343s-.698-1.085-.343-1.63c.355-.545,1.085-.699,1.63-.343Z" fill="#231f20" stroke-width="0"/>
    <path d="m506.005,90.73c.545.355.698,1.085.343,1.63-.355.545-1.085.699-1.63.343s-.699-1.085-.343-1.63c.355-.545,1.085-.699,1.63-.343Z" fill="#231f20" stroke-width="0"/>
    <path d="m508.613,86.73c.545.355.698,1.085.343,1.63s-1.085.699-1.63.343-.699-1.085-.343-1.63c.355-.545,1.085-.699,1.63-.343Z" fill="#231f20" stroke-width="0"/>
    <path d="m511.222,82.731c.545.355.698,1.085.343,1.63-.355.545-1.085.699-1.63.343s-.699-1.085-.343-1.63c.355-.545,1.085-.699,1.63-.343Z" fill="#231f20" stroke-width="0"/>
    <path d="m513.83,78.731c.545.355.699,1.085.343,1.63-.355.545-1.085.699-1.63.343-.545-.355-.699-1.085-.343-1.63.355-.545,1.085-.699,1.63-.343Z" fill="#231f20" stroke-width="0"/>
    <path d="m516.439,74.731c.545.355.699,1.085.343,1.63-.355.545-1.085.699-1.63.343-.545-.355-.698-1.085-.343-1.63.355-.545,1.085-.699,1.63-.343Z" fill="#231f20" stroke-width="0"/>
    <path d="m519.047,70.731c.545.355.699,1.085.343,1.63-.355.545-1.085.699-1.63.343-.545-.355-.698-1.085-.343-1.63.355-.545,1.085-.699,1.63-.343Z" fill="#231f20" stroke-width="0"/>
    <path d="m521.656,66.731c.545.355.699,1.085.343,1.63-.355.545-1.085.699-1.63.343s-.698-1.085-.343-1.63c.355-.545,1.085-.699,1.63-.343Z" fill="#231f20" stroke-width="0"/>
    <path d="m524.264,62.731c.545.355.698,1.085.343,1.63-.355.545-1.085.699-1.63.343s-.699-1.085-.343-1.63c.355-.545,1.085-.699,1.63-.343Z" fill="#231f20" stroke-width="0"/>
    <path d="m526.873,58.731c.545.355.698,1.085.343,1.63s-1.085.699-1.63.343-.699-1.085-.343-1.63c.355-.545,1.085-.699,1.63-.343Z" fill="#231f20" stroke-width="0"/>
    <path d="m529.481,54.732c.545.355.698,1.085.343,1.63-.355.545-1.085.699-1.63.343s-.699-1.085-.343-1.63c.355-.545,1.085-.699,1.63-.343Z" fill="#231f20" stroke-width="0"/>
    <path d="m532.09,50.732c.545.355.699,1.085.343,1.63-.355.545-1.085.699-1.63.343-.545-.355-.699-1.085-.343-1.63.355-.545,1.085-.699,1.63-.343Z" fill="#231f20" stroke-width="0"/>
    <path d="m534.698,46.732c.545.355.699,1.085.343,1.63-.355.545-1.085.699-1.63.343-.545-.355-.698-1.085-.343-1.63.355-.545,1.085-.699,1.63-.343Z" fill="#231f20" stroke-width="0"/>
    <path d="m537.307,42.732c.545.355.699,1.085.343,1.63-.355.545-1.085.699-1.63.343-.545-.355-.698-1.085-.343-1.63.355-.545,1.085-.699,1.63-.343Z" fill="#231f20" stroke-width="0"/>
    <path d="m539.915,38.732c.545.355.699,1.085.343,1.63-.355.545-1.085.699-1.63.343-.545-.355-.698-1.085-.343-1.63.355-.545,1.085-.699,1.63-.343Z" fill="#231f20" stroke-width="0"/>
    <path d="m542.524,34.732c.545.355.698,1.085.343,1.63-.355.545-1.085.699-1.63.343s-.698-1.085-.343-1.63,1.085-.699,1.63-.343Z" fill="#231f20" stroke-width="0"/>
    <path d="m545.132,30.732c.545.355.698,1.085.343,1.63s-1.085.699-1.63.343-.699-1.085-.343-1.63c.355-.545,1.085-.699,1.63-.343Z" fill="#231f20" stroke-width="0"/>
    <path d="m547.741,26.733c.545.355.698,1.085.343,1.63-.355.545-1.085.699-1.63.343s-.699-1.085-.343-1.63c.355-.545,1.085-.699,1.63-.343Z" fill="#231f20" stroke-width="0"/>
    <path d="m550.349,22.733c.545.355.699,1.085.343,1.63-.355.545-1.085.699-1.63.343-.545-.355-.699-1.085-.343-1.63.355-.545,1.085-.699,1.63-.343Z" fill="#231f20" stroke-width="0"/>
    <path d="m552.958,18.733c.545.355.699,1.085.343,1.63-.355.545-1.085.699-1.63.343-.545-.355-.698-1.085-.343-1.63.355-.545,1.085-.699,1.63-.343Z" fill="#231f20" stroke-width="0"/>
    <path d="m555.566,14.733c.545.355.699,1.085.343,1.63-.355.545-1.085.699-1.63.343-.545-.355-.698-1.085-.343-1.63.355-.545,1.085-.699,1.63-.343Z" fill="#231f20" stroke-width="0"/>
    <path d="m558.175,10.733c.545.355.699,1.085.343,1.63-.355.545-1.085.699-1.63.343-.545-.355-.698-1.085-.343-1.63.355-.545,1.085-.699,1.63-.343Z" fill="#231f20" stroke-width="0"/>
    <path d="m560.783,6.733c.545.355.698,1.085.343,1.63-.355.545-1.085.699-1.63.343s-.698-1.085-.343-1.63,1.085-.699,1.63-.343Z" fill="#231f20" stroke-width="0"/>
    <path d="m563.392,2.733c.545.355.698,1.085.343,1.63s-1.085.699-1.63.343-.699-1.085-.343-1.63c.355-.545,1.085-.699,1.63-.343Z" fill="#231f20" stroke-width="0"/>
    <path d="m566-1.266c.545.355.698,1.085.343,1.63-.355.545-1.085.699-1.63.343s-.699-1.085-.343-1.63c.355-.545,1.085-.699,1.63-.343Z" fill="#231f20" stroke-width="0"/>
  </g>
  <g>
    <line x1="146.881" y1="434.11" x2="148.543" y2="429.158" fill="none" stroke="#221f1f" stroke-miterlimit="10" stroke-width=".5"/>
    <g>
      <line x1="149.755" y1="426.819" x2="151.417" y2="421.866" fill="none" stroke="#221f1f" stroke-miterlimit="10" stroke-width=".5"/>
      <line x1="152.123" y1="419.763" x2="153.785" y2="414.811" fill="none" stroke="#221f1f" stroke-miterlimit="10" stroke-width=".5"/>
      <line x1="154.604" y1="412.734" x2="156.266" y2="407.781" fill="none" stroke="#221f1f" stroke-miterlimit="10" stroke-width=".5"/>
      <line x1="156.972" y1="405.678" x2="158.634" y2="400.726" fill="none" stroke="#221f1f" stroke-miterlimit="10" stroke-width=".5"/>
    </g>
  </g>
  <g>
    <g>
      <line x1="275.426" y1="47.982" x2="278.004" y2="40.112" fill="none" stroke="#221f1f" stroke-miterlimit="10" stroke-width=".5"/>
      <line x1="279.099" y1="36.77" x2="281.677" y2="28.901" fill="none" stroke="#221f1f" stroke-miterlimit="10" stroke-width=".5"/>
      <line x1="282.887" y1="25.577" x2="285.465" y2="17.708" fill="none" stroke="#221f1f" stroke-miterlimit="10" stroke-width=".5"/>
      <line x1="286.56" y1="14.366" x2="289.138" y2="6.497" fill="none" stroke="#221f1f" stroke-miterlimit="10" stroke-width=".5"/>
    </g>
    <line x1="290.807" y1="2.701" x2="293.384" y2="-5.168" fill="none" stroke="#221f1f" stroke-miterlimit="10" stroke-width=".5"/>
  </g>
  <g>
    <polyline points="45.614 181.306 50.303 181.565 36.633 428.31 31.944 428.051" fill="none" stroke="#231f20" stroke-miterlimit="10" stroke-width=".294"/>
    <line x1="45.119" y1="212.103" x2="48.6" y2="212.296" fill="none" stroke="#231f20" stroke-miterlimit="10" stroke-width=".294"/>
    <line x1="43.437" y1="242.463" x2="46.919" y2="242.656" fill="none" stroke="#231f20" stroke-miterlimit="10" stroke-width=".294"/>
    <line x1="41.747" y1="272.979" x2="45.228" y2="273.171" fill="none" stroke="#231f20" stroke-miterlimit="10" stroke-width=".294"/>
    <line x1="38.848" y1="303.427" x2="43.537" y2="303.687" fill="none" stroke="#231f20" stroke-miterlimit="10" stroke-width=".294"/>
    <line x1="38.374" y1="333.854" x2="41.855" y2="334.047" fill="none" stroke="#231f20" stroke-miterlimit="10" stroke-width=".294"/>
    <line x1="36.546" y1="366.848" x2="40.028" y2="367.041" fill="none" stroke="#231f20" stroke-miterlimit="10" stroke-width=".294"/>
    <line x1="34.864" y1="397.208" x2="38.346" y2="397.401" fill="none" stroke="#231f20" stroke-miterlimit="10" stroke-width=".294"/>
  </g>
  <polyline points="63.36 -117.257 68.259 -116.952 60.219 11.936 55.32 11.631" fill="none" stroke="#231f20" stroke-miterlimit="10" stroke-width=".307"/>
  <g>
    <line x1="392.981" y1="404.955" x2="398.152" y2="409.294" fill="none" stroke="#221f1f" stroke-miterlimit="10" stroke-width=".75"/>
    <line x1="375.729" y1="425.514" x2="380.9" y2="429.853" fill="none" stroke="#221f1f" stroke-miterlimit="10" stroke-width=".75"/>
    <line x1="384.355" y1="415.235" x2="389.526" y2="419.574" fill="none" stroke="#221f1f" stroke-miterlimit="10" stroke-width=".75"/>
    <line x1="410.233" y1="384.396" x2="415.404" y2="388.735" fill="none" stroke="#221f1f" stroke-miterlimit="10" stroke-width=".75"/>
    <line x1="427.485" y1="363.838" x2="432.656" y2="368.177" fill="none" stroke="#221f1f" stroke-miterlimit="10" stroke-width=".75"/>
  </g>
  <line x1="601.972" y1="159.422" x2="607.117" y2="163.791" fill="none" stroke="#221f1f" stroke-miterlimit="10" stroke-width=".75"/>
  <g>
    <line x1="144.8" y1="555.777" x2="280.104" y2="274.153" fill="none" stroke="#231f20" stroke-miterlimit="10" stroke-width=".25"/>
    <line x1="210.316" y1="415.507" x2="213.451" y2="417.013" fill="none" stroke="#231f20" stroke-miterlimit="10" stroke-width=".25"/>
    <line x1="227.307" y1="381.365" x2="229.504" y2="382.42" fill="none" stroke="#231f20" stroke-miterlimit="10" stroke-width=".25"/>
    <line x1="245.25" y1="344.018" x2="247.446" y2="345.073" fill="none" stroke="#231f20" stroke-miterlimit="10" stroke-width=".25"/>
    <line x1="261.992" y1="309.172" x2="264.188" y2="310.227" fill="none" stroke="#231f20" stroke-miterlimit="10" stroke-width=".25"/>
    <line x1="278.208" y1="274.084" x2="281.343" y2="275.59" fill="none" stroke="#231f20" stroke-miterlimit="10" stroke-width=".25"/>
  </g>
</svg>