<?xml version="1.0" encoding="UTF-8"?>
<svg id="a" data-name="Layer 1" xmlns="http://www.w3.org/2000/svg" width="9.002in" height="6.002in" viewBox="0 0 648.177 432.177">
  <g>
    <g>
      <g>
        <line x1="10.89" y1="143.167" x2="9.459" y2="161.222" fill="none" stroke="#231f20" stroke-miterlimit="10" stroke-width=".75"/>
        <path d="m35.218,151.064c-.625,4.464-1.25,8.929-1.875,13.393" fill="none" stroke="#231f20" stroke-miterlimit="10" stroke-width=".75"/>
        <line x1="15.162" y1="155.523" x2="14.543" y2="161.923" fill="none" stroke="#231f20" stroke-miterlimit="10" stroke-width=".75"/>
        <path d="m29.47,156.978c-.224,2.236-.448,4.473-.671,6.709" fill="none" stroke="#231f20" stroke-miterlimit="10" stroke-width=".75"/>
        <path d="m24.505,156.432c-.211,2.182-.422,4.364-.633,6.547" fill="none" stroke="#231f20" stroke-miterlimit="10" stroke-width=".75"/>
        <line x1="19.684" y1="155.986" x2="19.176" y2="162.396" fill="none" stroke="#231f20" stroke-miterlimit="10" stroke-width=".75"/>
      </g>
      <g>
        <line x1="50.985" y1="147.426" x2="47.055" y2="165.106" fill="none" stroke="#231f20" stroke-miterlimit="10" stroke-width=".75"/>
        <path d="m73.977,158.632c-1.24,4.334-2.48,8.668-3.72,13.001" fill="none" stroke="#231f20" stroke-miterlimit="10" stroke-width=".75"/>
        <line x1="53.496" y1="160.256" x2="51.992" y2="166.507" fill="none" stroke="#231f20" stroke-miterlimit="10" stroke-width=".75"/>
        <path d="m67.462,163.688c-.533,2.183-1.066,4.367-1.598,6.55" fill="none" stroke="#231f20" stroke-miterlimit="10" stroke-width=".75"/>
        <path d="m62.621,162.457c-.513,2.132-1.025,4.263-1.538,6.395" fill="none" stroke="#231f20" stroke-miterlimit="10" stroke-width=".75"/>
        <line x1="57.909" y1="161.344" x2="56.514" y2="167.621" fill="none" stroke="#231f20" stroke-miterlimit="10" stroke-width=".75"/>
      </g>
      <g>
        <line x1="90.097" y1="157.223" x2="83.745" y2="174.185" fill="none" stroke="#231f20" stroke-miterlimit="10" stroke-width=".75"/>
        <path d="m111.306,171.52c-1.831,4.119-3.662,8.238-5.494,12.357" fill="none" stroke="#231f20" stroke-miterlimit="10" stroke-width=".75"/>
        <line x1="90.798" y1="170.278" x2="88.438" y2="176.259" fill="none" stroke="#231f20" stroke-miterlimit="10" stroke-width=".75"/>
        <path d="m104.15,175.62c-.832,2.088-1.663,4.176-2.495,6.264" fill="none" stroke="#231f20" stroke-miterlimit="10" stroke-width=".75"/>
        <path d="m99.528,173.727c-.804,2.04-1.609,4.079-2.413,6.119" fill="none" stroke="#231f20" stroke-miterlimit="10" stroke-width=".75"/>
        <line x1="95.017" y1="171.97" x2="92.762" y2="177.991" fill="none" stroke="#231f20" stroke-miterlimit="10" stroke-width=".75"/>
      </g>
      <g>
        <line x1="127.464" y1="172.369" x2="118.814" y2="188.281" fill="none" stroke="#231f20" stroke-miterlimit="10" stroke-width=".75"/>
        <path d="m146.478,189.478c-2.387,3.824-4.773,7.648-7.16,11.472" fill="none" stroke="#231f20" stroke-miterlimit="10" stroke-width=".75"/>
        <line x1="126.342" y1="185.394" x2="123.173" y2="190.989" fill="none" stroke="#231f20" stroke-miterlimit="10" stroke-width=".75"/>
        <path d="m138.821,192.543c-1.114,1.952-2.228,3.904-3.342,5.856" fill="none" stroke="#231f20" stroke-miterlimit="10" stroke-width=".75"/>
        <path d="m134.507,190.025c-1.08,1.908-2.161,3.815-3.241,5.723" fill="none" stroke="#231f20" stroke-miterlimit="10" stroke-width=".75"/>
        <line x1="130.284" y1="187.657" x2="127.214" y2="193.305" fill="none" stroke="#231f20" stroke-miterlimit="10" stroke-width=".75"/>
      </g>
      <g>
        <line x1="162.36" y1="192.567" x2="151.58" y2="207.121" fill="none" stroke="#231f20" stroke-miterlimit="10" stroke-width=".75"/>
        <path d="m178.808,212.156c-2.896,3.455-5.791,6.91-8.687,10.364" fill="none" stroke="#231f20" stroke-miterlimit="10" stroke-width=".75"/>
        <line x1="159.436" y1="205.31" x2="155.52" y2="210.409" fill="none" stroke="#231f20" stroke-miterlimit="10" stroke-width=".75"/>
        <path d="m170.799,214.125c-1.375,1.778-2.75,3.556-4.124,5.334" fill="none" stroke="#231f20" stroke-miterlimit="10" stroke-width=".75"/>
        <path d="m166.878,211.031c-1.335,1.739-2.671,3.478-4.006,5.216" fill="none" stroke="#231f20" stroke-miterlimit="10" stroke-width=".75"/>
        <line x1="163.026" y1="208.099" x2="159.198" y2="213.265" fill="none" stroke="#231f20" stroke-miterlimit="10" stroke-width=".75"/>
      </g>
      <g>
        <line x1="194.106" y1="217.426" x2="181.405" y2="230.337" fill="none" stroke="#231f20" stroke-miterlimit="10" stroke-width=".75"/>
        <path d="m207.667,239.113c-3.348,3.018-6.697,6.036-10.045,9.054" fill="none" stroke="#231f20" stroke-miterlimit="10" stroke-width=".75"/>
        <line x1="189.437" y1="229.637" x2="184.849" y2="234.141" fill="none" stroke="#231f20" stroke-miterlimit="10" stroke-width=".75"/>
        <path d="m199.462,239.948c-1.609,1.569-3.218,3.139-4.827,4.708" fill="none" stroke="#231f20" stroke-miterlimit="10" stroke-width=".75"/>
        <path d="m196.01,236.339c-1.564,1.536-3.129,3.072-4.693,4.608" fill="none" stroke="#231f20" stroke-miterlimit="10" stroke-width=".75"/>
        <line x1="192.603" y1="232.898" x2="188.094" y2="237.482" fill="none" stroke="#231f20" stroke-miterlimit="10" stroke-width=".75"/>
      </g>
      <g>
        <line x1="222.083" y1="246.461" x2="207.708" y2="257.479" fill="none" stroke="#231f20" stroke-miterlimit="10" stroke-width=".75"/>
        <path d="m232.493,269.824c-3.736,2.523-7.471,5.046-11.207,7.568" fill="none" stroke="#231f20" stroke-miterlimit="10" stroke-width=".75"/>
        <line x1="215.759" y1="257.904" x2="210.589" y2="261.725" fill="none" stroke="#231f20" stroke-miterlimit="10" stroke-width=".75"/>
        <path d="m224.252,269.51c-1.812,1.33-3.623,2.66-5.435,3.99" fill="none" stroke="#231f20" stroke-miterlimit="10" stroke-width=".75"/>
        <path d="m221.335,265.455c-1.763,1.303-3.526,2.607-5.289,3.91" fill="none" stroke="#231f20" stroke-miterlimit="10" stroke-width=".75"/>
        <line x1="218.441" y1="261.574" x2="213.338" y2="265.485" fill="none" stroke="#231f20" stroke-miterlimit="10" stroke-width=".75"/>
      </g>
      <g>
        <line x1="245.746" y1="279.107" x2="229.978" y2="288.017" fill="none" stroke="#231f20" stroke-miterlimit="10" stroke-width=".75"/>
        <path d="m252.804,303.692c-4.05,1.978-8.101,3.957-12.151,5.935" fill="none" stroke="#231f20" stroke-miterlimit="10" stroke-width=".75"/>
        <line x1="237.892" y1="289.558" x2="232.24" y2="292.623" fill="none" stroke="#231f20" stroke-miterlimit="10" stroke-width=".75"/>
        <path d="m244.687,302.233c-1.979,1.065-3.958,2.13-5.937,3.195" fill="none" stroke="#231f20" stroke-miterlimit="10" stroke-width=".75"/>
        <path d="m242.363,297.812c-1.927,1.045-3.854,2.091-5.781,3.136" fill="none" stroke="#231f20" stroke-miterlimit="10" stroke-width=".75"/>
        <line x1="240.037" y1="293.566" x2="234.439" y2="296.729" fill="none" stroke="#231f20" stroke-miterlimit="10" stroke-width=".75"/>
      </g>
      <g>
        <line x1="264.637" y1="314.728" x2="247.782" y2="321.357" fill="none" stroke="#231f20" stroke-miterlimit="10" stroke-width=".75"/>
        <path d="m268.204,340.056c-4.286,1.395-8.573,2.791-12.859,4.186" fill="none" stroke="#231f20" stroke-miterlimit="10" stroke-width=".75"/>
        <line x1="255.404" y1="323.985" x2="249.381" y2="326.233" fill="none" stroke="#231f20" stroke-miterlimit="10" stroke-width=".75"/>
        <path d="m260.369,337.482c-2.108.779-4.216,1.558-6.324,2.338" fill="none" stroke="#231f20" stroke-miterlimit="10" stroke-width=".75"/>
        <path d="m258.683,332.78c-2.054.767-4.108,1.534-6.162,2.301" fill="none" stroke="#231f20" stroke-miterlimit="10" stroke-width=".75"/>
        <line x1="256.97" y1="328.252" x2="250.987" y2="330.605" fill="none" stroke="#231f20" stroke-miterlimit="10" stroke-width=".75"/>
      </g>
      <g>
        <line x1="278.386" y1="352.632" x2="260.772" y2="356.851" fill="none" stroke="#231f20" stroke-miterlimit="10" stroke-width=".75"/>
        <path d="m278.393,378.21c-4.439.785-8.878,1.57-13.317,2.356" fill="none" stroke="#231f20" stroke-miterlimit="10" stroke-width=".75"/>
        <line x1="267.955" y1="360.514" x2="261.677" y2="361.902" fill="none" stroke="#231f20" stroke-miterlimit="10" stroke-width=".75"/>
        <path d="m270.993,374.57c-2.196.478-4.392.957-6.588,1.435" fill="none" stroke="#231f20" stroke-miterlimit="10" stroke-width=".75"/>
        <path d="m269.977,369.68c-2.141.474-4.281.947-6.422,1.421" fill="none" stroke="#231f20" stroke-miterlimit="10" stroke-width=".75"/>
        <line x1="268.912" y1="364.957" x2="262.659" y2="366.455" fill="none" stroke="#231f20" stroke-miterlimit="10" stroke-width=".75"/>
      </g>
      <g>
        <line x1="286.724" y1="392.08" x2="268.695" y2="393.807" fill="none" stroke="#231f20" stroke-miterlimit="10" stroke-width=".75"/>
        <path d="m283.172,417.411c-4.505.16-9.01.32-13.515.479" fill="none" stroke="#231f20" stroke-miterlimit="10" stroke-width=".75"/>
        <line x1="275.298" y1="398.434" x2="268.888" y2="398.935" fill="none" stroke="#231f20" stroke-miterlimit="10" stroke-width=".75"/>
        <path d="m276.35,412.777c-2.241.168-4.482.336-6.724.504" fill="none" stroke="#231f20" stroke-miterlimit="10" stroke-width=".75"/>
        <path d="m276.025,407.792c-2.186.171-4.371.342-6.557.513" fill="none" stroke="#231f20" stroke-miterlimit="10" stroke-width=".75"/>
        <line x1="275.627" y1="402.967" x2="269.227" y2="403.58" fill="none" stroke="#231f20" stroke-miterlimit="10" stroke-width=".75"/>
      </g>
      <line x1="289.493" y1="432.305" x2="271.399" y2="431.506" fill="none" stroke="#231f20" stroke-miterlimit="10" stroke-width=".75"/>
    </g>
    <g>
      <g>
        <line x1="185.696" y1="311.588" x2="171.374" y2="320.181" fill="#e5e5e5" stroke="#221f1f" stroke-miterlimit="10" stroke-width=".5"/>
        <path d="m173.146,323.481c1.851-1.016,3.702-2.032,5.553-3.048" fill="#e5e5e5" stroke="#221f1f" stroke-miterlimit="10" stroke-width=".5"/>
        <path d="m174.743,326.455c1.851-1.016,3.702-2.032,5.553-3.048" fill="#e5e5e5" stroke="#221f1f" stroke-miterlimit="10" stroke-width=".5"/>
        <path d="m176.447,329.518c1.855-.983,3.71-1.966,5.565-2.949" fill="#e5e5e5" stroke="#221f1f" stroke-miterlimit="10" stroke-width=".5"/>
        <path d="m178.078,332.556c1.855-.983,3.71-1.966,5.565-2.949" fill="#e5e5e5" stroke="#221f1f" stroke-miterlimit="10" stroke-width=".5"/>
        <path d="m181.463,338.898c1.886-.95,3.771-1.9,5.657-2.85" fill="#e5e5e5" stroke="#221f1f" stroke-miterlimit="10" stroke-width=".5"/>
        <path d="m182.994,342c1.886-.95,3.771-1.9,5.657-2.85" fill="#e5e5e5" stroke="#221f1f" stroke-miterlimit="10" stroke-width=".5"/>
        <path d="m184.61,345.162c1.889-.917,3.777-1.834,5.666-2.751" fill="#e5e5e5" stroke="#221f1f" stroke-miterlimit="10" stroke-width=".5"/>
        <path d="m186.133,348.255c1.889-.917,3.777-1.834,5.666-2.751" fill="#e5e5e5" stroke="#221f1f" stroke-miterlimit="10" stroke-width=".5"/>
        <path d="m179.805,335.809c3.872-2.092,7.743-4.184,11.615-6.276" fill="#e5e5e5" stroke="#221f1f" stroke-miterlimit="10" stroke-width=".5"/>
      </g>
      <g>
        <line x1="206.745" y1="354.163" x2="190.91" y2="359.476" fill="#e5e5e5" stroke="#221f1f" stroke-miterlimit="10" stroke-width=".5"/>
        <path d="m191.931,363.079c2.026-.594,4.052-1.189,6.079-1.783" fill="#e5e5e5" stroke="#221f1f" stroke-miterlimit="10" stroke-width=".5"/>
        <path d="m192.852,366.327c2.026-.594,4.052-1.189,6.079-1.783" fill="#e5e5e5" stroke="#221f1f" stroke-miterlimit="10" stroke-width=".5"/>
        <path d="m193.857,369.685c2.023-.561,4.046-1.122,6.069-1.683" fill="#e5e5e5" stroke="#221f1f" stroke-miterlimit="10" stroke-width=".5"/>
        <path d="m194.797,373.002c2.023-.561,4.046-1.122,6.069-1.683" fill="#e5e5e5" stroke="#221f1f" stroke-miterlimit="10" stroke-width=".5"/>
        <path d="m196.74,379.924c2.046-.523,4.092-1.045,6.138-1.568" fill="#e5e5e5" stroke="#221f1f" stroke-miterlimit="10" stroke-width=".5"/>
        <path d="m197.568,383.283c2.046-.523,4.092-1.045,6.138-1.568" fill="#e5e5e5" stroke="#221f1f" stroke-miterlimit="10" stroke-width=".5"/>
        <path d="m198.466,386.718c2.042-.489,4.083-.979,6.125-1.468" fill="#e5e5e5" stroke="#221f1f" stroke-miterlimit="10" stroke-width=".5"/>
        <path d="m199.289,390.066c2.042-.489,4.083-.979,6.125-1.468" fill="#e5e5e5" stroke="#221f1f" stroke-miterlimit="10" stroke-width=".5"/>
        <path d="m195.785,376.551c4.231-1.211,8.462-2.422,12.693-3.632" fill="#e5e5e5" stroke="#221f1f" stroke-miterlimit="10" stroke-width=".5"/>
      </g>
      <g>
        <line x1="218.149" y1="400.267" x2="201.543" y2="402.052" fill="#e5e5e5" stroke="#221f1f" stroke-miterlimit="10" stroke-width=".5"/>
        <path d="m201.765,405.79c2.107-.145,4.213-.29,6.32-.435" fill="#e5e5e5" stroke="#221f1f" stroke-miterlimit="10" stroke-width=".5"/>
        <path d="m201.966,409.161c2.107-.145,4.213-.29,6.32-.435" fill="#e5e5e5" stroke="#221f1f" stroke-miterlimit="10" stroke-width=".5"/>
        <path d="m202.226,412.656c2.096-.113,4.193-.226,6.289-.339" fill="#e5e5e5" stroke="#221f1f" stroke-miterlimit="10" stroke-width=".5"/>
        <path d="m202.431,416.097c2.096-.113,4.193-.226,6.289-.339" fill="#e5e5e5" stroke="#221f1f" stroke-miterlimit="10" stroke-width=".5"/>
        <path d="m202.84,423.276c2.11-.071,4.221-.141,6.331-.212" fill="#e5e5e5" stroke="#221f1f" stroke-miterlimit="10" stroke-width=".5"/>
        <path d="m202.927,426.734c2.11-.071,4.221-.141,6.331-.212" fill="#e5e5e5" stroke="#221f1f" stroke-miterlimit="10" stroke-width=".5"/>
        <path d="m203.066,430.282c2.099-.039,4.198-.078,6.297-.117" fill="#e5e5e5" stroke="#221f1f" stroke-miterlimit="10" stroke-width=".5"/>
        <path d="m202.633,419.775c4.392-.273,8.785-.546,13.177-.819" fill="#e5e5e5" stroke="#221f1f" stroke-miterlimit="10" stroke-width=".5"/>
      </g>
      <g>
        <path d="m5.081,227.243c.044-2.111.088-4.222.132-6.333" fill="#e5e5e5" stroke="#221f1f" stroke-miterlimit="10" stroke-width=".5"/>
        <path d="m8.539,227.343c.044-2.111.088-4.222.132-6.333" fill="#e5e5e5" stroke="#221f1f" stroke-miterlimit="10" stroke-width=".5"/>
        <path d="m12.089,227.397c.075-2.098.149-4.196.224-6.294" fill="#e5e5e5" stroke="#221f1f" stroke-miterlimit="10" stroke-width=".5"/>
        <path d="m15.535,227.5c.075-2.098.149-4.196.224-6.294" fill="#e5e5e5" stroke="#221f1f" stroke-miterlimit="10" stroke-width=".5"/>
        <path d="m1.575,227.26c-.035-4.401-.07-8.801-.104-13.202" fill="#e5e5e5" stroke="#221f1f" stroke-miterlimit="10" stroke-width=".5"/>
      </g>
      <g>
        <line x1="30.41" y1="212.056" x2="27.687" y2="228.535" fill="#e5e5e5" stroke="#221f1f" stroke-miterlimit="10" stroke-width=".5"/>
        <path d="m31.349,229.321c.424-2.069.848-4.137,1.272-6.206" fill="#e5e5e5" stroke="#221f1f" stroke-miterlimit="10" stroke-width=".5"/>
        <path d="m34.65,230.029c.424-2.069.848-4.137,1.272-6.206" fill="#e5e5e5" stroke="#221f1f" stroke-miterlimit="10" stroke-width=".5"/>
        <path d="m38.087,230.714c.452-2.05.904-4.101,1.356-6.151" fill="#e5e5e5" stroke="#221f1f" stroke-miterlimit="10" stroke-width=".5"/>
        <path d="m41.458,231.437c.452-2.05.904-4.101,1.356-6.151" fill="#e5e5e5" stroke="#221f1f" stroke-miterlimit="10" stroke-width=".5"/>
        <path d="m48.484,232.963c.497-2.052.993-4.105,1.49-6.157" fill="#e5e5e5" stroke="#221f1f" stroke-miterlimit="10" stroke-width=".5"/>
        <path d="m51.839,233.804c.497-2.052.993-4.105,1.49-6.157" fill="#e5e5e5" stroke="#221f1f" stroke-miterlimit="10" stroke-width=".5"/>
        <path d="m55.295,234.62c.524-2.033,1.048-4.066,1.572-6.099" fill="#e5e5e5" stroke="#221f1f" stroke-miterlimit="10" stroke-width=".5"/>
        <path d="m58.639,235.461c.524-2.033,1.048-4.066,1.572-6.099" fill="#e5e5e5" stroke="#221f1f" stroke-miterlimit="10" stroke-width=".5"/>
        <path d="m45.056,232.226c.912-4.305,1.824-8.61,2.736-12.916" fill="#e5e5e5" stroke="#221f1f" stroke-miterlimit="10" stroke-width=".5"/>
      </g>
      <g>
        <line x1="76.485" y1="223.576" x2="70.284" y2="239.084" fill="#e5e5e5" stroke="#221f1f" stroke-miterlimit="10" stroke-width=".5"/>
        <path d="m73.691,240.639c.859-1.929,1.717-3.858,2.576-5.787" fill="#e5e5e5" stroke="#221f1f" stroke-miterlimit="10" stroke-width=".5"/>
        <path d="m76.763,242.04c.859-1.929,1.717-3.858,2.576-5.787" fill="#e5e5e5" stroke="#221f1f" stroke-miterlimit="10" stroke-width=".5"/>
        <path d="m79.973,243.448c.882-1.905,1.764-3.81,2.646-5.716" fill="#e5e5e5" stroke="#221f1f" stroke-miterlimit="10" stroke-width=".5"/>
        <path d="m83.109,244.879c.882-1.905,1.764-3.81,2.646-5.716" fill="#e5e5e5" stroke="#221f1f" stroke-miterlimit="10" stroke-width=".5"/>
        <path d="m89.643,247.879c.926-1.898,1.852-3.795,2.779-5.693" fill="#e5e5e5" stroke="#221f1f" stroke-miterlimit="10" stroke-width=".5"/>
        <path d="m92.739,249.422c.926-1.898,1.852-3.795,2.779-5.693" fill="#e5e5e5" stroke="#221f1f" stroke-miterlimit="10" stroke-width=".5"/>
        <path d="m95.939,250.962c.949-1.873,1.897-3.746,2.846-5.619" fill="#e5e5e5" stroke="#221f1f" stroke-miterlimit="10" stroke-width=".5"/>
        <path d="m99.023,252.502c.949-1.873,1.897-3.746,2.846-5.619" fill="#e5e5e5" stroke="#221f1f" stroke-miterlimit="10" stroke-width=".5"/>
        <path d="m86.453,246.423c1.816-4.008,3.632-8.017,5.449-12.025" fill="#e5e5e5" stroke="#221f1f" stroke-miterlimit="10" stroke-width=".5"/>
      </g>
      <g>
        <line x1="119.007" y1="244.731" x2="109.616" y2="258.544" fill="#e5e5e5" stroke="#221f1f" stroke-miterlimit="10" stroke-width=".5"/>
        <path d="m112.61,260.794c1.253-1.699,2.507-3.399,3.76-5.098" fill="#e5e5e5" stroke="#221f1f" stroke-miterlimit="10" stroke-width=".5"/>
        <path d="m115.309,262.823c1.253-1.699,2.507-3.399,3.76-5.098" fill="#e5e5e5" stroke="#221f1f" stroke-miterlimit="10" stroke-width=".5"/>
        <path d="m118.141,264.888c1.271-1.671,2.542-3.342,3.813-5.013" fill="#e5e5e5" stroke="#221f1f" stroke-miterlimit="10" stroke-width=".5"/>
        <path d="m120.897,266.96c1.271-1.671,2.542-3.342,3.813-5.013" fill="#e5e5e5" stroke="#221f1f" stroke-miterlimit="10" stroke-width=".5"/>
        <path d="m126.633,271.295c1.313-1.654,2.625-3.308,3.938-4.962" fill="#e5e5e5" stroke="#221f1f" stroke-miterlimit="10" stroke-width=".5"/>
        <path d="m129.324,273.468c1.313-1.654,2.625-3.308,3.938-4.962" fill="#e5e5e5" stroke="#221f1f" stroke-miterlimit="10" stroke-width=".5"/>
        <path d="m132.119,275.659c1.329-1.625,2.658-3.25,3.987-4.875" fill="#e5e5e5" stroke="#221f1f" stroke-miterlimit="10" stroke-width=".5"/>
        <path d="m134.799,277.826c1.329-1.625,2.658-3.25,3.987-4.875" fill="#e5e5e5" stroke="#221f1f" stroke-miterlimit="10" stroke-width=".5"/>
        <path d="m123.83,269.187c2.635-3.524,5.271-7.049,7.906-10.573" fill="#e5e5e5" stroke="#221f1f" stroke-miterlimit="10" stroke-width=".5"/>
      </g>
      <g>
        <line x1="155.987" y1="274.533" x2="143.847" y2="286.004" fill="#e5e5e5" stroke="#221f1f" stroke-miterlimit="10" stroke-width=".5"/>
        <path d="m146.287,288.845c1.589-1.39,3.179-2.78,4.768-4.171" fill="#e5e5e5" stroke="#221f1f" stroke-miterlimit="10" stroke-width=".5"/>
        <path d="m148.486,291.407c1.589-1.39,3.179-2.78,4.768-4.171" fill="#e5e5e5" stroke="#221f1f" stroke-miterlimit="10" stroke-width=".5"/>
        <path d="m150.808,294.032c1.6-1.359,3.201-2.718,4.801-4.076" fill="#e5e5e5" stroke="#221f1f" stroke-miterlimit="10" stroke-width=".5"/>
        <path d="m153.054,296.648c1.6-1.359,3.201-2.718,4.801-4.076" fill="#e5e5e5" stroke="#221f1f" stroke-miterlimit="10" stroke-width=".5"/>
        <path d="m157.724,302.115c1.637-1.333,3.275-2.667,4.912-4" fill="#e5e5e5" stroke="#221f1f" stroke-miterlimit="10" stroke-width=".5"/>
        <path d="m159.886,304.815c1.637-1.333,3.275-2.667,4.912-4" fill="#e5e5e5" stroke="#221f1f" stroke-miterlimit="10" stroke-width=".5"/>
        <path d="m162.144,307.556c1.647-1.301,3.295-2.603,4.942-3.904" fill="#e5e5e5" stroke="#221f1f" stroke-miterlimit="10" stroke-width=".5"/>
        <path d="m164.296,310.249c1.647-1.301,3.295-2.603,4.942-3.904" fill="#e5e5e5" stroke="#221f1f" stroke-miterlimit="10" stroke-width=".5"/>
        <path d="m155.441,299.454c3.331-2.875,6.663-5.751,9.994-8.626" fill="#e5e5e5" stroke="#221f1f" stroke-miterlimit="10" stroke-width=".5"/>
      </g>
    </g>
  </g>
  <g opacity=".75">
    <g>
      <g>
        <path d="m621.829,466.207c-.554-4.559-1.258-9.033-1.494-13.487-.085-1.111-.17-2.217-.255-3.319l-.127-1.65c-.03-.549-.032-1.099-.049-1.647-.056-2.193-.111-4.368-.166-6.526l-.042-1.615.037-1.609c.027-1.07.055-2.136.082-3.198.027-1.062.053-2.119.08-3.172.02-1.053.046-2.102.147-3.142.345-4.162.537-8.27,1.144-12.265,1.989-16.026,5.808-30.675,10.832-43.632,4.976-12.982,10.959-24.341,17.22-34.141,6.284-9.792,12.767-18.099,19.055-25.021,12.62-13.832,23.892-22.502,31.57-27.938,3.805-2.792,6.868-4.593,8.85-5.889.998-.637,1.748-1.115,2.249-1.434.505-.312.768-.45.768-.45" fill="none" stroke="#231f20" stroke-miterlimit="10" stroke-width=".25"/>
        <path d="m619.375,466.578c-.563-4.619-1.274-9.153-1.514-13.664-.086-1.125-.172-2.246-.257-3.362l-.128-1.671c-.031-.557-.033-1.114-.05-1.669-.057-2.221-.113-4.425-.168-6.611l-.042-1.636.037-1.63c.028-1.084.055-2.164.083-3.239.027-1.075.054-2.146.081-3.213.02-1.067.047-2.129.149-3.183.348-4.217.545-8.379,1.158-12.426,2.016-16.238,5.887-31.082,10.976-44.212,5.042-13.155,11.104-24.664,17.448-34.593,6.367-9.921,12.935-18.336,19.305-25.348,12.784-14.013,24.203-22.795,31.981-28.302,3.856-2.827,6.957-4.654,8.965-5.965,1.012-.645,1.771-1.129,2.278-1.453.511-.316.778-.456.778-.456" fill="none" stroke="#231f20" stroke-miterlimit="10" stroke-width=".25"/>
      </g>
      <g>
        <path d="m722.849,613.11c-2.117-1.078-4.219-2.148-6.304-3.21-2.06-1.109-4.056-2.299-6.063-3.431-.997-.578-2.004-1.129-2.981-1.722-.964-.614-1.924-1.226-2.881-1.836-1.901-1.237-3.838-2.388-5.666-3.67-1.823-1.289-3.631-2.567-5.425-3.835l-1.342-.949-1.294-1.003c-.858-.671-1.713-1.338-2.565-2.003-3.459-2.594-6.629-5.427-9.799-8.146-12.473-11.124-22.598-23.067-30.821-34.854-8.227-11.806-14.411-23.57-19.13-34.641-4.706-11.09-7.855-21.527-10.102-30.929-4.451-18.851-5.229-33.55-5.258-43.283-.015-.61-.029-1.2-.042-1.772.014-.572.028-1.125.042-1.659.027-1.068.052-2.06.075-2.976.047-1.833.086-3.362.117-4.586.015-1.225.141-2.14.17-2.753.047-.612.07-.919.07-.919" fill="none" stroke="#231f20" stroke-miterlimit="10" stroke-width=".25"/>
        <path d="m721.756,615.338c-2.144-1.092-4.272-2.176-6.384-3.251-2.086-1.123-4.108-2.327-6.14-3.474-1.009-.585-2.029-1.144-3.019-1.744-.976-.622-1.949-1.241-2.918-1.858-1.925-1.252-3.886-2.419-5.737-3.716-1.846-1.305-3.677-2.599-5.493-3.883l-1.359-.962-1.31-1.016c-.869-.679-1.735-1.355-2.597-2.028-3.502-2.627-6.713-5.495-9.922-8.249-12.63-11.264-22.883-23.357-31.21-35.294-8.331-11.956-14.594-23.87-19.374-35.083-4.766-11.232-7.957-21.804-10.233-31.326-4.508-19.094-5.294-33.98-5.325-43.835-.015-.617-.029-1.215-.042-1.794.014-.579.028-1.139.042-1.68.027-1.081.053-2.086.076-3.014.048-1.856.087-3.404.119-4.644.015-1.241.143-2.167.172-2.787.047-.62.071-.93.071-.93" fill="none" stroke="#231f20" stroke-miterlimit="10" stroke-width=".25"/>
        <path d="m628.179,362.947c7.4-17.516,16.768-32.922,27.207-45.959,10.337-13.137,21.705-23.913,33.03-32.759,11.337-8.854,22.69-15.749,33.467-21.099,10.785-5.357,20.988-9.171,30.221-12.043,18.565-5.514,33.166-7.235,42.872-7.932,4.86-.454,8.533-.418,10.98-.506,2.448-.061,3.678-.092,3.678-.092" fill="none" stroke="#231f20" stroke-miterlimit="10" stroke-width=".25"/>
        <path d="m625.889,361.99c7.494-17.741,16.983-33.342,27.552-46.544,10.468-13.303,21.978-24.214,33.446-33.172,11.479-8.965,22.976-15.947,33.889-21.365,10.921-5.425,21.254-9.288,30.604-12.196,18.8-5.585,33.585-7.327,43.412-8.033,4.92-.458,8.639-.424,11.116-.512,2.479-.061,3.723-.092,3.723-.092" fill="none" stroke="#231f20" stroke-miterlimit="10" stroke-width=".25"/>
      </g>
    </g>
    <g>
      <g>
        <path d="m578.385,472.498c-.685-5.623-1.561-11.14-1.853-16.632-.105-1.37-.21-2.734-.315-4.093l-.157-2.034c-.04-.677-.041-1.356-.063-2.032-.069-2.704-.138-5.387-.206-8.048l-.052-1.992.046-1.984c.034-1.32.068-2.635.101-3.944.033-1.309.066-2.613.099-3.912.023-1.299.058-2.592.183-3.875.425-5.133.669-10.199,1.419-15.126.333-2.467.595-4.923.977-7.338.435-2.407.866-4.793,1.293-7.158.213-1.182.425-2.36.636-3.531.27-1.16.538-2.314.806-3.463.536-2.298,1.066-4.575,1.592-6.831.538-2.253,1.245-4.439,1.849-6.63.652-2.177,1.192-4.367,1.916-6.476.722-2.11,1.436-4.199,2.144-6.268.353-1.035.705-2.064,1.055-3.088.365-1.019.79-2.009,1.179-3.008,6.172-15.999,13.591-29.989,21.352-42.053,7.784-12.058,15.83-22.263,23.599-30.788,15.634-16.997,29.56-27.659,39.058-34.328,4.7-3.435,8.495-5.63,10.938-7.231,1.233-.783,2.159-1.371,2.777-1.763.636-.362.955-.544.955-.544" fill="none" stroke="#231f20" stroke-miterlimit="10" stroke-width=".25"/>
        <path d="m575.932,472.872c-.694-5.683-1.577-11.26-1.874-16.811-.106-1.384-.213-2.763-.318-4.137l-.158-2.056c-.041-.685-.041-1.37-.064-2.053-.07-2.733-.139-5.444-.208-8.134l-.052-2.013.046-2.005c.034-1.334.068-2.662.102-3.986.034-1.323.067-2.641.101-3.953.024-1.313.06-2.62.185-3.916.428-5.189.677-10.308,1.434-15.288.337-2.493.602-4.976.988-7.417.439-2.433.875-4.845,1.306-7.236.216-1.195.43-2.385.644-3.57.272-1.172.544-2.339.814-3.501.542-2.323,1.078-4.625,1.61-6.905.544-2.277,1.258-4.488,1.869-6.702.659-2.201,1.206-4.414,1.938-6.546.729-2.133,1.452-4.245,2.167-6.336.357-1.046.713-2.086,1.067-3.122.369-1.03.798-2.031,1.191-3.04,6.239-16.173,13.738-30.313,21.582-42.506,7.867-12.187,15.999-22.499,23.85-31.115,1.943-2.172,3.96-4.153,5.84-6.139.949-.984,1.883-1.953,2.801-2.905.962-.908,1.908-1.8,2.838-2.677,1.859-1.754,3.652-3.446,5.38-5.076,1.804-1.546,3.539-3.033,5.206-4.462,3.279-2.924,6.522-5.321,9.406-7.585,2.852-2.308,5.602-4.145,7.999-5.847,4.75-3.47,8.584-5.69,11.053-7.307,1.246-.791,2.182-1.385,2.807-1.781.643-.366.965-.55.965-.55" fill="none" stroke="#231f20" stroke-miterlimit="10" stroke-width=".25"/>
      </g>
      <g>
        <path d="m704.138,651.957c-2.598-1.317-5.176-2.624-7.734-3.921-2.538-1.335-4.98-2.803-7.444-4.181-1.226-.701-2.447-1.399-3.664-2.094-1.183-.75-2.362-1.498-3.536-2.243-2.336-1.507-4.703-2.928-6.96-4.474-4.466-3.162-8.936-6.171-13.051-9.511-1.045-.813-2.086-1.622-3.122-2.428l-1.551-1.207-1.487-1.272c-1.977-1.695-3.937-3.375-5.88-5.041l-1.453-1.249-1.387-1.309c-.923-.871-1.842-1.737-2.756-2.6-.915-.863-1.825-1.723-2.732-2.578l-1.357-1.281-1.294-1.332c-3.409-3.577-6.872-6.984-9.934-10.638-1.565-1.796-3.115-3.575-4.651-5.337-1.454-1.831-2.894-3.644-4.32-5.439-2.93-3.532-5.435-7.274-8.035-10.832-10.123-14.442-17.769-28.827-23.573-42.39-5.791-13.583-9.687-26.365-12.457-37.885-5.486-23.099-6.455-41.117-6.487-53.048-.018-.747-.035-1.471-.052-2.172.018-.701.035-1.379.052-2.033.033-1.309.064-2.525.093-3.648.058-2.246.106-4.121.144-5.622.021-1.502.175-2.623.211-3.374.057-.75.086-1.126.086-1.126" fill="none" stroke="#231f20" stroke-miterlimit="10" stroke-width=".25"/>
        <path d="m703.052,654.188c-2.624-1.33-5.229-2.651-7.814-3.961-2.564-1.349-5.031-2.831-7.521-4.224-1.239-.708-2.472-1.413-3.701-2.116-1.196-.758-2.386-1.513-3.572-2.265-2.36-1.522-4.751-2.958-7.031-4.52-4.513-3.193-9.027-6.235-13.185-9.608-1.056-.821-2.107-1.639-3.154-2.454l-1.567-1.219-1.502-1.285c-1.997-1.712-3.977-3.41-5.94-5.092l-1.467-1.262-1.402-1.322c-.932-.88-1.861-1.755-2.785-2.627-.924-.872-1.844-1.74-2.76-2.605l-1.37-1.294-1.307-1.346c-3.445-3.613-6.942-7.056-10.036-10.747-1.581-1.814-3.147-3.612-4.698-5.392-1.469-1.849-2.924-3.681-4.365-5.495-2.959-3.569-5.492-7.349-8.118-10.944-10.228-14.592-17.954-29.127-23.819-42.833-5.852-13.726-9.79-26.642-12.589-38.284-5.543-23.343-6.521-41.55-6.555-53.603-.018-.755-.035-1.486-.052-2.195.018-.708.035-1.393.052-2.054.034-1.323.065-2.551.094-3.686.058-2.27.107-4.163.146-5.68.021-1.517.176-2.65.213-3.409.058-.758.087-1.138.087-1.138" fill="none" stroke="#231f20" stroke-miterlimit="10" stroke-width=".25"/>
        <path d="m587.721,345.745c.508-1.366,1.166-2.662,1.751-3.984.601-1.315,1.199-2.625,1.795-3.929.597-1.304,1.192-2.603,1.785-3.898.654-1.264,1.306-2.524,1.955-3.778,1.32-2.497,2.539-5.024,3.913-7.441,1.397-2.404,2.783-4.79,4.158-7.156,5.72-9.325,11.671-18.121,18.159-26.046,12.717-16.067,26.713-29.21,40.62-40.017,13.929-10.809,27.87-19.217,41.097-25.739,13.236-6.529,25.753-11.174,37.076-14.671,22.765-6.72,40.66-8.814,52.558-9.662,5.957-.554,10.459-.508,13.458-.615,3.001-.075,4.508-.112,4.508-.112" fill="none" stroke="#231f20" stroke-miterlimit="10" stroke-width=".25"/>
        <path d="m585.434,344.782c.514-1.38,1.178-2.691,1.769-4.026.607-1.329,1.211-2.652,1.814-3.971.604-1.318,1.205-2.631,1.804-3.938.661-1.278,1.319-2.55,1.974-3.818,1.333-2.524,2.566-5.077,3.955-7.519,1.411-2.43,2.812-4.84,4.201-7.231,5.779-9.423,11.793-18.309,18.347-26.316,12.849-16.232,26.987-29.511,41.037-40.428,14.072-10.92,28.156-19.414,41.519-26.003,13.372-6.597,26.018-11.29,37.457-14.821,22.999-6.791,41.078-8.905,53.095-9.762,6.017-.559,10.564-.513,13.594-.622,3.031-.075,4.553-.113,4.553-.113" fill="none" stroke="#231f20" stroke-miterlimit="10" stroke-width=".25"/>
      </g>
    </g>
    <g>
      <g>
        <path d="m534.942,478.791c-.815-6.687-1.865-13.247-2.213-19.779-.126-1.629-.251-3.251-.376-4.867l-.187-2.419c-.05-.806-.049-1.612-.076-2.416-.082-3.216-.164-6.406-.245-9.571l-.062-2.369.054-2.359c.041-1.57.081-3.133.121-4.69.04-1.557.079-3.107.119-4.651l.058-2.312c.027-.768.11-1.532.161-2.296.504-6.105.801-12.129,1.695-17.987.399-2.933.707-5.854,1.169-8.726.518-2.863,1.032-5.7,1.542-8.512.254-1.406.507-2.806.759-4.199.323-1.379.644-2.751.964-4.117.639-2.733,1.272-5.44,1.899-8.123.652-2.676,1.488-5.278,2.211-7.882.374-1.299.746-2.592,1.116-3.879.371-1.286.718-2.573,1.176-3.819.86-2.508,1.713-4.992,2.556-7.452.421-1.23.841-2.454,1.258-3.672.449-1.206.946-2.387,1.412-3.573,7.37-19.016,16.225-35.638,25.486-49.965,9.285-14.323,18.894-26.426,28.143-36.555,2.305-2.538,4.673-4.876,6.891-7.207,1.123-1.153,2.208-2.306,3.309-3.406,1.134-1.066,2.249-2.115,3.344-3.145,2.193-2.058,4.309-4.043,6.348-5.957,2.126-1.816,4.171-3.563,6.135-5.241,3.862-3.438,7.698-6.235,11.09-8.902,3.359-2.714,6.611-4.853,9.429-6.859,1.416-.994,2.744-1.926,3.984-2.796,1.224-.894,2.455-1.585,3.542-2.299,2.198-1.39,4.031-2.55,5.5-3.478,1.47-.926,2.574-1.621,3.31-2.085.757-.429,1.137-.644,1.137-.644" fill="none" stroke="#231f20" stroke-miterlimit="10" stroke-width=".25"/>
        <path d="m532.489,479.166c-.825-6.748-1.881-13.368-2.234-19.958-.127-1.644-.253-3.281-.379-4.911l-.188-2.441c-.051-.813-.05-1.627-.077-2.438-.083-3.245-.166-6.464-.247-9.657l-.062-2.39.055-2.38c.041-1.584.081-3.161.122-4.732.04-1.571.08-3.135.12-4.693l.059-2.332c.027-.775.11-1.546.162-2.317.507-6.16.809-12.238,1.71-18.15.402-2.96.714-5.908,1.18-8.805.523-2.889,1.041-5.752,1.555-8.59.257-1.419.512-2.832.767-4.238.326-1.391.65-2.776.973-4.155.645-2.758,1.284-5.49,1.917-8.197.658-2.701,1.501-5.326,2.23-7.954.377-1.311.753-2.616,1.126-3.914.374-1.298.725-2.597,1.187-3.854.868-2.531,1.728-5.038,2.579-7.52.426-1.241.849-2.476,1.27-3.705.453-1.217.954-2.409,1.425-3.606,7.437-19.19,16.373-35.962,25.717-50.418,9.369-14.452,19.064-26.663,28.395-36.881,2.326-2.561,4.714-4.919,6.952-7.271,1.133-1.163,2.228-2.326,3.339-3.436,1.144-1.076,2.269-2.134,3.374-3.173,2.213-2.076,4.348-4.079,6.404-6.009,2.144-1.832,4.207-3.595,6.189-5.288,3.897-3.467,7.766-6.291,11.188-8.981,3.389-2.737,6.67-4.896,9.513-6.92,1.428-1.002,2.769-1.943,4.02-2.821,1.236-.902,2.477-1.599,3.573-2.319,2.217-1.402,4.067-2.572,5.548-3.509,1.483-.934,2.597-1.635,3.34-2.103.764-.433,1.147-.65,1.147-.65" fill="none" stroke="#231f20" stroke-miterlimit="10" stroke-width=".25"/>
      </g>
      <g>
        <path d="m685.426,690.802c-3.078-1.555-6.133-3.099-9.164-4.631-1.534-.731-2.968-1.636-4.445-2.447-1.466-.832-2.926-1.66-4.38-2.485-1.454-.825-2.903-1.647-4.346-2.466-1.402-.886-2.8-1.769-4.191-2.649-2.771-1.777-5.569-3.467-8.255-5.278-5.289-3.744-10.599-7.282-15.477-11.231-1.239-.961-2.473-1.917-3.702-2.87l-1.839-1.426c-.604-.484-1.18-.999-1.77-1.496-2.344-2.003-4.668-3.989-6.972-5.958l-1.724-1.474-1.65-1.542c-1.094-1.029-2.184-2.054-3.269-3.074-1.085-1.02-2.165-2.036-3.24-3.048-1.079-1.007-2.153-2.01-3.151-3.082-4.037-4.235-8.159-8.249-11.791-12.572-1.859-2.121-3.701-4.223-5.525-6.304-1.725-2.165-3.433-4.309-5.125-6.433-3.475-4.178-6.464-8.593-9.542-12.806-12.013-17.081-21.127-34.083-28.011-50.14-6.885-16.072-11.52-31.201-14.817-44.838-6.52-27.347-7.68-48.683-7.716-62.812-.021-.885-.042-1.742-.062-2.572.021-.83.042-1.632.061-2.407.04-1.55.076-2.99.11-4.32.068-2.66.125-4.88.171-6.657.027-1.778.208-3.106.252-3.995.068-.888.103-1.333.103-1.333" fill="none" stroke="#231f20" stroke-miterlimit="10" stroke-width=".25"/>
        <path d="m684.344,693.035c-3.105-1.569-6.186-3.126-9.243-4.671-1.547-.738-2.994-1.65-4.484-2.468-1.479-.839-2.951-1.674-4.418-2.506-1.467-.833-2.928-1.662-4.384-2.488-1.415-.894-2.824-1.784-4.228-2.671-2.795-1.792-5.617-3.497-8.326-5.324-5.335-3.775-10.69-7.346-15.611-11.328-1.25-.969-2.494-1.934-3.733-2.895l-1.855-1.439c-.609-.488-1.19-1.008-1.785-1.509-2.364-2.02-4.708-4.024-7.032-6.01l-1.739-1.487-1.665-1.555c-1.104-1.038-2.203-2.072-3.297-3.101-1.094-1.029-2.183-2.054-3.268-3.074-1.089-1.016-2.172-2.028-3.178-3.108-4.073-4.271-8.229-8.321-11.893-12.681-1.875-2.14-3.733-4.26-5.573-6.36-1.74-2.184-3.463-4.347-5.17-6.489-3.504-4.216-6.521-8.667-9.626-12.918-12.118-17.231-21.313-34.384-28.258-50.583-6.947-16.215-11.624-31.479-14.95-45.239-6.578-27.592-7.747-49.118-7.784-63.369-.021-.893-.042-1.758-.062-2.595.021-.837.042-1.647.061-2.429.04-1.564.077-3.016.111-4.358.069-2.683.127-4.922.173-6.715.028-1.794.21-3.133.254-4.03.069-.896.103-1.345.103-1.345" fill="none" stroke="#231f20" stroke-miterlimit="10" stroke-width=".25"/>
        <path d="m547.262,328.545c.602-1.618,1.398-3.145,2.086-4.712.713-1.556,1.423-3.106,2.131-4.65.711-1.542,1.42-3.079,2.126-4.609.776-1.496,1.55-2.986,2.32-4.471.771-1.484,1.538-2.963,2.303-4.436.777-1.466,1.489-2.96,2.35-4.365,1.658-2.845,3.303-5.667,4.935-8.467,6.807-11.021,13.862-21.431,21.571-30.794,15.097-18.996,31.72-34.507,48.209-47.275,16.522-12.764,33.05-22.686,48.727-30.379,15.688-7.702,30.519-13.177,43.931-17.299,26.965-7.927,48.156-10.394,62.245-11.393,7.053-.655,12.385-.597,15.937-.726,3.553-.088,5.338-.133,5.338-.133" fill="none" stroke="#231f20" stroke-miterlimit="10" stroke-width=".25"/>
        <path d="m544.977,327.578c.608-1.632,1.41-3.174,2.105-4.754.719-1.57,1.436-3.134,2.15-4.692.718-1.556,1.433-3.106,2.146-4.65.783-1.509,1.563-3.013,2.34-4.511.777-1.498,1.552-2.989,2.323-4.475.784-1.479,1.503-2.986,2.371-4.404,1.673-2.87,3.332-5.718,4.978-8.542,6.866-11.119,13.984-21.619,21.76-31.064,15.229-19.161,31.996-34.807,48.627-47.685,16.665-12.874,33.336-22.882,49.149-30.641,15.824-7.769,30.783-13.292,44.312-17.448,27.198-7.997,48.571-10.484,62.78-11.491,7.114-.659,12.49-.603,16.072-.732,3.583-.089,5.383-.133,5.383-.133" fill="none" stroke="#231f20" stroke-miterlimit="10" stroke-width=".25"/>
      </g>
    </g>
  </g>
  <g>
    <polyline points="363.381 180.224 360.572 176.169 573.973 28.362 576.782 32.418" fill="none" stroke="#231f20" stroke-miterlimit="10" stroke-width=".309"/>
    <line x1="389.235" y1="160.771" x2="387.15" y2="157.76" fill="none" stroke="#231f20" stroke-miterlimit="10" stroke-width=".309"/>
    <line x1="415.493" y1="142.585" x2="413.408" y2="139.574" fill="none" stroke="#231f20" stroke-miterlimit="10" stroke-width=".309"/>
    <line x1="441.885" y1="124.305" x2="439.799" y2="121.294" fill="none" stroke="#231f20" stroke-miterlimit="10" stroke-width=".309"/>
    <line x1="469" y1="107.071" x2="466.191" y2="103.015" fill="none" stroke="#231f20" stroke-miterlimit="10" stroke-width=".309"/>
    <line x1="494.534" y1="87.839" x2="492.448" y2="84.828" fill="none" stroke="#231f20" stroke-miterlimit="10" stroke-width=".309"/>
    <line x1="523.069" y1="68.075" x2="520.983" y2="65.064" fill="none" stroke="#231f20" stroke-miterlimit="10" stroke-width=".309"/>
    <line x1="549.326" y1="49.889" x2="547.241" y2="46.878" fill="none" stroke="#231f20" stroke-miterlimit="10" stroke-width=".309"/>
  </g>
  <polyline points="71.166 107.911 65.743 106.855 67.441 98.141 72.864 99.197 74.518 90.71 69.095 89.654 70.784 80.985 76.207 82.042 78.108 72.284 72.685 71.227 79.627 35.599 85.051 36.656 91.984 1.074 86.561 .017 93.494 -35.565 98.066 -34.674" fill="none" stroke="#231f20" stroke-miterlimit="10" stroke-width=".469"/>
  <g>
    <path d="m558.489,138.847c.3.577.076,1.288-.501,1.589-.577.3-1.288.076-1.589-.501-.3-.577-.076-1.288.501-1.589s1.288-.076,1.589.501Z" fill="#231f20" stroke-width="0"/>
    <path d="m562.675,136.669c.3.577.076,1.288-.501,1.589-.577.3-1.288.076-1.589-.501-.3-.577-.076-1.288.501-1.589.577-.3,1.288-.076,1.589.501Z" fill="#231f20" stroke-width="0"/>
    <path d="m566.86,134.491c.3.577.076,1.288-.501,1.589s-1.288.076-1.589-.501-.076-1.288.501-1.589c.577-.3,1.288-.076,1.589.501Z" fill="#231f20" stroke-width="0"/>
    <path d="m571.046,132.313c.3.577.076,1.288-.501,1.589-.577.3-1.288.076-1.589-.501-.3-.577-.076-1.288.501-1.589.577-.3,1.288-.076,1.589.501Z" fill="#231f20" stroke-width="0"/>
    <path d="m575.231,130.135c.3.577.076,1.288-.501,1.589-.577.3-1.288.076-1.589-.501-.3-.577-.076-1.288.501-1.589s1.288-.076,1.589.501Z" fill="#231f20" stroke-width="0"/>
    <path d="m579.417,127.957c.3.577.076,1.288-.501,1.589-.577.3-1.288.076-1.589-.501s-.076-1.288.501-1.589c.577-.3,1.288-.076,1.589.501Z" fill="#231f20" stroke-width="0"/>
    <path d="m583.602,125.779c.3.577.076,1.288-.501,1.589s-1.288.076-1.589-.501c-.3-.577-.076-1.288.501-1.589.577-.3,1.288-.076,1.589.501Z" fill="#231f20" stroke-width="0"/>
    <path d="m587.787,123.601c.3.577.076,1.288-.501,1.589-.577.3-1.288.076-1.589-.501-.3-.577-.076-1.288.501-1.589.577-.3,1.288-.076,1.589.501Z" fill="#231f20" stroke-width="0"/>
    <path d="m591.973,121.423c.3.577.076,1.288-.501,1.589-.577.3-1.288.076-1.589-.501s-.076-1.288.501-1.589,1.288-.076,1.589.501Z" fill="#231f20" stroke-width="0"/>
    <path d="m596.158,119.245c.3.577.076,1.288-.501,1.589-.577.3-1.288.076-1.589-.501-.3-.577-.076-1.288.501-1.589.577-.3,1.288-.076,1.589.501Z" fill="#231f20" stroke-width="0"/>
    <path d="m600.344,117.067c.3.577.076,1.288-.501,1.589s-1.288.076-1.589-.501c-.3-.577-.076-1.288.501-1.589.577-.3,1.288-.076,1.589.501Z" fill="#231f20" stroke-width="0"/>
    <path d="m604.529,114.889c.3.577.076,1.288-.501,1.589-.577.3-1.288.076-1.589-.501s-.076-1.288.501-1.589c.577-.3,1.288-.076,1.589.501Z" fill="#231f20" stroke-width="0"/>
    <path d="m608.715,112.711c.3.577.076,1.288-.501,1.589-.577.3-1.288.076-1.589-.501-.3-.577-.076-1.288.501-1.589s1.288-.076,1.589.501Z" fill="#231f20" stroke-width="0"/>
    <path d="m612.9,110.533c.3.577.076,1.288-.501,1.589-.577.3-1.288.076-1.589-.501-.3-.577-.076-1.288.501-1.589.577-.3,1.288-.076,1.589.501Z" fill="#231f20" stroke-width="0"/>
    <path d="m617.086,108.355c.3.577.076,1.288-.501,1.589s-1.288.076-1.589-.501-.076-1.288.501-1.589c.577-.3,1.288-.076,1.589.501Z" fill="#231f20" stroke-width="0"/>
    <path d="m621.271,106.177c.3.577.076,1.288-.501,1.589-.577.3-1.288.076-1.589-.501-.3-.577-.076-1.288.501-1.589.577-.3,1.288-.076,1.589.501Z" fill="#231f20" stroke-width="0"/>
    <path d="m625.457,103.999c.3.577.076,1.288-.501,1.589-.577.3-1.288.076-1.589-.501-.3-.577-.076-1.288.501-1.589s1.288-.076,1.589.501Z" fill="#231f20" stroke-width="0"/>
    <path d="m629.642,101.821c.3.577.076,1.288-.501,1.589-.577.3-1.288.076-1.589-.501s-.076-1.288.501-1.589c.577-.3,1.288-.076,1.589.501Z" fill="#231f20" stroke-width="0"/>
    <path d="m633.827,99.643c.3.577.076,1.288-.501,1.589s-1.288.076-1.589-.501c-.3-.577-.076-1.288.501-1.589.577-.3,1.288-.076,1.589.501Z" fill="#231f20" stroke-width="0"/>
    <path d="m638.013,97.465c.3.577.076,1.288-.501,1.589-.577.3-1.288.076-1.589-.501-.3-.577-.076-1.288.501-1.589.577-.3,1.288-.076,1.589.501Z" fill="#231f20" stroke-width="0"/>
    <path d="m642.198,95.287c.3.577.076,1.288-.501,1.589-.577.3-1.288.076-1.589-.501s-.076-1.288.501-1.589,1.288-.076,1.589.501Z" fill="#231f20" stroke-width="0"/>
    <path d="m646.384,93.109c.3.577.076,1.288-.501,1.589-.577.3-1.288.076-1.589-.501-.3-.577-.076-1.288.501-1.589.577-.3,1.288-.076,1.589.501Z" fill="#231f20" stroke-width="0"/>
  </g>
  <line x1="141.947" y1="407.881" x2="70.783" y2="420" fill="none" stroke="#221f1f" stroke-miterlimit="10" stroke-width=".5"/>
  <g>
    <rect x="-1692.473" y="-826.288" width="3386.58" height="2514.089" transform="translate(-429.939 431.574) rotate(-90)" fill="none" stroke="#231f20" stroke-linecap="round" stroke-miterlimit="10" stroke-width="7"/>
    <rect x="-1675.506" y="-809.166" width="3353.392" height="2482.402" transform="translate(-430.845 433.225) rotate(-90)" fill="none" stroke="#231f20" stroke-linecap="round" stroke-miterlimit="10" stroke-width="3"/>
    <rect x="-1637.031" y="-773.548" width="3275.615" height="2412.095" transform="translate(-431.722 433.276) rotate(-90)" fill="none" stroke="#231f20" stroke-linecap="round" stroke-miterlimit="10"/>
    <rect x="-1619.163" y="-756.185" width="3239.88" height="2376.261" transform="translate(-431.169 432.723) rotate(-90)" fill="none" stroke="#231f20" stroke-linecap="round" stroke-miterlimit="10"/>
  </g>
  <path d="m221.037,83.724c-.352.449-1.034.502-1.524.119s-.602-1.059-.251-1.508,1.034-.502,1.524-.119.602,1.059.251,1.508Zm-.743,15.056c-.49-.384-1.172-.33-1.524.119s-.239,1.124.251,1.508,1.172.33,1.524-.119.239-1.124-.251-1.508Zm1.841-2.392c-.49-.384-1.172-.33-1.524.119s-.239,1.124.251,1.508,1.172.33,1.524-.119.239-1.124-.251-1.508Zm1.926-2.313c-.49-.384-1.172-.33-1.524.119s-.239,1.124.251,1.508,1.172.33,1.524-.119.239-1.124-.251-1.508Zm1.783-2.292c-.49-.384-1.172-.33-1.524.119s-.239,1.124.251,1.508,1.172.33,1.524-.119.239-1.124-.251-1.508Zm1.805-2.397c-.49-.384-1.172-.33-1.524.119s-.239,1.124.251,1.508,1.172.33,1.524-.119.239-1.124-.251-1.508Zm1.917-2.568c-.49-.384-1.172-.33-1.524.119s-.239,1.124.251,1.508,1.172.33,1.524-.119.239-1.124-.251-1.508Zm-16.251,12.226c.366-.468.299-1.132-.15-1.484s-1.11-.257-1.477.21-.299,1.132.15,1.484,1.11.257,1.477-.21Zm2.507,2.016c.366-.468.299-1.132-.15-1.484s-1.11-.257-1.477.21-.299,1.132.15,1.484,1.11.257,1.477-.21Zm2.478,1.966c.366-.468.299-1.132-.15-1.484s-1.11-.257-1.477.21-.299,1.132.15,1.484,1.11.257,1.477-.21Zm2.572,1.978c.366-.468.299-1.132-.15-1.484s-1.11-.257-1.477.21-.299,1.132.15,1.484,1.11.257,1.477-.21Zm2.349,1.862c.366-.468.299-1.132-.15-1.484s-1.11-.257-1.477.21-.299,1.132.15,1.484,1.11.257,1.477-.21Zm10.013-18.788c.366-.468.299-1.132-.15-1.484s-1.11-.257-1.477.21-.299,1.132.15,1.484,1.11.257,1.477-.21Zm3.067,1.827c.366-.468.299-1.132-.15-1.484s-1.11-.257-1.477.21-.299,1.132.15,1.484,1.11.257,1.477-.21Zm1.168,3.091c.366-.468.299-1.132-.15-1.484s-1.11-.257-1.477.21-.299,1.132.15,1.484,1.11.257,1.477-.21Zm-1.689,2.433c.366-.468.299-1.132-.15-1.484s-1.11-.257-1.477.21-.299,1.132.15,1.484,1.11.257,1.477-.21Zm-6.47-10.375c.366-.468.299-1.132-.15-1.484s-1.11-.257-1.477.21-.299,1.132.15,1.484,1.11.257,1.477-.21Zm-2.436-2.266c.366-.468.299-1.132-.15-1.484s-1.11-.257-1.477.21-.299,1.132.15,1.484,1.11.257,1.477-.21Zm-3.198-.59c.366-.468.299-1.132-.15-1.484s-1.11-.257-1.477.21-.299,1.132.15,1.484,1.11.257,1.477-.21Z" fill="#231f20" stroke-width="0"/>
  <g>
    <path d="m251.445,47.974c.543.358.692,1.089.334,1.632s-1.089.692-1.632.334-.692-1.089-.334-1.632c.358-.543,1.089-.692,1.632-.334Z" fill="#231f20" stroke-width="0"/>
    <path d="m254.057,44.018c.543.358.693,1.089.334,1.632s-1.089.692-1.632.334c-.543-.358-.693-1.089-.334-1.632.359-.543,1.089-.692,1.632-.334Z" fill="#231f20" stroke-width="0"/>
    <path d="m256.669,40.062c.543.358.692,1.089.334,1.632-.358.543-1.089.692-1.632.334-.543-.358-.692-1.089-.334-1.632.358-.543,1.089-.692,1.632-.334Z" fill="#231f20" stroke-width="0"/>
    <path d="m259.281,36.105c.543.358.692,1.089.334,1.632-.358.543-1.089.692-1.632.334s-.692-1.089-.334-1.632,1.089-.692,1.632-.334Z" fill="#231f20" stroke-width="0"/>
    <path d="m261.893,32.149c.543.358.693,1.089.334,1.632-.359.543-1.089.692-1.632.334-.543-.358-.693-1.089-.334-1.632s1.089-.692,1.632-.334Z" fill="#231f20" stroke-width="0"/>
    <path d="m264.505,28.192c.543.358.692,1.089.334,1.632-.358.543-1.089.693-1.632.334-.543-.358-.692-1.089-.334-1.632.358-.543,1.089-.693,1.632-.334Z" fill="#231f20" stroke-width="0"/>
    <path d="m267.117,24.236c.543.359.693,1.089.334,1.632-.358.543-1.089.693-1.632.334s-.693-1.089-.334-1.632c.358-.543,1.089-.693,1.632-.334Z" fill="#231f20" stroke-width="0"/>
    <path d="m269.729,20.279c.543.358.693,1.089.334,1.632-.358.543-1.089.693-1.632.334-.543-.359-.693-1.089-.334-1.632.358-.543,1.089-.693,1.632-.334Z" fill="#231f20" stroke-width="0"/>
    <path d="m272.341,16.323c.543.358.692,1.089.334,1.632s-1.089.693-1.632.334c-.543-.358-.692-1.089-.334-1.632.358-.543,1.089-.692,1.632-.334Z" fill="#231f20" stroke-width="0"/>
    <path d="m274.953,12.366c.543.358.693,1.089.334,1.632s-1.089.692-1.632.334c-.543-.358-.693-1.089-.334-1.632.359-.543,1.089-.692,1.632-.334Z" fill="#231f20" stroke-width="0"/>
    <path d="m277.565,8.41c.543.358.692,1.089.334,1.632s-1.089.692-1.632.334c-.543-.358-.692-1.089-.334-1.632.358-.543,1.089-.692,1.632-.334Z" fill="#231f20" stroke-width="0"/>
    <path d="m280.177,4.454c.543.358.692,1.089.334,1.632-.358.543-1.089.692-1.632.334s-.692-1.089-.334-1.632,1.089-.692,1.632-.334Z" fill="#231f20" stroke-width="0"/>
    <path d="m282.789.497c.543.358.693,1.089.334,1.632-.359.543-1.089.692-1.632.334-.543-.358-.693-1.089-.334-1.632s1.089-.692,1.632-.334Z" fill="#231f20" stroke-width="0"/>
  </g>
  <g>
    <g>
      <g>
        <line x1="119.067" y1="81.19" x2="120.729" y2="76.238" fill="none" stroke="#221f1f" stroke-miterlimit="10" stroke-width=".5"/>
        <line x1="121.434" y1="74.135" x2="123.096" y2="69.183" fill="none" stroke="#221f1f" stroke-miterlimit="10" stroke-width=".5"/>
        <line x1="123.916" y1="67.105" x2="125.578" y2="62.153" fill="none" stroke="#221f1f" stroke-miterlimit="10" stroke-width=".5"/>
        <line x1="126.283" y1="60.05" x2="127.945" y2="55.098" fill="none" stroke="#221f1f" stroke-miterlimit="10" stroke-width=".5"/>
      </g>
      <g>
        <line x1="129.157" y1="52.758" x2="130.819" y2="47.806" fill="none" stroke="#221f1f" stroke-miterlimit="10" stroke-width=".5"/>
        <line x1="131.525" y1="45.703" x2="133.187" y2="40.751" fill="none" stroke="#221f1f" stroke-miterlimit="10" stroke-width=".5"/>
        <line x1="134.006" y1="38.673" x2="135.668" y2="33.721" fill="none" stroke="#221f1f" stroke-miterlimit="10" stroke-width=".5"/>
        <line x1="136.374" y1="31.618" x2="138.036" y2="26.666" fill="none" stroke="#221f1f" stroke-miterlimit="10" stroke-width=".5"/>
      </g>
    </g>
    <g>
      <line x1="139.664" y1="23.251" x2="141.327" y2="18.298" fill="none" stroke="#221f1f" stroke-miterlimit="10" stroke-width=".5"/>
      <line x1="142.032" y1="16.195" x2="143.694" y2="11.243" fill="none" stroke="#221f1f" stroke-miterlimit="10" stroke-width=".5"/>
      <line x1="144.514" y1="9.166" x2="146.176" y2="4.213" fill="none" stroke="#221f1f" stroke-miterlimit="10" stroke-width=".5"/>
      <line x1="146.881" y1="2.11" x2="148.543" y2="-2.842" fill="none" stroke="#221f1f" stroke-miterlimit="10" stroke-width=".5"/>
    </g>
  </g>
  <g>
    <line x1="353.307" y1="9.734" x2="363.648" y2="18.412" fill="none" stroke="#221f1f" stroke-miterlimit="10" stroke-width=".75"/>
    <line x1="367.103" y1="3.794" x2="372.274" y2="8.133" fill="none" stroke="#221f1f" stroke-miterlimit="10" stroke-width=".75"/>
    <line x1="332.599" y1="44.911" x2="337.77" y2="49.25" fill="none" stroke="#221f1f" stroke-miterlimit="10" stroke-width=".75"/>
  </g>
  <g>
    <g>
      <g>
        <line x1="341.306" y1="303.442" x2="347.463" y2="301.178" fill="none" stroke="#221f1f" stroke-miterlimit="10" stroke-width=".5"/>
        <line x1="350.077" y1="300.216" x2="356.233" y2="297.952" fill="none" stroke="#221f1f" stroke-miterlimit="10" stroke-width=".5"/>
        <line x1="358.902" y1="297.093" x2="365.058" y2="294.829" fill="none" stroke="#221f1f" stroke-miterlimit="10" stroke-width=".5"/>
        <line x1="367.673" y1="293.867" x2="373.829" y2="291.603" fill="none" stroke="#221f1f" stroke-miterlimit="10" stroke-width=".5"/>
      </g>
      <g>
        <line x1="377.037" y1="290.854" x2="383.193" y2="288.589" fill="none" stroke="#221f1f" stroke-miterlimit="10" stroke-width=".5"/>
        <line x1="385.808" y1="287.628" x2="391.964" y2="285.363" fill="none" stroke="#221f1f" stroke-miterlimit="10" stroke-width=".5"/>
        <line x1="394.633" y1="284.505" x2="400.789" y2="282.24" fill="none" stroke="#221f1f" stroke-miterlimit="10" stroke-width=".5"/>
        <line x1="403.404" y1="281.279" x2="409.56" y2="279.014" fill="none" stroke="#221f1f" stroke-miterlimit="10" stroke-width=".5"/>
      </g>
    </g>
    <g>
      <g>
        <line x1="414.144" y1="277.815" x2="420.301" y2="275.551" fill="none" stroke="#221f1f" stroke-miterlimit="10" stroke-width=".5"/>
        <line x1="422.915" y1="274.589" x2="429.072" y2="272.325" fill="none" stroke="#221f1f" stroke-miterlimit="10" stroke-width=".5"/>
        <line x1="431.74" y1="271.466" x2="437.897" y2="269.202" fill="none" stroke="#221f1f" stroke-miterlimit="10" stroke-width=".5"/>
        <line x1="440.511" y1="268.24" x2="446.667" y2="265.976" fill="none" stroke="#221f1f" stroke-miterlimit="10" stroke-width=".5"/>
      </g>
      <g>
        <line x1="449.875" y1="265.227" x2="456.032" y2="262.962" fill="none" stroke="#221f1f" stroke-miterlimit="10" stroke-width=".5"/>
        <line x1="458.646" y1="262.001" x2="464.802" y2="259.736" fill="none" stroke="#221f1f" stroke-miterlimit="10" stroke-width=".5"/>
        <line x1="467.471" y1="258.878" x2="473.627" y2="256.614" fill="none" stroke="#221f1f" stroke-miterlimit="10" stroke-width=".5"/>
        <line x1="476.242" y1="255.652" x2="482.398" y2="253.387" fill="none" stroke="#221f1f" stroke-miterlimit="10" stroke-width=".5"/>
      </g>
    </g>
  </g>
  <path d="m433.047,390.535c5.292-2.883,10.788-5.831,12.539-6.895,1.751-1.063,7.22-3.157,7.665-.863s.397,3.826.459,4.43c.063.604,2.138,1.678,6.151-.502,4.013-2.18,10.37-5.688,12.608-7.04,2.238-1.351,5.579-2.037,5.725-.628.146,1.409.558,4.385.652,5.292.094.906,2.714,1.245,6.441-.702,3.727-1.947,11.259-6.086,12.42-6.851s5.346-2.284,5.64-.449c.294,1.835.839,5.103.839,5.103" fill="none" stroke="#231f20" stroke-miterlimit="10" stroke-width=".5"/>
  <g>
    <line x1="372.676" y1="334.874" x2="376.629" y2="352.435" fill="none" stroke="#221f1f" stroke-miterlimit="10"/>
    <line x1="391.332" y1="339.899" x2="393.309" y2="348.679" fill="none" stroke="#221f1f" stroke-miterlimit="10"/>
    <line x1="441.37" y1="328.634" x2="443.347" y2="337.414" fill="none" stroke="#221f1f" stroke-miterlimit="10"/>
    <line x1="408.011" y1="336.144" x2="409.988" y2="344.924" fill="none" stroke="#221f1f" stroke-miterlimit="10"/>
    <line x1="424.691" y1="332.389" x2="426.668" y2="341.169" fill="none" stroke="#221f1f" stroke-miterlimit="10"/>
    <line x1="474.729" y1="321.123" x2="476.706" y2="329.903" fill="none" stroke="#221f1f" stroke-miterlimit="10"/>
    <line x1="508.088" y1="313.613" x2="510.065" y2="322.393" fill="none" stroke="#221f1f" stroke-miterlimit="10"/>
    <line x1="324.614" y1="354.92" x2="326.591" y2="363.7" fill="none" stroke="#221f1f" stroke-miterlimit="10"/>
  </g>
  <g>
    <line x1="144.8" y1="123.777" x2="280.104" y2="-157.847" fill="none" stroke="#231f20" stroke-miterlimit="10" stroke-width=".25"/>
    <line x1="194.328" y1="18.01" x2="196.524" y2="19.065" fill="none" stroke="#231f20" stroke-miterlimit="10" stroke-width=".25"/>
    <line x1="177.578" y1="52.872" x2="179.774" y2="53.927" fill="none" stroke="#231f20" stroke-miterlimit="10" stroke-width=".25"/>
    <line x1="161.055" y1="87.265" x2="163.251" y2="88.32" fill="none" stroke="#231f20" stroke-miterlimit="10" stroke-width=".25"/>
    <line x1="143.284" y1="123.049" x2="146.42" y2="124.555" fill="none" stroke="#231f20" stroke-miterlimit="10" stroke-width=".25"/>
  </g>
</svg>