<?xml version="1.0" encoding="UTF-8"?>
<svg id="a" data-name="Layer 1" xmlns="http://www.w3.org/2000/svg" width="9.002in" height="6.002in" viewBox="0 0 648.177 432.177">
  <g>
    <g>
      <g>
        <line x1="289.493" y1=".305" x2="271.399" y2="-.494" fill="none" stroke="#231f20" stroke-miterlimit="10" stroke-width=".75"/>
        <path d="m282.45,24.895c-4.483-.469-8.967-.937-13.45-1.406" fill="none" stroke="#231f20" stroke-miterlimit="10" stroke-width=".75"/>
        <line x1="277.294" y1="5.007" x2="270.877" y2="4.611" fill="none" stroke="#231f20" stroke-miterlimit="10" stroke-width=".75"/>
        <path d="m276.34,19.356c-2.243-.146-4.486-.291-6.728-.437" fill="none" stroke="#231f20" stroke-miterlimit="10" stroke-width=".75"/>
        <path d="m276.712,14.375c-2.188-.135-4.376-.269-6.565-.404" fill="none" stroke="#231f20" stroke-miterlimit="10" stroke-width=".75"/>
        <line x1="276.989" y1="9.542" x2="270.566" y2="9.258" fill="none" stroke="#231f20" stroke-miterlimit="10" stroke-width=".75"/>
      </g>
      <g>
        <line x1="286.636" y1="40.524" x2="268.83" y2="37.215" fill="none" stroke="#231f20" stroke-miterlimit="10" stroke-width=".75"/>
        <path d="m276.24,63.894c-4.374-1.088-8.749-2.176-13.123-3.264" fill="none" stroke="#231f20" stroke-miterlimit="10" stroke-width=".75"/>
        <line x1="273.901" y1="43.482" x2="267.602" y2="42.197" fill="none" stroke="#231f20" stroke-miterlimit="10" stroke-width=".75"/>
        <path d="m270.959,57.559c-2.201-.456-4.401-.913-6.602-1.369" fill="none" stroke="#231f20" stroke-miterlimit="10" stroke-width=".75"/>
        <path d="m272.021,52.679c-2.148-.438-4.296-.876-6.445-1.314" fill="none" stroke="#231f20" stroke-miterlimit="10" stroke-width=".75"/>
        <line x1="272.968" y1="47.931" x2="266.647" y2="46.756" fill="none" stroke="#231f20" stroke-miterlimit="10" stroke-width=".75"/>
      </g>
      <g>
        <line x1="278.21" y1="79.955" x2="261.037" y2="74.199" fill="none" stroke="#231f20" stroke-miterlimit="10" stroke-width=".75"/>
        <path d="m264.662,101.65c-4.18-1.686-8.361-3.373-12.541-5.059" fill="none" stroke="#231f20" stroke-miterlimit="10" stroke-width=".75"/>
        <line x1="265.187" y1="81.111" x2="259.128" y2="78.962" fill="none" stroke="#231f20" stroke-miterlimit="10" stroke-width=".75"/>
        <path d="m260.315,94.642c-2.116-.758-4.232-1.516-6.347-2.274" fill="none" stroke="#231f20" stroke-miterlimit="10" stroke-width=".75"/>
        <path d="m262.045,89.956c-2.066-.733-4.133-1.465-6.199-2.198" fill="none" stroke="#231f20" stroke-miterlimit="10" stroke-width=".75"/>
        <line x1="263.644" y1="85.387" x2="257.548" y2="83.343" fill="none" stroke="#231f20" stroke-miterlimit="10" stroke-width=".75"/>
      </g>
      <g>
        <line x1="264.378" y1="117.828" x2="248.174" y2="109.738" fill="none" stroke="#231f20" stroke-miterlimit="10" stroke-width=".75"/>
        <path d="m247.943,137.427c-3.905-2.252-7.81-4.504-11.715-6.755" fill="none" stroke="#231f20" stroke-miterlimit="10" stroke-width=".75"/>
        <line x1="251.321" y1="117.161" x2="245.62" y2="114.189" fill="none" stroke="#231f20" stroke-miterlimit="10" stroke-width=".75"/>
        <path d="m244.613,129.881c-1.99-1.045-3.979-2.09-5.969-3.136" fill="none" stroke="#231f20" stroke-miterlimit="10" stroke-width=".75"/>
        <path d="m246.979,125.482c-1.944-1.013-3.889-2.026-5.833-3.039" fill="none" stroke="#231f20" stroke-miterlimit="10" stroke-width=".75"/>
        <line x1="249.198" y1="121.18" x2="243.446" y2="118.308" fill="none" stroke="#231f20" stroke-miterlimit="10" stroke-width=".75"/>
      </g>
      <g>
        <line x1="245.41" y1="153.408" x2="230.489" y2="143.142" fill="none" stroke="#231f20" stroke-miterlimit="10" stroke-width=".75"/>
        <path d="m226.406,170.529c-3.554-2.773-7.107-5.547-10.661-8.32" fill="none" stroke="#231f20" stroke-miterlimit="10" stroke-width=".75"/>
        <line x1="232.573" y1="150.93" x2="227.34" y2="147.194" fill="none" stroke="#231f20" stroke-miterlimit="10" stroke-width=".75"/>
        <path d="m224.159,162.594c-1.825-1.312-3.65-2.624-5.474-3.936" fill="none" stroke="#231f20" stroke-miterlimit="10" stroke-width=".75"/>
        <path d="m227.114,158.567c-1.784-1.274-3.569-2.548-5.353-3.822" fill="none" stroke="#231f20" stroke-miterlimit="10" stroke-width=".75"/>
        <line x1="229.911" y1="154.615" x2="224.614" y2="150.97" fill="none" stroke="#231f20" stroke-miterlimit="10" stroke-width=".75"/>
      </g>
      <g>
        <line x1="221.673" y1="186.002" x2="208.327" y2="173.759" fill="none" stroke="#231f20" stroke-miterlimit="10" stroke-width=".75"/>
        <path d="m200.473,200.311c-3.133-3.241-6.266-6.482-9.399-9.723" fill="none" stroke="#231f20" stroke-miterlimit="10" stroke-width=".75"/>
        <line x1="209.306" y1="181.761" x2="204.645" y2="177.333" fill="none" stroke="#231f20" stroke-miterlimit="10" stroke-width=".75"/>
        <path d="m199.351,192.14c-1.624-1.553-3.249-3.106-4.873-4.659" fill="none" stroke="#231f20" stroke-miterlimit="10" stroke-width=".75"/>
        <path d="m202.838,188.564c-1.59-1.51-3.179-3.02-4.769-4.529" fill="none" stroke="#231f20" stroke-miterlimit="10" stroke-width=".75"/>
        <line x1="206.158" y1="185.04" x2="201.419" y2="180.693" fill="none" stroke="#231f20" stroke-miterlimit="10" stroke-width=".75"/>
      </g>
      <g>
        <line x1="193.633" y1="214.974" x2="182.12" y2="200.993" fill="none" stroke="#231f20" stroke-miterlimit="10" stroke-width=".75"/>
        <path d="m170.647,226.194c-2.652-3.645-5.303-7.291-7.955-10.936" fill="none" stroke="#231f20" stroke-miterlimit="10" stroke-width=".75"/>
        <line x1="181.976" y1="209.054" x2="177.976" y2="204.02" fill="none" stroke="#231f20" stroke-miterlimit="10" stroke-width=".75"/>
        <path d="m170.674,217.947c-1.392-1.764-2.785-3.528-4.178-5.292" fill="none" stroke="#231f20" stroke-miterlimit="10" stroke-width=".75"/>
        <path d="m174.624,214.891c-1.364-1.716-2.728-3.433-4.092-5.149" fill="none" stroke="#231f20" stroke-miterlimit="10" stroke-width=".75"/>
        <line x1="178.402" y1="211.862" x2="174.315" y2="206.899" fill="none" stroke="#231f20" stroke-miterlimit="10" stroke-width=".75"/>
      </g>
      <g>
        <line x1="161.833" y1="239.763" x2="152.378" y2="224.316" fill="none" stroke="#231f20" stroke-miterlimit="10" stroke-width=".75"/>
        <path d="m137.51,247.675c-2.118-3.979-4.237-7.958-6.355-11.937" fill="none" stroke="#231f20" stroke-miterlimit="10" stroke-width=".75"/>
        <line x1="151.114" y1="232.279" x2="147.854" y2="226.737" fill="none" stroke="#231f20" stroke-miterlimit="10" stroke-width=".75"/>
        <path d="m138.684,239.512c-1.133-1.941-2.267-3.881-3.4-5.822" fill="none" stroke="#231f20" stroke-miterlimit="10" stroke-width=".75"/>
        <path d="m143.022,237.035c-1.112-1.89-2.224-3.779-3.336-5.668" fill="none" stroke="#231f20" stroke-miterlimit="10" stroke-width=".75"/>
        <line x1="147.184" y1="234.562" x2="143.827" y2="229.078" fill="none" stroke="#231f20" stroke-miterlimit="10" stroke-width=".75"/>
      </g>
      <g>
        <line x1="126.893" y1="259.885" x2="119.679" y2="243.272" fill="none" stroke="#231f20" stroke-miterlimit="10" stroke-width=".75"/>
        <path d="m101.704,264.334c-1.544-4.235-3.088-8.47-4.632-12.705" fill="none" stroke="#231f20" stroke-miterlimit="10" stroke-width=".75"/>
        <line x1="117.319" y1="250.981" x2="114.862" y2="245.04" fill="none" stroke="#231f20" stroke-miterlimit="10" stroke-width=".75"/>
        <path d="m104.004,256.413c-.852-2.08-1.705-4.159-2.557-6.239" fill="none" stroke="#231f20" stroke-miterlimit="10" stroke-width=".75"/>
        <path d="m108.644,254.565c-.838-2.026-1.676-4.052-2.515-6.078" fill="none" stroke="#231f20" stroke-miterlimit="10" stroke-width=".75"/>
        <line x1="113.109" y1="252.695" x2="110.549" y2="246.797" fill="none" stroke="#231f20" stroke-miterlimit="10" stroke-width=".75"/>
      </g>
      <g>
        <line x1="89.492" y1="274.948" x2="84.661" y2="257.493" fill="none" stroke="#231f20" stroke-miterlimit="10" stroke-width=".75"/>
        <path d="m63.929,275.848c-.94-4.409-1.879-8.818-2.819-13.226" fill="none" stroke="#231f20" stroke-miterlimit="10" stroke-width=".75"/>
        <line x1="81.251" y1="264.798" x2="79.644" y2="258.573" fill="none" stroke="#231f20" stroke-miterlimit="10" stroke-width=".75"/>
        <path d="m67.308,268.325c-.555-2.178-1.109-4.356-1.664-6.534" fill="none" stroke="#231f20" stroke-miterlimit="10" stroke-width=".75"/>
        <path d="m72.161,267.14c-.548-2.123-1.096-4.246-1.644-6.368" fill="none" stroke="#231f20" stroke-miterlimit="10" stroke-width=".75"/>
        <line x1="76.843" y1="265.91" x2="75.128" y2="259.713" fill="none" stroke="#231f20" stroke-miterlimit="10" stroke-width=".75"/>
      </g>
      <g>
        <line x1="50.358" y1="284.66" x2="48.004" y2="266.702" fill="none" stroke="#231f20" stroke-miterlimit="10" stroke-width=".75"/>
        <path d="m24.92,281.994c-.317-4.497-.634-8.993-.951-13.49" fill="none" stroke="#231f20" stroke-miterlimit="10" stroke-width=".75"/>
        <line x1="43.61" y1="273.462" x2="42.886" y2="267.073" fill="none" stroke="#231f20" stroke-miterlimit="10" stroke-width=".75"/>
        <path d="m29.313,275.014c-.246-2.234-.492-4.468-.738-6.702" fill="none" stroke="#231f20" stroke-miterlimit="10" stroke-width=".75"/>
        <path d="m34.283,274.515c-.247-2.178-.495-4.357-.742-6.535" fill="none" stroke="#231f20" stroke-miterlimit="10" stroke-width=".75"/>
        <line x1="39.091" y1="273.949" x2="38.255" y2="267.574" fill="none" stroke="#231f20" stroke-miterlimit="10" stroke-width=".75"/>
      </g>
      <g>
        <line x1="10.254" y1="288.831" x2="10.422" y2="270.72" fill="none" stroke="#231f20" stroke-miterlimit="10" stroke-width=".75"/>
        <line x1="5.13" y1="276.803" x2="5.302" y2="270.376" fill="none" stroke="#231f20" stroke-miterlimit="10" stroke-width=".75"/>
        <line x1=".587" y1="276.656" x2=".647" y2="270.227" fill="none" stroke="#231f20" stroke-miterlimit="10" stroke-width=".75"/>
      </g>
    </g>
    <g>
      <path d="m203.15,1.728c2.099-.039,4.198-.078,6.297-.117" fill="#e5e5e5" stroke="#221f1f" stroke-miterlimit="10" stroke-width=".5"/>
      <g>
        <line x1="219.376" y1="15.745" x2="202.773" y2="13.918" fill="#e5e5e5" stroke="#221f1f" stroke-miterlimit="10" stroke-width=".5"/>
        <path d="m202.187,17.617c2.089.311,4.177.623,6.266.934" fill="#e5e5e5" stroke="#221f1f" stroke-miterlimit="10" stroke-width=".5"/>
        <path d="m201.659,20.952c2.089.311,4.177.623,6.266.934" fill="#e5e5e5" stroke="#221f1f" stroke-miterlimit="10" stroke-width=".5"/>
        <path d="m201.161,24.422c2.072.34,4.143.68,6.215,1.021" fill="#e5e5e5" stroke="#221f1f" stroke-miterlimit="10" stroke-width=".5"/>
        <path d="m200.622,27.827c2.072.34,4.143.68,6.215,1.021" fill="#e5e5e5" stroke="#221f1f" stroke-miterlimit="10" stroke-width=".5"/>
        <path d="m199.478,34.925c2.076.385,4.152.77,6.229,1.154" fill="#e5e5e5" stroke="#221f1f" stroke-miterlimit="10" stroke-width=".5"/>
        <path d="m198.82,38.321c2.076.385,4.152.77,6.229,1.154" fill="#e5e5e5" stroke="#221f1f" stroke-miterlimit="10" stroke-width=".5"/>
        <path d="m198.193,41.816c2.058.413,4.117.826,6.175,1.239" fill="#e5e5e5" stroke="#221f1f" stroke-miterlimit="10" stroke-width=".5"/>
        <path d="m197.533,45.2c2.058.413,4.117.826,6.175,1.239" fill="#e5e5e5" stroke="#221f1f" stroke-miterlimit="10" stroke-width=".5"/>
        <path d="m200.028,31.462c4.348.678,8.697,1.355,13.045,2.033" fill="#e5e5e5" stroke="#221f1f" stroke-miterlimit="10" stroke-width=".5"/>
      </g>
      <g>
        <line x1="210.366" y1="62.377" x2="194.545" y2="57.024" fill="#e5e5e5" stroke="#221f1f" stroke-miterlimit="10" stroke-width=".5"/>
        <path d="m193.177,60.51c1.973.753,3.945,1.506,5.918,2.259" fill="#e5e5e5" stroke="#221f1f" stroke-miterlimit="10" stroke-width=".5"/>
        <path d="m191.944,63.653c1.973.753,3.945,1.506,5.918,2.259" fill="#e5e5e5" stroke="#221f1f" stroke-miterlimit="10" stroke-width=".5"/>
        <path d="m190.712,66.935c1.95.778,3.9,1.555,5.85,2.333" fill="#e5e5e5" stroke="#221f1f" stroke-miterlimit="10" stroke-width=".5"/>
        <path d="m189.454,70.144c1.95.778,3.9,1.555,5.85,2.333" fill="#e5e5e5" stroke="#221f1f" stroke-miterlimit="10" stroke-width=".5"/>
        <path d="m186.811,76.831c1.945.822,3.89,1.644,5.835,2.466" fill="#e5e5e5" stroke="#221f1f" stroke-miterlimit="10" stroke-width=".5"/>
        <path d="m185.438,80.005c1.945.822,3.89,1.644,5.835,2.466" fill="#e5e5e5" stroke="#221f1f" stroke-miterlimit="10" stroke-width=".5"/>
        <path d="m184.074,83.284c1.921.846,3.843,1.692,5.764,2.538" fill="#e5e5e5" stroke="#221f1f" stroke-miterlimit="10" stroke-width=".5"/>
        <path d="m182.703,86.447c1.921.846,3.843,1.692,5.764,2.538" fill="#e5e5e5" stroke="#221f1f" stroke-miterlimit="10" stroke-width=".5"/>
        <path d="m188.092,73.567c4.101,1.597,8.202,3.193,12.303,4.79" fill="#e5e5e5" stroke="#221f1f" stroke-miterlimit="10" stroke-width=".5"/>
      </g>
      <g>
        <line x1="191.545" y1="105.982" x2="177.244" y2="97.353" fill="#e5e5e5" stroke="#221f1f" stroke-miterlimit="10" stroke-width=".5"/>
        <path d="m175.159,100.464c1.765,1.159,3.529,2.319,5.294,3.478" fill="#e5e5e5" stroke="#221f1f" stroke-miterlimit="10" stroke-width=".5"/>
        <path d="m173.279,103.268c1.765,1.159,3.529,2.319,5.294,3.478" fill="#e5e5e5" stroke="#221f1f" stroke-miterlimit="10" stroke-width=".5"/>
        <path d="m171.371,106.208c1.737,1.179,3.475,2.357,5.212,3.536" fill="#e5e5e5" stroke="#221f1f" stroke-miterlimit="10" stroke-width=".5"/>
        <path d="m169.452,109.072c1.737,1.179,3.475,2.357,5.212,3.536" fill="#e5e5e5" stroke="#221f1f" stroke-miterlimit="10" stroke-width=".5"/>
        <path d="m165.433,115.034c1.723,1.221,3.445,2.442,5.168,3.663" fill="#e5e5e5" stroke="#221f1f" stroke-miterlimit="10" stroke-width=".5"/>
        <path d="m163.41,117.84c1.723,1.221,3.445,2.442,5.168,3.663" fill="#e5e5e5" stroke="#221f1f" stroke-miterlimit="10" stroke-width=".5"/>
        <path d="m161.373,120.748c1.695,1.239,3.389,2.478,5.084,3.718" fill="#e5e5e5" stroke="#221f1f" stroke-miterlimit="10" stroke-width=".5"/>
        <path d="m159.354,123.543c1.695,1.239,3.389,2.478,5.084,3.718" fill="#e5e5e5" stroke="#221f1f" stroke-miterlimit="10" stroke-width=".5"/>
        <path d="m167.386,112.122c3.662,2.441,7.324,4.882,10.986,7.322" fill="#e5e5e5" stroke="#221f1f" stroke-miterlimit="10" stroke-width=".5"/>
      </g>
      <g>
        <line x1="163.79" y1="144.52" x2="151.678" y2="133.019" fill="#e5e5e5" stroke="#221f1f" stroke-miterlimit="10" stroke-width=".5"/>
        <path d="m148.973,135.609c1.474,1.512,2.948,3.023,4.423,4.535" fill="#e5e5e5" stroke="#221f1f" stroke-miterlimit="10" stroke-width=".5"/>
        <path d="m146.534,137.944c1.474,1.512,2.948,3.023,4.423,4.535" fill="#e5e5e5" stroke="#221f1f" stroke-miterlimit="10" stroke-width=".5"/>
        <path d="m144.038,140.405c1.443,1.525,2.887,3.049,4.33,4.574" fill="#e5e5e5" stroke="#221f1f" stroke-miterlimit="10" stroke-width=".5"/>
        <path d="m141.548,142.789c1.443,1.525,2.887,3.049,4.33,4.574" fill="#e5e5e5" stroke="#221f1f" stroke-miterlimit="10" stroke-width=".5"/>
        <path d="m136.342,147.748c1.42,1.563,2.84,3.126,4.26,4.688" fill="#e5e5e5" stroke="#221f1f" stroke-miterlimit="10" stroke-width=".5"/>
        <path d="m133.763,150.053c1.42,1.563,2.84,3.126,4.26,4.688" fill="#e5e5e5" stroke="#221f1f" stroke-miterlimit="10" stroke-width=".5"/>
        <path d="m131.149,152.456c1.389,1.575,2.777,3.149,4.166,4.724" fill="#e5e5e5" stroke="#221f1f" stroke-miterlimit="10" stroke-width=".5"/>
        <path d="m128.576,154.751c1.389,1.575,2.777,3.149,4.166,4.724" fill="#e5e5e5" stroke="#221f1f" stroke-miterlimit="10" stroke-width=".5"/>
        <path d="m138.876,145.324c3.051,3.171,6.103,6.342,9.155,9.513" fill="#e5e5e5" stroke="#221f1f" stroke-miterlimit="10" stroke-width=".5"/>
      </g>
      <g>
        <line x1="128.397" y1="176.192" x2="119.041" y2="162.356" fill="#e5e5e5" stroke="#221f1f" stroke-miterlimit="10" stroke-width=".5"/>
        <path d="m115.842,164.304c1.115,1.793,2.23,3.587,3.344,5.38" fill="#e5e5e5" stroke="#221f1f" stroke-miterlimit="10" stroke-width=".5"/>
        <path d="m112.958,166.06c1.115,1.793,2.23,3.587,3.344,5.38" fill="#e5e5e5" stroke="#221f1f" stroke-miterlimit="10" stroke-width=".5"/>
        <path d="m109.992,167.927c1.082,1.799,2.164,3.598,3.246,5.398" fill="#e5e5e5" stroke="#221f1f" stroke-miterlimit="10" stroke-width=".5"/>
        <path d="m107.047,169.72c1.082,1.799,2.164,3.598,3.246,5.398" fill="#e5e5e5" stroke="#221f1f" stroke-miterlimit="10" stroke-width=".5"/>
        <path d="m100.897,173.444c1.051,1.832,2.102,3.663,3.152,5.495" fill="#e5e5e5" stroke="#221f1f" stroke-miterlimit="10" stroke-width=".5"/>
        <path d="m97.883,175.141c1.051,1.832,2.102,3.663,3.152,5.495" fill="#e5e5e5" stroke="#221f1f" stroke-miterlimit="10" stroke-width=".5"/>
        <path d="m94.813,176.925c1.018,1.836,2.036,3.673,3.053,5.509" fill="#e5e5e5" stroke="#221f1f" stroke-miterlimit="10" stroke-width=".5"/>
        <path d="m91.807,178.613c1.018,1.836,2.036,3.673,3.053,5.509" fill="#e5e5e5" stroke="#221f1f" stroke-miterlimit="10" stroke-width=".5"/>
        <path d="m103.892,171.621c2.298,3.753,4.597,7.506,6.896,11.258" fill="#e5e5e5" stroke="#221f1f" stroke-miterlimit="10" stroke-width=".5"/>
      </g>
      <g>
        <line x1="87.025" y1="199.515" x2="80.862" y2="183.991" fill="#e5e5e5" stroke="#221f1f" stroke-miterlimit="10" stroke-width=".5"/>
        <path d="m77.319,185.206c.703,1.991,1.406,3.982,2.11,5.973" fill="#e5e5e5" stroke="#221f1f" stroke-miterlimit="10" stroke-width=".5"/>
        <path d="m74.126,186.301c.703,1.991,1.406,3.982,2.11,5.973" fill="#e5e5e5" stroke="#221f1f" stroke-miterlimit="10" stroke-width=".5"/>
        <path d="m70.827,187.487c.67,1.99,1.34,3.979,2.01,5.969" fill="#e5e5e5" stroke="#221f1f" stroke-miterlimit="10" stroke-width=".5"/>
        <path d="m67.566,188.605c.67,1.99,1.34,3.979,2.01,5.969" fill="#e5e5e5" stroke="#221f1f" stroke-miterlimit="10" stroke-width=".5"/>
        <path d="m60.759,190.92c.633,2.015,1.265,4.029,1.898,6.044" fill="#e5e5e5" stroke="#221f1f" stroke-miterlimit="10" stroke-width=".5"/>
        <path d="m57.45,191.928c.633,2.015,1.265,4.029,1.898,6.044" fill="#e5e5e5" stroke="#221f1f" stroke-miterlimit="10" stroke-width=".5"/>
        <path d="m54.069,193.011c.599,2.012,1.198,4.024,1.798,6.036" fill="#e5e5e5" stroke="#221f1f" stroke-miterlimit="10" stroke-width=".5"/>
        <path d="m50.77,194.014c.599,2.012,1.198,4.024,1.798,6.036" fill="#e5e5e5" stroke="#221f1f" stroke-miterlimit="10" stroke-width=".5"/>
        <path d="m64.076,189.783c1.438,4.159,2.876,8.318,4.314,12.477" fill="#e5e5e5" stroke="#221f1f" stroke-miterlimit="10" stroke-width=".5"/>
      </g>
      <g>
        <line x1="41.605" y1="213.399" x2="38.924" y2="196.913" fill="#e5e5e5" stroke="#221f1f" stroke-miterlimit="10" stroke-width=".5"/>
        <path d="m35.203,197.338c.259,2.096.518,4.191.776,6.287" fill="#e5e5e5" stroke="#221f1f" stroke-miterlimit="10" stroke-width=".5"/>
        <path d="m31.848,197.721c.259,2.096.518,4.191.776,6.287" fill="#e5e5e5" stroke="#221f1f" stroke-miterlimit="10" stroke-width=".5"/>
        <path d="m28.372,198.169c.226,2.087.453,4.174.679,6.262" fill="#e5e5e5" stroke="#221f1f" stroke-miterlimit="10" stroke-width=".5"/>
        <path d="m24.947,198.56c.226,2.087.453,4.174.679,6.262" fill="#e5e5e5" stroke="#221f1f" stroke-miterlimit="10" stroke-width=".5"/>
        <path d="m17.801,199.358c.185,2.104.369,4.207.554,6.31" fill="#e5e5e5" stroke="#221f1f" stroke-miterlimit="10" stroke-width=".5"/>
        <path d="m14.353,199.631c.185,2.104.369,4.207.554,6.31" fill="#e5e5e5" stroke="#221f1f" stroke-miterlimit="10" stroke-width=".5"/>
        <path d="m10.818,199.962c.153,2.094.305,4.188.458,6.282" fill="#e5e5e5" stroke="#221f1f" stroke-miterlimit="10" stroke-width=".5"/>
        <path d="m7.381,200.232c.153,2.094.305,4.188.458,6.282" fill="#e5e5e5" stroke="#221f1f" stroke-miterlimit="10" stroke-width=".5"/>
        <path d="m21.285,198.961c.51,4.371,1.021,8.742,1.531,13.113" fill="#e5e5e5" stroke="#221f1f" stroke-miterlimit="10" stroke-width=".5"/>
      </g>
    </g>
  </g>
  <g opacity=".75">
    <g>
      <g>
        <path d="m825.536,193.963c-9.156.873-18.098.741-26.721.385-4.303-.355-8.553-.546-12.688-1.167-2.07-.279-4.134-.483-6.16-.815-2.022-.359-4.028-.715-6.016-1.069-.992-.184-1.988-.333-2.966-.544-.975-.224-1.946-.447-2.913-.67-1.934-.443-3.851-.883-5.75-1.318-1.876-.527-3.735-1.049-5.578-1.567-1.84-.527-3.678-.997-5.447-1.637-3.555-1.215-7.083-2.301-10.422-3.698-1.684-.66-3.351-1.313-5.003-1.96-1.619-.724-3.221-1.442-4.807-2.152-12.673-5.727-23.671-12.36-33.091-19.186-9.428-6.831-17.281-13.852-23.877-20.474-13.086-13.389-21.185-25.072-26.113-33.093-.657-.979-1.212-1.937-1.722-2.834-.517-.894-.997-1.725-1.441-2.492-.887-1.534-1.628-2.814-2.221-3.839-1.084-2.105-1.628-3.162-1.628-3.162" fill="none" stroke="#231f20" stroke-miterlimit="10" stroke-width=".25"/>
        <path d="m825.74,196.436c-9.274.883-18.33.752-27.063.39-4.359-.358-8.663-.554-12.852-1.181-2.097-.282-4.188-.49-6.24-.826-2.049-.364-4.08-.725-6.094-1.082-1.005-.187-2.013-.338-3.004-.552-.988-.227-1.972-.453-2.951-.678-1.959-.449-3.901-.895-5.825-1.336-1.901-.534-3.784-1.063-5.651-1.587-1.864-.534-3.727-1.012-5.518-1.659-3.602-1.231-7.175-2.332-10.559-3.746-1.706-.669-3.395-1.331-5.068-1.986-1.64-.734-3.263-1.46-4.871-2.179-12.839-5.802-23.981-12.521-33.523-19.437-9.551-6.92-17.506-14.032-24.188-20.741-13.257-13.563-21.461-25.4-26.454-33.525-.666-.993-1.227-1.962-1.745-2.872-.524-.906-1.01-1.747-1.46-2.524-.899-1.554-1.649-2.851-2.249-3.89-1.098-2.133-1.65-3.204-1.65-3.204" fill="none" stroke="#231f20" stroke-miterlimit="10" stroke-width=".25"/>
        <path d="m621.829,34.207c-.554-4.559-1.258-9.033-1.494-13.487-.085-1.111-.17-2.217-.255-3.319l-.127-1.65c-.03-.549-.032-1.099-.049-1.647-.056-2.193-.111-4.368-.166-6.526l-.042-1.615.037-1.609c.027-1.07.055-2.136.082-3.198.027-1.062.053-2.119.08-3.172.02-1.053.046-2.102.147-3.142.345-4.162.537-8.27,1.144-12.265,1.989-16.026,5.808-30.675,10.832-43.632,4.976-12.982,10.959-24.341,17.22-34.141,6.284-9.792,12.767-18.099,19.055-25.021,12.62-13.832,23.892-22.502,31.57-27.938,3.805-2.792,6.868-4.593,8.85-5.889.998-.637,1.748-1.115,2.249-1.434.505-.312.768-.45.768-.45" fill="none" stroke="#231f20" stroke-miterlimit="10" stroke-width=".25"/>
        <path d="m619.375,34.578c-.563-4.619-1.274-9.153-1.514-13.664-.086-1.125-.172-2.246-.257-3.362l-.128-1.671c-.031-.557-.033-1.114-.05-1.669-.057-2.221-.113-4.425-.168-6.611l-.042-1.636.037-1.63c.028-1.084.055-2.164.083-3.239.027-1.075.054-2.146.081-3.213.02-1.067.047-2.129.149-3.183.348-4.217.545-8.379,1.158-12.426,2.016-16.238,5.887-31.082,10.976-44.212,5.042-13.155,11.104-24.664,17.448-34.593,6.367-9.921,12.935-18.336,19.305-25.348,12.784-14.013,24.203-22.795,31.981-28.302,3.856-2.827,6.957-4.654,8.965-5.965,1.012-.645,1.771-1.129,2.278-1.453.511-.316.778-.456.778-.456" fill="none" stroke="#231f20" stroke-miterlimit="10" stroke-width=".25"/>
      </g>
      <g>
        <path d="m722.849,181.11c-2.117-1.078-4.219-2.148-6.304-3.21-2.06-1.109-4.056-2.299-6.063-3.431-.997-.578-2.004-1.129-2.981-1.722-.964-.614-1.924-1.226-2.881-1.836-1.901-1.237-3.838-2.388-5.666-3.67-1.823-1.289-3.631-2.567-5.425-3.835l-1.342-.949-1.294-1.003c-.858-.671-1.713-1.338-2.565-2.003-3.459-2.594-6.629-5.427-9.799-8.146-12.473-11.124-22.598-23.067-30.821-34.854-8.227-11.806-14.411-23.57-19.13-34.641-4.706-11.09-7.855-21.527-10.102-30.929-4.451-18.851-5.229-33.55-5.258-43.283-.015-.61-.029-1.2-.042-1.772.014-.572.028-1.125.042-1.659.027-1.068.052-2.06.075-2.976.047-1.833.086-3.362.117-4.586.015-1.225.141-2.14.17-2.753.047-.612.07-.919.07-.919" fill="none" stroke="#231f20" stroke-miterlimit="10" stroke-width=".25"/>
        <path d="m721.756,183.338c-2.144-1.092-4.272-2.176-6.384-3.251-2.086-1.123-4.108-2.327-6.14-3.474-1.009-.585-2.029-1.144-3.019-1.744-.976-.622-1.949-1.241-2.918-1.858-1.925-1.252-3.886-2.419-5.737-3.716-1.846-1.305-3.677-2.599-5.493-3.883l-1.359-.962-1.31-1.016c-.869-.679-1.735-1.355-2.597-2.028-3.502-2.627-6.713-5.495-9.922-8.249-12.63-11.264-22.883-23.357-31.21-35.294-8.331-11.956-14.594-23.87-19.374-35.083-4.766-11.232-7.957-21.804-10.233-31.326-4.508-19.094-5.294-33.98-5.325-43.835-.015-.617-.029-1.215-.042-1.794.014-.579.028-1.139.042-1.68.027-1.081.053-2.086.076-3.014.048-1.856.087-3.404.119-4.644.015-1.241.143-2.167.172-2.787.047-.62.071-.93.071-.93" fill="none" stroke="#231f20" stroke-miterlimit="10" stroke-width=".25"/>
      </g>
    </g>
    <g>
      <g>
        <path d="m830.169,237.028c-11.295,1.07-22.324.909-32.96.473-5.308-.438-10.551-.667-15.652-1.43-2.554-.34-5.099-.598-7.601-.997-2.495-.441-4.969-.879-7.422-1.312-1.225-.224-2.451-.415-3.66-.663-1.203-.275-2.401-.549-3.594-.822-2.386-.545-4.751-1.084-7.095-1.619-2.323-.619-4.61-1.287-6.885-1.919-2.268-.654-4.542-1.217-6.724-2.004-4.385-1.5-8.744-2.818-12.866-4.535-2.078-.811-4.137-1.613-6.175-2.408-2.013-.855-3.978-1.769-5.938-2.635-15.65-7.027-29.24-15.167-40.887-23.55-11.657-8.388-21.373-17.013-29.54-25.151-16.19-16.466-26.224-30.845-32.335-40.716-.395-.611-.777-1.202-1.147-1.775-.342-.59-.673-1.16-.993-1.711-.64-1.101-1.234-2.125-1.783-3.07-1.099-1.89-2.015-3.466-2.749-4.729-1.347-2.591-2.024-3.892-2.024-3.892" fill="none" stroke="#231f20" stroke-miterlimit="10" stroke-width=".25"/>
        <path d="m830.371,239.501c-11.413,1.079-22.554.919-33.3.477-5.363-.441-10.66-.675-15.815-1.445-2.581-.344-5.152-.605-7.68-1.008-2.521-.446-5.021-.888-7.5-1.326-1.238-.227-2.477-.419-3.698-.671-1.216-.278-2.427-.555-3.633-.83-2.411-.551-4.801-1.096-7.17-1.637-2.347-.625-4.659-1.3-6.958-1.938-2.292-.661-4.589-1.231-6.795-2.025-4.432-1.515-8.836-2.848-13.002-4.583-2.1-.819-4.18-1.631-6.24-2.434-2.034-.864-4.02-1.786-6.001-2.663-15.815-7.101-29.549-15.328-41.318-23.798-11.78-8.476-21.599-17.192-29.851-25.417-16.362-16.639-26.501-31.172-32.678-41.149-.399-.617-.785-1.215-1.159-1.794-.346-.596-.681-1.172-1.004-1.729-.647-1.113-1.247-2.147-1.802-3.103-1.11-1.91-2.036-3.504-2.778-4.78-1.362-2.619-2.046-3.934-2.046-3.934" fill="none" stroke="#231f20" stroke-miterlimit="10" stroke-width=".25"/>
        <path d="m578.385,40.498c-.685-5.623-1.561-11.14-1.853-16.632-.105-1.37-.21-2.734-.315-4.093l-.157-2.034c-.04-.677-.041-1.356-.063-2.032-.069-2.704-.138-5.387-.206-8.048l-.052-1.992.046-1.984c.034-1.32.068-2.635.101-3.944.033-1.309.066-2.613.099-3.912.023-1.299.058-2.592.183-3.875.425-5.133.669-10.199,1.419-15.126.333-2.467.595-4.923.977-7.338.435-2.407.866-4.793,1.293-7.158.213-1.182.425-2.36.636-3.531.27-1.16.538-2.314.806-3.463.536-2.298,1.066-4.575,1.592-6.831.538-2.253,1.245-4.439,1.849-6.63.652-2.177,1.192-4.367,1.916-6.476.722-2.11,1.436-4.199,2.144-6.268.353-1.035.705-2.064,1.055-3.088.365-1.019.79-2.009,1.179-3.008,6.172-15.999,13.591-29.989,21.352-42.053,7.784-12.058,15.83-22.263,23.599-30.788,15.634-16.997,29.56-27.659,39.058-34.328,4.7-3.435,8.495-5.63,10.938-7.231,1.233-.783,2.159-1.371,2.777-1.763.636-.362.955-.544.955-.544" fill="none" stroke="#231f20" stroke-miterlimit="10" stroke-width=".25"/>
        <path d="m575.932,40.872c-.694-5.683-1.577-11.26-1.874-16.811-.106-1.384-.213-2.763-.318-4.137l-.158-2.056c-.041-.685-.041-1.37-.064-2.053-.07-2.733-.139-5.444-.208-8.134l-.052-2.013.046-2.005c.034-1.334.068-2.662.102-3.986.034-1.323.067-2.641.101-3.953.024-1.313.06-2.62.185-3.916.428-5.189.677-10.308,1.434-15.288.337-2.493.602-4.976.988-7.417.439-2.433.875-4.845,1.306-7.236.216-1.195.43-2.385.644-3.57.272-1.172.544-2.339.814-3.501.542-2.323,1.078-4.625,1.61-6.905.544-2.277,1.258-4.488,1.869-6.702.659-2.201,1.206-4.414,1.938-6.546.729-2.133,1.452-4.245,2.167-6.336.357-1.046.713-2.086,1.067-3.122.369-1.03.798-2.031,1.191-3.04,6.239-16.173,13.738-30.313,21.582-42.506,7.867-12.187,15.999-22.499,23.85-31.115,1.943-2.172,3.96-4.153,5.84-6.139.949-.984,1.883-1.953,2.801-2.905.962-.908,1.908-1.8,2.838-2.677,1.859-1.754,3.652-3.446,5.38-5.076,1.804-1.546,3.539-3.033,5.206-4.462,3.279-2.924,6.522-5.321,9.406-7.585,2.852-2.308,5.602-4.145,7.999-5.847,4.75-3.47,8.584-5.69,11.053-7.307,1.246-.791,2.182-1.385,2.807-1.781.643-.366.965-.55.965-.55" fill="none" stroke="#231f20" stroke-miterlimit="10" stroke-width=".25"/>
      </g>
      <g>
        <path d="m704.138,219.957c-2.598-1.317-5.176-2.624-7.734-3.921-2.538-1.335-4.98-2.803-7.444-4.181-1.226-.701-2.447-1.399-3.664-2.094-1.183-.75-2.362-1.498-3.536-2.243-2.336-1.507-4.703-2.928-6.96-4.474-4.466-3.162-8.936-6.171-13.051-9.511-1.045-.813-2.086-1.622-3.122-2.428l-1.551-1.207-1.487-1.272c-1.977-1.695-3.937-3.375-5.88-5.041l-1.453-1.249-1.387-1.309c-.923-.871-1.842-1.737-2.756-2.6-.915-.863-1.825-1.723-2.732-2.578l-1.357-1.281-1.294-1.332c-3.409-3.577-6.872-6.984-9.934-10.638-1.565-1.796-3.115-3.575-4.651-5.337-1.454-1.831-2.894-3.644-4.32-5.439-2.93-3.532-5.435-7.274-8.035-10.832-10.123-14.442-17.769-28.827-23.573-42.39-5.791-13.583-9.687-26.365-12.457-37.885-5.486-23.099-6.455-41.117-6.487-53.048-.018-.747-.035-1.471-.052-2.172.018-.701.035-1.379.052-2.033.033-1.309.064-2.525.093-3.648.058-2.246.106-4.121.144-5.622.021-1.502.175-2.623.211-3.374.057-.75.086-1.126.086-1.126" fill="none" stroke="#231f20" stroke-miterlimit="10" stroke-width=".25"/>
        <path d="m703.052,222.188c-2.624-1.33-5.229-2.651-7.814-3.961-2.564-1.349-5.031-2.831-7.521-4.224-1.239-.708-2.472-1.413-3.701-2.116-1.196-.758-2.386-1.513-3.572-2.265-2.36-1.522-4.751-2.958-7.031-4.52-4.513-3.193-9.027-6.235-13.185-9.608-1.056-.821-2.107-1.639-3.154-2.454l-1.567-1.219-1.502-1.285c-1.997-1.712-3.977-3.41-5.94-5.092l-1.467-1.262-1.402-1.322c-.932-.88-1.861-1.755-2.785-2.627-.924-.872-1.844-1.74-2.76-2.605l-1.37-1.294-1.307-1.346c-3.445-3.613-6.942-7.056-10.036-10.747-1.581-1.814-3.147-3.612-4.698-5.392-1.469-1.849-2.924-3.681-4.365-5.495-2.959-3.569-5.492-7.349-8.118-10.944-10.228-14.592-17.954-29.127-23.819-42.833-5.852-13.726-9.79-26.642-12.589-38.284-5.543-23.343-6.521-41.55-6.555-53.603-.018-.755-.035-1.486-.052-2.195.018-.708.035-1.393.052-2.054.034-1.323.065-2.551.094-3.686.058-2.27.107-4.163.146-5.68.021-1.517.176-2.65.213-3.409.058-.758.087-1.138.087-1.138" fill="none" stroke="#231f20" stroke-miterlimit="10" stroke-width=".25"/>
      </g>
    </g>
    <g>
      <g>
        <path d="m834.801,280.093c-13.433,1.266-26.549,1.076-39.199.56-6.312-.521-12.548-.789-18.616-1.693-3.038-.402-6.064-.713-9.04-1.179-2.968-.523-5.91-1.042-8.827-1.556-1.457-.264-2.915-.496-4.354-.783-1.431-.326-2.857-.651-4.276-.975-2.838-.646-5.651-1.286-8.44-1.921-2.766-.723-5.485-1.524-8.192-2.27-2.697-.781-5.405-1.437-8-2.371-5.215-1.785-10.406-3.334-15.31-5.373-2.473-.962-4.922-1.914-7.347-2.857-2.401-1.001-4.735-2.094-7.069-3.119-18.627-8.326-34.808-17.974-48.681-27.912-13.885-9.944-25.465-20.173-35.202-29.827-19.294-19.543-31.263-36.617-38.558-48.339-.471-.725-.928-1.427-1.37-2.107-.41-.7-.806-1.376-1.189-2.03-.763-1.309-1.471-2.525-2.125-3.648-1.309-2.246-2.402-4.12-3.276-5.62-.835-1.522-1.41-2.694-1.819-3.462-.401-.772-.602-1.159-.602-1.159" fill="none" stroke="#231f20" stroke-miterlimit="10" stroke-width=".25"/>
        <path d="m835.003,282.566c-13.551,1.276-26.778,1.086-39.537.565-6.367-.524-12.657-.797-18.778-1.708-3.064-.405-6.117-.719-9.119-1.19-2.994-.528-5.962-1.051-8.905-1.569-1.47-.266-2.94-.501-4.392-.79-1.444-.329-2.882-.657-4.314-.983-2.863-.652-5.701-1.298-8.514-1.938-2.79-.73-5.534-1.537-8.264-2.29-2.721-.788-5.452-1.451-8.071-2.392-5.261-1.8-10.497-3.365-15.445-5.42-2.495-.97-4.965-1.931-7.411-2.883-2.422-1.009-4.777-2.112-7.132-3.146-18.792-8.4-35.116-18.134-49.112-28.16-14.008-10.032-25.691-20.351-35.514-30.092-19.466-19.716-31.541-36.944-38.902-48.772-.475-.732-.936-1.44-1.382-2.127-.414-.706-.814-1.389-1.2-2.048-.77-1.321-1.484-2.547-2.145-3.681-1.321-2.266-2.423-4.157-3.306-5.671-.843-1.536-1.423-2.718-1.836-3.493-.405-.779-.607-1.17-.607-1.17" fill="none" stroke="#231f20" stroke-miterlimit="10" stroke-width=".25"/>
        <path d="m534.942,46.791c-.815-6.687-1.865-13.247-2.213-19.779-.126-1.629-.251-3.251-.376-4.867l-.187-2.419c-.05-.806-.049-1.612-.076-2.416-.082-3.216-.164-6.406-.245-9.571l-.062-2.369.054-2.359c.041-1.57.081-3.133.121-4.69.04-1.557.079-3.107.119-4.651l.058-2.312c.027-.768.11-1.532.161-2.296.504-6.105.801-12.129,1.695-17.987.399-2.933.707-5.854,1.169-8.726.518-2.863,1.032-5.7,1.542-8.512.254-1.406.507-2.806.759-4.199.323-1.379.644-2.751.964-4.117.639-2.733,1.272-5.44,1.899-8.123.652-2.676,1.488-5.278,2.211-7.882.374-1.299.746-2.592,1.116-3.879.371-1.286.718-2.573,1.176-3.819.86-2.508,1.713-4.992,2.556-7.452.421-1.23.841-2.454,1.258-3.672.449-1.206.946-2.387,1.412-3.573,7.37-19.016,16.225-35.638,25.486-49.965,9.285-14.323,18.894-26.426,28.143-36.555,2.305-2.538,4.673-4.876,6.891-7.207,1.123-1.153,2.208-2.306,3.309-3.406,1.134-1.066,2.249-2.115,3.344-3.145,2.193-2.058,4.309-4.043,6.348-5.957,2.126-1.816,4.171-3.563,6.135-5.241,3.862-3.438,7.698-6.235,11.09-8.902,3.359-2.714,6.611-4.853,9.429-6.859,1.416-.994,2.744-1.926,3.984-2.796,1.224-.894,2.455-1.585,3.542-2.299,2.198-1.39,4.031-2.55,5.5-3.478,1.47-.926,2.574-1.621,3.31-2.085.757-.429,1.137-.644,1.137-.644" fill="none" stroke="#231f20" stroke-miterlimit="10" stroke-width=".25"/>
        <path d="m532.489,47.166c-.825-6.748-1.881-13.368-2.234-19.958-.127-1.644-.253-3.281-.379-4.911l-.188-2.441c-.051-.813-.05-1.627-.077-2.438-.083-3.245-.166-6.464-.247-9.657l-.062-2.39.055-2.38c.041-1.584.081-3.161.122-4.732.04-1.571.08-3.135.12-4.693l.059-2.332c.027-.775.11-1.546.162-2.317.507-6.16.809-12.238,1.71-18.15.402-2.96.714-5.908,1.18-8.805.523-2.889,1.041-5.752,1.555-8.59.257-1.419.512-2.832.767-4.238.326-1.391.65-2.776.973-4.155.645-2.758,1.284-5.49,1.917-8.197.658-2.701,1.501-5.326,2.23-7.954.377-1.311.753-2.616,1.126-3.914.374-1.298.725-2.597,1.187-3.854.868-2.531,1.728-5.038,2.579-7.52.426-1.241.849-2.476,1.27-3.705.453-1.217.954-2.409,1.425-3.606,7.437-19.19,16.373-35.962,25.717-50.418,9.369-14.452,19.064-26.663,28.395-36.881,2.326-2.561,4.714-4.919,6.952-7.271,1.133-1.163,2.228-2.326,3.339-3.436,1.144-1.076,2.269-2.134,3.374-3.173,2.213-2.076,4.348-4.079,6.404-6.009,2.144-1.832,4.207-3.595,6.189-5.288,3.897-3.467,7.766-6.291,11.188-8.981,3.389-2.737,6.67-4.896,9.513-6.92,1.428-1.002,2.769-1.943,4.02-2.821,1.236-.902,2.477-1.599,3.573-2.319,2.217-1.402,4.067-2.572,5.548-3.509,1.483-.934,2.597-1.635,3.34-2.103.764-.433,1.147-.65,1.147-.65" fill="none" stroke="#231f20" stroke-miterlimit="10" stroke-width=".25"/>
      </g>
      <g>
        <path d="m685.426,258.802c-3.078-1.555-6.133-3.099-9.164-4.631-1.534-.731-2.968-1.636-4.445-2.447-1.466-.832-2.926-1.66-4.38-2.485-1.454-.825-2.903-1.647-4.346-2.466-1.402-.886-2.8-1.769-4.191-2.649-2.771-1.777-5.569-3.467-8.255-5.278-5.289-3.744-10.599-7.282-15.477-11.231-1.239-.961-2.473-1.917-3.702-2.87l-1.839-1.426c-.604-.484-1.18-.999-1.77-1.496-2.344-2.003-4.668-3.989-6.972-5.958l-1.724-1.474-1.65-1.542c-1.094-1.029-2.184-2.054-3.269-3.074-1.085-1.02-2.165-2.036-3.24-3.048-1.079-1.007-2.153-2.01-3.151-3.082-4.037-4.235-8.159-8.249-11.791-12.572-1.859-2.121-3.701-4.223-5.525-6.304-1.725-2.165-3.433-4.309-5.125-6.433-3.475-4.178-6.464-8.593-9.542-12.806-12.013-17.081-21.127-34.083-28.011-50.14-6.885-16.072-11.52-31.201-14.817-44.838-6.52-27.347-7.68-48.683-7.716-62.812-.021-.885-.042-1.742-.062-2.572.021-.83.042-1.632.061-2.407.04-1.55.076-2.99.11-4.32.068-2.66.125-4.88.171-6.657.027-1.778.208-3.106.252-3.995.068-.888.103-1.333.103-1.333" fill="none" stroke="#231f20" stroke-miterlimit="10" stroke-width=".25"/>
        <path d="m684.344,261.035c-3.105-1.569-6.186-3.126-9.243-4.671-1.547-.738-2.994-1.65-4.484-2.468-1.479-.839-2.951-1.674-4.418-2.506-1.467-.833-2.928-1.662-4.384-2.488-1.415-.894-2.824-1.784-4.228-2.671-2.795-1.792-5.617-3.497-8.326-5.324-5.335-3.775-10.69-7.346-15.611-11.328-1.25-.969-2.494-1.934-3.733-2.895l-1.855-1.439c-.609-.488-1.19-1.008-1.785-1.509-2.364-2.02-4.708-4.024-7.032-6.01l-1.739-1.487-1.665-1.555c-1.104-1.038-2.203-2.072-3.297-3.101-1.094-1.029-2.183-2.054-3.268-3.074-1.089-1.016-2.172-2.028-3.178-3.108-4.073-4.271-8.229-8.321-11.893-12.681-1.875-2.14-3.733-4.26-5.573-6.36-1.74-2.184-3.463-4.347-5.17-6.489-3.504-4.216-6.521-8.667-9.626-12.918-12.118-17.231-21.313-34.384-28.258-50.583-6.947-16.215-11.624-31.479-14.95-45.239-6.578-27.592-7.747-49.118-7.784-63.369-.021-.893-.042-1.758-.062-2.595.021-.837.042-1.647.061-2.429.04-1.564.077-3.016.111-4.358.069-2.683.127-4.922.173-6.715.028-1.794.21-3.133.254-4.03.069-.896.103-1.345.103-1.345" fill="none" stroke="#231f20" stroke-miterlimit="10" stroke-width=".25"/>
      </g>
    </g>
  </g>
  <g>
    <g>
      <path d="m179.595,308.096c44.229,78.707,67.127,119.452,67.127,119.452" fill="none" stroke="#231f20" stroke-miterlimit="10" stroke-width=".25"/>
      <path d="m181.758,306.881c44.23,78.707,67.127,119.453,67.127,119.453" fill="none" stroke="#231f20" stroke-miterlimit="10" stroke-width=".25"/>
    </g>
    <g>
      <path d="m216.201,359.931c44.229,78.707,67.127,119.452,67.127,119.452" fill="none" stroke="#231f20" stroke-miterlimit="10" stroke-width=".25"/>
      <path d="m218.364,358.715c44.23,78.707,67.127,119.452,67.127,119.452" fill="none" stroke="#231f20" stroke-miterlimit="10" stroke-width=".25"/>
    </g>
  </g>
  <polyline points="537.683 322.531 541.686 315.932 573.495 335.228 569.492 341.827 600.473 360.62 604.476 354.021 636.119 373.217 632.116 379.816 667.735 401.423 671.738 394.824 801.79 473.717 797.787 480.316 927.674 559.107 931.677 552.509 1061.563 631.301 1058.188 636.864" fill="none" stroke="#231f20" stroke-miterlimit="10" stroke-width=".655"/>
  <polyline points="283.173 166.829 286.579 161.224 295.584 166.696 292.178 172.301 300.949 177.63 304.355 172.026 313.313 177.469 309.907 183.074 319.991 189.201 323.397 183.597 360.215 205.97 356.809 211.574 393.58 233.918 396.986 228.314 433.757 250.658 430.886 255.383" fill="none" stroke="#231f20" stroke-miterlimit="10" stroke-width=".556"/>
  <g>
    <path d="m266.986,262.535c.756.796.948,1.841.429,2.333-.519.493-1.552.247-2.308-.549-.756-.796-.948-1.841-.429-2.333.519-.493,1.552-.247,2.308.549Z" fill="#231f20" stroke-width="0"/>
    <path d="m274.716,270.643c.756.796.948,1.841.429,2.333-.519.493-1.552.247-2.308-.549-.756-.796-.948-1.841-.429-2.333s1.552-.247,2.308.549Z" fill="#231f20" stroke-width="0"/>
    <path d="m282.806,279.108c.756.796.948,1.841.429,2.333s-1.552.247-2.308-.549c-.756-.796-.948-1.841-.429-2.333.519-.493,1.552-.247,2.308.549Z" fill="#231f20" stroke-width="0"/>
    <path d="m291.415,288.142c.756.796.948,1.841.429,2.333s-1.552.247-2.308-.549c-.756-.796-.948-1.841-.429-2.333.519-.493,1.552-.247,2.308.549Z" fill="#231f20" stroke-width="0"/>
    <path d="m235.59,229.649c.756.796.948,1.841.429,2.333-.519.493-1.552.247-2.308-.549-.756-.796-.948-1.841-.429-2.333.519-.493,1.552-.247,2.308.549Z" fill="#231f20" stroke-width="0"/>
    <path d="m243.32,237.757c.756.796.948,1.841.429,2.333-.519.493-1.552.247-2.308-.549-.756-.796-.948-1.841-.429-2.333s1.552-.247,2.308.549Z" fill="#231f20" stroke-width="0"/>
    <path d="m250.897,245.682c.756.796.948,1.841.429,2.333-.519.493-1.552.247-2.308-.549-.756-.796-.948-1.841-.429-2.333.519-.493,1.552-.247,2.308.549Z" fill="#231f20" stroke-width="0"/>
    <path d="m259.14,254.33c.756.796.948,1.841.429,2.333s-1.552.247-2.308-.549-.948-1.841-.429-2.333c.519-.493,1.552-.247,2.308.549Z" fill="#231f20" stroke-width="0"/>
  </g>
  <g>
    <path d="m334.639,332.371c.629.649.722,1.579.208,2.077-.514.498-1.44.375-2.069-.274-.629-.649-.722-1.579-.208-2.077.514-.498,1.441-.375,2.069.274Z" fill="#231f20" stroke-width="0"/>
    <path d="m341.075,338.981c.629.649.722,1.579.208,2.077s-1.44.375-2.069-.274c-.629-.649-.722-1.579-.208-2.077.514-.498,1.441-.375,2.069.274Z" fill="#231f20" stroke-width="0"/>
    <path d="m347.813,345.879c.629.649.722,1.579.208,2.077-.514.498-1.441.375-2.069-.274-.629-.649-.722-1.579-.208-2.077.514-.498,1.44-.375,2.069.274Z" fill="#231f20" stroke-width="0"/>
    <path d="m354.98,353.244c.629.649.722,1.579.208,2.077-.514.498-1.44.375-2.069-.274-.629-.649-.722-1.579-.208-2.077.514-.498,1.44-.375,2.069.274Z" fill="#231f20" stroke-width="0"/>
    <path d="m308.495,305.565c.629.649.722,1.579.208,2.077-.514.498-1.44.375-2.069-.274-.629-.649-.722-1.579-.208-2.077.514-.498,1.441-.375,2.069.274Z" fill="#231f20" stroke-width="0"/>
    <path d="m314.931,312.175c.629.649.722,1.579.208,2.077-.514.498-1.44.375-2.069-.274-.629-.649-.722-1.579-.208-2.077.514-.498,1.441-.375,2.069.274Z" fill="#231f20" stroke-width="0"/>
    <path d="m321.242,318.634c.629.649.722,1.579.208,2.077-.514.498-1.44.375-2.069-.274-.629-.649-.722-1.579-.208-2.077.514-.498,1.441-.375,2.069.274Z" fill="#231f20" stroke-width="0"/>
    <path d="m328.104,325.684c.629.649.722,1.579.208,2.077-.514.498-1.44.375-2.069-.274-.629-.649-.722-1.579-.208-2.077.514-.498,1.441-.375,2.069.274Z" fill="#231f20" stroke-width="0"/>
  </g>
  <g>
    <path d="m431.253,432.443c.636.637.742,1.564.235,2.07-.506.506-1.433.398-2.069-.239-.636-.637-.742-1.564-.235-2.07.506-.506,1.433-.399,2.069.239Z" fill="#231f20" stroke-width="0"/>
    <path d="m404.803,406.125c.636.637.742,1.564.235,2.07-.506.505-1.433.398-2.069-.239-.636-.637-.742-1.564-.235-2.07.506-.506,1.433-.399,2.069.239Z" fill="#231f20" stroke-width="0"/>
    <path d="m411.314,412.615c.636.638.742,1.564.235,2.07-.506.505-1.433.398-2.069-.239-.636-.638-.742-1.564-.235-2.07.506-.505,1.433-.398,2.069.239Z" fill="#231f20" stroke-width="0"/>
    <path d="m417.699,418.955c.636.637.742,1.564.235,2.07-.506.506-1.433.399-2.069-.239-.636-.637-.742-1.564-.235-2.07.506-.505,1.433-.398,2.069.239Z" fill="#231f20" stroke-width="0"/>
    <path d="m424.642,425.878c.636.637.742,1.564.235,2.07s-1.433.398-2.069-.239c-.636-.637-.742-1.564-.235-2.07.506-.506,1.433-.399,2.069.239Z" fill="#231f20" stroke-width="0"/>
  </g>
  <g>
    <path d="m143.029,333.91c-.603.243-1.29-.049-1.533-.652-.243-.603.049-1.29.652-1.533.603-.243,1.29.049,1.533.652.243.603-.049,1.29-.652,1.533Z" fill="#231f20" stroke-width="0"/>
    <path d="m144.797,338.295c-.603.243-1.29-.049-1.533-.652-.243-.604.049-1.29.652-1.533.603-.243,1.29.049,1.533.652s-.049,1.29-.652,1.533Z" fill="#231f20" stroke-width="0"/>
    <path d="m146.565,342.681c-.603.243-1.29-.049-1.533-.652-.243-.603.049-1.29.652-1.533.603-.243,1.29.049,1.533.652s-.049,1.29-.652,1.533Z" fill="#231f20" stroke-width="0"/>
    <path d="m148.334,347.066c-.603.243-1.29-.049-1.533-.652s.049-1.29.652-1.533c.603-.243,1.29.049,1.533.652.243.604-.049,1.29-.652,1.533Z" fill="#231f20" stroke-width="0"/>
    <path d="m150.102,351.451c-.603.243-1.29-.049-1.533-.652-.243-.604.049-1.29.652-1.533.603-.243,1.29.049,1.533.652s-.049,1.29-.652,1.533Z" fill="#231f20" stroke-width="0"/>
    <path d="m151.87,355.837c-.603.243-1.29-.049-1.533-.652s.049-1.29.652-1.533c.603-.243,1.29.049,1.533.652.243.603-.049,1.29-.652,1.533Z" fill="#231f20" stroke-width="0"/>
    <path d="m153.638,360.222c-.603.243-1.29-.049-1.533-.652s.049-1.29.652-1.533c.603-.243,1.29.049,1.533.652.243.604-.049,1.29-.652,1.533Z" fill="#231f20" stroke-width="0"/>
    <path d="m155.407,364.608c-.603.243-1.29-.049-1.533-.652-.243-.603.049-1.29.652-1.533.603-.243,1.29.049,1.533.652s-.049,1.29-.652,1.533Z" fill="#231f20" stroke-width="0"/>
    <path d="m157.175,368.993c-.603.243-1.29-.049-1.533-.652s.049-1.29.652-1.533c.603-.243,1.29.049,1.533.652.243.603-.049,1.29-.652,1.533Z" fill="#231f20" stroke-width="0"/>
    <path d="m158.943,373.378c-.603.243-1.29-.049-1.533-.652-.243-.604.049-1.29.652-1.533.603-.243,1.29.049,1.533.652.243.604-.049,1.29-.652,1.533Z" fill="#231f20" stroke-width="0"/>
    <path d="m160.711,377.764c-.603.243-1.29-.049-1.533-.652-.243-.603.049-1.29.652-1.533.603-.243,1.29.049,1.533.652.243.603-.049,1.29-.652,1.533Z" fill="#231f20" stroke-width="0"/>
    <path d="m162.48,382.149c-.603.243-1.29-.049-1.533-.652s.049-1.29.652-1.533c.603-.243,1.29.049,1.533.652.243.603-.049,1.29-.652,1.533Z" fill="#231f20" stroke-width="0"/>
    <path d="m164.248,386.535c-.603.243-1.29-.049-1.533-.652-.243-.604.049-1.29.652-1.533.603-.243,1.29.049,1.533.652s-.049,1.29-.652,1.533Z" fill="#231f20" stroke-width="0"/>
    <path d="m166.016,390.92c-.603.243-1.29-.049-1.533-.652s.049-1.29.652-1.533c.603-.243,1.29.049,1.533.652s-.049,1.29-.652,1.533Z" fill="#231f20" stroke-width="0"/>
    <path d="m167.784,395.305c-.603.243-1.29-.049-1.533-.652-.243-.603.049-1.29.652-1.533.603-.243,1.29.049,1.533.652.243.604-.049,1.29-.652,1.533Z" fill="#231f20" stroke-width="0"/>
    <path d="m169.553,399.691c-.603.243-1.29-.049-1.533-.652-.243-.604.049-1.29.652-1.533.603-.243,1.29.049,1.533.652.243.603-.049,1.29-.652,1.533Z" fill="#231f20" stroke-width="0"/>
    <path d="m171.321,404.076c-.603.243-1.29-.049-1.533-.652s.049-1.29.652-1.533c.603-.243,1.29.049,1.533.652.243.603-.049,1.29-.652,1.533Z" fill="#231f20" stroke-width="0"/>
    <path d="m173.089,408.462c-.603.243-1.29-.049-1.533-.652s.049-1.29.652-1.533c.603-.243,1.29.049,1.533.652.243.604-.049,1.29-.652,1.533Z" fill="#231f20" stroke-width="0"/>
    <path d="m174.858,412.847c-.603.243-1.29-.049-1.533-.652-.243-.603.049-1.29.652-1.533.603-.243,1.29.049,1.533.652s-.049,1.29-.652,1.533Z" fill="#231f20" stroke-width="0"/>
    <path d="m176.626,417.232c-.603.243-1.29-.049-1.533-.652-.243-.603.049-1.29.652-1.533.603-.243,1.29.049,1.533.652.243.603-.049,1.29-.652,1.533Z" fill="#231f20" stroke-width="0"/>
    <path d="m178.394,421.618c-.603.243-1.29-.049-1.533-.652-.243-.604.049-1.29.652-1.533.603-.243,1.29.049,1.533.652.243.603-.049,1.29-.652,1.533Z" fill="#231f20" stroke-width="0"/>
    <path d="m180.162,426.003c-.603.243-1.29-.049-1.533-.652-.243-.603.049-1.29.652-1.533.603-.243,1.29.049,1.533.652s-.049,1.29-.652,1.533Z" fill="#231f20" stroke-width="0"/>
    <path d="m181.931,430.389c-.603.243-1.29-.049-1.533-.652s.049-1.29.652-1.533c.603-.243,1.29.049,1.533.652.243.603-.049,1.29-.652,1.533Z" fill="#231f20" stroke-width="0"/>
  </g>
  <g>
    <path d="m374.168,6.863c-.017.65-.557,1.164-1.208,1.147-.65-.017-1.164-.557-1.147-1.208.017-.65.557-1.164,1.208-1.147.65.017,1.164.557,1.147,1.208Z" fill="#231f20" stroke-width="0"/>
    <path d="m378.95,6.987c-.017.65-.557,1.164-1.208,1.147-.65-.017-1.164-.557-1.147-1.208.017-.65.557-1.164,1.208-1.147.65.017,1.164.557,1.147,1.208Z" fill="#231f20" stroke-width="0"/>
    <path d="m383.732,7.11c-.017.65-.558,1.164-1.208,1.147-.65-.017-1.164-.558-1.147-1.208.017-.65.558-1.164,1.208-1.147.65.017,1.164.557,1.147,1.208Z" fill="#231f20" stroke-width="0"/>
    <path d="m388.514,7.233c-.017.65-.557,1.164-1.208,1.147-.65-.017-1.164-.557-1.147-1.208.017-.65.557-1.164,1.208-1.147.65.017,1.164.557,1.147,1.208Z" fill="#231f20" stroke-width="0"/>
    <path d="m393.296,7.356c-.017.65-.557,1.164-1.208,1.147-.65-.017-1.164-.557-1.147-1.208.017-.65.557-1.164,1.208-1.147.65.017,1.164.558,1.147,1.208Z" fill="#231f20" stroke-width="0"/>
    <path d="m398.078,7.48c-.017.65-.558,1.164-1.208,1.147-.65-.017-1.164-.557-1.147-1.208.017-.65.558-1.164,1.208-1.147.65.017,1.164.557,1.147,1.208Z" fill="#231f20" stroke-width="0"/>
    <path d="m402.86,7.603c-.017.65-.557,1.164-1.208,1.147-.65-.017-1.164-.557-1.147-1.208.017-.65.557-1.164,1.208-1.147.65.017,1.164.557,1.147,1.208Z" fill="#231f20" stroke-width="0"/>
    <path d="m407.642,7.726c-.017.65-.557,1.164-1.208,1.147-.65-.017-1.164-.557-1.147-1.208.017-.65.557-1.164,1.208-1.147.65.017,1.164.558,1.147,1.208Z" fill="#231f20" stroke-width="0"/>
    <path d="m412.424,7.849c-.017.65-.558,1.164-1.208,1.147s-1.164-.557-1.147-1.208c.017-.65.557-1.164,1.208-1.147.65.017,1.164.557,1.147,1.208Z" fill="#231f20" stroke-width="0"/>
    <path d="m417.206,7.972c-.017.65-.557,1.164-1.208,1.147-.65-.017-1.164-.557-1.147-1.208.017-.65.557-1.164,1.208-1.147.65.017,1.164.557,1.147,1.208Z" fill="#231f20" stroke-width="0"/>
    <path d="m421.988,8.096c-.017.65-.557,1.164-1.208,1.147-.65-.017-1.164-.557-1.147-1.208s.557-1.164,1.208-1.147c.65.017,1.164.558,1.147,1.208Z" fill="#231f20" stroke-width="0"/>
    <path d="m426.77,8.219c-.017.65-.558,1.164-1.208,1.147s-1.164-.557-1.147-1.208c.017-.65.557-1.164,1.208-1.147.65.017,1.164.557,1.147,1.208Z" fill="#231f20" stroke-width="0"/>
    <path d="m431.552,8.342c-.017.65-.557,1.164-1.208,1.147-.65-.017-1.164-.557-1.147-1.208.017-.65.557-1.164,1.208-1.147.65.017,1.164.557,1.147,1.208Z" fill="#231f20" stroke-width="0"/>
    <path d="m436.334,8.465c-.017.65-.557,1.164-1.208,1.147-.65-.017-1.164-.558-1.147-1.208s.557-1.164,1.208-1.147c.65.017,1.164.558,1.147,1.208Z" fill="#231f20" stroke-width="0"/>
    <path d="m441.116,8.588c-.017.65-.558,1.164-1.208,1.147s-1.164-.557-1.147-1.208c.017-.65.557-1.164,1.208-1.147s1.164.557,1.147,1.208Z" fill="#231f20" stroke-width="0"/>
    <path d="m445.898,8.712c-.017.65-.557,1.164-1.208,1.147-.65-.017-1.164-.557-1.147-1.208.017-.65.557-1.164,1.208-1.147.65.017,1.164.557,1.147,1.208Z" fill="#231f20" stroke-width="0"/>
    <path d="m450.68,8.835c-.017.65-.557,1.164-1.208,1.147-.65-.017-1.164-.558-1.147-1.208s.557-1.164,1.208-1.147c.65.017,1.164.558,1.147,1.208Z" fill="#231f20" stroke-width="0"/>
    <path d="m455.462,8.958c-.017.65-.558,1.164-1.208,1.147s-1.164-.557-1.147-1.208c.017-.65.557-1.164,1.208-1.147.65.017,1.164.557,1.147,1.208Z" fill="#231f20" stroke-width="0"/>
    <path d="m460.244,9.081c-.017.65-.557,1.164-1.208,1.147-.65-.017-1.164-.557-1.147-1.208.017-.65.557-1.164,1.208-1.147.65.017,1.164.557,1.147,1.208Z" fill="#231f20" stroke-width="0"/>
    <path d="m465.026,9.204c-.017.65-.557,1.164-1.208,1.147-.65-.017-1.164-.558-1.147-1.208.017-.65.557-1.164,1.208-1.147.65.017,1.164.557,1.147,1.208Z" fill="#231f20" stroke-width="0"/>
    <path d="m469.808,9.328c-.017.65-.558,1.164-1.208,1.147s-1.164-.557-1.147-1.208c.017-.65.557-1.164,1.208-1.147.65.017,1.164.557,1.147,1.208Z" fill="#231f20" stroke-width="0"/>
    <path d="m474.59,9.451c-.017.65-.557,1.164-1.208,1.147-.65-.017-1.164-.557-1.147-1.208.017-.65.557-1.164,1.208-1.147.65.017,1.164.557,1.147,1.208Z" fill="#231f20" stroke-width="0"/>
    <path d="m479.372,9.574c-.017.65-.557,1.164-1.208,1.147-.65-.017-1.164-.558-1.147-1.208.017-.65.557-1.164,1.208-1.147.65.017,1.164.557,1.147,1.208Z" fill="#231f20" stroke-width="0"/>
    <path d="m484.154,9.697c-.017.65-.558,1.164-1.208,1.147s-1.164-.557-1.147-1.208c.017-.65.557-1.164,1.208-1.147.65.017,1.164.557,1.147,1.208Z" fill="#231f20" stroke-width="0"/>
    <path d="m488.936,9.821c-.017.65-.557,1.164-1.208,1.147-.65-.017-1.164-.557-1.147-1.208.017-.65.557-1.164,1.208-1.147.65.017,1.164.558,1.147,1.208Z" fill="#231f20" stroke-width="0"/>
    <path d="m493.718,9.944c-.017.65-.557,1.164-1.208,1.147-.65-.017-1.164-.557-1.147-1.208.017-.65.558-1.164,1.208-1.147.65.017,1.164.557,1.147,1.208Z" fill="#231f20" stroke-width="0"/>
    <path d="m498.5,10.067c-.017.65-.557,1.164-1.208,1.147-.65-.017-1.164-.557-1.147-1.208.017-.65.557-1.164,1.208-1.147.65.017,1.164.557,1.147,1.208Z" fill="#231f20" stroke-width="0"/>
  </g>
  <g>
    <path d="m597.456,14.371c-.022.65-.567,1.159-1.218,1.137-.65-.022-1.159-.567-1.137-1.217.022-.65.567-1.159,1.217-1.137.65.022,1.159.567,1.137,1.218Z" fill="#231f20" stroke-width="0"/>
    <path d="m602.183,14.533c-.022.65-.567,1.159-1.218,1.137-.65-.022-1.159-.567-1.137-1.218.022-.65.567-1.159,1.217-1.137.65.022,1.159.567,1.137,1.218Z" fill="#231f20" stroke-width="0"/>
    <path d="m606.91,14.695c-.022.65-.567,1.159-1.218,1.137s-1.159-.567-1.137-1.218c.022-.65.567-1.159,1.217-1.137.65.022,1.159.567,1.137,1.217Z" fill="#231f20" stroke-width="0"/>
    <path d="m611.637,14.857c-.022.65-.567,1.159-1.218,1.137s-1.159-.567-1.137-1.218c.022-.65.567-1.159,1.218-1.137.65.022,1.159.567,1.137,1.217Z" fill="#231f20" stroke-width="0"/>
    <path d="m616.364,15.018c-.022.65-.567,1.159-1.218,1.137s-1.159-.567-1.137-1.218c.022-.65.567-1.159,1.218-1.137s1.159.567,1.137,1.217Z" fill="#231f20" stroke-width="0"/>
    <path d="m621.091,15.18c-.022.65-.567,1.159-1.217,1.137s-1.159-.567-1.137-1.217c.022-.65.567-1.159,1.218-1.137s1.159.567,1.137,1.218Z" fill="#231f20" stroke-width="0"/>
    <path d="m625.818,15.342c-.022.65-.567,1.159-1.217,1.137-.65-.022-1.159-.567-1.137-1.217s.567-1.159,1.218-1.137,1.159.567,1.137,1.218Z" fill="#231f20" stroke-width="0"/>
    <path d="m630.545,15.504c-.022.65-.567,1.159-1.217,1.137-.65-.022-1.159-.567-1.137-1.218s.567-1.159,1.218-1.137c.65.022,1.159.567,1.137,1.218Z" fill="#231f20" stroke-width="0"/>
    <path d="m635.272,15.665c-.022.65-.567,1.159-1.217,1.137-.65-.022-1.159-.567-1.137-1.218s.567-1.159,1.218-1.137c.65.022,1.159.567,1.137,1.218Z" fill="#231f20" stroke-width="0"/>
    <path d="m639.999,15.827c-.022.65-.567,1.159-1.218,1.137-.65-.022-1.159-.567-1.137-1.218s.567-1.159,1.218-1.137c.65.022,1.159.567,1.137,1.217Z" fill="#231f20" stroke-width="0"/>
    <path d="m644.726,15.989c-.022.65-.567,1.159-1.218,1.137s-1.159-.567-1.137-1.218.567-1.159,1.217-1.137,1.159.567,1.137,1.217Z" fill="#231f20" stroke-width="0"/>
    <path d="m649.453,16.151c-.022.65-.567,1.159-1.218,1.137s-1.159-.567-1.137-1.217c.022-.65.567-1.159,1.217-1.137s1.159.567,1.137,1.218Z" fill="#231f20" stroke-width="0"/>
  </g>
  <g>
    <line x1="429.253" y1="111.761" x2="424.078" y2="129.001" fill="none" stroke="#221f1f" stroke-miterlimit="10"/>
    <line x1="462.794" y1="131.225" x2="460.207" y2="139.845" fill="none" stroke="#221f1f" stroke-miterlimit="10"/>
    <line x1="571.181" y1="163.756" x2="568.594" y2="172.376" fill="none" stroke="#221f1f" stroke-miterlimit="10"/>
    <line x1="498.923" y1="142.068" x2="496.336" y2="150.688" fill="none" stroke="#221f1f" stroke-miterlimit="10"/>
    <line x1="535.052" y1="152.912" x2="532.465" y2="161.532" fill="none" stroke="#221f1f" stroke-miterlimit="10"/>
    <line x1="643.439" y1="185.443" x2="640.852" y2="194.063" fill="none" stroke="#221f1f" stroke-miterlimit="10"/>
    <line x1="318.279" y1="87.85" x2="315.691" y2="96.47" fill="none" stroke="#221f1f" stroke-miterlimit="10"/>
  </g>
  <line x1="12.151" y1="70.829" x2="24.27" y2="141.994" fill="none" stroke="#221f1f" stroke-miterlimit="10" stroke-width=".5"/>
  <polyline points="200.091 261.979 206.905 256.932 231.233 289.782 224.419 294.829 248.113 326.824 254.928 321.777 279.129 354.456 272.314 359.503 299.557 396.288 306.371 391.241 405.837 525.551 399.022 530.598 498.362 664.736 505.176 659.689 604.515 793.828 598.77 798.083" fill="none" stroke="#231f20" stroke-miterlimit="10" stroke-width=".719"/>
  <g>
    <path d="m305.631,230.517c-.407.507-1.149.588-1.656.181s-.588-1.149-.181-1.656,1.149-.588,1.656-.181.588,1.149.181,1.656Z" fill="#231f20" stroke-width="0"/>
    <path d="m309.319,233.48c-.407.507-1.149.588-1.656.181s-.588-1.149-.181-1.656,1.149-.588,1.656-.181.588,1.149.181,1.656Z" fill="#231f20" stroke-width="0"/>
    <path d="m313.008,236.442c-.407.507-1.149.588-1.656.181s-.588-1.149-.181-1.656,1.149-.588,1.656-.181.588,1.149.181,1.656Z" fill="#231f20" stroke-width="0"/>
    <path d="m316.697,239.405c-.407.507-1.149.588-1.656.181s-.588-1.149-.181-1.656,1.149-.588,1.656-.181.588,1.149.181,1.656Z" fill="#231f20" stroke-width="0"/>
    <path d="m320.385,242.367c-.407.507-1.149.588-1.656.181s-.588-1.149-.181-1.656,1.149-.588,1.656-.181.588,1.149.181,1.656Z" fill="#231f20" stroke-width="0"/>
    <path d="m324.074,245.33c-.407.507-1.149.588-1.656.181s-.588-1.149-.181-1.656,1.149-.588,1.656-.181.588,1.149.181,1.656Z" fill="#231f20" stroke-width="0"/>
    <path d="m327.762,248.292c-.407.507-1.149.588-1.656.181s-.588-1.149-.181-1.656,1.149-.588,1.656-.181.588,1.149.181,1.656Z" fill="#231f20" stroke-width="0"/>
    <path d="m331.451,251.255c-.407.507-1.149.588-1.656.181s-.588-1.149-.181-1.656,1.149-.588,1.656-.181.588,1.149.181,1.656Z" fill="#231f20" stroke-width="0"/>
    <path d="m335.14,254.218c-.407.507-1.149.588-1.656.181s-.588-1.149-.181-1.656,1.149-.588,1.656-.181.588,1.149.181,1.656Z" fill="#231f20" stroke-width="0"/>
    <path d="m338.828,257.18c-.407.507-1.149.588-1.656.181s-.588-1.149-.181-1.656c.407-.507,1.149-.588,1.656-.181s.588,1.149.181,1.656Z" fill="#231f20" stroke-width="0"/>
    <path d="m342.517,260.143c-.407.507-1.149.588-1.656.181s-.588-1.149-.181-1.656c.407-.507,1.149-.588,1.656-.181s.588,1.149.181,1.656Z" fill="#231f20" stroke-width="0"/>
    <path d="m346.205,263.105c-.407.507-1.149.588-1.656.181s-.588-1.149-.181-1.656c.407-.507,1.149-.588,1.656-.181s.588,1.149.181,1.656Z" fill="#231f20" stroke-width="0"/>
    <path d="m349.894,266.068c-.407.507-1.149.588-1.656.181-.507-.407-.588-1.149-.181-1.656s1.149-.588,1.656-.181.588,1.149.181,1.656Z" fill="#231f20" stroke-width="0"/>
    <path d="m353.583,269.03c-.407.507-1.149.588-1.656.181-.507-.407-.588-1.149-.181-1.656s1.149-.588,1.656-.181.588,1.149.181,1.656Z" fill="#231f20" stroke-width="0"/>
    <path d="m357.271,271.993c-.407.507-1.149.588-1.656.181-.507-.407-.588-1.149-.181-1.656s1.149-.588,1.656-.181.588,1.149.181,1.656Z" fill="#231f20" stroke-width="0"/>
    <path d="m360.96,274.955c-.407.507-1.149.588-1.656.181-.507-.407-.588-1.149-.181-1.656s1.149-.588,1.656-.181.588,1.149.181,1.656Z" fill="#231f20" stroke-width="0"/>
    <path d="m364.648,277.918c-.407.507-1.149.588-1.656.181-.507-.407-.588-1.149-.181-1.656s1.149-.588,1.656-.181.588,1.149.181,1.656Z" fill="#231f20" stroke-width="0"/>
    <path d="m368.337,280.88c-.407.507-1.149.588-1.656.181-.507-.407-.588-1.149-.181-1.656s1.149-.588,1.656-.181.588,1.149.181,1.656Z" fill="#231f20" stroke-width="0"/>
    <path d="m372.026,283.843c-.407.507-1.149.588-1.656.181-.507-.407-.588-1.149-.181-1.656s1.149-.588,1.656-.181.588,1.149.181,1.656Z" fill="#231f20" stroke-width="0"/>
    <path d="m375.714,286.805c-.407.507-1.149.588-1.656.181-.507-.407-.588-1.149-.181-1.656s1.149-.588,1.656-.181.588,1.149.181,1.656Z" fill="#231f20" stroke-width="0"/>
    <path d="m379.403,289.768c-.407.507-1.149.588-1.656.181-.507-.407-.588-1.149-.181-1.656s1.149-.588,1.656-.181.588,1.149.181,1.656Z" fill="#231f20" stroke-width="0"/>
    <path d="m383.091,292.73c-.407.507-1.149.588-1.656.181-.507-.407-.588-1.149-.181-1.656s1.149-.588,1.656-.181c.507.407.588,1.149.181,1.656Z" fill="#231f20" stroke-width="0"/>
    <path d="m386.78,295.693c-.407.507-1.149.588-1.656.181-.507-.407-.588-1.149-.181-1.656s1.149-.588,1.656-.181c.507.407.588,1.149.181,1.656Z" fill="#231f20" stroke-width="0"/>
    <path d="m390.469,298.656c-.407.507-1.149.588-1.656.181s-.588-1.149-.181-1.656,1.149-.588,1.656-.181.588,1.149.181,1.656Z" fill="#231f20" stroke-width="0"/>
    <path d="m394.157,301.618c-.407.507-1.149.588-1.656.181s-.588-1.149-.181-1.656,1.149-.588,1.656-.181.588,1.149.181,1.656Z" fill="#231f20" stroke-width="0"/>
    <path d="m397.846,304.581c-.407.507-1.149.588-1.656.181s-.588-1.149-.181-1.656,1.149-.588,1.656-.181.588,1.149.181,1.656Z" fill="#231f20" stroke-width="0"/>
    <path d="m401.534,307.543c-.407.507-1.149.588-1.656.181s-.588-1.149-.181-1.656,1.149-.588,1.656-.181.588,1.149.181,1.656Z" fill="#231f20" stroke-width="0"/>
    <path d="m405.223,310.506c-.407.507-1.149.588-1.656.181s-.588-1.149-.181-1.656,1.149-.588,1.656-.181.588,1.149.181,1.656Z" fill="#231f20" stroke-width="0"/>
    <path d="m408.912,313.468c-.407.507-1.149.588-1.656.181s-.588-1.149-.181-1.656,1.149-.588,1.656-.181.588,1.149.181,1.656Z" fill="#231f20" stroke-width="0"/>
    <path d="m412.6,316.431c-.407.507-1.149.588-1.656.181s-.588-1.149-.181-1.656,1.149-.588,1.656-.181.588,1.149.181,1.656Z" fill="#231f20" stroke-width="0"/>
    <path d="m416.289,319.393c-.407.507-1.149.588-1.656.181s-.588-1.149-.181-1.656,1.149-.588,1.656-.181.588,1.149.181,1.656Z" fill="#231f20" stroke-width="0"/>
    <path d="m419.977,322.356c-.407.507-1.149.588-1.656.181-.507-.407-.588-1.149-.181-1.656.407-.507,1.149-.588,1.656-.181.507.407.588,1.149.181,1.656Z" fill="#231f20" stroke-width="0"/>
    <path d="m423.666,325.318c-.407.507-1.149.588-1.656.181-.507-.407-.588-1.149-.181-1.656.407-.507,1.149-.588,1.656-.181.507.407.588,1.149.181,1.656Z" fill="#231f20" stroke-width="0"/>
    <path d="m427.355,328.281c-.407.507-1.149.588-1.656.181-.507-.407-.588-1.149-.181-1.656.407-.507,1.149-.588,1.656-.181.507.407.588,1.149.181,1.656Z" fill="#231f20" stroke-width="0"/>
    <path d="m431.043,331.243c-.407.507-1.149.588-1.656.181-.507-.407-.588-1.149-.181-1.656.407-.507,1.149-.588,1.656-.181.507.407.588,1.149.181,1.656Z" fill="#231f20" stroke-width="0"/>
    <path d="m434.732,334.206c-.407.507-1.149.588-1.656.181-.507-.407-.588-1.149-.181-1.656.407-.507,1.149-.588,1.656-.181.507.407.588,1.149.181,1.656Z" fill="#231f20" stroke-width="0"/>
    <path d="m438.42,337.168c-.407.507-1.149.588-1.656.181-.507-.407-.588-1.149-.181-1.656.407-.507,1.149-.588,1.656-.181.507.407.588,1.149.181,1.656Z" fill="#231f20" stroke-width="0"/>
    <path d="m442.109,340.131c-.407.507-1.149.588-1.656.181-.507-.407-.588-1.149-.181-1.656.407-.507,1.149-.588,1.656-.181.507.407.588,1.149.181,1.656Z" fill="#231f20" stroke-width="0"/>
    <path d="m445.798,343.093c-.407.507-1.149.588-1.656.181-.507-.407-.588-1.149-.181-1.656.407-.507,1.149-.588,1.656-.181.507.407.588,1.149.181,1.656Z" fill="#231f20" stroke-width="0"/>
    <path d="m449.486,346.056c-.407.507-1.149.588-1.656.181-.507-.407-.588-1.149-.181-1.656.407-.507,1.149-.588,1.656-.181.507.407.588,1.149.181,1.656Z" fill="#231f20" stroke-width="0"/>
    <path d="m453.175,349.018c-.407.507-1.149.588-1.656.181-.507-.407-.588-1.149-.181-1.656.407-.507,1.149-.588,1.656-.181.507.407.588,1.149.181,1.656Z" fill="#231f20" stroke-width="0"/>
    <path d="m456.863,351.981c-.407.507-1.149.588-1.656.181-.507-.407-.588-1.149-.181-1.656.407-.507,1.149-.588,1.656-.181.507.407.588,1.149.181,1.656Z" fill="#231f20" stroke-width="0"/>
    <path d="m460.552,354.944c-.407.507-1.149.588-1.656.181-.507-.407-.588-1.149-.181-1.656.407-.507,1.149-.588,1.656-.181.507.407.588,1.149.181,1.656Z" fill="#231f20" stroke-width="0"/>
    <path d="m464.241,357.906c-.407.507-1.149.588-1.656.181-.507-.407-.588-1.149-.181-1.656.407-.507,1.149-.588,1.656-.181.507.407.588,1.149.181,1.656Z" fill="#231f20" stroke-width="0"/>
    <path d="m467.929,360.869c-.407.507-1.149.588-1.656.181s-.588-1.149-.181-1.656c.407-.507,1.149-.588,1.656-.181.507.407.588,1.149.181,1.656Z" fill="#231f20" stroke-width="0"/>
    <path d="m471.618,363.831c-.407.507-1.149.588-1.656.181-.507-.407-.588-1.149-.181-1.656.407-.507,1.149-.588,1.656-.181.507.407.588,1.149.181,1.656Z" fill="#231f20" stroke-width="0"/>
    <path d="m475.306,366.794c-.407.507-1.149.588-1.656.181s-.588-1.149-.181-1.656c.407-.507,1.149-.588,1.656-.181.507.407.588,1.149.181,1.656Z" fill="#231f20" stroke-width="0"/>
    <path d="m478.995,369.756c-.407.507-1.149.588-1.656.181-.507-.407-.588-1.149-.181-1.656.407-.507,1.149-.588,1.656-.181.507.407.588,1.149.181,1.656Z" fill="#231f20" stroke-width="0"/>
    <path d="m482.684,372.719c-.407.507-1.149.588-1.656.181s-.588-1.149-.181-1.656c.407-.507,1.149-.588,1.656-.181.507.407.588,1.149.181,1.656Z" fill="#231f20" stroke-width="0"/>
    <path d="m486.372,375.681c-.407.507-1.149.588-1.656.181-.507-.407-.588-1.149-.181-1.656.407-.507,1.149-.588,1.656-.181.507.407.588,1.149.181,1.656Z" fill="#231f20" stroke-width="0"/>
    <path d="m490.061,378.644c-.407.507-1.149.588-1.656.181s-.588-1.149-.181-1.656c.407-.507,1.149-.588,1.656-.181.507.407.588,1.149.181,1.656Z" fill="#231f20" stroke-width="0"/>
    <path d="m493.75,381.606c-.407.507-1.149.588-1.656.181-.507-.407-.588-1.149-.181-1.656.407-.507,1.149-.588,1.656-.181.507.407.588,1.149.181,1.656Z" fill="#231f20" stroke-width="0"/>
    <path d="m497.438,384.569c-.407.507-1.149.588-1.656.181s-.588-1.149-.181-1.656c.407-.507,1.149-.588,1.656-.181.507.407.588,1.149.181,1.656Z" fill="#231f20" stroke-width="0"/>
    <path d="m501.127,387.531c-.407.507-1.149.588-1.656.181-.507-.407-.588-1.149-.181-1.656.407-.507,1.149-.588,1.656-.181.507.407.588,1.149.181,1.656Z" fill="#231f20" stroke-width="0"/>
    <path d="m504.815,390.494c-.407.507-1.149.588-1.656.181-.507-.407-.588-1.149-.181-1.656.407-.507,1.149-.588,1.656-.181.507.407.588,1.149.181,1.656Z" fill="#231f20" stroke-width="0"/>
    <path d="m508.504,393.456c-.407.507-1.149.588-1.656.181-.507-.407-.588-1.149-.181-1.656.407-.507,1.149-.588,1.656-.181.507.407.588,1.149.181,1.656Z" fill="#231f20" stroke-width="0"/>
    <path d="m512.193,396.419c-.407.507-1.149.588-1.656.181-.507-.407-.588-1.149-.181-1.656.407-.507,1.149-.588,1.656-.181.507.407.588,1.149.181,1.656Z" fill="#231f20" stroke-width="0"/>
    <path d="m515.881,399.381c-.407.507-1.149.588-1.656.181-.507-.407-.588-1.149-.181-1.656.407-.507,1.149-.588,1.656-.181.507.407.588,1.149.181,1.656Z" fill="#231f20" stroke-width="0"/>
    <path d="m519.57,402.344c-.407.507-1.149.588-1.656.181-.507-.407-.588-1.149-.181-1.656.407-.507,1.149-.588,1.656-.181.507.407.588,1.149.181,1.656Z" fill="#231f20" stroke-width="0"/>
    <path d="m523.258,405.306c-.407.507-1.149.588-1.656.181-.507-.407-.588-1.149-.181-1.656.407-.507,1.149-.588,1.656-.181.507.407.588,1.149.181,1.656Z" fill="#231f20" stroke-width="0"/>
    <path d="m526.947,408.269c-.407.507-1.149.588-1.656.181-.507-.407-.588-1.149-.181-1.656.407-.507,1.149-.588,1.656-.181.507.407.588,1.149.181,1.656Z" fill="#231f20" stroke-width="0"/>
    <path d="m530.636,411.231c-.407.507-1.149.588-1.656.181-.507-.407-.588-1.149-.181-1.656.407-.507,1.149-.588,1.656-.181.507.407.588,1.149.181,1.656Z" fill="#231f20" stroke-width="0"/>
    <path d="m534.324,414.194c-.407.507-1.149.588-1.656.181-.507-.407-.588-1.149-.181-1.656.407-.507,1.149-.588,1.656-.181.507.407.588,1.149.181,1.656Z" fill="#231f20" stroke-width="0"/>
    <path d="m538.013,417.157c-.407.507-1.149.588-1.656.181-.507-.407-.588-1.149-.181-1.656.407-.507,1.149-.588,1.656-.181.507.407.588,1.149.181,1.656Z" fill="#231f20" stroke-width="0"/>
    <path d="m541.701,420.119c-.407.507-1.149.588-1.656.181-.507-.407-.588-1.149-.181-1.656.407-.507,1.149-.588,1.656-.181.507.407.588,1.149.181,1.656Z" fill="#231f20" stroke-width="0"/>
    <path d="m545.39,423.082c-.407.507-1.149.588-1.656.181-.507-.407-.588-1.149-.181-1.656.407-.507,1.149-.588,1.656-.181.507.407.588,1.149.181,1.656Z" fill="#231f20" stroke-width="0"/>
    <path d="m549.079,426.044c-.407.507-1.149.588-1.656.181-.507-.407-.588-1.149-.181-1.656.407-.507,1.149-.588,1.656-.181.507.407.588,1.149.181,1.656Z" fill="#231f20" stroke-width="0"/>
    <path d="m552.767,429.007c-.407.507-1.149.588-1.656.181-.507-.407-.588-1.149-.181-1.656.407-.507,1.149-.588,1.656-.181.507.407.588,1.149.181,1.656Z" fill="#231f20" stroke-width="0"/>
    <path d="m556.456,431.969c-.407.507-1.149.588-1.656.181-.507-.407-.588-1.149-.181-1.656.407-.507,1.149-.588,1.656-.181.507.407.588,1.149.181,1.656Z" fill="#231f20" stroke-width="0"/>
  </g>
  <g>
    <g>
      <g>
        <line x1="302.031" y1="125.342" x2="312.718" y2="130.03" fill="none" stroke="#221f1f" stroke-miterlimit="10" stroke-width=".5"/>
        <line x1="317.255" y1="132.021" x2="327.942" y2="136.709" fill="none" stroke="#221f1f" stroke-miterlimit="10" stroke-width=".5"/>
        <line x1="332.458" y1="138.816" x2="343.144" y2="143.504" fill="none" stroke="#221f1f" stroke-miterlimit="10" stroke-width=".5"/>
        <line x1="347.682" y1="145.495" x2="358.368" y2="150.183" fill="none" stroke="#221f1f" stroke-miterlimit="10" stroke-width=".5"/>
      </g>
      <g>
        <line x1="363.531" y1="152.89" x2="374.217" y2="157.578" fill="none" stroke="#221f1f" stroke-miterlimit="10" stroke-width=".5"/>
        <line x1="378.755" y1="159.568" x2="389.441" y2="164.256" fill="none" stroke="#221f1f" stroke-miterlimit="10" stroke-width=".5"/>
        <line x1="393.957" y1="166.364" x2="404.643" y2="171.052" fill="none" stroke="#221f1f" stroke-miterlimit="10" stroke-width=".5"/>
        <line x1="409.181" y1="173.043" x2="419.867" y2="177.731" fill="none" stroke="#221f1f" stroke-miterlimit="10" stroke-width=".5"/>
      </g>
    </g>
    <g>
      <g>
        <line x1="427.367" y1="181.52" x2="438.053" y2="186.208" fill="none" stroke="#221f1f" stroke-miterlimit="10" stroke-width=".5"/>
        <line x1="442.591" y1="188.199" x2="453.277" y2="192.887" fill="none" stroke="#221f1f" stroke-miterlimit="10" stroke-width=".5"/>
        <line x1="457.793" y1="194.994" x2="468.479" y2="199.682" fill="none" stroke="#221f1f" stroke-miterlimit="10" stroke-width=".5"/>
        <line x1="473.017" y1="201.673" x2="483.703" y2="206.361" fill="none" stroke="#221f1f" stroke-miterlimit="10" stroke-width=".5"/>
      </g>
      <g>
        <line x1="488.866" y1="209.068" x2="499.552" y2="213.756" fill="none" stroke="#221f1f" stroke-miterlimit="10" stroke-width=".5"/>
        <line x1="504.09" y1="215.746" x2="514.776" y2="220.434" fill="none" stroke="#221f1f" stroke-miterlimit="10" stroke-width=".5"/>
        <line x1="519.292" y1="222.542" x2="529.979" y2="227.23" fill="none" stroke="#221f1f" stroke-miterlimit="10" stroke-width=".5"/>
        <line x1="534.516" y1="229.22" x2="545.203" y2="233.908" fill="none" stroke="#221f1f" stroke-miterlimit="10" stroke-width=".5"/>
      </g>
    </g>
  </g>
  <g>
    <g>
      <line x1="589.867" y1="254.017" x2="595.464" y2="256.411" fill="none" stroke="#221f1f" stroke-miterlimit="10" stroke-width=".5"/>
      <line x1="597.841" y1="257.427" x2="603.438" y2="259.821" fill="none" stroke="#221f1f" stroke-miterlimit="10" stroke-width=".5"/>
      <line x1="605.782" y1="260.95" x2="611.379" y2="263.344" fill="none" stroke="#221f1f" stroke-miterlimit="10" stroke-width=".5"/>
      <line x1="613.755" y1="264.36" x2="619.352" y2="266.754" fill="none" stroke="#221f1f" stroke-miterlimit="10" stroke-width=".5"/>
    </g>
    <g>
      <line x1="621.982" y1="268.319" x2="627.579" y2="270.713" fill="none" stroke="#221f1f" stroke-miterlimit="10" stroke-width=".5"/>
      <line x1="629.956" y1="271.729" x2="635.552" y2="274.123" fill="none" stroke="#221f1f" stroke-miterlimit="10" stroke-width=".5"/>
      <line x1="637.897" y1="275.251" x2="643.494" y2="277.645" fill="none" stroke="#221f1f" stroke-miterlimit="10" stroke-width=".5"/>
      <line x1="645.87" y1="278.662" x2="651.467" y2="281.056" fill="none" stroke="#221f1f" stroke-miterlimit="10" stroke-width=".5"/>
    </g>
  </g>
  <g>
    <path d="m432.25,62.877c2.427.394,4.301,1.287,4.186,1.993-.115.706-2.175.959-4.602.565-2.427-.394-4.301-1.287-4.186-1.993.115-.706,2.175-.959,4.602-.565Z" fill="#231f20" stroke-width="0"/>
    <path d="m457.02,66.88c2.427.394,4.301,1.287,4.186,1.993-.115.706-2.175.959-4.602.565-2.427-.394-4.301-1.287-4.186-1.993.115-.706,2.175-.959,4.602-.565Z" fill="#231f20" stroke-width="0"/>
    <path d="m482.913,71.048c2.427.395,4.301,1.287,4.186,1.993-.115.706-2.175.959-4.602.565-2.427-.394-4.301-1.287-4.186-1.993.115-.706,2.175-.959,4.602-.565Z" fill="#231f20" stroke-width="0"/>
    <path d="m510.504,75.509c2.427.394,4.301,1.287,4.186,1.993-.115.706-2.175.959-4.602.565-2.427-.394-4.301-1.287-4.186-1.993.115-.706,2.175-.959,4.602-.565Z" fill="#231f20" stroke-width="0"/>
    <path d="m331.71,46.664c2.427.395,4.301,1.287,4.186,1.993-.115.706-2.175.959-4.602.565s-4.301-1.287-4.186-1.993c.115-.706,2.175-.959,4.602-.565Z" fill="#231f20" stroke-width="0"/>
    <path d="m356.48,50.667c2.427.394,4.301,1.287,4.186,1.993-.115.706-2.175.959-4.602.565-2.427-.394-4.301-1.287-4.186-1.993.115-.706,2.175-.959,4.602-.565Z" fill="#231f20" stroke-width="0"/>
    <path d="m380.728,54.568c2.427.394,4.301,1.287,4.186,1.993-.115.706-2.175.959-4.602.565s-4.301-1.287-4.186-1.993c.115-.706,2.175-.959,4.602-.565Z" fill="#231f20" stroke-width="0"/>
    <path d="m407.143,58.838c2.427.394,4.301,1.287,4.186,1.993-.115.706-2.175.959-4.602.565-2.427-.395-4.301-1.287-4.186-1.993.115-.706,2.175-.959,4.602-.565Z" fill="#231f20" stroke-width="0"/>
  </g>
  <g>
    <g>
      <path d="m2.088,322.92v44.727" fill="none" stroke="#231f20" stroke-miterlimit="10" stroke-width=".25"/>
      <path d="m4.57,322.92v44.727" fill="none" stroke="#231f20" stroke-miterlimit="10" stroke-width=".25"/>
      <path d="m2.088,380.04v44.727" fill="none" stroke="#231f20" stroke-miterlimit="10" stroke-width=".25"/>
      <path d="m4.57,380.04v44.727" fill="none" stroke="#231f20" stroke-miterlimit="10" stroke-width=".25"/>
    </g>
    <g>
      <path d="m8.607,343.524v44.727" fill="none" stroke="#231f20" stroke-miterlimit="10" stroke-width=".25"/>
      <path d="m11.088,343.524v44.727" fill="none" stroke="#231f20" stroke-miterlimit="10" stroke-width=".25"/>
      <path d="m8.607,400.645v44.727" fill="none" stroke="#231f20" stroke-miterlimit="10" stroke-width=".25"/>
      <path d="m11.088,400.645v44.727" fill="none" stroke="#231f20" stroke-miterlimit="10" stroke-width=".25"/>
    </g>
  </g>
  <g>
    <polyline points="84.353 311.507 92.287 309.428 146.986 518.166 139.052 520.245" fill="none" stroke="#231f20" stroke-miterlimit="10" stroke-width=".513"/>
    <line x1="93.209" y1="336.968" x2="99.099" y2="335.425" fill="none" stroke="#231f20" stroke-miterlimit="10" stroke-width=".513"/>
    <line x1="99.94" y1="362.652" x2="105.83" y2="361.109" fill="none" stroke="#231f20" stroke-miterlimit="10" stroke-width=".513"/>
    <line x1="106.704" y1="388.467" x2="112.594" y2="386.924" fill="none" stroke="#231f20" stroke-miterlimit="10" stroke-width=".513"/>
    <line x1="111.425" y1="414.817" x2="119.359" y2="412.738" fill="none" stroke="#231f20" stroke-miterlimit="10" stroke-width=".513"/>
  </g>
  <g>
    <line x1="54.894" y1="366.462" x2="71.651" y2="491.538" fill="none" stroke="#231f20" stroke-miterlimit="10" stroke-width=".5"/>
    <line x1="66.548" y1="427.985" x2="59.652" y2="428.909" fill="none" stroke="#231f20" stroke-miterlimit="10" stroke-width=".5"/>
    <line x1="63.458" y1="412.904" x2="58.628" y2="413.551" fill="none" stroke="#231f20" stroke-miterlimit="10" stroke-width=".5"/>
    <line x1="61.384" y1="397.421" x2="56.553" y2="398.068" fill="none" stroke="#231f20" stroke-miterlimit="10" stroke-width=".5"/>
    <line x1="59.337" y1="382.146" x2="54.507" y2="382.793" fill="none" stroke="#231f20" stroke-miterlimit="10" stroke-width=".5"/>
    <line x1="58.228" y1="366.015" x2="51.332" y2="366.939" fill="none" stroke="#231f20" stroke-miterlimit="10" stroke-width=".5"/>
  </g>
  <g>
    <rect x="-1692.473" y="-1258.288" width="3386.58" height="2514.089" transform="translate(2.061 -.426) rotate(-90)" fill="none" stroke="#231f20" stroke-linecap="round" stroke-miterlimit="10" stroke-width="7"/>
    <rect x="-1675.506" y="-1241.166" width="3353.392" height="2482.402" transform="translate(1.155 1.225) rotate(-90)" fill="none" stroke="#231f20" stroke-linecap="round" stroke-miterlimit="10" stroke-width="3"/>
    <rect x="-1637.031" y="-1205.548" width="3275.615" height="2412.095" transform="translate(.278 1.276) rotate(-90)" fill="none" stroke="#231f20" stroke-linecap="round" stroke-miterlimit="10"/>
    <rect x="-1619.163" y="-1188.185" width="3239.88" height="2376.261" transform="translate(.831 .723) rotate(-90)" fill="none" stroke="#231f20" stroke-linecap="round" stroke-miterlimit="10"/>
  </g>
</svg>