<?xml version="1.0" encoding="UTF-8"?>
<svg id="a" data-name="Layer 1" xmlns="http://www.w3.org/2000/svg" width="9.002in" height="6.002in" viewBox="0 0 648.177 432.177">
  <g>
    <g>
      <path d="m-115.024,132.788c7.053-.217,13.879-.722,20.494-1.147,6.602-.595,13-1.09,19.155-1.849,6.17-.632,12.093-1.507,17.811-2.28,2.859-.392,5.647-.89,8.391-1.317,2.74-.456,5.437-.837,8.057-1.353,21.022-3.766,38.402-8.096,52.223-11.987,13.832-3.865,24.086-7.393,30.949-9.746,3.411-1.238,5.976-2.17,7.689-2.792.858-.305,1.497-.553,1.921-.722.426-.166.639-.249.639-.249" fill="none" stroke="#231f20" stroke-miterlimit="10" stroke-width=".25"/>
      <path d="m-115.119,130.308c7.021-.216,13.815-.719,20.4-1.142,6.572-.593,12.94-1.085,19.067-1.841,6.141-.629,12.037-1.5,17.73-2.269,2.845-.39,5.621-.886,8.353-1.311,2.727-.454,5.412-.832,8.02-1.347,20.926-3.749,38.226-8.059,51.983-11.932,13.769-3.847,23.975-7.359,30.798-9.698,3.391-1.231,5.942-2.158,7.645-2.776.854-.303,1.488-.55,1.91-.718.423-.165.635-.248.635-.248" fill="none" stroke="#231f20" stroke-miterlimit="10" stroke-width=".25"/>
      <path d="m95.655,79.542c12.469-6.814,23.714-14.155,33.64-21.832,9.932-7.671,18.529-15.677,25.875-23.648.91-1.005,1.811-2,2.703-2.984.892-.984,1.788-1.947,2.587-2.977,1.64-2.022,3.245-4.002,4.816-5.938,3.06-3.955,5.844-7.871,8.26-11.739,4.92-7.691,8.627-15.066,11.551-21.781,5.832-13.463,8.442-24.298,9.917-31.538.701-3.635,1.16-6.385,1.394-8.231.257-1.843.386-2.769.386-2.769" fill="none" stroke="#231f20" stroke-miterlimit="10" stroke-width=".25"/>
      <path d="m94.463,77.366c12.365-6.757,23.5-14.027,33.316-21.621,9.823-7.588,18.313-15.496,25.564-23.363,7.263-7.85,13.3-15.691,18.098-23.289,4.842-7.567,8.491-14.828,11.37-21.439,5.742-13.253,8.309-23.916,9.759-31.035.689-3.575,1.141-6.278,1.371-8.093.252-1.812.379-2.721.379-2.721" fill="none" stroke="#231f20" stroke-miterlimit="10" stroke-width=".25"/>
    </g>
    <g>
      <path d="m-37.855,117.607c13.703-2.558,26.495-5.433,38.328-8.609,1.482-.387,2.951-.77,4.407-1.15,1.448-.411,2.883-.819,4.305-1.223,2.842-.815,5.634-1.616,8.374-2.402,2.72-.852,5.39-1.687,8.008-2.507,1.309-.41,2.606-.816,3.889-1.218,1.275-.428,2.536-.852,3.786-1.272,20.015-6.653,36.231-13.712,48.901-19.999,12.674-6.306,21.748-11.936,27.757-15.758,2.97-1.965,5.161-3.507,6.645-4.506.739-.504,1.293-.883,1.663-1.135.373-.249.549-.388.549-.388" fill="none" stroke="#231f20" stroke-miterlimit="10" stroke-width=".25"/>
      <path d="m-38.309,115.168c13.64-2.546,26.372-5.407,38.15-8.569,1.475-.385,2.937-.766,4.387-1.144,1.441-.409,2.869-.815,4.284-1.218,2.829-.811,5.607-1.608,8.334-2.39,2.708-.848,5.364-1.679,7.971-2.495,1.303-.408,2.594-.812,3.871-1.212,1.268-.426,2.523-.848,3.766-1.265,19.91-6.618,36.012-13.63,48.583-19.867,12.574-6.256,21.56-11.833,27.511-15.618,2.94-1.946,5.108-3.472,6.577-4.46.731-.499,1.28-.874,1.646-1.123.369-.246.543-.384.543-.384" fill="none" stroke="#231f20" stroke-miterlimit="10" stroke-width=".25"/>
      <path d="m153.355,26.356c4.503-5.25,8.743-10.463,12.34-15.856,3.634-5.371,6.795-10.81,9.54-16.221,5.492-10.827,9.33-21.531,11.843-31.665,5.062-20.306,4.961-38.141,2.777-51.925-1.088-6.915-2.667-12.86-4.318-17.855-1.696-4.983-3.455-9.017-4.983-12.188-1.565-3.152-2.828-5.481-3.756-6.986-.899-1.521-1.351-2.285-1.351-2.285" fill="none" stroke="#231f20" stroke-miterlimit="10" stroke-width=".25"/>
      <path d="m151.487,24.721c4.442-5.181,8.621-10.316,12.152-15.612,3.573-5.281,6.682-10.63,9.382-15.953,5.403-10.65,9.179-21.182,11.649-31.144,4.976-19.964,4.869-37.457,2.733-50.94-1.064-6.765-2.608-12.573-4.219-17.45-1.656-4.865-3.373-8.8-4.863-11.892-1.527-3.074-2.757-5.345-3.662-6.811-.876-1.483-1.317-2.228-1.317-2.228" fill="none" stroke="#231f20" stroke-miterlimit="10" stroke-width=".25"/>
    </g>
  </g>
  <g>
    <g>
      <path d="m19.478,176.714c7.673,4.328,13.688,7.255,17.788,9.054,4.113,1.775,6.205,2.677,6.205,2.677" fill="none" stroke="#231f20" stroke-miterlimit="10" stroke-width=".25"/>
      <path d="m20.724,174.568c7.571,4.269,13.505,7.158,17.553,8.933,4.059,1.752,6.124,2.643,6.124,2.643" fill="none" stroke="#231f20" stroke-miterlimit="10" stroke-width=".25"/>
      <path d="m50.396,191.06c1.024.405,2.034.746,3.02,1.056.982.32,1.933.63,2.852.93,1.845.576,3.534,1.207,5.147,1.619,3.211.874,5.889,1.656,8.061,2.193,4.364.993,6.584,1.499,6.584,1.499" fill="none" stroke="#231f20" stroke-miterlimit="10" stroke-width=".25"/>
      <path d="m51.237,188.725c1.01.4,2.008.737,2.981,1.043.97.316,1.909.622,2.816.918,1.822.568,3.488,1.193,5.082,1.598,3.171.862,5.814,1.635,7.958,2.166,4.309.981,6.501,1.48,6.501,1.48" fill="none" stroke="#231f20" stroke-miterlimit="10" stroke-width=".25"/>
      <path d="m84.403,199.931c2.157.433,4.218.631,6.13.909,1.917.241,3.695.53,5.352.68,3.315.288,6.093.529,8.322.722,4.472.19,6.748.287,6.748.287" fill="none" stroke="#231f20" stroke-miterlimit="10" stroke-width=".25"/>
      <path d="m84.812,197.483c2.13.428,4.164.623,6.052.897,1.893.238,3.648.524,5.284.672,3.273.284,6.016.522,8.217.713,4.416.188,6.662.283,6.662.283" fill="none" stroke="#231f20" stroke-miterlimit="10" stroke-width=".25"/>
      <path d="m118.353,202.592c1.1-.004,2.167-.008,3.2-.012,1.032-.047,2.032-.093,2.997-.138,1.931-.096,3.729-.185,5.392-.267,3.319-.252,6.093-.566,8.323-.767,2.23-.203,3.894-.526,5.015-.661,1.118-.161,1.682-.242,1.682-.242" fill="none" stroke="#231f20" stroke-miterlimit="10" stroke-width=".25"/>
      <path d="m118.331,200.111c1.086-.004,2.139-.007,3.159-.011,1.019-.047,2.005-.092,2.959-.136,1.906-.094,3.681-.182,5.322-.263,3.276-.249,6.014-.559,8.215-.757,2.202-.2,3.843-.52,4.949-.653,1.104-.159,1.66-.239,1.66-.239" fill="none" stroke="#231f20" stroke-miterlimit="10" stroke-width=".25"/>
    </g>
    <g>
      <path d="m33.242,176.658c1.915.92,3.69,1.839,5.395,2.601,1.715.74,3.311,1.429,4.788,2.066,2.929,1.333,5.495,2.175,7.506,2.969,2.02.775,3.55,1.342,4.596,1.654,1.037.338,1.561.508,1.561.508" fill="none" stroke="#231f20" stroke-miterlimit="10" stroke-width=".25"/>
      <path d="m34.344,174.435c1.889.907,3.639,1.814,5.321,2.566,1.692.73,3.267,1.41,4.723,2.038,2.889,1.316,5.421,2.145,7.406,2.929,1.993.765,3.502,1.325,4.535,1.633,1.024.333,1.54.501,1.54.501" fill="none" stroke="#231f20" stroke-miterlimit="10" stroke-width=".25"/>
      <path d="m63.912,188.593c2.049.566,3.975,1.097,5.776,1.594,1.805.483,3.513.819,5.078,1.191,1.57.351,3.007.698,4.325.972,1.325.239,2.521.454,3.585.646,2.13.38,3.737.667,4.811.859,1.082.145,1.627.218,1.627.218" fill="none" stroke="#231f20" stroke-miterlimit="10" stroke-width=".25"/>
      <path d="m64.603,186.209c2.022.558,3.923,1.083,5.7,1.573,1.781.477,3.467.807,5.011,1.175,1.549.347,2.968.689,4.268.96,1.308.236,2.488.448,3.539.637,2.102.376,3.688.659,4.748.849,1.068.143,1.606.214,1.606.214" fill="none" stroke="#231f20" stroke-miterlimit="10" stroke-width=".25"/>
      <path d="m97.258,195.098c2.118.187,4.108.362,5.969.526,1.86.186,3.602.182,5.208.274,1.607.068,3.084.131,4.429.188,1.346-.003,2.561-.005,3.642-.007,2.163-.007,3.795-.012,4.886-.016,1.09-.048,1.639-.072,1.639-.072" fill="none" stroke="#231f20" stroke-miterlimit="10" stroke-width=".25"/>
      <path d="m97.513,192.63c2.09.184,4.054.357,5.891.519,1.836.184,3.555.179,5.14.27,1.586.068,3.043.13,4.371.187,1.328-.003,2.527-.005,3.594-.007,2.135-.007,3.745-.012,4.822-.015,1.075-.048,1.617-.072,1.617-.072" fill="none" stroke="#231f20" stroke-miterlimit="10" stroke-width=".25"/>
      <path d="m130.175,195.64c8.471-.722,14.863-1.646,19.112-2.441,4.246-.819,6.406-1.235,6.406-1.235" fill="none" stroke="#231f20" stroke-miterlimit="10" stroke-width=".25"/>
      <path d="m129.995,193.165c8.357-.714,14.661-1.623,18.852-2.408,4.188-.807,6.318-1.217,6.318-1.217" fill="none" stroke="#231f20" stroke-miterlimit="10" stroke-width=".25"/>
    </g>
  </g>
  <g>
    <g>
      <path d="m156.672,151.953c5.692,3.519,10.454,5.331,13.659,6.386,1.601.553,2.84.859,3.663,1.083.824.221,1.239.332,1.239.332" fill="none" stroke="#231f20" stroke-miterlimit="10" stroke-width=".25"/>
      <path d="m157.996,149.855c5.456,3.372,10.029,5.114,13.109,6.127,1.537.532,2.729.825,3.52,1.04.792.213,1.191.32,1.191.32" fill="none" stroke="#231f20" stroke-miterlimit="10" stroke-width=".25"/>
      <path d="m180.719,160.81c6.574,1.016,11.662.746,15.027.499,1.684-.181,2.957-.289,3.799-.451.844-.135,1.27-.203,1.27-.203" fill="none" stroke="#231f20" stroke-miterlimit="10" stroke-width=".25"/>
      <path d="m181.09,158.356c6.322.978,11.212.716,14.443.48,1.617-.175,2.841-.277,3.648-.433.81-.13,1.219-.195,1.219-.195" fill="none" stroke="#231f20" stroke-miterlimit="10" stroke-width=".25"/>
      <path d="m207.095,159.245c6.456-1.784,10.958-4.205,13.907-5.839,1.441-.886,2.557-1.511,3.251-2.008.705-.48,1.061-.721,1.061-.721" fill="none" stroke="#231f20" stroke-miterlimit="10" stroke-width=".25"/>
      <path d="m206.424,156.856c6.188-1.708,10.51-4.034,13.343-5.602,2.806-1.648,4.143-2.623,4.143-2.623" fill="none" stroke="#231f20" stroke-miterlimit="10" stroke-width=".25"/>
      <path d="m229.781,147.323c5.117-4.246,8.385-8.142,10.411-10.845,2.021-2.716,2.913-4.196,2.913-4.196" fill="none" stroke="#231f20" stroke-miterlimit="10" stroke-width=".25"/>
      <path d="m228.204,145.407c4.92-4.083,8.062-7.828,10.007-10.425,1.942-2.609,2.797-4.03,2.797-4.03" fill="none" stroke="#231f20" stroke-miterlimit="10" stroke-width=".25"/>
    </g>
    <g>
      <path d="m167.517,150.31c5.478,2.375,9.958,3.31,12.935,3.856,1.499.248,2.631.423,3.396.482.762.081,1.146.123,1.146.123" fill="none" stroke="#231f20" stroke-miterlimit="10" stroke-width=".25"/>
      <path d="m168.505,148.034c5.233,2.27,9.523,3.164,12.371,3.688,1.435.237,2.518.406,3.25.461.729.078,1.097.117,1.097.117" fill="none" stroke="#231f20" stroke-miterlimit="10" stroke-width=".25"/>
      <path d="m190.006,155.012c5.977.038,10.463-.818,13.401-1.526,1.466-.379,2.566-.693,3.299-.904.723-.245,1.088-.369,1.088-.369" fill="none" stroke="#231f20" stroke-miterlimit="10" stroke-width=".25"/>
      <path d="m190.02,152.53c5.719.037,10.003-.781,12.806-1.457,1.398-.362,2.447-.661,3.146-.862.69-.234,1.038-.353,1.038-.353" fill="none" stroke="#231f20" stroke-miterlimit="10" stroke-width=".25"/>
      <path d="m213.142,150.108c5.421-2.494,9.15-5.141,11.52-7.029,1.195-.937,2.043-1.71,2.637-2.194.561-.521.844-.784.844-.784" fill="none" stroke="#231f20" stroke-miterlimit="10" stroke-width=".25"/>
      <path d="m212.112,147.85c5.177-2.382,8.749-4.914,11.016-6.722,1.144-.896,1.955-1.637,2.524-2.099.537-.499.807-.751.807-.751" fill="none" stroke="#231f20" stroke-miterlimit="10" stroke-width=".25"/>
      <path d="m231.692,136.55c3.983-4.455,6.368-8.344,7.807-11.003.748-1.32,1.209-2.367,1.536-3.057.326-.691.49-1.039.49-1.039" fill="none" stroke="#231f20" stroke-miterlimit="10" stroke-width=".25"/>
      <path d="m229.856,134.88c3.81-4.265,6.089-7.979,7.462-10.517.715-1.259,1.153-2.258,1.466-2.916.312-.659.469-.991.469-.991" fill="none" stroke="#231f20" stroke-miterlimit="10" stroke-width=".25"/>
    </g>
  </g>
  <g>
    <g>
      <path d="m151.96,89.85c-.138-8.243,2.16-15.893,5.704-22.303,3.548-6.438,8.254-11.675,13.131-15.854,2.439-2.1,4.947-3.932,7.456-5.519,2.503-1.595,4.985-2.989,7.436-4.141,4.873-2.374,9.551-3.88,13.757-4.915,4.217-1.022,7.994-1.502,11.231-1.682,1.62-.109,3.16-.053,4.532-.089.69-.007,1.346-.013,1.968-.019.622.037,1.209.072,1.762.106,2.212.147,3.88.178,4.984.367,1.107.138,1.663.208,1.663.208" fill="none" stroke="#231f20" stroke-miterlimit="10" stroke-width=".25"/>
      <path d="m149.479,89.898c-.15-8.729,2.292-16.827,6.011-23.549,3.725-6.755,8.63-12.204,13.693-16.544,2.532-2.18,5.133-4.079,7.731-5.723,2.592-1.652,5.162-3.095,7.699-4.288,5.044-2.456,9.887-4.018,14.25-5.091,4.373-1.059,8.298-1.559,11.669-1.747,1.686-.113,3.26-.057,4.678-.093.711-.006,1.387-.013,2.027-.018.64.038,1.245.074,1.814.107,2.277.15,3.995.186,5.129.378,1.138.142,1.709.213,1.709.213" fill="none" stroke="#231f20" stroke-miterlimit="10" stroke-width=".25"/>
      <path d="m253.74,43.885c8.078,3.461,15.354,7.539,21.916,11.75,6.563,4.218,12.421,8.575,17.691,12.8,5.269,4.237,10.002,8.329,14.246,12.15,4.255,3.808,8.048,7.324,11.427,10.471,6.753,6.301,11.862,11.101,15.327,14.271,3.477,3.165,5.23,4.761,5.23,4.761" fill="none" stroke="#231f20" stroke-miterlimit="10" stroke-width=".25"/>
      <path d="m254.718,41.605c8.236,3.529,15.626,7.674,22.279,11.942,6.654,4.276,12.578,8.684,17.903,12.953,5.321,4.279,10.083,8.397,14.349,12.236,4.276,3.827,8.08,7.353,11.463,10.504,6.762,6.31,11.861,11.099,15.315,14.26,3.463,3.153,5.21,4.744,5.21,4.744" fill="none" stroke="#231f20" stroke-miterlimit="10" stroke-width=".25"/>
      <path d="m367.268,132.534c7.624,5.338,15.156,9.824,22.4,13.614,7.232,3.822,14.226,6.86,20.788,9.397,6.545,2.597,12.743,4.474,18.389,6.147,2.852.735,5.553,1.482,8.139,2.091,2.597.561,5.04,1.154,7.364,1.598,9.286,1.884,16.418,2.525,21.162,3.05,4.766.336,7.169.506,7.169.506" fill="none" stroke="#231f20" stroke-miterlimit="10" stroke-width=".25"/>
      <path d="m368.694,130.503c7.53,5.272,14.967,9.701,22.122,13.445,7.143,3.776,14.051,6.776,20.534,9.282,6.466,2.566,12.588,4.419,18.166,6.073,2.818.726,5.486,1.464,8.04,2.066,2.565.554,4.978,1.14,7.274,1.579,9.172,1.861,16.216,2.493,20.901,3.012,4.706.332,7.08.5,7.08.5" fill="none" stroke="#231f20" stroke-miterlimit="10" stroke-width=".25"/>
      <path d="m504.201,167.559c4.703-.8,9.242-1.961,13.535-3.486,4.277-1.52,8.361-3.378,12.052-5.656,7.375-4.513,13.306-10.29,17.454-16.66,2.074-3.183,3.694-6.513,4.847-9.862.263-.847.523-1.684.781-2.512.2-.846.397-1.682.593-2.509.177-.834.269-1.696.399-2.528.059-.419.117-.835.176-1.248.022-.415.044-.827.066-1.237.033-.82.067-1.63.099-2.43-.038-.796-.076-1.582-.113-2.358-.022-.388-.044-.773-.066-1.155-.052-.378-.104-.754-.156-1.127-.107-.746-.212-1.482-.316-2.209-.332-1.423-.598-2.828-1.015-4.144-.444-1.307-.792-2.608-1.343-3.788-1.975-4.816-4.593-8.645-7.23-11.588-2.609-2.988-5.376-4.959-7.62-6.426-1.183-.656-2.186-1.289-3.116-1.707-.939-.403-1.722-.74-2.35-1.009-.619-.289-1.131-.391-1.454-.504-.329-.099-.493-.149-.493-.149" fill="none" stroke="#231f20" stroke-miterlimit="10" stroke-width=".25"/>
      <path d="m503.778,165.114c9.16-1.568,17.616-4.493,24.719-8.815,7.07-4.326,12.735-9.856,16.665-15.895,3.921-6.048,6.138-12.545,6.465-18.696.032-.765.063-1.52.095-2.266-.036-.744-.072-1.479-.107-2.204-.02-.362-.04-.722-.06-1.08-.05-.354-.099-.706-.148-1.056-.099-.699-.198-1.389-.295-2.069-.316-1.334-.56-2.653-.953-3.888-.42-1.226-.741-2.45-1.262-3.557-1.855-4.525-4.314-8.116-6.776-10.865-2.437-2.796-5.009-4.615-7.085-5.978-1.095-.602-2.021-1.194-2.88-1.578-.866-.372-1.588-.682-2.167-.93-.57-.271-1.042-.358-1.339-.463-.303-.091-.454-.137-.454-.137" fill="none" stroke="#231f20" stroke-miterlimit="10" stroke-width=".25"/>
    </g>
    <g>
      <path d="m168.885,44.832c7.374-5.768,15.317-9.787,23.109-12.364,7.791-2.567,15.507-3.717,22.556-3.635.881-.008,1.752-.016,2.615-.024.861.031,1.713.094,2.555.139.843.05,1.677.099,2.501.147.412.026.822.052,1.23.078.405.05.808.1,1.209.15,1.603.2,3.17.395,4.702.586,1.515.284,2.995.562,4.44.833,1.453.238,2.834.618,4.19.952,1.349.356,2.687.629,3.947,1.029,2.52.8,4.939,1.458,7.13,2.321,8.853,3.214,15.166,6.477,19.325,8.716,2.087,1.113,3.598,2.049,4.635,2.627,1.028.593,1.544.89,1.544.89" fill="none" stroke="#231f20" stroke-miterlimit="10" stroke-width=".25"/>
      <path d="m167.352,42.88c15.298-11.898,32.604-16.648,47.182-16.528.905-.008,1.802-.016,2.688-.024.885.032,1.76.096,2.625.142.866.051,1.722.102,2.57.152.424.027.845.054,1.263.08.416.051.829.102,1.241.153,1.645.205,3.253.406,4.824.603,1.553.291,3.07.575,4.55.853,1.49.245,2.903.632,4.29.974,1.381.363,2.75.645,4.038,1.053,2.575.816,5.048,1.491,7.282,2.37,9.033,3.28,15.448,6.598,19.673,8.872,2.12,1.131,3.653,2.079,4.705,2.666,1.043.602,1.567.904,1.567.904" fill="none" stroke="#231f20" stroke-miterlimit="10" stroke-width=".25"/>
      <path d="m299.722,65.194c7.068,5.826,13.444,11.58,19.337,17.009,5.851,5.452,11.298,10.527,16.335,15.221,5.036,4.675,9.71,8.902,14.028,12.673,4.327,3.759,8.302,7.056,11.915,9.891,3.609,2.841,6.851,5.224,9.675,7.211,2.823,1.988,5.26,3.529,7.173,4.823,3.942,2.411,5.93,3.628,5.93,3.628" fill="none" stroke="#231f20" stroke-miterlimit="10" stroke-width=".25"/>
      <path d="m301.298,63.277c7.126,5.873,13.535,11.658,19.444,17.102,5.854,5.454,11.302,10.531,16.341,15.227,5.025,4.665,9.677,8.871,13.969,12.62,4.299,3.735,8.242,7.005,11.82,9.812,3.574,2.813,6.779,5.169,9.568,7.131,2.788,1.964,5.192,3.483,7.081,4.761,3.891,2.38,5.853,3.581,5.853,3.581" fill="none" stroke="#231f20" stroke-miterlimit="10" stroke-width=".25"/>
      <path d="m415.506,150.495c16.919,6.197,32.541,9.469,46.073,10.955,13.539,1.491,25.034,1.556,34.072.677,9.059-.86,15.672-2.67,19.926-4.204,2.137-.752,3.704-1.421,4.735-1.892.518-.232.907-.406,1.166-.522.253-.126.381-.189.381-.189" fill="none" stroke="#231f20" stroke-miterlimit="10" stroke-width=".25"/>
      <path d="m416.365,148.167c16.707,6.119,32.133,9.35,45.492,10.817,13.361,1.473,24.735,1.533,33.556.672,8.855-.842,15.239-2.597,19.334-4.073,2.058-.724,3.561-1.366,4.551-1.818.497-.222.87-.389,1.119-.5.242-.12.363-.181.363-.181" fill="none" stroke="#231f20" stroke-miterlimit="10" stroke-width=".25"/>
      <path d="m543.213,135.821c2.121-3.765,3.523-7.782,4.101-11.747.602-3.948.364-7.897-.462-11.57-1.671-7.357-5.596-13.651-10.515-17.788-4.879-4.191-10.715-6.334-15.98-6.281-5.322,0-10.051,1.769-13.723,4.01-3.701,2.256-6.406,5.033-8.243,7.674-1.851,2.648-2.861,5.166-3.381,7.219-.527,2.06-.621,3.659-.64,4.717.011,1.06.042,1.593.042,1.593" fill="none" stroke="#231f20" stroke-miterlimit="10" stroke-width=".25"/>
      <path d="m541.045,134.615c1.987-3.521,3.289-7.274,3.817-10.916.551-3.607.336-7.248-.43-10.649-1.543-6.817-5.206-12.676-9.708-16.448-4.464-3.832-9.72-5.736-14.37-5.684-4.747-.005-9.072,1.594-12.426,3.646-3.385,2.061-5.85,4.599-7.501,6.977-1.667,2.387-2.557,4.619-3.013,6.421-.462,1.809-.543,3.199-.561,4.121.024.923.036,1.387.036,1.387" fill="none" stroke="#231f20" stroke-miterlimit="10" stroke-width=".25"/>
    </g>
  </g>
  <g>
    <g>
      <path d="m48.644,268.475c13.404,7.498,26.098,14.408,38.074,20.703,6.03,3.076,11.803,6.13,17.479,8.881,2.83,1.389,5.59,2.782,8.328,4.094,2.747,1.295,5.44,2.564,8.081,3.809,21.148,9.906,39.444,17.061,54.38,22.095,3.733,1.261,7.276,2.338,10.564,3.402,3.28,1.092,6.385,1.939,9.247,2.74,2.861.804,5.487,1.542,7.876,2.214,2.414.585,4.589,1.113,6.524,1.582,3.877.913,6.769,1.694,8.741,2.057,1.961.403,2.946.606,2.946.606" fill="none" stroke="#231f20" stroke-miterlimit="10" stroke-width=".25"/>
      <path d="m49.856,266.31c13.391,7.49,26.063,14.388,38.011,20.669,6.014,3.068,11.774,6.115,17.432,8.857,2.821,1.385,5.574,2.774,8.302,4.082,2.737,1.29,5.421,2.555,8.052,3.795,21.072,9.871,39.277,16.989,54.129,21.994,3.712,1.254,7.233,2.324,10.503,3.382,3.261,1.086,6.346,1.927,9.19,2.723,2.843.799,5.452,1.533,7.827,2.201,2.398.581,4.559,1.105,6.481,1.571,3.851.907,6.725,1.683,8.681,2.043,1.947.4,2.925.601,2.925.601" fill="none" stroke="#231f20" stroke-miterlimit="10" stroke-width=".25"/>
      <path d="m272.668,347.317c31.039,1.621,58.401-.988,81.51-5.04,2.885-.545,5.731-.976,8.481-1.585,2.757-.577,5.455-1.142,8.095-1.695,5.244-1.262,10.275-2.39,15.006-3.726,9.51-2.492,17.941-5.258,25.423-7.782,14.916-5.208,25.849-9.999,33.069-13.359,1.808-.835,3.393-1.567,4.752-2.195,1.342-.665,2.461-1.219,3.358-1.663,1.792-.891,2.691-1.338,2.691-1.338" fill="none" stroke="#231f20" stroke-miterlimit="10" stroke-width=".25"/>
      <path d="m272.798,344.839c30.819,1.61,57.996-.981,80.95-5.006,2.865-.541,5.692-.969,8.424-1.574,2.738-.573,5.418-1.135,8.04-1.684,5.209-1.254,10.207-2.374,14.905-3.701,9.446-2.475,17.821-5.223,25.252-7.729,14.815-5.173,25.673-9.931,32.844-13.268,1.796-.83,3.369-1.557,4.719-2.18,1.332-.66,2.444-1.211,3.334-1.652,1.779-.885,2.673-1.329,2.673-1.329" fill="none" stroke="#231f20" stroke-miterlimit="10" stroke-width=".25"/>
    </g>
    <g>
      <path d="m-89.413,188.229c14.145,6.053,27.195,12.272,39.234,18.387,6.055,2.993,11.791,6.084,17.373,8.966,5.523,2.986,10.878,5.796,15.955,8.613,20.368,11.169,37.227,20.849,50.809,28.518,13.565,7.702,23.843,13.409,30.722,17.214,6.901,3.76,10.381,5.655,10.381,5.655" fill="none" stroke="#231f20" stroke-miterlimit="10" stroke-width=".25"/>
      <path d="m-88.436,185.948c14.206,6.079,27.302,12.321,39.375,18.452,6.074,3.002,11.821,6.099,17.416,8.989,5.533,2.991,10.901,5.808,15.984,8.629,20.399,11.186,37.263,20.869,50.841,28.536,13.562,7.7,23.826,13.4,30.696,17.2,6.889,3.753,10.364,5.646,10.364,5.646" fill="none" stroke="#231f20" stroke-miterlimit="10" stroke-width=".25"/>
      <path d="m127.807,302.129c13.897,6.365,27.204,11.762,39.792,16.4,3.161,1.119,6.268,2.218,9.32,3.298,3.059,1.057,6.105,1.967,9.072,2.931,1.486.474,2.958.943,4.417,1.407,1.458.467,2.928.839,4.369,1.257,2.89.813,5.723,1.609,8.5,2.391,2.782.761,5.544,1.365,8.228,2.034,2.694.625,5.31,1.345,7.908,1.854,2.594.533,5.13,1.055,7.608,1.564,2.484.479,4.926.868,7.301,1.291,1.188.206,2.363.41,3.522.611,1.165.166,2.316.33,3.451.491,2.272.323,4.485.638,6.639.944,2.163.242,4.267.477,6.312.705,2.045.229,4.029.467,5.964.6,7.725.69,14.521,1.042,20.36,1.225,2.92.064,5.601.123,8.04.177,2.439-.017,4.638-.032,6.594-.045,3.913.015,6.852-.16,8.815-.214,1.963-.07,2.949-.105,2.949-.105" fill="none" stroke="#231f20" stroke-miterlimit="10" stroke-width=".25"/>
      <path d="m128.839,299.873c13.844,6.34,27.088,11.712,39.609,16.325,3.144,1.113,6.234,2.206,9.269,3.28,3.042,1.051,6.069,1.955,9.018,2.913,1.477.471,2.941.937,4.391,1.399,1.449.464,2.909.833,4.342,1.249,2.871.807,5.687,1.599,8.446,2.375,2.764.756,5.506,1.355,8.172,2.02,2.676.621,5.274,1.336,7.853,1.842,2.574.529,5.091,1.047,7.551,1.552,2.466.475,4.889.861,7.246,1.282,1.18.205,2.345.407,3.496.606,1.156.165,2.298.327,3.426.487,2.255.321,4.452.633,6.59.938,2.147.24,4.236.473,6.266.7,2.03.227,4,.464,5.921.596,7.668.685,14.416,1.034,20.213,1.216,2.9.064,5.561.123,7.982.176,2.422-.017,4.605-.032,6.547-.045,3.885.015,6.803-.159,8.753-.213,1.949-.07,2.928-.105,2.928-.105" fill="none" stroke="#231f20" stroke-miterlimit="10" stroke-width=".25"/>
      <path d="m357.866,334.99c14.984-2.822,28.87-6.456,41.644-10.496,12.78-4.03,24.436-8.517,35.005-13.134,21.15-9.232,37.97-18.89,50.954-27.356,12.998-8.469,22.262-15.644,28.352-20.545,3.052-2.444,5.258-4.393,6.773-5.641,1.502-1.265,2.256-1.9,2.256-1.9" fill="none" stroke="#231f20" stroke-miterlimit="10" stroke-width=".25"/>
      <path d="m357.402,332.552c14.881-2.802,28.673-6.412,41.359-10.424,12.693-4.002,24.268-8.459,34.763-13.044,21.003-9.167,37.703-18.757,50.593-27.162,12.904-8.407,22.099-15.529,28.144-20.393,3.03-2.426,5.218-4.361,6.722-5.599,1.491-1.255,2.239-1.886,2.239-1.886" fill="none" stroke="#231f20" stroke-miterlimit="10" stroke-width=".25"/>
    </g>
  </g>
  <g>
    <path d="m518.379,114.289c-.729-1.408-1.703-2.87-1.252-3.2.45-.33,1.879,1.552,2.373,2.326s1.2,1.007,1.71.196c.51-.811,1.711-3.093,2.252-2.732.54.36-.631,2.828-.991,3.41-.36.583-.564,1.362.547,1.362s3.776-.179,3.927.422-2.694.955-3.663,1.081-1.351.48-.721,1.591c.631,1.111,1.651,2.702,1.111,3.153-.54.45-2.432-2.162-2.852-2.762-.42-.6-.959-.341-1.409.41-.45.751-1.909,2.953-2.397,2.652-.487-.3.366-2.337.876-3.148.51-.811.528-1.37-.373-1.64s-3.393-.256-3.423-1.007c-.03-.751,2.507-.662,3.497-.752s1.035-.884.787-1.362Z" fill="none" stroke="#0b0b0b" stroke-miterlimit="10" stroke-width=".25"/>
    <circle cx="515.521" cy="107.651" r="1.426" fill="none" stroke="#0b0b0b" stroke-miterlimit="10" stroke-width=".25"/>
    <path d="m525.166,107.05c0,.788-.639,1.426-1.426,1.426s-1.426-.639-1.426-1.426.639-1.426,1.426-1.426,1.426.639,1.426,1.426Z" fill="none" stroke="#0b0b0b" stroke-miterlimit="10" stroke-width=".25"/>
    <circle cx="529.794" cy="111.581" r="1.426" fill="none" stroke="#0b0b0b" stroke-miterlimit="10" stroke-width=".25"/>
    <circle cx="529.589" cy="119.546" r="1.426" fill="none" stroke="#0b0b0b" stroke-miterlimit="10" stroke-width=".25"/>
    <circle cx="525.705" cy="125.225" r="1.426" fill="none" stroke="#0b0b0b" stroke-miterlimit="10" stroke-width=".25"/>
    <circle cx="517.692" cy="125.913" r="1.426" fill="none" stroke="#0b0b0b" stroke-miterlimit="10" stroke-width=".25"/>
    <circle cx="511.377" cy="120.972" r="1.426" fill="none" stroke="#0b0b0b" stroke-miterlimit="10" stroke-width=".25"/>
    <circle cx="510.896" cy="113.611" r="1.426" fill="none" stroke="#0b0b0b" stroke-miterlimit="10" stroke-width=".25"/>
  </g>
  <g>
    <path d="m201.931,121.612h0l-3.062.002,1.693-2.318c.263-.361.184-.867-.176-1.13s-.867-.185-1.13.176l-1.984,2.715-2-2.704c-.265-.359-.773-.436-1.132-.169-.359.265-.435.772-.169,1.131l1.701,2.3h-2.669c-.447.001-.809.364-.808.811,0,.446.362.808.809.808h2.679s-1.693,2.316-1.693,2.316c-.263.361-.184.867.176,1.13.144.105.311.156.476.156.25,0,.496-.115.654-.332l1.984-2.716,2,2.704c.159.214.403.328.651.328.167,0,.336-.051.48-.159.359-.265.435-.772.169-1.131l-1.701-2.299,3.052-.002c.447,0,.809-.363.808-.81,0-.446-.362-.808-.809-.808Z" fill="none" stroke="#231f20" stroke-miterlimit="10" stroke-width=".25"/>
    <g>
      <circle cx="185.613" cy="124.883" r="1.308" fill="none" stroke="#231f20" stroke-miterlimit="10" stroke-width=".25"/>
      <circle cx="185.497" cy="120.221" r="1.308" fill="none" stroke="#231f20" stroke-miterlimit="10" stroke-width=".25"/>
      <circle cx="187.174" cy="115.868" r="1.308" fill="none" stroke="#231f20" stroke-miterlimit="10" stroke-width=".25"/>
      <circle cx="190.388" cy="112.489" r="1.308" fill="none" stroke="#231f20" stroke-miterlimit="10" stroke-width=".25"/>
      <circle cx="194.651" cy="110.597" r="1.308" fill="none" stroke="#231f20" stroke-miterlimit="10" stroke-width=".25"/>
      <circle cx="199.314" cy="110.481" r="1.308" fill="none" stroke="#231f20" stroke-miterlimit="10" stroke-width=".25"/>
      <circle cx="203.666" cy="112.158" r="1.308" fill="none" stroke="#231f20" stroke-miterlimit="10" stroke-width=".25"/>
      <circle cx="207.046" cy="115.372" r="1.308" fill="none" stroke="#231f20" stroke-miterlimit="10" stroke-width=".25"/>
      <circle cx="208.938" cy="119.636" r="1.308" fill="none" stroke="#231f20" stroke-miterlimit="10" stroke-width=".25"/>
      <circle cx="209.054" cy="124.298" r="1.308" fill="none" stroke="#231f20" stroke-miterlimit="10" stroke-width=".25"/>
      <circle cx="207.377" cy="128.651" r="1.308" fill="none" stroke="#231f20" stroke-miterlimit="10" stroke-width=".25"/>
      <circle cx="204.162" cy="132.03" r="1.308" fill="none" stroke="#231f20" stroke-miterlimit="10" stroke-width=".25"/>
      <circle cx="199.9" cy="133.921" r="1.308" fill="none" stroke="#231f20" stroke-miterlimit="10" stroke-width=".25"/>
      <circle cx="195.236" cy="134.038" r="1.308" fill="none" stroke="#231f20" stroke-miterlimit="10" stroke-width=".25"/>
      <circle cx="190.885" cy="132.362" r="1.308" fill="none" stroke="#231f20" stroke-miterlimit="10" stroke-width=".25"/>
      <circle cx="187.505" cy="129.148" r="1.308" fill="none" stroke="#231f20" stroke-miterlimit="10" stroke-width=".25"/>
    </g>
  </g>
  <g>
    <line x1="-144.342" y1="839.42" x2="330.086" y2="409.053" fill="none" stroke="#231f20" stroke-miterlimit="10" stroke-width=".375"/>
    <line x1="327.181" y1="408.165" x2="330.687" y2="412.03" fill="none" stroke="#231f20" stroke-miterlimit="10" stroke-width=".375"/>
  </g>
  <g>
    <g>
      <path d="m-55.75,97.02c4.804-1.006,9.326-1.887,13.515-3.029,4.213-.981,8.072-2.246,11.657-3.329,1.796-.528,3.474-1.23,5.104-1.797,1.617-.619,3.194-1.103,4.64-1.761,1.453-.631,2.835-1.231,4.146-1.8.655-.285,1.292-.563,1.911-.832.605-.308,1.192-.606,1.762-.896,1.138-.585,2.205-1.135,3.203-1.648,1.001-.51,1.93-.987,2.73-1.477,1.633-.952,2.998-1.748,4.092-2.386,1.102-.626,1.896-1.148,2.434-1.484.537-.339.806-.509.806-.509" fill="none" stroke="#231f20" stroke-miterlimit="10" stroke-width=".25"/>
      <path d="m13.95,66.787c7.932-5.814,14.539-11.413,20.03-16.452,1.346-1.292,2.637-2.531,3.873-3.717.616-.595,1.219-1.178,1.807-1.747.569-.591,1.124-1.169,1.667-1.732,1.084-1.128,2.115-2.2,3.093-3.218.965-1.03,1.832-2.053,2.673-2.991.835-.944,1.618-1.831,2.35-2.659.713-.847,1.348-1.661,1.95-2.4,1.189-1.49,2.21-2.709,2.978-3.733,1.505-2.075,2.265-3.122,2.265-3.122" fill="none" stroke="#231f20" stroke-miterlimit="10" stroke-width=".25"/>
      <path d="m12.484,64.785c7.847-5.751,14.383-11.291,19.81-16.271,1.329-1.276,2.604-2.5,3.825-3.672.609-.588,1.204-1.163,1.785-1.725.561-.583,1.109-1.153,1.644-1.71,1.07-1.113,2.087-2.171,3.052-3.175.952-1.016,1.805-2.023,2.634-2.947.823-.93,1.594-1.803,2.316-2.619.702-.834,1.326-1.634,1.917-2.36,1.168-1.465,2.175-2.664,2.928-3.669,1.476-2.036,2.221-3.062,2.221-3.062" fill="none" stroke="#231f20" stroke-miterlimit="10" stroke-width=".25"/>
    </g>
    <g>
      <path d="m-31.148,83.997c2.232-.814,4.396-1.604,6.493-2.369,2.065-.835,4.024-1.732,5.94-2.55.475-.212.957-.402,1.415-.627.454-.234.904-.465,1.349-.695.892-.459,1.767-.909,2.627-1.352.855-.455,1.714-.847,2.521-1.33.811-.473,1.606-.937,2.386-1.392,3.145-1.773,5.92-3.6,8.482-5.204,2.529-1.657,4.77-3.218,6.782-4.582,1.965-1.432,3.688-2.688,5.168-3.767,1.476-1.084,2.659-2.056,3.633-2.801,1.933-1.509,2.908-2.271,2.908-2.271" fill="none" stroke="#231f20" stroke-miterlimit="10" stroke-width=".25"/>
      <path d="m-31.941,81.646c2.191-.8,4.317-1.575,6.376-2.327,2.024-.819,3.939-1.697,5.816-2.497.465-.207.937-.393,1.385-.613.443-.228.881-.455,1.316-.679.87-.448,1.725-.888,2.563-1.319.837-.445,1.667-.822,2.467-1.3.801-.467,1.586-.925,2.355-1.374,3.103-1.749,5.846-3.556,8.378-5.14,2.5-1.638,4.715-3.182,6.704-4.529,1.943-1.416,3.647-2.658,5.111-3.725,1.46-1.071,2.629-2.034,3.593-2.77,1.912-1.493,2.876-2.245,2.876-2.245" fill="none" stroke="#231f20" stroke-miterlimit="10" stroke-width=".25"/>
      <path d="m30.66,44.496c6.958-6.536,12.619-12.753,17.036-18.424,4.416-5.666,7.777-10.67,10.019-14.903.57-1.053,1.144-2.025,1.611-2.963.434-.952.838-1.836,1.211-2.654.374-.817.717-1.567,1.029-2.249.268-.697.477-1.335.681-1.897.8-2.253,1.203-3.39,1.203-3.39" fill="none" stroke="#231f20" stroke-miterlimit="10" stroke-width=".25"/>
      <path d="m28.959,42.688c6.872-6.455,12.452-12.585,16.787-18.153,4.334-5.562,7.621-10.457,9.794-14.564.553-1.023,1.113-1.968,1.565-2.876.419-.919.808-1.773,1.167-2.562.361-.788.693-1.512.995-2.17.256-.669.455-1.279.65-1.817.767-2.156,1.155-3.243,1.155-3.243" fill="none" stroke="#231f20" stroke-miterlimit="10" stroke-width=".25"/>
    </g>
  </g>
  <g>
    <g>
      <path d="m38.669-5.374c2.581,1.725,4.072,3.772,4.493,5.254.207.757.258,1.4.163,2.026-.087.628-.295,1.24-.567,1.787-.539,1.104-1.245,1.91-1.72,2.407-.491.496-.776.723-.776.723" fill="none" stroke="#231f20" stroke-miterlimit="10" stroke-width=".25"/>
      <path d="m40.061-7.428c2.908,1.951,4.826,4.385,5.477,6.591.656,2.214.176,4.155-.546,5.613-.719,1.464-1.589,2.438-2.173,3.053-.602.609-.945.881-.945.881" fill="none" stroke="#231f20" stroke-miterlimit="10" stroke-width=".25"/>
      <path d="m34.959,10.047c-1.6.756-3.303,1.5-4.804,2.166-1.512.665-2.9,1.253-4.175,1.755-2.55,1.011-4.654,1.661-6.334,2.067-1.676.41-2.942.586-3.759.673-.409.049-.716.072-.922.081-.206.013-.309.02-.309.02" fill="none" stroke="#231f20" stroke-miterlimit="10" stroke-width=".25"/>
      <path d="m36.026,12.287c-1.674.79-3.349,1.521-4.872,2.197-1.529.673-2.948,1.274-4.265,1.793-2.631,1.043-4.858,1.735-6.658,2.17-1.798.44-3.171.632-4.077.729-.453.054-.794.08-1.023.09-.228.015-.343.022-.343.022" fill="none" stroke="#231f20" stroke-miterlimit="10" stroke-width=".25"/>
      <path d="m9.403,16.434c-3.018-.622-5.215-1.914-6.684-3.344C1.212,11.624-.005,9.685-1.125,8.047c-1.112-1.661-2.14-3.045-2.907-3.94-.813-.948-1.298-1.392-1.298-1.392" fill="none" stroke="#231f20" stroke-miterlimit="10" stroke-width=".25"/>
      <path d="m8.895,18.863c-3.431-.702-6.101-2.231-7.902-3.99-1.818-1.785-3.059-3.821-4.174-5.436-1.098-1.639-2.047-2.91-2.744-3.724-.719-.837-1.138-1.222-1.138-1.222" fill="none" stroke="#231f20" stroke-miterlimit="10" stroke-width=".25"/>
    </g>
    <g>
      <path d="m49.595-1.284c.535,2.275.288,4.587-.397,6.451-.674,1.885-1.68,3.416-2.749,4.664-2.186,2.518-4.508,3.877-6.297,4.885-1.815.986-3.194,1.59-4.099,2.006-.904.405-1.36.609-1.36.609" fill="none" stroke="#231f20" stroke-miterlimit="10" stroke-width=".25"/>
      <path d="m52.011-1.848c.311,1.379.426,2.788.32,4.134-.102,1.342-.397,2.588-.795,3.711-.806,2.249-1.978,4.015-3.201,5.447-2.528,2.903-5.08,4.365-6.989,5.448-1.938,1.052-3.352,1.669-4.272,2.092-.911.408-1.37.614-1.37.614" fill="none" stroke="#231f20" stroke-miterlimit="10" stroke-width=".25"/>
      <path d="m27.781,20.263c-3.671,1.424-7.109,2.373-10.166,2.799-3.077.443-5.724.335-7.818.056-2.099-.295-3.658-.756-4.678-1.123-1.019-.376-1.522-.602-1.522-.602" fill="none" stroke="#231f20" stroke-miterlimit="10" stroke-width=".25"/>
      <path d="m28.672,22.578c-3.788,1.47-7.429,2.484-10.709,2.94-3.323.478-6.209.365-8.503.058-2.302-.323-4.031-.833-5.169-1.242-1.137-.419-1.701-.674-1.701-.674" fill="none" stroke="#231f20" stroke-miterlimit="10" stroke-width=".25"/>
    </g>
  </g>
  <g>
    <g>
      <path d="m49.99,67.359c13.185-3.492,22.596-7.924,28.701-11.138,3.087-1.566,5.3-2.949,6.801-3.837,1.498-.893,2.254-1.343,2.254-1.343" fill="none" stroke="#231f20" stroke-miterlimit="10" stroke-width=".25"/>
      <path d="m49.376,64.954c12.928-3.425,22.166-7.773,28.158-10.928,3.03-1.536,5.203-2.895,6.677-3.767,1.471-.876,2.213-1.318,2.213-1.318" fill="none" stroke="#231f20" stroke-miterlimit="10" stroke-width=".25"/>
      <path d="m97.131,44.523c.68-.509,1.36-.996,2.01-1.502.637-.522,1.264-1.036,1.881-1.542,1.228-1.019,2.439-1.979,3.567-2.955,1.105-1.004,2.172-1.973,3.2-2.907.514-.467,1.018-.926,1.513-1.376.473-.472.938-.935,1.392-1.389,3.681-3.592,6.524-6.836,8.775-9.46,2.17-2.695,3.856-4.69,4.841-6.135,1.027-1.412,1.545-2.124,1.545-2.124" fill="none" stroke="#231f20" stroke-miterlimit="10" stroke-width=".25"/>
      <path d="m95.638,42.541c.667-.5,1.336-.978,1.974-1.474.625-.513,1.241-1.018,1.846-1.515,1.206-1,2.395-1.943,3.503-2.901,1.085-.986,2.132-1.937,3.142-2.854.505-.459,1-.909,1.486-1.351.465-.464.92-.919,1.367-1.364,3.614-3.526,6.405-6.711,8.614-9.287,2.129-2.645,3.785-4.602,4.75-6.02,1.008-1.385,1.516-2.084,1.516-2.084" fill="none" stroke="#231f20" stroke-miterlimit="10" stroke-width=".25"/>
      <path d="m132.938,4.075c.425-.738.843-1.464,1.255-2.18.414-.714.753-1.455,1.124-2.163.723-1.427,1.422-2.808,2.099-4.143.628-1.357,1.195-2.685,1.762-3.956.552-1.277,1.134-2.487,1.563-3.701.457-1.203.896-2.357,1.316-3.462.428-1.102.823-2.16,1.134-3.192.653-2.052,1.273-3.894,1.766-5.551.445-1.671.836-3.137,1.171-4.396.347-1.256.611-2.312.774-3.169.363-1.706.546-2.566.546-2.566" fill="none" stroke="#231f20" stroke-miterlimit="10" stroke-width=".25"/>
      <path d="m130.784,2.843c.417-.723.827-1.436,1.232-2.137.406-.7.738-1.427,1.101-2.121.709-1.399,1.395-2.753,2.059-4.062.616-1.331,1.172-2.634,1.728-3.881.541-1.253,1.113-2.438,1.534-3.63.449-1.18.879-2.313,1.291-3.397.421-1.081.808-2.12,1.112-3.132.64-2.014,1.25-3.821,1.733-5.448.437-1.64.82-3.079,1.149-4.315.341-1.233.6-2.269.76-3.111.356-1.675.536-2.519.536-2.519" fill="none" stroke="#231f20" stroke-miterlimit="10" stroke-width=".25"/>
    </g>
    <g>
      <path d="m65.492,55.264c1.515-.569,2.915-1.28,4.298-1.908,1.367-.661,2.735-1.211,3.977-1.905,2.505-1.344,4.883-2.51,6.957-3.815,1.052-.626,2.061-1.226,3.027-1.801.968-.572,1.839-1.204,2.699-1.76,1.698-1.146,3.27-2.123,4.569-3.137,1.323-.98,2.484-1.839,3.481-2.577.995-.739,1.769-1.432,2.419-1.948,1.284-1.054,1.931-1.585,1.931-1.585" fill="none" stroke="#231f20" stroke-miterlimit="10" stroke-width=".25"/>
      <path d="m64.533,52.975c1.485-.557,2.858-1.255,4.214-1.871,1.34-.649,2.682-1.186,3.9-1.868,2.456-1.319,4.789-2.46,6.823-3.741,1.032-.614,2.022-1.202,2.97-1.766.95-.56,1.804-1.182,2.648-1.727,1.666-1.124,3.208-2.082,4.482-3.078,1.298-.961,2.437-1.804,3.415-2.527.977-.725,1.735-1.405,2.373-1.911,1.259-1.034,1.894-1.555,1.894-1.555" fill="none" stroke="#231f20" stroke-miterlimit="10" stroke-width=".25"/>
      <path d="m106.859,27.464c9.179-9.145,14.774-17.314,18.232-22.892,1.689-2.821,2.911-4.982,3.723-6.427.75-1.48,1.128-2.226,1.128-2.226" fill="none" stroke="#231f20" stroke-miterlimit="10" stroke-width=".25"/>
      <path d="m105.106,25.708c9.004-8.97,14.488-16.977,17.875-22.442,1.654-2.764,2.852-4.88,3.648-6.296.734-1.45,1.104-2.181,1.104-2.181" fill="none" stroke="#231f20" stroke-miterlimit="10" stroke-width=".25"/>
    </g>
  </g>
  <path d="m172.594,28.043c5.062-2.752,9.579-6.642,9.961-8.595s7.197-9.124,10.466-9.947,9.472-3.34,12.076-5.121,4.193-2.418,4.193-2.418m-13.627-.726c-1.161,1.587-4.369,5.136-2.642,8.265m13.62-10.709c-.865,1.054-3.108,4.618-3.036,6.291m-3.651,1.961c1.129,3.213,7.303,3.032,7.303,3.032m-24.702,9.372c3.888,2.252,11.224.671,11.224.671m-3.644-2.969s-1.139.705-2.14,3.408" fill="none" stroke="#231f20" stroke-linecap="round" stroke-linejoin="round" stroke-width=".25"/>
  <g>
    <rect x="-2340.473" y="37.712" width="3386.58" height="2514.089" transform="translate(-1941.939 647.574) rotate(-90)" fill="none" stroke="#231f20" stroke-linecap="round" stroke-miterlimit="10" stroke-width="7"/>
    <rect x="-2323.506" y="54.834" width="3353.392" height="2482.402" transform="translate(-1942.845 649.225) rotate(-90)" fill="none" stroke="#231f20" stroke-linecap="round" stroke-miterlimit="10" stroke-width="3"/>
    <rect x="-2285.031" y="90.452" width="3275.615" height="2412.095" transform="translate(-1943.722 649.276) rotate(-90)" fill="none" stroke="#231f20" stroke-linecap="round" stroke-miterlimit="10"/>
    <rect x="-2267.163" y="107.815" width="3239.88" height="2376.261" transform="translate(-1943.169 648.723) rotate(-90)" fill="none" stroke="#231f20" stroke-linecap="round" stroke-miterlimit="10"/>
    <line x1="540.907" y1="396.191" x2="558.824" y2="396.191" fill="none" stroke="#231f20" stroke-linecap="round" stroke-miterlimit="10"/>
    <line x1="540.907" y1="324.352" x2="558.824" y2="324.352" fill="none" stroke="#231f20" stroke-linecap="round" stroke-miterlimit="10"/>
    <line x1="540.907" y1="252.297" x2="558.824" y2="252.297" fill="none" stroke="#231f20" stroke-linecap="round" stroke-miterlimit="10"/>
    <line x1="540.907" y1="180.448" x2="558.824" y2="180.448" fill="none" stroke="#231f20" stroke-linecap="round" stroke-miterlimit="10"/>
    <line x1="540.907" y1="108.294" x2="558.824" y2="108.294" fill="none" stroke="#231f20" stroke-linecap="round" stroke-miterlimit="10"/>
    <line x1="540.907" y1="36.373" x2="558.824" y2="36.373" fill="none" stroke="#231f20" stroke-linecap="round" stroke-miterlimit="10"/>
    <rect x="477.866" y="464.004" width="144" height="8.773" transform="translate(81.476 1018.256) rotate(-90)" fill="#231f20" stroke-width="0"/>
    <rect x="478.136" y="178.514" width="144" height="3.6" transform="translate(369.822 730.45) rotate(-90)" fill="#231f20" stroke-width="0"/>
  </g>
  <g>
    <ellipse cx="480.892" cy="2.544" rx=".803" ry=".82" transform="translate(37.599 188.972) rotate(-23.112)" fill="#b0b0b0" stroke-width="0"/>
    <ellipse cx="464.21" cy="2.282" rx=".82" ry=".803" transform="translate(36.363 182.402) rotate(-23.112)" fill="#b0b0b0" stroke-width="0"/>
    <ellipse cx="456.526" cy="-.769" rx=".82" ry=".803" transform="translate(36.944 179.141) rotate(-23.112)" fill="#b0b0b0" stroke-width="0"/>
    <ellipse cx="476.249" cy="-.186" rx=".798" ry=".782" transform="translate(38.298 186.93) rotate(-23.112)" fill="#b0b0b0" stroke-width="0"/>
    <ellipse cx="467.254" cy="1.771" rx=".82" ry=".803" transform="translate(36.808 183.556) rotate(-23.112)" fill="#b0b0b0" stroke-width="0"/>
    <ellipse cx="468.533" cy="-.426" rx=".82" ry=".803" transform="translate(37.773 183.882) rotate(-23.112)" fill="#b0b0b0" stroke-width="0"/>
    <ellipse cx="470.948" cy="1.352" rx=".82" ry=".803" transform="translate(37.269 184.972) rotate(-23.112)" fill="#b0b0b0" stroke-width="0"/>
    <ellipse cx="458.182" cy="1.856" rx=".82" ry=".803" transform="translate(36.047 180.002) rotate(-23.112)" fill="#b0b0b0" stroke-width="0"/>
    <ellipse cx="461.097" cy="1.017" rx=".82" ry=".803" transform="translate(36.61 181.078) rotate(-23.112)" fill="#b0b0b0" stroke-width="0"/>
    <ellipse cx="465.631" cy="-.422" rx=".82" ry=".803" transform="translate(37.539 182.743) rotate(-23.112)" fill="#b0b0b0" stroke-width="0"/>
    <ellipse cx="479.745" cy=".1" rx=".803" ry=".82" transform="translate(38.467 188.325) rotate(-23.112)" fill="#b0b0b0" stroke-width="0"/>
    <ellipse cx="472.509" cy="3.142" rx=".803" ry=".82" transform="translate(36.692 185.729) rotate(-23.112)" fill="#b0b0b0" stroke-width="0"/>
    <ellipse cx="474.355" cy="1.95" rx=".803" ry=".82" transform="translate(37.308 186.358) rotate(-23.112)" fill="#b0b0b0" stroke-width="0"/>
    <ellipse cx="483.767" cy="3.642" rx=".803" ry=".82" transform="translate(37.399 190.188) rotate(-23.112)" fill="#b0b0b0" stroke-width="0"/>
    <ellipse cx="473.444" cy="-.35" rx=".782" ry=".798" transform="translate(38.138 185.816) rotate(-23.112)" fill="#b0b0b0" stroke-width="0"/>
    <ellipse cx="477.937" cy="2.289" rx=".803" ry=".82" transform="translate(37.462 187.791) rotate(-23.112)" fill="#b0b0b0" stroke-width="0"/>
    <ellipse cx="533.758" cy="3.654" rx=".803" ry=".82" transform="translate(41.407 209.812) rotate(-23.112)" fill="#b0b0b0" stroke-width="0"/>
    <ellipse cx="532.286" cy="1.176" rx=".803" ry=".82" transform="translate(42.261 209.035) rotate(-23.112)" fill="#b0b0b0" stroke-width="0"/>
    <ellipse cx="514.125" cy="19.742" rx=".803" ry=".82" transform="translate(33.516 203.397) rotate(-23.112)" fill="#b0b0b0" stroke-width="0"/>
    <ellipse cx="516.441" cy="18.231" rx=".803" ry=".82" transform="translate(34.295 204.185) rotate(-23.112)" fill="#b0b0b0" stroke-width="0"/>
    <ellipse cx="519.073" cy="19.988" rx=".644" ry=".658" transform="translate(33.816 205.359) rotate(-23.112)" fill="#b0b0b0" stroke-width="0"/>
    <ellipse cx="521.571" cy="21.634" rx=".655" ry=".669" transform="translate(33.371 206.472) rotate(-23.112)" fill="#b0b0b0" stroke-width="0"/>
    <path d="m512.534,16.469l-.784.178-.784.178.784-.178.784-.178Z" fill="#b0b0b0" stroke-width="0"/>
    <ellipse cx="515.013" cy="15.534" rx=".803" ry=".82" transform="translate(35.239 203.408) rotate(-23.112)" fill="#b0b0b0" stroke-width="0"/>
    <ellipse cx="511.712" cy="16.485" rx=".803" ry=".82" transform="translate(34.601 202.188) rotate(-23.112)" fill="#b0b0b0" stroke-width="0"/>
    <ellipse cx="512.721" cy="13.275" rx=".782" ry=".798" transform="translate(35.942 202.327) rotate(-23.112)" fill="#b0b0b0" stroke-width="0"/>
    <ellipse cx="517.519" cy="13.609" rx=".803" ry=".82" transform="translate(36.196 204.237) rotate(-23.112)" fill="#b0b0b0" stroke-width="0"/>
    <ellipse cx="515.47" cy="12.242" rx=".803" ry=".82" transform="translate(36.568 203.323) rotate(-23.112)" fill="#b0b0b0" stroke-width="0"/>
    <ellipse cx="521.044" cy="13.544" rx=".782" ry=".798" transform="translate(36.504 205.615) rotate(-23.112)" fill="#b0b0b0" stroke-width="0"/>
    <ellipse cx="519.233" cy="11.543" rx=".803" ry=".82" transform="translate(37.144 204.744) rotate(-23.112)" fill="#b0b0b0" stroke-width="0"/>
    <ellipse cx="516.57" cy="9.636" rx=".782" ry=".798" transform="translate(37.679 203.545) rotate(-23.112)" fill="#b0b0b0" stroke-width="0"/>
    <ellipse cx="514.145" cy="8.153" rx=".782" ry=".798" transform="translate(38.067 202.475) rotate(-23.112)" fill="#b0b0b0" stroke-width="0"/>
    <ellipse cx="512.786" cy="10.511" rx=".803" ry=".82" transform="translate(37.032 202.13) rotate(-23.112)" fill="#b0b0b0" stroke-width="0"/>
    <ellipse cx="509.841" cy="11.981" rx=".782" ry=".798" transform="translate(36.219 201.092) rotate(-23.112)" fill="#b0b0b0" stroke-width="0"/>
    <ellipse cx="509.259" cy="14.803" rx=".803" ry=".82" transform="translate(35.064 201.09) rotate(-23.112)" fill="#b0b0b0" stroke-width="0"/>
    <ellipse cx="508.945" cy="17.527" rx=".803" ry=".82" transform="translate(33.969 201.186) rotate(-23.112)" fill="#b0b0b0" stroke-width="0"/>
    <ellipse cx="506.33" cy="15.469" rx=".803" ry=".82" transform="translate(34.567 199.994) rotate(-23.112)" fill="#b0b0b0" stroke-width="0"/>
    <ellipse cx="505.692" cy="12.754" rx=".803" ry=".82" transform="translate(35.582 199.526) rotate(-23.112)" fill="#b0b0b0" stroke-width="0"/>
    <ellipse cx="507.09" cy="10.348" rx=".803" ry=".82" transform="translate(36.639 199.881) rotate(-23.112)" fill="#b0b0b0" stroke-width="0"/>
    <ellipse cx="509.968" cy="9.063" rx=".803" ry=".82" transform="translate(37.374 200.908) rotate(-23.112)" fill="#b0b0b0" stroke-width="0"/>
    <ellipse cx="512.213" cy="6.749" rx=".782" ry=".798" transform="translate(38.463 201.603) rotate(-23.112)" fill="#b0b0b0" stroke-width="0"/>
    <ellipse cx="523.041" cy="11.21" rx=".782" ry=".798" transform="translate(37.581 206.212) rotate(-23.112)" fill="#b0b0b0" stroke-width="0"/>
    <ellipse cx="521.094" cy="9.02" rx=".782" ry=".798" transform="translate(38.284 205.272) rotate(-23.112)" fill="#b0b0b0" stroke-width="0"/>
    <ellipse cx="518.585" cy="7.939" rx=".698" ry=".712" transform="translate(38.507 204.2) rotate(-23.112)" fill="#b0b0b0" stroke-width="0"/>
    <ellipse cx="516.025" cy="5.696" rx=".782" ry=".798" transform="translate(39.182 203.015) rotate(-23.112)" fill="#b0b0b0" stroke-width="0"/>
    <ellipse cx="518.186" cy="4.008" rx=".803" ry=".82" transform="translate(40.018 203.728) rotate(-23.112)" fill="#b0b0b0" stroke-width="0"/>
    <ellipse cx="520.82" cy="5.826" rx=".657" ry=".671" transform="translate(39.516 204.908) rotate(-23.112)" fill="#b0b0b0" stroke-width="0"/>
    <ellipse cx="523.493" cy="7.514" rx=".803" ry=".82" transform="translate(39.068 206.093) rotate(-23.112)" fill="#b0b0b0" stroke-width="0"/>
    <ellipse cx="525.685" cy="9.235" rx=".701" ry=".716" transform="translate(38.568 207.091) rotate(-23.112)" fill="#b0b0b0" stroke-width="0"/>
    <ellipse cx="513.628" cy="4.272" rx=".782" ry=".798" transform="translate(39.548 201.96) rotate(-23.112)" fill="#b0b0b0" stroke-width="0"/>
    <ellipse cx="509.155" cy="5.6" rx=".803" ry=".82" transform="translate(38.668 200.311) rotate(-23.112)" fill="#b0b0b0" stroke-width="0"/>
    <ellipse cx="506.986" cy="7.251" rx=".803" ry=".82" transform="translate(37.846 199.592) rotate(-23.112)" fill="#b0b0b0" stroke-width="0"/>
    <ellipse cx="504.317" cy="8.454" rx=".803" ry=".82" transform="translate(37.159 198.641) rotate(-23.112)" fill="#b0b0b0" stroke-width="0"/>
    <ellipse cx="503.359" cy="11.081" rx=".803" ry=".82" transform="translate(36.052 198.476) rotate(-23.112)" fill="#b0b0b0" stroke-width="0"/>
    <ellipse cx="500.222" cy="12.326" rx=".803" ry=".82" transform="translate(35.311 197.345) rotate(-23.112)" fill="#b0b0b0" stroke-width="0"/>
    <ellipse cx="515.595" cy="2.304" rx=".803" ry=".82" transform="translate(40.479 202.575) rotate(-23.112)" fill="#b0b0b0" stroke-width="0"/>
    <ellipse cx="517.911" cy=".794" rx=".803" ry=".82" transform="translate(41.258 203.362) rotate(-23.112)" fill="#b0b0b0" stroke-width="0"/>
    <ellipse cx="520.543" cy="2.551" rx=".644" ry=".658" transform="translate(40.779 204.536) rotate(-23.112)" fill="#b0b0b0" stroke-width="0"/>
    <ellipse cx="523.041" cy="4.196" rx=".655" ry=".669" transform="translate(40.334 205.649) rotate(-23.112)" fill="#b0b0b0" stroke-width="0"/>
    <ellipse cx="496.561" cy=".331" rx=".782" ry=".798" transform="translate(39.726 194.944) rotate(-23.112)" fill="#b0b0b0" stroke-width="0"/>
    <ellipse cx="491.757" cy=".162" rx=".803" ry=".82" transform="translate(39.407 193.045) rotate(-23.112)" fill="#b0b0b0" stroke-width="0"/>
    <ellipse cx="493.849" cy="1.459" rx=".803" ry=".82" transform="translate(39.065 193.97) rotate(-23.112)" fill="#b0b0b0" stroke-width="0"/>
    <ellipse cx="488.238" cy=".348" rx=".782" ry=".798" transform="translate(39.051 191.679) rotate(-23.112)" fill="#b0b0b0" stroke-width="0"/>
    <ellipse cx="490.114" cy="2.287" rx=".803" ry=".82" transform="translate(38.44 192.571) rotate(-23.112)" fill="#b0b0b0" stroke-width="0"/>
    <ellipse cx="492.838" cy="4.102" rx=".782" ry=".798" transform="translate(37.947 193.786) rotate(-23.112)" fill="#b0b0b0" stroke-width="0"/>
    <ellipse cx="495.309" cy="5.502" rx=".782" ry=".798" transform="translate(37.596 194.868) rotate(-23.112)" fill="#b0b0b0" stroke-width="0"/>
    <ellipse cx="496.588" cy="3.097" rx=".803" ry=".82" transform="translate(38.642 195.177) rotate(-23.112)" fill="#b0b0b0" stroke-width="0"/>
    <ellipse cx="499.481" cy="1.526" rx=".782" ry=".798" transform="translate(39.491 196.187) rotate(-23.112)" fill="#b0b0b0" stroke-width="0"/>
    <ellipse cx="503.6" cy=".611" rx=".803" ry=".82" transform="translate(40.181 197.73) rotate(-23.112)" fill="#b0b0b0" stroke-width="0"/>
    <ellipse cx="502.284" cy="3.065" rx=".803" ry=".82" transform="translate(39.112 197.41) rotate(-23.112)" fill="#b0b0b0" stroke-width="0"/>
    <ellipse cx="499.451" cy="4.449" rx=".803" ry=".82" transform="translate(38.341 196.41) rotate(-23.112)" fill="#b0b0b0" stroke-width="0"/>
    <ellipse cx="497.286" cy="6.839" rx=".782" ry=".798" transform="translate(37.229 195.752) rotate(-23.112)" fill="#b0b0b0" stroke-width="0"/>
    <ellipse cx="486.321" cy="2.75" rx=".782" ry=".798" transform="translate(37.954 191.119) rotate(-23.112)" fill="#b0b0b0" stroke-width="0"/>
    <ellipse cx="488.339" cy="4.874" rx=".782" ry=".798" transform="translate(37.283 192.082) rotate(-23.112)" fill="#b0b0b0" stroke-width="0"/>
    <ellipse cx="490.881" cy="5.868" rx=".698" ry=".712" transform="translate(37.096 193.159) rotate(-23.112)" fill="#b0b0b0" stroke-width="0"/>
    <ellipse cx="493.514" cy="8.023" rx=".782" ry=".798" transform="translate(36.462 194.366) rotate(-23.112)" fill="#b0b0b0" stroke-width="0"/>
    <ellipse cx="535.106" cy="8.317" rx=".657" ry=".671" transform="translate(39.685 210.716) rotate(-23.112)" fill="#b0b0b0" stroke-width="0"/>
    <ellipse cx="534.198" cy="6.098" rx=".803" ry=".82" transform="translate(40.483 210.181) rotate(-23.112)" fill="#b0b0b0" stroke-width="0"/>
    <ellipse cx="495.956" cy="9.364" rx=".782" ry=".798" transform="translate(36.131 195.432) rotate(-23.112)" fill="#b0b0b0" stroke-width="0"/>
    <ellipse cx="500.38" cy="7.883" rx=".803" ry=".82" transform="translate(37.068 197.05) rotate(-23.112)" fill="#b0b0b0" stroke-width="0"/>
    <ellipse cx="502.491" cy="6.158" rx=".803" ry=".82" transform="translate(37.914 197.74) rotate(-23.112)" fill="#b0b0b0" stroke-width="0"/>
    <ellipse cx="505.117" cy="4.863" rx=".803" ry=".82" transform="translate(38.634 198.667) rotate(-23.112)" fill="#b0b0b0" stroke-width="0"/>
    <ellipse cx="505.986" cy="2.204" rx=".803" ry=".82" transform="translate(39.747 198.794) rotate(-23.112)" fill="#b0b0b0" stroke-width="0"/>
    <ellipse cx="509.078" cy=".85" rx=".803" ry=".82" transform="translate(40.526 199.899) rotate(-23.112)" fill="#b0b0b0" stroke-width="0"/>
    <ellipse cx="511.834" cy="-.361" rx=".803" ry=".82" transform="translate(41.223 200.884) rotate(-23.112)" fill="#b0b0b0" stroke-width="0"/>
    <ellipse cx="536.751" cy="9.846" rx=".644" ry=".658" transform="translate(39.217 211.484) rotate(-23.112)" fill="#b0b0b0" stroke-width="0"/>
    <ellipse cx="532.885" cy="9.648" rx=".655" ry=".669" transform="translate(38.984 209.951) rotate(-23.112)" fill="#b0b0b0" stroke-width="0"/>
    <ellipse cx="518.755" cy="15.856" rx=".803" ry=".82" transform="translate(35.413 204.903) rotate(-23.112)" fill="#b0b0b0" stroke-width="0"/>
    <ellipse cx="521.422" cy="18.771" rx=".803" ry=".82" transform="translate(34.483 206.183) rotate(-23.112)" fill="#b0b0b0" stroke-width="0"/>
    <ellipse cx="524.033" cy="16.8" rx=".803" ry=".82" transform="translate(35.466 207.05) rotate(-23.112)" fill="#b0b0b0" stroke-width="0"/>
    <ellipse cx="524.102" cy="20.739" rx=".803" ry=".82" transform="translate(33.925 207.393) rotate(-23.112)" fill="#b0b0b0" stroke-width="0"/>
    <ellipse cx="524.83" cy="23.432" rx=".803" ry=".82" transform="translate(32.926 207.895) rotate(-23.112)" fill="#b0b0b0" stroke-width="0"/>
    <ellipse cx="527.216" cy="25.025" rx=".803" ry=".82" transform="translate(32.493 208.96) rotate(-23.112)" fill="#b0b0b0" stroke-width="0"/>
    <ellipse cx="527.967" cy="21.726" rx=".803" ry=".82" transform="translate(33.848 208.99) rotate(-23.112)" fill="#b0b0b0" stroke-width="0"/>
    <ellipse cx="526.757" cy="18.944" rx=".803" ry=".82" transform="translate(34.843 208.291) rotate(-23.112)" fill="#b0b0b0" stroke-width="0"/>
    <ellipse cx="527.239" cy="15.953" rx=".803" ry=".82" transform="translate(36.056 208.241) rotate(-23.112)" fill="#b0b0b0" stroke-width="0"/>
    <ellipse cx="529.588" cy="17.879" rx=".803" ry=".82" transform="translate(35.488 209.317) rotate(-23.112)" fill="#b0b0b0" stroke-width="0"/>
    <ellipse cx="530.711" cy="20.423" rx=".803" ry=".82" transform="translate(34.58 209.962) rotate(-23.112)" fill="#b0b0b0" stroke-width="0"/>
    <ellipse cx="530.308" cy="23.672" rx=".803" ry=".82" transform="translate(33.272 210.065) rotate(-23.112)" fill="#b0b0b0" stroke-width="0"/>
    <ellipse cx="533.064" cy="22.46" rx=".803" ry=".82" transform="translate(33.969 211.049) rotate(-23.112)" fill="#b0b0b0" stroke-width="0"/>
    <ellipse cx="526.118" cy="5.858" rx=".803" ry=".82" transform="translate(39.928 206.99) rotate(-23.112)" fill="#b0b0b0" stroke-width="0"/>
    <ellipse cx="525.279" cy="2.944" rx=".803" ry=".82" transform="translate(41.005 206.427) rotate(-23.112)" fill="#b0b0b0" stroke-width="0"/>
    <ellipse cx="526.146" cy=".05" rx=".803" ry=".82" transform="translate(42.211 206.535) rotate(-23.112)" fill="#b0b0b0" stroke-width="0"/>
    <ellipse cx="528.229" cy="2.27" rx=".803" ry=".82" transform="translate(41.506 207.531) rotate(-23.112)" fill="#b0b0b0" stroke-width="0"/>
    <ellipse cx="529.013" cy="4.936" rx=".803" ry=".82" transform="translate(40.523 208.053) rotate(-23.112)" fill="#b0b0b0" stroke-width="0"/>
    <ellipse cx="528.191" cy="8.096" rx=".803" ry=".82" transform="translate(39.216 207.984) rotate(-23.112)" fill="#b0b0b0" stroke-width="0"/>
    <ellipse cx="530.449" cy="7.758" rx=".803" ry=".82" transform="translate(39.53 208.843) rotate(-23.112)" fill="#b0b0b0" stroke-width="0"/>
    <ellipse cx="523.07" cy=".986" rx=".803" ry=".82" transform="translate(41.596 205.403) rotate(-23.112)" fill="#b0b0b0" stroke-width="0"/>
    <ellipse cx="520.786" cy="-.351" rx=".803" ry=".82" transform="translate(41.938 204.399) rotate(-23.112)" fill="#b0b0b0" stroke-width="0"/>
    <ellipse cx="511.111" cy="3.097" rx=".803" ry=".82" transform="translate(39.808 200.878) rotate(-23.112)" fill="#b0b0b0" stroke-width="0"/>
    <ellipse cx="514.184" cy=".066" rx=".803" ry=".82" transform="translate(41.244 201.841) rotate(-23.112)" fill="#b0b0b0" stroke-width="0"/>
    <ellipse cx="511.366" cy="19.199" rx=".803" ry=".82" transform="translate(33.507 202.27) rotate(-23.112)" fill="#b0b0b0" stroke-width="0"/>
    <path d="m527.556,12.234l.661-.458.661-.458-.661.458-.661.458Z" fill="#b0b0b0" stroke-width="0"/>
    <ellipse cx="525.6" cy="14.029" rx=".803" ry=".82" transform="translate(36.679 207.443) rotate(-23.112)" fill="#b0b0b0" stroke-width="0"/>
    <ellipse cx="528.311" cy="11.913" rx=".803" ry=".82" transform="translate(37.727 208.337) rotate(-23.112)" fill="#b0b0b0" stroke-width="0"/>
    <ellipse cx="539.798" cy="16.694" rx=".803" ry=".82" transform="translate(36.773 213.23) rotate(-23.112)" fill="#b0b0b0" stroke-width="0"/>
    <ellipse cx="529.889" cy="14.692" rx=".782" ry=".798" transform="translate(36.763 209.179) rotate(-23.112)" fill="#b0b0b0" stroke-width="0"/>
    <ellipse cx="531.601" cy="12.697" rx=".782" ry=".798" transform="translate(37.684 209.692) rotate(-23.112)" fill="#b0b0b0" stroke-width="0"/>
    <ellipse cx="534.806" cy="20.835" rx=".782" ry=".798" transform="translate(34.747 211.603) rotate(-23.112)" fill="#b0b0b0" stroke-width="0"/>
    <ellipse cx="531.435" cy="16.687" rx=".803" ry=".82" transform="translate(36.104 209.946) rotate(-23.112)" fill="#b0b0b0" stroke-width="0"/>
    <ellipse cx="532.03" cy="5.767" rx=".782" ry=".798" transform="translate(40.439 209.304) rotate(-23.112)" fill="#b0b0b0" stroke-width="0"/>
    <ellipse cx="530.494" cy="9.91" rx=".803" ry=".82" transform="translate(38.689 209.033) rotate(-23.112)" fill="#b0b0b0" stroke-width="0"/>
    <ellipse cx="533.619" cy="11.453" rx=".803" ry=".82" transform="translate(38.334 210.384) rotate(-23.112)" fill="#b0b0b0" stroke-width="0"/>
    <ellipse cx="525.623" cy="11.546" rx=".639" ry=".653" transform="translate(37.656 207.252) rotate(-23.112)" fill="#b0b0b0" stroke-width="0"/>
    <ellipse cx="538.614" cy="18.786" rx=".782" ry=".798" transform="translate(35.857 212.933) rotate(-23.112)" fill="#b0b0b0" stroke-width="0"/>
    <ellipse cx="483.095" cy="-.768" rx=".782" ry=".798" transform="translate(39.076 189.57) rotate(-23.112)" fill="#b0b0b0" stroke-width="0"/>
    <ellipse cx="539.195" cy="10.15" rx=".803" ry=".82" transform="translate(39.293 212.468) rotate(-23.112)" fill="#b0b0b0" stroke-width="0"/>
    <ellipse cx="521.184" cy="16.114" rx=".701" ry=".716" transform="translate(35.507 205.877) rotate(-23.112)" fill="#b0b0b0" stroke-width="0"/>
    <ellipse cx="485.386" cy="-.781" rx=".782" ry=".798" transform="translate(39.265 190.469) rotate(-23.112)" fill="#b0b0b0" stroke-width="0"/>
    <ellipse cx="498.293" cy="10.369" rx=".803" ry=".82" transform="translate(35.925 196.43) rotate(-23.112)" fill="#b0b0b0" stroke-width="0"/>
    <ellipse cx="501.344" cy="10.115" rx=".803" ry=".82" transform="translate(36.269 197.607) rotate(-23.112)" fill="#b0b0b0" stroke-width="0"/>
    <ellipse cx="533.228" cy="18.834" rx=".803" ry=".82" transform="translate(35.406 210.823) rotate(-23.112)" fill="#b0b0b0" stroke-width="0"/>
    <ellipse cx="483.486" cy="1.255" rx=".803" ry=".82" transform="translate(38.314 189.886) rotate(-23.112)" fill="#b0b0b0" stroke-width="0"/>
    <ellipse cx="535.243" cy="12.667" rx=".803" ry=".82" transform="translate(37.988 211.119) rotate(-23.112)" fill="#b0b0b0" stroke-width="0"/>
    <ellipse cx="538.687" cy="14.696" rx=".644" ry=".658" transform="translate(37.468 212.633) rotate(-23.112)" fill="#b0b0b0" stroke-width="0"/>
    <ellipse cx="537.72" cy="12.53" rx=".655" ry=".669" transform="translate(38.241 212.08) rotate(-23.112)" fill="#b0b0b0" stroke-width="0"/>
    <ellipse cx="536.317" cy="18.752" rx=".782" ry=".798" transform="translate(35.686 212.028) rotate(-23.112)" fill="#b0b0b0" stroke-width="0"/>
    <ellipse cx="533.223" cy="14.88" rx=".803" ry=".82" transform="translate(36.957 210.504) rotate(-23.112)" fill="#b0b0b0" stroke-width="0"/>
    <ellipse cx="535.017" cy="17.026" rx=".803" ry=".82" transform="translate(36.259 211.38) rotate(-23.112)" fill="#b0b0b0" stroke-width="0"/>
    <ellipse cx="536.076" cy="15.24" rx=".803" ry=".82" transform="translate(295.983 494.787) rotate(-65.033)" fill="#b0b0b0" stroke-width="0"/>
    <ellipse cx="539.658" cy="22.154" rx=".782" ry=".798" transform="translate(34.619 213.613) rotate(-23.112)" fill="#b0b0b0" stroke-width="0"/>
    <ellipse cx="530.725" cy="3.892" rx=".782" ry=".798" transform="translate(41.07 208.641) rotate(-23.112)" fill="#b0b0b0" stroke-width="0"/>
    <ellipse cx="532.963" cy="7.772" rx=".566" ry=".578" transform="translate(39.726 209.831) rotate(-23.112)" fill="#b0b0b0" stroke-width="0"/>
    <ellipse cx="540.075" cy="23.98" rx=".566" ry=".578" transform="translate(33.935 213.923) rotate(-23.112)" fill="#b0b0b0" stroke-width="0"/>
    <ellipse cx="537.461" cy="20.851" rx=".782" ry=".798" transform="translate(34.954 212.646) rotate(-23.112)" fill="#b0b0b0" stroke-width="0"/>
    <ellipse cx="529.79" cy="1.066" rx=".573" ry=".585" transform="translate(42.104 208.047) rotate(-23.112)" fill="#b0b0b0" stroke-width="0"/>
    <ellipse cx="536.169" cy="4.935" rx=".803" ry=".82" transform="translate(41.097 210.862) rotate(-23.112)" fill="#b0b0b0" stroke-width="0"/>
    <ellipse cx="536.609" cy="7.379" rx=".803" ry=".82" transform="translate(40.174 211.231) rotate(-23.112)" fill="#b0b0b0" stroke-width="0"/>
    <ellipse cx="535.968" cy="-.681" rx=".803" ry=".82" transform="translate(43.286 210.332) rotate(-23.112)" fill="#b0b0b0" stroke-width="0"/>
    <ellipse cx="536.409" cy="1.763" rx=".803" ry=".82" transform="translate(42.362 210.701) rotate(-23.112)" fill="#b0b0b0" stroke-width="0"/>
    <ellipse cx="538.38" cy=".6" rx=".803" ry=".82" transform="translate(42.977 211.381) rotate(-23.112)" fill="#b0b0b0" stroke-width="0"/>
    <ellipse cx="538.82" cy="3.044" rx=".803" ry=".82" transform="translate(42.053 211.75) rotate(-23.112)" fill="#b0b0b0" stroke-width="0"/>
    <ellipse cx="538.798" cy="6.322" rx=".803" ry=".82" transform="translate(40.764 212.005) rotate(-23.112)" fill="#b0b0b0" stroke-width="0"/>
  </g>
  <g>
    <path d="m1.472,302.738c.545.355.699,1.085.343,1.63-.355.545-1.085.699-1.63.343-.545-.355-.698-1.085-.343-1.63s1.085-.699,1.63-.343Z" fill="#231f20" stroke-width="0"/>
    <path d="m4.081,298.738c.545.355.698,1.085.343,1.63s-1.085.699-1.63.343-.698-1.085-.343-1.63c.355-.545,1.085-.699,1.63-.343Z" fill="#231f20" stroke-width="0"/>
  </g>
  <g>
    <line x1="120.156" y1="395.771" x2="125.3" y2="400.141" fill="none" stroke="#221f1f" stroke-miterlimit="10" stroke-width=".75"/>
    <line x1="157.085" y1="352.293" x2="162.23" y2="356.663" fill="none" stroke="#221f1f" stroke-miterlimit="10" stroke-width=".75"/>
  </g>
</svg>