<?xml version="1.0" encoding="UTF-8"?>
<svg id="a" data-name="Layer 1" xmlns="http://www.w3.org/2000/svg" width="9.002in" height="6.002in" viewBox="0 0 648.177 432.177">
  <g>
    <line x1="33.98" y1="399.506" x2="21.943" y2="407.416" fill="none" stroke="#231f20" stroke-miterlimit="10"/>
    <path d="m40.889,418.638c-3.109,1.785-6.217,3.571-9.326,5.356" fill="none" stroke="#231f20" stroke-miterlimit="10"/>
    <line x1="28.304" y1="408.217" x2="23.983" y2="410.95" fill="none" stroke="#231f20" stroke-miterlimit="10"/>
    <path d="m34.371,417.913c-1.514.95-3.027,1.901-4.541,2.851" fill="none" stroke="#231f20" stroke-miterlimit="10"/>
    <path d="m32.291,414.528c-1.473.932-2.947,1.864-4.42,2.796" fill="none" stroke="#231f20" stroke-miterlimit="10"/>
    <line x1="30.219" y1="411.283" x2="25.946" y2="414.091" fill="none" stroke="#231f20" stroke-miterlimit="10"/>
  </g>
  <g>
    <line x1="-144.342" y1="407.42" x2="330.086" y2="-22.947" fill="none" stroke="#231f20" stroke-miterlimit="10" stroke-width=".375"/>
    <line x1="89.021" y1="192.305" x2="92.527" y2="196.17" fill="none" stroke="#231f20" stroke-miterlimit="10" stroke-width=".375"/>
    <line x1="147.459" y1="140.369" x2="149.915" y2="143.076" fill="none" stroke="#231f20" stroke-miterlimit="10" stroke-width=".375"/>
    <line x1="210.373" y1="83.297" x2="212.829" y2="86.004" fill="none" stroke="#231f20" stroke-miterlimit="10" stroke-width=".375"/>
    <line x1="269.076" y1="30.046" x2="271.532" y2="32.753" fill="none" stroke="#231f20" stroke-miterlimit="10" stroke-width=".375"/>
    <line x1="31.819" y1="245.269" x2="34.274" y2="247.976" fill="none" stroke="#231f20" stroke-miterlimit="10" stroke-width=".375"/>
  </g>
  <g>
    <path d="m178.873,431.083c.3.577.075,1.288-.503,1.588-.577.3-1.288.075-1.588-.503s-.075-1.288.503-1.588,1.288-.075,1.588.503Z" fill="#231f20" stroke-width="0"/>
    <path d="m183.083,428.898c.3.577.074,1.288-.503,1.588-.577.3-1.289.075-1.588-.503-.3-.577-.075-1.288.503-1.588.577-.3,1.288-.075,1.588.503Z" fill="#231f20" stroke-width="0"/>
    <path d="m187.293,426.712c.3.577.075,1.288-.503,1.588s-1.288.075-1.588-.503c-.3-.577-.075-1.288.503-1.588.577-.3,1.289-.075,1.588.503Z" fill="#231f20" stroke-width="0"/>
    <path d="m191.503,424.527c.3.577.075,1.288-.503,1.588-.577.3-1.289.075-1.588-.503-.3-.577-.075-1.288.503-1.588s1.288-.075,1.588.503Z" fill="#231f20" stroke-width="0"/>
    <path d="m195.713,422.341c.3.577.075,1.288-.503,1.588-.577.3-1.288.075-1.588-.503-.3-.577-.074-1.288.503-1.588.577-.3,1.288-.075,1.588.503Z" fill="#231f20" stroke-width="0"/>
    <path d="m199.924,420.156c.3.577.075,1.288-.503,1.588s-1.288.075-1.588-.503c-.3-.577-.075-1.288.503-1.588.577-.3,1.288-.075,1.588.503Z" fill="#231f20" stroke-width="0"/>
    <path d="m204.134,417.97c.3.577.074,1.288-.503,1.588-.577.3-1.288.075-1.588-.503-.3-.577-.075-1.288.503-1.588s1.288-.075,1.588.503Z" fill="#231f20" stroke-width="0"/>
    <path d="m208.344,415.785c.3.577.075,1.288-.503,1.588-.577.3-1.288.075-1.588-.503s-.075-1.288.503-1.588c.577-.3,1.289-.075,1.588.503Z" fill="#231f20" stroke-width="0"/>
    <path d="m212.554,413.599c.3.577.074,1.288-.503,1.588-.577.3-1.289.075-1.588-.503-.3-.577-.075-1.288.503-1.588.577-.3,1.288-.075,1.588.503Z" fill="#231f20" stroke-width="0"/>
    <path d="m216.764,411.414c.3.577.075,1.288-.503,1.588-.577.3-1.288.075-1.588-.503-.3-.577-.074-1.288.503-1.588.577-.3,1.289-.075,1.588.503Z" fill="#231f20" stroke-width="0"/>
    <path d="m220.974,409.228c.3.577.075,1.288-.503,1.588-.577.3-1.289.075-1.588-.503-.3-.577-.075-1.288.503-1.588.577-.3,1.288-.075,1.588.503Z" fill="#231f20" stroke-width="0"/>
    <path d="m225.184,407.043c.3.577.075,1.288-.503,1.588s-1.288.075-1.588-.503c-.3-.577-.074-1.288.503-1.588.577-.3,1.288-.075,1.588.503Z" fill="#231f20" stroke-width="0"/>
    <path d="m229.394,404.857c.3.577.075,1.288-.503,1.588-.577.3-1.288.075-1.588-.503s-.075-1.288.503-1.588,1.288-.075,1.588.503Z" fill="#231f20" stroke-width="0"/>
    <path d="m233.605,402.672c.3.577.074,1.288-.503,1.588-.577.3-1.288.075-1.588-.503-.3-.577-.075-1.288.503-1.588.577-.3,1.288-.075,1.588.503Z" fill="#231f20" stroke-width="0"/>
    <path d="m237.814,400.486c.3.577.075,1.288-.503,1.588s-1.288.075-1.588-.503c-.3-.577-.075-1.288.503-1.588s1.289-.075,1.588.503Z" fill="#231f20" stroke-width="0"/>
    <path d="m242.025,398.301c.3.577.075,1.288-.503,1.588-.577.3-1.289.075-1.588-.503-.3-.577-.075-1.288.503-1.588s1.288-.075,1.588.503Z" fill="#231f20" stroke-width="0"/>
    <path d="m246.235,396.115c.3.577.075,1.288-.503,1.588-.577.3-1.288.075-1.588-.503-.3-.577-.074-1.288.503-1.588.577-.3,1.289-.075,1.588.503Z" fill="#231f20" stroke-width="0"/>
    <path d="m250.445,393.93c.3.577.075,1.288-.503,1.588s-1.288.075-1.588-.503c-.3-.577-.075-1.288.503-1.588s1.288-.075,1.588.503Z" fill="#231f20" stroke-width="0"/>
    <path d="m254.655,391.744c.3.577.074,1.288-.503,1.588-.577.3-1.288.075-1.588-.503-.3-.577-.074-1.288.503-1.588s1.288-.075,1.588.503Z" fill="#231f20" stroke-width="0"/>
    <path d="m258.865,389.559c.3.577.075,1.288-.503,1.588-.577.3-1.288.075-1.588-.503s-.075-1.288.503-1.588c.577-.3,1.288-.075,1.588.503Z" fill="#231f20" stroke-width="0"/>
    <path d="m263.075,387.373c.3.577.074,1.288-.503,1.588-.577.3-1.288.075-1.588-.503-.3-.577-.075-1.288.503-1.588s1.288-.075,1.588.503Z" fill="#231f20" stroke-width="0"/>
    <path d="m267.285,385.188c.3.577.075,1.288-.503,1.588-.577.3-1.288.075-1.588-.503-.3-.577-.075-1.288.503-1.588s1.289-.075,1.588.503Z" fill="#231f20" stroke-width="0"/>
    <path d="m271.495,383.002c.3.577.075,1.288-.503,1.588-.577.3-1.289.075-1.588-.503-.3-.577-.075-1.288.503-1.588.577-.3,1.288-.075,1.588.503Z" fill="#231f20" stroke-width="0"/>
    <path d="m275.705,380.817c.3.577.075,1.288-.503,1.588s-1.288.075-1.588-.503c-.3-.577-.074-1.288.503-1.588.577-.3,1.288-.075,1.588.503Z" fill="#231f20" stroke-width="0"/>
    <path d="m279.916,378.631c.3.577.075,1.288-.503,1.588-.577.3-1.288.075-1.588-.503s-.075-1.288.503-1.588,1.288-.075,1.588.503Z" fill="#231f20" stroke-width="0"/>
    <path d="m284.126,376.446c.3.577.074,1.288-.503,1.588-.577.3-1.288.075-1.588-.503-.3-.577-.074-1.288.503-1.588.577-.3,1.288-.075,1.588.503Z" fill="#231f20" stroke-width="0"/>
    <path d="m288.336,374.26c.3.577.075,1.288-.503,1.588s-1.288.075-1.588-.503c-.3-.577-.075-1.288.503-1.588s1.289-.075,1.588.503Z" fill="#231f20" stroke-width="0"/>
    <path d="m292.546,372.075c.3.577.074,1.288-.503,1.588-.577.3-1.289.075-1.588-.503-.3-.577-.075-1.288.503-1.588s1.288-.075,1.588.503Z" fill="#231f20" stroke-width="0"/>
    <path d="m296.756,369.889c.3.577.075,1.288-.503,1.588-.577.3-1.288.075-1.588-.503-.3-.577-.074-1.288.503-1.588.577-.3,1.289-.075,1.588.503Z" fill="#231f20" stroke-width="0"/>
    <path d="m300.966,367.704c.3.577.075,1.288-.503,1.588s-1.289.075-1.588-.503c-.3-.577-.075-1.288.503-1.588s1.288-.075,1.588.503Z" fill="#231f20" stroke-width="0"/>
    <path d="m305.176,365.518c.3.577.075,1.288-.503,1.588-.577.3-1.288.075-1.588-.503-.3-.577-.074-1.288.503-1.588.577-.3,1.288-.075,1.588.503Z" fill="#231f20" stroke-width="0"/>
    <path d="m309.386,363.333c.3.577.075,1.288-.503,1.588-.577.3-1.288.075-1.588-.503s-.075-1.288.503-1.588c.577-.3,1.288-.075,1.588.503Z" fill="#231f20" stroke-width="0"/>
    <path d="m313.596,361.147c.3.577.074,1.288-.503,1.588-.577.3-1.288.075-1.588-.503-.3-.577-.075-1.288.503-1.588s1.288-.075,1.588.503Z" fill="#231f20" stroke-width="0"/>
    <path d="m317.806,358.962c.3.577.075,1.288-.503,1.588-.577.3-1.288.075-1.588-.503s-.075-1.288.503-1.588,1.289-.075,1.588.503Z" fill="#231f20" stroke-width="0"/>
    <path d="m322.017,356.776c.3.577.074,1.288-.503,1.588-.577.3-1.289.075-1.588-.503-.3-.577-.075-1.288.503-1.588.577-.3,1.288-.075,1.588.503Z" fill="#231f20" stroke-width="0"/>
    <path d="m326.227,354.591c.3.577.075,1.288-.503,1.588s-1.288.075-1.588-.503c-.3-.577-.074-1.288.503-1.588.577-.3,1.289-.075,1.588.503Z" fill="#231f20" stroke-width="0"/>
    <path d="m330.437,352.405c.3.577.075,1.288-.503,1.588-.577.3-1.289.075-1.588-.503-.3-.577-.075-1.288.503-1.588s1.288-.075,1.588.503Z" fill="#231f20" stroke-width="0"/>
    <path d="m334.647,350.22c.3.577.074,1.288-.503,1.588-.577.3-1.288.075-1.588-.503-.3-.577-.074-1.288.503-1.588.577-.3,1.288-.075,1.588.503Z" fill="#231f20" stroke-width="0"/>
    <path d="m338.857,348.034c.3.577.075,1.288-.503,1.588s-1.288.075-1.588-.503c-.3-.577-.075-1.288.503-1.588s1.288-.075,1.588.503Z" fill="#231f20" stroke-width="0"/>
    <path d="m343.067,345.849c.3.577.074,1.288-.503,1.588-.577.3-1.288.075-1.588-.503-.3-.577-.075-1.288.503-1.588s1.288-.075,1.588.503Z" fill="#231f20" stroke-width="0"/>
    <path d="m347.277,343.663c.3.577.075,1.288-.503,1.588-.577.3-1.288.075-1.588-.503-.3-.577-.075-1.288.503-1.588.577-.3,1.289-.075,1.588.503Z" fill="#231f20" stroke-width="0"/>
    <path d="m351.487,341.478c.3.577.075,1.288-.503,1.588s-1.289.075-1.588-.503c-.3-.577-.075-1.288.503-1.588s1.288-.075,1.588.503Z" fill="#231f20" stroke-width="0"/>
    <path d="m355.697,339.292c.3.577.075,1.288-.503,1.588-.577.3-1.288.075-1.588-.503-.3-.577-.074-1.288.503-1.588.577-.3,1.288-.075,1.588.503Z" fill="#231f20" stroke-width="0"/>
    <path d="m359.907,337.107c.3.577.075,1.288-.503,1.588-.577.3-1.288.075-1.588-.503-.3-.577-.075-1.288.503-1.588.577-.3,1.288-.075,1.588.503Z" fill="#231f20" stroke-width="0"/>
    <path d="m364.118,334.921c.3.577.074,1.288-.503,1.588s-1.288.075-1.588-.503c-.3-.577-.074-1.288.503-1.588s1.288-.075,1.588.503Z" fill="#231f20" stroke-width="0"/>
    <path d="m368.328,332.736c.3.577.075,1.288-.503,1.588-.577.3-1.288.075-1.588-.503s-.075-1.288.503-1.588c.577-.3,1.288-.075,1.588.503Z" fill="#231f20" stroke-width="0"/>
    <path d="m372.538,330.55c.3.577.074,1.288-.503,1.588-.577.3-1.289.075-1.588-.503-.3-.577-.075-1.288.503-1.588.577-.3,1.288-.075,1.588.503Z" fill="#231f20" stroke-width="0"/>
    <path d="m376.748,328.365c.3.577.075,1.288-.503,1.588s-1.288.075-1.588-.503c-.3-.577-.075-1.288.503-1.588s1.289-.075,1.588.503Z" fill="#231f20" stroke-width="0"/>
    <path d="m380.958,326.179c.3.577.075,1.288-.503,1.588-.577.3-1.289.075-1.588-.503-.3-.577-.075-1.288.503-1.588.577-.3,1.288-.075,1.588.503Z" fill="#231f20" stroke-width="0"/>
    <path d="m385.168,323.994c.3.577.075,1.288-.503,1.588-.577.3-1.288.075-1.588-.503-.3-.577-.074-1.288.503-1.588.577-.3,1.288-.075,1.588.503Z" fill="#231f20" stroke-width="0"/>
    <path d="m389.378,321.808c.3.577.075,1.288-.503,1.588s-1.288.075-1.588-.503-.075-1.288.503-1.588,1.288-.075,1.588.503Z" fill="#231f20" stroke-width="0"/>
    <path d="m393.588,319.623c.3.577.074,1.288-.503,1.588-.577.3-1.288.075-1.588-.503-.3-.577-.075-1.288.503-1.588.577-.3,1.288-.075,1.588.503Z" fill="#231f20" stroke-width="0"/>
    <path d="m397.798,317.437c.3.577.075,1.288-.503,1.588-.577.3-1.288.075-1.588-.503-.3-.577-.075-1.288.503-1.588.577-.3,1.289-.075,1.588.503Z" fill="#231f20" stroke-width="0"/>
    <path d="m402.009,315.251c.3.577.074,1.288-.503,1.588-.577.3-1.289.075-1.588-.503-.3-.577-.075-1.288.503-1.588s1.288-.075,1.588.503Z" fill="#231f20" stroke-width="0"/>
    <path d="m406.219,313.066c.3.577.075,1.288-.503,1.588-.577.3-1.288.075-1.588-.503-.3-.577-.074-1.288.503-1.588.577-.3,1.289-.075,1.588.503Z" fill="#231f20" stroke-width="0"/>
    <path d="m410.429,310.881c.3.577.075,1.288-.503,1.588-.577.3-1.289.075-1.588-.503-.3-.577-.075-1.288.503-1.588.577-.3,1.288-.075,1.588.503Z" fill="#231f20" stroke-width="0"/>
    <path d="m414.639,308.695c.3.577.075,1.288-.503,1.588s-1.288.075-1.588-.503c-.3-.577-.074-1.288.503-1.588.577-.3,1.288-.075,1.588.503Z" fill="#231f20" stroke-width="0"/>
    <path d="m418.849,306.51c.3.577.075,1.288-.503,1.588-.577.3-1.288.075-1.588-.503s-.075-1.288.503-1.588c.577-.3,1.288-.075,1.588.503Z" fill="#231f20" stroke-width="0"/>
    <path d="m423.059,304.324c.3.577.074,1.288-.503,1.588-.577.3-1.288.075-1.588-.503-.3-.577-.075-1.288.503-1.588.577-.3,1.288-.075,1.588.503Z" fill="#231f20" stroke-width="0"/>
    <path d="m427.269,302.138c.3.577.075,1.288-.503,1.588s-1.288.075-1.588-.503-.075-1.288.503-1.588,1.289-.075,1.588.503Z" fill="#231f20" stroke-width="0"/>
    <path d="m431.479,299.953c.3.577.075,1.288-.503,1.588-.577.3-1.289.075-1.588-.503-.3-.577-.075-1.288.503-1.588.577-.3,1.288-.075,1.588.503Z" fill="#231f20" stroke-width="0"/>
  </g>
  <g>
    <rect x="-2340.473" y="-394.288" width="3386.58" height="2514.089" transform="translate(-1509.939 215.574) rotate(-90)" fill="none" stroke="#231f20" stroke-linecap="round" stroke-miterlimit="10" stroke-width="7"/>
    <rect x="-2323.506" y="-377.166" width="3353.392" height="2482.402" transform="translate(-1510.845 217.225) rotate(-90)" fill="none" stroke="#231f20" stroke-linecap="round" stroke-miterlimit="10" stroke-width="3"/>
    <rect x="-2285.031" y="-341.548" width="3275.615" height="2412.095" transform="translate(-1511.722 217.276) rotate(-90)" fill="none" stroke="#231f20" stroke-linecap="round" stroke-miterlimit="10"/>
    <rect x="-2267.163" y="-324.185" width="3239.88" height="2376.261" transform="translate(-1511.169 216.723) rotate(-90)" fill="none" stroke="#231f20" stroke-linecap="round" stroke-miterlimit="10"/>
    <line x1="540.907" y1="180.428" x2="558.824" y2="180.428" fill="none" stroke="#231f20" stroke-linecap="round" stroke-miterlimit="10"/>
    <line x1="540.907" y1="108.3" x2="558.824" y2="108.3" fill="none" stroke="#231f20" stroke-linecap="round" stroke-miterlimit="10"/>
    <line x1="540.907" y1="36.462" x2="558.824" y2="36.462" fill="none" stroke="#231f20" stroke-linecap="round" stroke-miterlimit="10"/>
    <line x1="540.907" y1="396.05" x2="558.824" y2="396.05" fill="none" stroke="#231f20" stroke-linecap="round" stroke-miterlimit="10"/>
    <line x1="540.907" y1="323.896" x2="558.824" y2="323.896" fill="none" stroke="#231f20" stroke-linecap="round" stroke-miterlimit="10"/>
    <line x1="540.907" y1="251.974" x2="558.824" y2="251.974" fill="none" stroke="#231f20" stroke-linecap="round" stroke-miterlimit="10"/>
    <rect x="478.136" y="249.916" width="144" height="3.6" transform="translate(298.42 801.853) rotate(-90)" fill="#231f20" stroke-width="0"/>
    <rect x="477.866" y="32.004" width="144" height="8.773" transform="translate(513.476 586.256) rotate(-90)" fill="#231f20" stroke-width="0"/>
  </g>
  <g>
    <line x1="4.222" y1="89.835" x2="14.511" y2="98.574" fill="none" stroke="#221f1f" stroke-miterlimit="10" stroke-width=".75"/>
    <line x1="27.832" y1="72.466" x2="32.976" y2="76.835" fill="none" stroke="#221f1f" stroke-miterlimit="10" stroke-width=".75"/>
    <line x1="83.226" y1="7.249" x2="88.371" y2="11.619" fill="none" stroke="#221f1f" stroke-miterlimit="10" stroke-width=".75"/>
    <line x1="46.297" y1="50.727" x2="51.441" y2="55.097" fill="none" stroke="#221f1f" stroke-miterlimit="10" stroke-width=".75"/>
    <line x1="64.761" y1="28.988" x2="69.906" y2="33.358" fill="none" stroke="#221f1f" stroke-miterlimit="10" stroke-width=".75"/>
  </g>
  <g>
    <polyline points="317.118 196.291 314.309 192.235 527.71 44.429 530.519 48.484" fill="none" stroke="#231f20" stroke-miterlimit="10" stroke-width=".309"/>
    <line x1="342.972" y1="176.838" x2="340.886" y2="173.827" fill="none" stroke="#231f20" stroke-miterlimit="10" stroke-width=".309"/>
    <line x1="369.23" y1="158.651" x2="367.144" y2="155.64" fill="none" stroke="#231f20" stroke-miterlimit="10" stroke-width=".309"/>
    <line x1="395.621" y1="140.372" x2="393.535" y2="137.361" fill="none" stroke="#231f20" stroke-miterlimit="10" stroke-width=".309"/>
    <line x1="422.736" y1="123.137" x2="419.927" y2="119.081" fill="none" stroke="#231f20" stroke-miterlimit="10" stroke-width=".309"/>
    <line x1="448.27" y1="103.906" x2="446.185" y2="100.895" fill="none" stroke="#231f20" stroke-miterlimit="10" stroke-width=".309"/>
    <line x1="476.805" y1="84.142" x2="474.719" y2="81.131" fill="none" stroke="#231f20" stroke-miterlimit="10" stroke-width=".309"/>
    <line x1="503.063" y1="65.955" x2="500.977" y2="62.944" fill="none" stroke="#231f20" stroke-miterlimit="10" stroke-width=".309"/>
  </g>
</svg>