<?xml version="1.0" encoding="UTF-8"?>
<svg id="a" data-name="Layer 1" xmlns="http://www.w3.org/2000/svg" width="9.002in" height="6.002in" viewBox="0 0 648.177 432.177">
  <g>
    <g>
      <line x1="76.038" y1="36.999" x2="63.283" y2="43.691" fill="none" stroke="#231f20" stroke-miterlimit="10"/>
      <path d="m81.039,56.716c-3.269,1.472-6.537,2.944-9.806,4.416" fill="none" stroke="#231f20" stroke-miterlimit="10"/>
      <line x1="69.536" y1="45.112" x2="64.967" y2="47.409" fill="none" stroke="#231f20" stroke-miterlimit="10"/>
      <path d="m74.622,55.356c-1.6.798-3.199,1.595-4.799,2.393" fill="none" stroke="#231f20" stroke-miterlimit="10"/>
      <path d="m72.885,51.784c-1.558.783-3.115,1.566-4.673,2.35" fill="none" stroke="#231f20" stroke-miterlimit="10"/>
      <line x1="71.141" y1="48.351" x2="66.613" y2="50.727" fill="none" stroke="#231f20" stroke-miterlimit="10"/>
    </g>
    <g>
      <line x1="111.081" y1="110.28" x2="97.732" y2="115.69" fill="none" stroke="#231f20" stroke-miterlimit="10"/>
      <path d="m114.125,130.393c-3.397,1.145-6.794,2.289-10.192,3.434" fill="none" stroke="#231f20" stroke-miterlimit="10"/>
      <line x1="103.815" y1="117.717" x2="99.043" y2="119.554" fill="none" stroke="#231f20" stroke-miterlimit="10"/>
      <path d="m107.873,128.41c-1.67.637-3.34,1.274-5.01,1.911" fill="none" stroke="#231f20" stroke-miterlimit="10"/>
      <path d="m106.494,124.685c-1.627.627-3.254,1.253-4.881,1.88" fill="none" stroke="#231f20" stroke-miterlimit="10"/>
      <line x1="105.095" y1="121.098" x2="100.356" y2="123.018" fill="none" stroke="#231f20" stroke-miterlimit="10"/>
    </g>
    <g>
      <line x1="138.772" y1="186.644" x2="124.958" y2="190.719" fill="none" stroke="#231f20" stroke-miterlimit="10"/>
      <path d="m139.831,206.957c-3.493.806-6.986,1.612-10.479,2.419" fill="none" stroke="#231f20" stroke-miterlimit="10"/>
      <line x1="130.812" y1="193.332" x2="125.884" y2="194.693" fill="none" stroke="#231f20" stroke-miterlimit="10"/>
      <path d="m133.803,204.371c-1.724.47-3.449.94-5.173,1.41" fill="none" stroke="#231f20" stroke-miterlimit="10"/>
      <path d="m132.796,200.529c-1.681.464-3.361.928-5.042,1.393" fill="none" stroke="#231f20" stroke-miterlimit="10"/>
      <line x1="131.755" y1="196.822" x2="126.851" y2="198.269" fill="none" stroke="#231f20" stroke-miterlimit="10"/>
    </g>
    <g>
      <line x1="158.846" y1="265.353" x2="144.699" y2="268.055" fill="none" stroke="#231f20" stroke-miterlimit="10"/>
      <path d="m157.908,285.673c-3.555.46-7.11.92-10.666,1.38" fill="none" stroke="#231f20" stroke-miterlimit="10"/>
      <line x1="150.269" y1="271.229" x2="145.231" y2="272.101" fill="none" stroke="#231f20" stroke-miterlimit="10"/>
      <path d="m152.164,282.508c-1.762.299-3.524.598-5.286.897" fill="none" stroke="#231f20" stroke-miterlimit="10"/>
      <path d="m151.538,278.586c-1.718.297-3.436.595-5.154.892" fill="none" stroke="#231f20" stroke-miterlimit="10"/>
      <line x1="150.865" y1="274.795" x2="145.843" y2="275.754" fill="none" stroke="#231f20" stroke-miterlimit="10"/>
    </g>
    <g>
      <line x1="171.108" y1="345.651" x2="156.764" y2="346.953" fill="none" stroke="#231f20" stroke-miterlimit="10"/>
      <path d="m168.183,365.781c-3.583.109-7.166.218-10.75.328" fill="none" stroke="#231f20" stroke-miterlimit="10"/>
      <line x1="161.996" y1="350.659" x2="156.897" y2="351.032" fill="none" stroke="#231f20" stroke-miterlimit="10"/>
      <path d="m162.776,362.069c-1.783.125-3.566.249-5.349.374" fill="none" stroke="#231f20" stroke-miterlimit="10"/>
      <path d="m162.537,358.104c-1.739.127-3.478.255-5.217.382" fill="none" stroke="#231f20" stroke-miterlimit="10"/>
      <line x1="162.24" y1="354.265" x2="157.148" y2="354.727" fill="none" stroke="#231f20" stroke-miterlimit="10"/>
    </g>
    <g>
      <line x1="175.44" y1="426.765" x2="161.038" y2="426.655" fill="none" stroke="#231f20" stroke-miterlimit="10"/>
      <line x1="165.882" y1="430.855" x2="160.77" y2="430.727" fill="none" stroke="#231f20" stroke-miterlimit="10"/>
    </g>
  </g>
  <g opacity=".75">
    <g>
      <g>
        <path d="m158.874,380.656c5.485.041,10.616.835,15.218,2.249,4.62,1.362,8.704,3.303,12.259,5.447,7.133,4.306,12.06,9.449,15.489,13.863,3.41,4.466,5.41,8.24,6.603,10.805.612,1.279.997,2.275,1.291,2.923.268.66.385.998.385.998" fill="none" stroke="#231f20" stroke-miterlimit="10" stroke-width=".25"/>
        <path d="m158.874,378.175c5.739.041,11.114.875,15.932,2.354,4.837,1.427,9.111,3.458,12.827,5.699,7.457,4.502,12.596,9.869,16.172,14.472,3.556,4.656,5.639,8.59,6.883,11.262.637,1.332,1.039,2.37,1.345,3.046.279.687.401,1.04.401,1.04" fill="none" stroke="#231f20" stroke-miterlimit="10" stroke-width=".25"/>
        <path d="m104.166,447.371c-1.519-11.007.078-20.913,2.838-28.769,2.82-7.887,6.701-13.859,10.312-18.133,3.586-4.328,6.9-7.01,9.117-8.742.565-.422,1.061-.791,1.486-1.108.438-.297.804-.546,1.097-.745.588-.395.883-.594.883-.594" fill="none" stroke="#231f20" stroke-miterlimit="10" stroke-width=".25"/>
        <path d="m101.708,447.715c-1.58-11.449.08-21.751,2.955-29.938,2.937-8.216,6.982-14.439,10.748-18.898,3.741-4.513,7.2-7.316,9.515-9.124.591-.441,1.109-.826,1.553-1.157.451-.321.841-.569,1.146-.779.614-.413.922-.62.922-.62" fill="none" stroke="#231f20" stroke-miterlimit="10" stroke-width=".25"/>
      </g>
      <g>
        <path d="m191.396,383.812c2.589,1.658,4.933,3.507,7.123,5.383,2.168,1.905,4.129,3.896,5.918,5.914,3.553,4.061,6.333,8.278,8.518,12.367,4.376,8.212,6.226,15.901,7.101,22.05.821,6.187.674,10.914.462,14.044-.092,1.57-.233,2.744-.337,3.527-.095.784-.143,1.177-.143,1.177" fill="none" stroke="#231f20" stroke-miterlimit="10" stroke-width=".25"/>
        <path d="m192.746,381.729c2.694,1.725,5.132,3.647,7.407,5.598,2.253,1.98,4.292,4.048,6.149,6.145,3.691,4.218,6.577,8.595,8.845,12.84,4.54,8.524,6.46,16.499,7.367,22.875.851,6.415.699,11.31.479,14.555-.095,1.627-.242,2.844-.349,3.656-.099.812-.149,1.22-.149,1.22" fill="none" stroke="#231f20" stroke-miterlimit="10" stroke-width=".25"/>
        <path d="m101.549,414.591c4.446-11.464,11.427-20.146,18.514-26.107,7.125-6.003,14.312-9.398,20.232-11.37,5.968-1.921,10.697-2.518,13.835-2.768,1.573-.153,2.761-.151,3.553-.177.792-.021,1.19-.031,1.19-.031" fill="none" stroke="#231f20" stroke-miterlimit="10" stroke-width=".25"/>
        <path d="m99.235,413.696c4.613-11.895,11.86-20.911,19.227-27.108,7.406-6.241,14.89-9.778,21.058-11.832,6.218-2.002,11.146-2.624,14.414-2.885,1.638-.158,2.875-.158,3.7-.184.825-.021,1.24-.031,1.24-.031" fill="none" stroke="#231f20" stroke-miterlimit="10" stroke-width=".25"/>
      </g>
    </g>
    <g>
      <g>
        <path d="m159.794,336.796c9.795.079,18.977,1.41,27.229,3.834,4.153,1.126,8.028,2.64,11.734,4.144,3.651,1.637,7.128,3.312,10.321,5.192,12.871,7.416,21.857,16.325,28.153,24.012,6.222,7.808,9.902,14.432,12.115,18.938,2.202,4.522,3.108,6.896,3.108,6.896" fill="none" stroke="#231f20" stroke-miterlimit="10" stroke-width=".25"/>
        <path d="m159.794,334.314c10.036.078,19.451,1.446,27.912,3.93,4.257,1.156,8.231,2.706,12.03,4.249,3.744,1.677,7.306,3.395,10.579,5.321,13.191,7.601,22.396,16.727,28.844,24.602,6.374,7.997,10.143,14.784,12.41,19.399,2.256,4.632,3.184,7.064,3.184,7.064" fill="none" stroke="#231f20" stroke-miterlimit="10" stroke-width=".25"/>
        <path d="m259.74,431.829c.118,1.221.136,2.439.163,3.647.017,1.208.09,2.406.062,3.595-.073,2.378-.067,4.723-.293,7.017-.273,4.603-1.004,9.01-1.8,13.241-1.77,8.434-4.419,16.053-7.548,22.773-6.309,13.459-14.367,23.228-21.532,30.111-1.755,1.773-3.569,3.256-5.196,4.715-.853.683-1.677,1.341-2.47,1.976-.793.635-1.551,1.252-2.324,1.785-3.015,2.238-5.661,3.928-7.802,5.242-2.17,1.266-3.793,2.236-4.931,2.784-1.12.582-1.682.874-1.682.874" fill="none" stroke="#231f20" stroke-miterlimit="10" stroke-width=".25"/>
        <path d="m262.216,431.671c.12,1.25.139,2.497.167,3.733.018,1.236.091,2.463.063,3.68-.073,2.434-.069,4.834-.299,7.184-.281,4.713-1.027,9.227-1.844,13.559-1.812,8.638-4.527,16.444-7.731,23.327-6.463,13.786-14.717,23.792-22.056,30.845-1.799,1.816-3.656,3.336-5.324,4.83-.874.7-1.717,1.375-2.53,2.025-.812.651-1.59,1.282-2.382,1.829-3.09,2.293-5.801,4.025-7.995,5.371-2.224,1.299-3.888,2.291-5.054,2.853-1.147.596-1.724.896-1.724.896" fill="none" stroke="#231f20" stroke-miterlimit="10" stroke-width=".25"/>
        <path d="m60.717,453.636c-1.358-9.708-1.418-19.015-.336-27.564,1.044-8.553,2.998-16.387,5.613-23.326,2.587-6.952,5.701-13.049,8.968-18.322,3.281-5.266,6.655-9.763,9.975-13.484,6.593-7.499,12.56-12.181,16.597-15.15,1.026-.726,1.898-1.401,2.691-1.913.792-.515,1.453-.944,1.982-1.288,1.058-.689,1.589-1.035,1.589-1.035" fill="none" stroke="#231f20" stroke-miterlimit="10" stroke-width=".25"/>
        <path d="m58.262,453.996c-1.392-9.943-1.451-19.465-.344-28.221,1.069-8.759,3.072-16.783,5.749-23.891,2.649-7.121,5.84-13.367,9.186-18.769,3.361-5.395,6.818-10,10.218-13.812,6.754-7.682,12.866-12.48,17.004-15.522,1.051-.744,1.945-1.435,2.758-1.96.811-.528,1.489-.968,2.031-1.32,1.084-.705,1.628-1.06,1.628-1.06" fill="none" stroke="#231f20" stroke-miterlimit="10" stroke-width=".25"/>
      </g>
      <g>
        <path d="m215.218,346.008c4.419,2.773,8.515,5.751,12.299,8.865.922.806,1.837,1.605,2.745,2.398.451.399.901.796,1.349,1.192.429.415.857.829,1.283,1.241.848.827,1.705,1.633,2.526,2.46.798.849,1.589,1.691,2.374,2.526.8.821,1.538,1.684,2.264,2.545.729.858,1.452,1.708,2.168,2.55.677.874,1.348,1.74,2.013,2.599.674.852,1.322,1.71,1.92,2.594.612.873,1.218,1.738,1.818,2.595.601.857,1.125,1.752,1.682,2.614.54.872,1.108,1.716,1.61,2.588.496.875.987,1.742,1.474,2.6,7.715,13.813,11.045,26.861,12.608,37.312,1.456,10.521,1.202,18.572.821,23.896-.111,1.333-.163,2.505-.289,3.502-.125.998-.229,1.83-.312,2.497-.167,1.333-.251,2.002-.251,2.002" fill="none" stroke="#231f20" stroke-miterlimit="10" stroke-width=".25"/>
        <path d="m216.522,343.896c4.522,2.837,8.713,5.885,12.584,9.071.944.824,1.88,1.642,2.808,2.453.462.408.922.815,1.38,1.219.44.425.877.848,1.313,1.269.868.846,1.743,1.671,2.583,2.517.816.869,1.626,1.73,2.429,2.583.817.841,1.573,1.723,2.316,2.603.746.877,1.485,1.747,2.217,2.609.693.894,1.38,1.78,2.06,2.658.689.871,1.352,1.75,1.964,2.653.625.893,1.245,1.778,1.859,2.654s1.151,1.792,1.721,2.673c.553.892,1.133,1.756,1.647,2.647.508.895,1.01,1.782,1.508,2.659,7.891,14.13,11.299,27.477,12.896,38.165,1.49,10.759,1.229,18.987.84,24.431-.114,1.363-.167,2.561-.296,3.581-.127,1.02-.234,1.872-.319,2.553-.171,1.363-.257,2.048-.257,2.048" fill="none" stroke="#231f20" stroke-miterlimit="10" stroke-width=".25"/>
        <path d="m112.259,535.407c-9.328-4.692-17.318-10.52-24.094-16.681-6.722-6.235-12.206-12.839-16.62-19.374-8.794-13.143-13.288-25.84-15.632-36.151-2.378-10.353-2.776-18.411-2.8-23.747-.027-2.674.09-4.685.103-6.028.004-.672.073-1.173.089-1.51.025-.336.038-.504.038-.504" fill="none" stroke="#231f20" stroke-miterlimit="10" stroke-width=".25"/>
        <path d="m111.14,537.621c-9.547-4.803-17.723-10.765-24.654-17.068-6.877-6.377-12.486-13.132-17.001-19.817-8.995-13.444-13.592-26.432-15.99-36.977-2.432-10.589-2.837-18.829-2.863-24.283-.028-2.733.091-4.789.106-6.162.004-.687.075-1.2.09-1.543.026-.343.038-.515.038-.515" fill="none" stroke="#231f20" stroke-miterlimit="10" stroke-width=".25"/>
        <path d="m61.094,397.362c.445-1.226,1.026-2.385,1.533-3.564.523-1.172,1.025-2.344,1.617-3.462.57-1.128,1.135-2.248,1.696-3.359.613-1.083,1.22-2.158,1.823-3.224.585-1.077,1.232-2.105,1.882-3.119.652-1.013,1.264-2.041,1.934-3.018,1.37-1.934,2.659-3.879,4.1-5.661,2.752-3.667,5.757-6.925,8.698-10.011,3.039-2.99,6.049-5.791,9.149-8.233,12.327-9.92,24.639-15.399,34.716-18.619,10.168-3.103,18.181-4.082,23.507-4.478,2.667-.253,4.683-.24,6.026-.286,1.344-.034,2.019-.051,2.019-.051" fill="none" stroke="#231f20" stroke-miterlimit="10" stroke-width=".25"/>
        <path d="m58.794,396.429c.456-1.254,1.049-2.44,1.568-3.646.535-1.199,1.049-2.397,1.654-3.541.583-1.154,1.161-2.299,1.735-3.435.626-1.108,1.248-2.207,1.865-3.297.599-1.101,1.261-2.153,1.925-3.191.667-1.036,1.293-2.087,1.979-3.087,1.4-1.979,2.72-3.967,4.194-5.791,2.816-3.75,5.888-7.084,8.897-10.239,3.108-3.06,6.188-5.923,9.359-8.423,12.611-10.149,25.213-15.759,35.53-19.054,10.409-3.178,18.612-4.178,24.062-4.584,2.73-.258,4.792-.246,6.166-.293,1.375-.034,2.065-.052,2.065-.052" fill="none" stroke="#231f20" stroke-miterlimit="10" stroke-width=".25"/>
      </g>
    </g>
    <g>
      <g>
        <path d="m160.714,292.936c14.092.116,27.312,1.983,39.207,5.413,1.485.435,2.971.817,4.418,1.282,1.44.488,2.867.972,4.281,1.451.707.242,1.41.482,2.11.722.688.272,1.373.543,2.055.813,1.364.538,2.716,1.072,4.055,1.6,1.325.561,2.615,1.174,3.905,1.749,1.278.603,2.585,1.113,3.803,1.778,1.233.633,2.455,1.259,3.664,1.879.603.313,1.211.61,1.801.933.583.336,1.163.67,1.74,1.003,9.28,5.245,17.223,11.059,23.954,16.908,6.735,5.855,12.268,11.735,16.863,17.236,9.05,11.14,14.411,20.622,17.649,27.068.412.804.798,1.559,1.159,2.264.344.713.633,1.39.916,2.007.559,1.238,1.026,2.271,1.399,3.098.769,1.645,1.074,2.505,1.074,2.505" fill="none" stroke="#231f20" stroke-miterlimit="10" stroke-width=".25"/>
        <path d="m160.714,290.454c14.329.116,27.777,2.017,39.877,5.505,1.51.442,3.022.832,4.494,1.304,1.465.496,2.917.988,4.355,1.476.719.246,1.434.491,2.146.735.7.277,1.397.552,2.091.826,1.388.548,2.763,1.09,4.125,1.628,1.348.571,2.66,1.194,3.972,1.779,1.3.613,2.629,1.134,3.868,1.809,1.254.643,2.497,1.281,3.727,1.911.613.319,1.232.621,1.832.949.593.342,1.183.682,1.77,1.02,9.439,5.335,17.517,11.248,24.362,17.196,6.849,5.954,12.476,11.934,17.149,17.529,9.204,11.329,14.657,20.974,17.951,27.53.419.818.812,1.586,1.178,2.303.35.725.644,1.413.932,2.041.569,1.259,1.043,2.31,1.423,3.151.782,1.673,1.093,2.548,1.093,2.548" fill="none" stroke="#231f20" stroke-miterlimit="10" stroke-width=".25"/>
        <path d="m305.425,428.597c.17,1.754.202,3.503.239,5.238.025,1.735.13,3.456.091,5.164-.103,3.415-.101,6.783-.428,10.079-.406,6.611-1.462,12.943-2.642,19.015-2.588,12.109-6.461,23.038-11.028,32.663-4.585,9.626-9.884,17.925-15.25,25.045-5.363,7.135-10.884,13.038-16.101,17.948-.648.619-1.286,1.229-1.914,1.829-.643.583-1.299,1.132-1.932,1.687-1.275,1.097-2.491,2.179-3.695,3.188-1.235.972-2.427,1.909-3.575,2.812-.574.452-1.137.896-1.689,1.33-.573.407-1.134.807-1.684,1.198-2.202,1.562-4.196,3.036-6.122,4.21-1.909,1.199-3.577,2.364-5.168,3.225-1.566.902-2.938,1.692-4.116,2.37-1.179.675-2.209,1.151-3.01,1.578-1.615.828-2.426,1.245-2.426,1.245" fill="none" stroke="#231f20" stroke-miterlimit="10" stroke-width=".25"/>
        <path d="m307.901,428.435c.172,1.784.206,3.562.243,5.326.026,1.764.131,3.514.092,5.251-.104,3.473-.104,6.897-.435,10.249-.415,6.723-1.486,13.164-2.688,19.339-2.632,12.317-6.572,23.434-11.217,33.225-4.664,9.791-10.053,18.232-15.511,25.473-5.454,7.256-11.069,13.259-16.375,18.253-.659.63-1.308,1.249-1.947,1.859-.654.593-1.321,1.152-1.964,1.716-1.296,1.116-2.533,2.215-3.758,3.242-1.256.988-2.468,1.942-3.636,2.86-.584.46-1.156.91-1.718,1.352-.582.414-1.153.821-1.712,1.219-2.239,1.589-4.268,3.087-6.227,4.282-1.941,1.22-3.639,2.403-5.257,3.28-1.593.917-2.989,1.721-4.187,2.411-1.199.687-2.247,1.172-3.062,1.605-1.643.843-2.468,1.266-2.468,1.266" fill="none" stroke="#231f20" stroke-miterlimit="10" stroke-width=".25"/>
        <path d="m17.272,459.918c-1.987-13.944-2.073-27.312-.489-39.591,1.516-12.288,4.402-23.528,8.22-33.475,3.78-9.966,8.328-18.694,13.091-26.231,4.785-7.527,9.705-13.935,14.513-19.253,9.605-10.667,18.225-17.343,24.083-21.546,2.911-2.148,5.24-3.556,6.762-4.546.764-.491,1.337-.859,1.72-1.105.379-.251.582-.357.582-.357" fill="none" stroke="#231f20" stroke-miterlimit="10" stroke-width=".25"/>
        <path d="m14.818,460.286c-2.022-14.183-2.107-27.771-.498-40.26,1.542-12.498,4.479-23.931,8.361-34.05,3.845-10.138,8.471-19.015,13.315-26.681,4.866-7.656,9.871-14.172,14.761-19.58,9.768-10.848,18.534-17.638,24.492-21.913,2.961-2.184,5.329-3.617,6.877-4.623.777-.499,1.36-.874,1.75-1.124.386-.255.592-.363.592-.363" fill="none" stroke="#231f20" stroke-miterlimit="10" stroke-width=".25"/>
      </g>
      <g>
        <path d="m239.05,308.239c6.259,3.871,12.11,7.979,17.468,12.353,1.354,1.075,2.615,2.24,3.91,3.341.642.557,1.282,1.112,1.919,1.665.634.556,1.225,1.155,1.835,1.726,1.21,1.155,2.41,2.301,3.599,3.437,1.136,1.189,2.263,2.369,3.38,3.538.557.586,1.112,1.169,1.665,1.749.526.604,1.05,1.207,1.571,1.806,1.039,1.202,2.07,2.393,3.091,3.573.985,1.21,1.925,2.439,2.876,3.641.944,1.208,1.904,2.386,2.751,3.631,1.74,2.456,3.491,4.836,5.004,7.309.779,1.221,1.55,2.431,2.313,3.629.707,1.232,1.408,2.451,2.101,3.658,5.507,9.682,9.498,19.165,12.36,28.032,2.867,8.874,4.61,17.127,5.752,24.526,2.091,14.849,1.73,26.222,1.179,33.737-.161,1.881-.228,3.537-.418,4.944-.179,1.408-.328,2.583-.447,3.524-.239,1.882-.359,2.827-.359,2.827" fill="none" stroke="#231f20" stroke-miterlimit="10" stroke-width=".25"/>
        <path d="m240.336,306.116c6.362,3.933,12.308,8.109,17.753,12.554,1.375,1.093,2.658,2.276,3.974,3.395.653.567,1.302,1.131,1.95,1.693.644.565,1.245,1.173,1.865,1.754,1.229,1.174,2.449,2.338,3.657,3.493,1.155,1.208,2.3,2.407,3.435,3.595.566.595,1.13,1.188,1.692,1.778.535.614,1.067,1.226,1.597,1.835,1.056,1.221,2.103,2.432,3.141,3.632,1.002,1.229,1.957,2.479,2.924,3.7.959,1.228,1.934,2.425,2.796,3.69,1.769,2.495,3.547,4.915,5.086,7.428.791,1.241,1.574,2.471,2.35,3.688.719,1.252,1.431,2.491,2.136,3.718,5.597,9.841,9.654,19.48,12.563,28.493,2.915,9.02,4.686,17.409,5.846,24.929,2.126,15.093,1.758,26.645,1.199,34.282-.164,1.912-.232,3.594-.425,5.024-.181,1.431-.333,2.626-.454,3.582-.243,1.912-.366,2.873-.366,2.873" fill="none" stroke="#231f20" stroke-miterlimit="10" stroke-width=".25"/>
        <path d="m93.557,574.261c-1.637-.84-3.262-1.673-4.875-2.5-1.573-.901-3.133-1.794-4.682-2.681-1.564-.862-3.05-1.824-4.525-2.779-1.466-.967-2.973-1.849-4.371-2.866-1.408-1.003-2.805-1.997-4.19-2.984-1.399-.968-2.68-2.071-4.009-3.087-2.673-2.016-5.103-4.238-7.557-6.344-9.598-8.679-17.403-17.953-23.722-27.114-6.328-9.171-11.054-18.312-14.683-26.892-3.627-8.594-6.026-16.688-7.75-23.97-3.414-14.603-4.002-25.982-4.029-33.517-.039-.944-.034-1.829,0-2.656.021-.827.04-1.595.058-2.304.036-1.419.066-2.603.09-3.551.009-.949.108-1.657.13-2.131.036-.474.054-.711.054-.711" fill="none" stroke="#231f20" stroke-miterlimit="10" stroke-width=".25"/>
        <path d="m92.455,576.485c-1.664-.854-3.316-1.701-4.955-2.542-1.598-.915-3.185-1.823-4.759-2.724-1.589-.877-3.1-1.854-4.599-2.825-1.49-.983-3.021-1.881-4.442-2.913-1.431-1.019-2.851-2.03-4.259-3.032-1.422-.984-2.724-2.104-4.074-3.137-2.716-2.049-5.187-4.307-7.679-6.448-9.754-8.82-17.687-18.244-24.108-27.555-6.43-9.321-11.235-18.611-14.924-27.333-3.686-8.735-6.126-16.963-7.878-24.365-3.47-14.843-4.066-26.408-4.094-34.063-.039-.959-.034-1.859,0-2.699.021-.84.041-1.62.059-2.341.037-1.442.068-2.645.092-3.608.009-.964.109-1.683.131-2.166.036-.481.055-.723.055-.723" fill="none" stroke="#231f20" stroke-miterlimit="10" stroke-width=".25"/>
        <path d="m20.637,380.152c5.674-13.584,12.865-25.55,20.897-35.684,3.944-5.129,8.205-9.711,12.42-14.002,4.321-4.187,8.606-8.101,13.019-11.499,8.744-6.9,17.509-12.281,25.836-16.461,8.333-4.185,16.223-7.17,23.366-9.417,14.366-4.308,25.672-5.657,33.188-6.204,3.763-.353,6.608-.329,8.502-.396,1.896-.048,2.848-.072,2.848-.072" fill="none" stroke="#231f20" stroke-miterlimit="10" stroke-width=".25"/>
        <path d="m18.344,379.203c5.766-13.807,13.077-25.969,21.239-36.268,4.01-5.212,8.338-9.869,12.623-14.229,4.39-4.256,8.746-8.232,13.231-11.687,8.886-7.012,17.795-12.482,26.259-16.73,8.47-4.254,16.49-7.288,23.751-9.572,14.603-4.38,26.095-5.751,33.733-6.307,3.824-.358,6.715-.335,8.64-.402,1.927-.048,2.894-.072,2.894-.072" fill="none" stroke="#231f20" stroke-miterlimit="10" stroke-width=".25"/>
      </g>
    </g>
    <g>
      <g>
        <path d="m161.633,249.076c18.385.154,35.64,2.555,51.174,6.99,1.94.559,3.876,1.069,5.772,1.653,1.88.633,3.744,1.26,5.591,1.882.924.31,1.843.619,2.759.927.899.352,1.794.703,2.685,1.052,1.782.698,3.548,1.39,5.297,2.075,1.741.706,3.418,1.517,5.106,2.258,1.671.778,3.372,1.453,4.973,2.294,1.612.821,3.208,1.634,4.788,2.438.79.402,1.577.802,2.359,1.2.762.435,1.521.869,2.275,1.299,12.139,6.79,22.539,14.321,31.361,21.904,8.821,7.595,16.101,15.209,22.112,22.371,11.898,14.456,18.929,26.807,23.199,35.189.54,1.048,1.047,2.031,1.52,2.948.475.917.837,1.807,1.214,2.609.733,1.613,1.345,2.959,1.835,4.036.485,1.08.871,1.882,1.093,2.432.219.551.328.828.328.828" fill="none" stroke="#231f20" stroke-miterlimit="10" stroke-width=".25"/>
        <path d="m161.633,246.594c18.619.153,36.1,2.589,51.837,7.08,1.965.566,3.927,1.083,5.847,1.675,1.905.641,3.793,1.276,5.664,1.906.936.315,1.867.628,2.795.939.911.357,1.818.712,2.72,1.066,1.805.708,3.594,1.409,5.366,2.103,1.763.715,3.463,1.536,5.173,2.287,1.693.788,3.415,1.473,5.039,2.325,1.633.831,3.25,1.655,4.851,2.47.801.407,1.597.813,2.39,1.216.772.441,1.541.88,2.306,1.316,12.297,6.878,22.833,14.508,31.77,22.19,8.936,7.694,16.31,15.407,22.399,22.663,12.054,14.644,19.178,27.158,23.504,35.651.547,1.062,1.06,2.058,1.54,2.988.481.929.848,1.831,1.231,2.643.743,1.634,1.363,2.998,1.86,4.09.491,1.094.882,1.907,1.107,2.464.221.559.333.839.333.839" fill="none" stroke="#231f20" stroke-miterlimit="10" stroke-width=".25"/>
        <path d="m351.11,425.362c.073,1.146.208,2.284.23,3.424.029,1.14.057,2.275.086,3.406.033,2.262.17,4.507.119,6.734-.133,4.454-.135,8.845-.564,13.144-.54,8.621-1.921,16.879-3.485,24.793-3.408,15.786-8.508,30.027-14.514,42.559-6.056,12.52-13.004,23.319-20.057,32.568-1.821,2.269-3.531,4.537-5.314,6.653-1.818,2.086-3.589,4.119-5.313,6.098-1.816,1.895-3.582,3.739-5.299,5.53-.842.912-1.733,1.75-2.612,2.575-.875.829-1.736,1.645-2.585,2.449-.849.804-1.685,1.595-2.508,2.374-.859.739-1.704,1.466-2.536,2.182-1.673,1.42-3.25,2.843-4.845,4.13-1.616,1.262-3.175,2.48-4.677,3.653-.755.581-1.478,1.176-2.219,1.715-.749.529-1.483,1.047-2.202,1.556-1.438,1.017-2.817,1.992-4.136,2.925-1.307.952-2.65,1.72-3.878,2.529-2.488,1.568-4.687,3.053-6.764,4.174-2.047,1.171-3.841,2.196-5.379,3.076-1.554.852-2.891,1.487-3.94,2.035-2.11,1.075-3.17,1.615-3.17,1.615" fill="none" stroke="#231f20" stroke-miterlimit="10" stroke-width=".25"/>
        <path d="m353.586,425.199c.074,1.161.21,2.314.233,3.469.029,1.155.058,2.305.087,3.451.034,2.292.171,4.565.12,6.822-.134,4.512-.138,8.96-.571,13.315-.548,8.734-1.946,17.102-3.532,25.121-3.453,15.996-8.621,30.427-14.707,43.124-6.136,12.686-13.175,23.627-20.321,32.997-1.844,2.299-3.577,4.597-5.384,6.739-1.842,2.114-3.636,4.173-5.382,6.177-1.839,1.92-3.629,3.787-5.368,5.603-.853.924-1.756,1.773-2.646,2.608-.886.84-1.759,1.667-2.618,2.481-.86.814-1.707,1.615-2.541,2.404-.87.749-1.726,1.486-2.568,2.211-1.694,1.439-3.292,2.88-4.908,4.183-1.637,1.279-3.216,2.512-4.738,3.701-.765.589-1.497,1.19-2.248,1.737-.758.536-1.502,1.061-2.23,1.576-1.457,1.03-2.854,2.018-4.191,2.963-1.324.964-2.684,1.743-3.928,2.562-2.52,1.589-4.749,3.092-6.853,4.228-2.074,1.186-3.891,2.224-5.45,3.116-1.574.863-2.928,1.507-3.992,2.062-2.138,1.089-3.212,1.635-3.212,1.635" fill="none" stroke="#231f20" stroke-miterlimit="10" stroke-width=".25"/>
        <path d="m-26.171,466.207c-.554-4.559-1.258-9.033-1.494-13.487-.085-1.111-.17-2.217-.255-3.319l-.127-1.65c-.03-.549-.032-1.099-.049-1.647-.056-2.193-.111-4.368-.166-6.526l-.042-1.615.037-1.609c.027-1.07.055-2.136.082-3.198.027-1.062.053-2.119.08-3.172.02-1.053.046-2.102.147-3.142.345-4.162.537-8.27,1.144-12.265,1.989-16.026,5.808-30.675,10.832-43.632,4.976-12.982,10.959-24.341,17.22-34.141,6.284-9.792,12.767-18.099,19.055-25.021,12.62-13.832,23.892-22.502,31.57-27.938,3.805-2.792,6.868-4.593,8.85-5.889.998-.637,1.748-1.115,2.249-1.434.505-.312.768-.45.768-.45" fill="none" stroke="#231f20" stroke-miterlimit="10" stroke-width=".25"/>
        <path d="m-28.625,466.578c-.563-4.619-1.274-9.153-1.514-13.664-.086-1.125-.172-2.246-.257-3.362l-.128-1.671c-.031-.557-.033-1.114-.05-1.669-.057-2.221-.113-4.425-.168-6.611l-.042-1.636.037-1.63c.028-1.084.055-2.164.083-3.239.027-1.075.054-2.146.081-3.213.02-1.067.047-2.129.149-3.183.348-4.217.545-8.379,1.158-12.426,2.016-16.238,5.887-31.082,10.976-44.212,5.042-13.155,11.104-24.664,17.448-34.593,6.367-9.921,12.935-18.336,19.305-25.348,12.784-14.013,24.203-22.795,31.981-28.302,3.856-2.827,6.957-4.654,8.965-5.965,1.012-.645,1.771-1.129,2.278-1.453.511-.316.778-.456.778-.456" fill="none" stroke="#231f20" stroke-miterlimit="10" stroke-width=".25"/>
      </g>
      <g>
        <path d="m262.886,270.481c2.039,1.219,4.002,2.528,5.984,3.773.982.636,1.98,1.24,2.938,1.896.948.67,1.893,1.338,2.834,2.003.941.665,1.878,1.328,2.811,1.988.934.659,1.871,1.306,2.752,2.022,1.788,1.397,3.561,2.782,5.32,4.156.893.671,1.732,1.4,2.568,2.126.839.723,1.675,1.442,2.507,2.159,1.664,1.434,3.335,2.832,4.875,4.35,1.568,1.486,3.123,2.96,4.665,4.422,1.508,1.495,2.939,3.042,4.393,4.541,11.574,12.063,20.611,24.862,27.793,37.307,7.168,12.473,12.372,24.701,16.106,36.141,3.741,11.449,6.017,22.104,7.509,31.657,2.726,19.177,2.258,33.868,1.537,43.574-.211,2.43-.292,4.569-.547,6.385-.232,1.819-.426,3.336-.581,4.551-.311,2.43-.467,3.65-.467,3.65" fill="none" stroke="#231f20" stroke-miterlimit="10" stroke-width=".25"/>
        <path d="m264.161,268.352c2.065,1.234,4.053,2.559,6.059,3.82.994.644,2.005,1.256,2.975,1.92.96.678,1.917,1.354,2.87,2.027.953.674,1.901,1.345,2.847,2.013.946.667,1.895,1.323,2.787,2.048,1.81,1.414,3.606,2.817,5.387,4.209.904.68,1.754,1.418,2.601,2.153.85.731,1.696,1.46,2.539,2.186,1.685,1.452,3.377,2.869,4.936,4.405,1.587,1.505,3.162,2.998,4.723,4.478,1.527,1.514,2.977,3.08,4.448,4.598,11.719,12.215,20.872,25.175,28.145,37.779,7.26,12.632,12.53,25.017,16.312,36.604,3.789,11.596,6.095,22.388,7.606,32.064,2.761,19.422,2.287,34.296,1.557,44.126-.214,2.46-.297,4.626-.554,6.466-.235,1.842-.431,3.379-.588,4.61-.315,2.461-.474,3.697-.474,3.697" fill="none" stroke="#231f20" stroke-miterlimit="10" stroke-width=".25"/>
        <path d="m74.849,613.11c-2.117-1.078-4.219-2.148-6.304-3.21-2.06-1.109-4.056-2.299-6.063-3.431-.997-.578-2.004-1.129-2.981-1.722-.964-.614-1.924-1.226-2.881-1.836-1.901-1.237-3.838-2.388-5.666-3.67-1.823-1.289-3.631-2.567-5.425-3.835l-1.342-.949-1.294-1.003c-.858-.671-1.713-1.338-2.565-2.003-3.459-2.594-6.629-5.427-9.799-8.146-12.473-11.124-22.598-23.067-30.821-34.854-8.227-11.806-14.411-23.57-19.13-34.641-4.706-11.09-7.855-21.527-10.102-30.929-4.451-18.851-5.229-33.55-5.258-43.283-.015-.61-.029-1.2-.042-1.772.014-.572.028-1.125.042-1.659.027-1.068.052-2.06.075-2.976.047-1.833.086-3.362.117-4.586.015-1.225.141-2.14.17-2.753.047-.612.07-.919.07-.919" fill="none" stroke="#231f20" stroke-miterlimit="10" stroke-width=".25"/>
        <path d="m73.756,615.338c-2.144-1.092-4.272-2.176-6.384-3.251-2.086-1.123-4.108-2.327-6.14-3.474-1.009-.585-2.029-1.144-3.019-1.744-.976-.622-1.949-1.241-2.918-1.858-1.925-1.252-3.886-2.419-5.737-3.716-1.846-1.305-3.677-2.599-5.493-3.883l-1.359-.962-1.31-1.016c-.869-.679-1.735-1.355-2.597-2.028-3.502-2.627-6.713-5.495-9.922-8.249-12.63-11.264-22.883-23.357-31.21-35.294-8.331-11.956-14.594-23.87-19.374-35.083-4.766-11.232-7.957-21.804-10.233-31.326-4.508-19.094-5.294-33.98-5.325-43.835-.015-.617-.029-1.215-.042-1.794.014-.579.028-1.139.042-1.68.027-1.081.053-2.086.076-3.014.048-1.856.087-3.404.119-4.644.015-1.241.143-2.167.172-2.787.047-.62.071-.93.071-.93" fill="none" stroke="#231f20" stroke-miterlimit="10" stroke-width=".25"/>
        <path d="m-19.821,362.947c7.4-17.516,16.768-32.922,27.207-45.959,10.337-13.137,21.705-23.913,33.03-32.759,11.337-8.854,22.69-15.749,33.467-21.099,10.785-5.357,20.988-9.171,30.221-12.043,18.565-5.514,33.166-7.235,42.872-7.932,4.86-.454,8.533-.418,10.98-.506,2.448-.061,3.678-.092,3.678-.092" fill="none" stroke="#231f20" stroke-miterlimit="10" stroke-width=".25"/>
        <path d="m-22.111,361.99c7.494-17.741,16.983-33.342,27.552-46.544,10.468-13.303,21.978-24.214,33.446-33.172,11.479-8.965,22.976-15.947,33.889-21.365,10.921-5.425,21.254-9.288,30.604-12.196,18.8-5.585,33.585-7.327,43.412-8.033,4.92-.458,8.639-.424,11.116-.512,2.479-.061,3.723-.092,3.723-.092" fill="none" stroke="#231f20" stroke-miterlimit="10" stroke-width=".25"/>
      </g>
    </g>
    <g>
      <g>
        <path d="m162.553,205.216c22.677.191,43.965,3.127,63.136,8.566,2.395.683,4.781,1.32,7.124,2.024,2.321.777,4.621,1.548,6.9,2.312,1.14.381,2.275.761,3.405,1.139,1.111.43,2.217.859,3.317,1.285,2.199.858,4.379,1.708,6.538,2.551,2.156.85,4.222,1.859,6.307,2.766,2.065.952,4.157,1.796,6.144,2.811,1.99,1.009,3.96,2.008,5.911,2.997.976.494,1.947.986,2.913,1.475.954.512,1.881,1.063,2.815,1.588,14.997,8.334,27.855,17.582,38.767,26.899,10.908,9.335,19.934,18.682,27.361,27.506,14.747,17.771,23.45,32.991,28.751,43.311.669,1.291,1.296,2.502,1.881,3.633.606,1.121,1.041,2.225,1.512,3.21.908,1.988,1.666,3.647,2.272,4.975.604,1.329,1.059,2.327,1.362,2.993.271.68.406,1.02.406,1.02" fill="none" stroke="#231f20" stroke-miterlimit="10" stroke-width=".25"/>
        <path d="m162.553,202.734c22.909.191,44.421,3.16,63.795,8.655,2.42.69,4.831,1.335,7.199,2.046,2.345.785,4.669,1.564,6.973,2.336,1.152.385,2.299.769,3.44,1.151,1.123.435,2.24.867,3.352,1.298,2.223.867,4.425,1.726,6.607,2.578,2.179.859,4.267,1.878,6.374,2.795,2.087.962,4.201,1.815,6.209,2.841,2.011,1.019,4.002,2.029,5.974,3.028.986.5,1.967.997,2.943,1.491.964.518,1.901,1.073,2.845,1.604,15.155,8.422,28.148,17.768,39.176,27.182,11.023,9.433,20.144,18.88,27.65,27.797,14.904,17.959,23.7,33.343,29.059,43.773.676,1.305,1.309,2.529,1.901,3.673.613,1.133,1.053,2.248,1.529,3.245.918,2.009,1.684,3.686,2.297,5.028.611,1.344,1.07,2.353,1.376,3.026.273.687.411,1.031.411,1.031" fill="none" stroke="#231f20" stroke-miterlimit="10" stroke-width=".25"/>
        <path d="m396.795,422.126c.092,1.413.257,2.817.287,4.223.035,1.406.071,2.806.106,4.201.036,1.395.071,2.784.107,4.169.024,1.384.108,2.763.04,4.137-.163,5.493-.169,10.909-.7,16.21-.674,10.631-2.381,20.817-4.33,30.574-4.229,19.465-10.555,37.018-18.003,52.456-7.528,15.414-16.125,28.714-24.867,40.09-1.116,1.405-2.218,2.793-3.307,4.164-1.106,1.356-2.119,2.761-3.275,4.019-2.25,2.567-4.442,5.068-6.575,7.502-2.246,2.331-4.431,4.599-6.555,6.803-1.039,1.125-2.159,2.136-3.237,3.16-1.081,1.02-2.146,2.025-3.195,3.014-1.054.984-2.069,1.977-3.109,2.911-1.061.909-2.106,1.804-3.134,2.685-2.07,1.743-4.008,3.508-5.996,5.071-1.996,1.552-3.923,3.05-5.778,4.493-.936.71-1.819,1.456-2.749,2.099-.925.651-1.832,1.288-2.72,1.913-1.776,1.25-3.479,2.449-5.11,3.597-1.628,1.15-3.277,2.11-4.796,3.1-3.068,1.937-5.797,3.742-8.36,5.122-2.528,1.439-4.743,2.7-6.643,3.781-1.929,1.028-3.572,1.823-4.87,2.492-2.606,1.321-3.914,1.984-3.914,1.984" fill="none" stroke="#231f20" stroke-miterlimit="10" stroke-width=".25"/>
        <path d="m399.271,421.962c.092,1.428.258,2.847.289,4.268.036,1.421.072,2.836.108,4.245.036,1.41.072,2.814.108,4.213.024,1.399.108,2.792.04,4.181-.163,5.551-.172,11.024-.707,16.382-.682,10.745-2.406,21.041-4.377,30.903-4.274,19.677-10.67,37.42-18.198,53.025-7.608,15.58-16.298,29.023-25.133,40.52-1.128,1.42-2.242,2.823-3.342,4.208-1.118,1.37-2.143,2.79-3.31,4.061-2.274,2.594-4.489,5.121-6.645,7.581-2.27,2.356-4.478,4.648-6.624,6.875-1.051,1.136-2.182,2.159-3.272,3.193-1.092,1.031-2.168,2.046-3.228,3.046-1.065.994-2.092,1.998-3.142,2.942-1.072.919-2.128,1.824-3.166,2.714-2.092,1.761-4.051,3.544-6.059,5.124-2.018,1.569-3.964,3.083-5.839,4.541-.946.718-1.838,1.471-2.778,2.121-.935.658-1.851,1.302-2.749,1.934-1.795,1.264-3.516,2.475-5.164,3.635-1.646,1.162-3.311,2.132-4.846,3.133-3.1,1.958-5.859,3.78-8.448,5.176-2.555,1.454-4.793,2.728-6.713,3.821-1.949,1.039-3.61,1.843-4.921,2.519-2.633,1.335-3.956,2.005-3.956,2.005" fill="none" stroke="#231f20" stroke-miterlimit="10" stroke-width=".25"/>
        <path d="m-69.615,472.498c-.685-5.623-1.561-11.14-1.853-16.632-.105-1.37-.21-2.734-.315-4.093l-.157-2.034c-.04-.677-.041-1.356-.063-2.032-.069-2.704-.138-5.387-.206-8.048l-.052-1.992.046-1.984c.034-1.32.068-2.635.101-3.944.033-1.309.066-2.613.099-3.912.023-1.299.058-2.592.183-3.875.425-5.133.669-10.199,1.419-15.126.333-2.467.595-4.923.977-7.338.435-2.407.866-4.793,1.293-7.158.213-1.182.425-2.36.636-3.531.27-1.16.538-2.314.806-3.463.536-2.298,1.066-4.575,1.592-6.831.538-2.253,1.245-4.439,1.849-6.63.652-2.177,1.192-4.367,1.916-6.476.722-2.11,1.436-4.199,2.144-6.268.353-1.035.705-2.064,1.055-3.088.365-1.019.79-2.009,1.179-3.008,6.172-15.999,13.591-29.989,21.352-42.053,7.784-12.058,15.83-22.263,23.599-30.788,15.634-16.997,29.56-27.659,39.058-34.328,4.7-3.435,8.495-5.63,10.938-7.231,1.233-.783,2.159-1.371,2.777-1.763.636-.362.955-.544.955-.544" fill="none" stroke="#231f20" stroke-miterlimit="10" stroke-width=".25"/>
        <path d="m-72.068,472.872c-.694-5.683-1.577-11.26-1.874-16.811-.106-1.384-.213-2.763-.318-4.137l-.158-2.056c-.041-.685-.041-1.37-.064-2.053-.07-2.733-.139-5.444-.208-8.134l-.052-2.013.046-2.005c.034-1.334.068-2.662.102-3.986.034-1.323.067-2.641.101-3.953.024-1.313.06-2.62.185-3.916.428-5.189.677-10.308,1.434-15.288.337-2.493.602-4.976.988-7.417.439-2.433.875-4.845,1.306-7.236.216-1.195.43-2.385.644-3.57.272-1.172.544-2.339.814-3.501.542-2.323,1.078-4.625,1.61-6.905.544-2.277,1.258-4.488,1.869-6.702.659-2.201,1.206-4.414,1.938-6.546.729-2.133,1.452-4.245,2.167-6.336.357-1.046.713-2.086,1.067-3.122.369-1.03.798-2.031,1.191-3.04,6.239-16.173,13.738-30.313,21.582-42.506,7.867-12.187,15.999-22.499,23.85-31.115,1.943-2.172,3.96-4.153,5.84-6.139.949-.984,1.883-1.953,2.801-2.905.962-.908,1.908-1.8,2.838-2.677,1.859-1.754,3.652-3.446,5.38-5.076,1.804-1.546,3.539-3.033,5.206-4.462,3.279-2.924,6.522-5.321,9.406-7.585,2.852-2.308,5.602-4.145,7.999-5.847,4.75-3.47,8.584-5.69,11.053-7.307,1.246-.791,2.182-1.385,2.807-1.781.643-.366.965-.55.965-.55" fill="none" stroke="#231f20" stroke-miterlimit="10" stroke-width=".25"/>
      </g>
      <g>
        <path d="m286.724,232.726c2.514,1.469,4.915,3.083,7.349,4.599,1.208.773,2.424,1.524,3.612,2.307,1.164.819,2.323,1.635,3.478,2.447,1.155.813,2.305,1.622,3.451,2.429,1.14.814,2.306,1.584,3.386,2.461,2.195,1.707,4.372,3.4,6.532,5.08,8.458,6.935,16.389,13.995,23.372,21.489,14.23,14.742,25.376,30.381,34.214,45.617,8.83,15.264,15.245,30.235,19.851,44.248,4.615,14.023,7.425,27.079,9.267,38.788,3.36,23.503,2.786,41.514,1.896,53.41-.115,1.491-.222,2.889-.323,4.194-.093,1.307-.188,2.519-.354,3.632-.286,2.229-.525,4.089-.716,5.578-.383,2.979-.575,4.474-.575,4.474" fill="none" stroke="#231f20" stroke-miterlimit="10" stroke-width=".25"/>
        <path d="m287.993,230.594c2.54,1.485,4.966,3.114,7.425,4.646,1.22.781,2.448,1.54,3.649,2.331,1.176.827,2.347,1.651,3.514,2.472,1.167.821,2.329,1.639,3.486,2.454,1.152.822,2.329,1.601,3.42,2.487,2.217,1.724,4.417,3.435,6.599,5.132,8.545,7.006,16.556,14.14,23.612,21.709,14.375,14.895,25.638,30.694,34.568,46.089,8.922,15.423,15.404,30.552,20.059,44.713,4.663,14.171,7.504,27.365,9.364,39.197,3.396,23.75,2.815,41.944,1.916,53.965-.116,1.506-.225,2.919-.326,4.238-.094,1.32-.19,2.546-.358,3.669-.289,2.253-.53,4.132-.723,5.637-.387,3.01-.582,4.521-.582,4.521" fill="none" stroke="#231f20" stroke-miterlimit="10" stroke-width=".25"/>
        <path d="m56.138,651.957c-2.598-1.317-5.176-2.624-7.734-3.921-2.538-1.335-4.98-2.803-7.444-4.181-1.226-.701-2.447-1.399-3.664-2.094-1.183-.75-2.362-1.498-3.536-2.243-2.336-1.507-4.703-2.928-6.96-4.474-4.466-3.162-8.936-6.171-13.051-9.511-1.045-.813-2.086-1.622-3.122-2.428l-1.551-1.207-1.487-1.272c-1.977-1.695-3.937-3.375-5.88-5.041l-1.453-1.249-1.387-1.309c-.923-.871-1.842-1.737-2.756-2.6-.915-.863-1.825-1.723-2.732-2.578l-1.357-1.281-1.294-1.332c-3.409-3.577-6.872-6.984-9.934-10.638-1.565-1.796-3.115-3.575-4.651-5.337-1.454-1.831-2.894-3.644-4.32-5.439-2.93-3.532-5.435-7.274-8.035-10.832-10.123-14.442-17.769-28.827-23.573-42.39-5.791-13.583-9.687-26.365-12.457-37.885-5.486-23.099-6.455-41.117-6.487-53.048-.018-.747-.035-1.471-.052-2.172.018-.701.035-1.379.052-2.033.033-1.309.064-2.525.093-3.648.058-2.246.106-4.121.144-5.622.021-1.502.175-2.623.211-3.374.057-.75.086-1.126.086-1.126" fill="none" stroke="#231f20" stroke-miterlimit="10" stroke-width=".25"/>
        <path d="m55.052,654.188c-2.624-1.33-5.229-2.651-7.814-3.961-2.564-1.349-5.031-2.831-7.521-4.224-1.239-.708-2.472-1.413-3.701-2.116-1.196-.758-2.386-1.513-3.572-2.265-2.36-1.522-4.751-2.958-7.031-4.52-4.513-3.193-9.027-6.235-13.185-9.608-1.056-.821-2.107-1.639-3.154-2.454l-1.567-1.219-1.502-1.285c-1.997-1.712-3.977-3.41-5.94-5.092l-1.467-1.262-1.402-1.322c-.932-.88-1.861-1.755-2.785-2.627-.924-.872-1.844-1.74-2.76-2.605l-1.37-1.294-1.307-1.346c-3.445-3.613-6.942-7.056-10.036-10.747-1.581-1.814-3.147-3.612-4.698-5.392-1.469-1.849-2.924-3.681-4.365-5.495-2.959-3.569-5.492-7.349-8.118-10.944-10.228-14.592-17.954-29.127-23.819-42.833-5.852-13.726-9.79-26.642-12.589-38.284-5.543-23.343-6.521-41.55-6.555-53.603-.018-.755-.035-1.486-.052-2.195.018-.708.035-1.393.052-2.054.034-1.323.065-2.551.094-3.686.058-2.27.107-4.163.146-5.68.021-1.517.176-2.65.213-3.409.058-.758.087-1.138.087-1.138" fill="none" stroke="#231f20" stroke-miterlimit="10" stroke-width=".25"/>
        <path d="m-60.279,345.745c.508-1.366,1.166-2.662,1.751-3.984.601-1.315,1.199-2.625,1.795-3.929.597-1.304,1.192-2.603,1.785-3.898.654-1.264,1.306-2.524,1.955-3.778,1.32-2.497,2.539-5.024,3.913-7.441,1.397-2.404,2.783-4.79,4.158-7.156,5.72-9.325,11.671-18.121,18.159-26.046C-14.047,273.447-.052,260.303,13.855,249.497c13.929-10.809,27.87-19.217,41.097-25.739,13.236-6.529,25.753-11.174,37.076-14.671,22.765-6.72,40.66-8.814,52.558-9.662,5.957-.554,10.459-.508,13.458-.615,3.001-.075,4.508-.112,4.508-.112" fill="none" stroke="#231f20" stroke-miterlimit="10" stroke-width=".25"/>
        <path d="m-62.566,344.782c.514-1.38,1.178-2.691,1.769-4.026.607-1.329,1.211-2.652,1.814-3.971.604-1.318,1.205-2.631,1.804-3.938.661-1.278,1.319-2.55,1.974-3.818,1.333-2.524,2.566-5.077,3.955-7.519,1.411-2.43,2.812-4.84,4.201-7.231,5.779-9.423,11.793-18.309,18.347-26.316,12.849-16.232,26.987-29.511,41.037-40.428,14.072-10.92,28.156-19.414,41.519-26.003,13.372-6.597,26.018-11.29,37.457-14.821,22.999-6.791,41.078-8.905,53.095-9.762,6.017-.559,10.564-.513,13.594-.622,3.031-.075,4.553-.113,4.553-.113" fill="none" stroke="#231f20" stroke-miterlimit="10" stroke-width=".25"/>
      </g>
    </g>
    <g>
      <g>
        <path d="m163.472,161.355c26.968.229,52.288,3.699,75.096,10.141,2.849.808,5.686,1.572,8.477,2.394,2.761.922,5.497,1.836,8.209,2.742,1.356.452,2.706.903,4.05,1.351,1.333.479,2.638,1.016,3.949,1.518,2.617,1.018,5.21,2.026,7.779,3.025,1.296.472,2.536,1.062,3.785,1.613,1.247.556,2.488,1.11,3.723,1.661,2.459,1.126,4.943,2.138,7.315,3.327,2.368,1.197,4.713,2.382,7.035,3.556,1.161.586,2.317,1.17,3.466,1.75,1.143.592,2.241,1.256,3.355,1.876,17.854,9.877,33.17,20.843,46.174,31.892,12.994,11.074,23.768,22.155,32.611,32.639,2.228,2.606,4.232,5.262,6.258,7.762,1.001,1.26,1.986,2.499,2.954,3.718.91,1.263,1.804,2.504,2.683,3.724,1.757,2.44,3.452,4.795,5.086,7.063,1.522,2.344,2.987,4.599,4.394,6.765,2.904,4.277,5.182,8.439,7.374,12.154,2.248,3.685,3.947,7.185,5.557,10.246,1.593,3.07,3.027,5.74,4.054,8.13,1.083,2.363,1.986,4.335,2.709,5.913.724,1.578,1.267,2.764,1.63,3.555.323.808.484,1.213.484,1.213" fill="none" stroke="#231f20" stroke-miterlimit="10" stroke-width=".25"/>
        <path d="m163.472,158.874c27.199.228,52.742,3.732,75.752,10.23,2.875.815,5.736,1.586,8.552,2.416,2.785.93,5.546,1.852,8.282,2.765,1.368.457,2.73.911,4.086,1.364,1.344.484,2.661,1.025,3.984,1.531,2.64,1.027,5.256,2.044,7.848,3.052,1.307.477,2.558,1.071,3.818,1.627,1.258.561,2.51,1.12,3.756,1.676,2.48,1.136,4.987,2.157,7.379,3.357,2.389,1.207,4.755,2.403,7.098,3.587,1.171.592,2.337,1.181,3.497,1.766,1.154.598,2.261,1.267,3.385,1.892,18.012,9.965,33.463,21.027,46.582,32.175,13.11,11.172,23.979,22.352,32.901,32.93,2.248,2.629,4.27,5.309,6.314,7.831,1.01,1.271,2.003,2.522,2.979,3.751.918,1.274,1.821,2.526,2.707,3.757,1.773,2.462,3.483,4.838,5.131,7.127,1.536,2.365,3.015,4.64,4.435,6.826,2.929,4.316,5.229,8.515,7.44,12.264,2.268,3.719,3.983,7.25,5.607,10.339,1.607,3.098,3.054,5.792,4.09,8.204,1.093,2.384,2.004,4.374,2.734,5.967.73,1.593,1.279,2.789,1.645,3.588.326.815.489,1.224.489,1.224" fill="none" stroke="#231f20" stroke-miterlimit="10" stroke-width=".25"/>
        <path d="m442.48,418.889c.109,1.681.304,3.35.343,5.022.042,1.672.085,3.337.127,4.995.043,1.659.085,3.311.127,4.957.029,1.646.129,3.286.048,4.919-.193,6.532-.204,12.972-.836,19.276-.121,1.578-.242,3.15-.363,4.715l-.18,2.343c-.066.779-.191,1.55-.283,2.323-.398,3.089-.792,6.152-1.184,9.19l-.292,2.274c-.1.756-.262,1.5-.389,2.249-.271,1.494-.541,2.982-.809,4.464-.268,1.482-.535,2.957-.801,4.426-.267,1.469-.505,2.937-.875,4.372-5.05,23.145-12.604,44.011-21.493,62.356-9,18.307-19.248,34.109-29.678,47.613-1.33,1.669-2.643,3.318-3.94,4.946-1.311,1.616-2.535,3.272-3.91,4.767-2.683,3.046-5.296,6.014-7.841,8.903-2.675,2.768-5.278,5.461-7.808,8.079-1.236,1.338-2.586,2.523-3.863,3.744-1.287,1.211-2.556,2.404-3.805,3.579-1.258,1.165-2.458,2.355-3.709,3.449-1.264,1.08-2.508,2.142-3.731,3.188-1.223,1.046-2.427,2.074-3.61,3.086-1.188,1.006-2.327,2.03-3.536,2.926-4.78,3.65-9.094,7.219-13.397,10.088-2.115,1.484-4.143,2.907-6.083,4.269-1.949,1.349-3.903,2.499-5.714,3.671-1.823,1.154-3.557,2.25-5.199,3.289-1.62,1.078-3.266,1.903-4.756,2.781-3.009,1.707-5.645,3.203-7.906,4.486-2.304,1.204-4.253,2.159-5.8,2.949-3.101,1.567-4.658,2.354-4.658,2.354" fill="none" stroke="#231f20" stroke-miterlimit="10" stroke-width=".25"/>
        <path d="m444.956,418.724c.11,1.696.306,3.381.346,5.067.043,1.687.086,3.367.129,5.04.043,1.674.086,3.341.128,5.002.029,1.661.129,3.315.048,4.963-.193,6.591-.207,13.088-.843,19.45-.123,1.592-.245,3.178-.366,4.758l-.182,2.365c-.067.786-.192,1.564-.285,2.344-.401,3.117-.8,6.208-1.194,9.273l-.295,2.294c-.102.763-.264,1.514-.393,2.269-.273,1.508-.545,3.01-.816,4.505-.271,1.495-.54,2.984-.808,4.467-.27,1.482-.511,2.964-.883,4.412-5.096,23.357-12.719,44.414-21.69,62.926-9.081,18.474-19.421,34.418-29.945,48.042-1.342,1.684-2.667,3.348-3.975,4.99-1.323,1.631-2.559,3.301-3.945,4.809-2.707,3.073-5.344,6.067-7.911,8.982-2.699,2.793-5.325,5.51-7.877,8.151-1.248,1.349-2.609,2.545-3.897,3.778-1.299,1.222-2.578,2.425-3.839,3.611-1.269,1.175-2.48,2.376-3.743,3.479-1.275,1.089-2.53,2.161-3.764,3.216-1.234,1.055-2.448,2.093-3.642,3.113-1.198,1.015-2.348,2.048-3.567,2.952-4.822,3.683-9.175,7.282-13.515,10.177-2.134,1.497-4.179,2.932-6.137,4.306-1.967,1.361-3.937,2.522-5.764,3.704-1.84,1.164-3.588,2.27-5.246,3.318-1.634,1.087-3.295,1.92-4.798,2.806-3.036,1.722-5.695,3.231-7.977,4.526-2.324,1.215-4.291,2.179-5.851,2.976-3.128,1.581-4.699,2.375-4.699,2.375" fill="none" stroke="#231f20" stroke-miterlimit="10" stroke-width=".25"/>
        <path d="m-113.058,478.791c-.815-6.687-1.865-13.247-2.213-19.779-.126-1.629-.251-3.251-.376-4.867l-.187-2.419c-.05-.806-.049-1.612-.076-2.416-.082-3.216-.164-6.406-.245-9.571l-.062-2.369.054-2.359c.041-1.57.081-3.133.121-4.69.04-1.557.079-3.107.119-4.651l.058-2.312c.027-.768.11-1.532.161-2.296.504-6.105.801-12.129,1.695-17.987.399-2.933.707-5.854,1.169-8.726.518-2.863,1.032-5.7,1.542-8.512.254-1.406.507-2.806.759-4.199.323-1.379.644-2.751.964-4.117.639-2.733,1.272-5.44,1.899-8.123.652-2.676,1.488-5.278,2.211-7.882.374-1.299.746-2.592,1.116-3.879.371-1.286.718-2.573,1.176-3.819.86-2.508,1.713-4.992,2.556-7.452.421-1.23.841-2.454,1.258-3.672.449-1.206.946-2.387,1.412-3.573,7.37-19.016,16.225-35.638,25.486-49.965,9.285-14.323,18.894-26.426,28.143-36.555,2.305-2.538,4.673-4.876,6.891-7.207,1.123-1.153,2.208-2.306,3.309-3.406,1.134-1.066,2.249-2.115,3.344-3.145,2.193-2.058,4.309-4.043,6.348-5.957,2.126-1.816,4.171-3.563,6.135-5.241,3.862-3.438,7.698-6.235,11.09-8.902,3.359-2.714,6.611-4.853,9.429-6.859,1.416-.994,2.744-1.926,3.984-2.796,1.224-.894,2.455-1.585,3.542-2.299,2.198-1.39,4.031-2.55,5.5-3.478,1.47-.926,2.574-1.621,3.31-2.085.757-.429,1.137-.644,1.137-.644" fill="none" stroke="#231f20" stroke-miterlimit="10" stroke-width=".25"/>
        <path d="m-115.511,479.166c-.825-6.748-1.881-13.368-2.234-19.958-.127-1.644-.253-3.281-.379-4.911l-.188-2.441c-.051-.813-.05-1.627-.077-2.438-.083-3.245-.166-6.464-.247-9.657l-.062-2.39.055-2.38c.041-1.584.081-3.161.122-4.732.04-1.571.08-3.135.12-4.693l.059-2.332c.027-.775.11-1.546.162-2.317.507-6.16.809-12.238,1.71-18.15.402-2.96.714-5.908,1.18-8.805.523-2.889,1.041-5.752,1.555-8.59.257-1.419.512-2.832.767-4.238.326-1.391.65-2.776.973-4.155.645-2.758,1.284-5.49,1.917-8.197.658-2.701,1.501-5.326,2.23-7.954.377-1.311.753-2.616,1.126-3.914.374-1.298.725-2.597,1.187-3.854.868-2.531,1.728-5.038,2.579-7.52.426-1.241.849-2.476,1.27-3.705.453-1.217.954-2.409,1.425-3.606,7.437-19.19,16.373-35.962,25.717-50.418,9.369-14.452,19.064-26.663,28.395-36.881,2.326-2.561,4.714-4.919,6.952-7.271,1.133-1.163,2.228-2.326,3.339-3.436,1.144-1.076,2.269-2.134,3.374-3.173,2.213-2.076,4.348-4.079,6.404-6.009,2.144-1.832,4.207-3.595,6.189-5.288,3.897-3.467,7.766-6.291,11.188-8.981,3.389-2.737,6.67-4.896,9.513-6.92,1.428-1.002,2.769-1.943,4.02-2.821,1.236-.902,2.477-1.599,3.573-2.319,2.217-1.402,4.067-2.572,5.548-3.509,1.483-.934,2.597-1.635,3.34-2.103.764-.433,1.147-.65,1.147-.65" fill="none" stroke="#231f20" stroke-miterlimit="10" stroke-width=".25"/>
      </g>
      <g>
        <path d="m310.564,194.973c1.519.818,2.937,1.794,4.392,2.693,1.446.915,2.887,1.826,4.323,2.734,1.434.909,2.863,1.815,4.286,2.717,1.38.968,2.754,1.932,4.123,2.892,1.369.96,2.733,1.917,4.091,2.87,1.346.969,2.741,1.862,4.02,2.901,2.602,2.017,5.183,4.019,7.744,6.004,10.043,8.18,19.442,16.531,27.736,25.38,16.886,17.422,30.141,35.899,40.633,53.927,10.49,18.054,18.118,35.77,23.596,52.355,5.488,16.597,8.833,32.055,11.024,45.917,3.995,27.829,3.314,49.159,2.254,63.245-.136,1.765-.264,3.421-.383,4.967-.06.773-.117,1.519-.173,2.237-.061.718-.172,1.403-.25,2.063-.34,2.64-.623,4.842-.85,6.605-.455,3.527-.683,5.298-.683,5.298" fill="none" stroke="#231f20" stroke-miterlimit="10" stroke-width=".25"/>
        <path d="m311.829,192.838c1.532.825,2.962,1.809,4.431,2.716,1.459.923,2.912,1.842,4.36,2.757,1.447.917,2.888,1.831,4.323,2.741,1.392.976,2.778,1.948,4.159,2.917,1.381.969,2.756,1.934,4.126,2.895,1.358.978,2.764,1.879,4.054,2.926,2.625,2.035,5.228,4.053,7.811,6.056,10.13,8.25,19.61,16.675,27.976,25.6,17.031,17.574,30.404,36.212,40.989,54.399,10.583,18.214,18.278,36.087,23.805,52.821,5.537,16.746,8.912,32.341,11.122,46.328,4.032,28.077,3.344,49.591,2.274,63.803-.137,1.781-.266,3.451-.387,5.011-.06.78-.119,1.532-.175,2.257-.062.724-.173,1.415-.252,2.082-.343,2.663-.629,4.885-.857,6.664-.459,3.558-.69,5.345-.69,5.345" fill="none" stroke="#231f20" stroke-miterlimit="10" stroke-width=".25"/>
        <path d="m37.426,690.802c-3.078-1.555-6.133-3.099-9.164-4.631-1.534-.731-2.968-1.636-4.445-2.447-1.466-.832-2.926-1.66-4.38-2.485-1.454-.825-2.903-1.647-4.346-2.466-1.402-.886-2.8-1.769-4.191-2.649-2.771-1.777-5.569-3.467-8.255-5.278-5.289-3.744-10.599-7.282-15.477-11.231-1.239-.961-2.473-1.917-3.702-2.87l-1.839-1.426c-.604-.484-1.18-.999-1.77-1.496-2.344-2.003-4.668-3.989-6.972-5.958l-1.724-1.474-1.65-1.542c-1.094-1.029-2.184-2.054-3.269-3.074-1.085-1.02-2.165-2.036-3.24-3.048-1.079-1.007-2.153-2.01-3.151-3.082-4.037-4.235-8.159-8.249-11.791-12.572-1.859-2.121-3.701-4.223-5.525-6.304-1.725-2.165-3.433-4.309-5.125-6.433-3.475-4.178-6.464-8.593-9.542-12.806-12.013-17.081-21.127-34.083-28.011-50.14-6.885-16.072-11.52-31.201-14.817-44.838-6.52-27.347-7.68-48.683-7.716-62.812-.021-.885-.042-1.742-.062-2.572.021-.83.042-1.632.061-2.407.04-1.55.076-2.99.11-4.32.068-2.66.125-4.88.171-6.657.027-1.778.208-3.106.252-3.995.068-.888.103-1.333.103-1.333" fill="none" stroke="#231f20" stroke-miterlimit="10" stroke-width=".25"/>
        <path d="m36.344,693.035c-3.105-1.569-6.186-3.126-9.243-4.671-1.547-.738-2.994-1.65-4.484-2.468-1.479-.839-2.951-1.674-4.418-2.506-1.467-.833-2.928-1.662-4.384-2.488-1.415-.894-2.824-1.784-4.228-2.671-2.795-1.792-5.617-3.497-8.326-5.324-5.335-3.775-10.69-7.346-15.611-11.328-1.25-.969-2.494-1.934-3.733-2.895l-1.855-1.439c-.609-.488-1.19-1.008-1.785-1.509-2.364-2.02-4.708-4.024-7.032-6.01l-1.739-1.487-1.665-1.555c-1.104-1.038-2.203-2.072-3.297-3.101-1.094-1.029-2.183-2.054-3.268-3.074-1.089-1.016-2.172-2.028-3.178-3.108-4.073-4.271-8.229-8.321-11.893-12.681-1.875-2.14-3.733-4.26-5.573-6.36-1.74-2.184-3.463-4.347-5.17-6.489-3.504-4.216-6.521-8.667-9.626-12.918-12.118-17.231-21.313-34.384-28.258-50.583-6.947-16.215-11.624-31.479-14.95-45.239-6.578-27.592-7.747-49.118-7.784-63.369-.021-.893-.042-1.758-.062-2.595.021-.837.042-1.647.061-2.429.04-1.564.077-3.016.111-4.358.069-2.683.127-4.922.173-6.715.028-1.794.21-3.133.254-4.03.069-.896.103-1.345.103-1.345" fill="none" stroke="#231f20" stroke-miterlimit="10" stroke-width=".25"/>
        <path d="m-100.738,328.545c.602-1.618,1.398-3.145,2.086-4.712.713-1.556,1.423-3.106,2.131-4.65.711-1.542,1.42-3.079,2.126-4.609.776-1.496,1.55-2.986,2.32-4.471.771-1.484,1.538-2.963,2.303-4.436.777-1.466,1.489-2.96,2.35-4.365,1.658-2.845,3.303-5.667,4.935-8.467,6.807-11.021,13.862-21.431,21.571-30.794,15.097-18.996,31.72-34.507,48.209-47.275,16.522-12.764,33.05-22.686,48.727-30.379,15.688-7.702,30.519-13.177,43.931-17.299,26.965-7.927,48.156-10.394,62.245-11.393,7.053-.655,12.385-.597,15.937-.726,3.553-.088,5.338-.133,5.338-.133" fill="none" stroke="#231f20" stroke-miterlimit="10" stroke-width=".25"/>
        <path d="m-103.023,327.578c.608-1.632,1.41-3.174,2.105-4.754.719-1.57,1.436-3.134,2.15-4.692.718-1.556,1.433-3.106,2.146-4.65.783-1.509,1.563-3.013,2.34-4.511.777-1.498,1.552-2.989,2.323-4.475.784-1.479,1.503-2.986,2.371-4.404,1.673-2.87,3.332-5.718,4.978-8.542,6.866-11.119,13.984-21.619,21.76-31.064,15.229-19.161,31.996-34.807,48.627-47.685,16.665-12.874,33.336-22.882,49.149-30.641,15.824-7.769,30.783-13.292,44.312-17.448,27.198-7.997,48.571-10.484,62.78-11.491,7.114-.659,12.49-.603,16.072-.732,3.583-.089,5.383-.133,5.383-.133" fill="none" stroke="#231f20" stroke-miterlimit="10" stroke-width=".25"/>
      </g>
    </g>
  </g>
  <g>
    <path d="m2.569,90.931c.3.577.076,1.288-.501,1.589s-1.288.076-1.589-.501c-.3-.577-.076-1.288.501-1.589.577-.3,1.288-.076,1.589.501Z" fill="#231f20" stroke-width="0"/>
    <path d="m6.755,88.753c.3.577.076,1.288-.501,1.589-.577.3-1.288.076-1.589-.501s-.076-1.288.501-1.589c.577-.3,1.288-.076,1.589.501Z" fill="#231f20" stroke-width="0"/>
    <path d="m10.94,86.574c.3.577.076,1.288-.501,1.589-.577.3-1.288.076-1.589-.501-.3-.577-.076-1.288.501-1.589s1.288-.076,1.589.501Z" fill="#231f20" stroke-width="0"/>
    <path d="m15.126,84.396c.3.577.076,1.288-.501,1.589-.577.3-1.288.076-1.589-.501-.3-.577-.076-1.288.501-1.589.577-.3,1.288-.076,1.589.501Z" fill="#231f20" stroke-width="0"/>
    <path d="m19.311,82.219c.3.577.076,1.288-.501,1.589s-1.288.076-1.589-.501-.076-1.288.501-1.589c.577-.3,1.288-.076,1.589.501Z" fill="#231f20" stroke-width="0"/>
    <path d="m23.497,80.04c.3.577.076,1.288-.501,1.589-.577.3-1.288.076-1.589-.501-.3-.577-.076-1.288.501-1.589.577-.3,1.288-.076,1.589.501Z" fill="#231f20" stroke-width="0"/>
    <path d="m27.682,77.862c.3.577.076,1.288-.501,1.589-.577.3-1.288.076-1.589-.501-.3-.577-.076-1.288.501-1.589s1.288-.076,1.589.501Z" fill="#231f20" stroke-width="0"/>
    <path d="m31.867,75.684c.3.577.076,1.288-.501,1.589-.577.3-1.288.076-1.589-.501s-.076-1.288.501-1.589c.577-.3,1.288-.076,1.589.501Z" fill="#231f20" stroke-width="0"/>
    <path d="m36.053,73.506c.3.577.076,1.288-.501,1.589s-1.288.076-1.589-.501c-.3-.577-.076-1.288.501-1.589.577-.3,1.288-.076,1.589.501Z" fill="#231f20" stroke-width="0"/>
    <path d="m40.238,71.328c.3.577.076,1.288-.501,1.589-.577.3-1.288.076-1.589-.501-.3-.577-.076-1.288.501-1.589.577-.3,1.288-.076,1.589.501Z" fill="#231f20" stroke-width="0"/>
    <path d="m44.424,69.15c.3.577.076,1.288-.501,1.589-.577.3-1.288.076-1.589-.501s-.076-1.288.501-1.589,1.288-.076,1.589.501Z" fill="#231f20" stroke-width="0"/>
    <path d="m48.609,66.972c.3.577.076,1.288-.501,1.589-.577.3-1.288.076-1.589-.501-.3-.577-.076-1.288.501-1.589.577-.3,1.288-.076,1.589.501Z" fill="#231f20" stroke-width="0"/>
    <path d="m52.795,64.794c.3.577.076,1.288-.501,1.589s-1.288.076-1.589-.501c-.3-.577-.076-1.288.501-1.589.577-.3,1.288-.076,1.589.501Z" fill="#231f20" stroke-width="0"/>
  </g>
  <g>
    <path d="m98.881,40.608c.3.577.075,1.288-.503,1.588s-1.288.075-1.588-.503c-.3-.577-.075-1.288.503-1.588.577-.3,1.288-.075,1.588.503Z" fill="#231f20" stroke-width="0"/>
    <path d="m103.091,38.422c.3.577.075,1.288-.503,1.588-.577.3-1.288.075-1.588-.503-.3-.577-.075-1.288.503-1.588.577-.3,1.288-.075,1.588.503Z" fill="#231f20" stroke-width="0"/>
    <path d="m107.301,36.237c.3.577.075,1.288-.503,1.588-.577.3-1.288.075-1.588-.503-.3-.577-.075-1.288.503-1.588.577-.3,1.289-.075,1.588.503Z" fill="#231f20" stroke-width="0"/>
    <path d="m111.511,34.051c.3.577.075,1.288-.503,1.588s-1.289.075-1.588-.503c-.3-.577-.075-1.288.503-1.588.577-.3,1.288-.075,1.588.503Z" fill="#231f20" stroke-width="0"/>
    <path d="m115.721,31.866c.3.577.075,1.288-.503,1.588-.577.3-1.288.075-1.588-.503-.3-.577-.074-1.288.503-1.588.577-.3,1.288-.075,1.588.503Z" fill="#231f20" stroke-width="0"/>
    <path d="m119.932,29.68c.3.577.075,1.288-.503,1.588-.577.3-1.288.075-1.588-.503s-.075-1.288.503-1.588c.577-.3,1.288-.075,1.588.503Z" fill="#231f20" stroke-width="0"/>
    <path d="m124.142,27.495c.3.577.074,1.288-.503,1.588-.577.3-1.288.075-1.588-.503-.3-.577-.075-1.288.503-1.588.577-.3,1.288-.075,1.588.503Z" fill="#231f20" stroke-width="0"/>
    <path d="m128.352,25.309c.3.577.075,1.288-.503,1.588-.577.3-1.288.075-1.588-.503s-.075-1.288.503-1.588,1.289-.075,1.588.503Z" fill="#231f20" stroke-width="0"/>
    <path d="m132.562,23.124c.3.577.074,1.288-.503,1.588-.577.3-1.289.075-1.588-.503-.3-.577-.075-1.288.503-1.588.577-.3,1.288-.075,1.588.503Z" fill="#231f20" stroke-width="0"/>
    <path d="m136.772,20.938c.3.577.075,1.288-.503,1.588s-1.288.075-1.588-.503c-.3-.577-.074-1.288.503-1.588.577-.3,1.289-.075,1.588.503Z" fill="#231f20" stroke-width="0"/>
    <path d="m140.982,18.753c.3.577.075,1.288-.503,1.588-.577.3-1.289.075-1.588-.503-.3-.577-.075-1.288.503-1.588s1.288-.075,1.588.503Z" fill="#231f20" stroke-width="0"/>
    <path d="m145.192,16.567c.3.577.074,1.288-.503,1.588-.577.3-1.288.075-1.588-.503-.3-.577-.074-1.288.503-1.588.577-.3,1.288-.075,1.588.503Z" fill="#231f20" stroke-width="0"/>
    <path d="m149.402,14.382c.3.577.075,1.288-.503,1.588s-1.288.075-1.588-.503c-.3-.577-.075-1.288.503-1.588.577-.3,1.288-.075,1.588.503Z" fill="#231f20" stroke-width="0"/>
    <path d="m153.613,12.196c.3.577.074,1.288-.503,1.588-.577.3-1.288.075-1.588-.503-.3-.577-.075-1.288.503-1.588s1.288-.075,1.588.503Z" fill="#231f20" stroke-width="0"/>
    <path d="m157.823,10.011c.3.577.075,1.288-.503,1.588-.577.3-1.288.075-1.588-.503-.3-.577-.075-1.288.503-1.588.577-.3,1.289-.075,1.588.503Z" fill="#231f20" stroke-width="0"/>
    <path d="m162.033,7.825c.3.577.075,1.288-.503,1.588s-1.289.075-1.588-.503c-.3-.577-.075-1.288.503-1.588.577-.3,1.288-.075,1.588.503Z" fill="#231f20" stroke-width="0"/>
    <path d="m166.243,5.64c.3.577.075,1.288-.503,1.588-.577.3-1.288.075-1.588-.503-.3-.577-.074-1.288.503-1.588.577-.3,1.289-.075,1.588.503Z" fill="#231f20" stroke-width="0"/>
    <path d="m170.453,3.454c.3.577.075,1.288-.503,1.588-.577.3-1.288.075-1.588-.503s-.075-1.288.503-1.588c.577-.3,1.288-.075,1.588.503Z" fill="#231f20" stroke-width="0"/>
    <path d="m174.663,1.269c.3.577.074,1.288-.503,1.588s-1.288.075-1.588-.503c-.3-.577-.074-1.288.503-1.588.577-.3,1.288-.075,1.588.503Z" fill="#231f20" stroke-width="0"/>
    <path d="m178.873-.917c.3.577.075,1.288-.503,1.588-.577.3-1.288.075-1.588-.503s-.075-1.288.503-1.588,1.288-.075,1.588.503Z" fill="#231f20" stroke-width="0"/>
  </g>
  <g opacity=".5">
    <g>
      <g>
        <line x1="65.347" y1="101.724" x2="70.363" y2="100.229" fill="none" stroke="#221f1f" stroke-miterlimit="10" stroke-width=".5"/>
        <path d="m78.466,97.142c.542.283.935.454,1.082.978.042.149.047.261.04.433-.026.663-.438,1.122-.604,1.307-.107.119-.276.286-.521.445l.419,1.568-.35.083-.418-1.479-.597.189.45,1.671-.416.116-.461-1.676s-.892.388-1.916.224c-1.024-.167-2.708-1.359-3.036-1.344-.328.01-.35.094-.35.094-.01-.034-.035-.141.015-.254.082-.186.29-.217.304-.219.854-.06,1.422-.308,1.784-.533.685-.425.688-.783,1.453-1.149.587-.281,1.12-.326,1.148-.598.006-.058-.086-.23-.269-.571-.165-.306-.179-.315-.196-.385-.067-.275.041-.581.21-.788.331-.409.848-.362.889-.359.085.009.342.035.53.221.194.192.256.384.256.384.019.058.035.132.1.2.059.061.13.087.182.101.352.095,1.183.011,1.221.123.008.025-.018.073-.179.174-.038.005-.183.026-.373.054-.47.068-.601.085-.73.196-.053.046-.394.417.333.796Z" fill="#221f1f" stroke-width="0"/>
      </g>
      <g>
        <line x1="82.774" y1="96.815" x2="87.85" y2="95.536" fill="none" stroke="#221f1f" stroke-miterlimit="10" stroke-width=".5"/>
        <path d="m96.08,92.811c.53.305.914.492,1.039,1.022.036.151.036.263.022.434-.054.662-.485,1.103-.659,1.282-.112.115-.288.274-.54.424l.351,1.585-.353.069-.354-1.496-.606.158.378,1.689-.422.094-.389-1.694s-.909.344-1.924.144c-1.014-.203-2.644-1.464-2.974-1.47-.329-.006-.355.077-.355.077-.008-.034-.029-.142.026-.253.09-.181.299-.203.313-.204.858-.016,1.434-.246,1.805-.457.702-.399.719-.757,1.499-1.094.598-.259,1.134-.27,1.174-.541.009-.058-.076-.234-.245-.583-.152-.313-.166-.323-.18-.394-.056-.277.066-.577.244-.775.349-.388.862-.324.904-.318.085.012.34.048.52.242.186.199.239.394.239.394.016.058.029.134.092.204.056.063.126.092.178.108.347.109,1.181.059,1.214.172.007.025-.021.072-.186.167-.039.004-.183.019-.375.039-.472.049-.604.06-.737.166-.055.044-.412.401.299.809Z" fill="#221f1f" stroke-width="0"/>
      </g>
      <g>
        <line x1="100.397" y1="92.663" x2="105.523" y2="91.601" fill="none" stroke="#221f1f" stroke-miterlimit="10" stroke-width=".5"/>
        <path d="m113.856,89.211c.517.329.894.534.997,1.069.029.152.025.264.004.435-.082.658-.531,1.078-.712,1.248-.116.11-.3.259-.557.399l.285,1.598-.355.058-.292-1.509-.611.139.308,1.703-.425.081-.318-1.709s-.922.313-1.928.064c-1.005-.249-2.583-1.581-2.912-1.601-.329-.021-.358.061-.358.061-.007-.035-.023-.143.037-.251.098-.177.308-.189.322-.189.858.023,1.444-.182,1.823-.375.718-.367.751-.723,1.544-1.025.608-.231,1.143-.232,1.194-.5.011-.058-.066-.237-.22-.592-.138-.318-.152-.329-.163-.401-.044-.279.089-.576.275-.768.364-.378.873-.298.915-.29.084.016.338.064.51.266.177.208.223.405.223.405.014.059.023.135.083.208.054.065.122.098.173.116.342.125,1.179.115,1.207.229.006.025-.024.071-.193.158-.039.002-.184.01-.376.021-.474.026-.606.032-.744.131-.057.041-.428.381.265.822Z" fill="#221f1f" stroke-width="0"/>
      </g>
      <g>
        <path d="m118.178,89.256c1.718-.309,3.44-.587,5.166-.848" fill="none" stroke="#221f1f" stroke-miterlimit="10" stroke-width=".5"/>
        <path d="m131.77,86.368c.503.347.87.566.951,1.104.023.153.014.265-.014.435-.109.655-.575,1.059-.763,1.223-.121.105-.31.25-.573.378l.219,1.608-.358.04-.229-1.52-.617.107.237,1.714-.428.059-.247-1.721s-.937.254-1.931-.026c-.993-.283-2.512-1.67-2.841-1.701-.327-.032-.359.048-.359.048-.005-.035-.017-.144.047-.25.105-.174.315-.178.329-.178.855.052,1.448-.132,1.835-.313.732-.339.778-.706,1.585-.963.619-.199,1.153-.172,1.216-.437.013-.057-.056-.239-.196-.601-.125-.325-.138-.336-.146-.408-.032-.281.114-.57.307-.752.38-.358.886-.251.927-.242.083.019.334.076.498.284.168.214.206.412.206.412.011.06.018.135.074.211.051.068.117.102.168.123.337.138,1.172.157,1.196.272.005.026-.027.07-.199.151-.039,0-.185.004-.377.008-.474.009-.607.01-.748.105-.059.039-.443.365.231.831Z" fill="#221f1f" stroke-width="0"/>
      </g>
      <g>
        <line x1="136.083" y1="86.568" x2="141.282" y2="85.952" fill="none" stroke="#221f1f" stroke-miterlimit="10" stroke-width=".5"/>
        <path d="m149.786,84.268c.487.367.845.599.903,1.141.016.154.002.266-.033.434-.137.651-.619,1.037-.813,1.193-.125.1-.32.237-.588.355l.15,1.616-.359.026-.165-1.528-.62.083.164,1.723-.43.042-.174-1.73s-.945.227-1.928-.111c-.982-.348-2.441-1.788-2.767-1.831-.325-.044-.361.035-.361.035-.004-.035-.011-.144.058-.248.112-.17.322-.167.336-.166.852.083,1.452-.08,1.847-.233.747-.3.809-.651,1.626-.88.626-.175,1.159-.127,1.233-.39.016-.056-.046-.241-.17-.609-.111-.329-.124-.341-.129-.413-.021-.282.137-.565.339-.74.395-.343.896-.217.937-.206.083.022.331.089.485.304.159.221.188.42.188.42.009.06.012.136.065.213.048.069.113.107.163.129.331.151,1.164.203,1.183.319.004.026-.03.069-.205.143-.039,0-.185-.003-.376-.007-.474-.009-.607-.014-.752.075-.06.037-.458.348.195.84Z" fill="#221f1f" stroke-width="0"/>
      </g>
      <g>
        <line x1="154.087" y1="84.659" x2="159.307" y2="84.259" fill="none" stroke="#221f1f" stroke-miterlimit="10" stroke-width=".5"/>
        <path d="m167.877,82.948c.471.387.818.635.852,1.179.01.155-.009.266-.052.432-.166.645-.664,1.009-.865,1.157-.129.095-.33.224-.603.33l.079,1.621-.36.01-.097-1.534-.623.057.089,1.729-.432.024-.098-1.735s-.954.187-1.921-.194c-.966-.383-2.362-1.911-2.686-1.96-.323-.057-.362.02-.362.02-.002-.035-.005-.145.068-.246.119-.165.329-.153.343-.152.847.112,1.455.004,1.856-.142.759-.268.837-.616,1.663-.809.633-.148,1.164-.077,1.249-.336.018-.056-.035-.243-.143-.615-.097-.334-.109-.346-.111-.419-.008-.282.162-.559.371-.725.41-.326.905-.178.945-.165.082.026.327.104.472.324.149.227.169.428.169.428.006.06.006.136.056.216.045.071.108.111.157.136.324.165,1.155.252,1.168.369.003.026-.033.068-.211.134-.039-.002-.184-.011-.376-.023-.473-.03-.605-.039-.754.043-.062.034-.473.328.158.847Z" fill="#221f1f" stroke-width="0"/>
      </g>
      <g>
        <line x1="172.158" y1="83.528" x2="177.39" y2="83.361" fill="none" stroke="#221f1f" stroke-miterlimit="10" stroke-width=".5"/>
        <path d="m186.012,82.441c.452.409.788.673.797,1.217.002.155-.021.265-.072.429-.195.636-.709.977-.917,1.115-.134.089-.34.208-.617.301l.005,1.623-.36-.007-.027-1.537-.625.027.01,1.731-.432.003-.019-1.738s-.961.142-1.91-.283c-.948-.434-2.273-2.011-2.594-2.075-.32-.072-.363.004-.363.004,0-.035.001-.145.079-.243.127-.16.335-.138.349-.137.841.151,1.454.058,1.861-.063.771-.232.864-.577,1.698-.731.639-.118,1.166-.023,1.263-.278.021-.055-.024-.244-.115-.621-.082-.338-.093-.351-.092-.423.005-.283.188-.55.404-.706.424-.306.912-.136.952-.121.081.03.322.119.457.346.139.234.15.436.15.436.003.061,0,.137.046.218.042.073.103.116.151.143.316.18,1.142.306,1.15.423.002.026-.036.066-.217.124-.039-.004-.183-.02-.375-.041-.471-.052-.603-.068-.756.008-.063.031-.488.306.119.854Z" fill="#221f1f" stroke-width="0"/>
      </g>
      <g>
        <line x1="190.261" y1="83.205" x2="195.496" y2="83.294" fill="none" stroke="#221f1f" stroke-miterlimit="10" stroke-width=".5"/>
        <path d="m204.152,82.779c.433.432.755.712.738,1.257-.005.155-.034.264-.092.425-.225.625-.755.94-.969,1.067-.138.082-.349.19-.631.269l-.072,1.621-.358-.025.045-1.536-.625-.005-.072,1.729-.432-.019.063-1.737s-.966.093-1.894-.381c-.926-.471-2.177-2.08-2.494-2.173-.316-.088-.363-.014-.363-.014,0-.035.008-.145.09-.238.134-.153.341-.122.355-.12.833.198,1.45.117,1.863.005.781-.202.89-.535,1.731-.648.645-.085,1.166.037,1.275-.213.023-.054-.012-.245-.085-.627-.065-.342-.076-.355-.072-.428.018-.282.213-.54.437-.685.438-.284.918-.089.957-.072.079.034.316.135.44.369.127.241.129.443.129.443,0,.061-.007.136.036.22.038.076.098.121.144.151.307.196,1.126.364,1.129.482,0,.026-.039.064-.223.113-.038-.006-.182-.029-.372-.06-.469-.076-.599-.098-.755-.031-.065.028-.502.28.079.859Z" fill="#221f1f" stroke-width="0"/>
      </g>
      <g>
        <path d="m208.361,83.747c1.744.067,3.483.23,5.224.341" fill="none" stroke="#221f1f" stroke-miterlimit="10" stroke-width=".5"/>
        <path d="m222.257,83.992c.41.455.719.754.674,1.297-.012.154-.047.261-.113.42-.255.612-.8.897-1.02,1.012-.141.074-.358.171-.643.234l-.152,1.616-.356-.045.122-1.532-.624-.039-.158,1.724-.429-.043.149-1.732s-.97.048-1.875-.444c-.903-.498-2.072-2.188-2.385-2.292-.312-.104-.361-.033-.361-.033.002-.035.015-.144.102-.233.141-.146.347-.104.361-.1.822.242,1.442.194,1.86.104.791-.17.917-.506,1.764-.594.649-.071,1.163.096,1.284-.153.026-.052,0-.246-.054-.631-.049-.345-.059-.359-.051-.431.032-.281.24-.528.47-.66.452-.259.921-.038.959-.019.077.038.309.152.421.393.115.248.107.449.107.449-.003.061-.013.136.025.222.034.078.091.127.136.158.297.213,1.106.426,1.103.544,0,.026-.042.062-.229.1-.038-.008-.18-.039-.368-.08-.464-.102-.594-.132-.753-.073-.066.024-.515.252.036.862Z" fill="#221f1f" stroke-width="0"/>
      </g>
      <g>
        <path d="m226.41,85.193c1.737.172,3.475.33,5.204.575" fill="none" stroke="#221f1f" stroke-miterlimit="10" stroke-width=".5"/>
        <path d="m240.283,86.102c.385.48.677.796.605,1.336-.021.153-.061.258-.135.413-.287.597-.844.847-1.07.951-.145.069-.367.159-.656.214l-.236,1.606-.355-.055.201-1.524-.623-.058-.247,1.713-.428-.055.239-1.722s-.972.01-1.849-.54c-.875-.549-1.954-2.306-2.261-2.429-.305-.122-.359-.054-.359-.054.005-.035.023-.143.114-.227.148-.137.352-.083.365-.079.808.289,1.429.278,1.851.212.798-.124.941-.453,1.791-.492.651-.03,1.159.136,1.293-.103.029-.051.012-.245-.022-.63-.031-.346-.04-.36-.028-.431.047-.279.268-.519.505-.644.466-.245.925-.01.962.01.075.04.302.161.402.404.103.25.083.453.083.453-.006.06-.021.135.013.224.03.079.085.132.127.167.285.23,1.082.493,1.072.61-.002.026-.045.059-.233.086-.037-.011-.178-.05-.364-.103-.458-.13-.585-.167-.747-.118-.067.021-.528.23-.009.864Z" fill="#221f1f" stroke-width="0"/>
      </g>
      <g>
        <line x1="244.363" y1="87.553" x2="249.532" y2="88.384" fill="none" stroke="#221f1f" stroke-miterlimit="10" stroke-width=".5"/>
        <path d="m258.163,89.227c.361.49.637.815.535,1.35-.029.152-.075.255-.157.406-.32.584-.893.817-1.124.911-.149.06-.375.136-.666.173l-.323,1.591-.351-.078.283-1.51-.618-.097-.339,1.697-.423-.082.331-1.706s-.97-.051-1.814-.656c-.842-.604-1.824-2.428-2.123-2.57-.298-.141-.355-.076-.355-.076.006-.035.03-.141.125-.22.155-.128.355-.061.368-.057.79.34,1.41.367,1.833.328.802-.074.963-.394,1.812-.379.651.011,1.148.209,1.295-.022.031-.05.026-.244.012-.631-.012-.347-.021-.362-.005-.433.062-.276.295-.502.539-.612.478-.216.923.048.959.07.073.045.292.18.378.429.089.257.059.456.059.456-.009.06-.028.134,0,.223.026.08.078.134.119.17.274.239,1.059.526,1.043.643-.004.026-.049.057-.239.078-.037-.012-.176-.056-.359-.114-.452-.144-.578-.186-.743-.142-.069.018-.54.203-.056.86Z" fill="#221f1f" stroke-width="0"/>
      </g>
      <g>
        <line x1="262.169" y1="90.844" x2="267.274" y2="92.011" fill="none" stroke="#221f1f" stroke-miterlimit="10" stroke-width=".5"/>
        <path d="m275.85,93.313c.332.515.587.858.456,1.387-.037.15-.089.25-.18.396-.352.563-.935.757-1.171.836-.152.05-.381.111-.673.128l-.412,1.57-.344-.101.368-1.492-.609-.138-.434,1.676-.417-.111.426-1.685s-.962-.118-1.768-.776c-.812-.629-1.697-2.477-1.99-2.628-.292-.151-.352-.088-.352-.088.008-.034.038-.14.138-.215.163-.122.36-.049.373-.044.774.365,1.395.414,1.822.389.811-.051.986-.35,1.831-.28.648.055,1.132.286,1.29.065.034-.047.04-.243.048-.631.008-.348,0-.364.02-.433.077-.272.322-.483.571-.576.489-.184.917.11.951.135.07.05.281.2.353.455.074.263.032.46.032.46-.012.059-.035.132-.012.223.021.082.07.14.109.178.259.257,1.024.597,1.002.713-.005.026-.052.054-.242.062-.036-.014-.172-.068-.351-.138-.442-.175-.565-.225-.732-.192-.069.013-.55.167-.104.857Z" fill="#221f1f" stroke-width="0"/>
      </g>
      <g>
        <polyline points="279.756 95.162 282.287 95.833 284.792 96.594" fill="none" stroke="#221f1f" stroke-miterlimit="10" stroke-width=".5"/>
        <path d="m293.291,98.356c.299.539.533.902.371,1.422-.046.148-.103.244-.202.384-.384.542-.972.685-1.215.76-.155.044-.389.096-.683.102l-.502,1.543-.34-.113.454-1.468-.604-.16-.53,1.648-.413-.125.523-1.658s-.96-.151-1.732-.838c-.771-.686-1.543-2.597-1.826-2.769-.281-.171-.345-.113-.345-.113.01-.034.046-.137.15-.205.169-.111.361-.024.374-.018.749.419,1.363.511,1.79.516.808.01,1.004-.29,1.849-.188.648.079,1.121.326,1.293.113.037-.046.053-.239.084-.625.028-.346.021-.361.044-.43.093-.267.351-.467.606-.551.501-.164.916.144.948.17.068.052.271.209.329.465.06.264.007.458.007.458-.016.058-.043.13-.024.221.017.081.062.143.098.184.242.276.983.672.954.786-.007.026-.055.051-.244.045-.035-.017-.167-.08-.341-.164-.43-.205-.547-.269-.717-.241-.07.011-.562.144-.153.847Z" fill="#221f1f" stroke-width="0"/>
      </g>
      <g>
        <line x1="297.064" y1="100.486" x2="302.015" y2="102.193" fill="none" stroke="#221f1f" stroke-miterlimit="10" stroke-width=".5"/>
        <path d="m310.372,104.514c.27.547.485.916.292,1.425-.055.145-.118.238-.225.372-.416.519-1.02.647-1.264.698-.157.033-.392.068-.684.052l-.594,1.511-.331-.138.541-1.439-.59-.205-.628,1.613-.402-.156.621-1.624s-.944-.222-1.669-.967c-.723-.744-1.373-2.717-1.644-2.909-.273-.181-.341-.125-.341-.125.012-.033.054-.134.162-.198.176-.104.364-.01.375,0,.719.475,1.323.612,1.747.648.802.069,1.015-.217,1.848-.053.639.126,1.094.409,1.277.208.04-.043.068-.236.122-.62.048-.344.042-.361.07-.428.108-.261.377-.443.636-.508.508-.128.901.211.932.239.064.057.256.229.298.49.043.269-.021.46-.021.46-.019.057-.051.127-.038.22.011.084.053.146.087.189.228.284.95.706.914.818-.008.025-.058.048-.248.035-.034-.018-.163-.086-.333-.176-.42-.222-.536-.286-.706-.272-.071.006-.567.104-.205.838Z" fill="#221f1f" stroke-width="0"/>
      </g>
      <g>
        <path d="m314.045,106.781c1.618.655,3.208,1.377,4.813,2.063" fill="none" stroke="#221f1f" stroke-miterlimit="10" stroke-width=".5"/>
        <path d="m327.081,111.619c.233.569.422.956.198,1.452-.063.141-.132.23-.247.357-.446.49-1.052.573-1.297.606-.157.021-.393.039-.682.001l-.685,1.472-.319-.164.627-1.403c-.191-.083-.38-.169-.576-.242l-.725,1.572-.395-.171.719-1.583s-.937-.26-1.624-1.029c-.685-.768-1.226-2.751-1.487-2.953-.26-.202-.33-.151-.33-.151.014-.032.062-.131.174-.186.181-.091.362.018.374.025.696.501,1.296.662,1.72.716.803.102,1.034-.173,1.863.026.635.152,1.077.452,1.274.26.042-.041.082-.231.158-.61.069-.339.063-.356.095-.421.124-.254.405-.422.669-.476.513-.092.88.279.909.309.06.062.24.249.264.514.025.273-.051.46-.051.46-.023.056-.058.124-.051.218.006.085.043.151.074.196.208.302.897.78.854.89-.01.025-.06.044-.248.016-.033-.021-.156-.099-.32-.202-.402-.254-.514-.327-.683-.326-.07,0-.569.062-.256.825Z" fill="#221f1f" stroke-width="0"/>
      </g>
      <g>
        <line x1="330.579" y1="114.169" x2="335.3" y2="116.435" fill="none" stroke="#221f1f" stroke-miterlimit="10" stroke-width=".5"/>
        <path d="m343.316,119.745c.204.573.375.963.123,1.446-.072.137-.145.223-.268.344-.475.467-1.091.525-1.34.548-.16.015-.399.023-.688-.026l-.769,1.43-.313-.175.708-1.364-.563-.27-.815,1.527-.382-.2.81-1.538s-.914-.328-1.548-1.149c-.632-.82-1.046-2.849-1.292-3.071-.245-.221-.318-.175-.318-.175.016-.031.07-.127.184-.175.186-.078.358.043.369.052.659.553,1.244.757,1.662.842.79.16,1.036-.1,1.846.158.62.198,1.04.53,1.247.352.044-.038.095-.226.194-.601.089-.336.085-.353.12-.416.139-.246.427-.396.693-.431.521-.069.871.312.899.343.057.064.228.256.239.52.011.271-.075.454-.075.454-.026.055-.065.12-.063.214.002.084.036.151.065.197.193.307.862.808.813.915-.011.024-.063.041-.251.006-.032-.022-.152-.104-.311-.213-.392-.268-.5-.344-.671-.35-.071-.002-.576.038-.302.807Z" fill="#221f1f" stroke-width="0"/>
      </g>
      <g>
        <line x1="346.681" y1="122.455" x2="351.235" y2="125.038" fill="none" stroke="#221f1f" stroke-miterlimit="10" stroke-width=".5"/>
        <path d="m359.075,128.745c.171.587.319.989.042,1.458-.079.133-.156.215-.285.328-.498.44-1.113.46-1.362.468-.16.005-.397-.002-.682-.068l-.843,1.387-.302-.195.779-1.325-.546-.306-.895,1.481-.369-.224.891-1.493s-.891-.385-1.476-1.247c-.586-.856-.911-2.866-1.146-3.099-.236-.228-.312-.185-.312-.185.018-.031.077-.123.194-.166.191-.07.358.057.37.065.637.572,1.217.797,1.634.896.784.195,1.038-.04,1.829.264.606.236,1.004.594,1.219.428.046-.036.107-.221.227-.591.107-.331.104-.348.143-.409.152-.239.447-.371.712-.39.521-.038.847.365.873.398.053.068.212.271.208.536-.004.273-.1.45-.1.45-.029.053-.072.116-.075.21-.003.084.027.153.053.201.175.32.812.862.757.967-.012.023-.065.037-.25-.009-.031-.024-.146-.114-.297-.232-.374-.292-.478-.375-.647-.391-.07-.007-.575.004-.344.791Z" fill="#221f1f" stroke-width="0"/>
      </g>
      <g>
        <path d="m362.296,131.623c1.503.888,2.951,1.863,4.42,2.805" fill="none" stroke="#221f1f" stroke-miterlimit="10" stroke-width=".5"/>
        <path d="m374.368,138.51c.141.597.268,1.006-.031,1.461-.085.129-.167.207-.301.314-.518.414-1.132.402-1.381.397-.159-.003-.396-.023-.676-.104l-.91,1.344-.291-.211.843-1.285-.529-.335-.967,1.436-.36-.239.963-1.447s-.882-.411-1.435-1.284c-.552-.872-.761-2.919-.985-3.162-.223-.242-.301-.203-.301-.203.019-.03.083-.119.201-.155.194-.06.354.077.364.086.603.609,1.169.866,1.578.989.774.232,1.046-.001,1.83.33.6.255.989.62,1.208.469.048-.033.118-.216.256-.579.124-.326.121-.343.163-.402.164-.231.464-.348.729-.353.521-.01.825.409.849.444.049.07.197.282.18.547-.018.273-.123.445-.123.445-.031.052-.077.113-.085.207-.007.084.019.155.043.204.158.329.765.905.705,1.007-.013.023-.067.034-.248-.022-.029-.025-.139-.121-.284-.248-.358-.312-.457-.401-.625-.425-.07-.01-.573-.026-.383.774Z" fill="#221f1f" stroke-width="0"/>
      </g>
      <g>
        <path d="m377.432,141.559c1.438.989,2.889,1.958,4.295,2.994" fill="none" stroke="#221f1f" stroke-miterlimit="10" stroke-width=".5"/>
        <path d="m389.178,148.988c.114.603.221,1.018-.098,1.459-.091.125-.176.199-.315.3-.536.39-1.149.349-1.397.333-.159-.01-.395-.041-.671-.135l-.971,1.301-.281-.224.901-1.245-.521-.348-1.032,1.39-.351-.253,1.029-1.401s-.861-.455-1.37-1.355c-.509-.9-.621-2.958-.832-3.211-.21-.253-.29-.218-.29-.218.021-.029.088-.115.208-.146.196-.05.349.094.359.104.573.639,1.124.924,1.526,1.067.761.27,1.043.05,1.809.419.587.283.954.671,1.185.524.05-.031.127-.21.281-.565.137-.318.136-.336.18-.393.174-.223.482-.329.75-.326.529.003.811.439.834.474.046.073.184.291.155.555-.031.272-.143.439-.143.439-.034.05-.082.109-.095.203-.011.084.012.156.033.206.143.336.722.94.658,1.039-.014.022-.068.031-.247-.033-.028-.027-.134-.128-.273-.26-.343-.328-.438-.421-.604-.454-.069-.014-.571-.053-.418.755Z" fill="#221f1f" stroke-width="0"/>
      </g>
      <g>
        <path d="m392.098,152.176c1.393,1.051,2.792,2.095,4.153,3.187" fill="none" stroke="#221f1f" stroke-miterlimit="10" stroke-width=".5"/>
        <path d="m403.493,160.132c.088.605.178,1.024-.161,1.45-.096.121-.185.191-.328.286-.554.366-1.166.3-1.413.274-.159-.017-.393-.057-.666-.163l-1.028,1.256-.272-.235.956-1.204-.498-.379-1.093,1.342-.334-.274,1.09-1.354s-.839-.494-1.308-1.416c-.469-.921-.49-2.979-.69-3.242-.199-.261-.28-.23-.28-.23.022-.028.093-.111.215-.136.198-.042.345.109.354.119.544.662,1.083.971,1.479,1.131.749.303,1.041.095,1.79.497.577.305.918.72,1.155.584.051-.029.137-.204.307-.553.152-.313.152-.33.199-.386.183-.215.494-.305.759-.287.521.035.787.479.808.516.043.074.172.298.131.559-.042.27-.162.432-.162.432-.036.049-.087.105-.104.198-.015.083.006.156.025.207.129.341.683.967.615,1.063-.015.021-.07.028-.246-.043-.027-.028-.128-.133-.262-.271-.329-.342-.42-.438-.585-.477-.069-.016-.569-.076-.451.735Z" fill="#221f1f" stroke-width="0"/>
      </g>
      <g>
        <line x1="406.28" y1="163.432" x2="410.277" y2="166.813" fill="none" stroke="#221f1f" stroke-miterlimit="10" stroke-width=".5"/>
        <path d="m417.3,171.902c.059.61.128,1.033-.23,1.443-.102.116-.194.182-.341.27-.57.339-1.177.244-1.422.206-.157-.025-.389-.076-.66-.191l-1.085,1.207-.264-.244,1.011-1.158-.484-.396-1.154,1.29-.324-.285,1.152-1.302s-.812-.535-1.234-1.482c-.423-.944-.337-3.016-.531-3.281-.189-.268-.271-.241-.271-.241.023-.027.098-.106.221-.127.201-.033.341.122.351.133.515.685,1.032,1.027,1.419,1.206.73.342,1.031.148,1.757.589.556.338.885.76,1.128.635.052-.027.146-.197.331-.537.166-.305.166-.322.216-.375.193-.206.509-.283.775-.255.522.056.772.508.792.545.041.075.16.303.106.563-.055.268-.182.424-.182.424-.038.047-.092.101-.113.193-.019.083-.002.156.015.208.112.347.635,1.001.562,1.094-.016.021-.071.025-.243-.055-.026-.029-.122-.139-.248-.284-.312-.358-.399-.459-.562-.506-.067-.02-.564-.104-.485.714Z" fill="#221f1f" stroke-width="0"/>
      </g>
      <g>
        <line x1="419.922" y1="175.339" x2="423.748" y2="178.914" fill="none" stroke="#221f1f" stroke-miterlimit="10" stroke-width=".5"/>
        <path d="m430.471,184.39c.027.611.075,1.037-.305,1.427-.108.111-.203.172-.355.252-.587.31-1.189.182-1.434.131-.157-.033-.388-.095-.65-.227l-1.149,1.146-.25-.261,1.073-1.101-.461-.426-1.224,1.224-.309-.306,1.224-1.235s-.781-.587-1.148-1.555c-.365-.964-.172-3.019-.35-3.296-.173-.279-.257-.256-.257-.256.025-.025.104-.101.228-.114.202-.022.333.142.342.153.481.709.978,1.08,1.356,1.28.713.381,1.026.206,1.722.688.534.37.836.809,1.085.699.053-.024.157-.189.361-.518.183-.295.184-.312.237-.362.205-.195.523-.255.786-.212.515.084.736.548.753.587.035.078.141.311.075.566-.069.263-.204.413-.204.413-.041.045-.097.096-.123.187-.023.081-.01.156.004.208.094.352.582,1.03.504,1.118-.017.02-.072.021-.24-.068-.024-.03-.114-.145-.233-.296-.293-.373-.374-.478-.534-.533-.067-.022-.56-.131-.522.687Z" fill="#221f1f" stroke-width="0"/>
      </g>
      <g>
        <line x1="432.912" y1="187.953" x2="436.565" y2="191.704" fill="none" stroke="#221f1f" stroke-miterlimit="10" stroke-width=".5"/>
        <path d="m443.051,197.462c.002.609.033,1.035-.365,1.407-.113.106-.211.162-.366.235-.602.283-1.201.132-1.443.072-.156-.039-.383-.111-.639-.254l-1.198,1.095-.237-.27,1.119-1.053-.441-.443-1.275,1.171-.293-.317,1.274-1.183s-.752-.615-1.076-1.602c-.33-.979-.061-3.017-.222-3.306-.16-.287-.245-.268-.245-.268.026-.024.108-.096.232-.104.202-.013.326.157.334.168.445.733.935,1.115,1.304,1.329.701.404,1.011.248,1.69.759.519.393.803.847,1.057.747.054-.021.165-.182.383-.503.195-.288.197-.305.251-.353.212-.186.534-.231.795-.176.513.108.716.584.731.623.032.079.129.318.052.57-.08.26-.222.403-.222.403-.043.043-.101.092-.131.181-.026.08-.017.154-.005.208.08.354.544,1.05.459,1.137-.018.019-.073.017-.236-.08-.023-.031-.109-.149-.222-.304-.28-.383-.356-.492-.515-.554-.066-.026-.555-.155-.552.662Z" fill="#221f1f" stroke-width="0"/>
      </g>
      <g>
        <path d="m445.317,201.144c1.173,1.293,2.322,2.607,3.456,3.934" fill="none" stroke="#221f1f" stroke-miterlimit="10" stroke-width=".5"/>
        <path d="m454.94,211.179c-.031.608-.024,1.034-.442,1.384-.119.099-.219.15-.379.215-.617.249-1.208.066-1.446-.008-.153-.047-.376-.132-.624-.288l-1.258,1.026-.222-.282,1.176-.989-.416-.466-1.338,1.098-.275-.332,1.337-1.111s-.717-.654-.987-1.657c-.261-1.007.111-3.021-.036-3.317-.146-.294-.231-.279-.231-.279.027-.023.113-.09.238-.092.203-.003.318.173.326.185.408.754.882,1.157,1.231,1.399.667.451.994.306,1.642.855.497.421.756.89,1.015.804.056-.018.175-.173.41-.481.211-.276.214-.293.271-.338.223-.174.546-.202.804-.132.507.136.684.623.697.663.028.081.112.325.021.572-.094.255-.244.39-.244.39-.045.041-.106.086-.141.173-.031.078-.025.153-.016.207.06.359.487,1.077.396,1.16-.02.018-.072.012-.232-.093-.021-.032-.101-.155-.205-.316-.259-.398-.329-.51-.485-.581-.064-.03-.546-.186-.588.63Z" fill="#221f1f" stroke-width="0"/>
      </g>
      <g>
        <path d="m456.993,214.987c1.082,1.37,2.187,2.722,3.228,4.123" fill="none" stroke="#221f1f" stroke-miterlimit="10" stroke-width=".5"/>
        <path d="m466.012,225.568c-.07.607-.09,1.035-.527,1.359-.124.092-.228.137-.391.192-.63.212-1.205-.008-1.437-.097-.149-.057-.366-.156-.602-.327l-1.315.951-.203-.296,1.232-.919-.384-.493-1.4,1.018-.252-.349,1.4-1.031s-.663-.705-.892-1.708c-.221-1.006.278-3.003.149-3.307-.127-.303-.213-.293-.213-.293.028-.021.118-.084.242-.078.202.01.306.192.313.205.361.778.805,1.213,1.148,1.468.648.483.988.353,1.606.937.467.453.695.938.958.868.056-.015.184-.162.438-.457.227-.264.231-.281.291-.322.232-.161.556-.168.808-.083.495.168.641.667.652.707.022.083.09.332-.016.575-.11.25-.267.376-.267.376-.047.038-.111.079-.151.165-.036.077-.035.152-.029.206.037.363.414,1.11.323,1.185-.02.017-.074.009-.227-.105-.019-.034-.09-.161-.184-.329-.231-.415-.295-.532-.445-.612-.062-.034-.531-.22-.625.595Z" fill="#221f1f" stroke-width="0"/>
      </g>
      <g>
        <line x1="467.861" y1="229.473" x2="470.823" y2="233.791" fill="none" stroke="#221f1f" stroke-miterlimit="10" stroke-width=".5"/>
        <path d="m476.231,240.576c-.102.6-.145,1.023-.601,1.321-.13.085-.236.123-.402.168-.643.175-1.208-.076-1.436-.178-.147-.065-.358-.175-.587-.359l-1.37.871-.187-.306,1.284-.844-.359-.511-1.458.933-.235-.361,1.459-.946s-.636-.733-.787-1.76c-.152-1.023.489-3.003.369-3.308-.112-.308-.199-.303-.199-.303.03-.02.123-.077.247-.064.203.021.298.208.304.221.315.798.718,1.268,1.042,1.544.61.526.952.42,1.531,1.041.444.476.647.972.915.917.058-.012.194-.151.463-.429.242-.25.247-.266.308-.304.241-.147.566-.136.815-.036.488.195.607.699.616.74.018.084.073.335-.046.57-.123.242-.288.359-.288.359-.05.035-.116.073-.16.155-.04.074-.043.149-.04.203.018.363.356,1.127.261,1.197-.021.016-.075.005-.222-.117-.017-.035-.082-.165-.167-.338-.21-.426-.268-.545-.414-.634-.061-.037-.521-.249-.658.556Z" fill="#221f1f" stroke-width="0"/>
      </g>
      <g>
        <line x1="477.82" y1="244.599" x2="480.554" y2="249.065" fill="none" stroke="#221f1f" stroke-miterlimit="10" stroke-width=".5"/>
        <path d="m485.547,256.161c-.142.595-.22,1.021-.692,1.291-.134.077-.242.109-.41.143-.648.134-1.185-.157-1.412-.269-.143-.073-.349-.195-.567-.392l-1.419.788-.17-.315,1.332-.766-.331-.53-1.511.845-.215-.374,1.512-.857s-.596-.767-.69-1.798c-.093-1.03.648-2.958.559-3.277-.088-.318-.175-.318-.175-.318.031-.018.127-.069.249-.048.199.034.279.229.284.242.26.819.645,1.306.952,1.602.582.559.929.473,1.475,1.126.418.5.594,1.005.865.967.058-.008.202-.139.488-.401.256-.235.261-.251.325-.285.25-.132.574-.102.817.011.477.223.568.731.575.773.014.084.055.338-.078.565-.137.234-.308.341-.308.341-.052.032-.12.066-.169.145-.044.072-.051.146-.051.2-.009.366.266,1.159.167,1.222-.022.014-.074,0-.21-.133-.014-.036-.068-.172-.14-.351-.174-.443-.223-.567-.366-.662-.059-.04-.508-.278-.689.516Z" fill="#221f1f" stroke-width="0"/>
      </g>
      <g>
        <path d="m486.875,260.282c.82,1.541,1.669,3.066,2.465,4.62" fill="none" stroke="#221f1f" stroke-miterlimit="10" stroke-width=".5"/>
        <path d="m493.907,272.279c-.166.58-.274,1.003-.76,1.244-.139.069-.248.094-.417.119-.65.093-1.184-.222-1.401-.348-.139-.082-.337-.216-.543-.424l-1.463.703-.152-.325,1.375-.686-.3-.549-1.558.754-.193-.385,1.56-.766s-.55-.8-.583-1.835c-.032-1.033.82-2.914.75-3.238-.069-.322-.156-.328-.156-.328.031-.016.131-.061.251-.033.197.046.265.245.27.258.211.833.567,1.341.857,1.654.548.592.9.527,1.407,1.211.388.524.534,1.038.807,1.016.059-.005.21-.127.51-.371.269-.219.276-.235.342-.265.257-.117.58-.068.816.059.464.25.525.763.529.805.009.085.035.341-.111.56-.15.225-.327.322-.327.322-.053.029-.124.058-.177.135-.048.069-.059.143-.063.197-.015.358.2,1.171.101,1.227-.023.013-.074-.004-.202-.145-.012-.037-.058-.176-.118-.359-.147-.453-.201-.573-.333-.679-.056-.044-.491-.307-.719.474Z" fill="#221f1f" stroke-width="0"/>
      </g>
      <g>
        <line x1="494.99" y1="276.47" x2="497.186" y2="281.224" fill="none" stroke="#221f1f" stroke-miterlimit="10" stroke-width=".5"/>
        <path d="m501.3,288.863c-.206.572-.319.98-.824,1.194-.143.06-.253.079-.424.094-.665.059-1.178-.287-1.386-.427-.134-.09-.323-.235-.517-.456l-1.502.615-.132-.333,1.413-.603-.265-.566-1.6.661-.169-.396,1.603-.673s-.5-.832-.471-1.868c.03-1.034.995-2.862.945-3.19-.05-.326-.135-.337-.135-.337.032-.014.135-.054.253-.018.193.057.25.26.253.274.16.844.485,1.374.755,1.703.511.624.866.58,1.33,1.293.355.546.47,1.069.743,1.062.059-.001.217-.114.531-.34.282-.203.289-.218.357-.244.264-.102.582-.034.81.107.447.277.477.793.479.835.003.086.014.342-.145.552-.163.216-.346.302-.346.302-.055.026-.127.051-.185.125-.052.066-.068.139-.075.193-.039.357.147,1.174.036,1.228-.023.011-.074-.009-.193-.157-.01-.037-.048-.179-.099-.365-.134-.455-.169-.583-.298-.695-.053-.047-.471-.336-.745.431Z" fill="#221f1f" stroke-width="0"/>
      </g>
      <g>
        <line x1="502.142" y1="293.107" x2="504.052" y2="297.983" fill="none" stroke="#221f1f" stroke-miterlimit="10" stroke-width=".5"/>
        <path d="m507.715,305.848c-.245.561-.396.966-.908,1.149-.146.052-.258.064-.429.069-.662.018-1.139-.363-1.343-.513-.128-.098-.309-.254-.49-.485l-1.535.526-.113-.34,1.446-.519-.232-.58-1.636.566-.146-.406,1.639-.578s-.452-.86-.363-1.891c.09-1.03,1.159-2.798,1.127-3.127-.031-.328-.116-.344-.116-.344.033-.012.137-.046.254-.004.19.069.234.274.237.288.111.852.405,1.399.655,1.744.474.653.832.63,1.254,1.368.323.566.408,1.094.681,1.104.059.002.224-.101.551-.309.293-.186.302-.201.37-.223.269-.086.583,0,.803.155.43.303.431.82.43.862-.001.086-.006.342-.177.543-.176.206-.363.281-.363.281-.056.022-.129.044-.191.113-.056.063-.076.135-.086.188-.074.359.059,1.187-.05,1.232-.024.01-.073-.013-.184-.168-.008-.038-.037-.181-.076-.37-.094-.466-.119-.597-.243-.716-.051-.05-.451-.363-.769.386Z" fill="#221f1f" stroke-width="0"/>
      </g>
      <g>
        <path d="m508.301,310.137c.533,1.662,1.116,3.308,1.609,4.983" fill="none" stroke="#221f1f" stroke-miterlimit="10" stroke-width=".5"/>
        <path d="m513.103,323.186c-.279.546-.448.941-.971,1.093-.148.043-.261.049-.432.044-.663-.02-1.123-.427-1.309-.591-.12-.106-.287-.273-.448-.517l-1.563.435-.085-.349,1.474-.434-.192-.594-1.666.469-.124-.413,1.67-.481s-.405-.884-.26-1.907c.146-1.022,1.311-2.722,1.297-3.053-.013-.329-.097-.35-.097-.35.034-.01.14-.037.254.011.186.079.219.287.221.301.065.856.328,1.418.56,1.777.439.678.797.676,1.179,1.437.293.583.348,1.115.621,1.14.059.005.229-.088.567-.276.303-.168.312-.183.383-.201.274-.07.583.034.794.201.408.329.365.848.362.89-.008.086-.032.343-.217.534-.19.197-.382.26-.382.26-.058.019-.132.036-.199.102-.06.06-.086.131-.1.184-.093.354-.004,1.187-.115,1.226-.025.009-.073-.017-.175-.178-.006-.038-.028-.183-.056-.373-.07-.47-.088-.602-.2-.73-.046-.053-.419-.391-.793.341Z" fill="#221f1f" stroke-width="0"/>
      </g>
      <g>
        <path d="m513.461,327.495c.475,1.68.882,3.377,1.297,5.073" fill="none" stroke="#221f1f" stroke-miterlimit="10" stroke-width=".5"/>
        <path d="m517.484,340.804c-.306.528-.494.911-1.025,1.034-.151.035-.264.034-.435.019-.663-.058-1.103-.49-1.281-.664-.114-.112-.274-.289-.423-.541l-1.586.344-.068-.352,1.497-.348-.156-.605-1.69.372-.093-.421,1.695-.383s-.338-.909-.119-1.926c.2-1.01,1.45-2.638,1.454-2.968.004-.328-.079-.354-.079-.354.034-.008.142-.029.253.026.182.09.205.299.206.313.022.857.257,1.432.47,1.803.408.701.753.722,1.081,1.505.249.601.265,1.137.534,1.178.058.009.234-.075.584-.243.314-.151.324-.165.395-.179.277-.054.577.068.775.248.388.352.323.866.317.908-.012.085-.049.34-.243.52-.2.185-.395.237-.395.237-.059.016-.134.028-.204.091-.063.056-.092.125-.109.177-.11.347-.062,1.182-.175,1.214-.025.007-.072-.021-.167-.187-.004-.039-.019-.184-.038-.375-.047-.473-.059-.605-.165-.738-.044-.056-.4-.414-.81.295Z" fill="#221f1f" stroke-width="0"/>
      </g>
      <g>
        <line x1="517.605" y1="345.124" x2="518.616" y2="350.262" fill="none" stroke="#221f1f" stroke-miterlimit="10" stroke-width=".5"/>
        <path d="m520.858,358.642c-.339.51-.552.883-1.089.974-.153.026-.265.019-.435-.006-.656-.096-1.067-.553-1.233-.737-.107-.119-.254-.304-.386-.565l-1.603.253-.045-.356,1.515-.262-.127-.612-1.709.275-.074-.425,1.715-.285s-.298-.925-.033-1.926c.265-.999,1.622-2.554,1.648-2.884.026-.328-.055-.359-.055-.359.035-.006.143-.021.251.04.175.1.184.311.184.325-.036.858.159,1.447.346,1.831.355.725.711.764,1.001,1.564.222.613.214,1.148.482,1.204.057.012.238-.061.595-.209.321-.132.332-.146.403-.156.28-.039.575.101.764.291.377.372.269.884.263.925-.018.084-.071.337-.276.505-.211.173-.409.215-.409.215-.059.012-.135.021-.209.079-.067.052-.1.12-.12.171-.132.34-.138,1.178-.253,1.204-.026.006-.07-.026-.154-.197-.001-.039-.007-.185-.014-.377-.017-.475-.02-.608-.116-.748-.04-.058-.372-.437-.827.248Z" fill="#221f1f" stroke-width="0"/>
      </g>
      <g>
        <path d="m520.725,362.963c.262,1.726.469,3.459.706,5.188" fill="none" stroke="#221f1f" stroke-miterlimit="10" stroke-width=".5"/>
        <path d="m523.2,376.644c-.367.49-.6.85-1.142.91-.154.017-.266.004-.434-.031-.65-.134-1.035-.613-1.19-.807-.1-.124-.237-.318-.354-.586l-1.615.161-.026-.358,1.527-.175-.093-.618-1.722.177-.049-.428,1.728-.187s-.242-.941.081-1.925c.324-.982,1.77-2.458,1.815-2.786.046-.326-.037-.361-.037-.361.035-.004.144-.013.249.055.173.11.166.321.167.335-.087.855.073,1.454.238,1.848.312.744.665.803.906,1.619.185.625.146,1.158.41,1.23.057.015.241-.048.606-.174.328-.114.34-.127.412-.132.282-.022.568.134.746.334.353.393.224.897.213.938-.022.083-.09.333-.304.489-.22.161-.42.191-.42.191-.06.009-.136.013-.213.067-.069.048-.106.114-.129.164-.151.332-.204,1.168-.32,1.187-.026.004-.069-.03-.143-.205,0-.039.004-.185.008-.377.01-.475.014-.608-.074-.753-.037-.06-.347-.457-.839.2Z" fill="#221f1f" stroke-width="0"/>
      </g>
    </g>
  </g>
  <g>
    <rect x="-2340.473" y="-826.288" width="3386.58" height="2514.089" transform="translate(-1077.939 -216.426) rotate(-90)" fill="none" stroke="#231f20" stroke-linecap="round" stroke-miterlimit="10" stroke-width="7"/>
    <rect x="-2323.506" y="-809.166" width="3353.392" height="2482.402" transform="translate(-1078.845 -214.775) rotate(-90)" fill="none" stroke="#231f20" stroke-linecap="round" stroke-miterlimit="10" stroke-width="3"/>
    <rect x="-2285.031" y="-773.548" width="3275.615" height="2412.095" transform="translate(-1079.722 -214.724) rotate(-90)" fill="none" stroke="#231f20" stroke-linecap="round" stroke-miterlimit="10"/>
    <rect x="-2267.163" y="-756.185" width="3239.88" height="2376.261" transform="translate(-1079.169 -215.277) rotate(-90)" fill="none" stroke="#231f20" stroke-linecap="round" stroke-miterlimit="10"/>
    <line x1="540.907" y1="396.03" x2="558.824" y2="396.03" fill="none" stroke="#231f20" stroke-linecap="round" stroke-miterlimit="10"/>
    <line x1="540.907" y1="323.902" x2="558.824" y2="323.902" fill="none" stroke="#231f20" stroke-linecap="round" stroke-miterlimit="10"/>
    <line x1="540.907" y1="252.064" x2="558.824" y2="252.064" fill="none" stroke="#231f20" stroke-linecap="round" stroke-miterlimit="10"/>
    <line x1="540.907" y1="179.792" x2="558.824" y2="179.792" fill="none" stroke="#231f20" stroke-linecap="round" stroke-miterlimit="10"/>
    <line x1="540.907" y1="107.954" x2="558.824" y2="107.954" fill="none" stroke="#231f20" stroke-linecap="round" stroke-miterlimit="10"/>
    <line x1="540.907" y1="35.899" x2="558.824" y2="35.899" fill="none" stroke="#231f20" stroke-linecap="round" stroke-miterlimit="10"/>
    <rect x="478.136" y="322.308" width="144" height="3.6" transform="translate(226.028 874.244) rotate(-90)" fill="#231f20" stroke-width="0"/>
    <rect x="477.866" y="103.406" width="144" height="8.773" transform="translate(442.073 657.658) rotate(-90)" fill="#231f20" stroke-width="0"/>
  </g>
</svg>