<?xml version="1.0" encoding="UTF-8"?>
<svg id="a" data-name="Layer 1" xmlns="http://www.w3.org/2000/svg" width="9.002in" height="6.002in" viewBox="0 0 648.177 432.177">
  <g>
    <g>
      <path d="m170.556,14.511c-3.577-.243-7.153-.485-10.73-.728" fill="none" stroke="#231f20" stroke-miterlimit="10"/>
      <path d="m165.539,10.287c-1.787-.051-3.573-.101-5.36-.152" fill="none" stroke="#231f20" stroke-miterlimit="10"/>
      <path d="m165.691,6.318c-1.743-.044-3.486-.087-5.229-.131" fill="none" stroke="#231f20" stroke-miterlimit="10"/>
      <line x1="165.771" y1="2.468" x2="160.658" y2="2.429" fill="none" stroke="#231f20" stroke-miterlimit="10"/>
    </g>
    <g>
      <line x1="171.802" y1="75.913" x2="157.479" y2="74.391" fill="none" stroke="#231f20" stroke-miterlimit="10"/>
      <path d="m165.006,95.085c-3.536-.592-7.071-1.184-10.607-1.776" fill="none" stroke="#231f20" stroke-miterlimit="10"/>
      <line x1="161.888" y1="79.046" x2="156.814" y2="78.417" fill="none" stroke="#231f20" stroke-miterlimit="10"/>
      <path d="m160.427,90.389c-1.773-.226-3.546-.451-5.319-.677" fill="none" stroke="#231f20" stroke-miterlimit="10"/>
      <path d="m160.966,86.454c-1.73-.214-3.461-.428-5.191-.643" fill="none" stroke="#231f20" stroke-miterlimit="10"/>
      <line x1="161.424" y1="82.631" x2="156.339" y2="82.091" fill="none" stroke="#231f20" stroke-miterlimit="10"/>
    </g>
    <g>
      <line x1="160.226" y1="156.313" x2="146.121" y2="153.394" fill="none" stroke="#231f20" stroke-miterlimit="10"/>
      <path d="m151.583,174.726c-3.461-.936-6.921-1.871-10.382-2.807" fill="none" stroke="#231f20" stroke-miterlimit="10"/>
      <line x1="150.053" y1="158.459" x2="145.065" y2="157.336" fill="none" stroke="#231f20" stroke-miterlimit="10"/>
      <path d="m147.487,169.604c-1.742-.398-3.485-.796-5.227-1.195" fill="none" stroke="#231f20" stroke-miterlimit="10"/>
      <path d="m148.41,165.741c-1.701-.383-3.402-.766-5.103-1.148" fill="none" stroke="#231f20" stroke-miterlimit="10"/>
      <line x1="149.239" y1="161.981" x2="144.232" y2="160.945" fill="none" stroke="#231f20" stroke-miterlimit="10"/>
    </g>
    <g>
      <line x1="140.826" y1="235.191" x2="127.075" y2="230.904" fill="none" stroke="#231f20" stroke-miterlimit="10"/>
      <path d="m130.42,252.669c-3.352-1.27-6.704-2.541-10.057-3.811" fill="none" stroke="#231f20" stroke-miterlimit="10"/>
      <line x1="130.491" y1="236.33" x2="125.637" y2="234.723" fill="none" stroke="#231f20" stroke-miterlimit="10"/>
      <path d="m126.845,247.17c-1.695-.567-3.39-1.134-5.085-1.701" fill="none" stroke="#231f20" stroke-miterlimit="10"/>
      <path d="m128.142,243.415c-1.655-.548-3.311-1.095-4.966-1.643" fill="none" stroke="#231f20" stroke-miterlimit="10"/>
      <line x1="129.336" y1="239.755" x2="124.455" y2="238.233" fill="none" stroke="#231f20" stroke-miterlimit="10"/>
    </g>
    <g>
      <line x1="113.787" y1="311.788" x2="100.523" y2="306.174" fill="none" stroke="#231f20" stroke-miterlimit="10"/>
      <path d="m101.718,328.162c-3.212-1.593-6.423-3.186-9.635-4.778" fill="none" stroke="#231f20" stroke-miterlimit="10"/>
      <line x1="103.39" y1="311.909" x2="98.717" y2="309.834" fill="none" stroke="#231f20" stroke-miterlimit="10"/>
      <path d="m98.699,322.339c-1.631-.731-3.262-1.461-4.894-2.192" fill="none" stroke="#231f20" stroke-miterlimit="10"/>
      <path d="m100.358,318.73c-1.594-.707-3.187-1.415-4.781-2.122" fill="none" stroke="#231f20" stroke-miterlimit="10"/>
      <line x1="101.905" y1="315.204" x2="97.197" y2="313.211" fill="none" stroke="#231f20" stroke-miterlimit="10"/>
    </g>
    <g>
      <line x1="79.37" y1="385.366" x2="66.72" y2="378.479" fill="none" stroke="#231f20" stroke-miterlimit="10"/>
      <path d="m65.755,400.478c-3.04-1.9-6.08-3.8-9.12-5.7" fill="none" stroke="#231f20" stroke-miterlimit="10"/>
      <line x1="69.012" y1="384.467" x2="64.565" y2="381.944" fill="none" stroke="#231f20" stroke-miterlimit="10"/>
      <path d="m63.321,394.387c-1.552-.887-3.104-1.774-4.655-2.661" fill="none" stroke="#231f20" stroke-miterlimit="10"/>
      <path d="m65.326,390.958c-1.517-.86-3.033-1.72-4.55-2.58" fill="none" stroke="#231f20" stroke-miterlimit="10"/>
      <line x1="67.211" y1="387.601" x2="62.721" y2="385.156" fill="none" stroke="#231f20" stroke-miterlimit="10"/>
    </g>
  </g>
  <g opacity=".75">
    <g>
      <g>
        <path d="m214.054,3.053c.355,5.535-.112,10.764-1.002,15.537-.956,4.768-2.39,9.084-4.087,12.902-3.402,7.658-7.82,13.246-11.74,17.224-3.941,4-7.443,6.417-9.805,7.942-2.398,1.484-3.67,2.118-3.67,2.118" fill="none" stroke="#231f20" stroke-miterlimit="10" stroke-width=".25"/>
        <path d="m216.531,2.902c.369,5.755-.115,11.194-1.043,16.163-.994,4.964-2.488,9.459-4.256,13.437-3.545,7.979-8.149,13.806-12.24,17.957-4.113,4.173-7.771,6.699-10.241,8.293-2.506,1.552-3.837,2.215-3.837,2.215" fill="none" stroke="#231f20" stroke-miterlimit="10" stroke-width=".25"/>
        <path d="m163.614,64.769c-5.463.502-10.652.095-15.364-.855-4.72-.953-8.953-2.528-12.685-4.334-7.481-3.648-12.822-8.363-16.584-12.49-3.8-4.137-6.032-7.784-7.469-10.216-1.394-2.469-1.979-3.776-1.979-3.776" fill="none" stroke="#231f20" stroke-miterlimit="10" stroke-width=".25"/>
        <path d="m163.835,67.241c-5.717.525-11.147.1-16.082-.896-4.942-.999-9.375-2.647-13.278-4.537-7.826-3.818-13.4-8.741-17.326-13.045-3.963-4.317-6.291-8.116-7.787-10.652-1.453-2.573-2.063-3.934-2.063-3.934" fill="none" stroke="#231f20" stroke-miterlimit="10" stroke-width=".25"/>
        <path d="m104.166,15.371c-1.519-11.007.078-20.913,2.838-28.769,2.82-7.887,6.701-13.859,10.312-18.133,3.586-4.328,6.9-7.01,9.117-8.742.565-.422,1.061-.791,1.486-1.108.438-.297.804-.546,1.097-.745.588-.395.883-.594.883-.594" fill="none" stroke="#231f20" stroke-miterlimit="10" stroke-width=".25"/>
        <path d="m101.708,15.715c-1.58-11.449.08-21.751,2.955-29.938,2.937-8.216,6.982-14.439,10.748-18.898,3.741-4.513,7.2-7.316,9.515-9.124.591-.441,1.109-.826,1.553-1.157.451-.321.841-.569,1.146-.779.614-.413.922-.62.922-.62" fill="none" stroke="#231f20" stroke-miterlimit="10" stroke-width=".25"/>
      </g>
      <g>
        <path d="m191.396-48.188c2.589,1.658,4.933,3.507,7.123,5.383,2.168,1.905,4.129,3.896,5.918,5.914,3.553,4.061,6.333,8.278,8.518,12.367,4.376,8.212,6.226,15.901,7.101,22.05.821,6.187.674,10.914.462,14.044-.092,1.57-.233,2.744-.337,3.527-.095.784-.143,1.177-.143,1.177" fill="none" stroke="#231f20" stroke-miterlimit="10" stroke-width=".25"/>
        <path d="m192.746-50.271c2.694,1.725,5.132,3.647,7.407,5.598,2.253,1.98,4.292,4.048,6.149,6.145,3.691,4.218,6.577,8.595,8.845,12.84,4.54,8.524,6.46,16.499,7.367,22.875.851,6.415.699,11.31.479,14.555-.095,1.627-.242,2.844-.349,3.656-.099.812-.149,1.22-.149,1.22" fill="none" stroke="#231f20" stroke-miterlimit="10" stroke-width=".25"/>
        <path d="m214.086,35.932c-2.644,5.538-5.955,10.318-9.463,14.408-3.561,4.053-7.35,7.399-11.135,10.096-7.628,5.349-15.08,8.148-21.168,9.528-6.108,1.43-10.879,1.528-14.023,1.537-1.578-.043-2.765-.057-3.555-.144-.79-.063-1.187-.095-1.187-.095" fill="none" stroke="#231f20" stroke-miterlimit="10" stroke-width=".25"/>
        <path d="m216.321,37.01c-2.745,5.747-6.18,10.711-9.825,14.958-3.698,4.21-7.637,7.688-11.574,10.493-7.933,5.566-15.698,8.481-22.042,9.92-6.365,1.489-11.334,1.593-14.608,1.601-1.643-.044-2.88-.061-3.702-.15-.823-.066-1.237-.099-1.237-.099" fill="none" stroke="#231f20" stroke-miterlimit="10" stroke-width=".25"/>
        <path d="m130.943,64.534c-5.446-2.865-10.07-6.418-13.963-10.143-3.864-3.766-7.02-7.711-9.515-11.624-4.975-7.855-7.533-15.337-8.834-21.418-1.341-6.098-1.549-10.832-1.57-13.967-.016-1.571.051-2.753.059-3.542.025-.789.069-1.183.069-1.183" fill="none" stroke="#231f20" stroke-miterlimit="10" stroke-width=".25"/>
        <path d="m129.779,66.725c-5.668-2.983-10.477-6.677-14.522-10.549-4.016-3.913-7.292-8.011-9.882-12.072-5.165-8.154-7.817-15.917-9.168-22.223-1.39-6.325-1.605-11.231-1.628-14.479-.016-1.628.052-2.852.061-3.669.026-.817.072-1.226.072-1.226" fill="none" stroke="#231f20" stroke-miterlimit="10" stroke-width=".25"/>
      </g>
    </g>
    <g>
      <g>
        <path d="m259.74-.171c.118,1.221.136,2.439.163,3.647.017,1.208.09,2.406.062,3.595-.073,2.378-.067,4.723-.293,7.017-.273,4.603-1.004,9.01-1.8,13.241-1.77,8.434-4.419,16.053-7.548,22.773-6.309,13.459-14.367,23.228-21.532,30.111-1.755,1.773-3.569,3.256-5.196,4.715-.853.683-1.677,1.341-2.47,1.976-.793.635-1.551,1.252-2.324,1.785-3.015,2.238-5.661,3.928-7.802,5.242-2.17,1.266-3.793,2.236-4.931,2.784-1.12.582-1.682.874-1.682.874" fill="none" stroke="#231f20" stroke-miterlimit="10" stroke-width=".25"/>
        <path d="m262.216-.329c.12,1.25.139,2.497.167,3.733.018,1.236.091,2.463.063,3.68-.073,2.434-.069,4.834-.299,7.184-.281,4.713-1.027,9.227-1.844,13.559-1.812,8.638-4.527,16.444-7.731,23.327-6.463,13.786-14.717,23.792-22.056,30.845-1.799,1.816-3.656,3.336-5.324,4.83-.874.7-1.717,1.375-2.53,2.025-.812.651-1.59,1.282-2.382,1.829-3.09,2.293-5.801,4.025-7.995,5.371-2.224,1.299-3.888,2.291-5.054,2.853-1.147.596-1.724.896-1.724.896" fill="none" stroke="#231f20" stroke-miterlimit="10" stroke-width=".25"/>
        <path d="m168.263,107.833c-4.874.48-9.639.406-14.231.21-2.292-.189-4.554-.302-6.755-.64-1.101-.155-2.202-.254-3.278-.45-1.076-.195-2.143-.389-3.201-.58-1.063-.168-2.097-.428-3.125-.669-1.028-.243-2.047-.484-3.057-.723-.997-.288-1.985-.573-2.964-.855-.982-.273-1.951-.558-2.891-.902-1.894-.645-3.757-1.266-5.531-2.02-.892-.364-1.785-.699-2.652-1.074-.858-.394-1.708-.784-2.549-1.171-13.463-6.268-23.165-14.406-30.049-21.565-3.496-3.562-6.164-7.044-8.458-10.015-1.071-1.543-2.079-2.942-2.955-4.243-.838-1.326-1.593-2.521-2.265-3.584-1.257-2.177-2.199-3.82-2.79-4.935-.569-1.128-.854-1.694-.854-1.694" fill="none" stroke="#231f20" stroke-miterlimit="10" stroke-width=".25"/>
        <path d="m168.473,110.306c-4.997.491-9.878.417-14.584.214-2.349-.193-4.667-.311-6.924-.655-1.129-.159-2.257-.261-3.36-.462-1.103-.2-2.197-.398-3.282-.595-1.089-.173-2.15-.439-3.204-.686-1.054-.249-2.098-.497-3.134-.742-1.022-.295-2.035-.587-3.039-.876-1.007-.28-2-.573-2.964-.925-1.942-.661-3.852-1.299-5.671-2.071-.914-.372-1.83-.717-2.718-1.101-.88-.404-1.751-.804-2.614-1.199-13.8-6.426-23.74-14.764-30.792-22.097-3.58-3.65-6.316-7.214-8.664-10.259-1.098-1.58-2.13-3.013-3.027-4.346-.858-1.358-1.632-2.582-2.32-3.671-1.289-2.23-2.253-3.913-2.858-5.055-.583-1.155-.875-1.735-.875-1.735" fill="none" stroke="#231f20" stroke-miterlimit="10" stroke-width=".25"/>
        <path d="m60.717,21.636c-1.358-9.708-1.418-19.015-.336-27.564,1.044-8.553,2.998-16.387,5.613-23.326,2.587-6.952,5.701-13.049,8.968-18.322,3.281-5.266,6.655-9.763,9.975-13.484,6.593-7.499,12.56-12.181,16.597-15.15,1.026-.726,1.898-1.401,2.691-1.913.792-.515,1.453-.944,1.982-1.288,1.058-.689,1.589-1.035,1.589-1.035" fill="none" stroke="#231f20" stroke-miterlimit="10" stroke-width=".25"/>
        <path d="m58.262,21.996c-1.392-9.943-1.451-19.465-.344-28.221,1.069-8.759,3.072-16.783,5.749-23.891,2.649-7.121,5.84-13.367,9.186-18.769,3.361-5.395,6.818-10,10.218-13.812,6.754-7.682,12.866-12.48,17.004-15.522,1.051-.744,1.945-1.435,2.758-1.96.811-.528,1.489-.968,2.031-1.32,1.084-.705,1.628-1.06,1.628-1.06" fill="none" stroke="#231f20" stroke-miterlimit="10" stroke-width=".25"/>
      </g>
      <g>
        <path d="m215.218-85.992c4.419,2.773,8.515,5.751,12.299,8.865.922.806,1.837,1.605,2.745,2.398.451.399.901.796,1.349,1.192.429.415.857.829,1.283,1.241.848.827,1.705,1.633,2.526,2.46.798.849,1.589,1.691,2.374,2.526.8.821,1.538,1.684,2.264,2.545.729.858,1.452,1.708,2.168,2.55.677.874,1.348,1.74,2.013,2.599.674.852,1.322,1.71,1.92,2.594.612.873,1.218,1.738,1.818,2.595.601.857,1.125,1.752,1.682,2.614.54.872,1.108,1.716,1.61,2.588.496.875.987,1.742,1.474,2.6,7.715,13.813,11.045,26.861,12.608,37.312,1.456,10.521,1.202,18.572.821,23.896-.111,1.333-.163,2.505-.289,3.502-.125.998-.229,1.83-.312,2.497-.167,1.333-.251,2.002-.251,2.002" fill="none" stroke="#231f20" stroke-miterlimit="10" stroke-width=".25"/>
        <path d="m216.522-88.104c4.522,2.837,8.713,5.885,12.584,9.071.944.824,1.88,1.642,2.808,2.453.462.408.922.815,1.38,1.219.44.425.877.848,1.313,1.269.868.846,1.743,1.671,2.583,2.517.816.869,1.626,1.73,2.429,2.583.817.841,1.573,1.723,2.316,2.603.746.877,1.485,1.747,2.217,2.609.693.894,1.38,1.78,2.06,2.658.689.871,1.352,1.75,1.964,2.653.625.893,1.245,1.778,1.859,2.654s1.151,1.792,1.721,2.673c.553.892,1.133,1.756,1.647,2.647.508.895,1.01,1.782,1.508,2.659,7.891,14.13,11.299,27.477,12.896,38.165,1.49,10.759,1.229,18.987.84,24.431-.114,1.363-.167,2.561-.296,3.581-.127,1.02-.234,1.872-.319,2.553-.171,1.363-.257,2.048-.257,2.048" fill="none" stroke="#231f20" stroke-miterlimit="10" stroke-width=".25"/>
        <path d="m254.746,55.868c-1.126,2.353-2.461,4.55-3.693,6.757-1.367,2.126-2.628,4.276-4.078,6.252-2.761,4.048-5.798,7.704-8.859,11.11-6.211,6.736-12.744,12.315-19.312,16.692-6.553,4.402-13.04,7.727-19.152,10.227-6.12,2.484-11.846,4.234-17.041,5.329-1.287.33-2.559.527-3.784.755-1.229.205-2.406.475-3.563.604-2.31.281-4.449.629-6.448.734-1.993.156-3.822.317-5.492.323-1.669.021-3.173.13-4.51.065-2.676-.076-4.69-.088-6.029-.233-1.34-.103-2.013-.155-2.013-.155" fill="none" stroke="#231f20" stroke-miterlimit="10" stroke-width=".25"/>
        <path d="m256.96,56.989c-1.153,2.406-2.516,4.655-3.778,6.911-1.396,2.176-2.689,4.373-4.171,6.395-2.826,4.14-5.93,7.88-9.062,11.364-6.353,6.891-13.038,12.597-19.757,17.077-6.705,4.504-13.344,7.908-19.601,10.467-6.265,2.543-12.126,4.333-17.444,5.455-1.317.337-2.62.54-3.873.773-1.257.21-2.463.485-3.647.618-2.365.289-4.554.642-6.599.751-2.04.16-3.911.324-5.621.33-1.708.022-3.246.132-4.615.067-2.738-.077-4.799-.091-6.169-.238-1.372-.106-2.061-.159-2.061-.159" fill="none" stroke="#231f20" stroke-miterlimit="10" stroke-width=".25"/>
        <path d="m112.259,103.407c-9.328-4.692-17.318-10.52-24.094-16.681-6.722-6.235-12.206-12.839-16.62-19.374-8.794-13.143-13.288-25.84-15.632-36.151-2.378-10.353-2.776-18.411-2.8-23.747-.027-2.674.09-4.685.103-6.028.004-.672.073-1.173.089-1.51.025-.336.038-.504.038-.504" fill="none" stroke="#231f20" stroke-miterlimit="10" stroke-width=".25"/>
        <path d="m111.14,105.621c-9.547-4.803-17.723-10.765-24.654-17.068-6.877-6.377-12.486-13.132-17.001-19.817-8.995-13.444-13.592-26.432-15.99-36.977-2.432-10.589-2.837-18.829-2.863-24.283-.028-2.733.091-4.789.106-6.162.004-.687.075-1.2.09-1.543.026-.343.038-.515.038-.515" fill="none" stroke="#231f20" stroke-miterlimit="10" stroke-width=".25"/>
      </g>
    </g>
    <g>
      <g>
        <path d="m305.425-3.403c.17,1.754.202,3.503.239,5.238.025,1.735.13,3.456.091,5.164-.103,3.415-.101,6.783-.428,10.079-.406,6.611-1.462,12.943-2.642,19.015-2.588,12.109-6.461,23.038-11.028,32.663-4.585,9.626-9.884,17.925-15.25,25.045-5.363,7.135-10.884,13.038-16.101,17.948-.648.619-1.286,1.229-1.914,1.829-.643.583-1.299,1.132-1.932,1.687-1.275,1.097-2.491,2.179-3.695,3.188-1.235.972-2.427,1.909-3.575,2.812-.574.452-1.137.896-1.689,1.33-.573.407-1.134.807-1.684,1.198-2.202,1.562-4.196,3.036-6.122,4.21-1.909,1.199-3.577,2.364-5.168,3.225-1.566.902-2.938,1.692-4.116,2.37-1.179.675-2.209,1.151-3.01,1.578-1.615.828-2.426,1.245-2.426,1.245" fill="none" stroke="#231f20" stroke-miterlimit="10" stroke-width=".25"/>
        <path d="m307.901-3.565c.172,1.784.206,3.562.243,5.326.026,1.764.131,3.514.092,5.251-.104,3.473-.104,6.897-.435,10.249-.415,6.723-1.486,13.164-2.688,19.339-2.632,12.317-6.572,23.434-11.217,33.225-4.664,9.791-10.053,18.232-15.511,25.473-5.454,7.256-11.069,13.259-16.375,18.253-.659.63-1.308,1.249-1.947,1.859-.654.593-1.321,1.152-1.964,1.716-1.296,1.116-2.533,2.215-3.758,3.242-1.256.988-2.468,1.942-3.636,2.86-.584.46-1.156.91-1.718,1.352-.582.414-1.153.821-1.712,1.219-2.239,1.589-4.268,3.087-6.227,4.282-1.941,1.22-3.639,2.403-5.257,3.28-1.593.917-2.989,1.721-4.187,2.411-1.199.687-2.247,1.172-3.062,1.605-1.643.843-2.468,1.266-2.468,1.266" fill="none" stroke="#231f20" stroke-miterlimit="10" stroke-width=".25"/>
        <path d="m172.901,150.898c-7.016.677-13.871.574-20.479.297-3.298-.272-6.554-.424-9.723-.903-1.586-.217-3.168-.369-4.72-.632-1.549-.277-3.086-.552-4.609-.825-1.53-.241-3.023-.59-4.503-.942-1.481-.342-2.95-.681-4.405-1.017-1.436-.409-2.86-.814-4.271-1.215-1.411-.4-2.815-.778-4.169-1.27-2.725-.931-5.421-1.784-7.978-2.86-1.289-.509-2.566-1.013-3.83-1.512-1.238-.561-2.463-1.116-3.677-1.666-9.695-4.427-18.101-9.551-25.295-14.82-7.2-5.273-13.189-10.69-18.215-15.796-9.982-10.311-16.148-19.299-19.893-25.468-1.869-3.093-3.184-5.475-4.086-7.05-.826-1.616-1.241-2.428-1.241-2.428" fill="none" stroke="#231f20" stroke-miterlimit="10" stroke-width=".25"/>
        <path d="m173.107,153.371c-7.136.687-14.105.585-20.824.302-3.354-.276-6.666-.432-9.888-.918-1.613-.22-3.222-.376-4.801-.644-1.576-.282-3.139-.562-4.688-.839-1.556-.246-3.075-.601-4.58-.958-1.507-.348-3-.693-4.481-1.035-1.461-.416-2.909-.828-4.344-1.236-1.435-.407-2.863-.792-4.241-1.292-2.772-.946-5.514-1.816-8.115-2.909-1.311-.518-2.61-1.031-3.895-1.539-1.259-.57-2.506-1.135-3.74-1.694-9.862-4.503-18.412-9.715-25.728-15.074-7.323-5.363-13.413-10.872-18.525-16.065-10.152-10.486-16.421-19.628-20.231-25.901-1.902-3.146-3.239-5.569-4.156-7.171-.84-1.644-1.262-2.469-1.262-2.469" fill="none" stroke="#231f20" stroke-miterlimit="10" stroke-width=".25"/>
        <path d="m17.272,27.918c-1.987-13.944-2.073-27.312-.489-39.591,1.516-12.288,4.402-23.528,8.22-33.475,3.78-9.966,8.328-18.694,13.091-26.231,4.785-7.527,9.705-13.935,14.513-19.253,9.605-10.667,18.225-17.343,24.083-21.546,2.911-2.148,5.24-3.556,6.762-4.546.764-.491,1.337-.859,1.72-1.105.379-.251.582-.357.582-.357" fill="none" stroke="#231f20" stroke-miterlimit="10" stroke-width=".25"/>
        <path d="m14.818,28.286c-2.022-14.183-2.107-27.771-.498-40.26,1.542-12.498,4.479-23.931,8.361-34.05,3.845-10.138,8.471-19.015,13.315-26.681,4.866-7.656,9.871-14.172,14.761-19.58,9.768-10.848,18.534-17.638,24.492-21.913,2.961-2.184,5.329-3.617,6.877-4.623.777-.499,1.36-.874,1.75-1.124.386-.255.592-.363.592-.363" fill="none" stroke="#231f20" stroke-miterlimit="10" stroke-width=".25"/>
      </g>
      <g>
        <path d="m239.05-123.761c6.259,3.871,12.11,7.979,17.468,12.353,1.354,1.075,2.615,2.24,3.91,3.341.642.557,1.282,1.112,1.919,1.665.634.556,1.225,1.155,1.835,1.726,1.21,1.155,2.41,2.301,3.599,3.437,1.136,1.189,2.263,2.369,3.38,3.538.557.586,1.112,1.169,1.665,1.749.526.604,1.05,1.207,1.571,1.806,1.039,1.202,2.07,2.393,3.091,3.573.985,1.21,1.925,2.439,2.876,3.641.944,1.208,1.904,2.386,2.751,3.631,1.74,2.456,3.491,4.836,5.004,7.309.779,1.221,1.55,2.431,2.313,3.629.707,1.232,1.408,2.451,2.101,3.658,5.507,9.682,9.498,19.165,12.36,28.032,2.867,8.874,4.61,17.127,5.752,24.526,2.091,14.849,1.73,26.222,1.179,33.737-.161,1.881-.228,3.537-.418,4.944-.179,1.408-.328,2.583-.447,3.524-.239,1.882-.359,2.827-.359,2.827" fill="none" stroke="#231f20" stroke-miterlimit="10" stroke-width=".25"/>
        <path d="m240.336-125.884c6.362,3.933,12.308,8.109,17.753,12.554,1.375,1.093,2.658,2.276,3.974,3.395.653.567,1.302,1.131,1.95,1.693.644.565,1.245,1.173,1.865,1.754,1.229,1.174,2.449,2.338,3.657,3.493,1.155,1.208,2.3,2.407,3.435,3.595.566.595,1.13,1.188,1.692,1.778.535.614,1.067,1.226,1.597,1.835,1.056,1.221,2.103,2.432,3.141,3.632,1.002,1.229,1.957,2.479,2.924,3.7.959,1.228,1.934,2.425,2.796,3.69,1.769,2.495,3.547,4.915,5.086,7.428.791,1.241,1.574,2.471,2.35,3.688.719,1.252,1.431,2.491,2.136,3.718,5.597,9.841,9.654,19.48,12.563,28.493,2.915,9.02,4.686,17.409,5.846,24.929,2.126,15.093,1.758,26.645,1.199,34.282-.164,1.912-.232,3.594-.425,5.024-.181,1.431-.333,2.626-.454,3.582-.243,1.912-.366,2.873-.366,2.873" fill="none" stroke="#231f20" stroke-miterlimit="10" stroke-width=".25"/>
        <path d="m295.408,75.782c-.419.819-.836,1.635-1.252,2.448-.425.808-.899,1.585-1.344,2.375-.91,1.567-1.78,3.142-2.705,4.667-1.931,3.001-3.768,5.999-5.829,8.777-1.946,2.861-4.104,5.493-6.161,8.131-1.043,1.308-2.165,2.532-3.23,3.785-1.074,1.246-2.13,2.49-3.268,3.64-8.844,9.437-18.156,17.204-27.48,23.292-9.301,6.13-18.491,10.748-27.139,14.215-2.17.849-4.268,1.729-6.384,2.396-1.05.356-2.086.707-3.109,1.053-1.02.354-2.031.691-3.048.96-2.022.574-3.989,1.133-5.901,1.676-1.937.448-3.817.882-5.642,1.304-1.816.462-3.616.716-5.343,1.042-1.734.283-3.394.668-5.029.834-3.26.395-6.279.87-9.099,1.017-2.812.219-5.392.439-7.75.447-1.177.03-2.296.058-3.357.085-.531.013-1.046.026-1.547.039-.501-.011-.988-.022-1.46-.033-3.775-.108-6.618-.118-8.506-.321-1.891-.144-2.841-.216-2.841-.216" fill="none" stroke="#231f20" stroke-miterlimit="10" stroke-width=".25"/>
        <path d="m297.613,76.921c-.426.832-.851,1.661-1.274,2.488-.432.821-.913,1.611-1.365,2.413-.925,1.593-1.809,3.193-2.75,4.743-1.962,3.05-3.83,6.096-5.923,8.921-1.979,2.906-4.17,5.583-6.262,8.263-1.06,1.329-2.199,2.574-3.282,3.847-1.092,1.266-2.165,2.53-3.321,3.699-8.988,9.591-18.452,17.483-27.928,23.671-9.453,6.231-18.794,10.925-27.585,14.449-2.206.863-4.339,1.757-6.49,2.436-1.067.361-2.12.718-3.16,1.07-1.037.36-2.065.702-3.098.976-2.056.583-4.055,1.151-5.999,1.703-1.968.455-3.88.897-5.734,1.326-1.846.469-3.676.728-5.431,1.06-1.762.288-3.45.677-5.112.848-3.313.402-6.382.883-9.247,1.034-2.858.223-5.48.445-7.875.454-1.197.03-2.333.059-3.411.086-.539.013-1.063.026-1.572.039-.509-.011-1.004-.022-1.483-.033-3.836-.109-6.724-.121-8.644-.327-1.922-.146-2.887-.22-2.887-.22" fill="none" stroke="#231f20" stroke-miterlimit="10" stroke-width=".25"/>
        <path d="m93.557,142.261c-1.637-.84-3.262-1.673-4.875-2.5-1.573-.901-3.133-1.794-4.682-2.681-1.564-.862-3.05-1.824-4.525-2.779-1.466-.967-2.973-1.849-4.371-2.866-1.408-1.003-2.805-1.997-4.19-2.984-1.399-.968-2.68-2.071-4.009-3.087-2.673-2.016-5.103-4.238-7.557-6.344-9.598-8.679-17.403-17.953-23.722-27.114-6.328-9.171-11.054-18.312-14.683-26.892-3.627-8.594-6.026-16.688-7.75-23.97-3.414-14.603-4.002-25.982-4.029-33.517-.039-.944-.034-1.829,0-2.656.021-.827.04-1.595.058-2.304.036-1.419.066-2.603.09-3.551.009-.949.108-1.657.13-2.131.036-.474.054-.711.054-.711" fill="none" stroke="#231f20" stroke-miterlimit="10" stroke-width=".25"/>
        <path d="m92.455,144.485c-1.664-.854-3.316-1.701-4.955-2.542-1.598-.915-3.185-1.823-4.759-2.724-1.589-.877-3.1-1.854-4.599-2.825-1.49-.983-3.021-1.881-4.442-2.913-1.431-1.019-2.851-2.03-4.259-3.032-1.422-.984-2.724-2.104-4.074-3.137-2.716-2.049-5.187-4.307-7.679-6.448-9.754-8.82-17.687-18.244-24.108-27.555-6.43-9.321-11.235-18.611-14.924-27.333-3.686-8.735-6.126-16.963-7.878-24.365C7.309,26.767,6.713,15.203,6.685,7.548c-.039-.959-.034-1.859,0-2.699.021-.84.041-1.62.059-2.341.037-1.442.068-2.645.092-3.608.009-.964.109-1.683.131-2.166.036-.481.055-.723.055-.723" fill="none" stroke="#231f20" stroke-miterlimit="10" stroke-width=".25"/>
      </g>
    </g>
    <g>
      <g>
        <path d="m351.11-6.638c.073,1.146.208,2.284.23,3.424.029,1.14.057,2.275.086,3.406.033,2.262.17,4.507.119,6.734-.133,4.454-.135,8.845-.564,13.144-.54,8.621-1.921,16.879-3.485,24.793-3.408,15.786-8.508,30.027-14.514,42.559-6.056,12.52-13.004,23.319-20.057,32.568-1.821,2.269-3.531,4.537-5.314,6.653-1.818,2.086-3.589,4.119-5.313,6.098-1.816,1.895-3.582,3.739-5.299,5.53-.842.912-1.733,1.75-2.612,2.575-.875.829-1.736,1.645-2.585,2.449-.849.804-1.685,1.595-2.508,2.374-.859.739-1.704,1.466-2.536,2.182-1.673,1.42-3.25,2.843-4.845,4.13-1.616,1.262-3.175,2.48-4.677,3.653-.755.581-1.478,1.176-2.219,1.715-.749.529-1.483,1.047-2.202,1.556-1.438,1.017-2.817,1.992-4.136,2.925-1.307.952-2.65,1.72-3.878,2.529-2.488,1.568-4.687,3.053-6.764,4.174-2.047,1.171-3.841,2.196-5.379,3.076-1.554.852-2.891,1.487-3.94,2.035-2.11,1.075-3.17,1.615-3.17,1.615" fill="none" stroke="#231f20" stroke-miterlimit="10" stroke-width=".25"/>
        <path d="m353.586-6.801c.074,1.161.21,2.314.233,3.469.029,1.155.058,2.305.087,3.451.034,2.292.171,4.565.12,6.822-.134,4.512-.138,8.96-.571,13.315-.548,8.734-1.946,17.102-3.532,25.121-3.453,15.996-8.621,30.427-14.707,43.124-6.136,12.686-13.175,23.627-20.321,32.997-1.844,2.299-3.577,4.597-5.384,6.739-1.842,2.114-3.636,4.173-5.382,6.177-1.839,1.92-3.629,3.787-5.368,5.603-.853.924-1.756,1.773-2.646,2.608-.886.84-1.759,1.667-2.618,2.481-.86.814-1.707,1.615-2.541,2.404-.87.749-1.726,1.486-2.568,2.211-1.694,1.439-3.292,2.88-4.908,4.183-1.637,1.279-3.216,2.512-4.738,3.701-.765.589-1.497,1.19-2.248,1.737-.758.536-1.502,1.061-2.23,1.576-1.457,1.03-2.854,2.018-4.191,2.963-1.324.964-2.684,1.743-3.928,2.562-2.52,1.589-4.749,3.092-6.853,4.228-2.074,1.186-3.891,2.224-5.45,3.116-1.574.863-2.928,1.507-3.992,2.062-2.138,1.089-3.212,1.635-3.212,1.635" fill="none" stroke="#231f20" stroke-miterlimit="10" stroke-width=".25"/>
        <path d="m177.536,193.963c-9.156.873-18.098.741-26.721.385-4.303-.355-8.553-.546-12.688-1.167-2.07-.279-4.134-.483-6.16-.815-2.022-.359-4.028-.715-6.016-1.069-.992-.184-1.988-.333-2.966-.544-.975-.224-1.946-.447-2.913-.67-1.934-.443-3.851-.883-5.75-1.318-1.876-.527-3.735-1.049-5.578-1.567-1.84-.527-3.678-.997-5.447-1.637-3.555-1.215-7.083-2.301-10.422-3.698-1.684-.66-3.351-1.313-5.003-1.96-1.619-.724-3.221-1.442-4.807-2.152-12.673-5.727-23.671-12.36-33.091-19.186-9.428-6.831-17.281-13.852-23.877-20.474C13.011,124.704,4.912,113.021-.016,105c-.657-.979-1.212-1.937-1.722-2.834-.517-.894-.997-1.725-1.441-2.492-.887-1.534-1.628-2.814-2.221-3.839-1.084-2.105-1.628-3.162-1.628-3.162" fill="none" stroke="#231f20" stroke-miterlimit="10" stroke-width=".25"/>
        <path d="m177.74,196.436c-9.274.883-18.33.752-27.063.39-4.359-.358-8.663-.554-12.852-1.181-2.097-.282-4.188-.49-6.24-.826-2.049-.364-4.08-.725-6.094-1.082-1.005-.187-2.013-.338-3.004-.552-.988-.227-1.972-.453-2.951-.678-1.959-.449-3.901-.895-5.825-1.336-1.901-.534-3.784-1.063-5.651-1.587-1.864-.534-3.727-1.012-5.518-1.659-3.602-1.231-7.175-2.332-10.559-3.746-1.706-.669-3.395-1.331-5.068-1.986-1.64-.734-3.263-1.46-4.871-2.179-12.839-5.802-23.981-12.521-33.523-19.437-9.551-6.92-17.506-14.032-24.188-20.741-13.257-13.563-21.461-25.4-26.454-33.525-.666-.993-1.227-1.962-1.745-2.872-.524-.906-1.01-1.747-1.46-2.524-.899-1.554-1.649-2.851-2.249-3.89-1.098-2.133-1.65-3.204-1.65-3.204" fill="none" stroke="#231f20" stroke-miterlimit="10" stroke-width=".25"/>
        <path d="m-26.171,34.207c-.554-4.559-1.258-9.033-1.494-13.487-.085-1.111-.17-2.217-.255-3.319l-.127-1.65c-.03-.549-.032-1.099-.049-1.647-.056-2.193-.111-4.368-.166-6.526l-.042-1.615.037-1.609c.027-1.07.055-2.136.082-3.198.027-1.062.053-2.119.08-3.172.02-1.053.046-2.102.147-3.142.345-4.162.537-8.27,1.144-12.265,1.989-16.026,5.808-30.675,10.832-43.632,4.976-12.982,10.959-24.341,17.22-34.141,6.284-9.792,12.767-18.099,19.055-25.021,12.62-13.832,23.892-22.502,31.57-27.938,3.805-2.792,6.868-4.593,8.85-5.889.998-.637,1.748-1.115,2.249-1.434.505-.312.768-.45.768-.45" fill="none" stroke="#231f20" stroke-miterlimit="10" stroke-width=".25"/>
        <path d="m-28.625,34.578c-.563-4.619-1.274-9.153-1.514-13.664-.086-1.125-.172-2.246-.257-3.362l-.128-1.671c-.031-.557-.033-1.114-.05-1.669-.057-2.221-.113-4.425-.168-6.611l-.042-1.636.037-1.63c.028-1.084.055-2.164.083-3.239.027-1.075.054-2.146.081-3.213.02-1.067.047-2.129.149-3.183.348-4.217.545-8.379,1.158-12.426,2.016-16.238,5.887-31.082,10.976-44.212,5.042-13.155,11.104-24.664,17.448-34.593,6.367-9.921,12.935-18.336,19.305-25.348,12.784-14.013,24.203-22.795,31.981-28.302,3.856-2.827,6.957-4.654,8.965-5.965,1.012-.645,1.771-1.129,2.278-1.453.511-.316.778-.456.778-.456" fill="none" stroke="#231f20" stroke-miterlimit="10" stroke-width=".25"/>
      </g>
      <g>
        <path d="m262.886-161.519c2.039,1.219,4.002,2.528,5.984,3.773.982.636,1.98,1.24,2.938,1.896.948.67,1.893,1.338,2.834,2.003.941.665,1.878,1.328,2.811,1.988.934.659,1.871,1.306,2.752,2.022,1.788,1.397,3.561,2.782,5.32,4.156.893.671,1.732,1.4,2.568,2.126.839.723,1.675,1.442,2.507,2.159,1.664,1.434,3.335,2.832,4.875,4.35,1.568,1.486,3.123,2.96,4.665,4.422,1.508,1.495,2.939,3.042,4.393,4.541,11.574,12.063,20.611,24.862,27.793,37.307,7.168,12.473,12.372,24.701,16.106,36.141,3.741,11.449,6.017,22.104,7.509,31.657,2.726,19.177,2.258,33.868,1.537,43.574-.211,2.43-.292,4.569-.547,6.385-.232,1.819-.426,3.336-.581,4.551-.311,2.43-.467,3.65-.467,3.65" fill="none" stroke="#231f20" stroke-miterlimit="10" stroke-width=".25"/>
        <path d="m264.161-163.648c2.065,1.234,4.053,2.559,6.059,3.82.994.644,2.005,1.256,2.975,1.92.96.678,1.917,1.354,2.87,2.027.953.674,1.901,1.345,2.847,2.013.946.667,1.895,1.323,2.787,2.048,1.81,1.414,3.606,2.817,5.387,4.209.904.68,1.754,1.418,2.601,2.153.85.731,1.696,1.46,2.539,2.186,1.685,1.452,3.377,2.869,4.936,4.405,1.587,1.505,3.162,2.998,4.723,4.478,1.527,1.514,2.977,3.08,4.448,4.598,11.719,12.215,20.872,25.175,28.145,37.779,7.26,12.632,12.53,25.017,16.312,36.604,3.789,11.596,6.095,22.388,7.606,32.064,2.761,19.422,2.287,34.296,1.557,44.126-.214,2.46-.297,4.626-.554,6.466-.235,1.842-.431,3.379-.588,4.61-.315,2.461-.474,3.697-.474,3.697" fill="none" stroke="#231f20" stroke-miterlimit="10" stroke-width=".25"/>
        <path d="m336.072,95.689c-.544,1.056-1.086,2.108-1.627,3.156-.588,1.022-1.174,2.04-1.758,3.054-1.188,2.016-2.298,4.059-3.526,6.009-1.249,1.937-2.488,3.859-3.718,5.765l-.921,1.426-.984,1.376c-.655.915-1.307,1.827-1.956,2.735-2.523,3.688-5.349,7.058-8.007,10.464-1.378,1.663-2.815,3.254-4.201,4.863-.698.801-1.393,1.598-2.085,2.392-.703.784-1.448,1.524-2.165,2.283-11.474,12.143-23.571,22.086-35.647,29.894-12.049,7.86-23.941,13.771-35.126,18.206-2.802,1.099-5.522,2.207-8.255,3.064-1.356.456-2.696.907-4.017,1.351-.661.222-1.317.443-1.969.662-.662.188-1.319.375-1.972.56-2.614.734-5.156,1.448-7.627,2.141-2.501.574-4.931,1.132-7.288,1.673-2.346.595-4.674.905-6.903,1.33-2.239.367-4.385.851-6.497,1.065-4.209.509-8.11,1.111-11.751,1.3-1.816.137-3.558.269-5.224.395-1.665.153-3.265.114-4.784.177-1.521.038-2.966.074-4.335.109-.685.017-1.351.034-1.998.05-.647-.014-1.276-.028-1.885-.042-4.875-.141-8.546-.149-10.985-.41-2.442-.185-3.669-.277-3.669-.277" fill="none" stroke="#231f20" stroke-miterlimit="10" stroke-width=".25"/>
        <path d="m338.271,96.838c-.552,1.07-1.101,2.135-1.648,3.197-.595,1.035-1.188,2.066-1.779,3.094-1.203,2.042-2.328,4.11-3.571,6.085-1.265,1.961-2.52,3.907-3.765,5.838l-.934,1.444-.996,1.393c-.663.927-1.323,1.85-1.98,2.77-2.556,3.734-5.416,7.148-8.109,10.596-1.395,1.684-2.849,3.296-4.254,4.925-.707.811-1.411,1.618-2.112,2.422-.712.793-1.465,1.543-2.191,2.312-11.618,12.296-23.868,22.363-36.096,30.27-12.201,7.959-24.244,13.945-35.57,18.436-2.837,1.113-5.592,2.234-8.36,3.103-1.374.462-2.73.918-4.068,1.368-.669.225-1.334.448-1.994.67-.67.191-1.335.38-1.996.568-2.647.743-5.221,1.466-7.723,2.168-2.533.582-4.993,1.146-7.38,1.694-2.376.601-4.733.917-6.99,1.347-2.267.372-4.441.86-6.578,1.078-4.262.516-8.212,1.124-11.898,1.317-1.839.139-3.602.272-5.289.399-1.686.154-3.305.116-4.843.179-1.539.039-3.002.075-4.389.11-.693.017-1.368.034-2.023.05-.655-.014-1.292-.028-1.908-.042-4.935-.141-8.652-.152-11.121-.415-2.473-.187-3.715-.281-3.715-.281" fill="none" stroke="#231f20" stroke-miterlimit="10" stroke-width=".25"/>
        <path d="m74.849,181.11c-2.117-1.078-4.219-2.148-6.304-3.21-2.06-1.109-4.056-2.299-6.063-3.431-.997-.578-2.004-1.129-2.981-1.722-.964-.614-1.924-1.226-2.881-1.836-1.901-1.237-3.838-2.388-5.666-3.67-1.823-1.289-3.631-2.567-5.425-3.835l-1.342-.949-1.294-1.003c-.858-.671-1.713-1.338-2.565-2.003-3.459-2.594-6.629-5.427-9.799-8.146-12.473-11.124-22.598-23.067-30.821-34.854-8.227-11.806-14.411-23.57-19.13-34.641-4.706-11.09-7.855-21.527-10.102-30.929-4.451-18.851-5.229-33.55-5.258-43.283-.015-.61-.029-1.2-.042-1.772.014-.572.028-1.125.042-1.659.027-1.068.052-2.06.075-2.976.047-1.833.086-3.362.117-4.586.015-1.225.141-2.14.17-2.753.047-.612.07-.919.07-.919" fill="none" stroke="#231f20" stroke-miterlimit="10" stroke-width=".25"/>
        <path d="m73.756,183.338c-2.144-1.092-4.272-2.176-6.384-3.251-2.086-1.123-4.108-2.327-6.14-3.474-1.009-.585-2.029-1.144-3.019-1.744-.976-.622-1.949-1.241-2.918-1.858-1.925-1.252-3.886-2.419-5.737-3.716-1.846-1.305-3.677-2.599-5.493-3.883l-1.359-.962-1.31-1.016c-.869-.679-1.735-1.355-2.597-2.028-3.502-2.627-6.713-5.495-9.922-8.249-12.63-11.264-22.883-23.357-31.21-35.294-8.331-11.956-14.594-23.87-19.374-35.083-4.766-11.232-7.957-21.804-10.233-31.326-4.508-19.094-5.294-33.98-5.325-43.835-.015-.617-.029-1.215-.042-1.794.014-.579.028-1.139.042-1.68.027-1.081.053-2.086.076-3.014.048-1.856.087-3.404.119-4.644.015-1.241.143-2.167.172-2.787.047-.62.071-.93.071-.93" fill="none" stroke="#231f20" stroke-miterlimit="10" stroke-width=".25"/>
      </g>
    </g>
    <g>
      <g>
        <path d="m396.795-9.874c.092,1.413.257,2.817.287,4.223.035,1.406.071,2.806.106,4.201.036,1.395.071,2.784.107,4.169.024,1.384.108,2.763.04,4.137-.163,5.493-.169,10.909-.7,16.21-.674,10.631-2.381,20.817-4.33,30.574-4.229,19.465-10.555,37.018-18.003,52.456-7.528,15.414-16.125,28.714-24.867,40.09-1.116,1.405-2.218,2.793-3.307,4.164-1.106,1.356-2.119,2.761-3.275,4.019-2.25,2.567-4.442,5.068-6.575,7.502-2.246,2.331-4.431,4.599-6.555,6.803-1.039,1.125-2.159,2.136-3.237,3.16-1.081,1.02-2.146,2.025-3.195,3.014-1.054.984-2.069,1.977-3.109,2.911-1.061.909-2.106,1.804-3.134,2.685-2.07,1.743-4.008,3.508-5.996,5.071-1.996,1.552-3.923,3.05-5.778,4.493-.936.71-1.819,1.456-2.749,2.099-.925.651-1.832,1.288-2.72,1.913-1.776,1.25-3.479,2.449-5.11,3.597-1.628,1.15-3.277,2.11-4.796,3.1-3.068,1.937-5.797,3.742-8.36,5.122-2.528,1.439-4.743,2.7-6.643,3.781-1.929,1.028-3.572,1.823-4.87,2.492-2.606,1.321-3.914,1.984-3.914,1.984" fill="none" stroke="#231f20" stroke-miterlimit="10" stroke-width=".25"/>
        <path d="m399.271-10.038c.092,1.428.258,2.847.289,4.268.036,1.421.072,2.836.108,4.245.036,1.41.072,2.814.108,4.213.024,1.399.108,2.792.04,4.181-.163,5.551-.172,11.024-.707,16.382-.682,10.745-2.406,21.041-4.377,30.903-4.274,19.677-10.67,37.42-18.198,53.025-7.608,15.58-16.298,29.023-25.133,40.52-1.128,1.42-2.242,2.823-3.342,4.208-1.118,1.37-2.143,2.79-3.31,4.061-2.274,2.594-4.489,5.121-6.645,7.581-2.27,2.356-4.478,4.648-6.624,6.875-1.051,1.136-2.182,2.159-3.272,3.193-1.092,1.031-2.168,2.046-3.228,3.046-1.065.994-2.092,1.998-3.142,2.942-1.072.919-2.128,1.824-3.166,2.714-2.092,1.761-4.051,3.544-6.059,5.124-2.018,1.569-3.964,3.083-5.839,4.541-.946.718-1.838,1.471-2.778,2.121-.935.658-1.851,1.302-2.749,1.934-1.795,1.264-3.516,2.475-5.164,3.635-1.646,1.162-3.311,2.132-4.846,3.133-3.1,1.958-5.859,3.78-8.448,5.176-2.555,1.454-4.793,2.728-6.713,3.821-1.949,1.039-3.61,1.843-4.921,2.519-2.633,1.335-3.956,2.005-3.956,2.005" fill="none" stroke="#231f20" stroke-miterlimit="10" stroke-width=".25"/>
        <path d="m182.169,237.028c-11.295,1.07-22.324.909-32.96.473-5.308-.438-10.551-.667-15.652-1.43-2.554-.34-5.099-.598-7.601-.997-2.495-.441-4.969-.879-7.422-1.312-1.225-.224-2.451-.415-3.66-.663-1.203-.275-2.401-.549-3.594-.822-2.386-.545-4.751-1.084-7.095-1.619-2.323-.619-4.61-1.287-6.885-1.919-2.268-.654-4.542-1.217-6.724-2.004-4.385-1.5-8.744-2.818-12.866-4.535-2.078-.811-4.137-1.613-6.175-2.408-2.013-.855-3.978-1.769-5.938-2.635-15.65-7.027-29.24-15.167-40.887-23.55-11.657-8.388-21.373-17.013-29.54-25.151-16.19-16.466-26.224-30.845-32.335-40.716-.395-.611-.777-1.202-1.147-1.775-.342-.59-.673-1.16-.993-1.711-.64-1.101-1.234-2.125-1.783-3.07-1.099-1.89-2.015-3.466-2.749-4.729-1.347-2.591-2.024-3.892-2.024-3.892" fill="none" stroke="#231f20" stroke-miterlimit="10" stroke-width=".25"/>
        <path d="m182.371,239.501c-11.413,1.079-22.554.919-33.3.477-5.363-.441-10.66-.675-15.815-1.445-2.581-.344-5.152-.605-7.68-1.008-2.521-.446-5.021-.888-7.5-1.326-1.238-.227-2.477-.419-3.698-.671-1.216-.278-2.427-.555-3.633-.83-2.411-.551-4.801-1.096-7.17-1.637-2.347-.625-4.659-1.3-6.958-1.938-2.292-.661-4.589-1.231-6.795-2.025-4.432-1.515-8.836-2.848-13.002-4.583-2.1-.819-4.18-1.631-6.24-2.434-2.034-.864-4.02-1.786-6.001-2.663-15.815-7.101-29.549-15.328-41.318-23.798-11.78-8.476-21.599-17.192-29.851-25.417-16.362-16.639-26.501-31.172-32.678-41.149-.399-.617-.785-1.215-1.159-1.794-.346-.596-.681-1.172-1.004-1.729-.647-1.113-1.247-2.147-1.802-3.103-1.11-1.91-2.036-3.504-2.778-4.78-1.362-2.619-2.046-3.934-2.046-3.934" fill="none" stroke="#231f20" stroke-miterlimit="10" stroke-width=".25"/>
        <path d="m-69.615,40.498c-.685-5.623-1.561-11.14-1.853-16.632-.105-1.37-.21-2.734-.315-4.093l-.157-2.034c-.04-.677-.041-1.356-.063-2.032-.069-2.704-.138-5.387-.206-8.048l-.052-1.992.046-1.984c.034-1.32.068-2.635.101-3.944.033-1.309.066-2.613.099-3.912.023-1.299.058-2.592.183-3.875.425-5.133.669-10.199,1.419-15.126.333-2.467.595-4.923.977-7.338.435-2.407.866-4.793,1.293-7.158.213-1.182.425-2.36.636-3.531.27-1.16.538-2.314.806-3.463.536-2.298,1.066-4.575,1.592-6.831.538-2.253,1.245-4.439,1.849-6.63.652-2.177,1.192-4.367,1.916-6.476.722-2.11,1.436-4.199,2.144-6.268.353-1.035.705-2.064,1.055-3.088.365-1.019.79-2.009,1.179-3.008,6.172-15.999,13.591-29.989,21.352-42.053,7.784-12.058,15.83-22.263,23.599-30.788,15.634-16.997,29.56-27.659,39.058-34.328,4.7-3.435,8.495-5.63,10.938-7.231,1.233-.783,2.159-1.371,2.777-1.763.636-.362.955-.544.955-.544" fill="none" stroke="#231f20" stroke-miterlimit="10" stroke-width=".25"/>
        <path d="m-72.068,40.872c-.694-5.683-1.577-11.26-1.874-16.811-.106-1.384-.213-2.763-.318-4.137l-.158-2.056c-.041-.685-.041-1.37-.064-2.053-.07-2.733-.139-5.444-.208-8.134l-.052-2.013.046-2.005c.034-1.334.068-2.662.102-3.986.034-1.323.067-2.641.101-3.953.024-1.313.06-2.62.185-3.916.428-5.189.677-10.308,1.434-15.288.337-2.493.602-4.976.988-7.417.439-2.433.875-4.845,1.306-7.236.216-1.195.43-2.385.644-3.57.272-1.172.544-2.339.814-3.501.542-2.323,1.078-4.625,1.61-6.905.544-2.277,1.258-4.488,1.869-6.702.659-2.201,1.206-4.414,1.938-6.546.729-2.133,1.452-4.245,2.167-6.336.357-1.046.713-2.086,1.067-3.122.369-1.03.798-2.031,1.191-3.04,6.239-16.173,13.738-30.313,21.582-42.506,7.867-12.187,15.999-22.499,23.85-31.115,1.943-2.172,3.96-4.153,5.84-6.139.949-.984,1.883-1.953,2.801-2.905.962-.908,1.908-1.8,2.838-2.677,1.859-1.754,3.652-3.446,5.38-5.076,1.804-1.546,3.539-3.033,5.206-4.462,3.279-2.924,6.522-5.321,9.406-7.585,2.852-2.308,5.602-4.145,7.999-5.847,4.75-3.47,8.584-5.69,11.053-7.307,1.246-.791,2.182-1.385,2.807-1.781.643-.366.965-.55.965-.55" fill="none" stroke="#231f20" stroke-miterlimit="10" stroke-width=".25"/>
      </g>
      <g>
        <path d="m286.724-199.274c2.514,1.469,4.915,3.083,7.349,4.599,1.208.773,2.424,1.524,3.612,2.307,1.164.819,2.323,1.635,3.478,2.447,1.155.813,2.305,1.622,3.451,2.429,1.14.814,2.306,1.584,3.386,2.461,2.195,1.707,4.372,3.4,6.532,5.08,8.458,6.935,16.389,13.995,23.372,21.489,14.23,14.742,25.376,30.381,34.214,45.617,8.83,15.264,15.245,30.235,19.851,44.248,4.615,14.023,7.425,27.079,9.267,38.788,3.36,23.503,2.786,41.514,1.896,53.41-.115,1.491-.222,2.889-.323,4.194-.093,1.307-.188,2.519-.354,3.632-.286,2.229-.525,4.089-.716,5.578-.383,2.979-.575,4.474-.575,4.474" fill="none" stroke="#231f20" stroke-miterlimit="10" stroke-width=".25"/>
        <path d="m287.993-201.406c2.54,1.485,4.966,3.114,7.425,4.646,1.22.781,2.448,1.54,3.649,2.331,1.176.827,2.347,1.651,3.514,2.472,1.167.821,2.329,1.639,3.486,2.454,1.152.822,2.329,1.601,3.42,2.487,2.217,1.724,4.417,3.435,6.599,5.132,8.545,7.006,16.556,14.14,23.612,21.709,14.375,14.895,25.638,30.694,34.568,46.089,8.922,15.423,15.404,30.552,20.059,44.713,4.663,14.171,7.504,27.365,9.364,39.197,3.396,23.75,2.815,41.944,1.916,53.965-.116,1.506-.225,2.919-.326,4.238-.094,1.32-.19,2.546-.358,3.669-.289,2.253-.53,4.132-.723,5.637-.387,3.01-.582,4.521-.582,4.521" fill="none" stroke="#231f20" stroke-miterlimit="10" stroke-width=".25"/>
        <path d="m376.735,115.593c-.67,1.293-1.338,2.581-2.003,3.864-.726,1.25-1.449,2.495-2.17,3.735-.72,1.24-1.438,2.476-2.154,3.706-.725,1.225-1.398,2.475-2.192,3.644-1.536,2.371-3.06,4.723-4.571,7.057-.735,1.181-1.539,2.309-2.352,3.423-.805,1.12-1.606,2.236-2.405,3.347-3.099,4.516-6.594,8.623-9.852,12.797-1.712,2.019-3.464,3.976-5.173,5.941-.857.98-1.711,1.955-2.562,2.926-.893.932-1.783,1.859-2.669,2.783-1.776,1.843-3.536,3.671-5.282,5.482-1.827,1.729-3.637,3.443-5.432,5.141-.898.848-1.793,1.692-2.684,2.532-.893.838-1.844,1.602-2.757,2.401-1.842,1.579-3.667,3.144-5.476,4.694-1.805,1.554-3.722,2.937-5.55,4.392-1.86,1.414-3.638,2.903-5.518,4.216-1.875,1.32-3.732,2.626-5.57,3.921-.919.647-1.834,1.29-2.744,1.931-.938.599-1.871,1.194-2.8,1.787-14.796,9.59-29.392,16.795-43.113,22.198-1.718.67-3.415,1.333-5.092,1.986-1.667.678-3.38,1.166-5.035,1.747-1.663.557-3.305,1.107-4.926,1.649-.811.27-1.616.538-2.416.805-.812.228-1.618.455-2.418.68-3.205.892-6.314,1.795-9.352,2.607-3.067.701-6.045,1.381-8.934,2.041-.722.165-1.439.328-2.151.491-.714.147-1.43.259-2.136.388-1.415.25-2.806.496-4.176.738-1.37.242-2.717.48-4.041.714-.663.112-1.317.245-1.972.336-.656.083-1.306.165-1.951.246-5.16.623-9.941,1.353-14.404,1.583-2.226.167-4.36.328-6.403.481-1.021.095-2.021.126-2.999.142-.978.025-1.933.049-2.865.072-1.864.047-3.635.091-5.314.133-.839.021-1.656.041-2.449.061-.793-.018-1.563-.035-2.31-.051-5.975-.173-10.475-.18-13.464-.499-2.994-.225-4.497-.338-4.497-.338" fill="none" stroke="#231f20" stroke-miterlimit="10" stroke-width=".25"/>
        <path d="m378.932,116.747c-.677,1.307-1.352,2.608-2.024,3.905-.733,1.263-1.464,2.521-2.192,3.775-.728,1.253-1.453,2.501-2.176,3.745-.732,1.238-1.413,2.5-2.215,3.682-1.552,2.395-3.091,4.772-4.619,7.13-.743,1.193-1.555,2.333-2.376,3.458-.813,1.132-1.623,2.259-2.429,3.382-3.133,4.562-6.661,8.712-9.954,12.929-1.73,2.04-3.5,4.018-5.225,6.003-.867.99-1.729,1.975-2.589,2.956-.902.941-1.801,1.879-2.696,2.812-1.794,1.862-3.573,3.708-5.336,5.538-1.845,1.747-3.674,3.478-5.487,5.194-.908.856-1.812,1.709-2.712,2.557-.902.846-1.863,1.618-2.785,2.425-1.861,1.595-3.705,3.176-5.532,4.742-1.824,1.57-3.76,2.968-5.607,4.438-1.879,1.429-3.676,2.932-5.574,4.259-1.894,1.333-3.77,2.654-5.627,3.961-.929.653-1.853,1.303-2.773,1.95-.948.605-1.891,1.207-2.829,1.806-14.948,9.688-29.694,16.968-43.556,22.427-1.736.677-3.451,1.346-5.144,2.006-1.685.685-3.415,1.178-5.086,1.765-1.68.563-3.339,1.118-4.976,1.666-.819.273-1.633.543-2.441.812-.82.231-1.634.46-2.443.688-3.238.902-6.379,1.813-9.448,2.634-3.098.708-6.107,1.395-9.026,2.062-.73.167-1.454.332-2.173.495-.722.149-1.445.262-2.158.393-1.429.253-2.835.501-4.219.746-1.384.244-2.744.485-4.083.721-.67.113-1.331.247-1.992.339-.663.084-1.319.167-1.971.249-5.212.63-10.042,1.365-14.55,1.6-2.249.169-4.405.331-6.468.486-1.031.096-2.041.127-3.029.144-.988.025-1.952.049-2.893.073-1.882.047-3.671.092-5.367.134-.848.021-1.673.041-2.474.061-.801-.018-1.579-.035-2.333-.051-6.035-.174-10.58-.183-13.599-.504-3.024-.227-4.542-.342-4.542-.342" fill="none" stroke="#231f20" stroke-miterlimit="10" stroke-width=".25"/>
        <path d="m56.138,219.957c-2.598-1.317-5.176-2.624-7.734-3.921-2.538-1.335-4.98-2.803-7.444-4.181-1.226-.701-2.447-1.399-3.664-2.094-1.183-.75-2.362-1.498-3.536-2.243-2.336-1.507-4.703-2.928-6.96-4.474-4.466-3.162-8.936-6.171-13.051-9.511-1.045-.813-2.086-1.622-3.122-2.428l-1.551-1.207-1.487-1.272c-1.977-1.695-3.937-3.375-5.88-5.041l-1.453-1.249-1.387-1.309c-.923-.871-1.842-1.737-2.756-2.6-.915-.863-1.825-1.723-2.732-2.578l-1.357-1.281-1.294-1.332c-3.409-3.577-6.872-6.984-9.934-10.638-1.565-1.796-3.115-3.575-4.651-5.337-1.454-1.831-2.894-3.644-4.32-5.439-2.93-3.532-5.435-7.274-8.035-10.832-10.123-14.442-17.769-28.827-23.573-42.39-5.791-13.583-9.687-26.365-12.457-37.885-5.486-23.099-6.455-41.117-6.487-53.048-.018-.747-.035-1.471-.052-2.172.018-.701.035-1.379.052-2.033.033-1.309.064-2.525.093-3.648.058-2.246.106-4.121.144-5.622.021-1.502.175-2.623.211-3.374.057-.75.086-1.126.086-1.126" fill="none" stroke="#231f20" stroke-miterlimit="10" stroke-width=".25"/>
        <path d="m55.052,222.188c-2.624-1.33-5.229-2.651-7.814-3.961-2.564-1.349-5.031-2.831-7.521-4.224-1.239-.708-2.472-1.413-3.701-2.116-1.196-.758-2.386-1.513-3.572-2.265-2.36-1.522-4.751-2.958-7.031-4.52-4.513-3.193-9.027-6.235-13.185-9.608-1.056-.821-2.107-1.639-3.154-2.454l-1.567-1.219-1.502-1.285c-1.997-1.712-3.977-3.41-5.94-5.092l-1.467-1.262-1.402-1.322c-.932-.88-1.861-1.755-2.785-2.627-.924-.872-1.844-1.74-2.76-2.605l-1.37-1.294-1.307-1.346c-3.445-3.613-6.942-7.056-10.036-10.747-1.581-1.814-3.147-3.612-4.698-5.392-1.469-1.849-2.924-3.681-4.365-5.495-2.959-3.569-5.492-7.349-8.118-10.944-10.228-14.592-17.954-29.127-23.819-42.833-5.852-13.726-9.79-26.642-12.589-38.284-5.543-23.343-6.521-41.55-6.555-53.603-.018-.755-.035-1.486-.052-2.195.018-.708.035-1.393.052-2.054.034-1.323.065-2.551.094-3.686.058-2.27.107-4.163.146-5.68.021-1.517.176-2.65.213-3.409.058-.758.087-1.138.087-1.138" fill="none" stroke="#231f20" stroke-miterlimit="10" stroke-width=".25"/>
      </g>
    </g>
    <g>
      <g>
        <path d="m442.48-13.111c.109,1.681.304,3.35.343,5.022.042,1.672.085,3.337.127,4.995.043,1.659.085,3.311.127,4.957.029,1.646.129,3.286.048,4.919-.193,6.532-.204,12.972-.836,19.276-.121,1.578-.242,3.15-.363,4.715l-.18,2.343c-.066.779-.191,1.55-.283,2.323-.398,3.089-.792,6.152-1.184,9.19l-.292,2.274c-.1.756-.262,1.5-.389,2.249-.271,1.494-.541,2.982-.809,4.464-.268,1.482-.535,2.957-.801,4.426-.267,1.469-.505,2.937-.875,4.372-5.05,23.145-12.604,44.011-21.493,62.356-9,18.307-19.248,34.109-29.678,47.613-1.33,1.669-2.643,3.318-3.94,4.946-1.311,1.616-2.535,3.272-3.91,4.767-2.683,3.046-5.296,6.014-7.841,8.903-2.675,2.768-5.278,5.461-7.808,8.079-1.236,1.338-2.586,2.523-3.863,3.744-1.287,1.211-2.556,2.404-3.805,3.579-1.258,1.165-2.458,2.355-3.709,3.449-1.264,1.08-2.508,2.142-3.731,3.188-1.223,1.046-2.427,2.074-3.61,3.086-1.188,1.006-2.327,2.03-3.536,2.926-4.78,3.65-9.094,7.219-13.397,10.088-2.115,1.484-4.143,2.907-6.083,4.269-1.949,1.349-3.903,2.499-5.714,3.671-1.823,1.154-3.557,2.25-5.199,3.289-1.62,1.078-3.266,1.903-4.756,2.781-3.009,1.707-5.645,3.203-7.906,4.486-2.304,1.204-4.253,2.159-5.8,2.949-3.101,1.567-4.658,2.354-4.658,2.354" fill="none" stroke="#231f20" stroke-miterlimit="10" stroke-width=".25"/>
        <path d="m444.956-13.276c.11,1.696.306,3.381.346,5.067.043,1.687.086,3.367.129,5.04.043,1.674.086,3.341.128,5.002.029,1.661.129,3.315.048,4.963-.193,6.591-.207,13.088-.843,19.45-.123,1.592-.245,3.178-.366,4.758l-.182,2.365c-.067.786-.192,1.564-.285,2.344-.401,3.117-.8,6.208-1.194,9.273l-.295,2.294c-.102.763-.264,1.514-.393,2.269-.273,1.508-.545,3.01-.816,4.505-.271,1.495-.54,2.984-.808,4.467-.27,1.482-.511,2.964-.883,4.412-5.096,23.357-12.719,44.414-21.69,62.926-9.081,18.474-19.421,34.418-29.945,48.042-1.342,1.684-2.667,3.348-3.975,4.99-1.323,1.631-2.559,3.301-3.945,4.809-2.707,3.073-5.344,6.067-7.911,8.982-2.699,2.793-5.325,5.51-7.877,8.151-1.248,1.349-2.609,2.545-3.897,3.778-1.299,1.222-2.578,2.425-3.839,3.611-1.269,1.175-2.48,2.376-3.743,3.479-1.275,1.089-2.53,2.161-3.764,3.216-1.234,1.055-2.448,2.093-3.642,3.113-1.198,1.015-2.348,2.048-3.567,2.952-4.822,3.683-9.175,7.282-13.515,10.177-2.134,1.497-4.179,2.932-6.137,4.306-1.967,1.361-3.937,2.522-5.764,3.704-1.84,1.164-3.588,2.27-5.246,3.318-1.634,1.087-3.295,1.92-4.798,2.806-3.036,1.722-5.695,3.231-7.977,4.526-2.324,1.215-4.291,2.179-5.851,2.976-3.128,1.581-4.699,2.375-4.699,2.375" fill="none" stroke="#231f20" stroke-miterlimit="10" stroke-width=".25"/>
        <path d="m186.801,280.093c-13.433,1.266-26.549,1.076-39.199.56-6.312-.521-12.548-.789-18.616-1.693-3.038-.402-6.064-.713-9.04-1.179-2.968-.523-5.91-1.042-8.827-1.556-1.457-.264-2.915-.496-4.354-.783-1.431-.326-2.857-.651-4.276-.975-2.838-.646-5.651-1.286-8.44-1.921-2.766-.723-5.485-1.524-8.192-2.27-2.697-.781-5.405-1.437-8-2.371-5.215-1.785-10.406-3.334-15.31-5.373-2.473-.962-4.922-1.914-7.347-2.857-2.401-1.001-4.735-2.094-7.069-3.119-18.627-8.326-34.808-17.974-48.681-27.912-13.885-9.944-25.465-20.173-35.202-29.827-19.294-19.543-31.263-36.617-38.558-48.339-.471-.725-.928-1.427-1.37-2.107-.41-.7-.806-1.376-1.189-2.03-.763-1.309-1.471-2.525-2.125-3.648-1.309-2.246-2.402-4.12-3.276-5.62-.835-1.522-1.41-2.694-1.819-3.462-.401-.772-.602-1.159-.602-1.159" fill="none" stroke="#231f20" stroke-miterlimit="10" stroke-width=".25"/>
        <path d="m187.003,282.566c-13.551,1.276-26.778,1.086-39.537.565-6.367-.524-12.657-.797-18.778-1.708-3.064-.405-6.117-.719-9.119-1.19-2.994-.528-5.962-1.051-8.905-1.569-1.47-.266-2.94-.501-4.392-.79-1.444-.329-2.882-.657-4.314-.983-2.863-.652-5.701-1.298-8.514-1.938-2.79-.73-5.534-1.537-8.264-2.29-2.721-.788-5.452-1.451-8.071-2.392-5.261-1.8-10.497-3.365-15.445-5.42-2.495-.97-4.965-1.931-7.411-2.883-2.422-1.009-4.777-2.112-7.132-3.146-18.792-8.4-35.116-18.134-49.112-28.16-14.008-10.032-25.691-20.351-35.514-30.092-19.466-19.716-31.541-36.944-38.902-48.772-.475-.732-.936-1.44-1.382-2.127-.414-.706-.814-1.389-1.2-2.048-.77-1.321-1.484-2.547-2.145-3.681-1.321-2.266-2.423-4.157-3.306-5.671-.843-1.536-1.423-2.718-1.836-3.493-.405-.779-.607-1.17-.607-1.17" fill="none" stroke="#231f20" stroke-miterlimit="10" stroke-width=".25"/>
        <path d="m-113.058,46.791c-.815-6.687-1.865-13.247-2.213-19.779-.126-1.629-.251-3.251-.376-4.867l-.187-2.419c-.05-.806-.049-1.612-.076-2.416-.082-3.216-.164-6.406-.245-9.571l-.062-2.369.054-2.359c.041-1.57.081-3.133.121-4.69.04-1.557.079-3.107.119-4.651l.058-2.312c.027-.768.11-1.532.161-2.296.504-6.105.801-12.129,1.695-17.987.399-2.933.707-5.854,1.169-8.726.518-2.863,1.032-5.7,1.542-8.512.254-1.406.507-2.806.759-4.199.323-1.379.644-2.751.964-4.117.639-2.733,1.272-5.44,1.899-8.123.652-2.676,1.488-5.278,2.211-7.882.374-1.299.746-2.592,1.116-3.879.371-1.286.718-2.573,1.176-3.819.86-2.508,1.713-4.992,2.556-7.452.421-1.23.841-2.454,1.258-3.672.449-1.206.946-2.387,1.412-3.573,7.37-19.016,16.225-35.638,25.486-49.965,9.285-14.323,18.894-26.426,28.143-36.555,2.305-2.538,4.673-4.876,6.891-7.207,1.123-1.153,2.208-2.306,3.309-3.406,1.134-1.066,2.249-2.115,3.344-3.145,2.193-2.058,4.309-4.043,6.348-5.957,2.126-1.816,4.171-3.563,6.135-5.241,3.862-3.438,7.698-6.235,11.09-8.902,3.359-2.714,6.611-4.853,9.429-6.859,1.416-.994,2.744-1.926,3.984-2.796,1.224-.894,2.455-1.585,3.542-2.299,2.198-1.39,4.031-2.55,5.5-3.478,1.47-.926,2.574-1.621,3.31-2.085.757-.429,1.137-.644,1.137-.644" fill="none" stroke="#231f20" stroke-miterlimit="10" stroke-width=".25"/>
        <path d="m-115.511,47.166c-.825-6.748-1.881-13.368-2.234-19.958-.127-1.644-.253-3.281-.379-4.911l-.188-2.441c-.051-.813-.05-1.627-.077-2.438-.083-3.245-.166-6.464-.247-9.657l-.062-2.39.055-2.38c.041-1.584.081-3.161.122-4.732.04-1.571.08-3.135.12-4.693l.059-2.332c.027-.775.11-1.546.162-2.317.507-6.16.809-12.238,1.71-18.15.402-2.96.714-5.908,1.18-8.805.523-2.889,1.041-5.752,1.555-8.59.257-1.419.512-2.832.767-4.238.326-1.391.65-2.776.973-4.155.645-2.758,1.284-5.49,1.917-8.197.658-2.701,1.501-5.326,2.23-7.954.377-1.311.753-2.616,1.126-3.914.374-1.298.725-2.597,1.187-3.854.868-2.531,1.728-5.038,2.579-7.52.426-1.241.849-2.476,1.27-3.705.453-1.217.954-2.409,1.425-3.606,7.437-19.19,16.373-35.962,25.717-50.418,9.369-14.452,19.064-26.663,28.395-36.881,2.326-2.561,4.714-4.919,6.952-7.271,1.133-1.163,2.228-2.326,3.339-3.436,1.144-1.076,2.269-2.134,3.374-3.173,2.213-2.076,4.348-4.079,6.404-6.009,2.144-1.832,4.207-3.595,6.189-5.288,3.897-3.467,7.766-6.291,11.188-8.981,3.389-2.737,6.67-4.896,9.513-6.92,1.428-1.002,2.769-1.943,4.02-2.821,1.236-.902,2.477-1.599,3.573-2.319,2.217-1.402,4.067-2.572,5.548-3.509,1.483-.934,2.597-1.635,3.34-2.103.764-.433,1.147-.65,1.147-.65" fill="none" stroke="#231f20" stroke-miterlimit="10" stroke-width=".25"/>
      </g>
      <g>
        <path d="m310.564-237.027c1.519.818,2.937,1.794,4.392,2.693,1.446.915,2.887,1.826,4.323,2.734,1.434.909,2.863,1.815,4.286,2.717,1.38.968,2.754,1.932,4.123,2.892,1.369.96,2.733,1.917,4.091,2.87,1.346.969,2.741,1.862,4.02,2.901,2.602,2.017,5.183,4.019,7.744,6.004,10.043,8.18,19.442,16.531,27.736,25.38,16.886,17.422,30.141,35.899,40.633,53.927,10.49,18.054,18.118,35.77,23.596,52.355,5.488,16.597,8.833,32.055,11.024,45.917,3.995,27.829,3.314,49.159,2.254,63.245-.136,1.765-.264,3.421-.383,4.967-.06.773-.117,1.519-.173,2.237-.061.718-.172,1.403-.25,2.063-.34,2.64-.623,4.842-.85,6.605-.455,3.527-.683,5.298-.683,5.298" fill="none" stroke="#231f20" stroke-miterlimit="10" stroke-width=".25"/>
        <path d="m311.829-239.162c1.532.825,2.962,1.809,4.431,2.716,1.459.923,2.912,1.842,4.36,2.757,1.447.917,2.888,1.831,4.323,2.741,1.392.976,2.778,1.948,4.159,2.917,1.381.969,2.756,1.934,4.126,2.895,1.358.978,2.764,1.879,4.054,2.926,2.625,2.035,5.228,4.053,7.811,6.056,10.13,8.25,19.61,16.675,27.976,25.6,17.031,17.574,30.404,36.212,40.989,54.399,10.583,18.214,18.278,36.087,23.805,52.821,5.537,16.746,8.912,32.341,11.122,46.328,4.032,28.077,3.344,49.591,2.274,63.803-.137,1.781-.266,3.451-.387,5.011-.06.78-.119,1.532-.175,2.257-.062.724-.173,1.415-.252,2.082-.343,2.663-.629,4.885-.857,6.664-.459,3.558-.69,5.345-.69,5.345" fill="none" stroke="#231f20" stroke-miterlimit="10" stroke-width=".25"/>
        <path d="m417.4,135.495c-.798,1.529-1.593,3.052-2.385,4.569-.862,1.479-1.72,2.952-2.575,4.42-.855,1.468-1.707,2.929-2.556,4.386-.853,1.454-1.669,2.922-2.61,4.307-1.823,2.805-3.631,5.588-5.425,8.349-.871,1.399-1.842,2.721-2.799,4.044-.955,1.325-1.906,2.645-2.854,3.959-.948,1.314-1.891,2.623-2.831,3.927-.929,1.311-1.978,2.524-2.955,3.783-1.986,2.494-3.957,4.967-5.91,7.42-2.065,2.359-4.113,4.699-6.144,7.02-1.017,1.158-2.031,2.312-3.039,3.46-1.062,1.099-2.12,2.194-3.173,3.284-2.106,2.179-4.194,4.34-6.264,6.482-2.169,2.041-4.319,4.065-6.449,6.07-1.066,1.002-2.127,2-3.183,2.993-1.072.975-2.191,1.889-3.276,2.83-2.184,1.867-4.348,3.716-6.493,5.548-2.154,1.821-4.416,3.467-6.587,5.183-1.094.848-2.182,1.692-3.265,2.532-1.08.844-2.155,1.684-3.281,2.443-2.223,1.559-4.424,3.104-6.603,4.633-1.09.764-2.174,1.525-3.253,2.282-1.114.705-2.222,1.406-3.324,2.103-17.544,11.32-34.843,19.82-51.1,26.192-2.035.792-4.046,1.574-6.031,2.346-1.98.788-4.005,1.373-5.966,2.056-1.97.658-3.915,1.307-5.834,1.948-.961.316-1.91.648-2.863.944-.961.27-1.916.537-2.865.803-3.796,1.051-7.477,2.124-11.078,3.074-3.632.827-7.159,1.63-10.581,2.41-.856.195-1.705.388-2.547.58-.85.153-1.694.304-2.531.454-1.675.295-3.323.586-4.945.872-1.622.286-3.217.567-4.786.843-.785.13-1.559.292-2.335.393-.777.098-1.547.194-2.31.29-6.11.737-11.772,1.595-17.056,1.867-2.636.198-5.164.387-7.582.568-1.208.113-2.393.147-3.552.167-1.158.029-2.289.057-3.392.085-2.207.055-4.304.107-6.292.157-.994.025-1.961.049-2.9.072-.939-.021-1.851-.041-2.736-.061-7.075-.206-12.404-.211-15.944-.588-3.545-.266-5.325-.399-5.325-.399" fill="none" stroke="#231f20" stroke-miterlimit="10" stroke-width=".25"/>
        <path d="m419.594,136.654c-.805,1.542-1.608,3.078-2.407,4.609-.869,1.492-1.735,2.978-2.597,4.459-.863,1.48-1.722,2.955-2.579,4.424-.86,1.467-1.684,2.948-2.633,4.344-1.839,2.829-3.663,5.637-5.473,8.422-.879,1.411-1.858,2.745-2.824,4.079-.963,1.337-1.923,2.668-2.878,3.994-.956,1.326-1.908,2.646-2.856,3.961-.938,1.323-1.995,2.547-2.981,3.817-2.004,2.515-3.991,5.01-5.962,7.484-2.083,2.38-4.149,4.741-6.197,7.081-1.027,1.168-2.049,2.332-3.066,3.49-1.071,1.109-2.138,2.213-3.2,3.313-2.125,2.198-4.231,4.377-6.319,6.537-2.188,2.059-4.356,4.1-6.504,6.123-1.075,1.011-2.145,2.017-3.211,3.019-1.082.984-2.209,1.906-3.304,2.855-2.203,1.883-4.386,3.748-6.549,5.596-2.172,1.837-4.454,3.497-6.643,5.228-1.103.855-2.201,1.706-3.294,2.553-1.089.852-2.174,1.698-3.31,2.464-2.242,1.573-4.462,3.131-6.66,4.673-1.099.771-2.193,1.538-3.281,2.301-1.123.711-2.241,1.418-3.353,2.122-17.695,11.418-35.144,19.991-51.542,26.418-2.053.798-4.081,1.587-6.084,2.366-1.997.795-4.039,1.385-6.017,2.074-1.987.663-3.949,1.318-5.885,1.964-.969.318-1.927.653-2.888.952-.969.272-1.933.542-2.889.81-3.829,1.061-7.542,2.143-11.174,3.1-3.663.834-7.22,1.645-10.672,2.431-.863.196-1.719.391-2.569.584-.858.154-1.708.307-2.552.458-1.689.298-3.352.591-4.988.879-1.636.288-3.245.571-4.827.85-.792.131-1.573.294-2.356.397-.783.098-1.56.196-2.33.293-6.162.745-11.874,1.607-17.202,1.883-2.658.199-5.207.39-7.646.573-1.219.114-2.414.148-3.582.168-1.168.029-2.308.058-3.42.086-2.225.055-4.341.108-6.345.158-1.002.025-1.977.049-2.925.072-.947-.021-1.867-.041-2.759-.061-7.135-.206-12.509-.214-16.078-.593-3.575-.268-5.37-.403-5.37-.403" fill="none" stroke="#231f20" stroke-miterlimit="10" stroke-width=".25"/>
        <path d="m37.426,258.802c-3.078-1.555-6.133-3.099-9.164-4.631-1.534-.731-2.968-1.636-4.445-2.447-1.466-.832-2.926-1.66-4.38-2.485-1.454-.825-2.903-1.647-4.346-2.466-1.402-.886-2.8-1.769-4.191-2.649-2.771-1.777-5.569-3.467-8.255-5.278-5.289-3.744-10.599-7.282-15.477-11.231-1.239-.961-2.473-1.917-3.702-2.87l-1.839-1.426c-.604-.484-1.18-.999-1.77-1.496-2.344-2.003-4.668-3.989-6.972-5.958l-1.724-1.474-1.65-1.542c-1.094-1.029-2.184-2.054-3.269-3.074-1.085-1.02-2.165-2.036-3.24-3.048-1.079-1.007-2.153-2.01-3.151-3.082-4.037-4.235-8.159-8.249-11.791-12.572-1.859-2.121-3.701-4.223-5.525-6.304-1.725-2.165-3.433-4.309-5.125-6.433-3.475-4.178-6.464-8.593-9.542-12.806-12.013-17.081-21.127-34.083-28.011-50.14-6.885-16.072-11.52-31.201-14.817-44.838-6.52-27.347-7.68-48.683-7.716-62.812-.021-.885-.042-1.742-.062-2.572.021-.83.042-1.632.061-2.407.04-1.55.076-2.99.11-4.32.068-2.66.125-4.88.171-6.657.027-1.778.208-3.106.252-3.995.068-.888.103-1.333.103-1.333" fill="none" stroke="#231f20" stroke-miterlimit="10" stroke-width=".25"/>
        <path d="m36.344,261.035c-3.105-1.569-6.186-3.126-9.243-4.671-1.547-.738-2.994-1.65-4.484-2.468-1.479-.839-2.951-1.674-4.418-2.506-1.467-.833-2.928-1.662-4.384-2.488-1.415-.894-2.824-1.784-4.228-2.671-2.795-1.792-5.617-3.497-8.326-5.324-5.335-3.775-10.69-7.346-15.611-11.328-1.25-.969-2.494-1.934-3.733-2.895l-1.855-1.439c-.609-.488-1.19-1.008-1.785-1.509-2.364-2.02-4.708-4.024-7.032-6.01l-1.739-1.487-1.665-1.555c-1.104-1.038-2.203-2.072-3.297-3.101-1.094-1.029-2.183-2.054-3.268-3.074-1.089-1.016-2.172-2.028-3.178-3.108-4.073-4.271-8.229-8.321-11.893-12.681-1.875-2.14-3.733-4.26-5.573-6.36-1.74-2.184-3.463-4.347-5.17-6.489-3.504-4.216-6.521-8.667-9.626-12.918-12.118-17.231-21.313-34.384-28.258-50.583-6.947-16.215-11.624-31.479-14.95-45.239-6.578-27.592-7.747-49.118-7.784-63.369-.021-.893-.042-1.758-.062-2.595.021-.837.042-1.647.061-2.429.04-1.564.077-3.016.111-4.358.069-2.683.127-4.922.173-6.715.028-1.794.21-3.133.254-4.03.069-.896.103-1.345.103-1.345" fill="none" stroke="#231f20" stroke-miterlimit="10" stroke-width=".25"/>
      </g>
    </g>
  </g>
  <polyline points="-110.317 322.531 -106.314 315.932 -74.505 335.228 -78.508 341.827 -47.527 360.62 -43.524 354.021 -11.881 373.217 -15.884 379.816 19.735 401.423 23.738 394.824 153.79 473.717 149.787 480.316 279.674 559.107 283.677 552.509 413.563 631.301 410.188 636.864" fill="none" stroke="#231f20" stroke-miterlimit="10" stroke-width=".655"/>
  <g>
    <path d="m1.453,16.151c-.022.65-.567,1.159-1.218,1.137s-1.159-.567-1.137-1.217c.022-.65.567-1.159,1.217-1.137s1.159.567,1.137,1.218Z" fill="#231f20" stroke-width="0"/>
    <path d="m6.18,16.313c-.022.65-.567,1.159-1.218,1.137-.65-.022-1.159-.567-1.137-1.217.022-.65.567-1.159,1.217-1.137s1.159.567,1.137,1.218Z" fill="#231f20" stroke-width="0"/>
    <path d="m10.907,16.474c-.022.65-.567,1.159-1.218,1.137-.65-.022-1.159-.567-1.137-1.217.022-.65.567-1.159,1.217-1.137.65.022,1.159.567,1.137,1.218Z" fill="#231f20" stroke-width="0"/>
    <path d="m15.634,16.636c-.022.65-.567,1.159-1.218,1.137-.65-.022-1.159-.567-1.137-1.218.022-.65.567-1.159,1.218-1.137.65.022,1.159.567,1.137,1.218Z" fill="#231f20" stroke-width="0"/>
    <path d="m20.361,16.798c-.022.65-.567,1.159-1.218,1.137-.65-.022-1.159-.567-1.137-1.218.022-.65.567-1.159,1.218-1.137.65.022,1.159.567,1.137,1.217Z" fill="#231f20" stroke-width="0"/>
    <path d="m25.088,16.959c-.022.65-.567,1.159-1.217,1.137s-1.159-.567-1.137-1.218c.022-.65.567-1.159,1.218-1.137.65.022,1.159.567,1.137,1.217Z" fill="#231f20" stroke-width="0"/>
    <path d="m29.815,17.121c-.022.65-.567,1.159-1.217,1.137s-1.159-.567-1.137-1.218.567-1.159,1.218-1.137,1.159.567,1.137,1.217Z" fill="#231f20" stroke-width="0"/>
    <path d="m34.542,17.283c-.022.65-.567,1.159-1.217,1.137s-1.159-.567-1.137-1.217.567-1.159,1.218-1.137,1.159.567,1.137,1.218Z" fill="#231f20" stroke-width="0"/>
    <path d="m39.27,17.445c-.022.65-.567,1.159-1.217,1.137-.65-.022-1.159-.567-1.137-1.217s.567-1.159,1.218-1.137,1.159.567,1.137,1.218Z" fill="#231f20" stroke-width="0"/>
    <path d="m43.997,17.607c-.022.65-.567,1.159-1.217,1.137-.65-.022-1.159-.567-1.137-1.218s.567-1.159,1.218-1.137c.65.022,1.159.567,1.137,1.218Z" fill="#231f20" stroke-width="0"/>
    <path d="m48.724,17.768c-.022.65-.567,1.159-1.218,1.137-.65-.022-1.159-.567-1.137-1.218s.567-1.159,1.217-1.137c.65.022,1.159.567,1.137,1.218Z" fill="#231f20" stroke-width="0"/>
    <path d="m53.451,17.93c-.022.65-.567,1.159-1.218,1.137s-1.159-.567-1.137-1.218c.022-.65.567-1.159,1.217-1.137.65.022,1.159.567,1.137,1.217Z" fill="#231f20" stroke-width="0"/>
    <path d="m58.178,18.092c-.022.65-.567,1.159-1.218,1.137s-1.159-.567-1.137-1.218c.022-.65.567-1.159,1.217-1.137s1.159.567,1.137,1.217Z" fill="#231f20" stroke-width="0"/>
    <path d="m62.905,18.254c-.022.65-.567,1.159-1.218,1.137s-1.159-.567-1.137-1.217c.022-.65.567-1.159,1.217-1.137s1.159.567,1.137,1.218Z" fill="#231f20" stroke-width="0"/>
    <path d="m67.632,18.415c-.022.65-.567,1.159-1.218,1.137-.65-.022-1.159-.567-1.137-1.217.022-.65.567-1.159,1.218-1.137s1.159.567,1.137,1.218Z" fill="#231f20" stroke-width="0"/>
    <path d="m72.359,18.577c-.022.65-.567,1.159-1.218,1.137-.65-.022-1.159-.567-1.137-1.217.022-.65.567-1.159,1.218-1.137s1.159.567,1.137,1.218Z" fill="#231f20" stroke-width="0"/>
    <path d="m77.086,18.739c-.022.65-.567,1.159-1.218,1.137-.65-.022-1.159-.567-1.137-1.218.022-.65.567-1.159,1.218-1.137.65.022,1.159.567,1.137,1.218Z" fill="#231f20" stroke-width="0"/>
    <path d="m81.813,18.901c-.022.65-.567,1.159-1.217,1.137-.65-.022-1.159-.567-1.137-1.218s.567-1.159,1.218-1.137c.65.022,1.159.567,1.137,1.217Z" fill="#231f20" stroke-width="0"/>
    <path d="m86.54,19.062c-.022.65-.567,1.159-1.217,1.137s-1.159-.567-1.137-1.218.567-1.159,1.218-1.137c.65.022,1.159.567,1.137,1.217Z" fill="#231f20" stroke-width="0"/>
    <path d="m91.267,19.224c-.022.65-.567,1.159-1.217,1.137s-1.159-.567-1.137-1.218.567-1.159,1.218-1.137,1.159.567,1.137,1.217Z" fill="#231f20" stroke-width="0"/>
    <path d="m95.994,19.386c-.022.65-.567,1.159-1.217,1.137s-1.159-.567-1.137-1.217.567-1.159,1.218-1.137,1.159.567,1.137,1.218Z" fill="#231f20" stroke-width="0"/>
    <path d="m100.721,19.548c-.022.65-.567,1.159-1.218,1.137-.65-.022-1.159-.567-1.137-1.217s.567-1.159,1.217-1.137,1.159.567,1.137,1.218Z" fill="#231f20" stroke-width="0"/>
    <path d="m105.448,19.709c-.022.65-.567,1.159-1.217,1.137-.65-.022-1.159-.567-1.137-1.218s.567-1.159,1.218-1.137c.65.022,1.159.567,1.137,1.218Z" fill="#231f20" stroke-width="0"/>
    <path d="m110.175,19.871c-.022.65-.567,1.159-1.217,1.137-.65-.022-1.159-.567-1.137-1.218s.567-1.159,1.218-1.137c.65.022,1.159.567,1.137,1.218Z" fill="#231f20" stroke-width="0"/>
    <path d="m114.902,20.033c-.022.65-.567,1.159-1.217,1.137s-1.159-.567-1.137-1.218.567-1.159,1.218-1.137c.65.022,1.159.567,1.137,1.217Z" fill="#231f20" stroke-width="0"/>
    <path d="m119.629,20.195c-.022.65-.567,1.159-1.217,1.137s-1.159-.567-1.137-1.218.567-1.159,1.218-1.137,1.159.567,1.137,1.217Z" fill="#231f20" stroke-width="0"/>
    <path d="m124.356,20.357c-.022.65-.567,1.159-1.217,1.137-.65-.022-1.159-.567-1.137-1.217.022-.65.567-1.159,1.218-1.137s1.159.567,1.137,1.218Z" fill="#231f20" stroke-width="0"/>
    <path d="m129.083,20.518c-.022.65-.567,1.159-1.218,1.137-.65-.022-1.159-.567-1.137-1.217s.567-1.159,1.217-1.137,1.159.567,1.137,1.218Z" fill="#231f20" stroke-width="0"/>
    <path d="m133.81,20.68c-.022.65-.567,1.159-1.218,1.137-.65-.022-1.159-.567-1.137-1.217.022-.65.567-1.159,1.217-1.137s1.159.567,1.137,1.218Z" fill="#231f20" stroke-width="0"/>
    <path d="m138.537,20.842c-.022.65-.567,1.159-1.218,1.137-.65-.022-1.159-.567-1.137-1.218.022-.65.567-1.159,1.217-1.137.65.022,1.159.567,1.137,1.218Z" fill="#231f20" stroke-width="0"/>
    <path d="m143.264,21.004c-.022.65-.567,1.159-1.218,1.137-.65-.022-1.159-.567-1.137-1.218.022-.65.567-1.159,1.217-1.137.65.022,1.159.567,1.137,1.217Z" fill="#231f20" stroke-width="0"/>
    <path d="m147.991,21.165c-.022.65-.567,1.159-1.218,1.137s-1.159-.567-1.137-1.218c.022-.65.567-1.159,1.218-1.137.65.022,1.159.567,1.137,1.217Z" fill="#231f20" stroke-width="0"/>
    <path d="m152.719,21.327c-.022.65-.567,1.159-1.218,1.137s-1.159-.567-1.137-1.218c.022-.65.567-1.159,1.218-1.137s1.159.567,1.137,1.217Z" fill="#231f20" stroke-width="0"/>
    <path d="m157.446,21.489c-.022.65-.567,1.159-1.218,1.137s-1.159-.567-1.137-1.217c.022-.65.567-1.159,1.218-1.137s1.159.567,1.137,1.218Z" fill="#231f20" stroke-width="0"/>
    <path d="m162.173,21.651c-.022.65-.567,1.159-1.218,1.137-.65-.022-1.159-.567-1.137-1.217s.567-1.159,1.218-1.137,1.159.567,1.137,1.218Z" fill="#231f20" stroke-width="0"/>
    <path d="m166.9,21.812c-.022.65-.567,1.159-1.218,1.137-.65-.022-1.159-.567-1.137-1.217s.567-1.159,1.218-1.137c.65.022,1.159.567,1.137,1.218Z" fill="#231f20" stroke-width="0"/>
    <path d="m171.627,21.974c-.022.65-.567,1.159-1.218,1.137-.65-.022-1.159-.567-1.137-1.218s.567-1.159,1.218-1.137c.65.022,1.159.567,1.137,1.218Z" fill="#231f20" stroke-width="0"/>
    <path d="m176.354,22.136c-.022.65-.567,1.159-1.218,1.137s-1.159-.567-1.137-1.218.567-1.159,1.218-1.137c.65.022,1.159.567,1.137,1.217Z" fill="#231f20" stroke-width="0"/>
    <path d="m181.081,22.298c-.022.65-.567,1.159-1.218,1.137s-1.159-.567-1.137-1.218.567-1.159,1.218-1.137c.65.022,1.159.567,1.137,1.217Z" fill="#231f20" stroke-width="0"/>
    <path d="m185.808,22.459c-.022.65-.567,1.159-1.218,1.137s-1.159-.567-1.137-1.218c.022-.65.567-1.159,1.218-1.137s1.159.567,1.137,1.218Z" fill="#231f20" stroke-width="0"/>
    <path d="m190.535,22.621c-.022.65-.567,1.159-1.218,1.137-.65-.022-1.159-.567-1.137-1.217s.567-1.159,1.218-1.137,1.159.567,1.137,1.218Z" fill="#231f20" stroke-width="0"/>
    <path d="m195.262,22.783c-.022.65-.567,1.159-1.218,1.137-.65-.022-1.159-.567-1.137-1.217s.567-1.159,1.218-1.137,1.159.567,1.137,1.218Z" fill="#231f20" stroke-width="0"/>
    <path d="m199.989,22.945c-.022.65-.567,1.159-1.218,1.137-.65-.022-1.159-.567-1.137-1.218s.567-1.159,1.218-1.137c.65.022,1.159.567,1.137,1.218Z" fill="#231f20" stroke-width="0"/>
    <path d="m204.716,23.106c-.022.65-.567,1.159-1.218,1.137-.65-.022-1.159-.567-1.137-1.218s.567-1.159,1.218-1.137c.65.022,1.159.567,1.137,1.217Z" fill="#231f20" stroke-width="0"/>
    <path d="m209.443,23.268c-.022.65-.567,1.159-1.218,1.137s-1.159-.567-1.137-1.218.567-1.159,1.218-1.137c.65.022,1.159.567,1.137,1.217Z" fill="#231f20" stroke-width="0"/>
    <path d="m214.17,23.43c-.022.65-.567,1.159-1.217,1.137s-1.159-.567-1.137-1.218.567-1.159,1.218-1.137,1.159.567,1.137,1.217Z" fill="#231f20" stroke-width="0"/>
    <path d="m218.897,23.592c-.022.65-.567,1.159-1.217,1.137s-1.159-.567-1.137-1.217.567-1.159,1.218-1.137,1.159.567,1.137,1.218Z" fill="#231f20" stroke-width="0"/>
    <path d="m223.624,23.754c-.022.65-.567,1.159-1.217,1.137-.65-.022-1.159-.567-1.137-1.217s.567-1.159,1.218-1.137,1.159.567,1.137,1.218Z" fill="#231f20" stroke-width="0"/>
    <path d="m228.351,23.915c-.022.65-.567,1.159-1.217,1.137-.65-.022-1.159-.567-1.137-1.217s.567-1.159,1.218-1.137c.65.022,1.159.567,1.137,1.218Z" fill="#231f20" stroke-width="0"/>
    <path d="m233.078,24.077c-.022.65-.567,1.159-1.218,1.137-.65-.022-1.159-.567-1.137-1.218s.567-1.159,1.217-1.137c.65.022,1.159.567,1.137,1.218Z" fill="#231f20" stroke-width="0"/>
    <path d="m237.805,24.239c-.022.65-.567,1.159-1.218,1.137s-1.159-.567-1.137-1.218.567-1.159,1.217-1.137c.65.022,1.159.567,1.137,1.217Z" fill="#231f20" stroke-width="0"/>
    <path d="m242.532,24.401c-.022.65-.567,1.159-1.218,1.137s-1.159-.567-1.137-1.218c.022-.65.567-1.159,1.217-1.137.65.022,1.159.567,1.137,1.217Z" fill="#231f20" stroke-width="0"/>
    <path d="m247.259,24.562c-.022.65-.567,1.159-1.218,1.137s-1.159-.567-1.137-1.218c.022-.65.567-1.159,1.217-1.137s1.159.567,1.137,1.217Z" fill="#231f20" stroke-width="0"/>
    <path d="m251.986,24.724c-.022.65-.567,1.159-1.218,1.137-.65-.022-1.159-.567-1.137-1.217.022-.65.567-1.159,1.217-1.137s1.159.567,1.137,1.218Z" fill="#231f20" stroke-width="0"/>
    <path d="m256.713,24.886c-.022.65-.567,1.159-1.218,1.137-.65-.022-1.159-.567-1.137-1.217.022-.65.567-1.159,1.218-1.137s1.159.567,1.137,1.218Z" fill="#231f20" stroke-width="0"/>
    <path d="m261.44,25.048c-.022.65-.567,1.159-1.218,1.137-.65-.022-1.159-.567-1.137-1.218.022-.65.567-1.159,1.218-1.137.65.022,1.159.567,1.137,1.218Z" fill="#231f20" stroke-width="0"/>
    <path d="m266.167,25.209c-.022.65-.567,1.159-1.218,1.137-.65-.022-1.159-.567-1.137-1.218s.567-1.159,1.218-1.137c.65.022,1.159.567,1.137,1.218Z" fill="#231f20" stroke-width="0"/>
    <path d="m270.895,25.371c-.022.65-.567,1.159-1.218,1.137s-1.159-.567-1.137-1.218.567-1.159,1.218-1.137c.65.022,1.159.567,1.137,1.217Z" fill="#231f20" stroke-width="0"/>
    <path d="m275.622,25.533c-.022.65-.567,1.159-1.218,1.137s-1.159-.567-1.137-1.218.567-1.159,1.218-1.137,1.159.567,1.137,1.217Z" fill="#231f20" stroke-width="0"/>
    <path d="m280.349,25.695c-.022.65-.567,1.159-1.218,1.137s-1.159-.567-1.137-1.217.567-1.159,1.218-1.137,1.159.567,1.137,1.218Z" fill="#231f20" stroke-width="0"/>
    <path d="m285.076,25.856c-.022.65-.567,1.159-1.218,1.137-.65-.022-1.159-.567-1.137-1.217s.567-1.159,1.218-1.137,1.159.567,1.137,1.218Z" fill="#231f20" stroke-width="0"/>
    <path d="m289.803,26.018c-.022.65-.567,1.159-1.218,1.137-.65-.022-1.159-.567-1.137-1.217s.567-1.159,1.218-1.137c.65.022,1.159.567,1.137,1.218Z" fill="#231f20" stroke-width="0"/>
    <path d="m294.53,26.18c-.022.65-.567,1.159-1.218,1.137-.65-.022-1.159-.567-1.137-1.218s.567-1.159,1.218-1.137c.65.022,1.159.567,1.137,1.218Z" fill="#231f20" stroke-width="0"/>
    <path d="m299.257,26.342c-.022.65-.567,1.159-1.218,1.137s-1.159-.567-1.137-1.218.567-1.159,1.218-1.137c.65.022,1.159.567,1.137,1.217Z" fill="#231f20" stroke-width="0"/>
    <path d="m303.984,26.503c-.022.65-.567,1.159-1.218,1.137s-1.159-.567-1.137-1.218.567-1.159,1.218-1.137c.65.022,1.159.567,1.137,1.217Z" fill="#231f20" stroke-width="0"/>
    <path d="m308.711,26.665c-.022.65-.567,1.159-1.218,1.137s-1.159-.567-1.137-1.218.567-1.159,1.218-1.137,1.159.567,1.137,1.217Z" fill="#231f20" stroke-width="0"/>
    <path d="m313.438,26.827c-.022.65-.567,1.159-1.218,1.137s-1.159-.567-1.137-1.217.567-1.159,1.218-1.137,1.159.567,1.137,1.218Z" fill="#231f20" stroke-width="0"/>
    <path d="m318.165,26.989c-.022.65-.567,1.159-1.217,1.137-.65-.022-1.159-.567-1.137-1.217s.567-1.159,1.218-1.137,1.159.567,1.137,1.218Z" fill="#231f20" stroke-width="0"/>
    <path d="m322.892,27.151c-.022.65-.567,1.159-1.217,1.137-.65-.022-1.159-.567-1.137-1.218s.567-1.159,1.218-1.137c.65.022,1.159.567,1.137,1.218Z" fill="#231f20" stroke-width="0"/>
    <path d="m327.619,27.312c-.022.65-.567,1.159-1.217,1.137-.65-.022-1.159-.567-1.137-1.218s.567-1.159,1.218-1.137c.65.022,1.159.567,1.137,1.218Z" fill="#231f20" stroke-width="0"/>
    <path d="m332.346,27.474c-.022.65-.567,1.159-1.217,1.137s-1.159-.567-1.137-1.218.567-1.159,1.218-1.137c.65.022,1.159.567,1.137,1.217Z" fill="#231f20" stroke-width="0"/>
    <path d="m337.073,27.636c-.022.65-.567,1.159-1.218,1.137-.65-.022-1.159-.567-1.137-1.218s.567-1.159,1.218-1.137,1.159.567,1.137,1.217Z" fill="#231f20" stroke-width="0"/>
    <path d="m341.8,27.798c-.022.65-.567,1.159-1.218,1.137s-1.159-.567-1.137-1.217.567-1.159,1.217-1.137,1.159.567,1.137,1.218Z" fill="#231f20" stroke-width="0"/>
    <path d="m346.527,27.959c-.022.65-.567,1.159-1.218,1.137-.65-.022-1.159-.567-1.137-1.217.022-.65.567-1.159,1.217-1.137s1.159.567,1.137,1.218Z" fill="#231f20" stroke-width="0"/>
    <path d="m351.254,28.121c-.022.65-.567,1.159-1.218,1.137-.65-.022-1.159-.567-1.137-1.217.022-.65.567-1.159,1.217-1.137.65.022,1.159.567,1.137,1.218Z" fill="#231f20" stroke-width="0"/>
    <path d="m355.981,28.283c-.022.65-.567,1.159-1.218,1.137-.65-.022-1.159-.567-1.137-1.218.022-.65.567-1.159,1.217-1.137.65.022,1.159.567,1.137,1.218Z" fill="#231f20" stroke-width="0"/>
    <path d="m360.708,28.445c-.022.65-.567,1.159-1.218,1.137s-1.159-.567-1.137-1.218c.022-.65.567-1.159,1.218-1.137.65.022,1.159.567,1.137,1.217Z" fill="#231f20" stroke-width="0"/>
    <path d="m365.435,28.606c-.022.65-.567,1.159-1.218,1.137s-1.159-.567-1.137-1.218c.022-.65.567-1.159,1.218-1.137.65.022,1.159.567,1.137,1.217Z" fill="#231f20" stroke-width="0"/>
    <path d="m370.162,28.768c-.022.65-.567,1.159-1.218,1.137s-1.159-.567-1.137-1.218c.022-.65.567-1.159,1.218-1.137s1.159.567,1.137,1.217Z" fill="#231f20" stroke-width="0"/>
    <path d="m374.889,28.93c-.022.65-.567,1.159-1.218,1.137s-1.159-.567-1.137-1.217.567-1.159,1.218-1.137,1.159.567,1.137,1.218Z" fill="#231f20" stroke-width="0"/>
    <path d="m379.616,29.092c-.022.65-.567,1.159-1.218,1.137-.65-.022-1.159-.567-1.137-1.217s.567-1.159,1.218-1.137,1.159.567,1.137,1.218Z" fill="#231f20" stroke-width="0"/>
    <path d="m384.344,29.253c-.022.65-.567,1.159-1.218,1.137-.65-.022-1.159-.567-1.137-1.218s.567-1.159,1.218-1.137c.65.022,1.159.567,1.137,1.218Z" fill="#231f20" stroke-width="0"/>
    <path d="m389.071,29.415c-.022.65-.567,1.159-1.218,1.137-.65-.022-1.159-.567-1.137-1.218s.567-1.159,1.218-1.137c.65.022,1.159.567,1.137,1.218Z" fill="#231f20" stroke-width="0"/>
    <path d="m393.798,29.577c-.022.65-.567,1.159-1.218,1.137s-1.159-.567-1.137-1.218.567-1.159,1.218-1.137c.65.022,1.159.567,1.137,1.217Z" fill="#231f20" stroke-width="0"/>
    <path d="m398.525,29.739c-.022.65-.567,1.159-1.218,1.137s-1.159-.567-1.137-1.218.567-1.159,1.218-1.137,1.159.567,1.137,1.217Z" fill="#231f20" stroke-width="0"/>
    <path d="m403.252,29.901c-.022.65-.567,1.159-1.218,1.137s-1.159-.567-1.137-1.217.567-1.159,1.218-1.137,1.159.567,1.137,1.218Z" fill="#231f20" stroke-width="0"/>
    <path d="m407.979,30.062c-.022.65-.567,1.159-1.218,1.137-.65-.022-1.159-.567-1.137-1.217s.567-1.159,1.218-1.137,1.159.567,1.137,1.218Z" fill="#231f20" stroke-width="0"/>
    <path d="m412.706,30.224c-.022.65-.567,1.159-1.218,1.137-.65-.022-1.159-.567-1.137-1.217s.567-1.159,1.218-1.137,1.159.567,1.137,1.218Z" fill="#231f20" stroke-width="0"/>
    <path d="m417.433,30.386c-.022.65-.567,1.159-1.218,1.137-.65-.022-1.159-.567-1.137-1.218s.567-1.159,1.218-1.137c.65.022,1.159.567,1.137,1.218Z" fill="#231f20" stroke-width="0"/>
    <path d="m422.16,30.547c-.022.65-.567,1.159-1.218,1.137-.65-.022-1.159-.567-1.137-1.218s.567-1.159,1.218-1.137c.65.022,1.159.567,1.137,1.217Z" fill="#231f20" stroke-width="0"/>
    <path d="m426.887,30.709c-.022.65-.567,1.159-1.217,1.137s-1.159-.567-1.137-1.218.567-1.159,1.218-1.137c.65.022,1.159.567,1.137,1.217Z" fill="#231f20" stroke-width="0"/>
    <path d="m431.614,30.871c-.022.65-.567,1.159-1.217,1.137s-1.159-.567-1.137-1.218.567-1.159,1.218-1.137,1.159.567,1.137,1.217Z" fill="#231f20" stroke-width="0"/>
    <path d="m436.341,31.033c-.022.65-.567,1.159-1.217,1.137s-1.159-.567-1.137-1.217.567-1.159,1.218-1.137,1.159.567,1.137,1.218Z" fill="#231f20" stroke-width="0"/>
    <path d="m441.068,31.195c-.022.65-.567,1.159-1.217,1.137-.65-.022-1.159-.567-1.137-1.217s.567-1.159,1.218-1.137,1.159.567,1.137,1.218Z" fill="#231f20" stroke-width="0"/>
    <path d="m445.795,31.356c-.022.65-.567,1.159-1.218,1.137-.65-.022-1.159-.567-1.137-1.218s.567-1.159,1.217-1.137c.65.022,1.159.567,1.137,1.218Z" fill="#231f20" stroke-width="0"/>
    <path d="m450.522,31.518c-.022.65-.567,1.159-1.218,1.137-.65-.022-1.159-.567-1.137-1.218s.567-1.159,1.217-1.137c.65.022,1.159.567,1.137,1.218Z" fill="#231f20" stroke-width="0"/>
    <path d="m455.249,31.68c-.022.65-.567,1.159-1.218,1.137s-1.159-.567-1.137-1.218c.022-.65.567-1.159,1.217-1.137.65.022,1.159.567,1.137,1.217Z" fill="#231f20" stroke-width="0"/>
    <path d="m459.976,31.842c-.022.65-.567,1.159-1.218,1.137s-1.159-.567-1.137-1.218c.022-.65.567-1.159,1.217-1.137s1.159.567,1.137,1.217Z" fill="#231f20" stroke-width="0"/>
    <path d="m464.703,32.003c-.022.65-.567,1.159-1.218,1.137s-1.159-.567-1.137-1.217c.022-.65.567-1.159,1.217-1.137s1.159.567,1.137,1.218Z" fill="#231f20" stroke-width="0"/>
    <path d="m469.43,32.165c-.022.65-.567,1.159-1.218,1.137-.65-.022-1.159-.567-1.137-1.217.022-.65.567-1.159,1.218-1.137s1.159.567,1.137,1.218Z" fill="#231f20" stroke-width="0"/>
    <path d="m474.157,32.327c-.022.65-.567,1.159-1.218,1.137-.65-.022-1.159-.567-1.137-1.217.022-.65.567-1.159,1.218-1.137s1.159.567,1.137,1.218Z" fill="#231f20" stroke-width="0"/>
    <path d="m478.884,32.489c-.022.65-.567,1.159-1.218,1.137-.65-.022-1.159-.567-1.137-1.218s.567-1.159,1.218-1.137c.65.022,1.159.567,1.137,1.218Z" fill="#231f20" stroke-width="0"/>
  </g>
  <line x1="67.697" y1="207.13" x2="65.109" y2="215.75" fill="none" stroke="#221f1f" stroke-miterlimit="10"/>
  <g>
    <line x1="226.019" y1="234.533" x2="220.902" y2="251.791" fill="none" stroke="#221f1f" stroke-miterlimit="10"/>
    <line x1="262.038" y1="254.601" x2="259.479" y2="263.229" fill="none" stroke="#221f1f" stroke-miterlimit="10"/>
    <line x1="377.77" y1="288.917" x2="375.212" y2="297.546" fill="none" stroke="#221f1f" stroke-miterlimit="10"/>
    <line x1="300.615" y1="266.039" x2="298.057" y2="274.668" fill="none" stroke="#221f1f" stroke-miterlimit="10"/>
    <line x1="339.193" y1="277.478" x2="336.634" y2="286.107" fill="none" stroke="#221f1f" stroke-miterlimit="10"/>
    <line x1="454.925" y1="311.794" x2="452.366" y2="320.423" fill="none" stroke="#221f1f" stroke-miterlimit="10"/>
    <line x1="532.08" y1="334.672" x2="529.521" y2="343.301" fill="none" stroke="#221f1f" stroke-miterlimit="10"/>
    <line x1="107.728" y1="208.846" x2="105.169" y2="217.474" fill="none" stroke="#221f1f" stroke-miterlimit="10"/>
  </g>
  <g>
    <line x1="-2.13" y1="278.662" x2="3.467" y2="281.056" fill="none" stroke="#221f1f" stroke-miterlimit="10" stroke-width=".5"/>
    <g>
      <g>
        <line x1="7.311" y1="283.197" x2="12.908" y2="285.591" fill="none" stroke="#221f1f" stroke-miterlimit="10" stroke-width=".5"/>
        <line x1="15.285" y1="286.608" x2="20.881" y2="289.002" fill="none" stroke="#221f1f" stroke-miterlimit="10" stroke-width=".5"/>
        <line x1="23.226" y1="290.13" x2="28.823" y2="292.524" fill="none" stroke="#221f1f" stroke-miterlimit="10" stroke-width=".5"/>
        <line x1="31.199" y1="293.541" x2="36.796" y2="295.934" fill="none" stroke="#221f1f" stroke-miterlimit="10" stroke-width=".5"/>
      </g>
      <g>
        <line x1="39.426" y1="297.499" x2="45.023" y2="299.893" fill="none" stroke="#221f1f" stroke-miterlimit="10" stroke-width=".5"/>
        <line x1="47.4" y1="300.91" x2="52.996" y2="303.304" fill="none" stroke="#221f1f" stroke-miterlimit="10" stroke-width=".5"/>
        <line x1="55.341" y1="304.432" x2="60.937" y2="306.826" fill="none" stroke="#221f1f" stroke-miterlimit="10" stroke-width=".5"/>
        <line x1="63.314" y1="307.842" x2="68.911" y2="310.236" fill="none" stroke="#221f1f" stroke-miterlimit="10" stroke-width=".5"/>
      </g>
    </g>
  </g>
  <g>
    <g>
      <line x1="165.253" y1="353.16" x2="181.744" y2="360.386" fill="none" stroke="#221f1f" stroke-miterlimit="10" stroke-width=".5"/>
      <line x1="188.748" y1="363.455" x2="205.239" y2="370.681" fill="none" stroke="#221f1f" stroke-miterlimit="10" stroke-width=".5"/>
      <line x1="212.234" y1="373.872" x2="228.725" y2="381.098" fill="none" stroke="#221f1f" stroke-miterlimit="10" stroke-width=".5"/>
      <line x1="235.728" y1="384.167" x2="252.219" y2="391.393" fill="none" stroke="#221f1f" stroke-miterlimit="10" stroke-width=".5"/>
    </g>
    <g>
      <line x1="260.276" y1="395.364" x2="276.767" y2="402.59" fill="none" stroke="#221f1f" stroke-miterlimit="10" stroke-width=".5"/>
      <line x1="283.77" y1="405.659" x2="300.262" y2="412.885" fill="none" stroke="#221f1f" stroke-miterlimit="10" stroke-width=".5"/>
      <line x1="307.256" y1="416.076" x2="323.748" y2="423.302" fill="none" stroke="#221f1f" stroke-miterlimit="10" stroke-width=".5"/>
      <line x1="330.751" y1="426.37" x2="347.242" y2="433.596" fill="none" stroke="#221f1f" stroke-miterlimit="10" stroke-width=".5"/>
    </g>
  </g>
  <g>
    <path d="m479.328,175.669c1,.164,1.716.87,1.6,1.576-.116.706-1.021,1.145-2.02.981s-1.716-.87-1.599-1.576c.116-.706,1.021-1.145,2.02-.981Z" fill="#231f20" stroke-width="0"/>
    <path d="m489.533,177.324c1,.164,1.716.87,1.599,1.576-.116.706-1.021,1.145-2.02.981-1-.164-1.716-.87-1.6-1.576.116-.706,1.021-1.145,2.02-.981Z" fill="#231f20" stroke-width="0"/>
    <path d="m500.203,179.039c1,.164,1.716.87,1.6,1.576-.116.706-1.021,1.145-2.02.981-1-.164-1.716-.87-1.599-1.576.116-.706,1.021-1.145,2.02-.981Z" fill="#231f20" stroke-width="0"/>
    <path d="m511.57,180.886c1,.164,1.716.87,1.599,1.576-.116.706-1.021,1.145-2.02.981-1-.164-1.716-.87-1.6-1.576.116-.706,1.021-1.145,2.02-.981Z" fill="#231f20" stroke-width="0"/>
    <path d="m437.903,168.984c1,.164,1.716.87,1.6,1.576s-1.021,1.145-2.02.981-1.716-.87-1.599-1.576,1.021-1.145,2.02-.981Z" fill="#231f20" stroke-width="0"/>
    <path d="m448.108,170.639c1,.164,1.716.87,1.599,1.576-.116.706-1.021,1.145-2.02.981s-1.716-.87-1.6-1.576c.116-.706,1.021-1.145,2.02-.981Z" fill="#231f20" stroke-width="0"/>
    <path d="m458.1,172.242c1,.164,1.716.87,1.599,1.576-.116.706-1.021,1.145-2.02.981s-1.716-.87-1.6-1.576c.116-.706,1.021-1.145,2.02-.981Z" fill="#231f20" stroke-width="0"/>
    <path d="m468.983,174.009c1,.164,1.716.87,1.599,1.576-.116.706-1.021,1.145-2.02.981s-1.716-.87-1.6-1.576c.116-.706,1.021-1.145,2.02-.981Z" fill="#231f20" stroke-width="0"/>
  </g>
  <g>
    <rect x="-2340.473" y="-1258.288" width="3386.58" height="2514.089" transform="translate(-645.939 -648.426) rotate(-90)" fill="none" stroke="#231f20" stroke-linecap="round" stroke-miterlimit="10" stroke-width="7"/>
    <rect x="-2323.506" y="-1241.166" width="3353.392" height="2482.402" transform="translate(-646.845 -646.775) rotate(-90)" fill="none" stroke="#231f20" stroke-linecap="round" stroke-miterlimit="10" stroke-width="3"/>
    <rect x="-2285.031" y="-1205.548" width="3275.615" height="2412.095" transform="translate(-647.722 -646.724) rotate(-90)" fill="none" stroke="#231f20" stroke-linecap="round" stroke-miterlimit="10"/>
    <rect x="-2267.163" y="-1188.185" width="3239.88" height="2376.261" transform="translate(-647.169 -647.277) rotate(-90)" fill="none" stroke="#231f20" stroke-linecap="round" stroke-miterlimit="10"/>
    <line x1="540.907" y1="395.964" x2="558.824" y2="395.964" fill="none" stroke="#231f20" stroke-linecap="round" stroke-miterlimit="10"/>
    <line x1="540.907" y1="324.126" x2="558.824" y2="324.126" fill="none" stroke="#231f20" stroke-linecap="round" stroke-miterlimit="10"/>
    <line x1="540.907" y1="252.071" x2="558.824" y2="252.071" fill="none" stroke="#231f20" stroke-linecap="round" stroke-miterlimit="10"/>
    <line x1="540.907" y1="180.222" x2="558.824" y2="180.222" fill="none" stroke="#231f20" stroke-linecap="round" stroke-miterlimit="10"/>
    <line x1="540.907" y1="108.067" x2="558.824" y2="108.067" fill="none" stroke="#231f20" stroke-linecap="round" stroke-miterlimit="10"/>
    <line x1="540.907" y1="36.146" x2="558.824" y2="36.146" fill="none" stroke="#231f20" stroke-linecap="round" stroke-miterlimit="10"/>
    <rect x="478.136" y="394.235" width="144" height="3.6" transform="translate(154.101 946.172) rotate(-90)" fill="#231f20" stroke-width="0"/>
    <rect x="477.866" y="175.798" width="144" height="8.773" transform="translate(369.682 730.05) rotate(-90)" fill="#231f20" stroke-width="0"/>
  </g>
</svg>