<?xml version="1.0" encoding="UTF-8"?>
<svg id="a" data-name="Layer 1" xmlns="http://www.w3.org/2000/svg" width="9.002in" height="6.002in" viewBox="0 0 648.177 432.177">
  <g>
    <path d="m189.151,94.02c14.902,17.642,25.069,29.68,23.094,43.859-1.61,11.557-9.361,10.712-37.869,44.799-14.509,17.349-20.521,27.158-22.771,30.939-7.012,11.785-6.277,13.423-11.88,21.286-3.029,4.251-6.806,8.771-29.701,27.721-21.68,17.945-26.574,20.746-30.132,22.6-9.654,5.029-18,9.247-29.518,8.834-3.438-.123-17.059-.612-26.855-10.577-4.041-4.111-5.824-8.199-8.607-14.754-5.873-13.83-7.346-25.583-7.604-27.636C-3.299,156.693-11.879,137.637-7.791,90.357-6.148,71.361-1.227,33.539,2.101,9.819c.772-5.5.755-4.836,1.077-7.624,1.744-15.11,11.623-49.399,6.974-77.295-4.786-28.716,6.783-47.554,18.016-51.143,12.263-3.918,33.404,10.637,38.789,27.751,3.284,10.437.313,20.569,5.94,23.266,4.781,2.292,11.83-2.673,12.806-3.361,6.049-4.261,5.225-8.554,9.965-12.727,6.465-5.693,18.221-7.309,25.741-2.723,3.724,2.271,7.368,6.648,10.214,23.869,3.514,21.272,1.81,37.931,1.737,38.655-2.276,22.311-5.89,57.737,9.299,83.107,11.359,18.972,21.733,13.112,46.493,42.425Z" fill="none" stroke="#221f1f" stroke-linecap="round" stroke-miterlimit="10" stroke-width=".75"/>
    <path d="m150.794,153.88c12.205-12.786,19.76-20.922-1.744-31.383-1.836-.893-9.838-4.989-21.956-5.383-10.959-.356-10.452,2.753-19.051,1.707-10.346-1.259-15.315-6.275-21.533-3.218-2.719,1.337-4.134,3.458-4.875,4.569-3.913,5.865-3.645,14.857,1.162,19.439.98.934,2.901,2.766,5.445,2.723,4.568-.077,6.319-6.117,10.89-6.188,2.571-.039,4.527,1.833,5.198,2.475,6.898,6.605,1.669,23.225-.03,28.625-3.954,12.567-7.955,14.462-6.405,18.897,3.23,9.243,24.74,12.83,30.233,6.093,2.344-2.874.634-5.484,2.927-13.108.877-2.916,2.694-6.384,6.936-11.301,10.89-12.623,12.802-13.948,12.802-13.948Z" fill="none" stroke="#221f1f" stroke-linecap="round" stroke-miterlimit="10" stroke-width=".75"/>
    <path d="m70.917-29.437c-.371,8.163-4.208,27.721-7.92,50.987-3.713,23.266-7.673,32.919-13.118,26.484-5.445-6.435-15.841-7.178-13.365-30.196,2.475-23.018,4.703-22.028,5.445-31.929s8.91-34.156,12.128-35.641c3.218-1.485,10.643-.743,14.356,4.455,3.713,5.198,2.723,10.395,2.475,15.841Z" fill="none" stroke="#221f1f" stroke-linecap="round" stroke-miterlimit="10" stroke-width=".75"/>
    <path d="m88.49,214.854c.248,7.92-6.435,9.158-9.158,8.168-2.723-.99-9.9-.99-7.425-11.633,2.475-10.643,12.87-3.713,14.603-2.228,1.733,1.485,1.98,5.693,1.98,5.693Z" fill="none" stroke="#221f1f" stroke-linecap="round" stroke-miterlimit="10" stroke-width=".75"/>
    <path d="m97.153,241.585c-1.238,8.663-2.723,13.613-9.158,16.583-6.435,2.97-16.336,6.93-16.336-1.733s2.228-11.385,11.138-19.306c8.91-7.92,17.326-12.375,16.336-4.703s-1.98,9.158-1.98,9.158Z" fill="none" stroke="#221f1f" stroke-linecap="round" stroke-miterlimit="10" stroke-width=".75"/>
    <path d="m-1132.582-258.842c.952-2.903,4.443-10.495,5.078-14.291.635-3.795,2.539-7.368,10.79-7.368s10.156,1.786,13.012-2.679c2.856-4.466,0-15.184-2.856-18.31-2.856-3.126-8.886-8.931,1.587-8.038s17.138,4.689,19.677-7.145c2.539-11.834.317-17.863-9.521-22.775-9.838-4.912-19.042-6.028-17.455-11.164,1.587-5.136,1.581-7.766,10.629-9.465,5.152-.968,10.99-1.86,15.999-1.566,5.008.294,22.398,4.502,23.65,6.754,1.252,2.251,4.313,4.404.139,11.745-4.174,7.341-5.843,8.516-7.791,12.333-1.948,3.817-2.504,7.243.974,10.767,3.478,3.523,4.73,9.103,1.53,12.039s-10.851,9.69,2.504,7.243c13.356-2.447,13.634-4.405,19.199-3.622,5.565.783,11.408-.196,12.938,3.328,1.53,3.524,3.2,4.111,5.426,5.09,2.226.979,7.652,2.838,5.843,5.971-1.809,3.132-3.617,3.23-3.895,6.362-.278,3.132-.696,6.754-1.113,7.831s-4.591,2.936-3.756,5.089,4.869,1.958,10.156-.391,6.817-1.664,10.434-6.46c3.617-4.796,7.513-7.439,8.765-9.886,1.252-2.447-.696-5.188-2.643-6.852-1.948-1.664-6.4-4.601-4.452-9.886,1.948-5.286,7.095-6.558,11.13-7.243s13.216-.685,15.999-3.328c2.782-2.643,1.809-7.145-2.087-7.243-3.895-.098-10.156,1.174-13.495-.49-3.339-1.664-9.043-8.222-9.321-10.179-.278-1.958-1.391-6.362,6.121-6.362s11.825-.881,16.973-2.153c5.147-1.272,9.878-1.468,10.851-.881.974.587,9.871,7.318,18.53,8.841s13.95,1.523,19.482,5.077c5.532,3.553,10.102,12.86,7.937,21.66-2.165,8.799-7.456,5.246-7.696,14.214-.241,8.968,6.013,10.999,9.861,10.999s46.179-7.276,40.888,6.092-8.899,20.137-3.367,22.675c5.532,2.539,12.266,3.892,18.76-3.046,6.494-6.938,15.153-19.967,19.722-21.49,4.57-1.523,6.982-11.812,25.599-9.583,18.617,2.229,19.013,14.213,34.462,2.787,15.448-11.426,21.786-21.18,29.312-29.541,7.526-8.361,17.825-16.721,28.124-10.869,10.299,5.852-1.584,11.426-5.149,15.885-3.565,4.459-7.13,9.197,3.961,13.935,11.091,4.738,6.338,10.312,3.565,15.885s-4.753,11.983-13.468,23.688c-8.714,11.705-27.332,22.853-25.351,39.574,1.981,16.721,8.714,14.771,11.091,18.393,2.377,3.623,5.15,8.64,9.111,12.541,3.961,3.902,4.753,6.688,5.15,11.147s3.169,4.738,5.546,7.803c2.377,3.065,3.565,5.853-1.981,10.033s-8.318,12.541-5.942,18.115c2.377,5.574,8.714,12.262-5.149,13.098-13.864.836-19.013,1.672-20.598,11.705s-3.169,11.426-9.903,14.77c-6.734,3.344-15.052,4.738-26.143,18.394-11.091,13.656-20.202,30.376-30.501,42.917-10.299,12.541-15.052,21.459-26.936,26.754-11.883,5.295-21.39,5.295-29.708,16.164-8.318,10.869-19.806,13.655-21.786,22.852-1.981,9.197,3.169,12.541,11.091,5.017,7.922-7.525,9.903-10.312,15.844-11.984,5.942-1.672,6.734-8.918,13.468-11.426,6.734-2.508,7.526-.558,16.241-.558s10.695-1.672,15.844-1.394c5.15.279,9.111.836,12.676,1.672,3.565.836,7.13-.836,11.091,10.869,3.961,11.705,10.299,8.639,16.241,6.131,5.942-2.508,13.072-5.295,14.26-6.967,1.188-1.672-5.942-3.902-6.734-6.131-.792-2.229-6.688-5.458,9.967-6.054,16.655-.596,18.349-3.376,24.559-4.369,6.21-.993,18.631-.596,25.97-.993,7.339-.397,25.406-1.39,31.051-1.787,5.646-.397,12.703-3.178,19.195-3.575,6.493-.397,18.631.794,23.712,2.78,5.081,1.986,8.469,2.383,11.291,4.965,2.823,2.582,16.87,11.03,14.637,20.191-2.232,9.162-10.79,19.371-7.441,27.224,3.349,7.853,14.51,19.109,31.998,26.962,17.487,7.853,18.975,7.068,28.649.786,9.674-6.283,30.137-14.136,16.743-1.571-13.394,12.565-2.977,9.686,4.837,8.115,7.813-1.571,13.022-5.759,17.487-8.115,4.465-2.356,3.721-8.638,4.465-10.732s5.209-3.927,16.371,1.047c11.162,4.974,11.162,9.947,26.789,11.518,15.627,1.57,27.161,7.853,14.883,16.753-12.278,8.9-13.766,6.021-22.324,6.806-8.557.785-18.603,7.33-24.184,14.921-5.581,7.591-5.209,3.403-15.999,2.618-10.79-.786-17.859,3.665-24.556,16.491-6.697,12.827-11.906,13.35-26.045,23.036-14.138,9.686-13.394,18.847-17.115,22.25-3.721,3.403-18.975,1.833-21.58,16.492-2.604,14.659,10.046,15.444,22.696,10.471,12.65-4.974,26.417-17.8,30.881-21.465,4.465-3.665,11.534-2.356,21.952,2.618,10.418,4.973,15.255-2.618,22.696-3.142,7.441-.523,19.347-.523,23.068,4.188,3.721,4.712,5.581,16.229-2.232,18.847-7.813,2.618-17.115,5.497-25.3,2.356s-11.162-6.021-14.883-6.282c-3.721-.262-11.906.168-11.742,11.8.164,11.632,6.875,14.972,3.11,26.375-3.765,11.402-4.911,15.548,6.384,13.705,11.295-1.843,7.858-3.801,17.188-3.916,9.331-.115,10.313,2.649,19.316-1.728s13.423-6.795,16.534,1.382c3.11,8.177,11.623,10.25,14.242,8.983,2.619-1.267,8.185-2.649,8.185-16.239s1.964-13.82,5.238-14.396c3.274-.576,13.751,0,22.427-7.371,8.676-7.371,10.64-13.475,8.185-14.972-2.455-1.498-5.566-.576-9.003.576-3.438,1.152-7.694,2.073-9.495-1.497s-3.11-5.183-8.021-8.523c-4.911-3.34-7.039-13.014-2.947-16.93,4.092-3.916,8.512-5.874,22.099-6.68s14.733-3.455,20.953-3.34c6.221.115,11.131.23,10.477,5.874-.655,5.644-3.274,10.135,1.31,10.135s4.747-4.031,8.185-3.686c3.438.345,4.42,1.037,9.167-1.612,4.747-2.649,7.53-8.868,16.042-7.256s15.388,6.45,25.864,3.686c10.477-2.764,12.768-8.177,21.281-9.329,8.512-1.151,18.007-3.8,18.662,8.292s-6.221,29.138-12.114,31.326c-5.893,2.188-9.658,3.225-6.221,7.486s3.765,2.764,12.605,9.099c8.84,6.334-23.167-4.967-20.881,5.329s11.89,18.983,12.805,25.097c.915,6.113-2.744,3.861,4.573,11.261,7.317,7.4,24.695,11.904,24.695,11.904,0,0,60.224,8.745,64.66,10.963s62.84,8.872,42.14-21.44c-20.7-30.311-45.837,25.875-32.529-44.358,13.307-70.233,65.798-41.401,37.704-70.233-28.093-28.833-39.922-.739-34.008-49.533S-239.598,1.754-204.851-38.907c34.747-40.661,74.669,8.872,95.37,12.568,20.7,3.696,53.969,26.615,66.537-1.479,12.568-28.093,25.136-38.444,15.525-54.708-9.611-16.265-11.829-28.093-5.175-46.576s28.833-6.654,28.833-14.786-5.914-12.568-5.914-25.136,5.679-13.211,10.972-16.956c7.24-5.122,14.675-7.139,24.591-5.553,9.916,1.586,23.797,5.156,39.266-2.776,15.468-7.932,34.903-9.122,42.042-11.105,7.139-1.983,45.215-15.468,53.148-15.865,7.932-.397,15.865-3.57,30.937-6.743,15.072-3.173,44.818-9.519,58.304,2.38,13.485,11.899,18.245,20.228,29.35,20.624,11.105.397,25.781,1.19,38.869,4.759s38.076-5.949,42.835-5.553,20.624,3.966,37.283-8.726c16.658-12.692,47.198-36.489,68.616-52.751,21.418-16.262,15.072-14.278,29.35-26.177s21.814-16.262,21.814-16.262c0,0,13.54-9.368,22.805-10.191" fill="none" stroke="#221f1f" stroke-linecap="round" stroke-miterlimit="10" stroke-width=".75"/>
    <path d="m541.041-309.401c-20.106-.551-29.688,25.059-29.688,25.059-2.38,4.363-11.502,32.92-13.089,38.472-1.586,5.553-7.932,20.624-33.316,30.143-25.384,9.519-14.675,17.451-36.489,25.384-21.814,7.932-43.629,20.624-52.354,22.211-8.726,1.586-19.831,5.156-28.954,3.173-9.122-1.983-18.245-4.363-43.629-.793-25.384,3.57-61.08,2.776-79.325-7.139-18.245-9.916-33.316-18.641-59.494-13.882-26.177,4.759-26.177,21.021-24.194,30.54s26.574,43.232,30.54,51.958,12.692,14.675,5.949,43.629c-6.743,28.954-11.502,61.477,4.759,63.46,16.262,1.983,27.367-1.586,35.696,1.586,8.329,3.173,26.97,6.346,29.35-5.156,2.38-11.502,1.983-17.451,19.435-39.662,17.451-22.211,29.35-34.506,47.991-23.797,18.641,10.709,47.198,26.177,45.612,49.975s-16.658,38.869,9.122,47.991c25.781,9.122,28.16,13.485,38.472,35.299,10.312,21.814,30.143,93.206,46.008,104.709,15.865,11.502,37.283,19.831,59.89,15.468,22.608-4.363,28.16-36.093,19.831-39.662-8.329-3.57-28.557,5.553-31.333-9.916-2.776-15.468,24.591-21.021,30.54-37.679,0,0,8.758-16.718-1.276-29.97-10.034-13.252,9.809-35.54,9.809-35.54" fill="none" stroke="#221f1f" stroke-linecap="round" stroke-miterlimit="10" stroke-width=".75"/>
    <path d="m540.73-139.322c-21.917,41.626-28.555,67.262-30.171,83.435-.344,3.447-4.01,20.846-12.692,41.249-7.932,18.642-26.97,27.764-58.303,19.435-31.333-8.329-40.852-54.337-36.886-80.514,3.966-26.177,13.882-14.279,54.337-64.65s39.266-57.907,42.042-74.565,16.658-28.954,20.625-34.506c0,0,12.107-14.963,20.734-14.117" fill="none" stroke="#221f1f" stroke-linecap="round" stroke-miterlimit="10" stroke-width=".75"/>
  </g>
  <path d="m-1622.626-523.986c61.078-6.289,78.21,52.003,78.012,61.468s.198,19.486,4.154,29.089,6.726,11.274,9.891,15.728c3.165,4.454,10.881,2.505,16.024.557,5.144-1.949,14.046-.696,18.2-.696s8.507,6.263,19.585,8.908,18.992,5.011,19.783,11.135-14.244,5.985-25.916,5.985-7.32,6.959-5.737,10.856,5.935,7.794,5.539,10.578c-.396,2.784.198,8.212,5.737,16.563,5.539,8.351,9.298,3.479,15.826-1.392,6.528-4.872,8.507.278,22.75,2.087,14.244,1.81,15.31-7.141,16.717-14.466,1.407-7.326,6.191-6.336,9.005-5.544s.844,3.96,16.04,5.544c15.196,1.583,21.95-10.89,29.548-26.729,7.598-15.839,22.794-46.527,22.794-51.675s7.598-4.95,7.598-14.453-1.688-14.849,8.724-17.621c10.412-2.772,16.04,5.742,21.669,14.849s1.97,15.641-2.533,20.393c-4.503,4.752-7.88,16.433-10.259,24.552-2.38,8.119-10.284,33.657-8.595,36.825s13.789,14.057,11.256,19.601c-2.533,5.544-2.661,13.268.281,17.027,2.943,3.759,19.699,16.631,28.704,21.581,9.005,4.95,15.759,4.158,22.794,9.306,7.035,5.147,3.377,13.859.563,16.829-2.814,2.97-1.006,4.788-17.509,6.078-16.504,1.291-20.905,9.805-22.005,20.384-1.1,10.579,11.003,2.838,13.937.258,2.934-2.581,15.037-3.871,7.335,2.838-7.702,6.708-3.301,11.353,4.401,13.159,7.702,1.806,10.636-6.451,20.171-12.127,9.536-5.676,14.67,1.291,19.438,4.645,4.768,3.354,2.934,15.482,8.069,30.964,5.134,15.481,13.203,4.128,15.404-1.807,2.201-5.935,2.934-18.836,3.301-25.287s7.335-14.45,6.602-18.836c-.733-4.387-.367-19.868.734-24.771,1.1-4.902,5.501-10.321,13.937-10.837,8.435-.516,10.269,8.257,10.636,11.095.367,2.838,4.768,3.612,6.235-4.128,1.467-7.741-1.467-10.837-4.401-16.772s2.934-9.805,12.103-9.547c9.169.258,23.472,2.322,36.308,2.581,12.836.258,12.836-5.935,11.003-14.45-1.834-8.515,1.179-11.787,3.782-14.076,2.603-2.29,3.471-6.868,4.556-10.531,1.085-3.664,3.471-13.126,11.064-21.827,7.593-8.7,7.593-16.179,9.979-23.505,2.386-7.326,14.969-9.921,23.43-9.311s19.525,5.342,12.366,13.89c-7.159,8.547,3.471,10.073,10.413,11.142,6.942,1.068,20.176-.306,28.202-10.837,8.027-10.532,13.45-12.363,20.826-11.295s6.291,5.953,6.074,7.937c-.217,1.984-9.762,3.968-3.471,7.479,6.291,3.51,14.535,1.526,24.081-.458s5.641-6.716,3.254-14.042,3.254-10.684,11.498-10.684,18.223,4.121,18.006,14.805c-.217,10.684-8.895,12.974-11.715,14.042s-11.281,0-27.552,10.531c-16.271,10.532,2.169,18.011-16.705,23.353-18.874,5.342-9.112,9.005.434,10.99,9.545,1.984,18.874.458,28.853,1.679,9.979,1.221,18.223,6.258,25.382,5.953,7.159-.305,10.847-7.174,10.847-11.447s1.085-9.311,4.773-9.921c3.688-.611,14.318-1.374,18.44,2.442,4.122,3.816,15.186,10.684,21.694,13.89,6.508,3.205,11.715,12.363,11.715,12.363,0,0,49.246,1.526,49.029-2.595-.217-4.121,2.169-5.953,10.847-11.6,8.678-5.647,3.471-9.31,1.302-15.263s-4.556-10.379-1.736-16.942c2.82-6.563,10.196-15.11,16.271-22.437,6.074-7.326-3.905-9.158-6.508-9.005-2.603.153-11.932.153-25.382-.458-13.45-.611-19.091-1.221-26.684-3.511-7.593-2.29-8.027-9.005-7.376-13.584.651-4.579,8.461-9.616,13.016-10.379s14.535-2.595,18.874-10.684c4.339-8.089,8.461-9.311,13.884-10.379,5.424-1.068,9.545,2.595,10.847,4.273,1.302,1.679,4.773,10.532,11.932,13.737,7.159,3.205,20.541,5.955,28.856,12.324,8.315,6.37,4.989,17.029,5.173,20.149.185,3.12-1.109,10.53-10.716,17.939-9.608,7.41-6.652,11.31-4.25,17.679s-2.402,6.11-6.652,11.959c-4.25,5.85-5.913,15.08-2.032,21.839,3.88,6.76,14.597,2.21,14.597,20.02s9.238,5.72,15.336,1.04c6.097-4.68,18.292-16.77,30.487-18.979,12.195-2.21,12.934,2.73,16.814,7.41,3.88,4.68,15.705-.13,21.248.65,5.543.78,17.738,10.4,21.618,13.129,3.88,2.73,2.032,9.49-5.913,11.83-7.945,2.34-13.119,8.58-14.781,10.79-1.663,2.21,2.587,3.51-6.282,7.67-8.869,4.16-9.054,6.5-8.13,9.62.924,3.12,2.402,7.41,1.663,9.229-.739,1.82-1.478,3.77-7.206,4.939-5.728,1.17-8.869,13.39-.924,20.149,7.945,6.76,15.89,3.12,17.738-.13,1.848-3.25,6.097-4.81,9.977-8.06,3.88-3.25,2.217-14.299,3.695-19.239,1.478-4.94,7.021-7.02,11.64-7.8,4.619-.78,7.76-3.38,10.717-7.02,2.956-3.64,7.76-7.8,13.673-8.32,5.912-.52,12.195,3.64,17.368,5.33,5.173,1.69,6.467.78,13.119,2.08,6.652,1.3,7.206,7.15,7.391,10.53.185,3.379-2.772,9.619-8.315,11.179-5.543,1.56-12.749,4.81-24.205,9.88-11.456,5.069-23.096,11.049-22.172,16.509.924,5.459,2.217,4.419,14.781,7.799,12.564,3.38,9.608,8.32,7.945,10.919-1.663,2.6-8.869,6.5-19.031,1.69-10.162-4.81-16.814-2.6-21.987-1.43-5.174,1.17-10.347,4.94-19.031,8.45s-13.303,2.6-25.313,3.12-16.629,5.07-14.412,14.95c2.217,9.879,7.021,10.009,14.597,15.729,7.575,5.72,8.869,8.06,8.684,12.609-.185,4.55.739,6.89,3.511,8.71,2.771,1.82,4.25,2.34,7.76,5.07,3.51,2.729,2.956,5.589,2.402,11.829-.554,6.24,4.989,4.03,7.206,2.21,2.217-1.82,4.804-3.12,10.162-4.81,5.358-1.69,6.652,3.77,6.467,5.85-.185,2.08,1.293,8.32,4.434,13.52,3.141,5.2.554,6.24-1.293,7.8-1.848,1.56-3.88,4.68-3.511,6.239.37,1.56-.554,3.64-6.467,7.28-5.913,3.64-4.989,9.75,4.989,6.24,9.978-3.51,8.869,1.43,8.315,4.03-.554,2.6-11.086,18.459,22.727,20.799,33.812,2.34,32.519-6.5,38.432-10.01,5.913-3.51,6.467-14.299,15.151-18.589,8.684-4.29,21.987-2.6,32.704,4.55,10.717,7.149,11.64,12.089,16.999,17.549,5.358,5.46,11.456,4.55,19.77,1.3,8.315-3.25,14.966-2.86,19.585,1.3,4.619,4.16.554,8.58-7.576,13.52-8.13,4.939-6.652,9.359-2.956,14.429,3.695,5.07,20.879,6.5,24.02,6.89,3.141.39,5.543,1.17,9.054,4.42,3.511,3.25,2.402,9.62-6.467,11.7-8.869,2.08-13.303,2.99-23.096,9.229-9.793,6.24-13.488,9.75-17.368,11.439-3.88,1.69-17.922,3.77-29.378,11.049-11.456,7.28-7.945,13.649-5.173,19.239s16.26,5.98,23.281,5.07c7.021-.91-.924-5.46,15.336-2.08,16.26,3.38,22.172,9.75,31.226,15.859,9.054,6.11,22.357,3.9,26.237,1.17,3.88-2.729,9.978-10.009,21.803-14.949,11.825-4.94,11.456-15.079,7.945-21.189-3.511-6.11-5.173-11.05-2.032-15.209,3.141-4.16,8.684-9.879,14.597-22.359s16.26-12.609,20.14-12.089c3.88.52,5.173,12.739,4.25,17.809s14.78,13.624-4.434,15.469c-19.215,1.846-22.357,4.81-23.096,10.53-.739,5.72,2.771,4.939,10.347,12.739,7.576,7.8,31.411,11.569,51.181,13.779s9.054,15.209,2.587,19.109c-6.467,3.9-12.01-.91-19.401-5.2-7.391-4.29-12.01-1.17-14.227.52-2.217,1.689-14.597,11.309-22.911,16.769s-24.02,14.299-26.791,16.769c-2.771,2.47-5.173,5.07-3.695,8.45s11.825,1.95,17.183-1.95c5.358-3.9,11.64-9.75,17.738-9.75s7.575,3.51,9.423,9.879c1.848,6.37,6.097,7.67,13.488,7.02,7.391-.65,10.717-7.279,10.347-12.089-.37-4.81-1.293-10.14,7.021-10.009,8.315.13,9.423,7.02,10.717,13.649,1.293,6.629-5.913,7.54-11.271,12.999-5.358,5.46,4.619,11.31,7.206,12.87,2.587,1.56,4.983-.107,10.943,9.327,5.96,9.434,12.664,8.91,20.114,6.813,0,0,76.409-26.038,76.409-65.645s22.554-58.311,23.104-77.564c.55-19.253,5.501-24.205,12.102-27.505,6.601-3.301,6.601-14.303,20.354-11.552,13.753,2.75,14.303-6.051,33.556-1.65,19.254,4.401,25.305,6.051,32.456,12.652s11.552,12.103,23.654,15.953c12.102,3.851,35.207,11.552,36.307-9.902,1.1-21.454-15.403-47.309,1.1-73.714,12.486-19.977,17.729-25.785,22.639-27.428.475-.159,2.315-.183,4.866-.627,3.719-.647,8.516-1.482,12.688-3.874,7.188-4.119,10.053-11.44,10.478-12.574,2.145-5.711.181-7.418,2.688-16.009,1.273-4.359,2.834-7.537,3.561-8.934,1.259-2.42,4.381-8.421,9.887-12.927,7.794-6.378,19.232-8.834,28.759-7.096,5.581,1.018,8.326,3.078,14.316,2.274,4.028-.54,5.987-1.9,10.704-3.837,4.607-1.892,8.934-2.905,17.587-4.93,13.256-3.102,30.761-4.741,47.183-6.96,38.77-5.24,60.715-12.258,69.48-11.3.835.091,3.744.495,6.746-.928,3.23-1.531,4.478-4.187,5.724-5.723,3.709-4.577,10.659-3.258,21.211-3.494,18.528-.414,20.989-5.015,32.642-2.23,8.149,1.948,12.994,5.644,13.049,8.093.005.202-.034.653.09,1.293.147.763.719,1.819,3.116,5.017,6.087,8.116,12.579,11.768,22.521,13.188,9.942,1.42,9.536,2.232,16.231,6.087,6.695,3.855,11.565,5.681,16.637,6.087,5.072.406,12.579,2.029,16.231,0,3.652-2.029,8.724-6.696,14.406-9.13,5.681-2.435,9.13-3.652,14-3.652s10.753,3.246,18.26,0c7.507-3.247,35.303-17.246,39.767-24.55,4.464-7.304,13.797-9.739,17.854-15.825,4.058-6.087-.406-19.478,8.319-20.695,8.724-1.217,21.709-.406,27.593-9.13,5.884-8.725,47.68-36.927,53.158-38.752,3.872-1.291,6.841-2.803,8.724-3.449" fill="none" stroke="#000" stroke-miterlimit="10" stroke-width=".75"/>
  <path d="m147.927,13.785c0-3.637-.369-12.73,9.601-12.99s11.078,5.975,8.124,8.573c-2.954,2.598-2.954,3.377-3.693,6.755s-8.493,10.912-11.816,7.794-2.216-10.132-2.216-10.132Z" fill="none" stroke="#231f20" stroke-miterlimit="10" stroke-width=".75"/>
  <path d="m135.747,146.419c2.737,1.156,15.329.193,18.34-3.852s1.095-11.94-5.748-12.903-15.329-2.311-17.245,7.703c-1.916,10.014,4.653,9.052,4.653,9.052Z" fill="none" stroke="#231f20" stroke-miterlimit="10" stroke-width=".75"/>
  <path d="m185.064,44.281c-7.411-3.4-10.534-12.732,1.621-14.822,12.155-2.09,16.476,3.801,15.396,6.461-1.08,2.66-1.08,8.171-5.132,8.741s-5.672,2.47-11.884-.38Z" fill="none" stroke="#231f20" stroke-linecap="round" stroke-miterlimit="10" stroke-width=".75"/>
  <g>
    <path d="m192.842,12.863c-.072.651-.659,1.113-1.309,1.026-.651-.084-1.111-.675-1.028-1.321.083-.645.669-1.101,1.308-1.019.639.086,1.1.671,1.029,1.313Z" fill="#231f20" stroke-width="0"/>
    <path d="m197.549,13.273c-.038.649-.605,1.145-1.267,1.106-.657-.059-1.14-.639-1.081-1.286.059-.649.625-1.12,1.264-1.062.637.037,1.122.594,1.085,1.243Z" fill="#231f20" stroke-width="0"/>
    <path d="m202.27,13.391c.022.655-.51,1.205-1.177,1.186-.669-.007-1.197-.541-1.178-1.191.019-.65.546-1.172,1.178-1.164.634.018,1.156.524,1.177,1.169Z" fill="#231f20" stroke-width="0"/>
    <path d="m206.961,12.886c.143.645-.296,1.251-.978,1.372-.681.111-1.287-.38-1.35-1.019-.065-.655.385-1.209.987-1.308.6-.108,1.202.33,1.341.956Z" fill="#231f20" stroke-width="0"/>
    <path d="m211.594,12.021c.003.669-.454,1.152-1.009,1.26-.554.058-1.172-.302-1.321-.948-.144-.621.251-1.298.993-1.385.728-.131,1.336.441,1.336,1.073Z" fill="#231f20" stroke-width="0"/>
    <path d="m216.264,12.643c-.149.633-.765,1.035-1.377.898-.605-.111-1.02-.699-.935-1.347.085-.642.715-1.088,1.39-.964.658.147,1.071.781.922,1.414Z" fill="#231f20" stroke-width="0"/>
    <path d="m220.835,13.839c-.148.63-.798,1.027-1.461.838-.638-.175-.981-.814-.815-1.444s.84-.992,1.458-.823c.588.168.969.792.819,1.428Z" fill="#231f20" stroke-width="0"/>
    <path d="m225.478,14.71c-.094.646-.701,1.089-1.356.979-.656-.106-1.088-.728-.967-1.365.122-.642.724-1.061,1.353-.959.628.105,1.064.703.971,1.344Z" fill="#231f20" stroke-width="0"/>
    <path d="m230.17,15.262c-.055.648-.634,1.123-1.292,1.061-.658-.07-1.128-.656-1.051-1.301.077-.647.655-1.111,1.29-1.043.637.06,1.108.635,1.053,1.283Z" fill="#231f20" stroke-width="0"/>
    <path d="m234.887,15.533c-.016.653-.566,1.165-1.228,1.134-.662-.023-1.165-.588-1.126-1.236.04-.65.588-1.14,1.227-1.117.638.03,1.143.572,1.126,1.219Z" fill="#231f20" stroke-width="0"/>
    <path d="m239.611,15.509c.028.648-.488,1.206-1.152,1.214-.664.016-1.202-.507-1.203-1.161,0-.647.515-1.179,1.152-1.195.637-.007,1.175.49,1.203,1.142Z" fill="#231f20" stroke-width="0"/>
    <path d="m244.319,15.13c.083.64-.387,1.248-1.052,1.305-.664.062-1.242-.41-1.291-1.063-.048-.644.423-1.222,1.054-1.281.632-.054,1.204.388,1.289,1.039Z" fill="#231f20" stroke-width="0"/>
    <path d="m248.967,14.296c.157.629-.248,1.273-.907,1.415-.661.128-1.287-.289-1.397-.929-.111-.641.299-1.258.916-1.376.612-.132,1.231.257,1.389.891Z" fill="#231f20" stroke-width="0"/>
    <path d="m253.453,12.83c.266.604-.041,1.29-.682,1.539-.64.249-1.331-.105-1.525-.718-.2-.627.128-1.265.7-1.489.572-.223,1.249.082,1.507.668Z" fill="#231f20" stroke-width="0"/>
    <path d="m257.523,10.457c.406.499.291,1.277-.295,1.672-.594.377-1.332.225-1.655-.354-.311-.557-.163-1.284.342-1.602.492-.332,1.193-.226,1.608.284Z" fill="#231f20" stroke-width="0"/>
    <path d="m260.624,6.933c.568.293.752,1.083.319,1.678-.218.287-.52.467-.824.509-.318.031-.629-.066-.872-.283s-.375-.507-.403-.789c-.042-.294.01-.584.187-.814.333-.455,1.005-.607,1.593-.302Z" fill="#231f20" stroke-width="0"/>
    <path d="m261.805,2.401c.642.031,1.149.618,1.053,1.33-.089.718-.758,1.168-1.385.999-.629-.17-1.018-.739-.949-1.314.079-.577.624-1.046,1.281-1.014Z" fill="#231f20" stroke-width="0"/>
    <path d="m261.798-2.323c.649-.008,1.184.507,1.197,1.156.012.65-.508,1.195-1.158,1.2-.651.005-1.185-.504-1.198-1.156-.013-.652.506-1.192,1.158-1.2Z" fill="#231f20" stroke-width="0"/>
    <path d="m348.139,4.377c-.624-.179-.99-.829-.818-1.45.173-.621.822-.988,1.45-.819.628.169.995.818.819,1.451-.176.632-.825.999-1.452.819Z" fill="#231f20" stroke-width="0"/>
    <path d="m346.832,8.917c-.626-.175-.993-.833-.81-1.458.181-.627.835-.988,1.459-.806.625.182.985.834.805,1.457-.183.623-.828.982-1.454.808Z" fill="#231f20" stroke-width="0"/>
    <path d="m345.677,13.499c-.637-.129-1.04-.766-.898-1.423.161-.645.806-1.033,1.435-.871.63.163,1.012.795.857,1.413-.132.616-.757,1.01-1.395.881Z" fill="#231f20" stroke-width="0"/>
    <path d="m345.075,18.177c-.653-.01-1.185-.589-1.104-1.273.063-.688.637-1.168,1.292-1.073.632.092,1.111.663,1.055,1.27-.075.609-.596,1.086-1.243,1.076Z" fill="#231f20" stroke-width="0"/>
    <path d="m345.625,22.85c-.634.199-1.263-.212-1.417-.913-.179-.698.326-1.329.967-1.396.653-.069,1.189.362,1.342.926.126.57-.285,1.19-.892,1.383Z" fill="#231f20" stroke-width="0"/>
    <path d="m347.779,27.038c-.552.344-1.306.14-1.622-.396-.339-.553-.165-1.313.408-1.623.572-.309,1.268-.152,1.608.405.345.585.158,1.27-.395,1.614Z" fill="#231f20" stroke-width="0"/>
    <path d="m350.522,30.88c-.497.42-1.246.333-1.672-.196-.417-.535-.291-1.299.236-1.67.536-.379,1.245-.26,1.628.229.392.484.306,1.217-.191,1.636Z" fill="#231f20" stroke-width="0"/>
    <path d="m353.798,34.278c-.426.479-1.208.532-1.68.045-.482-.476-.49-1.227-.019-1.676s1.212-.458,1.655-.019c.434.448.484,1.156.044,1.649Z" fill="#231f20" stroke-width="0"/>
    <path d="m357.509,37.197c-.365.539-1.118.675-1.656.267-.547-.396-.652-1.144-.244-1.659.401-.504,1.129-.607,1.637-.241.498.379.627,1.094.263,1.632Z" fill="#231f20" stroke-width="0"/>
    <path d="m361.559,39.625c-.295.573-1.029.808-1.611.469-.586-.331-.786-1.054-.446-1.616.334-.551,1.048-.749,1.595-.44.542.317.763,1.004.462,1.588Z" fill="#231f20" stroke-width="0"/>
    <path d="m365.859,41.576c-.233.606-.931.907-1.548.643-.622-.253-.892-.97-.623-1.557.273-.596.951-.851,1.536-.615.579.248.869.92.635,1.528Z" fill="#231f20" stroke-width="0"/>
    <path d="m369.899,44.013c-.357.544-1.081.699-1.617.347-.545-.338-.712-1.059-.369-1.612.342-.553,1.075-.722,1.635-.375.551.362.708,1.096.352,1.64Z" fill="#231f20" stroke-width="0"/>
    <path d="m373.798,46.682c-.379.522-1.116.652-1.642.285-.526-.368-.654-1.101-.287-1.638.367-.537,1.104-.666,1.644-.288.541.378.67,1.11.284,1.641Z" fill="#231f20" stroke-width="0"/>
    <path d="m377.555,49.547c-.408.507-1.147.596-1.65.199-.502-.399-.594-1.136-.204-1.652.396-.522,1.138-.616,1.655-.205.519.408.608,1.151.2,1.657Z" fill="#231f20" stroke-width="0"/>
    <path d="m381.162,52.598c-.434.484-1.175.534-1.655.11-.475-.429-.546-1.152-.124-1.654.415-.494,1.177-.568,1.668-.125.495.437.545,1.185.111,1.669Z" fill="#231f20" stroke-width="0"/>
    <path d="m384.603,55.836c-.46.46-1.203.469-1.658.02-.454-.451-.483-1.179-.035-1.657.442-.471,1.204-.502,1.673-.035.471.464.48,1.213.02,1.673Z" fill="#231f20" stroke-width="0"/>
    <path d="m387.859,59.259c-.486.433-1.229.402-1.661-.07-.428-.475-.409-1.21.061-1.659.471-.449,1.227-.43,1.67.062.447.488.415,1.235-.07,1.668Z" fill="#231f20" stroke-width="0"/>
    <path d="m390.907,62.869c-.513.406-1.238.319-1.651-.169-.408-.492-.337-1.232.159-1.654.496-.421,1.24-.35,1.663.16.427.506.336,1.262-.171,1.663Z" fill="#231f20" stroke-width="0"/>
    <path d="m393.735,66.653c-.529.37-1.256.246-1.635-.269-.372-.52-.264-1.25.255-1.64.521-.392,1.267-.281,1.652.257.393.533.265,1.276-.271,1.652Z" fill="#231f20" stroke-width="0"/>
    <path d="m396.331,70.6c-.553.343-1.272.177-1.606-.369-.353-.534-.207-1.253.336-1.614.541-.359,1.283-.209,1.648.343.345.563.176,1.298-.377,1.64Z" fill="#231f20" stroke-width="0"/>
    <path d="m398.723,74.674c-.569.315-1.284.116-1.596-.444-.309-.562-.114-1.281.441-1.608.565-.334,1.287-.138,1.605.439.321.576.12,1.298-.449,1.613Z" fill="#231f20" stroke-width="0"/>
    <path d="m400.928,78.852c-.583.29-1.291.06-1.583-.512-.292-.572-.062-1.283.513-1.587.575-.304,1.284-.075,1.583.512.299.587.069,1.297-.513,1.587Z" fill="#231f20" stroke-width="0"/>
    <path d="m402.962,83.117c-.594.267-1.296.01-1.568-.572s-.018-1.282.57-1.562c.587-.28,1.289-.024,1.568.572.279.596.023,1.295-.57,1.562Z" fill="#231f20" stroke-width="0"/>
    <path d="m404.828,87.458c-.601.245-1.281-.042-1.541-.631-.254-.591.023-1.28.62-1.538s1.292.022,1.552.626c.265.602-.027,1.296-.631,1.542Z" fill="#231f20" stroke-width="0"/>
    <path d="m406.544,91.86c-.611.227-1.282-.081-1.508-.685-.238-.599.06-1.277.666-1.515.605-.238,1.292.064,1.535.674.23.615-.084,1.299-.692,1.526Z" fill="#231f20" stroke-width="0"/>
    <path d="m408.132,96.311c-.616.209-1.283-.116-1.491-.727-.202-.613.104-1.278.719-1.499.61-.219,1.3.099,1.505.722.211.621-.117,1.294-.733,1.504Z" fill="#231f20" stroke-width="0"/>
    <path d="m409.601,100.801c-.621.194-1.282-.149-1.476-.765-.194-.616.15-1.28.768-1.482.618-.203,1.279.14,1.476.765.197.625-.147,1.289-.768,1.482Z" fill="#231f20" stroke-width="0"/>
    <path d="m410.961,105.326c-.625.179-1.279-.179-1.461-.799-.181-.62.177-1.275.8-1.462.623-.188,1.277.17,1.461.799.184.629-.174,1.283-.8,1.462Z" fill="#231f20" stroke-width="0"/>
    <path d="m412.22,109.881c-.629.166-1.277-.206-1.447-.83s.201-1.27.828-1.443c.627-.173,1.275.198,1.447.83.172.632-.199,1.278-.828,1.443Z" fill="#231f20" stroke-width="0"/>
    <path d="m413.38,114.461c-.631.153-1.264-.234-1.426-.86-.159-.627.223-1.265.854-1.426.631-.16,1.272.224,1.433.858.164.634-.227,1.273-.86,1.427Z" fill="#231f20" stroke-width="0"/>
    <path d="m414.449,119.064c-.635.141-1.262-.256-1.402-.888-.149-.63.244-1.26.878-1.408.633-.148,1.269.248,1.419.884.141.638-.26,1.271-.895,1.412Z" fill="#231f20" stroke-width="0"/>
    <path d="m415.439,123.684c-.637.131-1.26-.277-1.39-.912-.128-.635.276-1.258.91-1.395.638-.137,1.266.27,1.396.91.132.64-.278,1.265-.915,1.396Z" fill="#231f20" stroke-width="0"/>
    <path d="m416.357,128.319c-.639.121-1.257-.297-1.379-.933-.123-.636.296-1.254.934-1.38.638-.126,1.256.292,1.379.933s-.294,1.26-.934,1.38Z" fill="#231f20" stroke-width="0"/>
    <path d="m417.204,132.968c-.639.111-1.251-.316-1.367-.953-.115-.637.311-1.249.95-1.365s1.253.31,1.369.953c.117.643-.31,1.254-.953,1.366Z" fill="#231f20" stroke-width="0"/>
    <path d="m417.98,137.629c-.642.103-1.246-.333-1.348-.973-.104-.639.325-1.244.968-1.352.641-.107,1.252.327,1.357.972.103.645-.335,1.251-.977,1.353Z" fill="#231f20" stroke-width="0"/>
    <path d="m418.699,142.299c-.644.094-1.243-.348-1.34-.99s.347-1.241.99-1.34c.643-.099,1.243.344,1.34.99.097.646-.346,1.246-.99,1.34Z" fill="#231f20" stroke-width="0"/>
    <path d="m419.36,146.978c-.646.087-1.236-.363-1.325-1.005-.091-.642.357-1.237,1.001-1.328.644-.092,1.24.358,1.332,1.005.09.646-.364,1.241-1.008,1.329Z" fill="#231f20" stroke-width="0"/>
    <path d="m419.974,151.663c-.646.081-1.236-.375-1.318-1.019s.374-1.234,1.019-1.318,1.235.372,1.318,1.019-.373,1.237-1.019,1.318Z" fill="#231f20" stroke-width="0"/>
    <path d="m420.545,156.354c-.646.076-1.232-.385-1.309-1.029-.076-.645.383-1.231,1.028-1.31.646-.079,1.234.382,1.311,1.029.077.647-.384,1.233-1.03,1.31Z" fill="#231f20" stroke-width="0"/>
    <path d="m421.096,161.047c-.646.076-1.231-.386-1.307-1.033-.076-.647.387-1.231,1.033-1.307.646-.076,1.231.387,1.307,1.033.075.646-.387,1.231-1.033,1.307Z" fill="#231f20" stroke-width="0"/>
    <path d="m421.694,165.734c-.647.1-1.24-.353-1.332-1.01-.087-.654.373-1.244,1.018-1.325s1.232.376,1.317,1.012c.089.631-.364,1.224-1.003,1.323Z" fill="#231f20" stroke-width="0"/>
    <path d="m422.486,170.393c-.644.111-1.251-.324-1.357-.967-.105-.646.325-1.247.966-1.356.642-.11,1.253.328,1.357.967.105.641-.328,1.246-.966,1.356Z" fill="#231f20" stroke-width="0"/>
    <path d="m423.552,174.991c-.617.206-1.278-.163-1.474-.825-.179-.661.236-1.311.865-1.449.641-.142,1.25.247,1.411.842.175.585-.185,1.227-.802,1.433Z" fill="#231f20" stroke-width="0"/>
    <path d="m425.537,179.263c-.542.346-1.327.178-1.628-.456-.322-.621-.099-1.341.495-1.607.594-.266,1.301-.049,1.577.486.253.547.111,1.223-.443,1.577Z" fill="#231f20" stroke-width="0"/>
    <path d="m428.471,182.951c-.457.446-1.249.452-1.694-.073-.439-.532-.378-1.29.135-1.69s1.243-.343,1.63.13c.395.469.403,1.171-.071,1.633Z" fill="#231f20" stroke-width="0"/>
    <path d="m431.985,186.104c-.405.525-1.143.587-1.658.151-.515-.436-.579-1.183-.145-1.667s1.174-.549,1.652-.143c.477.405.54,1.155.151,1.66Z" fill="#231f20" stroke-width="0"/>
    <path d="m435.853,188.816c-.353.546-1.093.698-1.651.339-.561-.355-.677-1.132-.304-1.653.385-.537,1.084-.639,1.623-.299.536.344.685,1.066.331,1.612Z" fill="#231f20" stroke-width="0"/>
    <path d="m439.894,191.261c-.321.566-1.045.759-1.618.431-.573-.328-.764-1.045-.426-1.602.337-.556,1.062-.749,1.618-.43.556.318.747,1.035.426,1.602Z" fill="#231f20" stroke-width="0"/>
    <path d="m444.053,193.502c-.297.579-1.011.803-1.594.5-.584-.303-.806-1.012-.497-1.584.309-.572,1.023-.796,1.594-.5.571.296.794,1.006.497,1.584Z" fill="#231f20" stroke-width="0"/>
    <path d="m448.292,195.59c-.279.588-.985.836-1.577.555-.592-.281-.839-.982-.551-1.565s.994-.832,1.577-.555c.583.277.83.978.551,1.566Z" fill="#231f20" stroke-width="0"/>
    <path d="m452.597,197.533c-.256.598-.958.875-1.566.619-.613-.249-.875-.95-.6-1.547.27-.585.965-.845,1.559-.605.591.248.862.934.606,1.532Z" fill="#231f20" stroke-width="0"/>
    <path d="m456.973,199.314c-.225.604-.92.938-1.532.692-.609-.255-.904-.951-.659-1.554.244-.603.922-.89,1.512-.642.595.239.908.888.679,1.504Z" fill="#231f20" stroke-width="0"/>
    <path d="m461.428,200.89c-.199.619-.864.943-1.486.724-.622-.22-.951-.896-.735-1.51.216-.614.881-.938,1.486-.724.605.214.934.89.735,1.51Z" fill="#231f20" stroke-width="0"/>
    <path d="m465.96,202.226c-.172.627-.823.985-1.456.799-.632-.186-.992-.842-.804-1.464.188-.623.84-.981,1.456-.8.616.181.976.837.804,1.465Z" fill="#231f20" stroke-width="0"/>
    <path d="m470.542,203.377c-.146.634-.782,1.023-1.423.869s-1.029-.79-.868-1.42.798-1.02,1.423-.869,1.013.786.868,1.42Z" fill="#231f20" stroke-width="0"/>
    <path d="m475.166,204.345c-.12.639-.741,1.057-1.387.933-.646-.124-1.061-.74-.927-1.377.135-.636.756-1.054,1.387-.933.632.121,1.046.738.927,1.377Z" fill="#231f20" stroke-width="0"/>
    <path d="m479.824,205.132c-.094.644-.698,1.088-1.35.993s-1.09-.693-.981-1.334.713-1.086,1.35-.993c.636.093,1.076.69.981,1.334Z" fill="#231f20" stroke-width="0"/>
    <path d="m484.509,205.738c-.069.647-.656,1.116-1.31,1.048-.656-.059-1.115-.665-1.03-1.311.084-.644.667-1.086,1.308-1.029.64.066,1.102.645,1.033,1.291Z" fill="#231f20" stroke-width="0"/>
    <path d="m489.215,206.162c-.044.649-.613,1.142-1.269,1.1-.657-.034-1.138-.639-1.08-1.279.06-.655.624-1.102,1.266-1.069.642.041,1.126.6,1.082,1.249Z" fill="#231f20" stroke-width="0"/>
    <path d="m493.933,206.4c-.018.65-.567,1.165-1.225,1.149-.658-.014-1.162-.594-1.129-1.238.034-.656.581-1.13,1.223-1.116.643.015,1.148.555,1.13,1.205Z" fill="#231f20" stroke-width="0"/>
    <path d="m498.657,206.445c.009.65-.518,1.186-1.177,1.196-.659.02-1.186-.54-1.179-1.185.007-.656.535-1.151,1.177-1.171.642-.01,1.17.509,1.179,1.16Z" fill="#231f20" stroke-width="0"/>
    <path d="m503.379,206.284c.04.649-.463,1.206-1.122,1.242-.659.038-1.21-.461-1.231-1.118-.02-.643.482-1.198,1.122-1.235.64-.036,1.191.462,1.23,1.111Z" fill="#231f20" stroke-width="0"/>
    <path d="m508.087,205.895c.076.646-.397,1.223-1.055,1.288-.658.065-1.236-.408-1.289-1.056-.053-.648.419-1.225,1.055-1.288.636-.063,1.213.41,1.289,1.056Z" fill="#231f20" stroke-width="0"/>
    <path d="m512.756,205.182c.129.632-.299,1.278-.958,1.385-.658.097-1.269-.346-1.364-.989-.095-.644.338-1.24.967-1.333.625-.102,1.223.294,1.355.937Z" fill="#231f20" stroke-width="0"/>
    <path d="m517.311,203.957c.249.587-.098,1.35-.759,1.51-.659.188-1.324-.172-1.485-.802-.161-.63.188-1.278.781-1.446.608-.145,1.206.125,1.463.738Z" fill="#231f20" stroke-width="0"/>
    <path d="m521.544,201.866c.316.568.101,1.288-.482,1.602-.586.307-1.301.085-1.597-.494-.296-.579-.076-1.29.49-1.586.562-.303,1.272-.092,1.588.478Z" fill="#231f20" stroke-width="0"/>
    <path d="m525.598,199.44c.356.544.19,1.275-.371,1.631-.563.353-1.298.169-1.629-.388-.334-.562-.156-1.273.383-1.612.537-.341,1.261-.176,1.617.368Z" fill="#231f20" stroke-width="0"/>
    <path d="m529.457,196.716c.395.514.292,1.265-.243,1.659-.541.387-1.282.269-1.655-.265-.373-.533-.256-1.265.261-1.635.512-.377,1.239-.277,1.637.24Z" fill="#231f20" stroke-width="0"/>
    <path d="m533.102,193.71c.435.484.381,1.23-.122,1.666-.498.442-1.255.369-1.667-.133-.413-.503-.343-1.231.132-1.654.48-.417,1.222-.363,1.657.121Z" fill="#231f20" stroke-width="0"/>
    <path d="m536.505,190.434c.474.454.474,1.199.002,1.668-.471.469-1.217.469-1.667-.001-.45-.47-.449-1.215.001-1.665.451-.449,1.198-.448,1.663-.002Z" fill="#231f20" stroke-width="0"/>
    <path d="m539.658,186.916c.506.419.558,1.161.123,1.663s-1.18.555-1.664.119c-.483-.436-.537-1.179-.119-1.66.417-.481,1.164-.533,1.66-.123Z" fill="#231f20" stroke-width="0"/>
  </g>
  <path d="m-1835.018-805.79c7.047,2.576,14.193,5.771,20.042,9.603,14.295,9.367,26.668,15.431,35.546,20.955s6.574,9.318,10.335,12.762c3.761,3.444,10.675,4.084,21.493,18.352,10.818,14.268-2.029,9.419,9.529,25.375,11.558,15.957,6.816,16.082,5.993,23.254s2.248,13.229-3.658,29.204c-5.906,15.975,4.013,24.952,11.951,35.626,7.938,10.674,6.974,19.685,17.126,32.705,10.152,13.02,4.552,9.435,12.349,21.947,7.797,12.513,7.94,22.697-.03,37.208-7.969,14.511,12.011,30.874,11.461,43.422s-14.557,25.109-22.537,33.011c-7.98,7.901-3.842,7.07,1.773,7.07,5.615,0,9.457.208,14.481,3.327,5.024,3.119,4.729,7.07-2.364,8.733-7.093,1.663-6.797-1.04-20.983,0-14.186,1.04-3.842,14.763,5.024,19.545,8.866,4.782,9.753,9.565,6.797,13.307-2.955,3.743-9.753,6.238-7.093,9.149s1.278,8.542,1.278,8.542c-.452,3.177-4.064,3.177-6.321,5.401s-1.355,8.26-4.515,13.978c-3.161,5.718,3.161,5.083,8.579,14.931s-8.579,11.754-14.901,13.66c-6.321,1.906-24.617,12.1-29.65,17.53-5.034,5.43-37.585,37.54-40.27,44.387-2.685,6.847-12.01,19.917-14.306,26.581-2.296,6.663-1.435,30.692-3.444,36.75-2.009,6.058.574,6.663,6.314,7.067s9.184,2.625,9.184,5.25-.861,5.048,1.722,8.279c2.583,3.231,1.148,5.25-2.009,5.654s-4.305,4.442-7.175,6.865-14.637,2.827-22.673,3.635-3.731,6.461.861,9.086,2.87.606,10.906-2.019c8.036-2.625,8.897-1.615,11.193-4.24s12.915-11.106,16.646-14.134c3.731-3.029,2.296-9.692-.861-12.317s0-5.048,2.296-12.923c2.296-7.875,1.722-5.856,1.722-12.115s12.915-4.644,19.229-5.654c6.314-1.01,8.61-4.644,12.628-9.49,4.018-4.846,13.489-20.394,18.942-21s14.063,9.692,18.655,13.327c4.592,3.635,14.637,8.683,18.942,10.904,4.305,2.221,6.027,8.885,9.471,14.336s3.157,11.308,11.767,17.163c8.61,5.856,6.601,8.885,8.036,11.308s0,3.433,6.601,6.058,6.601,4.24,6.314,6.26-4.592,8.077-5.453,15.548c-.861,7.471,3.444,7.471,10.045,7.673,6.601.202,9.758,2.221,12.628,6.461,2.87,4.24-1.722,21.807-1.722,26.654s-4.592,17.163-6.314,21.404c-1.722,4.24-7.462,9.894-8.323,13.327s6.314,12.115,9.471,20.596-4.592,16.356-3.731,23.019-6.601,12.519-8.897,16.356c-2.296,3.836,0,12.923-.287,18.981s2.009,15.144,4.305,18.577c2.296,3.433,13.202,6.865,18.368,9.692,5.166,2.827,17.22,3.635,20.664,4.038s10.332-2.221,14.924-8.279c4.592-6.058,12.054-11.509,16.646-13.731,4.592-2.221,7.749-7.269,7.175-11.308-.574-4.038,2.87-9.692,6.601-14.336,3.731-4.644,12.915-11.711,13.776-14.134.861-2.423-3.157-11.711,4.305-16.558,7.462-4.846,11.193-13.327,13.776-19.384s1.148-13.125,8.897-32.913c7.749-19.788,12.546-20.798,17.784-24.22s1.497-7.897,8.979-13.951,11.972-5.264,14.591-2.632,7.108,7.37,16.836,8.949c9.727,1.579,11.972-3.685,18.706-5.264,6.734-1.579,10.476.79,18.706,1.579,8.231.79,4.864,7.37,5.238,10.529s2.993,5.791,3.741,8.16,3.741,3.685,1.871,5.528c-1.871,1.843-8.231,6.844-17.958,16.583-9.727,9.739-2.993,15.53.748,23.426,3.741,7.897,13.843,10.792,15.339,15.793s-10.476,15.003-15.339,19.215c-4.864,4.212-8.979,11.055-11.224,16.056s-8.605,13.687-16.836,28.164c-8.231,14.477-9.353,10.002-14.591,13.161s-5.238,13.424-8.605,19.215-4.49,5.528-24.318,14.477c-19.829,8.949-10.85,14.477-9.727,20.794,1.122,6.317,11.224,7.633,15.713,8.16s12.72-8.423,16.462-7.107c3.741,1.316,2.245,7.633,1.871,11.845-.374,4.212-5.986,18.952-5.612,23.426s2.982,14.417,1.845,25.014c-1.137,10.598-5.684,29.593-21.884,33.192-16.2,3.599-24.157,3.199-38.936,12.797-14.779,9.598-17.905,20.795-2.842,22.795,15.063,2,29.354,12.125,32.143,12.91,2.79.785,5.859-2.748,14.507,3.729,8.648,6.477,7.533,5.103,8.369,2.552s6.696-5.888-.279-4.318c-6.975,1.57-10.322-5.3-7.533-8.44,2.79-3.14-2.232-5.888-5.859-7.262-3.627-1.374-8.369-1.963-8.648-9.421-.279-7.459,3.906-12.169,11.438-10.01s12.554,6.085,10.043,1.178c-2.511-4.907,1.116-14.721,10.601-18.254s18.238-8.631,22.38-10.751c4.142-2.119,4.895-.397,7.907-11.259,3.012-10.861.565-12.848-3.012-16.027-3.577-3.179-5.083-9.404-3.954-12.583s3.389-27.683,2.636-33.776c-.753-6.093,3.954-11.391,8.66-14.835,4.707-3.444,6.777-11.788,7.342-15.63.565-3.841-5.648-9.934,7.719-20.795s15.814-19.868,15.438-26.226-3.577-8.742,1.694-14.305c5.271-5.563,8.66-8.212,8.848-11.523s-12.049-9.404.565-15.1c12.614-5.696,18.638,2.119,21.839,6.093,3.2,3.974,13.941,10.933,19.639,12.573s13.208-1.64,18.388-6.013c5.18-4.373,12.69-9.657,20.719-14.03s9.324-11.297,14.144-19.131c4.821-7.834,11.754-18.404,20.819-23.506,9.065-5.102,19.942-5.466,25.122-5.102s7.77,3.644,5.698,6.377c-2.072,2.733-7.77,5.466-17.87,9.111-10.1,3.644-13.726,9.657-12.69,11.662s14.244-.182,22.532-3.28c8.288-3.098,14.244-4.191,21.496-1.093,7.252,3.098,3.108,10.022,2.849,12.39s-5.698,2.004-9.065,14.212c-3.367,12.208-8.029,13.666-12.431,18.586-4.403,4.92-6.734,13.484,4.144,19.679,10.877,6.195,10.618,5.466,5.957,15.124-4.662,9.657,1.036,10.204,10.359,19.497s15.539,9.111,18.906,9.111c3.367,0,4.921-1.275,11.395,4.009,6.475,5.284,9.841,1.275,8.288-2.733-1.554-4.009-8.029-10.568-10.1-15.852-2.072-5.284,15.28-10.386,20.201-16.217,4.921-5.831.518-16.035-3.367-22.23s-6.993-9.839-8.029-15.124-8.806-6.56-11.654-11.844c-2.849-5.284,4.403-8.382,14.762-18.039,10.359-9.657,20.978-35.713,21.496-44.642.518-8.928-10.359-8.017-17.352-8.017-6.993,0-18.129.729-18.647-12.208s-.518-15.124,13.467-24.052c13.985-8.928,5.439-14.395,3.108-19.314-2.331-4.92,4.144-5.284,6.216-11.297,2.072-6.013,1.295-11.297,10.359-13.119s9.324-4.737,5.439-10.568c-3.885-5.831-10.877-17.492-15.021-22.959-4.144-5.466,4.662-34.256,16.575-39.175s2.59-3.28,12.69-11.115c10.1-7.835,10.1-.182,8.806,7.471-1.295,7.653-1.295,17.492-1.554,21.136-.259,3.644,3.885,2.369,6.475,1.093,2.59-1.275,3.626-3.098,13.985,1.093,10.359,4.191,8.288,22.412,9.065,28.972.777,6.56.518,7.471,7.511,20.408,6.993,12.937,3.367,17.492,1.813,20.225s-1.295,10.386-1.036,17.492c.259,7.106-4.921,12.208-20.978,22.23-16.057,10.022-22.532,16.581-28.23,25.327s-7.511,18.039-9.841,22.412-3.885,11.844-8.288,18.768c-4.403,6.924-2.28,8.005-4.906,16.934-2.626,8.929,2.188,19.398,4.376,24.94s9.19,11.7,10.503,20.013-8.315,14.779-16.192,25.864c-7.877,11.084-4.376,20.013-7.002,27.403s-7.44,20.321-12.254,24.324c-4.814,4.003-7.877,6.774-11.378,9.545s-7.44,10.161-25.383,12.316c-17.943,2.155-17.943,7.39-24.07,9.237s-3.063-3.079-5.252-16.934c-2.188-13.855-1.751-12.932,8.315-13.855s4.376-12.932,7.002-19.09-5.252-14.471-.438-18.166,14.442-11.084,3.063-11.7-21.006-12.008-15.755-20.321-2.626-9.853-5.252-15.395c-2.626-5.542,5.689-8.621,12.254-22.477,6.565-13.855-11.816-13.548-13.129-11.392s-18.983,7.26-30.241,8.646c-11.258,1.386-11.821,3.366-20.827,6.139-9.006,2.772-25.894,19.01-30.115,24.752-4.222,5.743.844,9.505,3.377,12.277,2.533,2.772,7.881,4.554,8.162,9.901s-1.407,12.277-4.785,14.257c-3.377,1.98-6.755-2.178-10.695-4.158-3.94-1.98-9.288-.792-18.294,1.782-9.006,2.574-14.354,7.327-18.576,12.673-4.222,5.346,3.377,16.435,2.533,17.624s-2.252,5.148-6.192,10.099-6.755,1.782-5.911-.792,1.97-6.733-4.785-5.743c-6.755.99-8.444,6.337-15.761,10.891-7.318,4.554-17.45,14.059-11.821,13.465s17.169-8.119,22.798-9.703,11.821,7.525,19.139,9.109c7.318,1.584,25.331-13.267,28.99-14.851s5.066-3.366,13.51-5.743c8.444-2.376,12.102-3.762,19.42-11.485s5.066-18.614,3.94-27.524-7.599-16.237-10.414-20-8.444-8.119-2.252-16.435c6.192-8.317,15.48-4.356,20.546-7.129,5.066-2.772,3.659-9.307,9.006-12.079,5.348-2.772,15.48-4.554,22.235-1.386s4.222,6.337,4.222,9.307-4.222,8.317-4.503,13.069,5.911,8.713,6.755,12.871c.844,4.158-3.096,6.733-3.659,12.079s1.407,8.713,5.066,17.624,5.911,17.822,5.911,21.584c0,3.762.844,4.752-5.629,12.673-6.473,7.921-19.031,11.287-20.827,15.049s-9.288,10.297-15.198,14.059c-5.911,3.762-4.503-5.148-5.348-9.505s-1.126-7.327-10.132-8.911c-9.006-1.584-10.977,6.139-10.132,11.287s2.252,14.257,5.911,19.802,7.318,2.376,10.414,0c3.096-2.376,7.318-4.356,10.695-1.386,3.377,2.97,1.689,4.752,0,7.723-1.689,2.97-1.689,6.535,1.407,11.683,3.096,5.148,9.288,2.376,18.576-.198,9.288-2.574,16.887-1.188,21.672-1.584s9.851,1.188,14.354-.396c4.503-1.584,14.917-4.95,18.294-5.148s4.503-.792,9.569-2.574c5.066-1.782,14.354-3.96,21.953-6.139,7.599-2.178,14.917-4.752,16.606-7.723,1.689-2.97,3.545-8.126,5.4-11.173,1.856-3.047,8.042-8.704,6.186-13.057s-3.505-9.575-1.237-15.813,2.474-6.673.206-18.569,1.237-15.813,3.712-21.761c2.474-5.948,11.135-15.088,14.434-21.761,3.299-6.673,3.918-9.575,3.918-17.119,0-7.544.619-21.036-1.031-29.015-1.65-7.979-7.423-10.155-10.104-11.606-2.681-1.451-5.567-6.093-2.062-9.14,3.505-3.047,7.217-5.078,6.805-6.818s.619-3.917,2.268-6.528,6.392-5.223,5.361-13.347,1.237-8.559,4.949-12.041c3.712-3.482,5.567-6.673,9.073-7.109s7.629.58,14.434-.435c6.805-1.016,8.042-4.497,11.753-11.316s7.217-9.285,9.279-16.103c2.062-6.818,1.65-10.3,7.423-16.974,5.774-6.673,3.712-11.026,5.567-15.668,1.856-4.642,11.135-12.186,12.166-22.051s-10.31-10.3-17.321-12.331c-7.011-2.031-11.341-5.948-10.722-10.59s-1.65-12.912-2.474-17.554,3.299-10.01,9.485-21.906c6.186-11.896,9.898-13.347,17.527-12.476,7.629.87,7.011,9.865,7.217,13.492s2.062,6.238,4.536,10.735c2.474,4.497,1.24,7.107,3.942,11.786,2.702,4.679,7.482,4.24,15.587,5.118,8.105.877,17.249-2.632,23.068-2.924,5.819-.292,8.105-.292,12.677,1.901s5.196,5.849,4.572,10.089-3.117,6.287-3.117,9.358.623,10.966,1.039,13.744-3.533,2.924-4.156,8.773,4.572,4.533,10.183,6.726,4.78,4.24,6.027,7.018,6.858,11.99,1.87,17.4c-4.988,5.41-2.494,9.65-.208,11.259,2.286,1.608,9.768,2.047,17.249,6.287,7.482,4.24,8.313.877,9.56-3.071s1.87-3.948,10.391-5.264,5.403-2.778,12.677-6.433,13.716-6.726,19.535-10.82c5.819-4.094,4.156-12.428,3.741-15.791s.623-2.486,3.741-10.381c3.117-7.896-1.663-10.235-4.78-11.697-3.117-1.462-13.716-6.433-18.289-8.919-4.572-2.486-15.795-12.282-20.99-16.23-5.196-3.948-4.156-5.41-12.262-6.287s-10.391-5.556-9.768-9.796,1.247-3.217,9.768-9.358-2.702-7.165,5.819-16.815c8.521-9.65,15.379-8.188,19.328-5.41,3.949,2.778,6.858,8.627,13.301,10.381s11.846,4.24,12.677,8.042c.831,3.802-1.247,17.838,10.807,18.862,12.054,1.024,12.054-4.24,12.885-13.598.831-9.358,4.88-12.679,6.457-15.342s8.202,1.775,11.041,2.219c2.839.444,7.571-4.661,13.88-3.551s3.47,8.877,2.839,13.094-7.255,10.875-3.785,15.535c3.47,4.661,4.732,11.984,12.933,15.313,8.202,3.329,13.249-1.997,18.611-7.102,5.363-5.104,8.517-9.543,13.564-13.76s4.101-8.212,4.732-15.313c.631-7.102,7.886-5.992,12.302-7.102,4.416-1.11,12.618,1.997,18.296,3.551,5.678,1.554,8.832,7.324,11.671,12.206,2.839,4.883,1.262,9.987,8.832,10.431,7.571.444,13.249-6.214,21.766-12.206,8.517-5.992,5.678-15.979,5.678-22.415,0-6.436,1.577-11.319,8.517-11.319,6.94,0,11.041,13.316,14.826,17.533,3.785,4.217,3.47,10.653,1.893,14.426s-11.987,10.875-15.457,18.864c-3.47,7.99-3.785,13.982-6.624,18.42s-10.094,9.099-17.98,18.199c-7.886,9.099-1.577,12.872,1.893,14.87,3.47,1.997,13.564,1.11,17.034,2.885,3.47,1.775,11.671,10.209,15.457,13.094s6.624,11.097,6.624,16.201c0,5.104-5.363,14.87-8.832,19.308-3.47,4.439-17.034,13.538-20.504,17.755-3.47,4.217,1.893,10.875-.631,16.867s-9.779,6.214-14.195,6.658c-4.416.444-14.195,9.321-17.665,13.094s-9.432,17.519-10.998,19.478c-1.566,1.959-4.874,3.551-7.31,3.551s-5.744-.612-14.621,1.714c-8.877,2.327-22.453,14.327-27.326,18.736-4.874,4.408-11.488,9.184-18.798,12.735-7.31,3.551-25.238,9.307-28.719,10.041-3.481.735-17.057-3.919-25.064,11.388-8.006,15.307-3.307,17.879.348,22.41,3.655,4.531,8.529,3.306,10.269,9.429,1.741,6.123-8.529,9.674-14.272,9.674-5.744,0-25.76.122-36.725.49-10.965.367-21.757,8.205-26.804,11.266-5.048,3.061-1.044,4.286,1.566,4.898s10.791-2.204,19.842-2.204c9.051,0,19.668,3.551,23.671,6.368,4.003,2.816,9.747,3.796,16.013,5.143,6.266,1.347,13.054,4.041,16.187,5.633,3.133,1.592,10.443,6.98,16.709,6.858s6.614-1.714,10.617-11.633c4.003-9.919,10.965-9.552,14.272-9.429,3.307.122,8.355,1.347,10.791,1.225s15.317-3.184,18.798-2.939c3.481.245,11.314-1.102,13.924-1.837,2.611-.735,7.832-.49,12.184,0,4.351.49,19.842,1.347,26.63,2.082,6.788.735,9.399.245,14.098-2.327,4.699-2.572,23.011-18.829,25.855-21.251,2.844-2.422,14.668-2.633,20.655-1.79,5.987.842,11.674,2.738,22.301,5.055,10.627,2.317,7.933,3.37,13.471,6.95s9.579.421,13.471-5.792,7.484-6.739,14.518-7.792c7.035-1.053,14.518,0,19.008.527s10.477-1.58,14.518-2.633c4.041-1.053,6.223-.232,7.568,4.501s-.807,6.816-2.691,9.088c-1.884,2.272-5.382,4.922-6.727,6.248s-1.884,2.84-7.266,7.762-7.535,15.525-8.073,23.098c-.538,7.573,11.84,11.928,17.222,15.146,5.382,3.219,10.205,4.378,16.392,7.357s4.559,6.415,10.421,12.143c5.862,5.728,11.398,3.895,19.539,0,8.141-3.895,13.352-2.979,17.26-1.604,3.908,1.375,8.467,4.353,13.352,4.124,4.885-.229,25.401-11.914,29.309-17.184,3.908-5.27,4.559-13.289,18.562-14.893,14.003-1.604,5.862,11.914,5.21,14.205-.651,2.291,4.559,3.666.651,6.644-3.908,2.979-8.141,4.124-12.049,5.27-3.908,1.146-8.467,8.019-12.375,10.768-3.908,2.749-6.839,4.124-15.957,8.706-9.118,4.582-11.072,12.831-16.934,17.871-5.862,5.041-11.536,5.486-16.486,7.292s-10.633,7.61-16.866,11.608-7.883,6.191-4.4,11.221c3.483,5.03,3.116,9.544-1.283,13.672s-11.733,4.256-15.949,5.288c-4.216,1.032-10.633,5.804-17.049,11.479s-12.649,9.931-19.249,16.251c-6.6,6.32-15.033,11.479-19.982,13.672-4.95,2.193-13.566,4.772-17.416,6.836-3.85,2.064-5.133,1.419-18.699,9.544-13.566,8.126-10.816,17.412-10.266,26.183.55,8.77-1.833,14.703-4.216,18.573-2.383,3.869-9.899,11.35-12.283,12.124-2.383.774-3.483.774-7.883-1.161s-.183-7.223,2.2-10.189c2.383-2.966,2.2-5.288,1.833-7.223s-6.309-1.776-7.444,2.816c-1.135,4.592-4.257,5.191-9.081,5.191-4.824,0-6.243,4.193-2.554,9.184,3.689,4.992,15.608,7.387,19.581,7.188s6.811.599,10.5,1.997c3.689,1.398,8.23,1.797,17.879.799,9.649-.998,12.203.399,14.473.998s5.108,1.797,11.068.399,5.676-2.596,10.5-7.188c4.824-4.592,15.201-6.772,20.636-7.345s16.984-5.353,25.137-12.619c8.153-7.265,14.267-11.376,23.099-14.626,8.832-3.25,16.984-9.56,22.555-12.619,5.571-3.059,10.598.096,12.636,1.912,2.038,1.816,6.386,10.229,12.365,16.634,5.979,6.405,11.278.86,23.642-6.214,12.365-7.074,18.071-2.868,21.604,0,3.533,2.868,6.522,4.78,11.685,5.258,5.163.478,6.93-1.625,11.685-3.633s8.424-1.434,13.995-3.728,9.24-5.162,12.229-8.317c2.989-3.155,2.989-7.265,4.212-13.766,1.223-6.501,6.386-5.927,11.278-5.927,4.892,0,5.299-.765,9.24-2.963,3.94-2.199,9.341-8.742,11.149-12.377s-.258-4.725,4.908-8.542,13.95-15.812,16.274-17.448c2.325-1.636,8.266-1.454,14.466-2.908,6.2-1.454,12.4-3.271,16.274-7.815s8.266-3.271,11.883-2.908c3.617.363-.517,5.089,5.941,6.361s6.716-.909,14.208-5.089c7.491-4.18,8.008,0,9.558,4.725,1.55,4.725-6.2,9.269-6.716,11.813-.517,2.544-1.808,4.18-5.839,6.293-4.03,2.112,1.189,5.157,6.872,10.973,5.683,5.816-3.358,8.906-10.075,12.177-6.716,3.271-3.875,9.451-2.583,15.267,1.292,5.816,8.525,5.452,13.95,6.179,5.425.727,6.716,5.271,7.491,11.632.775,6.361,1.55,8.36,3.875,14.54,2.325,6.179,10.333,6.361,15.499,6.361,0,0,47.635,6.423,65.248,17.513,17.613,11.09,80.237,10.437,87.412,2.609,7.176-7.828,19.57-9.133,29.355-9.133s25.441-5.219,30.007,1.957c4.566,7.176,13.699,13.047,31.312,11.09,17.613-1.957,20.875-11.742,36.531-8.48,15.656,3.262,48,17.587,66.119,16.626,11.202-.594,14.278-17.451,47.198-20.624,32.92-3.173,53.941-10.312,62.27-15.468,8.329-5.156,36.093-28.16,42.439-30.937,6.346-2.776,9.916-8.726,23.401-1.19,13.485,7.536,38.472-9.519,46.802-18.245,8.329-8.726,21.814-14.278,40.059-11.899,18.245,2.38,20.228,3.57,31.333,15.468,11.105,11.899,36.886,33.316,71.392,42.042,34.506,8.726,63.46,17.055,75.358,22.211,11.899,5.156,16.658,24.194,16.658,24.194" fill="none" stroke="#221f1f" stroke-miterlimit="10" stroke-width=".75"/>
  <g>
    <rect x="-2340.473" y="-2554.288" width="3386.58" height="2514.089" transform="translate(650.061 -1944.426) rotate(-90)" fill="none" stroke="#231f20" stroke-linecap="round" stroke-miterlimit="10" stroke-width="7"/>
    <rect x="-2323.506" y="-2537.166" width="3353.392" height="2482.402" transform="translate(649.155 -1942.775) rotate(-90)" fill="none" stroke="#231f20" stroke-linecap="round" stroke-miterlimit="10" stroke-width="3"/>
    <rect x="-2285.031" y="-2501.548" width="3275.615" height="2412.095" transform="translate(648.278 -1942.724) rotate(-90)" fill="none" stroke="#231f20" stroke-linecap="round" stroke-miterlimit="10"/>
    <rect x="-2267.163" y="-2484.185" width="3239.88" height="2376.261" transform="translate(648.831 -1943.277) rotate(-90)" fill="none" stroke="#231f20" stroke-linecap="round" stroke-miterlimit="10"/>
    <line x1="540.907" y1="324.39" x2="540.907" y2="342.307" fill="none" stroke="#231f20" stroke-linecap="round" stroke-miterlimit="10"/>
    <line x1="540.907" y1="323.886" x2="558.824" y2="323.886" fill="none" stroke="#231f20" stroke-linecap="round" stroke-miterlimit="10"/>
    <line x1="540.907" y1="108.381" x2="558.824" y2="108.381" fill="none" stroke="#231f20" stroke-linecap="round" stroke-miterlimit="10"/>
    <line x1="540.907" y1="36.459" x2="558.824" y2="36.459" fill="none" stroke="#231f20" stroke-linecap="round" stroke-miterlimit="10"/>
    <rect x="477.595" y="-39.808" width="144" height="8.773" transform="translate(585.016 514.174) rotate(-90)" fill="#231f20" stroke-width="0"/>
    <line x1="396.319" y1="341.647" x2="396.319" y2="324.011" fill="none" stroke="#231f20" stroke-linecap="round" stroke-miterlimit="10"/>
    <line x1="324.19" y1="342.307" x2="324.19" y2="324.039" fill="none" stroke="#231f20" stroke-linecap="round" stroke-miterlimit="10"/>
    <line x1="252.352" y1="341.647" x2="252.352" y2="323.73" fill="none" stroke="#231f20" stroke-linecap="round" stroke-miterlimit="10"/>
    <line x1="180.081" y1="341.647" x2="180.081" y2="323.73" fill="none" stroke="#231f20" stroke-linecap="round" stroke-miterlimit="10"/>
    <line x1="108.243" y1="341.647" x2="108.243" y2="323.73" fill="none" stroke="#231f20" stroke-linecap="round" stroke-miterlimit="10"/>
    <line x1="36.188" y1="341.647" x2="36.188" y2="323.73" fill="none" stroke="#231f20" stroke-linecap="round" stroke-miterlimit="10"/>
    <line x1="468.64" y1="341.647" x2="468.64" y2="323.73" fill="none" stroke="#231f20" stroke-linecap="round" stroke-miterlimit="10"/>
    <rect x="396.229" y="328.302" width="144.679" height="8.773" transform="translate(937.136 665.378) rotate(180)" fill="#231f20" stroke-width="0"/>
    <rect x="108.152" y="330.618" width="144" height="3.6" transform="translate(360.305 664.837) rotate(180)" fill="#231f20" stroke-width="0"/>
    <rect x="-107.699" y="328.302" width="144" height="8.773" transform="translate(-71.398 665.378) rotate(180)" fill="#231f20" stroke-width="0"/>
    <g>
      <path d="m545.558,311.146c.094.15.237.266.43.346.101.046.285.076.556.09.27.013.559.026.865.04.286.013.625.024,1.015.034.39.011.809.016,1.255.016h.64c.233,0,.472-.002.716-.005.243-.004.484-.005.725-.005h.65c.026,0,.048.008.064.024s.025.042.025.075c0,.054-.033.113-.101.18-.653.567-1.253,1.084-1.8,1.551-.547.466-1.068.911-1.564,1.335-.497.423-.982.838-1.455,1.244-.474.407-.964.837-1.471,1.29h4.221c.34,0,.646-.008.92-.024s.477-.059.609-.125c.153-.073.269-.188.346-.345.076-.157.132-.372.165-.646h.1v2.46h-.1c-.021-.16-.062-.32-.125-.479-.063-.16-.169-.287-.315-.381-.14-.093-.347-.153-.62-.18s-.6-.047-.979-.06c-.287-.014-.625-.023-1.016-.03-.39-.007-.808-.01-1.255-.01h-1.22c-.134,0-.297.003-.49.01-.193.02-.352.066-.475.14-.124.074-.221.16-.29.261-.07.1-.12.208-.15.324-.03.117-.052.229-.064.335h-.101v-2.029l5.54-4.74h-3.399c-.267,0-.522.003-.766.01s-.435.037-.575.09c-.187.067-.338.186-.455.355-.116.17-.198.415-.244.734h-.101v-2.479h.101c.033.247.097.445.189.595Z" fill="#231f20" stroke-width="0"/>
      <path d="m551.858,305.572c.12.053.229.123.325.21.097.086.17.188.22.305.051.116.075.245.075.385,0,.227-.066.429-.2.605-.133.177-.366.265-.699.265l-.011.021c.087.053.184.125.29.215.107.09.207.196.301.319.093.124.168.261.225.41.057.15.085.315.085.495,0,.106-.015.215-.045.325s-.083.21-.16.3c-.076.09-.175.163-.295.22s-.267.085-.44.085c-.187,0-.366-.074-.54-.225-.173-.15-.329-.335-.47-.555-.14-.221-.26-.415-.359-.585-.101-.17-.186-.318-.256-.445-.069-.127-.13-.238-.18-.335s-.095-.179-.135-.245h-1.03c-.013,0-.045.012-.095.035s-.102.063-.155.12c-.053.057-.102.135-.145.234-.044.101-.065.23-.065.391,0,.106.019.212.055.314.037.104.084.195.141.275s.113.144.17.189c.057.047.104.07.145.07h.45c.094,0,.177.049.25.146s.11.201.11.314c0,.106-.038.198-.115.275-.076.076-.165.115-.265.115-.08,0-.153-.021-.221-.061-.066-.04-.126-.09-.18-.149-.053-.061-.1-.125-.14-.195s-.077-.132-.11-.186c-.1-.173-.196-.35-.29-.529-.093-.181-.173-.352-.24-.516-.066-.163-.12-.312-.159-.449-.04-.137-.061-.249-.061-.336,0-.173.045-.336.135-.489s.202-.264.335-.33c.047-.026.129-.044.245-.05.117-.007.232-.011.346-.011.239,0,.456.002.649.005.193.004.38.006.561.006.18,0,.364,0,.555.005.189.003.398.005.625.005.3,0,.498-.052.595-.155s.146-.222.146-.354c0-.153-.032-.267-.096-.341-.062-.073-.145-.123-.245-.149v-.061c.127.007.25.037.37.091Zm-2.109,1.77c.087.12.178.271.274.45s.202.354.315.524c.113.171.238.317.375.44s.292.185.465.185c.174,0,.33-.06.47-.18.141-.12.21-.276.21-.47,0-.174-.02-.327-.06-.46-.04-.134-.116-.257-.23-.37-.073-.08-.166-.12-.279-.12h-1.54Z" fill="#231f20" stroke-width="0"/>
      <path d="m548.534,301.982c.097.087.145.187.145.3,0,.107-.019.192-.055.255-.037.063-.078.119-.125.165-.047.047-.089.097-.125.15-.037.054-.056.127-.056.22,0,.08.029.158.085.235.058.076.129.148.216.215.086.066.185.127.295.18.109.054.215.101.314.141h2.88c.061-.021.107-.063.141-.13.033-.067.057-.142.069-.226.014-.083.022-.17.025-.26.004-.09.012-.168.025-.235h.1v2.24h-.1c-.014-.153-.044-.285-.091-.395-.046-.11-.123-.165-.229-.165h-3.38c-.054,0-.094.005-.12.015s-.057.038-.09.085c-.033.06-.075.13-.125.21s-.092.16-.125.24h-.061l-.51-1.311v-.06l1.39.02v-.02c-.079-.033-.196-.087-.35-.16s-.309-.166-.465-.28c-.156-.113-.292-.25-.405-.409-.113-.16-.17-.344-.17-.551,0-.166.05-.308.15-.425.1-.116.227-.175.38-.175.146,0,.269.043.365.13Z" fill="#231f20" stroke-width="0"/>
      <path d="m548.534,298.282c.097.087.145.187.145.3,0,.107-.019.192-.055.255-.037.063-.078.119-.125.165-.047.047-.089.097-.125.15-.037.054-.056.127-.056.22,0,.08.029.158.085.235.058.076.129.148.216.215.086.066.185.127.295.18.109.054.215.101.314.141h2.88c.061-.021.107-.063.141-.13.033-.067.057-.142.069-.226.014-.083.022-.17.025-.26.004-.09.012-.168.025-.235h.1v2.24h-.1c-.014-.153-.044-.285-.091-.395-.046-.11-.123-.165-.229-.165h-3.38c-.054,0-.094.005-.12.015s-.057.038-.09.085c-.033.06-.075.13-.125.21s-.092.16-.125.24h-.061l-.51-1.311v-.06l1.39.02v-.02c-.079-.033-.196-.087-.35-.16s-.309-.166-.465-.28c-.156-.113-.292-.25-.405-.409-.113-.16-.17-.344-.17-.551,0-.166.05-.308.15-.425.1-.116.227-.175.38-.175.146,0,.269.043.365.13Z" fill="#231f20" stroke-width="0"/>
      <path d="m551.858,293.562c.12.053.229.123.325.21.097.086.17.188.22.305.051.116.075.245.075.385,0,.227-.066.429-.2.605-.133.177-.366.265-.699.265l-.011.021c.087.053.184.125.29.215.107.09.207.196.301.319.093.124.168.261.225.41.057.15.085.315.085.495,0,.106-.015.215-.045.325s-.083.21-.16.3c-.076.09-.175.163-.295.22s-.267.085-.44.085c-.187,0-.366-.074-.54-.225-.173-.15-.329-.335-.47-.555-.14-.221-.26-.415-.359-.585-.101-.17-.186-.318-.256-.445-.069-.127-.13-.238-.18-.335s-.095-.179-.135-.245h-1.03c-.013,0-.045.012-.095.035s-.102.063-.155.12c-.053.057-.102.135-.145.234-.044.101-.065.23-.065.391,0,.106.019.212.055.314.037.104.084.195.141.275s.113.144.17.189c.057.047.104.07.145.07h.45c.094,0,.177.049.25.146s.11.201.11.314c0,.106-.038.198-.115.275-.076.076-.165.115-.265.115-.08,0-.153-.021-.221-.061-.066-.04-.126-.09-.18-.149-.053-.061-.1-.125-.14-.195s-.077-.132-.11-.186c-.1-.173-.196-.35-.29-.529-.093-.181-.173-.352-.24-.516-.066-.163-.12-.312-.159-.449-.04-.137-.061-.249-.061-.336,0-.173.045-.336.135-.489s.202-.264.335-.33c.047-.026.129-.044.245-.05.117-.007.232-.011.346-.011.239,0,.456.002.649.005.193.004.38.006.561.006.18,0,.364,0,.555.005.189.003.398.005.625.005.3,0,.498-.052.595-.155s.146-.222.146-.354c0-.153-.032-.267-.096-.341-.062-.073-.145-.123-.245-.149v-.061c.127.007.25.037.37.091Zm-2.109,1.77c.087.12.178.271.274.45s.202.354.315.524c.113.171.238.317.375.44s.292.185.465.185c.174,0,.33-.06.47-.18.141-.12.21-.276.21-.47,0-.174-.02-.327-.06-.46-.04-.134-.116-.257-.23-.37-.073-.08-.166-.12-.279-.12h-1.54Z" fill="#231f20" stroke-width="0"/>
      <path d="m548.454,288.265c.076.07.114.155.114.255,0,.04-.017.101-.05.181-.033.079-.073.168-.12.265-.046.097-.098.195-.154.295s-.108.19-.155.27l.04.04c.153-.1.297-.185.43-.255.134-.069.307-.104.521-.104.526,0,.921.184,1.185.55.264.367.396.873.396,1.52,0,.094-.007.188-.021.285s-.02.212-.02.346c.013.213.063.383.149.51.087.127.197.189.33.189.106,0,.195-.033.265-.1.07-.066.125-.15.165-.25s.067-.21.08-.33c.014-.12.021-.236.021-.35v-1.601c0-.233.036-.443.109-.63.074-.187.174-.347.301-.479.126-.134.271-.235.435-.306.163-.069.345-.104.545-.104.26,0,.509.064.745.194.236.131.445.312.625.546s.321.508.425.824c.104.317.155.665.155,1.045,0,.728-.108,1.292-.325,1.695s-.515.605-.895.605c-.141,0-.267-.039-.38-.115-.114-.077-.222-.174-.325-.29s-.2-.247-.29-.39c-.09-.144-.179-.285-.266-.426h-.02c-.04.341-.137.603-.29.785-.153.184-.356.275-.61.275-.126,0-.246-.03-.359-.09-.113-.061-.217-.144-.311-.25-.093-.106-.171-.231-.234-.375s-.105-.299-.125-.466h-.03c-.113.294-.28.522-.5.686s-.5.245-.84.245c-.214,0-.413-.049-.601-.146-.187-.097-.348-.231-.484-.404-.137-.174-.245-.379-.325-.615s-.12-.495-.12-.775c0-.253.023-.479.07-.675s.127-.401.24-.615c.026-.08.043-.148.05-.205s.01-.125.01-.205c0-.079-.012-.151-.035-.215s-.05-.121-.08-.175c-.03-.053-.057-.11-.08-.17s-.035-.13-.035-.21c0-.113.04-.207.12-.28s.177-.109.29-.109c.101,0,.188.034.266.104Zm.135,1.815c-.153.047-.288.114-.405.205-.116.09-.21.203-.28.34-.069.137-.104.295-.104.475,0,.167.038.316.115.45.076.134.18.245.31.335s.278.158.445.205.337.07.51.07c.4,0,.722-.102.965-.306.243-.203.365-.451.365-.745,0-.18-.04-.338-.12-.475s-.187-.252-.32-.345c-.133-.094-.284-.163-.455-.21-.17-.047-.348-.07-.534-.07-.174,0-.337.023-.49.07Zm4.34-.83c-.14.08-.236.177-.29.29-.073.146-.125.33-.155.55-.029.22-.045.523-.045.91,0,.14.007.283.021.43.013.146.026.267.04.36.08.313.206.529.38.649.173.12.363.181.57.181.213,0,.399-.059.56-.176.16-.116.295-.261.405-.435.109-.173.191-.358.245-.555.053-.197.079-.379.079-.545,0-.2-.01-.372-.029-.516-.021-.143-.05-.271-.09-.385-.094-.233-.244-.438-.45-.615-.207-.177-.454-.265-.74-.265-.193,0-.36.04-.5.12Z" fill="#231f20" stroke-width="0"/>
      <path d="m551.858,283.571c.12.053.229.123.325.21.097.086.17.188.22.305.051.116.075.245.075.385,0,.227-.066.429-.2.605-.133.177-.366.265-.699.265l-.011.021c.087.053.184.125.29.215.107.09.207.196.301.319.093.124.168.261.225.41.057.15.085.315.085.495,0,.106-.015.215-.045.325s-.083.21-.16.3c-.076.09-.175.163-.295.22s-.267.085-.44.085c-.187,0-.366-.074-.54-.225-.173-.15-.329-.335-.47-.555-.14-.221-.26-.415-.359-.585-.101-.17-.186-.318-.256-.445-.069-.127-.13-.238-.18-.335s-.095-.179-.135-.245h-1.03c-.013,0-.045.012-.095.035s-.102.063-.155.12c-.053.057-.102.135-.145.234-.044.101-.065.23-.065.391,0,.106.019.212.055.314.037.104.084.195.141.275s.113.144.17.189c.057.047.104.07.145.07h.45c.094,0,.177.049.25.146s.11.201.11.314c0,.106-.038.198-.115.275-.076.076-.165.115-.265.115-.08,0-.153-.021-.221-.061-.066-.04-.126-.09-.18-.149-.053-.061-.1-.125-.14-.195s-.077-.132-.11-.186c-.1-.173-.196-.35-.29-.529-.093-.181-.173-.352-.24-.516-.066-.163-.12-.312-.159-.449-.04-.137-.061-.249-.061-.336,0-.173.045-.336.135-.489s.202-.264.335-.33c.047-.026.129-.044.245-.05.117-.007.232-.011.346-.011.239,0,.456.002.649.005.193.004.38.006.561.006.18,0,.364,0,.555.005.189.003.398.005.625.005.3,0,.498-.052.595-.155s.146-.222.146-.354c0-.153-.032-.267-.096-.341-.062-.073-.145-.123-.245-.149v-.061c.127.007.25.037.37.091Zm-2.109,1.77c.087.12.178.271.274.45s.202.354.315.524c.113.171.238.317.375.44s.292.185.465.185c.174,0,.33-.06.47-.18.141-.12.21-.276.21-.47,0-.174-.02-.327-.06-.46-.04-.134-.116-.257-.23-.37-.073-.08-.166-.12-.279-.12h-1.54Z" fill="#231f20" stroke-width="0"/>
      <path d="m552.468,280.44h-.11c-.013-.18-.034-.323-.064-.43s-.099-.16-.205-.16h-2.521c-.386,0-.698.073-.935.22s-.355.394-.355.74c0,.22.047.403.141.55.093.146.229.311.41.49h3.279c.067-.014.115-.037.146-.07s.052-.073.064-.12c.014-.046.022-.1.025-.159.004-.061.012-.124.025-.19h.1v1.93h-.1c-.014-.153-.044-.285-.091-.395-.046-.11-.123-.165-.229-.165h-3.44c-.053,0-.093.005-.12.015-.026.01-.056.039-.09.085-.033.061-.071.13-.114.21-.044.08-.082.16-.115.24h-.061l-.47-1.31v-.061h1.08l.01-.02c-.113-.073-.234-.165-.365-.274-.13-.109-.248-.234-.354-.374-.106-.139-.195-.292-.265-.458-.07-.166-.105-.339-.105-.519,0-.385.144-.681.43-.887.287-.206.657-.309,1.11-.309h2.94c.046,0,.086-.021.119-.065.034-.043.059-.095.075-.154.017-.061.03-.125.04-.195s.019-.135.025-.195h.09v2.03Z" fill="#231f20" stroke-width="0"/>
      <path d="m551.683,274.645c.19.104.345.242.465.415.12.174.207.372.261.595.053.224.079.459.079.705,0,.294-.026.57-.079.83-.054.26-.131.5-.23.721h-1.32v-.08c.16-.054.329-.12.505-.199.177-.08.341-.177.49-.289.15-.113.273-.249.37-.408.097-.16.146-.349.146-.568,0-.318-.092-.572-.275-.762s-.465-.284-.845-.284c-.207,0-.379.065-.516.194-.136.13-.228.308-.274.533-.033.18-.07.352-.11.518s-.083.315-.13.448c-.087.253-.236.457-.45.613-.213.155-.47.233-.77.233-.207,0-.394-.043-.561-.13-.166-.086-.31-.203-.43-.35s-.212-.316-.275-.51c-.062-.193-.095-.4-.095-.62,0-.28.025-.527.075-.74s.111-.417.185-.61l1.24-.12.021.08c-.2.094-.386.188-.556.28-.17.094-.316.196-.439.31-.124.114-.219.242-.285.386s-.101.309-.101.495c0,.113.021.225.061.335.04.109.099.206.175.29.077.083.174.151.29.205.117.053.252.079.405.079.246,0,.423-.069.529-.21.107-.14.188-.316.24-.529.033-.146.068-.307.105-.48.036-.173.071-.323.104-.45.073-.3.227-.555.46-.765s.521-.315.86-.315c.26,0,.485.052.675.155Z" fill="#231f20" stroke-width="0"/>
      <path d="m551.443,270.08c.184.094.353.221.506.381.153.159.279.352.38.574.1.224.149.472.149.745,0,.34-.063.65-.189.931-.127.279-.306.518-.535.715-.23.196-.5.348-.811.455-.31.106-.638.159-.984.159-.28,0-.559-.05-.835-.149-.276-.101-.525-.242-.745-.425-.22-.184-.398-.407-.535-.67-.137-.264-.205-.556-.205-.875,0-.261.033-.506.1-.735.067-.23.169-.43.306-.6.137-.171.309-.309.515-.415.207-.107.45-.171.73-.19v3.21c.053,0,.114.004.185.01.07.007.142.011.215.011.28,0,.549-.04.806-.12.256-.08.483-.197.68-.351s.352-.347.465-.58.17-.503.17-.81c0-.333-.085-.625-.255-.875s-.378-.415-.625-.495l.021-.08c.146.026.312.087.494.18Zm-3.369,1.146c-.177.17-.266.398-.266.685,0,.188.055.355.165.505.11.15.238.28.385.391.147.109.295.194.445.255.15.06.265.097.345.11v-.41c0-.12,0-.238-.005-.355-.003-.116-.007-.238-.01-.365-.003-.126-.005-.267-.005-.42,0-.1-.004-.193-.01-.279-.007-.087-.023-.164-.051-.23-.053-.047-.103-.081-.149-.104s-.117-.035-.21-.035c-.247,0-.459.085-.635.255Z" fill="#231f20" stroke-width="0"/>
      <path d="m548.348,266.56v1.521h2.63c.34,0,.587-.073.74-.22s.23-.337.23-.57c0-.193-.032-.354-.096-.48-.063-.126-.161-.236-.295-.329l.03-.061c.1.04.205.095.314.165.11.07.21.163.301.28.09.116.159.253.21.41.05.156.074.342.074.555,0,.14-.021.274-.064.403-.043.128-.106.242-.19.341-.083.099-.176.18-.279.242s-.209.094-.315.094c-.627,0-1.222-.004-1.785-.01-.563-.007-1.064-.011-1.505-.011v.73h-.11l-1.369-1.441v-.079h.869v-1.85l.61.31Z" fill="#231f20" stroke-width="0"/>
      <path d="m548.348,263.19v1.521h2.63c.34,0,.587-.073.74-.22s.23-.337.23-.57c0-.193-.032-.354-.096-.48-.063-.126-.161-.236-.295-.329l.03-.061c.1.04.205.095.314.165.11.07.21.163.301.28.09.116.159.253.21.41.05.156.074.342.074.555,0,.14-.021.274-.064.403-.043.128-.106.242-.19.341-.083.099-.176.18-.279.242s-.209.094-.315.094c-.627,0-1.222-.004-1.785-.01-.563-.007-1.064-.011-1.505-.011v.73h-.11l-1.369-1.441v-.079h.869v-1.85l.61.31Z" fill="#231f20" stroke-width="0"/>
      <path d="m551.148,254.049c.193.074.363.171.511.29.146.12.271.254.375.4.103.146.182.294.234.44.094.253.15.536.17.85.021.313.03.617.03.91v3.45h-.1c-.027-.167-.07-.325-.131-.476-.06-.149-.143-.271-.25-.365-.039-.033-.098-.06-.175-.079-.076-.021-.165-.039-.265-.056s-.205-.028-.315-.035c-.109-.006-.218-.01-.324-.01-.094,0-.221,0-.381-.005-.159-.003-.335-.007-.524-.01-.19-.004-.385-.005-.585-.005h-1.55c-.146,0-.297,0-.45.005-.153.003-.33.005-.53.005-.12,0-.241.003-.365.01-.123.007-.241.019-.354.035s-.215.037-.306.06c-.09.023-.154.056-.194.096-.106.1-.179.2-.215.3-.037.1-.065.24-.085.42h-.101v-3.37c0-.253.016-.495.045-.725.03-.23.085-.452.165-.665.127-.34.32-.62.58-.84.26-.221.59-.33.99-.33.439,0,.795.142,1.064.425.271.283.452.651.546,1.104h.04c.026-.239.085-.477.175-.71s.212-.441.364-.625c.154-.183.336-.33.546-.439.21-.11.448-.165.715-.165.239,0,.456.036.649.109Zm-4.989,1.705c-.261.17-.447.382-.561.636-.133.3-.2.683-.2,1.149,0,.141.007.267.021.38.014.114.03.2.05.261.04.006.077.013.11.02s.074.012.125.015c.05.004.111.007.185.011.073.003.17.008.29.015.233.007.49.012.771.015.279.004.546.006.8.006h.96v-.561c0-.153-.004-.276-.01-.37-.034-.6-.204-1.055-.511-1.365-.307-.31-.687-.465-1.14-.465-.333,0-.63.085-.89.255Zm3.904-.55c-.17.063-.326.15-.47.26-.144.11-.267.24-.37.391-.104.149-.185.314-.245.495-.046.146-.078.291-.095.435s-.025.312-.025.505v.971h1.25c.188,0,.358-.002.516-.006.156-.003.291-.005.404-.005.254-.006.462-.018.625-.035.164-.017.299-.064.405-.145.073-.06.135-.15.186-.271.05-.119.074-.293.074-.52,0-.193-.013-.403-.04-.63-.026-.227-.096-.446-.21-.66-.146-.28-.341-.496-.585-.65-.243-.153-.534-.229-.875-.229-.193,0-.375.031-.545.095Z" fill="#231f20" stroke-width="0"/>
      <path d="m551.858,248.64c.12.053.229.123.325.21.097.086.17.188.22.305.051.116.075.245.075.385,0,.227-.066.429-.2.605-.133.177-.366.265-.699.265l-.011.021c.087.053.184.125.29.215.107.09.207.196.301.319.093.124.168.261.225.41.057.15.085.315.085.495,0,.106-.015.215-.045.325s-.083.21-.16.3c-.076.09-.175.163-.295.22s-.267.085-.44.085c-.187,0-.366-.074-.54-.225-.173-.15-.329-.335-.47-.555-.14-.221-.26-.415-.359-.585-.101-.17-.186-.318-.256-.445-.069-.127-.13-.238-.18-.335s-.095-.179-.135-.245h-1.03c-.013,0-.045.012-.095.035s-.102.063-.155.12c-.053.057-.102.135-.145.234-.044.101-.065.23-.065.391,0,.106.019.212.055.314.037.104.084.195.141.275s.113.144.17.189c.057.047.104.07.145.07h.45c.094,0,.177.049.25.146s.11.201.11.314c0,.106-.038.198-.115.275-.076.076-.165.115-.265.115-.08,0-.153-.021-.221-.061-.066-.04-.126-.09-.18-.149-.053-.061-.1-.125-.14-.195s-.077-.132-.11-.186c-.1-.173-.196-.35-.29-.529-.093-.181-.173-.352-.24-.516-.066-.163-.12-.312-.159-.449-.04-.137-.061-.249-.061-.336,0-.173.045-.336.135-.489s.202-.264.335-.33c.047-.026.129-.044.245-.05.117-.007.232-.011.346-.011.239,0,.456.002.649.005.193.004.38.006.561.006.18,0,.364,0,.555.005.189.003.398.005.625.005.3,0,.498-.052.595-.155s.146-.222.146-.354c0-.153-.032-.267-.096-.341-.062-.073-.145-.123-.245-.149v-.061c.127.007.25.037.37.091Zm-2.109,1.77c.087.12.178.271.274.45s.202.354.315.524c.113.171.238.317.375.44s.292.185.465.185c.174,0,.33-.06.47-.18.141-.12.21-.276.21-.47,0-.174-.02-.327-.06-.46-.04-.134-.116-.257-.23-.37-.073-.08-.166-.12-.279-.12h-1.54Z" fill="#231f20" stroke-width="0"/>
      <path d="m547.869,244.394c.006.077.023.15.05.221.026.069.068.131.125.185s.139.097.245.13.276.087.51.16.509.16.825.26c.316.101.665.21,1.045.33s.77.242,1.17.365c.399.123.797.247,1.189.37.394.123.767.241,1.12.354.254.08.437.193.551.34.113.147.17.297.17.45,0,.134-.043.257-.127.37s-.193.17-.328.17-.246-.04-.334-.12-.131-.187-.131-.319c0-.134.04-.245.121-.335.081-.091.165-.182.253-.275v-.02c-.181-.073-.358-.139-.535-.195s-.336-.106-.479-.15c-.144-.043-.265-.078-.364-.104-.101-.026-.167-.044-.2-.05-.026.013-.122.05-.284.109-.163.061-.373.137-.63.23-.256.093-.545.2-.864.319-.319.12-.647.242-.984.365-.336.124-.667.245-.994.365-.326.12-.626.229-.898.33-.067.06-.12.132-.16.215s-.066.238-.08.465h-.11v-2.18h.11c.021.14.047.262.08.365s.113.154.24.154c.033,0,.115-.02.245-.06s.291-.094.484-.16.405-.142.636-.225c.229-.084.461-.167.694-.25.233-.084.459-.165.675-.245.217-.08.405-.15.565-.21-.054-.021-.167-.057-.34-.11-.174-.053-.379-.116-.615-.189-.236-.074-.485-.15-.745-.23s-.505-.153-.734-.22c-.23-.066-.427-.122-.591-.165-.163-.044-.265-.065-.305-.065-.06,0-.108.017-.145.05-.037.034-.065.079-.085.136-.021.057-.034.118-.04.185-.007.066-.014.13-.021.19h-.11v-1.54h.11c.007.08.014.158.021.234Z" fill="#231f20" stroke-width="0"/>
    </g>
  </g>
</svg>